M48
;Layer_Color=9474304
;FILE_FORMAT=2:5
INCH,LZ
;TYPE=PLATED
T1F00S00C0.00787
T2F00S00C0.04000
T3F00S00C0.07283
;TYPE=NON_PLATED
T4F00S00C0.05000
T5F00S00C0.07874
%
T01
X0051181Y0013386
X0074803
X0073228Y0038583
X0083071Y003622
X0093307Y0031102
X0101362Y0038795
X0111811Y0046457
Y0030709
X0125189Y0037016
X0146457Y0029134
X0143307Y0013386
X0148819Y000315
X0148031Y0051181
X0150394Y0062992
X0153543Y0066142
X0155905Y0069291
X0149606Y0093701
X0151181Y01
X0146457Y0103937
X0136221
X0131496Y0109449
X0120472Y0118898
X0115945Y0136555
X0115425Y0145205
X0099606Y0155512
X0074016Y0149606
X0032283Y0150394
X0016535Y0148819
X0011024Y0124409
X0006299
X0034009Y0126772
X0036614Y0124409
X0044882Y0131496
X0041122Y0136398
X0051181Y0120472
X0048819Y0117323
X0047244Y0106299
X0048031Y0102543
X0040945Y0110236
X0041122Y0089153
X003622Y0088976
X0006299
X0006233Y0076311
X0041732Y0063386
X0051181Y0059055
X0041122Y0041909
X0036122Y0041043
X0120472Y0082677
X0113386Y0098425
X0142611Y0139985
X0142253Y0155118
X0167717Y0148425
Y0141732
X0174409Y0147244
X0175591Y0127559
X0179528Y0128347
X0169685Y0129921
X0169348Y0124409
X0187402Y0133071
Y0113386
X0185433Y0088189
X0187429Y0083043
X018189Y0081102
X0189764Y0077165
X0192126Y0067716
X0194783Y0061572
X0159055Y0066142
X0161417Y0071653
X0163779Y0032283
X0173228Y0029134
X0163779Y0015748
X0169291Y0161024
X0172441Y0163779
X0176378
X0178347Y0159449
X0174803Y0168504
X0166929Y0167913
X0168504Y0185039
X0175492Y0189764
X0174409Y0196063
X0172441Y0201378
X0176772Y0201492
X0177165Y0204724
Y0209449
X0172441Y0208661
X0174409Y0215748
X0179724Y0214961
X0182283Y0213189
X0181496Y0219291
X0187205Y0204724
X0192126Y0205511
X0187402Y0186614
X0175591Y0177953
X015748Y0180315
X0167717Y0228346
X0166929Y0240158
X0162205Y0243307
X0167717Y0249606
X016063Y0255906
X0174016Y0236417
X0183268Y0240748
X0142913Y0243307
X0140945Y0249606
X0140157Y0255906
X0127559Y0268504
Y0273228
X0129165Y0276378
X0129921Y0288976
Y0295276
X0135433Y0292913
Y0299213
X0148819Y0298425
X0151969Y0292913
X0151181Y0286614
X0146457Y0291339
X01543Y0276378
X0155905Y0273228
X0155118Y0268504
X0113189Y025689
X0125984Y024252
X0126772Y0234646
X0112598Y0228346
Y0223622
X0114961Y0216929
X0110236Y0216142
X0111811Y0205512
X0111417Y0198031
X0102362Y02
X0101969Y0191732
X0099213Y0188189
X0105236Y0177441
X0110384Y0166289
X0107874Y0163779
X0105512Y016063
X0102362Y0158268
X0124409Y0179528
X0140157Y0180315
X0138583Y0174016
X0140945Y0167717
X0142913Y0162992
X0137303Y0190847
X0148031Y019252
X0144488Y0196457
X0109449Y0231496
X0102362Y023937
X0091339Y0273228
X0065354Y0287402
X0070866Y0292913
Y0304724
X0063779Y0307087
X0056693Y0304724
X0055905Y0292126
X0062992Y0296969
X0028346Y0264567
X0030709Y0251969
X002126
X0015303
X0011417
X0006299Y0266142
X0006594Y0229921
X0010303
X0018898Y0230709
X0025984Y0244094
X0031941Y0243307
X0035433Y0243307
X0041122Y0230886
Y0215925
X0037354Y0195957
X0049476Y0194717
X0048031Y0191339
X0044882Y0181102
X0041122Y0183642
X0030709Y0181102
X0026941
X0016535Y0171653
X0011122Y0171555
X0006299Y0171653
Y019685
X0011941Y019685
X0015748Y019685
X0011024Y0205512
X0005512Y021811
X0046457Y0354252
X0056693Y0348819
X0062992Y0351969
X006063Y035748
Y0363779
Y0368504
X0080315Y0358268
X0083465Y0356693
X0086614Y0358268
X0092126
X009685
Y0354331
X0090551
Y0348819
X0108268Y0351969
X0111811Y0354331
X0115748Y0351181
X0119685Y0354331
X0127756Y0350984
X0120472Y0328346
X0090551Y0313386
X0131496Y0389764
X0166142Y035748
X0162992Y0354331
X0163779Y0350394
X0164567Y0333071
X0161417Y0334646
X015748Y0333071
X0168504Y0334646
X018189Y0340945
X0185039Y0344094
X0188976Y033937
X0192126Y0314961
T02
X0014685Y0360079
Y0370079
Y0380079
X0024685
Y0370079
Y0360079
T03
X0061417Y007126
Y0087008
Y0102756
Y0118504
Y0134252
Y015
X0077165Y0142126
Y0126378
Y011063
Y0094882
Y0079134
X0092913Y007126
Y0087008
Y0102756
Y0118504
Y0134252
Y015
Y0165748
Y0181496
Y0197244
Y0212992
Y022874
Y0244488
X0077165Y0236614
Y0220866
Y0205118
Y018937
Y0173622
Y0157874
X0061417Y0165748
Y0181496
Y0197244
Y0212992
Y022874
Y0244488
T04
X0141732Y0108268
X0135827Y0287008
T05
X0034646Y0033071
X0105709Y0027165
Y0288583
X0034646Y0282677
M30
