M48
;Layer_Color=9474304
;FILE_FORMAT=2:4
INCH,TZ
;TYPE=PLATED
T1F00S00C0.0079
T2F00S00C0.0400
T3F00S00C0.0728
;TYPE=NON_PLATED
T4F00S00C0.0500
T5F00S00C0.0787
%
T01
X5118Y1339
X7480
X7323Y3858
X8307Y3622
X9331Y3110
X10136Y3880
X11181Y4646
Y3071
X12519Y3702
X14646Y2913
X14331Y1339
X14882Y315
X14803Y5118
X15039Y6299
X15354Y6614
X15591Y6929
X14961Y9370
X15118Y10000
X14646Y10394
X13622
X13150Y10945
X12047Y11890
X11594Y13656
X11543Y14520
X9961Y15551
X7402Y14961
X3228Y15039
X1654Y14882
X1102Y12441
X630
X3401Y12677
X3661Y12441
X4488Y13150
X4112Y13640
X5118Y12047
X4882Y11732
X4724Y10630
X4803Y10254
X4094Y11024
X4112Y8915
X3622Y8898
X630
X623Y7631
X4173Y6339
X5118Y5906
X4112Y4191
X3612Y4104
X12047Y8268
X11339Y9843
X14261Y13998
X14225Y15512
X16772Y14843
Y14173
X17441Y14724
X17559Y12756
X17953Y12835
X16968Y12992
X16935Y12441
X18740Y13307
Y11339
X18543Y8819
X18743Y8304
X18189Y8110
X18976Y7717
X19213Y6772
X19478Y6157
X15906Y6614
X16142Y7165
X16378Y3228
X17323Y2913
X16378Y1575
X16929Y16102
X17244Y16378
X17638
X17835Y15945
X17480Y16850
X16693Y16791
X16850Y18504
X17549Y18976
X17441Y19606
X17244Y20138
X17677Y20149
X17717Y20472
Y20945
X17244Y20866
X17441Y21575
X17972Y21496
X18228Y21319
X18150Y21929
X18720Y20472
X19213Y20551
X18740Y18661
X17559Y17795
X15748Y18032
X16772Y22835
X16693Y24016
X16220Y24331
X16772Y24961
X16063Y25591
X17402Y23642
X18327Y24075
X14291Y24331
X14094Y24961
X14016Y25591
X12756Y26850
Y27323
X12916Y27638
X12992Y28898
Y29528
X13543Y29291
Y29921
X14882Y29843
X15197Y29291
X15118Y28661
X14646Y29134
X15430Y27638
X15591Y27323
X15512Y26850
X11319Y25689
X12598Y24252
X12677Y23465
X11260Y22835
Y22362
X11496Y21693
X11024Y21614
X11181Y20551
X11142Y19803
X10236Y20000
X10197Y19173
X9921Y18819
X10524Y17744
X11038Y16629
X10787Y16378
X10551Y16063
X10236Y15827
X12441Y17953
X14016Y18032
X13858Y17402
X14094Y16772
X14291Y16299
X13730Y19085
X14803Y19252
X14449Y19646
X10945Y23150
X10236Y23937
X9134Y27323
X6535Y28740
X7087Y29291
Y30472
X6378Y30709
X5669Y30472
X5591Y29213
X6299Y29697
X2835Y26457
X3071Y25197
X2126
X1530
X1142
X630Y26614
X659Y22992
X1030
X1890Y23071
X2598Y24409
X3194Y24331
X3543Y24331
X4112Y23089
Y21593
X3735Y19596
X4948Y19472
X4803Y19134
X4488Y18110
X4112Y18364
X3071Y18110
X2694
X1654Y17165
X1112Y17156
X630Y17165
Y19685
X1194Y19685
X1575Y19685
X1102Y20551
X551Y21811
X4646Y35425
X5669Y34882
X6299Y35197
X6063Y35748
Y36378
Y36850
X8031Y35827
X8346Y35669
X8661Y35827
X9213
X9685
Y35433
X9055
Y34882
X10827Y35197
X11181Y35433
X11575Y35118
X11968Y35433
X12776Y35098
X12047Y32835
X9055Y31339
X13150Y38976
X16614Y35748
X16299Y35433
X16378Y35039
X16457Y33307
X16142Y33465
X15748Y33307
X16850Y33465
X18189Y34094
X18504Y34409
X18898Y33937
X19213Y31496
T02
X1469Y36008
Y37008
Y38008
X2468
Y37008
Y36008
T03
X6142Y7126
Y8701
Y10276
Y11850
Y13425
Y15000
X7717Y14213
Y12638
Y11063
Y9488
Y7913
X9291Y7126
Y8701
Y10276
Y11850
Y13425
Y15000
Y16575
Y18150
Y19724
Y21299
Y22874
Y24449
X7717Y23661
Y22087
Y20512
Y18937
Y17362
Y15787
X6142Y16575
Y18150
Y19724
Y21299
Y22874
Y24449
T04
X14173Y10827
X13583Y28701
T05
X3465Y3307
X10571Y2717
Y28858
X3465Y28268
M30
