G04*
G04 #@! TF.GenerationSoftware,Altium Limited,Altium Designer,19.1.8 (144)*
G04*
G04 Layer_Color=16711935*
%FSLAX25Y25*%
%MOIN*%
G70*
G01*
G75*
%ADD18R,0.04540X0.04147*%
%ADD21R,0.04147X0.04540*%
%ADD23R,0.04343X0.03556*%
%ADD26R,0.04343X0.03950*%
G04:AMPARAMS|DCode=31|XSize=55.64mil|YSize=79.65mil|CornerRadius=11.86mil|HoleSize=0mil|Usage=FLASHONLY|Rotation=180.000|XOffset=0mil|YOffset=0mil|HoleType=Round|Shape=RoundedRectangle|*
%AMROUNDEDRECTD31*
21,1,0.05564,0.05593,0,0,180.0*
21,1,0.03192,0.07965,0,0,180.0*
1,1,0.02372,-0.01596,0.02797*
1,1,0.02372,0.01596,0.02797*
1,1,0.02372,0.01596,-0.02797*
1,1,0.02372,-0.01596,-0.02797*
%
%ADD31ROUNDEDRECTD31*%
%ADD34R,0.03556X0.04343*%
%ADD35R,0.06115X0.04540*%
%ADD43C,0.04737*%
%ADD44C,0.11725*%
%ADD45C,0.00800*%
%ADD46C,0.06600*%
%ADD47C,0.01981*%
%ADD48C,0.02375*%
%ADD86R,0.04343X0.02178*%
%ADD87R,0.12205X0.01496*%
%ADD88R,0.09461X0.09265*%
%ADD89R,0.17493X0.15800*%
%ADD90R,0.27178X0.26391*%
%ADD91R,0.07099X0.06706*%
D18*
X43307Y366339D02*
D03*
Y361221D02*
D03*
Y378543D02*
D03*
Y383661D02*
D03*
D21*
X171457Y118898D02*
D03*
X176575D02*
D03*
X112795Y182677D02*
D03*
X107677D02*
D03*
X107677Y172441D02*
D03*
X112795D02*
D03*
X107677Y239370D02*
D03*
X112795D02*
D03*
X187205Y372441D02*
D03*
X192323D02*
D03*
X187205Y385039D02*
D03*
X192323D02*
D03*
D23*
X170079Y219685D02*
D03*
Y214173D02*
D03*
X107874Y220079D02*
D03*
Y225590D02*
D03*
X113386Y129528D02*
D03*
Y124016D02*
D03*
X170079Y195669D02*
D03*
Y190157D02*
D03*
X107874Y155512D02*
D03*
Y150000D02*
D03*
X42520Y238189D02*
D03*
Y243701D02*
D03*
X41732Y143701D02*
D03*
Y149213D02*
D03*
Y191732D02*
D03*
Y197244D02*
D03*
Y49213D02*
D03*
Y54724D02*
D03*
Y96457D02*
D03*
Y101969D02*
D03*
D26*
X185039Y350394D02*
D03*
X192913Y346654D02*
D03*
Y354134D02*
D03*
D31*
X16732Y343307D02*
D03*
X5315D02*
D03*
X16732Y329921D02*
D03*
X5315D02*
D03*
D34*
X169685Y155905D02*
D03*
X175197D02*
D03*
X173622Y133071D02*
D03*
X179134D02*
D03*
X111417Y193701D02*
D03*
X105905D02*
D03*
X191732Y365354D02*
D03*
X186221D02*
D03*
D35*
X36220Y368504D02*
D03*
Y374803D02*
D03*
D43*
X34646Y33071D02*
D03*
X105709Y27165D02*
D03*
X34646Y282677D02*
D03*
X105709Y288583D02*
D03*
D44*
X92913Y71260D02*
D03*
Y87008D02*
D03*
Y102756D02*
D03*
Y118504D02*
D03*
Y134252D02*
D03*
Y150000D02*
D03*
Y165748D02*
D03*
Y181496D02*
D03*
Y197244D02*
D03*
Y212992D02*
D03*
Y228740D02*
D03*
Y244488D02*
D03*
X77165Y79134D02*
D03*
Y94882D02*
D03*
Y110630D02*
D03*
Y126378D02*
D03*
Y142126D02*
D03*
Y157874D02*
D03*
Y173622D02*
D03*
Y189370D02*
D03*
Y205118D02*
D03*
Y220866D02*
D03*
Y236614D02*
D03*
X61417Y71260D02*
D03*
Y87008D02*
D03*
Y102756D02*
D03*
Y118504D02*
D03*
Y134252D02*
D03*
Y150000D02*
D03*
Y165748D02*
D03*
Y181496D02*
D03*
Y197244D02*
D03*
Y212992D02*
D03*
Y228740D02*
D03*
Y244488D02*
D03*
D45*
X135827Y287008D02*
D03*
X141732Y108268D02*
D03*
D46*
X14685Y360079D02*
D03*
Y370079D02*
D03*
Y380079D02*
D03*
X24685Y360079D02*
D03*
Y370079D02*
D03*
Y380079D02*
D03*
D47*
X111811Y205512D02*
D03*
X113189Y256890D02*
D03*
X101575Y192126D02*
D03*
X124409Y179528D02*
D03*
X105236Y177441D02*
D03*
X120472Y82677D02*
D03*
D48*
Y118898D02*
D03*
X56693Y348819D02*
D03*
X11811Y251969D02*
D03*
X35433Y243307D02*
D03*
X6988Y229921D02*
D03*
X48031Y191339D02*
D03*
X36959Y196352D02*
D03*
X11024Y205512D02*
D03*
X15748Y196850D02*
D03*
X30709Y181102D02*
D03*
X47244Y106299D02*
D03*
X34009Y126772D02*
D03*
X161417Y71653D02*
D03*
X159055Y66142D02*
D03*
X155905Y69291D02*
D03*
X153543Y66142D02*
D03*
X150394Y62992D02*
D03*
X107874Y351969D02*
D03*
X90551Y348819D02*
D03*
X179528Y128347D02*
D03*
X60630Y363779D02*
D03*
X129165Y276378D02*
D03*
X154300D02*
D03*
X187402Y133071D02*
D03*
X178740Y159449D02*
D03*
X176378Y163779D02*
D03*
X109449Y231496D02*
D03*
X148031Y192126D02*
D03*
X125984Y242520D02*
D03*
X142520Y243307D02*
D03*
X174016Y236221D02*
D03*
X181890Y219291D02*
D03*
X187402Y186614D02*
D03*
X192126Y205511D02*
D03*
X183268Y240748D02*
D03*
X115748Y145669D02*
D03*
Y137008D02*
D03*
X177165Y200787D02*
D03*
X177165Y204724D02*
D03*
X174803Y215748D02*
D03*
X144095Y196063D02*
D03*
X142520Y162992D02*
D03*
X167717Y141732D02*
D03*
X169348Y124409D02*
D03*
X169291Y129921D02*
D03*
X142611Y139985D02*
D03*
X168504Y148031D02*
D03*
X174803Y147244D02*
D03*
X127559Y273228D02*
D03*
X155905D02*
D03*
X60630Y368504D02*
D03*
X111811Y354331D02*
D03*
X96850D02*
D03*
X131496Y389764D02*
D03*
X140157Y255906D02*
D03*
X175591Y189764D02*
D03*
X143307Y13386D02*
D03*
X125189Y37016D02*
D03*
X110384Y166289D02*
D03*
X102362Y158268D02*
D03*
X99213Y188189D02*
D03*
X174803Y168504D02*
D03*
X146457Y103937D02*
D03*
X136221D02*
D03*
X131496Y109449D02*
D03*
X151181Y100000D02*
D03*
X149606Y93701D02*
D03*
X129921Y288976D02*
D03*
X135433Y292913D02*
D03*
X129921Y295276D02*
D03*
X135433Y299213D02*
D03*
X151181Y286614D02*
D03*
X146457Y291339D02*
D03*
X151969Y292913D02*
D03*
X148819Y298425D02*
D03*
X62992Y351969D02*
D03*
X60630Y357480D02*
D03*
X102362Y239370D02*
D03*
X163779Y32283D02*
D03*
X173228Y29134D02*
D03*
X181890Y81102D02*
D03*
X189764Y77165D02*
D03*
X187036Y83043D02*
D03*
X185039Y88189D02*
D03*
X167717Y228346D02*
D03*
X126772Y234646D02*
D03*
X174803Y196063D02*
D03*
X101362Y38795D02*
D03*
X163779Y15748D02*
D03*
X110236Y215748D02*
D03*
X111811Y198425D02*
D03*
X99606Y155512D02*
D03*
X137303Y190847D02*
D03*
X164567Y333071D02*
D03*
X168504Y334646D02*
D03*
X161417D02*
D03*
X157480Y333071D02*
D03*
X187402Y113386D02*
D03*
Y204724D02*
D03*
X166929Y240158D02*
D03*
X168504Y185039D02*
D03*
X175591Y177953D02*
D03*
X167717Y168504D02*
D03*
X172441Y163779D02*
D03*
X113386Y98425D02*
D03*
X192126Y314961D02*
D03*
X41122Y230886D02*
D03*
Y183642D02*
D03*
Y136398D02*
D03*
Y89153D02*
D03*
Y41909D02*
D03*
X111811Y46457D02*
D03*
Y30709D02*
D03*
X146457Y29134D02*
D03*
X73228Y38583D02*
D03*
X93307Y31102D02*
D03*
X83071Y36614D02*
D03*
X51181Y13386D02*
D03*
X36220Y88976D02*
D03*
X50262Y194324D02*
D03*
X44882Y181102D02*
D03*
X16535Y148819D02*
D03*
X112598Y228346D02*
D03*
X114961Y216535D02*
D03*
X112598Y223622D02*
D03*
X102362Y200000D02*
D03*
X32283Y150394D02*
D03*
X40945Y110236D02*
D03*
X47244Y102937D02*
D03*
X107874Y163779D02*
D03*
X44882Y131496D02*
D03*
X11024Y124409D02*
D03*
X74016Y149606D02*
D03*
X36122Y41043D02*
D03*
X11122Y171555D02*
D03*
X28346Y264567D02*
D03*
X25984Y244094D02*
D03*
X30709Y251969D02*
D03*
X127559Y268504D02*
D03*
X155118D02*
D03*
X120472Y328346D02*
D03*
X127756Y350984D02*
D03*
X46457Y354252D02*
D03*
X6299Y266142D02*
D03*
X5512Y218110D02*
D03*
X16535Y171653D02*
D03*
X6299D02*
D03*
Y124409D02*
D03*
Y88976D02*
D03*
X6233Y76311D02*
D03*
X51181Y59055D02*
D03*
X41732Y63386D02*
D03*
X148819Y3150D02*
D03*
X148031Y51181D02*
D03*
X115748Y351181D02*
D03*
X119685Y354331D02*
D03*
X90551Y313386D02*
D03*
X91339Y273228D02*
D03*
X185039Y344094D02*
D03*
X181890Y340945D02*
D03*
X162992Y354331D02*
D03*
X188976Y339370D02*
D03*
X166142Y357480D02*
D03*
X163779Y350394D02*
D03*
X63779Y307087D02*
D03*
X65354Y287402D02*
D03*
X62992Y296969D02*
D03*
X55905Y292126D02*
D03*
X70866Y292913D02*
D03*
Y304724D02*
D03*
X56693D02*
D03*
X32335Y243307D02*
D03*
X14909Y251969D02*
D03*
X105512Y160630D02*
D03*
X12335Y196850D02*
D03*
X9909Y229921D02*
D03*
X51181Y120472D02*
D03*
X27335Y181102D02*
D03*
X83465Y356693D02*
D03*
X80315Y358268D02*
D03*
X86614D02*
D03*
X92126D02*
D03*
X96850D02*
D03*
X90551Y354331D02*
D03*
X36220Y124409D02*
D03*
X48819Y117323D02*
D03*
X175591Y127559D02*
D03*
X169595Y161721D02*
D03*
X179724Y214961D02*
D03*
X182677Y212598D02*
D03*
X172441Y208661D02*
D03*
X177165Y209449D02*
D03*
X74803Y13386D02*
D03*
X140157Y180315D02*
D03*
X157480D02*
D03*
X18898Y230709D02*
D03*
X21260Y251969D02*
D03*
X41122Y215925D02*
D03*
X6299Y196850D02*
D03*
X192126Y67716D02*
D03*
X194390Y61572D02*
D03*
X142520Y155118D02*
D03*
X140945Y167717D02*
D03*
X138583Y174016D02*
D03*
X160630Y255906D02*
D03*
X167717Y249606D02*
D03*
X162205Y243307D02*
D03*
X172441Y201575D02*
D03*
X140945Y249606D02*
D03*
D86*
X183661Y124606D02*
D03*
Y119488D02*
D03*
X191142D02*
D03*
Y122047D02*
D03*
Y124606D02*
D03*
D87*
X158661Y186024D02*
D03*
Y187992D02*
D03*
Y189961D02*
D03*
Y191929D02*
D03*
Y193898D02*
D03*
Y195866D02*
D03*
Y197835D02*
D03*
Y199803D02*
D03*
Y201772D02*
D03*
Y203740D02*
D03*
Y205709D02*
D03*
Y207677D02*
D03*
Y209646D02*
D03*
Y211614D02*
D03*
Y213583D02*
D03*
Y215551D02*
D03*
Y217520D02*
D03*
Y219488D02*
D03*
Y221457D02*
D03*
Y223425D02*
D03*
Y225394D02*
D03*
Y227362D02*
D03*
Y229331D02*
D03*
Y231299D02*
D03*
X124803D02*
D03*
Y229331D02*
D03*
Y227362D02*
D03*
Y225394D02*
D03*
Y223425D02*
D03*
Y221457D02*
D03*
Y219488D02*
D03*
Y217520D02*
D03*
Y215551D02*
D03*
Y213583D02*
D03*
Y211614D02*
D03*
Y209646D02*
D03*
Y207677D02*
D03*
Y205709D02*
D03*
Y203740D02*
D03*
Y201772D02*
D03*
Y199803D02*
D03*
Y197835D02*
D03*
Y195866D02*
D03*
Y193898D02*
D03*
Y191929D02*
D03*
Y189961D02*
D03*
Y187992D02*
D03*
Y186024D02*
D03*
X158661Y123031D02*
D03*
Y125000D02*
D03*
Y126969D02*
D03*
Y128937D02*
D03*
Y130905D02*
D03*
Y132874D02*
D03*
Y134843D02*
D03*
Y136811D02*
D03*
Y138779D02*
D03*
Y140748D02*
D03*
Y142717D02*
D03*
Y144685D02*
D03*
Y146653D02*
D03*
Y148622D02*
D03*
Y150591D02*
D03*
Y152559D02*
D03*
Y154528D02*
D03*
Y156496D02*
D03*
Y158465D02*
D03*
Y160433D02*
D03*
Y162402D02*
D03*
Y164370D02*
D03*
Y166339D02*
D03*
Y168307D02*
D03*
X124803D02*
D03*
Y166339D02*
D03*
Y164370D02*
D03*
Y162402D02*
D03*
Y160433D02*
D03*
Y158465D02*
D03*
Y156496D02*
D03*
Y154528D02*
D03*
Y152559D02*
D03*
Y150591D02*
D03*
Y148622D02*
D03*
Y146653D02*
D03*
Y144685D02*
D03*
Y142717D02*
D03*
Y140748D02*
D03*
Y138779D02*
D03*
Y136811D02*
D03*
Y134843D02*
D03*
Y132874D02*
D03*
Y130905D02*
D03*
Y128937D02*
D03*
Y126969D02*
D03*
Y125000D02*
D03*
Y123031D02*
D03*
D88*
X155905Y351969D02*
D03*
X173228D02*
D03*
D89*
X126772Y378740D02*
D03*
X101575D02*
D03*
D90*
X77756Y375197D02*
D03*
X152756Y378346D02*
D03*
D91*
X53543Y384252D02*
D03*
Y366142D02*
D03*
X176969Y387402D02*
D03*
Y369291D02*
D03*
M02*
