G04*
G04 #@! TF.GenerationSoftware,Altium Limited,Altium Designer,21.7.2 (23)*
G04*
G04 Layer_Color=8388736*
%FSLAX25Y25*%
%MOIN*%
G70*
G04*
G04 #@! TF.SameCoordinates,50D7799F-02FE-4AD0-AE3F-70EE2030EBF6*
G04*
G04*
G04 #@! TF.FilePolarity,Positive*
G04*
G01*
G75*
%ADD15C,0.00394*%
%ADD90C,0.00600*%
%ADD91C,0.00197*%
G36*
X195276Y221577D02*
X193164D01*
X195276Y220841D01*
Y220542D01*
X193128Y219813D01*
X195276D01*
Y219492D01*
X192753D01*
Y219993D01*
X194539Y220588D01*
X194542D01*
X194549Y220593D01*
X194564Y220595D01*
X194581Y220603D01*
X194600Y220607D01*
X194624Y220617D01*
X194651Y220624D01*
X194680Y220634D01*
X194741Y220654D01*
X194802Y220673D01*
X194862Y220692D01*
X194889Y220702D01*
X194913Y220709D01*
X194911D01*
X194906Y220712D01*
X194899Y220714D01*
X194887Y220717D01*
X194872Y220722D01*
X194855Y220729D01*
X194836Y220734D01*
X194811Y220743D01*
X194785Y220751D01*
X194753Y220760D01*
X194722Y220773D01*
X194685Y220785D01*
X194646Y220797D01*
X194603Y220812D01*
X194559Y220826D01*
X194510Y220843D01*
X192753Y221451D01*
Y221898D01*
X195276D01*
Y221577D01*
D02*
G37*
G36*
Y218501D02*
Y218175D01*
X193353Y217645D01*
X193351D01*
X193344Y217643D01*
X193332Y217638D01*
X193315Y217636D01*
X193295Y217628D01*
X193273Y217623D01*
X193227Y217609D01*
X193176Y217597D01*
X193128Y217582D01*
X193106Y217577D01*
X193086Y217572D01*
X193072Y217567D01*
X193059Y217565D01*
X193062D01*
X193067Y217563D01*
X193076Y217560D01*
X193089Y217558D01*
X193103Y217555D01*
X193120Y217550D01*
X193161Y217541D01*
X193208Y217529D01*
X193256Y217516D01*
X193307Y217502D01*
X193356Y217490D01*
X195276Y216958D01*
Y216610D01*
X192753Y215947D01*
Y216289D01*
X194408Y216671D01*
X194411D01*
X194420Y216673D01*
X194435Y216676D01*
X194452Y216681D01*
X194476Y216685D01*
X194503Y216693D01*
X194534Y216700D01*
X194571Y216707D01*
X194607Y216715D01*
X194649Y216724D01*
X194736Y216741D01*
X194828Y216761D01*
X194923Y216778D01*
X194918D01*
X194906Y216783D01*
X194884Y216788D01*
X194860Y216792D01*
X194828Y216802D01*
X194792Y216809D01*
X194753Y216819D01*
X194714Y216829D01*
X194632Y216848D01*
X194593Y216858D01*
X194556Y216868D01*
X194525Y216875D01*
X194496Y216882D01*
X194474Y216887D01*
X194459Y216892D01*
X192753Y217373D01*
Y217774D01*
X194031Y218136D01*
X194034D01*
X194036Y218139D01*
X194044D01*
X194053Y218141D01*
X194078Y218148D01*
X194112Y218158D01*
X194153Y218170D01*
X194204Y218182D01*
X194260Y218197D01*
X194321Y218212D01*
X194386Y218226D01*
X194457Y218243D01*
X194532Y218260D01*
X194607Y218275D01*
X194765Y218306D01*
X194923Y218333D01*
X194921D01*
X194913Y218335D01*
X194899Y218338D01*
X194882Y218343D01*
X194858Y218348D01*
X194831Y218352D01*
X194799Y218360D01*
X194765Y218367D01*
X194726Y218377D01*
X194685Y218386D01*
X194639Y218396D01*
X194593Y218406D01*
X194542Y218418D01*
X194488Y218433D01*
X194377Y218459D01*
X192753Y218853D01*
Y219191D01*
X195276Y218501D01*
D02*
G37*
G36*
X193516Y215747D02*
X193538D01*
X193565Y215743D01*
X193599Y215740D01*
X193633Y215733D01*
X193672Y215723D01*
X193716Y215713D01*
X193759Y215699D01*
X193803Y215682D01*
X193849Y215662D01*
X193895Y215638D01*
X193941Y215611D01*
X193985Y215580D01*
X194029Y215543D01*
X194031Y215541D01*
X194039Y215534D01*
X194048Y215522D01*
X194063Y215502D01*
X194080Y215480D01*
X194099Y215451D01*
X194119Y215415D01*
X194138Y215376D01*
X194160Y215327D01*
X194180Y215274D01*
X194199Y215213D01*
X194216Y215145D01*
X194231Y215072D01*
X194240Y214989D01*
X194248Y214902D01*
X194250Y214805D01*
Y214158D01*
X195276D01*
Y213825D01*
X192753D01*
Y214863D01*
X192756Y214890D01*
Y214916D01*
X192758Y214980D01*
X192763Y215043D01*
X192770Y215104D01*
X192773Y215133D01*
X192778Y215159D01*
Y215162D01*
X192780Y215167D01*
Y215176D01*
X192785Y215191D01*
X192787Y215206D01*
X192792Y215225D01*
X192804Y215269D01*
X192821Y215317D01*
X192841Y215368D01*
X192868Y215422D01*
X192897Y215470D01*
Y215473D01*
X192902Y215475D01*
X192906Y215483D01*
X192914Y215492D01*
X192933Y215514D01*
X192960Y215543D01*
X192994Y215575D01*
X193038Y215609D01*
X193086Y215643D01*
X193142Y215672D01*
X193145D01*
X193149Y215674D01*
X193157Y215679D01*
X193169Y215684D01*
X193183Y215689D01*
X193200Y215696D01*
X193220Y215704D01*
X193244Y215711D01*
X193295Y215726D01*
X193351Y215738D01*
X193417Y215747D01*
X193485Y215750D01*
X193487D01*
X193499D01*
X193516Y215747D01*
D02*
G37*
G36*
X195975Y211541D02*
X195752D01*
Y213592D01*
X195975D01*
Y211541D01*
D02*
G37*
G36*
X193516Y211439D02*
X193538D01*
X193565Y211434D01*
X193599Y211432D01*
X193633Y211424D01*
X193672Y211415D01*
X193716Y211405D01*
X193759Y211390D01*
X193803Y211373D01*
X193849Y211354D01*
X193895Y211330D01*
X193941Y211303D01*
X193985Y211271D01*
X194029Y211235D01*
X194031Y211232D01*
X194039Y211225D01*
X194048Y211213D01*
X194063Y211194D01*
X194080Y211172D01*
X194099Y211143D01*
X194119Y211106D01*
X194138Y211067D01*
X194160Y211019D01*
X194180Y210965D01*
X194199Y210904D01*
X194216Y210836D01*
X194231Y210764D01*
X194240Y210681D01*
X194248Y210593D01*
X194250Y210496D01*
Y209850D01*
X195276D01*
Y209517D01*
X192753D01*
Y210555D01*
X192756Y210581D01*
Y210608D01*
X192758Y210671D01*
X192763Y210734D01*
X192770Y210795D01*
X192773Y210824D01*
X192778Y210851D01*
Y210853D01*
X192780Y210858D01*
Y210868D01*
X192785Y210883D01*
X192787Y210897D01*
X192792Y210917D01*
X192804Y210960D01*
X192821Y211009D01*
X192841Y211060D01*
X192868Y211113D01*
X192897Y211162D01*
Y211164D01*
X192902Y211167D01*
X192906Y211174D01*
X192914Y211184D01*
X192933Y211206D01*
X192960Y211235D01*
X192994Y211266D01*
X193038Y211300D01*
X193086Y211335D01*
X193142Y211364D01*
X193145D01*
X193149Y211366D01*
X193157Y211371D01*
X193169Y211376D01*
X193183Y211381D01*
X193200Y211388D01*
X193220Y211395D01*
X193244Y211403D01*
X193295Y211417D01*
X193351Y211429D01*
X193417Y211439D01*
X193485Y211441D01*
X193487D01*
X193499D01*
X193516Y211439D01*
D02*
G37*
G36*
X195276Y208657D02*
X193164D01*
X195276Y207920D01*
Y207622D01*
X193128Y206892D01*
X195276D01*
Y206572D01*
X192753D01*
Y207072D01*
X194539Y207668D01*
X194542D01*
X194549Y207673D01*
X194564Y207675D01*
X194581Y207682D01*
X194600Y207687D01*
X194624Y207697D01*
X194651Y207704D01*
X194680Y207714D01*
X194741Y207733D01*
X194802Y207753D01*
X194862Y207772D01*
X194889Y207782D01*
X194913Y207789D01*
X194911D01*
X194906Y207792D01*
X194899Y207794D01*
X194887Y207797D01*
X194872Y207801D01*
X194855Y207809D01*
X194836Y207814D01*
X194811Y207823D01*
X194785Y207831D01*
X194753Y207840D01*
X194722Y207852D01*
X194685Y207864D01*
X194646Y207877D01*
X194603Y207891D01*
X194559Y207906D01*
X194510Y207923D01*
X192753Y208530D01*
Y208978D01*
X195276D01*
Y208657D01*
D02*
G37*
G36*
Y204239D02*
X192753D01*
Y206062D01*
X193050D01*
Y204572D01*
X193823D01*
Y205967D01*
X194119D01*
Y204572D01*
X194979D01*
Y206120D01*
X195276D01*
Y204239D01*
D02*
G37*
G36*
X193050Y203053D02*
X195276D01*
Y202720D01*
X193050D01*
Y201889D01*
X192753D01*
Y203887D01*
X193050D01*
Y203053D01*
D02*
G37*
G36*
X195975Y199794D02*
X195752D01*
Y201845D01*
X195975D01*
Y199794D01*
D02*
G37*
G36*
X195273Y199816D02*
X195276Y199809D01*
X195278Y199799D01*
X195280Y199775D01*
X195285Y199743D01*
X195290Y199707D01*
X195295Y199666D01*
X195298Y199627D01*
X195300Y199585D01*
Y199559D01*
X195298Y199544D01*
Y199527D01*
X195293Y199491D01*
X195288Y199449D01*
X195278Y199406D01*
X195266Y199364D01*
X195249Y199326D01*
X195246Y199321D01*
X195239Y199311D01*
X195227Y199294D01*
X195210Y199275D01*
X195191Y199253D01*
X195166Y199231D01*
X195140Y199211D01*
X195108Y199194D01*
X195103Y199192D01*
X195098D01*
X195091Y199189D01*
X195079Y199187D01*
X195067Y199182D01*
X195050Y199180D01*
X195030Y199177D01*
X195006Y199172D01*
X194979Y199170D01*
X194950Y199168D01*
X194916Y199163D01*
X194879Y199160D01*
X194836D01*
X194792Y199158D01*
X194741D01*
X193689D01*
Y198929D01*
X193448D01*
Y199158D01*
X192996D01*
X192812Y199466D01*
X193448D01*
Y199777D01*
X193689D01*
Y199466D01*
X194758D01*
X194760D01*
X194763D01*
X194770D01*
X194780D01*
X194802D01*
X194828Y199469D01*
X194858D01*
X194887Y199474D01*
X194911Y199476D01*
X194931Y199481D01*
X194933D01*
X194935Y199483D01*
X194952Y199493D01*
X194969Y199510D01*
X194989Y199534D01*
Y199537D01*
X194991Y199542D01*
X194996Y199549D01*
X194999Y199561D01*
X195003Y199576D01*
X195008Y199595D01*
X195011Y199617D01*
Y199663D01*
X195008Y199678D01*
Y199697D01*
X195006Y199722D01*
X195003Y199748D01*
X195001Y199777D01*
X195273Y199821D01*
Y199816D01*
D02*
G37*
G36*
X193016Y198944D02*
Y198939D01*
X193013Y198927D01*
X193008Y198910D01*
X193006Y198886D01*
X193001Y198856D01*
X192999Y198827D01*
X192996Y198762D01*
Y198740D01*
X192999Y198713D01*
X193003Y198684D01*
X193011Y198652D01*
X193023Y198618D01*
X193038Y198587D01*
X193057Y198563D01*
X193059Y198560D01*
X193069Y198553D01*
X193084Y198543D01*
X193108Y198533D01*
X193137Y198524D01*
X193176Y198514D01*
X193225Y198507D01*
X193281Y198504D01*
X193448D01*
Y198859D01*
X193689D01*
Y198504D01*
X195276D01*
Y198196D01*
X193689D01*
Y197921D01*
X193448D01*
Y198196D01*
X193256D01*
X193254D01*
X193249D01*
X193239D01*
X193227D01*
X193210D01*
X193193Y198198D01*
X193152Y198200D01*
X193108Y198203D01*
X193062Y198210D01*
X193018Y198217D01*
X192982Y198227D01*
X192979D01*
X192977Y198230D01*
X192962Y198237D01*
X192940Y198247D01*
X192914Y198264D01*
X192882Y198285D01*
X192850Y198312D01*
X192816Y198344D01*
X192787Y198383D01*
Y198385D01*
X192785Y198388D01*
X192780Y198395D01*
X192775Y198405D01*
X192770Y198414D01*
X192763Y198429D01*
X192756Y198446D01*
X192748Y198465D01*
X192736Y198511D01*
X192724Y198565D01*
X192714Y198628D01*
X192712Y198701D01*
Y198737D01*
X192714Y198752D01*
X192717Y198786D01*
X192719Y198830D01*
X192724Y198878D01*
X192734Y198932D01*
X192744Y198990D01*
X193016Y198944D01*
D02*
G37*
G36*
X195276Y197340D02*
X193448D01*
Y197649D01*
X195276D01*
Y197340D01*
D02*
G37*
G36*
X193111D02*
X192753D01*
Y197649D01*
X193111D01*
Y197340D01*
D02*
G37*
G36*
X195276Y196560D02*
X194119D01*
X194116D01*
X194109D01*
X194097D01*
X194080Y196558D01*
X194063D01*
X194041Y196555D01*
X193990Y196548D01*
X193934Y196536D01*
X193878Y196516D01*
X193827Y196492D01*
X193803Y196475D01*
X193781Y196458D01*
X193779D01*
X193776Y196453D01*
X193764Y196439D01*
X193747Y196417D01*
X193728Y196385D01*
X193708Y196344D01*
X193691Y196295D01*
X193679Y196239D01*
X193674Y196208D01*
Y196150D01*
X193679Y196123D01*
X193684Y196089D01*
X193691Y196050D01*
X193706Y196006D01*
X193723Y195960D01*
X193747Y195914D01*
Y195911D01*
X193749Y195909D01*
X193759Y195894D01*
X193776Y195872D01*
X193798Y195846D01*
X193825Y195819D01*
X193859Y195790D01*
X193898Y195763D01*
X193941Y195741D01*
X193944D01*
X193946Y195739D01*
X193954Y195736D01*
X193963Y195734D01*
X193975Y195729D01*
X193990Y195724D01*
X194010Y195719D01*
X194029Y195717D01*
X194051Y195712D01*
X194078Y195707D01*
X194133Y195697D01*
X194202Y195693D01*
X194277Y195690D01*
X195276D01*
Y195382D01*
X192753D01*
Y195690D01*
X193660D01*
X193657Y195693D01*
X193648Y195700D01*
X193635Y195712D01*
X193621Y195729D01*
X193601Y195751D01*
X193579Y195775D01*
X193558Y195807D01*
X193533Y195841D01*
X193509Y195877D01*
X193487Y195919D01*
X193465Y195965D01*
X193446Y196013D01*
X193431Y196064D01*
X193417Y196118D01*
X193409Y196176D01*
X193407Y196237D01*
Y196271D01*
X193409Y196288D01*
X193412Y196310D01*
X193414Y196332D01*
X193417Y196356D01*
X193426Y196412D01*
X193441Y196470D01*
X193460Y196529D01*
X193487Y196587D01*
Y196589D01*
X193490Y196594D01*
X193494Y196601D01*
X193502Y196611D01*
X193519Y196638D01*
X193545Y196669D01*
X193577Y196706D01*
X193614Y196742D01*
X193657Y196774D01*
X193708Y196803D01*
X193711D01*
X193716Y196806D01*
X193723Y196810D01*
X193735Y196813D01*
X193749Y196818D01*
X193767Y196825D01*
X193788Y196830D01*
X193813Y196837D01*
X193840Y196842D01*
X193871Y196847D01*
X193905Y196854D01*
X193941Y196859D01*
X193980Y196864D01*
X194024Y196866D01*
X194070Y196869D01*
X194119D01*
X195276D01*
Y196560D01*
D02*
G37*
G36*
X194598Y194961D02*
X194615D01*
X194636Y194959D01*
X194661Y194954D01*
X194687Y194949D01*
X194746Y194934D01*
X194809Y194915D01*
X194875Y194886D01*
X194909Y194867D01*
X194943Y194847D01*
X194945Y194845D01*
X194950Y194842D01*
X194960Y194835D01*
X194972Y194825D01*
X194986Y194813D01*
X195003Y194798D01*
X195023Y194781D01*
X195045Y194762D01*
X195067Y194740D01*
X195089Y194716D01*
X195110Y194689D01*
X195135Y194660D01*
X195157Y194628D01*
X195178Y194592D01*
X195220Y194517D01*
Y194514D01*
X195225Y194507D01*
X195229Y194495D01*
X195234Y194478D01*
X195242Y194458D01*
X195251Y194434D01*
X195259Y194407D01*
X195268Y194376D01*
X195278Y194339D01*
X195285Y194303D01*
X195295Y194264D01*
X195302Y194220D01*
X195312Y194128D01*
X195317Y194030D01*
Y193997D01*
X195315Y193975D01*
Y193946D01*
X195312Y193912D01*
X195310Y193873D01*
X195305Y193831D01*
X195300Y193788D01*
X195293Y193741D01*
X195276Y193644D01*
X195251Y193549D01*
X195234Y193503D01*
X195217Y193457D01*
X195215Y193455D01*
X195212Y193447D01*
X195208Y193435D01*
X195198Y193418D01*
X195188Y193399D01*
X195176Y193377D01*
X195159Y193353D01*
X195142Y193326D01*
X195101Y193268D01*
X195050Y193207D01*
X194989Y193148D01*
X194918Y193095D01*
X194916Y193093D01*
X194909Y193090D01*
X194899Y193083D01*
X194882Y193076D01*
X194865Y193063D01*
X194841Y193054D01*
X194814Y193042D01*
X194785Y193029D01*
X194753Y193017D01*
X194719Y193005D01*
X194680Y192993D01*
X194641Y192983D01*
X194554Y192966D01*
X194508Y192961D01*
X194462Y192959D01*
X194435Y193275D01*
X194437D01*
X194442D01*
X194454Y193277D01*
X194466Y193280D01*
X194483Y193282D01*
X194503Y193287D01*
X194547Y193297D01*
X194595Y193309D01*
X194649Y193328D01*
X194700Y193350D01*
X194748Y193377D01*
X194751D01*
X194753Y193382D01*
X194768Y193391D01*
X194790Y193411D01*
X194819Y193440D01*
X194850Y193474D01*
X194882Y193518D01*
X194916Y193569D01*
X194945Y193630D01*
Y193632D01*
X194948Y193637D01*
X194952Y193647D01*
X194957Y193661D01*
X194962Y193676D01*
X194969Y193695D01*
X194977Y193717D01*
X194982Y193744D01*
X194989Y193771D01*
X194996Y193800D01*
X195008Y193865D01*
X195018Y193938D01*
X195020Y194016D01*
Y194047D01*
X195018Y194065D01*
Y194084D01*
X195013Y194130D01*
X195006Y194184D01*
X194996Y194239D01*
X194984Y194298D01*
X194965Y194354D01*
Y194356D01*
X194962Y194361D01*
X194957Y194368D01*
X194955Y194378D01*
X194940Y194405D01*
X194923Y194436D01*
X194901Y194470D01*
X194872Y194507D01*
X194843Y194541D01*
X194807Y194570D01*
X194802Y194572D01*
X194790Y194582D01*
X194768Y194594D01*
X194741Y194606D01*
X194709Y194621D01*
X194673Y194631D01*
X194634Y194641D01*
X194590Y194643D01*
X194588D01*
X194586D01*
X194571D01*
X194549Y194641D01*
X194520Y194633D01*
X194488Y194626D01*
X194454Y194614D01*
X194420Y194597D01*
X194386Y194572D01*
X194381Y194570D01*
X194372Y194558D01*
X194355Y194541D01*
X194333Y194517D01*
X194311Y194485D01*
X194284Y194446D01*
X194260Y194400D01*
X194236Y194344D01*
X194233Y194339D01*
X194231Y194332D01*
X194228Y194322D01*
X194223Y194310D01*
X194219Y194293D01*
X194214Y194273D01*
X194206Y194249D01*
X194197Y194222D01*
X194189Y194188D01*
X194180Y194152D01*
X194167Y194111D01*
X194155Y194065D01*
X194143Y194014D01*
X194129Y193958D01*
X194114Y193895D01*
Y193890D01*
X194109Y193880D01*
X194107Y193863D01*
X194099Y193839D01*
X194092Y193809D01*
X194082Y193778D01*
X194073Y193741D01*
X194063Y193705D01*
X194039Y193625D01*
X194012Y193544D01*
X193997Y193506D01*
X193983Y193469D01*
X193971Y193438D01*
X193956Y193408D01*
Y193406D01*
X193951Y193401D01*
X193946Y193391D01*
X193939Y193379D01*
X193929Y193365D01*
X193920Y193348D01*
X193891Y193309D01*
X193857Y193265D01*
X193818Y193219D01*
X193771Y193178D01*
X193720Y193141D01*
X193718D01*
X193713Y193136D01*
X193706Y193134D01*
X193696Y193127D01*
X193682Y193122D01*
X193667Y193114D01*
X193628Y193097D01*
X193582Y193080D01*
X193528Y193068D01*
X193470Y193059D01*
X193407Y193054D01*
X193404D01*
X193397D01*
X193387D01*
X193375Y193056D01*
X193358D01*
X193336Y193059D01*
X193315Y193063D01*
X193290Y193068D01*
X193234Y193080D01*
X193176Y193100D01*
X193113Y193127D01*
X193081Y193141D01*
X193050Y193161D01*
X193047Y193163D01*
X193042Y193166D01*
X193033Y193173D01*
X193023Y193180D01*
X193008Y193192D01*
X192991Y193207D01*
X192974Y193221D01*
X192955Y193241D01*
X192914Y193287D01*
X192872Y193340D01*
X192831Y193404D01*
X192797Y193476D01*
Y193479D01*
X192792Y193486D01*
X192790Y193498D01*
X192782Y193513D01*
X192778Y193532D01*
X192770Y193557D01*
X192761Y193583D01*
X192753Y193613D01*
X192746Y193647D01*
X192736Y193681D01*
X192729Y193719D01*
X192724Y193761D01*
X192714Y193848D01*
X192710Y193941D01*
Y193967D01*
X192712Y193987D01*
Y194011D01*
X192714Y194040D01*
X192717Y194072D01*
X192722Y194108D01*
X192727Y194145D01*
X192731Y194184D01*
X192748Y194266D01*
X192770Y194351D01*
X192802Y194434D01*
Y194436D01*
X192807Y194444D01*
X192812Y194453D01*
X192819Y194470D01*
X192829Y194487D01*
X192838Y194507D01*
X192868Y194555D01*
X192906Y194609D01*
X192953Y194662D01*
X193006Y194716D01*
X193067Y194762D01*
X193069Y194764D01*
X193074Y194767D01*
X193084Y194772D01*
X193098Y194781D01*
X193113Y194789D01*
X193135Y194798D01*
X193157Y194811D01*
X193181Y194823D01*
X193210Y194832D01*
X193239Y194845D01*
X193307Y194864D01*
X193383Y194881D01*
X193421Y194886D01*
X193463Y194888D01*
X193487Y194568D01*
X193485D01*
X193477Y194565D01*
X193465D01*
X193448Y194560D01*
X193429Y194558D01*
X193404Y194551D01*
X193380Y194543D01*
X193353Y194536D01*
X193295Y194512D01*
X193234Y194483D01*
X193205Y194463D01*
X193178Y194441D01*
X193152Y194417D01*
X193128Y194390D01*
X193125Y194388D01*
X193123Y194383D01*
X193115Y194376D01*
X193108Y194363D01*
X193098Y194346D01*
X193089Y194327D01*
X193076Y194305D01*
X193064Y194281D01*
X193055Y194252D01*
X193042Y194218D01*
X193033Y194184D01*
X193023Y194142D01*
X193016Y194101D01*
X193008Y194055D01*
X193006Y194006D01*
X193003Y193953D01*
Y193924D01*
X193006Y193904D01*
Y193877D01*
X193008Y193848D01*
X193013Y193817D01*
X193018Y193783D01*
X193030Y193712D01*
X193050Y193639D01*
X193064Y193603D01*
X193079Y193569D01*
X193096Y193537D01*
X193115Y193510D01*
X193118Y193508D01*
X193120Y193506D01*
X193135Y193489D01*
X193159Y193467D01*
X193191Y193442D01*
X193229Y193418D01*
X193276Y193396D01*
X193327Y193379D01*
X193353Y193377D01*
X193383Y193374D01*
X193385D01*
X193387D01*
X193395D01*
X193404Y193377D01*
X193431Y193379D01*
X193463Y193387D01*
X193497Y193399D01*
X193536Y193416D01*
X193572Y193440D01*
X193609Y193472D01*
Y193474D01*
X193614Y193476D01*
X193618Y193484D01*
X193623Y193493D01*
X193631Y193506D01*
X193640Y193523D01*
X193652Y193544D01*
X193665Y193569D01*
X193677Y193600D01*
X193691Y193634D01*
X193706Y193676D01*
X193720Y193722D01*
X193737Y193775D01*
X193754Y193834D01*
X193771Y193899D01*
X193788Y193972D01*
Y193977D01*
X193793Y193989D01*
X193798Y194011D01*
X193803Y194038D01*
X193813Y194072D01*
X193820Y194108D01*
X193832Y194152D01*
X193842Y194196D01*
X193869Y194288D01*
X193895Y194380D01*
X193907Y194424D01*
X193922Y194463D01*
X193937Y194500D01*
X193949Y194531D01*
Y194534D01*
X193954Y194541D01*
X193958Y194553D01*
X193968Y194568D01*
X193978Y194585D01*
X193990Y194606D01*
X194019Y194655D01*
X194056Y194709D01*
X194099Y194762D01*
X194150Y194813D01*
X194177Y194835D01*
X194206Y194857D01*
X194209Y194859D01*
X194214Y194862D01*
X194221Y194867D01*
X194233Y194874D01*
X194248Y194881D01*
X194267Y194891D01*
X194287Y194901D01*
X194308Y194910D01*
X194362Y194930D01*
X194423Y194947D01*
X194491Y194959D01*
X194527Y194964D01*
X194564D01*
X194566D01*
X194573D01*
X194583D01*
X194598Y194961D01*
D02*
G37*
G36*
X195975Y190787D02*
X195752D01*
Y192837D01*
X195975D01*
Y190787D01*
D02*
G37*
G36*
X194498Y190677D02*
X194517D01*
X194542Y190675D01*
X194571Y190670D01*
X194600Y190667D01*
X194668Y190655D01*
X194743Y190636D01*
X194821Y190609D01*
X194860Y190594D01*
X194899Y190575D01*
X194901D01*
X194909Y190570D01*
X194918Y190565D01*
X194933Y190556D01*
X194950Y190546D01*
X194969Y190534D01*
X195013Y190502D01*
X195064Y190461D01*
X195115Y190412D01*
X195166Y190356D01*
X195210Y190293D01*
Y190291D01*
X195215Y190286D01*
X195220Y190276D01*
X195227Y190262D01*
X195234Y190245D01*
X195244Y190225D01*
X195254Y190203D01*
X195263Y190176D01*
X195273Y190147D01*
X195283Y190116D01*
X195300Y190048D01*
X195312Y189972D01*
X195315Y189931D01*
X195317Y189890D01*
Y189873D01*
X195315Y189853D01*
X195312Y189824D01*
X195307Y189793D01*
X195302Y189754D01*
X195293Y189712D01*
X195280Y189666D01*
X195266Y189615D01*
X195246Y189564D01*
X195225Y189513D01*
X195198Y189460D01*
X195164Y189406D01*
X195127Y189355D01*
X195084Y189304D01*
X195033Y189258D01*
X195030Y189256D01*
X195018Y189248D01*
X195001Y189236D01*
X194977Y189219D01*
X194948Y189202D01*
X194909Y189180D01*
X194862Y189158D01*
X194809Y189137D01*
X194748Y189115D01*
X194680Y189093D01*
X194603Y189071D01*
X194517Y189054D01*
X194425Y189037D01*
X194323Y189025D01*
X194214Y189017D01*
X194097Y189015D01*
X194095D01*
X194090D01*
X194078D01*
X194065D01*
X194048D01*
X194027Y189017D01*
X194005D01*
X193978Y189020D01*
X193949Y189022D01*
X193917D01*
X193849Y189030D01*
X193771Y189037D01*
X193689Y189049D01*
X193604Y189064D01*
X193516Y189081D01*
X193426Y189102D01*
X193339Y189129D01*
X193254Y189161D01*
X193174Y189195D01*
X193098Y189236D01*
X193033Y189285D01*
X193030Y189287D01*
X193021Y189297D01*
X193006Y189309D01*
X192987Y189329D01*
X192965Y189353D01*
X192940Y189380D01*
X192916Y189413D01*
X192887Y189452D01*
X192860Y189496D01*
X192836Y189542D01*
X192812Y189596D01*
X192790Y189652D01*
X192770Y189712D01*
X192756Y189778D01*
X192746Y189846D01*
X192744Y189919D01*
Y189948D01*
X192746Y189968D01*
X192748Y189994D01*
X192753Y190024D01*
X192758Y190055D01*
X192765Y190092D01*
X192773Y190128D01*
X192785Y190167D01*
X192797Y190208D01*
X192814Y190250D01*
X192833Y190291D01*
X192855Y190330D01*
X192882Y190368D01*
X192911Y190405D01*
X192914Y190407D01*
X192919Y190412D01*
X192928Y190422D01*
X192943Y190437D01*
X192960Y190451D01*
X192979Y190468D01*
X193003Y190488D01*
X193030Y190507D01*
X193062Y190526D01*
X193096Y190546D01*
X193135Y190565D01*
X193176Y190582D01*
X193220Y190599D01*
X193266Y190614D01*
X193317Y190626D01*
X193370Y190636D01*
X193395Y190327D01*
X193392D01*
X193387Y190325D01*
X193378Y190322D01*
X193366Y190320D01*
X193351Y190315D01*
X193334Y190310D01*
X193295Y190298D01*
X193251Y190281D01*
X193208Y190259D01*
X193166Y190235D01*
X193132Y190208D01*
X193130Y190206D01*
X193128Y190203D01*
X193120Y190196D01*
X193111Y190186D01*
X193101Y190174D01*
X193091Y190159D01*
X193064Y190123D01*
X193040Y190079D01*
X193021Y190026D01*
X193003Y189965D01*
X193001Y189934D01*
X192999Y189900D01*
Y189875D01*
X193003Y189846D01*
X193008Y189812D01*
X193018Y189771D01*
X193033Y189727D01*
X193055Y189683D01*
X193081Y189639D01*
Y189637D01*
X193086Y189632D01*
X193094Y189625D01*
X193101Y189615D01*
X193113Y189603D01*
X193125Y189588D01*
X193142Y189574D01*
X193161Y189557D01*
X193205Y189518D01*
X193259Y189482D01*
X193322Y189443D01*
X193395Y189409D01*
X193397D01*
X193404Y189406D01*
X193417Y189401D01*
X193434Y189397D01*
X193453Y189389D01*
X193480Y189382D01*
X193509Y189375D01*
X193543Y189367D01*
X193584Y189360D01*
X193626Y189353D01*
X193674Y189346D01*
X193728Y189338D01*
X193784Y189333D01*
X193844Y189329D01*
X193910Y189326D01*
X193978Y189324D01*
X193975Y189326D01*
X193971Y189329D01*
X193961Y189336D01*
X193949Y189343D01*
X193934Y189353D01*
X193920Y189367D01*
X193881Y189399D01*
X193840Y189438D01*
X193798Y189484D01*
X193757Y189535D01*
X193723Y189593D01*
Y189596D01*
X193720Y189601D01*
X193716Y189610D01*
X193711Y189622D01*
X193703Y189637D01*
X193696Y189654D01*
X193689Y189673D01*
X193682Y189698D01*
X193667Y189749D01*
X193652Y189805D01*
X193643Y189868D01*
X193640Y189934D01*
Y189948D01*
X193643Y189963D01*
Y189985D01*
X193648Y190011D01*
X193652Y190043D01*
X193660Y190079D01*
X193669Y190116D01*
X193682Y190157D01*
X193696Y190198D01*
X193716Y190242D01*
X193737Y190288D01*
X193762Y190332D01*
X193793Y190376D01*
X193827Y190420D01*
X193869Y190461D01*
X193871Y190463D01*
X193878Y190471D01*
X193893Y190480D01*
X193910Y190495D01*
X193932Y190512D01*
X193961Y190531D01*
X193993Y190551D01*
X194027Y190570D01*
X194068Y190590D01*
X194112Y190612D01*
X194160Y190629D01*
X194214Y190646D01*
X194270Y190660D01*
X194328Y190670D01*
X194391Y190677D01*
X194457Y190680D01*
X194459D01*
X194466D01*
X194481D01*
X194498Y190677D01*
D02*
G37*
G36*
X194274Y188595D02*
X194306D01*
X194343Y188592D01*
X194384Y188590D01*
X194428Y188587D01*
X194476Y188583D01*
X194525Y188575D01*
X194624Y188561D01*
X194724Y188539D01*
X194770Y188524D01*
X194814Y188510D01*
X194816D01*
X194824Y188505D01*
X194836Y188500D01*
X194850Y188493D01*
X194870Y188483D01*
X194892Y188471D01*
X194916Y188456D01*
X194943Y188439D01*
X194972Y188420D01*
X195001Y188395D01*
X195030Y188371D01*
X195062Y188342D01*
X195093Y188310D01*
X195123Y188276D01*
X195152Y188240D01*
X195178Y188198D01*
X195181Y188196D01*
X195183Y188189D01*
X195191Y188177D01*
X195200Y188157D01*
X195210Y188135D01*
X195222Y188109D01*
X195234Y188077D01*
X195246Y188041D01*
X195261Y188002D01*
X195273Y187958D01*
X195285Y187909D01*
X195295Y187856D01*
X195305Y187800D01*
X195312Y187739D01*
X195315Y187676D01*
X195317Y187610D01*
Y187576D01*
X195315Y187552D01*
X195312Y187521D01*
X195310Y187487D01*
X195307Y187448D01*
X195302Y187404D01*
X195295Y187360D01*
X195288Y187314D01*
X195266Y187217D01*
X195251Y187168D01*
X195234Y187120D01*
X195217Y187073D01*
X195195Y187030D01*
X195193Y187027D01*
X195191Y187020D01*
X195183Y187008D01*
X195174Y186993D01*
X195159Y186974D01*
X195144Y186954D01*
X195127Y186930D01*
X195106Y186906D01*
X195081Y186879D01*
X195057Y186852D01*
X195028Y186826D01*
X194996Y186801D01*
X194962Y186775D01*
X194923Y186750D01*
X194884Y186728D01*
X194843Y186709D01*
X194841D01*
X194833Y186704D01*
X194819Y186699D01*
X194802Y186694D01*
X194777Y186687D01*
X194748Y186680D01*
X194717Y186670D01*
X194678Y186663D01*
X194634Y186653D01*
X194588Y186643D01*
X194534Y186636D01*
X194478Y186629D01*
X194418Y186624D01*
X194355Y186619D01*
X194284Y186614D01*
X194211D01*
X192753D01*
Y186947D01*
X194209D01*
X194214D01*
X194223D01*
X194240D01*
X194262D01*
X194289Y186950D01*
X194321D01*
X194355Y186952D01*
X194391Y186954D01*
X194471Y186962D01*
X194551Y186974D01*
X194590Y186979D01*
X194627Y186988D01*
X194661Y186998D01*
X194692Y187008D01*
X194695D01*
X194700Y187010D01*
X194707Y187015D01*
X194719Y187020D01*
X194746Y187035D01*
X194780Y187056D01*
X194819Y187086D01*
X194860Y187122D01*
X194899Y187166D01*
X194933Y187217D01*
Y187219D01*
X194935Y187224D01*
X194940Y187231D01*
X194945Y187243D01*
X194952Y187258D01*
X194960Y187275D01*
X194967Y187295D01*
X194974Y187319D01*
X194982Y187343D01*
X194989Y187370D01*
X195003Y187433D01*
X195013Y187504D01*
X195016Y187581D01*
Y187615D01*
X195013Y187642D01*
X195011Y187671D01*
X195006Y187708D01*
X195001Y187744D01*
X194994Y187785D01*
X194974Y187873D01*
X194962Y187917D01*
X194945Y187958D01*
X194926Y187999D01*
X194904Y188038D01*
X194879Y188075D01*
X194850Y188106D01*
X194848Y188109D01*
X194843Y188113D01*
X194831Y188121D01*
X194816Y188130D01*
X194797Y188143D01*
X194773Y188157D01*
X194743Y188169D01*
X194707Y188186D01*
X194666Y188201D01*
X194620Y188213D01*
X194569Y188228D01*
X194508Y188240D01*
X194445Y188250D01*
X194372Y188257D01*
X194294Y188262D01*
X194209Y188264D01*
X192753D01*
Y188597D01*
X194211D01*
X194216D01*
X194228D01*
X194248D01*
X194274Y188595D01*
D02*
G37*
%LPC*%
G36*
X193494Y215405D02*
X193492D01*
X193487D01*
X193480D01*
X193468D01*
X193453Y215402D01*
X193438Y215400D01*
X193402Y215395D01*
X193358Y215385D01*
X193315Y215371D01*
X193268Y215351D01*
X193225Y215325D01*
X193222D01*
X193220Y215322D01*
X193205Y215310D01*
X193186Y215293D01*
X193164Y215269D01*
X193137Y215237D01*
X193113Y215201D01*
X193091Y215159D01*
X193074Y215113D01*
Y215108D01*
X193069Y215096D01*
Y215087D01*
X193067Y215074D01*
X193064Y215060D01*
X193062Y215043D01*
X193059Y215023D01*
X193057Y214999D01*
X193055Y214975D01*
Y214946D01*
X193052Y214914D01*
X193050Y214880D01*
Y214158D01*
X193954D01*
Y214841D01*
X193951Y214863D01*
X193949Y214890D01*
X193946Y214919D01*
X193944Y214953D01*
X193939Y214989D01*
X193924Y215065D01*
X193903Y215140D01*
X193891Y215176D01*
X193874Y215210D01*
X193857Y215242D01*
X193835Y215269D01*
X193832Y215271D01*
X193830Y215274D01*
X193823Y215281D01*
X193813Y215291D01*
X193801Y215300D01*
X193784Y215313D01*
X193767Y215325D01*
X193747Y215337D01*
X193723Y215349D01*
X193699Y215361D01*
X193669Y215373D01*
X193640Y215383D01*
X193572Y215400D01*
X193533Y215402D01*
X193494Y215405D01*
D02*
G37*
G36*
Y211096D02*
X193492D01*
X193487D01*
X193480D01*
X193468D01*
X193453Y211094D01*
X193438Y211092D01*
X193402Y211087D01*
X193358Y211077D01*
X193315Y211062D01*
X193268Y211043D01*
X193225Y211016D01*
X193222D01*
X193220Y211014D01*
X193205Y211002D01*
X193186Y210985D01*
X193164Y210960D01*
X193137Y210929D01*
X193113Y210892D01*
X193091Y210851D01*
X193074Y210805D01*
Y210800D01*
X193069Y210788D01*
Y210778D01*
X193067Y210766D01*
X193064Y210751D01*
X193062Y210734D01*
X193059Y210715D01*
X193057Y210691D01*
X193055Y210666D01*
Y210637D01*
X193052Y210606D01*
X193050Y210572D01*
Y209850D01*
X193954D01*
Y210533D01*
X193951Y210555D01*
X193949Y210581D01*
X193946Y210610D01*
X193944Y210644D01*
X193939Y210681D01*
X193924Y210756D01*
X193903Y210832D01*
X193891Y210868D01*
X193874Y210902D01*
X193857Y210934D01*
X193835Y210960D01*
X193832Y210963D01*
X193830Y210965D01*
X193823Y210972D01*
X193813Y210982D01*
X193801Y210992D01*
X193784Y211004D01*
X193767Y211016D01*
X193747Y211028D01*
X193723Y211040D01*
X193699Y211053D01*
X193669Y211065D01*
X193640Y211074D01*
X193572Y211092D01*
X193533Y211094D01*
X193494Y211096D01*
D02*
G37*
G36*
X194476Y190361D02*
X194474D01*
X194464D01*
X194452D01*
X194432Y190359D01*
X194411Y190356D01*
X194386Y190354D01*
X194357Y190349D01*
X194328Y190344D01*
X194262Y190327D01*
X194228Y190317D01*
X194194Y190303D01*
X194160Y190286D01*
X194126Y190269D01*
X194095Y190247D01*
X194065Y190223D01*
X194063Y190220D01*
X194058Y190215D01*
X194051Y190208D01*
X194041Y190198D01*
X194031Y190184D01*
X194017Y190167D01*
X194005Y190147D01*
X193990Y190128D01*
X193975Y190104D01*
X193963Y190077D01*
X193939Y190016D01*
X193929Y189982D01*
X193922Y189948D01*
X193917Y189909D01*
X193915Y189870D01*
Y189851D01*
X193917Y189836D01*
X193920Y189817D01*
X193922Y189797D01*
X193927Y189773D01*
X193934Y189749D01*
X193951Y189693D01*
X193963Y189661D01*
X193978Y189632D01*
X193995Y189603D01*
X194017Y189574D01*
X194039Y189545D01*
X194065Y189516D01*
X194068Y189513D01*
X194073Y189508D01*
X194080Y189503D01*
X194092Y189494D01*
X194107Y189482D01*
X194126Y189469D01*
X194148Y189457D01*
X194170Y189445D01*
X194199Y189430D01*
X194228Y189418D01*
X194260Y189406D01*
X194294Y189394D01*
X194333Y189384D01*
X194372Y189380D01*
X194415Y189375D01*
X194459Y189372D01*
X194462D01*
X194466D01*
X194474D01*
X194486D01*
X194500Y189375D01*
X194517D01*
X194556Y189380D01*
X194605Y189389D01*
X194656Y189399D01*
X194709Y189416D01*
X194765Y189438D01*
X194768D01*
X194773Y189440D01*
X194780Y189445D01*
X194790Y189450D01*
X194816Y189467D01*
X194848Y189486D01*
X194884Y189513D01*
X194921Y189547D01*
X194955Y189584D01*
X194986Y189627D01*
Y189630D01*
X194989Y189632D01*
X194994Y189639D01*
X194999Y189649D01*
X195011Y189673D01*
X195023Y189705D01*
X195037Y189744D01*
X195050Y189785D01*
X195059Y189834D01*
X195062Y189883D01*
Y189902D01*
X195059Y189917D01*
X195057Y189934D01*
X195054Y189953D01*
X195042Y189999D01*
X195023Y190053D01*
X195011Y190079D01*
X194996Y190109D01*
X194979Y190138D01*
X194957Y190164D01*
X194933Y190194D01*
X194906Y190220D01*
X194904Y190223D01*
X194899Y190228D01*
X194889Y190232D01*
X194877Y190242D01*
X194860Y190252D01*
X194841Y190264D01*
X194819Y190279D01*
X194792Y190291D01*
X194763Y190303D01*
X194731Y190317D01*
X194697Y190330D01*
X194658Y190339D01*
X194617Y190349D01*
X194573Y190356D01*
X194525Y190359D01*
X194476Y190361D01*
D02*
G37*
%LPD*%
D15*
X41732Y157874D02*
X41469Y158858D01*
X40748Y159579D01*
X39764Y159843D01*
X38780Y159579D01*
X38059Y158858D01*
X37795Y157874D01*
X38059Y156890D01*
X38780Y156169D01*
X39764Y155905D01*
X40748Y156169D01*
X41469Y156890D01*
X41732Y157874D01*
Y252362D02*
X41469Y253346D01*
X40748Y254067D01*
X39764Y254331D01*
X38780Y254067D01*
X38059Y253346D01*
X37795Y252362D01*
X38059Y251378D01*
X38780Y250657D01*
X39764Y250394D01*
X40748Y250657D01*
X41469Y251378D01*
X41732Y252362D01*
Y110630D02*
X41469Y111614D01*
X40748Y112335D01*
X39764Y112598D01*
X38780Y112335D01*
X38059Y111614D01*
X37795Y110630D01*
X38059Y109646D01*
X38780Y108925D01*
X39764Y108661D01*
X40748Y108925D01*
X41469Y109646D01*
X41732Y110630D01*
Y205118D02*
X41469Y206102D01*
X40748Y206823D01*
X39764Y207087D01*
X38780Y206823D01*
X38059Y206102D01*
X37795Y205118D01*
X38059Y204134D01*
X38780Y203413D01*
X39764Y203150D01*
X40748Y203413D01*
X41469Y204134D01*
X41732Y205118D01*
Y63386D02*
X41469Y64370D01*
X40748Y65091D01*
X39764Y65354D01*
X38780Y65091D01*
X38059Y64370D01*
X37795Y63386D01*
X38059Y62402D01*
X38780Y61681D01*
X39764Y61417D01*
X40748Y61681D01*
X41469Y62402D01*
X41732Y63386D01*
X106004Y250886D02*
Y257776D01*
Y250886D02*
X109744D01*
X106004Y257776D02*
X109744D01*
Y250886D02*
Y257776D01*
X98917Y250886D02*
Y257776D01*
Y250886D02*
X102657D01*
X98917Y257776D02*
X102657D01*
Y250886D02*
Y257776D01*
X122539Y195768D02*
Y202658D01*
Y195768D02*
X126279D01*
X122539Y202658D02*
X126279D01*
Y195768D02*
Y202658D01*
X115453Y195768D02*
Y202658D01*
Y195768D02*
X119193D01*
X115453Y202658D02*
X119193D01*
Y195768D02*
Y202658D01*
X111811Y181102D02*
Y187992D01*
Y181102D02*
X115551D01*
X111811Y187992D02*
X115551D01*
Y181102D02*
Y187992D01*
X103366Y181232D02*
Y188122D01*
Y181232D02*
X107106D01*
X103366Y188122D02*
X107106D01*
Y181232D02*
Y188122D01*
X122343Y87894D02*
Y94784D01*
X118602D02*
X122343D01*
X118602Y87894D02*
X122343D01*
X118602D02*
Y94784D01*
X131004Y87894D02*
Y94784D01*
X127264D02*
X131004D01*
X127264Y87894D02*
X131004D01*
X127264D02*
Y94784D01*
X192126Y320472D02*
Y322047D01*
X191339Y322835D02*
X192126Y322047D01*
X185827Y322835D02*
X191339D01*
Y319685D02*
X192126Y320472D01*
X185827Y319685D02*
X191339D01*
X185827D02*
Y322835D01*
X166634Y319390D02*
X173524D01*
Y323130D01*
X166634Y319390D02*
Y323130D01*
X173524D01*
X122343Y107579D02*
Y114469D01*
X118602D02*
X122343D01*
X118602Y107579D02*
X122343D01*
X118602D02*
Y114469D01*
X178445Y167421D02*
Y174311D01*
Y167421D02*
X182185D01*
X178445Y174311D02*
X182185D01*
Y167421D02*
Y174311D01*
X182185Y198720D02*
X191043D01*
X182185Y193406D02*
X191043D01*
Y198720D01*
X182185Y193406D02*
Y198720D01*
X172933Y242815D02*
X179823D01*
X172933Y239075D02*
Y242815D01*
X179823Y239075D02*
Y242815D01*
X172933Y239075D02*
X179823D01*
X172146Y186122D02*
X179035D01*
X172146Y182382D02*
Y186122D01*
X179035Y182382D02*
Y186122D01*
X172146Y182382D02*
X179035D01*
X86319Y30413D02*
Y37303D01*
X90059Y30413D02*
Y37303D01*
X86319Y30413D02*
X90059D01*
X86319Y37303D02*
X90059D01*
X109941Y35138D02*
Y42028D01*
X113681Y35138D02*
Y42028D01*
X109941Y35138D02*
X113681D01*
X109941Y42028D02*
X113681D01*
X150689Y6791D02*
Y13681D01*
X146949Y6791D02*
Y13681D01*
X150689D01*
X146949Y6791D02*
X150689D01*
X3937Y161417D02*
X43307D01*
X3937Y145669D02*
X43307D01*
X3937D02*
Y161417D01*
X43307Y145669D02*
Y161417D01*
X3937Y255906D02*
X43307D01*
X3937Y240158D02*
X43307D01*
X3937D02*
Y255906D01*
X43307Y240158D02*
Y255906D01*
X3937Y114173D02*
X43307D01*
X3937Y98425D02*
X43307D01*
X3937D02*
Y114173D01*
X43307Y98425D02*
Y114173D01*
X120571Y379272D02*
X127461D01*
Y383012D01*
X120571Y379272D02*
Y383012D01*
X127461D01*
X120571Y375138D02*
X127461D01*
X120571Y371398D02*
Y375138D01*
X127461Y371398D02*
Y375138D01*
X120571Y371398D02*
X127461D01*
X111122Y372185D02*
Y379075D01*
Y372185D02*
X114862D01*
X111122Y379075D02*
X114862D01*
Y372185D02*
Y379075D01*
X104035Y372185D02*
Y379075D01*
Y372185D02*
X107776D01*
X104035Y379075D02*
X107776D01*
Y372185D02*
Y379075D01*
X120571Y390098D02*
X127461D01*
X120571Y386358D02*
X127461D01*
X120571D02*
Y390098D01*
X127461Y386358D02*
Y390098D01*
X131595Y358799D02*
Y365689D01*
X135335Y358799D02*
Y365689D01*
X131595Y358799D02*
X135335D01*
X131595Y365689D02*
X135335D01*
X126083Y320216D02*
X132973D01*
X126083Y323957D02*
X132973D01*
Y320216D02*
Y323957D01*
X126083Y320216D02*
Y323957D01*
Y326516D02*
X132973D01*
X126083Y330256D02*
X132973D01*
Y326516D02*
Y330256D01*
X126083Y326516D02*
Y330256D01*
X126870Y343799D02*
X133760D01*
Y347539D01*
X126870Y343799D02*
Y347539D01*
X133760D01*
X126870Y335925D02*
X133760D01*
Y339665D01*
X126870Y335925D02*
Y339665D01*
X133760D01*
X46949Y339390D02*
Y346280D01*
X43209D02*
X46949D01*
X43209Y339390D02*
X46949D01*
X43209D02*
Y346280D01*
X50689Y339390D02*
Y346280D01*
Y339390D02*
X54429D01*
X50689Y346280D02*
X54429D01*
Y339390D02*
Y346280D01*
X80610Y344587D02*
Y351476D01*
X76870D02*
X80610D01*
X76870Y344587D02*
X80610D01*
X76870D02*
Y351476D01*
X83957Y344587D02*
Y351476D01*
Y344587D02*
X87697D01*
X83957Y351476D02*
X87697D01*
Y344587D02*
Y351476D01*
X30020Y346083D02*
X33760D01*
X30020Y339193D02*
X33760D01*
Y346083D01*
X30020Y339193D02*
Y346083D01*
X71949Y336831D02*
Y340571D01*
X65059Y336831D02*
Y340571D01*
Y336831D02*
X71949D01*
X65059Y340571D02*
X71949D01*
X35925Y346083D02*
X39665D01*
X35925Y339193D02*
X39665D01*
Y346083D01*
X35925Y339193D02*
Y346083D01*
X43307Y192913D02*
Y208661D01*
X3937Y192913D02*
Y208661D01*
Y192913D02*
X43307D01*
X3937Y208661D02*
X43307D01*
X92815Y298642D02*
Y305532D01*
X89075D02*
X92815D01*
X89075Y298642D02*
X92815D01*
X89075D02*
Y305532D01*
X89370Y284764D02*
X92520D01*
X89370Y279253D02*
Y284764D01*
Y279253D02*
X90157Y278465D01*
X92520Y279253D02*
Y284764D01*
X91732Y278465D02*
X92520Y279253D01*
X90157Y278465D02*
X91732D01*
X43307Y51181D02*
Y66929D01*
X3937Y51181D02*
Y66929D01*
Y51181D02*
X43307D01*
X3937Y66929D02*
X43307D01*
D90*
X190359Y197741D02*
X189759D01*
X190359D01*
D91*
X183415Y198720D02*
Y200984D01*
X184695D01*
Y198720D02*
Y200984D01*
X185974Y198720D02*
Y200984D01*
X187254D01*
Y198720D02*
Y200984D01*
X188533Y198720D02*
Y200984D01*
X189813D01*
Y198720D02*
Y200984D01*
Y191142D02*
Y193406D01*
X188533Y191142D02*
X189813D01*
X188533D02*
Y193406D01*
X184695Y191142D02*
Y193406D01*
X183415Y191142D02*
X184695D01*
X183415D02*
Y193406D01*
M02*
