G04*
G04 #@! TF.GenerationSoftware,Altium Limited,Altium Designer,19.1.8 (144)*
G04*
G04 Layer_Color=32768*
%FSLAX25Y25*%
%MOIN*%
G70*
G01*
G75*
%ADD15C,0.00394*%
%ADD93C,0.00197*%
D15*
X197Y313189D02*
X137303D01*
Y2559D02*
Y313189D01*
X197Y2559D02*
X137303D01*
X197D02*
Y313189D01*
X143307Y379134D02*
Y383071D01*
X141339Y381102D02*
X145276D01*
X140591Y369252D02*
X194803Y329252D01*
X140591D02*
X194803Y369252D01*
X42992Y276181D02*
X82992Y330394D01*
X42992D02*
X82992Y276181D01*
X90551Y365354D02*
X95276D01*
Y373228D01*
X90551D02*
X95276D01*
X90551Y365354D02*
Y373228D01*
X103937Y360276D02*
Y364213D01*
X101969Y362244D02*
X105905D01*
X111811Y360276D02*
Y364213D01*
X109843Y362244D02*
X113779D01*
X119291Y360276D02*
Y364213D01*
X117323Y362244D02*
X121260D01*
X126772Y360276D02*
Y364213D01*
X124803Y362244D02*
X128740D01*
X80315Y365354D02*
X85039D01*
Y373228D01*
X80315D02*
X85039D01*
X80315Y365354D02*
Y373228D01*
X188976Y348425D02*
Y352362D01*
X187008Y350394D02*
X190945D01*
X77756Y373228D02*
Y377165D01*
X75787Y375197D02*
X79724D01*
X36220Y369685D02*
Y373622D01*
X34252Y371654D02*
X38189D01*
X150787Y378346D02*
X154724D01*
X152756Y376378D02*
Y380315D01*
X68504Y366260D02*
Y370197D01*
X66535Y368229D02*
X70472D01*
X68504Y358386D02*
Y362323D01*
X66535Y360355D02*
X70472D01*
X68504Y350906D02*
Y354843D01*
X66535Y352875D02*
X70472D01*
X68504Y343426D02*
Y347363D01*
X66535Y345394D02*
X70472D01*
X94488Y320472D02*
Y324410D01*
X92520Y322441D02*
X96457D01*
D93*
X20118Y338740D02*
Y347874D01*
X1929D02*
X20118D01*
X1929Y338740D02*
Y347874D01*
Y338740D02*
X20118D01*
X9646Y343307D02*
X12402D01*
X11024Y341929D02*
Y344685D01*
X20118Y325354D02*
Y334488D01*
X1929D02*
X20118D01*
X1929Y325354D02*
Y334488D01*
Y325354D02*
X20118D01*
X9646Y329921D02*
X12402D01*
X11024Y328543D02*
Y331299D01*
X141732Y195669D02*
Y199606D01*
X139764Y197638D02*
X143701D01*
X156693Y292913D02*
X156693Y102361D01*
X126772D02*
X156693D01*
X126772Y292915D02*
X156693D01*
X126772Y102362D02*
Y292915D01*
X153051Y10236D02*
X183957D01*
X153051D02*
Y32283D01*
X183957D01*
Y10236D02*
Y32283D01*
X53839Y32185D02*
X84744D01*
Y10138D02*
Y32185D01*
X53839Y10138D02*
X84744D01*
X53839D02*
Y32185D01*
X137205Y387244D02*
X149409D01*
X137205Y374961D02*
X149409D01*
X137205D02*
Y387244D01*
X149409Y374961D02*
Y387244D01*
X196044Y327598D02*
Y370905D01*
X138170Y327598D02*
X196044D01*
X138170Y370905D02*
X196044D01*
X138170Y327598D02*
Y370905D01*
X165729Y349252D02*
X169666D01*
X167697Y347283D02*
Y351220D01*
X41339Y274941D02*
X84646D01*
X41339D02*
Y332815D01*
X84646Y274941D02*
Y332815D01*
X41339D02*
X84646D01*
X62992Y301319D02*
Y305256D01*
X61023Y303288D02*
X64960D01*
X51575Y353859D02*
Y356615D01*
X50197Y355237D02*
X52953D01*
X42480Y359804D02*
X60669D01*
X42480Y350670D02*
Y359804D01*
Y350670D02*
X60669D01*
Y359804D01*
X116339Y340158D02*
X119095D01*
X117717Y338779D02*
Y341535D01*
X113150Y331063D02*
Y349252D01*
Y331063D02*
X122283D01*
Y349252D01*
X113150D02*
X122283D01*
X100787Y356732D02*
X107087D01*
X100787Y367756D02*
X107087D01*
X100787Y356732D02*
Y367756D01*
X107087Y356732D02*
Y367756D01*
X108661Y356732D02*
X114961D01*
X108661Y367756D02*
X114961D01*
X108661Y356732D02*
Y367756D01*
X114961Y356732D02*
Y367756D01*
X116142Y356732D02*
X122441D01*
X116142Y367756D02*
X122441D01*
X116142Y356732D02*
Y367756D01*
X122441Y356732D02*
Y367756D01*
X123622Y356732D02*
X129921D01*
X123622Y367756D02*
X129921D01*
X123622Y356732D02*
Y367756D01*
X129921Y356732D02*
Y367756D01*
X95669Y340158D02*
X98425D01*
X97047Y338779D02*
Y341535D01*
X92480Y331063D02*
Y349252D01*
Y331063D02*
X101614D01*
Y349252D01*
X92480D02*
X101614D01*
X105905Y340158D02*
X108661D01*
X107283Y338779D02*
Y341535D01*
X102717Y331063D02*
Y349252D01*
Y331063D02*
X111850D01*
Y349252D01*
X102717D02*
X111850D01*
X182874Y344252D02*
X195079D01*
X182874Y356535D02*
X195079D01*
X182874Y344252D02*
Y356535D01*
X195079Y344252D02*
Y356535D01*
X178543Y343228D02*
Y360709D01*
X150591Y343228D02*
X178543D01*
X150591D02*
Y360709D01*
X178543D01*
X91339Y362008D02*
Y388386D01*
X50000Y362008D02*
X91339D01*
X50000Y388386D02*
X91339D01*
X50000Y362008D02*
Y388386D01*
X91339Y362008D02*
Y388386D01*
X50000Y362008D02*
X91339D01*
X50000Y388386D02*
X91339D01*
X50000Y362008D02*
Y388386D01*
X60669Y371339D02*
Y380473D01*
X42480Y371339D02*
X60669D01*
X42480D02*
Y380473D01*
X60669D01*
X50197Y375906D02*
X52953D01*
X51575Y374528D02*
Y377284D01*
X60669Y361103D02*
Y370237D01*
X42480Y361103D02*
X60669D01*
X42480D02*
Y370237D01*
X60669D01*
X50197Y365670D02*
X52953D01*
X51575Y364292D02*
Y367048D01*
X146161Y31496D02*
Y53543D01*
X115256D02*
X146161D01*
X115256Y31496D02*
Y53543D01*
Y31496D02*
X146161D01*
X33071Y366142D02*
X39370D01*
X33071Y377165D02*
X39370D01*
Y366142D02*
Y377165D01*
X33071Y366142D02*
Y377165D01*
X180512Y365158D02*
Y391535D01*
X139173Y365158D02*
X180512D01*
X139173Y391535D02*
X180512D01*
X139173Y365158D02*
Y391535D01*
X180512Y365158D02*
Y391535D01*
X139173Y365158D02*
X180512D01*
X139173Y391535D02*
X180512D01*
X139173Y365158D02*
Y391535D01*
X62992Y365079D02*
X74016D01*
X62992Y371378D02*
X74016D01*
Y365079D02*
Y371378D01*
X62992Y365079D02*
Y371378D01*
Y357205D02*
X74016D01*
X62992Y363505D02*
X74016D01*
Y357205D02*
Y363505D01*
X62992Y357205D02*
Y363505D01*
Y349725D02*
X74016D01*
X62992Y356024D02*
X74016D01*
Y349725D02*
Y356024D01*
X62992Y349725D02*
Y356024D01*
Y342245D02*
X74016D01*
X62992Y348544D02*
X74016D01*
Y342245D02*
Y348544D01*
X62992Y342245D02*
Y348544D01*
X88346Y316339D02*
X100630D01*
X88346Y328543D02*
X100630D01*
X88346Y316339D02*
Y328543D01*
X100630Y316339D02*
Y328543D01*
M02*
