G04*
G04 #@! TF.GenerationSoftware,Altium Limited,Altium Designer,19.1.8 (144)*
G04*
G04 Layer_Color=8388736*
%FSLAX25Y25*%
%MOIN*%
G70*
G01*
G75*
%ADD18R,0.04540X0.04147*%
G04:AMPARAMS|DCode=19|XSize=51.18mil|YSize=23.62mil|CornerRadius=4.92mil|HoleSize=0mil|Usage=FLASHONLY|Rotation=0.000|XOffset=0mil|YOffset=0mil|HoleType=Round|Shape=RoundedRectangle|*
%AMROUNDEDRECTD19*
21,1,0.05118,0.01378,0,0,0.0*
21,1,0.04134,0.02362,0,0,0.0*
1,1,0.00984,0.02067,-0.00689*
1,1,0.00984,-0.02067,-0.00689*
1,1,0.00984,-0.02067,0.00689*
1,1,0.00984,0.02067,0.00689*
%
%ADD19ROUNDEDRECTD19*%
%ADD20R,0.03950X0.03950*%
%ADD21R,0.04147X0.04540*%
%ADD22R,0.02178X0.04343*%
%ADD23R,0.04343X0.03556*%
G04:AMPARAMS|DCode=24|XSize=31.62mil|YSize=65.09mil|CornerRadius=6.01mil|HoleSize=0mil|Usage=FLASHONLY|Rotation=0.000|XOffset=0mil|YOffset=0mil|HoleType=Round|Shape=RoundedRectangle|*
%AMROUNDEDRECTD24*
21,1,0.03162,0.05307,0,0,0.0*
21,1,0.01961,0.06509,0,0,0.0*
1,1,0.01202,0.00980,-0.02653*
1,1,0.01202,-0.00980,-0.02653*
1,1,0.01202,-0.00980,0.02653*
1,1,0.01202,0.00980,0.02653*
%
%ADD24ROUNDEDRECTD24*%
%ADD25R,0.06607X0.02572*%
%ADD26R,0.04343X0.03950*%
%ADD27R,0.34422X0.21863*%
%ADD28O,0.12847X0.04304*%
%ADD29R,0.21863X0.34422*%
%ADD30O,0.04304X0.12847*%
G04:AMPARAMS|DCode=31|XSize=55.64mil|YSize=79.65mil|CornerRadius=11.86mil|HoleSize=0mil|Usage=FLASHONLY|Rotation=180.000|XOffset=0mil|YOffset=0mil|HoleType=Round|Shape=RoundedRectangle|*
%AMROUNDEDRECTD31*
21,1,0.05564,0.05593,0,0,180.0*
21,1,0.03192,0.07965,0,0,180.0*
1,1,0.02372,-0.01596,0.02797*
1,1,0.02372,0.01596,0.02797*
1,1,0.02372,0.01596,-0.02797*
1,1,0.02372,-0.01596,-0.02797*
%
%ADD31ROUNDEDRECTD31*%
G04:AMPARAMS|DCode=32|XSize=55.64mil|YSize=79.65mil|CornerRadius=11.86mil|HoleSize=0mil|Usage=FLASHONLY|Rotation=270.000|XOffset=0mil|YOffset=0mil|HoleType=Round|Shape=RoundedRectangle|*
%AMROUNDEDRECTD32*
21,1,0.05564,0.05593,0,0,270.0*
21,1,0.03192,0.07965,0,0,270.0*
1,1,0.02372,-0.02797,-0.01596*
1,1,0.02372,-0.02797,0.01596*
1,1,0.02372,0.02797,0.01596*
1,1,0.02372,0.02797,-0.01596*
%
%ADD32ROUNDEDRECTD32*%
%ADD33R,0.04737X0.06312*%
%ADD34R,0.03556X0.04343*%
%ADD35R,0.06115X0.04540*%
%ADD36R,0.04540X0.06115*%
%ADD37R,0.03950X0.04343*%
%ADD38R,0.03950X0.03950*%
%ADD39R,0.04737X0.25997*%
%ADD40R,0.04737X0.25997*%
%ADD41R,0.25997X0.04737*%
%ADD42R,0.25997X0.04737*%
%ADD43C,0.04737*%
%ADD44C,0.11725*%
%ADD45C,0.00800*%
%ADD46C,0.06600*%
%ADD47C,0.01981*%
%ADD48C,0.02375*%
D18*
X107874Y251772D02*
D03*
Y256890D02*
D03*
X100787Y251772D02*
D03*
Y256890D02*
D03*
X124409Y196653D02*
D03*
Y201772D02*
D03*
X117323Y196653D02*
D03*
Y201772D02*
D03*
X113681Y181988D02*
D03*
Y187106D02*
D03*
X105236Y182118D02*
D03*
Y187236D02*
D03*
X120472Y93898D02*
D03*
Y88779D02*
D03*
X129134Y93898D02*
D03*
Y88779D02*
D03*
X120472Y113583D02*
D03*
Y108465D02*
D03*
X180315Y168307D02*
D03*
Y173425D02*
D03*
X112992Y373071D02*
D03*
Y378189D02*
D03*
X105905Y373071D02*
D03*
Y378189D02*
D03*
X45079Y345394D02*
D03*
Y340276D02*
D03*
X52559Y340276D02*
D03*
Y345394D02*
D03*
X78740Y350590D02*
D03*
Y345472D02*
D03*
X85827Y345472D02*
D03*
Y350591D02*
D03*
X90945Y304646D02*
D03*
Y299528D02*
D03*
D19*
X135039Y281102D02*
D03*
X148425D02*
D03*
X135039Y277953D02*
D03*
X148425D02*
D03*
X135039Y274803D02*
D03*
X148425D02*
D03*
X135039Y271654D02*
D03*
X148425D02*
D03*
X135039Y268504D02*
D03*
X148425D02*
D03*
X135039Y265354D02*
D03*
X148425D02*
D03*
X135039Y262205D02*
D03*
X148425D02*
D03*
X135039Y259055D02*
D03*
X148425D02*
D03*
X135039Y255906D02*
D03*
X148425D02*
D03*
X135039Y252756D02*
D03*
X148425D02*
D03*
X135039Y249606D02*
D03*
X148425D02*
D03*
X135039Y246457D02*
D03*
X148425D02*
D03*
X135039Y243307D02*
D03*
X148425D02*
D03*
X135039Y240158D02*
D03*
X148425D02*
D03*
X135039Y237008D02*
D03*
X148425D02*
D03*
X135039Y233858D02*
D03*
X148425D02*
D03*
X135039Y230709D02*
D03*
X148425D02*
D03*
X135039Y227559D02*
D03*
X148425D02*
D03*
X135039Y224410D02*
D03*
X148425D02*
D03*
X135039Y221260D02*
D03*
X148425D02*
D03*
X135039Y218110D02*
D03*
X148425D02*
D03*
X135039Y214961D02*
D03*
X148425D02*
D03*
X135039Y211811D02*
D03*
X148425D02*
D03*
X135039Y208661D02*
D03*
X148425D02*
D03*
X135039Y205512D02*
D03*
X148425D02*
D03*
X135039Y202362D02*
D03*
X148425D02*
D03*
X135039Y199213D02*
D03*
X148425D02*
D03*
X135039Y183465D02*
D03*
X148425D02*
D03*
X135039Y180315D02*
D03*
X148425D02*
D03*
X135039Y177165D02*
D03*
X148425D02*
D03*
X135039Y174016D02*
D03*
X148425D02*
D03*
X135039Y170866D02*
D03*
X148425D02*
D03*
X135039Y167717D02*
D03*
X148425D02*
D03*
X135039Y164567D02*
D03*
X148425D02*
D03*
X135039Y161417D02*
D03*
X148425D02*
D03*
X135039Y158268D02*
D03*
X148425D02*
D03*
X135039Y155118D02*
D03*
X148425D02*
D03*
X135039Y151969D02*
D03*
X148425D02*
D03*
X135039Y148819D02*
D03*
X148425D02*
D03*
X135039Y145669D02*
D03*
X148425D02*
D03*
X135039Y142520D02*
D03*
X148425D02*
D03*
X135039Y139370D02*
D03*
X148425D02*
D03*
X135039Y136221D02*
D03*
X148425D02*
D03*
X135039Y133071D02*
D03*
X148425D02*
D03*
X135039Y129921D02*
D03*
X148425D02*
D03*
X135039Y126772D02*
D03*
X148425D02*
D03*
X135039Y123622D02*
D03*
X148425D02*
D03*
X135039Y120473D02*
D03*
X148425D02*
D03*
X135039Y117323D02*
D03*
X148425D02*
D03*
X135039Y114173D02*
D03*
X148425D02*
D03*
D20*
X185827Y321260D02*
D03*
X192126D02*
D03*
D21*
X172638D02*
D03*
X167520D02*
D03*
X173819Y240945D02*
D03*
X178937D02*
D03*
X173031Y184252D02*
D03*
X178150D02*
D03*
X126575Y381142D02*
D03*
X121457D02*
D03*
X121457Y373268D02*
D03*
X126575D02*
D03*
X132874Y345669D02*
D03*
X127756D02*
D03*
X132874Y337795D02*
D03*
X127756D02*
D03*
D22*
X189173Y199803D02*
D03*
X186614D02*
D03*
X184055D02*
D03*
Y192323D02*
D03*
X189173D02*
D03*
D23*
X88189Y31102D02*
D03*
Y36614D02*
D03*
X111811Y35827D02*
D03*
Y41339D02*
D03*
X148819Y12992D02*
D03*
Y7480D02*
D03*
X133465Y359488D02*
D03*
Y365000D02*
D03*
X31890Y345394D02*
D03*
Y339882D02*
D03*
X37795Y345394D02*
D03*
Y339882D02*
D03*
D24*
X6122Y142815D02*
D03*
X11122D02*
D03*
X16122D02*
D03*
X21122D02*
D03*
X26122D02*
D03*
X31122D02*
D03*
X36122D02*
D03*
X41122D02*
D03*
X6122Y164272D02*
D03*
X11122D02*
D03*
X16122D02*
D03*
X21122D02*
D03*
X26122D02*
D03*
X31122D02*
D03*
X36122D02*
D03*
X41122D02*
D03*
X6122Y237303D02*
D03*
X11122D02*
D03*
X16122D02*
D03*
X21122D02*
D03*
X26122D02*
D03*
X31122D02*
D03*
X36122D02*
D03*
X41122D02*
D03*
X6122Y258760D02*
D03*
X11122D02*
D03*
X16122D02*
D03*
X21122D02*
D03*
X26122D02*
D03*
X31122D02*
D03*
X36122D02*
D03*
X41122D02*
D03*
X6122Y95571D02*
D03*
X11122D02*
D03*
X16122D02*
D03*
X21122D02*
D03*
X26122D02*
D03*
X31122D02*
D03*
X36122D02*
D03*
X41122D02*
D03*
X6122Y117028D02*
D03*
X11122D02*
D03*
X16122D02*
D03*
X21122D02*
D03*
X26122D02*
D03*
X31122D02*
D03*
X36122D02*
D03*
X41122D02*
D03*
Y211516D02*
D03*
X36122D02*
D03*
X31122D02*
D03*
X26122D02*
D03*
X21122D02*
D03*
X16122D02*
D03*
X11122D02*
D03*
X6122D02*
D03*
X41122Y190059D02*
D03*
X36122D02*
D03*
X31122D02*
D03*
X26122D02*
D03*
X21122D02*
D03*
X16122D02*
D03*
X11122D02*
D03*
X6122D02*
D03*
X41122Y69784D02*
D03*
X36122D02*
D03*
X31122D02*
D03*
X26122D02*
D03*
X21122D02*
D03*
X16122D02*
D03*
X11122D02*
D03*
X6122D02*
D03*
X41122Y48327D02*
D03*
X36122D02*
D03*
X31122D02*
D03*
X26122D02*
D03*
X21122D02*
D03*
X16122D02*
D03*
X11122D02*
D03*
X6122D02*
D03*
D25*
X180071Y13583D02*
D03*
Y16142D02*
D03*
Y18701D02*
D03*
Y21260D02*
D03*
Y23819D02*
D03*
Y26378D02*
D03*
Y28937D02*
D03*
X156937D02*
D03*
Y26378D02*
D03*
Y23819D02*
D03*
Y21260D02*
D03*
Y18701D02*
D03*
Y16142D02*
D03*
Y13583D02*
D03*
X57724Y28839D02*
D03*
Y26280D02*
D03*
Y23720D02*
D03*
Y21161D02*
D03*
Y18602D02*
D03*
Y16043D02*
D03*
Y13484D02*
D03*
X80858D02*
D03*
Y16043D02*
D03*
Y18602D02*
D03*
Y21161D02*
D03*
Y23720D02*
D03*
Y26280D02*
D03*
Y28839D02*
D03*
X119142Y34843D02*
D03*
Y37402D02*
D03*
Y39961D02*
D03*
Y42520D02*
D03*
Y45079D02*
D03*
Y47638D02*
D03*
Y50197D02*
D03*
X142276D02*
D03*
Y47638D02*
D03*
Y45079D02*
D03*
Y42520D02*
D03*
Y39961D02*
D03*
Y37402D02*
D03*
Y34843D02*
D03*
D26*
X139370Y381102D02*
D03*
X147244Y384842D02*
D03*
Y377362D02*
D03*
D27*
X174016Y349252D02*
D03*
D28*
X145256Y334252D02*
D03*
Y339252D02*
D03*
Y344252D02*
D03*
Y349252D02*
D03*
Y354252D02*
D03*
Y359252D02*
D03*
Y364252D02*
D03*
D29*
X62992Y296969D02*
D03*
D30*
X47992Y325729D02*
D03*
X52992D02*
D03*
X57992D02*
D03*
X62992D02*
D03*
X67992D02*
D03*
X72992D02*
D03*
X77992D02*
D03*
D31*
X45866Y355237D02*
D03*
X57283D02*
D03*
Y375906D02*
D03*
X45866D02*
D03*
X57283Y365670D02*
D03*
X45866D02*
D03*
D32*
X117717Y334449D02*
D03*
Y345866D02*
D03*
X97047Y334449D02*
D03*
Y345866D02*
D03*
X107283Y334449D02*
D03*
Y345866D02*
D03*
D33*
X92913Y364173D02*
D03*
Y374410D02*
D03*
X82677Y364173D02*
D03*
Y374410D02*
D03*
D34*
X121260Y388228D02*
D03*
X126772D02*
D03*
X132283Y322087D02*
D03*
X126772D02*
D03*
X132283Y328386D02*
D03*
X126772D02*
D03*
X71260Y338701D02*
D03*
X65748D02*
D03*
D35*
X103937Y359095D02*
D03*
Y365394D02*
D03*
X111811Y359095D02*
D03*
Y365394D02*
D03*
X119291Y359095D02*
D03*
Y365394D02*
D03*
X126772Y359095D02*
D03*
Y365394D02*
D03*
D36*
X71653Y368229D02*
D03*
X65354D02*
D03*
X71653Y360355D02*
D03*
X65354D02*
D03*
X71653Y352875D02*
D03*
X65354D02*
D03*
X71653Y345394D02*
D03*
X65354D02*
D03*
D37*
X90748Y318504D02*
D03*
X98228D02*
D03*
X94488Y326378D02*
D03*
D38*
X90945Y278465D02*
D03*
Y284764D02*
D03*
D39*
X159173Y349252D02*
D03*
D40*
X188858D02*
D03*
D41*
X62992Y311811D02*
D03*
D42*
X62992Y282127D02*
D03*
D43*
X34646Y33071D02*
D03*
X105709Y27165D02*
D03*
X34646Y282677D02*
D03*
X105709Y288583D02*
D03*
D44*
X92913Y71260D02*
D03*
Y87008D02*
D03*
Y102756D02*
D03*
Y118504D02*
D03*
Y134252D02*
D03*
Y150000D02*
D03*
Y165748D02*
D03*
Y181496D02*
D03*
Y197244D02*
D03*
Y212992D02*
D03*
Y228740D02*
D03*
Y244488D02*
D03*
X77165Y79134D02*
D03*
Y94882D02*
D03*
Y110630D02*
D03*
Y126378D02*
D03*
Y142126D02*
D03*
Y157874D02*
D03*
Y173622D02*
D03*
Y189370D02*
D03*
Y205118D02*
D03*
Y220866D02*
D03*
Y236614D02*
D03*
X61417Y71260D02*
D03*
Y87008D02*
D03*
Y102756D02*
D03*
Y118504D02*
D03*
Y134252D02*
D03*
Y150000D02*
D03*
Y165748D02*
D03*
Y181496D02*
D03*
Y197244D02*
D03*
Y212992D02*
D03*
Y228740D02*
D03*
Y244488D02*
D03*
D45*
X135827Y287008D02*
D03*
X141732Y108268D02*
D03*
D46*
X14685Y360079D02*
D03*
Y370079D02*
D03*
Y380079D02*
D03*
X24685Y360079D02*
D03*
Y370079D02*
D03*
Y380079D02*
D03*
D47*
X111811Y205512D02*
D03*
X113189Y256890D02*
D03*
X101575Y192126D02*
D03*
X124409Y179528D02*
D03*
X105236Y177441D02*
D03*
X120472Y82677D02*
D03*
D48*
Y118898D02*
D03*
X56693Y348819D02*
D03*
X11811Y251969D02*
D03*
X35433Y243307D02*
D03*
X6988Y229921D02*
D03*
X48031Y191339D02*
D03*
X36959Y196352D02*
D03*
X11024Y205512D02*
D03*
X15748Y196850D02*
D03*
X30709Y181102D02*
D03*
X47244Y106299D02*
D03*
X34009Y126772D02*
D03*
X161417Y71653D02*
D03*
X159055Y66142D02*
D03*
X155905Y69291D02*
D03*
X153543Y66142D02*
D03*
X150394Y62992D02*
D03*
X107874Y351969D02*
D03*
X90551Y348819D02*
D03*
X179528Y128347D02*
D03*
X60630Y363779D02*
D03*
X129165Y276378D02*
D03*
X154300D02*
D03*
X187402Y133071D02*
D03*
X178740Y159449D02*
D03*
X176378Y163779D02*
D03*
X109449Y231496D02*
D03*
X148031Y192126D02*
D03*
X125984Y242520D02*
D03*
X142520Y243307D02*
D03*
X174016Y236221D02*
D03*
X181890Y219291D02*
D03*
X187402Y186614D02*
D03*
X192126Y205511D02*
D03*
X183268Y240748D02*
D03*
X115748Y145669D02*
D03*
Y137008D02*
D03*
X177165Y200787D02*
D03*
X177165Y204724D02*
D03*
X174803Y215748D02*
D03*
X144095Y196063D02*
D03*
X142520Y162992D02*
D03*
X167717Y141732D02*
D03*
X169348Y124409D02*
D03*
X169291Y129921D02*
D03*
X142611Y139985D02*
D03*
X168504Y148031D02*
D03*
X174803Y147244D02*
D03*
X127559Y273228D02*
D03*
X155905D02*
D03*
X60630Y368504D02*
D03*
X111811Y354331D02*
D03*
X96850D02*
D03*
X131496Y389764D02*
D03*
X140157Y255906D02*
D03*
X175591Y189764D02*
D03*
X143307Y13386D02*
D03*
X125189Y37016D02*
D03*
X110384Y166289D02*
D03*
X102362Y158268D02*
D03*
X99213Y188189D02*
D03*
X174803Y168504D02*
D03*
X146457Y103937D02*
D03*
X136221D02*
D03*
X131496Y109449D02*
D03*
X151181Y100000D02*
D03*
X149606Y93701D02*
D03*
X129921Y288976D02*
D03*
X135433Y292913D02*
D03*
X129921Y295276D02*
D03*
X135433Y299213D02*
D03*
X151181Y286614D02*
D03*
X146457Y291339D02*
D03*
X151969Y292913D02*
D03*
X148819Y298425D02*
D03*
X62992Y351969D02*
D03*
X60630Y357480D02*
D03*
X102362Y239370D02*
D03*
X163779Y32283D02*
D03*
X173228Y29134D02*
D03*
X181890Y81102D02*
D03*
X189764Y77165D02*
D03*
X187036Y83043D02*
D03*
X185039Y88189D02*
D03*
X167717Y228346D02*
D03*
X126772Y234646D02*
D03*
X174803Y196063D02*
D03*
X101362Y38795D02*
D03*
X163779Y15748D02*
D03*
X110236Y215748D02*
D03*
X111811Y198425D02*
D03*
X99606Y155512D02*
D03*
X137303Y190847D02*
D03*
X164567Y333071D02*
D03*
X168504Y334646D02*
D03*
X161417D02*
D03*
X157480Y333071D02*
D03*
X187402Y113386D02*
D03*
Y204724D02*
D03*
X166929Y240158D02*
D03*
X168504Y185039D02*
D03*
X175591Y177953D02*
D03*
X167717Y168504D02*
D03*
X172441Y163779D02*
D03*
X113386Y98425D02*
D03*
X192126Y314961D02*
D03*
X41122Y230886D02*
D03*
Y183642D02*
D03*
Y136398D02*
D03*
Y89153D02*
D03*
Y41909D02*
D03*
X111811Y46457D02*
D03*
Y30709D02*
D03*
X146457Y29134D02*
D03*
X73228Y38583D02*
D03*
X93307Y31102D02*
D03*
X83071Y36614D02*
D03*
X51181Y13386D02*
D03*
X36220Y88976D02*
D03*
X50262Y194324D02*
D03*
X44882Y181102D02*
D03*
X16535Y148819D02*
D03*
X112598Y228346D02*
D03*
X114961Y216535D02*
D03*
X112598Y223622D02*
D03*
X102362Y200000D02*
D03*
X32283Y150394D02*
D03*
X40945Y110236D02*
D03*
X47244Y102937D02*
D03*
X107874Y163779D02*
D03*
X44882Y131496D02*
D03*
X11024Y124409D02*
D03*
X74016Y149606D02*
D03*
X36122Y41043D02*
D03*
X11122Y171555D02*
D03*
X28346Y264567D02*
D03*
X25984Y244094D02*
D03*
X30709Y251969D02*
D03*
X127559Y268504D02*
D03*
X155118D02*
D03*
X120472Y328346D02*
D03*
X127756Y350984D02*
D03*
X46457Y354252D02*
D03*
X6299Y266142D02*
D03*
X5512Y218110D02*
D03*
X16535Y171653D02*
D03*
X6299D02*
D03*
Y124409D02*
D03*
Y88976D02*
D03*
X6233Y76311D02*
D03*
X51181Y59055D02*
D03*
X41732Y63386D02*
D03*
X148819Y3150D02*
D03*
X148031Y51181D02*
D03*
X115748Y351181D02*
D03*
X119685Y354331D02*
D03*
X90551Y313386D02*
D03*
X91339Y273228D02*
D03*
X185039Y344094D02*
D03*
X181890Y340945D02*
D03*
X162992Y354331D02*
D03*
X188976Y339370D02*
D03*
X166142Y357480D02*
D03*
X163779Y350394D02*
D03*
X63779Y307087D02*
D03*
X65354Y287402D02*
D03*
X62992Y296969D02*
D03*
X55905Y292126D02*
D03*
X70866Y292913D02*
D03*
Y304724D02*
D03*
X56693D02*
D03*
X32335Y243307D02*
D03*
X14909Y251969D02*
D03*
X105512Y160630D02*
D03*
X12335Y196850D02*
D03*
X9909Y229921D02*
D03*
X51181Y120472D02*
D03*
X27335Y181102D02*
D03*
X83465Y356693D02*
D03*
X80315Y358268D02*
D03*
X86614D02*
D03*
X92126D02*
D03*
X96850D02*
D03*
X90551Y354331D02*
D03*
X36220Y124409D02*
D03*
X48819Y117323D02*
D03*
X175591Y127559D02*
D03*
X169595Y161721D02*
D03*
X179724Y214961D02*
D03*
X182677Y212598D02*
D03*
X172441Y208661D02*
D03*
X177165Y209449D02*
D03*
X74803Y13386D02*
D03*
X140157Y180315D02*
D03*
X157480D02*
D03*
X18898Y230709D02*
D03*
X21260Y251969D02*
D03*
X41122Y215925D02*
D03*
X6299Y196850D02*
D03*
X192126Y67716D02*
D03*
X194390Y61572D02*
D03*
X142520Y155118D02*
D03*
X140945Y167717D02*
D03*
X138583Y174016D02*
D03*
X160630Y255906D02*
D03*
X167717Y249606D02*
D03*
X162205Y243307D02*
D03*
X172441Y201575D02*
D03*
X140945Y249606D02*
D03*
M02*
