G04*
G04 #@! TF.GenerationSoftware,Altium Limited,Altium Designer,19.1.8 (144)*
G04*
G04 Layer_Color=8388736*
%FSLAX25Y25*%
%MOIN*%
G70*
G01*
G75*
%ADD15C,0.00394*%
%ADD92C,0.00600*%
%ADD93C,0.00197*%
G36*
X195276Y221554D02*
X193168D01*
X195276Y220819D01*
Y220521D01*
X193132Y219793D01*
X195276D01*
Y219472D01*
X192757D01*
Y219971D01*
X194544Y220568D01*
X194548D01*
X194555Y220572D01*
X194566Y220575D01*
X194584Y220583D01*
X194628Y220597D01*
X194682Y220615D01*
X194744Y220634D01*
X194806Y220655D01*
X194864Y220674D01*
X194915Y220688D01*
X194908Y220692D01*
X194890Y220695D01*
X194857Y220706D01*
X194813Y220721D01*
X194755Y220739D01*
X194686Y220765D01*
X194606Y220790D01*
X194511Y220823D01*
X192757Y221427D01*
Y221875D01*
X195276D01*
Y221554D01*
D02*
G37*
G36*
Y218479D02*
Y218151D01*
X193357Y217623D01*
X193354D01*
X193346Y217620D01*
X193335Y217616D01*
X193317Y217612D01*
X193277Y217601D01*
X193230Y217591D01*
X193179Y217576D01*
X193132Y217562D01*
X193092Y217550D01*
X193073Y217547D01*
X193062Y217543D01*
X193066D01*
X193070Y217540D01*
X193092Y217536D01*
X193124Y217529D01*
X193164Y217518D01*
X193208Y217507D01*
X193259Y217492D01*
X193310Y217481D01*
X193357Y217467D01*
X195276Y216935D01*
Y216586D01*
X192757Y215927D01*
Y216273D01*
X194409Y216648D01*
X194413D01*
X194420Y216652D01*
X194435Y216655D01*
X194453Y216659D01*
X194478Y216662D01*
X194504Y216670D01*
X194537Y216677D01*
X194573Y216684D01*
X194650Y216702D01*
X194737Y216721D01*
X194832Y216739D01*
X194926Y216757D01*
X194922D01*
X194908Y216761D01*
X194890Y216768D01*
X194861Y216772D01*
X194832Y216779D01*
X194795Y216790D01*
X194715Y216808D01*
X194635Y216830D01*
X194595Y216837D01*
X194559Y216848D01*
X194526Y216855D01*
X194497Y216863D01*
X194475Y216870D01*
X194460Y216874D01*
X192757Y217350D01*
Y217754D01*
X194034Y218111D01*
X194038D01*
X194056Y218118D01*
X194082Y218126D01*
X194114Y218133D01*
X194158Y218144D01*
X194205Y218158D01*
X194260Y218173D01*
X194322Y218187D01*
X194391Y218206D01*
X194460Y218220D01*
X194609Y218253D01*
X194766Y218286D01*
X194926Y218311D01*
X194922D01*
X194915Y218315D01*
X194901D01*
X194883Y218322D01*
X194861Y218326D01*
X194835Y218333D01*
X194802Y218337D01*
X194766Y218348D01*
X194686Y218366D01*
X194591Y218388D01*
X194489Y218410D01*
X194377Y218439D01*
X192757Y218832D01*
Y219170D01*
X195276Y218479D01*
D02*
G37*
G36*
X193543Y215731D02*
X193568Y215727D01*
X193601Y215723D01*
X193638Y215716D01*
X193678Y215709D01*
X193761Y215683D01*
X193805Y215669D01*
X193852Y215647D01*
X193900Y215621D01*
X193943Y215596D01*
X193987Y215563D01*
X194031Y215527D01*
X194034Y215523D01*
X194042Y215516D01*
X194053Y215505D01*
X194063Y215487D01*
X194082Y215465D01*
X194100Y215436D01*
X194122Y215399D01*
X194140Y215359D01*
X194162Y215312D01*
X194184Y215257D01*
X194202Y215199D01*
X194216Y215130D01*
X194231Y215057D01*
X194242Y214977D01*
X194249Y214886D01*
X194253Y214791D01*
Y214147D01*
X195276D01*
Y213812D01*
X192757D01*
Y214846D01*
X192760Y214901D01*
X192764Y214963D01*
X192768Y215028D01*
X192775Y215090D01*
X192782Y215144D01*
Y215152D01*
X192789Y215177D01*
X192797Y215210D01*
X192808Y215254D01*
X192826Y215301D01*
X192848Y215352D01*
X192873Y215407D01*
X192902Y215454D01*
X192906Y215461D01*
X192917Y215476D01*
X192939Y215498D01*
X192964Y215527D01*
X192997Y215560D01*
X193041Y215592D01*
X193088Y215629D01*
X193143Y215658D01*
X193150Y215661D01*
X193168Y215669D01*
X193201Y215683D01*
X193245Y215698D01*
X193295Y215709D01*
X193354Y215723D01*
X193419Y215731D01*
X193488Y215734D01*
X193492D01*
X193503D01*
X193517D01*
X193543Y215731D01*
D02*
G37*
G36*
X195975Y211526D02*
X195752D01*
Y213576D01*
X195975D01*
Y211526D01*
D02*
G37*
G36*
X193543Y211424D02*
X193568Y211421D01*
X193601Y211417D01*
X193638Y211410D01*
X193678Y211403D01*
X193761Y211377D01*
X193805Y211363D01*
X193852Y211341D01*
X193900Y211315D01*
X193943Y211290D01*
X193987Y211257D01*
X194031Y211221D01*
X194034Y211217D01*
X194042Y211210D01*
X194053Y211199D01*
X194063Y211180D01*
X194082Y211159D01*
X194100Y211130D01*
X194122Y211093D01*
X194140Y211053D01*
X194162Y211006D01*
X194184Y210951D01*
X194202Y210893D01*
X194216Y210824D01*
X194231Y210751D01*
X194242Y210671D01*
X194249Y210580D01*
X194253Y210485D01*
Y209841D01*
X195276D01*
Y209506D01*
X192757D01*
Y210540D01*
X192760Y210595D01*
X192764Y210656D01*
X192768Y210722D01*
X192775Y210784D01*
X192782Y210838D01*
Y210846D01*
X192789Y210871D01*
X192797Y210904D01*
X192808Y210948D01*
X192826Y210995D01*
X192848Y211046D01*
X192873Y211101D01*
X192902Y211148D01*
X192906Y211155D01*
X192917Y211170D01*
X192939Y211191D01*
X192964Y211221D01*
X192997Y211253D01*
X193041Y211286D01*
X193088Y211322D01*
X193143Y211352D01*
X193150Y211355D01*
X193168Y211363D01*
X193201Y211377D01*
X193245Y211392D01*
X193295Y211403D01*
X193354Y211417D01*
X193419Y211424D01*
X193488Y211428D01*
X193492D01*
X193503D01*
X193517D01*
X193543Y211424D01*
D02*
G37*
G36*
X195276Y208643D02*
X193168D01*
X195276Y207908D01*
Y207610D01*
X193132Y206882D01*
X195276D01*
Y206561D01*
X192757D01*
Y207060D01*
X194544Y207657D01*
X194548D01*
X194555Y207661D01*
X194566Y207664D01*
X194584Y207672D01*
X194628Y207686D01*
X194682Y207704D01*
X194744Y207722D01*
X194806Y207744D01*
X194864Y207763D01*
X194915Y207777D01*
X194908Y207781D01*
X194890Y207784D01*
X194857Y207795D01*
X194813Y207810D01*
X194755Y207828D01*
X194686Y207854D01*
X194606Y207879D01*
X194511Y207912D01*
X192757Y208516D01*
Y208964D01*
X195276D01*
Y208643D01*
D02*
G37*
G36*
Y204228D02*
X192757D01*
Y206052D01*
X193055D01*
Y204563D01*
X193823D01*
Y205957D01*
X194122D01*
Y204563D01*
X194977D01*
Y206110D01*
X195276D01*
Y204228D01*
D02*
G37*
G36*
X193055Y203049D02*
X195276D01*
Y202714D01*
X193055D01*
Y201884D01*
X192757D01*
Y203879D01*
X193055D01*
Y203049D01*
D02*
G37*
G36*
X195975Y199787D02*
X195752D01*
Y201837D01*
X195975D01*
Y199787D01*
D02*
G37*
G36*
X195276Y199802D02*
X195279Y199787D01*
X195283Y199762D01*
X195287Y199729D01*
X195294Y199693D01*
X195297Y199653D01*
X195301Y199573D01*
Y199543D01*
X195297Y199514D01*
X195294Y199478D01*
X195290Y199434D01*
X195279Y199391D01*
X195268Y199351D01*
X195250Y199311D01*
X195247Y199307D01*
X195239Y199296D01*
X195228Y199281D01*
X195210Y199259D01*
X195192Y199241D01*
X195166Y199220D01*
X195141Y199198D01*
X195108Y199183D01*
X195105D01*
X195090Y199176D01*
X195064Y199172D01*
X195028Y199165D01*
X194981Y199158D01*
X194952Y199154D01*
X194919D01*
X194879Y199150D01*
X194839Y199147D01*
X194795D01*
X194744D01*
X193689D01*
Y198917D01*
X193448D01*
Y199147D01*
X192997D01*
X192811Y199456D01*
X193448D01*
Y199769D01*
X193689D01*
Y199456D01*
X194762D01*
X194770D01*
X194784D01*
X194806D01*
X194832Y199460D01*
X194890Y199463D01*
X194915Y199467D01*
X194933Y199471D01*
X194941Y199474D01*
X194955Y199485D01*
X194974Y199500D01*
X194992Y199525D01*
X194995Y199532D01*
X195003Y199551D01*
X195010Y199583D01*
X195013Y199631D01*
Y199667D01*
X195010Y199685D01*
Y199711D01*
X195006Y199740D01*
X195003Y199769D01*
X195276Y199809D01*
Y199802D01*
D02*
G37*
G36*
X193015Y198936D02*
Y198932D01*
X193011Y198921D01*
X193008Y198903D01*
X193004Y198877D01*
Y198848D01*
X193001Y198819D01*
X192997Y198754D01*
Y198732D01*
X193001Y198706D01*
X193004Y198677D01*
X193011Y198644D01*
X193022Y198612D01*
X193037Y198582D01*
X193059Y198557D01*
X193062Y198553D01*
X193070Y198550D01*
X193084Y198539D01*
X193110Y198528D01*
X193139Y198517D01*
X193175Y198510D01*
X193223Y198502D01*
X193281Y198499D01*
X193448D01*
Y198852D01*
X193689D01*
Y198499D01*
X195276D01*
Y198189D01*
X193689D01*
Y197916D01*
X193448D01*
Y198189D01*
X193255D01*
X193252D01*
X193248D01*
X193226D01*
X193193Y198193D01*
X193154D01*
X193110Y198197D01*
X193062Y198204D01*
X193019Y198211D01*
X192982Y198222D01*
X192979Y198226D01*
X192961Y198229D01*
X192939Y198240D01*
X192913Y198258D01*
X192884Y198280D01*
X192851Y198306D01*
X192819Y198339D01*
X192789Y198379D01*
X192786Y198382D01*
X192779Y198400D01*
X192764Y198426D01*
X192749Y198462D01*
X192738Y198506D01*
X192724Y198561D01*
X192717Y198623D01*
X192713Y198695D01*
Y198746D01*
X192717Y198779D01*
X192720Y198823D01*
X192728Y198874D01*
X192735Y198925D01*
X192746Y198983D01*
X193015Y198936D01*
D02*
G37*
G36*
X195276Y197334D02*
X193448D01*
Y197643D01*
X195276D01*
Y197334D01*
D02*
G37*
G36*
X193110D02*
X192757D01*
Y197643D01*
X193110D01*
Y197334D01*
D02*
G37*
G36*
X195276Y196548D02*
X194118D01*
X194114D01*
X194107D01*
X194096D01*
X194082D01*
X194042Y196544D01*
X193991Y196537D01*
X193936Y196522D01*
X193881Y196504D01*
X193827Y196479D01*
X193783Y196446D01*
X193780Y196442D01*
X193765Y196428D01*
X193747Y196406D01*
X193729Y196373D01*
X193707Y196333D01*
X193692Y196286D01*
X193678Y196227D01*
X193674Y196162D01*
Y196140D01*
X193678Y196115D01*
X193681Y196078D01*
X193692Y196042D01*
X193703Y195998D01*
X193721Y195954D01*
X193747Y195907D01*
X193750Y195903D01*
X193761Y195889D01*
X193776Y195867D01*
X193798Y195842D01*
X193827Y195812D01*
X193860Y195783D01*
X193900Y195758D01*
X193943Y195736D01*
X193951Y195732D01*
X193965Y195729D01*
X193994Y195721D01*
X194031Y195711D01*
X194078Y195700D01*
X194136Y195692D01*
X194202Y195689D01*
X194278Y195685D01*
X195276D01*
Y195376D01*
X192757D01*
Y195685D01*
X193659D01*
X193656Y195689D01*
X193649Y195696D01*
X193638Y195707D01*
X193619Y195725D01*
X193601Y195743D01*
X193579Y195769D01*
X193558Y195801D01*
X193532Y195834D01*
X193510Y195871D01*
X193488Y195911D01*
X193448Y196005D01*
X193430Y196056D01*
X193419Y196111D01*
X193412Y196169D01*
X193408Y196227D01*
Y196260D01*
X193412Y196300D01*
X193419Y196347D01*
X193427Y196402D01*
X193441Y196460D01*
X193463Y196519D01*
X193488Y196577D01*
X193492Y196584D01*
X193503Y196602D01*
X193521Y196628D01*
X193547Y196661D01*
X193579Y196693D01*
X193616Y196730D01*
X193659Y196763D01*
X193710Y196792D01*
X193718Y196795D01*
X193736Y196802D01*
X193769Y196813D01*
X193816Y196824D01*
X193874Y196835D01*
X193943Y196846D01*
X194027Y196853D01*
X194122Y196857D01*
X195276D01*
Y196548D01*
D02*
G37*
G36*
X194642Y194950D02*
X194693Y194942D01*
X194751Y194928D01*
X194813Y194910D01*
X194879Y194881D01*
X194948Y194841D01*
X194952D01*
X194955Y194837D01*
X194977Y194819D01*
X195010Y194793D01*
X195046Y194757D01*
X195090Y194710D01*
X195137Y194651D01*
X195181Y194586D01*
X195221Y194509D01*
Y194506D01*
X195225Y194498D01*
X195228Y194488D01*
X195236Y194473D01*
X195243Y194451D01*
X195254Y194426D01*
X195268Y194367D01*
X195287Y194298D01*
X195305Y194214D01*
X195316Y194123D01*
X195319Y194025D01*
Y193967D01*
X195316Y193938D01*
Y193905D01*
X195312Y193869D01*
X195308Y193825D01*
X195294Y193734D01*
X195279Y193639D01*
X195254Y193545D01*
X195221Y193454D01*
Y193450D01*
X195217Y193443D01*
X195210Y193432D01*
X195203Y193417D01*
X195181Y193374D01*
X195148Y193323D01*
X195105Y193264D01*
X195054Y193203D01*
X194992Y193144D01*
X194922Y193090D01*
X194919D01*
X194912Y193082D01*
X194901Y193079D01*
X194886Y193068D01*
X194868Y193061D01*
X194846Y193050D01*
X194791Y193024D01*
X194722Y192999D01*
X194646Y192977D01*
X194559Y192962D01*
X194467Y192955D01*
X194438Y193268D01*
X194442D01*
X194446D01*
X194457Y193272D01*
X194471D01*
X194504Y193279D01*
X194551Y193290D01*
X194599Y193305D01*
X194653Y193319D01*
X194704Y193344D01*
X194751Y193370D01*
X194755Y193374D01*
X194770Y193385D01*
X194795Y193403D01*
X194821Y193432D01*
X194853Y193468D01*
X194886Y193508D01*
X194919Y193563D01*
X194948Y193621D01*
Y193625D01*
X194952Y193628D01*
X194955Y193639D01*
X194959Y193650D01*
X194970Y193687D01*
X194984Y193734D01*
X194999Y193792D01*
X195010Y193858D01*
X195017Y193931D01*
X195021Y194011D01*
Y194043D01*
X195017Y194080D01*
X195013Y194123D01*
X195006Y194175D01*
X194999Y194233D01*
X194984Y194291D01*
X194966Y194345D01*
X194963Y194353D01*
X194955Y194371D01*
X194941Y194396D01*
X194926Y194429D01*
X194901Y194462D01*
X194875Y194498D01*
X194846Y194535D01*
X194810Y194564D01*
X194806Y194568D01*
X194791Y194575D01*
X194773Y194586D01*
X194744Y194600D01*
X194715Y194615D01*
X194679Y194626D01*
X194639Y194633D01*
X194595Y194637D01*
X194591D01*
X194573D01*
X194551Y194633D01*
X194522Y194629D01*
X194493Y194618D01*
X194457Y194608D01*
X194420Y194589D01*
X194387Y194564D01*
X194384Y194560D01*
X194373Y194549D01*
X194358Y194535D01*
X194336Y194509D01*
X194315Y194480D01*
X194289Y194440D01*
X194264Y194393D01*
X194242Y194338D01*
X194238Y194335D01*
X194235Y194316D01*
X194224Y194287D01*
X194220Y194269D01*
X194213Y194244D01*
X194202Y194218D01*
X194194Y194185D01*
X194184Y194149D01*
X194173Y194105D01*
X194162Y194062D01*
X194147Y194011D01*
X194133Y193952D01*
X194118Y193891D01*
Y193887D01*
X194114Y193876D01*
X194111Y193858D01*
X194104Y193836D01*
X194096Y193807D01*
X194089Y193774D01*
X194067Y193701D01*
X194042Y193621D01*
X194016Y193537D01*
X193991Y193465D01*
X193976Y193432D01*
X193962Y193403D01*
Y193399D01*
X193958Y193395D01*
X193943Y193374D01*
X193925Y193341D01*
X193896Y193305D01*
X193863Y193261D01*
X193823Y193217D01*
X193776Y193174D01*
X193725Y193137D01*
X193718Y193133D01*
X193700Y193122D01*
X193670Y193108D01*
X193634Y193093D01*
X193587Y193079D01*
X193532Y193064D01*
X193474Y193053D01*
X193412Y193050D01*
X193408D01*
X193405D01*
X193394D01*
X193379D01*
X193343Y193057D01*
X193295Y193064D01*
X193241Y193075D01*
X193179Y193093D01*
X193117Y193119D01*
X193055Y193155D01*
X193052D01*
X193048Y193159D01*
X193026Y193177D01*
X192997Y193203D01*
X192961Y193235D01*
X192920Y193279D01*
X192877Y193334D01*
X192837Y193399D01*
X192800Y193472D01*
Y193476D01*
X192797Y193483D01*
X192793Y193494D01*
X192786Y193508D01*
X192779Y193526D01*
X192771Y193552D01*
X192757Y193607D01*
X192742Y193676D01*
X192728Y193756D01*
X192717Y193840D01*
X192713Y193934D01*
Y193982D01*
X192717Y194007D01*
Y194033D01*
X192724Y194102D01*
X192735Y194178D01*
X192753Y194258D01*
X192775Y194345D01*
X192804Y194426D01*
Y194429D01*
X192808Y194437D01*
X192815Y194448D01*
X192822Y194462D01*
X192840Y194498D01*
X192873Y194546D01*
X192910Y194600D01*
X192957Y194655D01*
X193011Y194706D01*
X193073Y194753D01*
X193077D01*
X193081Y194757D01*
X193092Y194764D01*
X193103Y194771D01*
X193139Y194790D01*
X193186Y194811D01*
X193245Y194837D01*
X193314Y194855D01*
X193386Y194873D01*
X193466Y194881D01*
X193492Y194560D01*
X193488D01*
X193481D01*
X193470Y194557D01*
X193452Y194553D01*
X193412Y194542D01*
X193357Y194527D01*
X193299Y194506D01*
X193241Y194473D01*
X193186Y194433D01*
X193135Y194382D01*
X193132Y194375D01*
X193117Y194356D01*
X193095Y194320D01*
X193073Y194273D01*
X193052Y194211D01*
X193030Y194138D01*
X193015Y194047D01*
X193011Y193945D01*
Y193894D01*
X193015Y193872D01*
X193019Y193843D01*
X193026Y193778D01*
X193041Y193705D01*
X193059Y193632D01*
X193088Y193563D01*
X193106Y193534D01*
X193124Y193505D01*
X193128Y193497D01*
X193143Y193483D01*
X193168Y193461D01*
X193197Y193439D01*
X193237Y193414D01*
X193281Y193392D01*
X193332Y193377D01*
X193390Y193370D01*
X193397D01*
X193412D01*
X193437Y193374D01*
X193466Y193381D01*
X193503Y193392D01*
X193539Y193410D01*
X193576Y193432D01*
X193612Y193465D01*
X193616Y193468D01*
X193627Y193486D01*
X193638Y193501D01*
X193645Y193516D01*
X193656Y193537D01*
X193670Y193563D01*
X193681Y193596D01*
X193696Y193632D01*
X193710Y193672D01*
X193729Y193719D01*
X193743Y193770D01*
X193761Y193829D01*
X193776Y193894D01*
X193794Y193967D01*
Y193971D01*
X193798Y193985D01*
X193801Y194007D01*
X193809Y194033D01*
X193816Y194065D01*
X193827Y194105D01*
X193838Y194145D01*
X193849Y194189D01*
X193874Y194284D01*
X193900Y194375D01*
X193914Y194418D01*
X193929Y194458D01*
X193940Y194495D01*
X193954Y194524D01*
Y194527D01*
X193958Y194535D01*
X193965Y194546D01*
X193973Y194560D01*
X193994Y194600D01*
X194023Y194648D01*
X194063Y194702D01*
X194107Y194757D01*
X194158Y194808D01*
X194213Y194852D01*
X194220Y194855D01*
X194238Y194870D01*
X194271Y194884D01*
X194315Y194906D01*
X194366Y194924D01*
X194428Y194942D01*
X194497Y194953D01*
X194569Y194957D01*
X194573D01*
X194577D01*
X194588D01*
X194602D01*
X194642Y194950D01*
D02*
G37*
G36*
X195975Y190782D02*
X195752D01*
Y192831D01*
X195975D01*
Y190782D01*
D02*
G37*
G36*
X194522Y190673D02*
X194544D01*
X194602Y190662D01*
X194671Y190651D01*
X194744Y190633D01*
X194824Y190607D01*
X194901Y190571D01*
X194904D01*
X194908Y190567D01*
X194919Y190560D01*
X194933Y190553D01*
X194970Y190531D01*
X195017Y190498D01*
X195068Y190458D01*
X195119Y190411D01*
X195170Y190352D01*
X195214Y190291D01*
Y190287D01*
X195217Y190283D01*
X195225Y190272D01*
X195228Y190258D01*
X195247Y190221D01*
X195265Y190174D01*
X195287Y190112D01*
X195301Y190043D01*
X195316Y189967D01*
X195319Y189883D01*
Y189865D01*
X195316Y189847D01*
Y189817D01*
X195312Y189785D01*
X195305Y189748D01*
X195294Y189705D01*
X195283Y189661D01*
X195268Y189610D01*
X195250Y189559D01*
X195228Y189508D01*
X195199Y189453D01*
X195166Y189402D01*
X195130Y189351D01*
X195086Y189301D01*
X195035Y189253D01*
X195032Y189250D01*
X195021Y189242D01*
X195006Y189231D01*
X194981Y189217D01*
X194948Y189195D01*
X194912Y189177D01*
X194864Y189155D01*
X194813Y189133D01*
X194751Y189108D01*
X194682Y189086D01*
X194606Y189067D01*
X194522Y189049D01*
X194428Y189031D01*
X194325Y189020D01*
X194216Y189013D01*
X194100Y189009D01*
X194096D01*
X194093D01*
X194082D01*
X194067D01*
X194031Y189013D01*
X193980D01*
X193921Y189017D01*
X193852Y189024D01*
X193776Y189031D01*
X193692Y189042D01*
X193608Y189057D01*
X193517Y189075D01*
X193430Y189097D01*
X193343Y189122D01*
X193259Y189155D01*
X193179Y189191D01*
X193103Y189231D01*
X193037Y189279D01*
X193033Y189282D01*
X193026Y189290D01*
X193011Y189304D01*
X192990Y189322D01*
X192968Y189344D01*
X192946Y189373D01*
X192917Y189410D01*
X192891Y189446D01*
X192866Y189490D01*
X192837Y189537D01*
X192815Y189592D01*
X192789Y189646D01*
X192771Y189708D01*
X192757Y189774D01*
X192749Y189843D01*
X192746Y189916D01*
Y189945D01*
X192749Y189967D01*
Y189992D01*
X192753Y190021D01*
X192768Y190090D01*
X192786Y190167D01*
X192815Y190247D01*
X192859Y190327D01*
X192884Y190367D01*
X192913Y190403D01*
X192917Y190407D01*
X192920Y190411D01*
X192931Y190422D01*
X192942Y190433D01*
X192961Y190451D01*
X192982Y190465D01*
X193033Y190505D01*
X193099Y190545D01*
X193179Y190582D01*
X193270Y190614D01*
X193372Y190636D01*
X193397Y190327D01*
X193394D01*
X193390Y190323D01*
X193368Y190320D01*
X193335Y190309D01*
X193295Y190294D01*
X193252Y190280D01*
X193208Y190258D01*
X193168Y190232D01*
X193135Y190207D01*
X193128Y190200D01*
X193113Y190185D01*
X193092Y190159D01*
X193066Y190123D01*
X193044Y190076D01*
X193022Y190025D01*
X193008Y189963D01*
X193001Y189898D01*
Y189872D01*
X193004Y189843D01*
X193011Y189810D01*
X193022Y189766D01*
X193037Y189723D01*
X193055Y189679D01*
X193084Y189635D01*
X193088Y189628D01*
X193103Y189610D01*
X193128Y189584D01*
X193164Y189552D01*
X193208Y189515D01*
X193259Y189475D01*
X193324Y189439D01*
X193397Y189402D01*
X193401D01*
X193408Y189399D01*
X193419Y189395D01*
X193434Y189388D01*
X193456Y189384D01*
X193481Y189377D01*
X193510Y189370D01*
X193547Y189362D01*
X193587Y189351D01*
X193630Y189344D01*
X193678Y189337D01*
X193729Y189333D01*
X193787Y189326D01*
X193845Y189322D01*
X193911Y189319D01*
X193976D01*
X193973Y189322D01*
X193951Y189337D01*
X193921Y189362D01*
X193885Y189395D01*
X193841Y189432D01*
X193801Y189479D01*
X193761Y189530D01*
X193725Y189588D01*
Y189592D01*
X193721Y189595D01*
X193710Y189617D01*
X193700Y189650D01*
X193681Y189694D01*
X193667Y189745D01*
X193656Y189803D01*
X193645Y189865D01*
X193641Y189930D01*
Y189959D01*
X193645Y189981D01*
X193649Y190010D01*
X193652Y190039D01*
X193659Y190076D01*
X193670Y190112D01*
X193696Y190196D01*
X193714Y190240D01*
X193739Y190283D01*
X193765Y190327D01*
X193794Y190374D01*
X193831Y190418D01*
X193871Y190458D01*
X193874Y190462D01*
X193881Y190469D01*
X193892Y190480D01*
X193911Y190491D01*
X193936Y190509D01*
X193962Y190527D01*
X193994Y190545D01*
X194031Y190567D01*
X194071Y190589D01*
X194114Y190607D01*
X194165Y190626D01*
X194216Y190644D01*
X194271Y190655D01*
X194333Y190665D01*
X194395Y190673D01*
X194460Y190676D01*
X194464D01*
X194471D01*
X194482D01*
X194500D01*
X194522Y190673D01*
D02*
G37*
G36*
X194307Y188591D02*
X194344D01*
X194387Y188587D01*
X194431Y188583D01*
X194529Y188573D01*
X194631Y188558D01*
X194730Y188536D01*
X194777Y188522D01*
X194821Y188507D01*
X194824D01*
X194832Y188503D01*
X194842Y188496D01*
X194857Y188489D01*
X194897Y188467D01*
X194948Y188434D01*
X195006Y188391D01*
X195064Y188339D01*
X195126Y188274D01*
X195181Y188194D01*
Y188190D01*
X195188Y188183D01*
X195192Y188172D01*
X195203Y188154D01*
X195214Y188132D01*
X195225Y188103D01*
X195236Y188074D01*
X195250Y188037D01*
X195265Y187997D01*
X195276Y187954D01*
X195287Y187906D01*
X195297Y187852D01*
X195305Y187797D01*
X195312Y187739D01*
X195319Y187608D01*
Y187575D01*
X195316Y187550D01*
Y187521D01*
X195312Y187484D01*
X195308Y187444D01*
X195305Y187404D01*
X195290Y187313D01*
X195268Y187215D01*
X195239Y187120D01*
X195199Y187029D01*
Y187025D01*
X195192Y187018D01*
X195185Y187007D01*
X195177Y186993D01*
X195148Y186953D01*
X195108Y186905D01*
X195057Y186851D01*
X194999Y186800D01*
X194926Y186749D01*
X194846Y186709D01*
X194842D01*
X194835Y186705D01*
X194821Y186702D01*
X194802Y186694D01*
X194781Y186687D01*
X194751Y186680D01*
X194719Y186669D01*
X194679Y186662D01*
X194635Y186654D01*
X194588Y186643D01*
X194537Y186636D01*
X194482Y186629D01*
X194420Y186621D01*
X194355Y186618D01*
X194286Y186614D01*
X194213D01*
X192757D01*
Y186949D01*
X194213D01*
X194216D01*
X194227D01*
X194246D01*
X194267D01*
X194293Y186953D01*
X194325D01*
X194395Y186956D01*
X194475Y186964D01*
X194555Y186975D01*
X194631Y186989D01*
X194664Y186996D01*
X194697Y187007D01*
X194704Y187011D01*
X194722Y187018D01*
X194748Y187036D01*
X194784Y187058D01*
X194821Y187084D01*
X194861Y187120D01*
X194901Y187164D01*
X194933Y187215D01*
X194937Y187222D01*
X194948Y187240D01*
X194959Y187273D01*
X194974Y187317D01*
X194992Y187368D01*
X195003Y187433D01*
X195013Y187502D01*
X195017Y187579D01*
Y187615D01*
X195013Y187637D01*
Y187670D01*
X195010Y187703D01*
X194995Y187783D01*
X194977Y187870D01*
X194948Y187954D01*
X194908Y188034D01*
X194883Y188070D01*
X194853Y188103D01*
X194850Y188107D01*
X194846Y188110D01*
X194835Y188118D01*
X194821Y188128D01*
X194799Y188139D01*
X194777Y188154D01*
X194744Y188169D01*
X194711Y188183D01*
X194671Y188198D01*
X194624Y188208D01*
X194569Y188223D01*
X194511Y188234D01*
X194446Y188245D01*
X194377Y188252D01*
X194296Y188259D01*
X194213D01*
X192757D01*
Y188594D01*
X194213D01*
X194216D01*
X194231D01*
X194249D01*
X194275D01*
X194307Y188591D01*
D02*
G37*
%LPC*%
G36*
X193499Y215392D02*
X193496D01*
X193492D01*
X193474D01*
X193441Y215388D01*
X193405Y215381D01*
X193365Y215374D01*
X193317Y215359D01*
X193274Y215337D01*
X193230Y215312D01*
X193226Y215308D01*
X193212Y215297D01*
X193193Y215279D01*
X193168Y215257D01*
X193143Y215225D01*
X193121Y215188D01*
X193099Y215148D01*
X193081Y215101D01*
Y215097D01*
X193077Y215083D01*
X193073Y215061D01*
X193066Y215032D01*
X193062Y214988D01*
X193059Y214933D01*
X193055Y214868D01*
Y214147D01*
X193954D01*
Y214824D01*
X193951Y214850D01*
Y214875D01*
X193947Y214904D01*
X193940Y214973D01*
X193925Y215050D01*
X193903Y215126D01*
X193874Y215195D01*
X193856Y215228D01*
X193834Y215254D01*
X193827Y215261D01*
X193812Y215276D01*
X193783Y215297D01*
X193747Y215323D01*
X193700Y215348D01*
X193641Y215370D01*
X193576Y215385D01*
X193499Y215392D01*
D02*
G37*
G36*
Y211086D02*
X193496D01*
X193492D01*
X193474D01*
X193441Y211082D01*
X193405Y211075D01*
X193365Y211068D01*
X193317Y211053D01*
X193274Y211031D01*
X193230Y211006D01*
X193226Y211002D01*
X193212Y210991D01*
X193193Y210973D01*
X193168Y210951D01*
X193143Y210918D01*
X193121Y210882D01*
X193099Y210842D01*
X193081Y210795D01*
Y210791D01*
X193077Y210776D01*
X193073Y210755D01*
X193066Y210725D01*
X193062Y210682D01*
X193059Y210627D01*
X193055Y210562D01*
Y209841D01*
X193954D01*
Y210518D01*
X193951Y210543D01*
Y210569D01*
X193947Y210598D01*
X193940Y210667D01*
X193925Y210744D01*
X193903Y210820D01*
X193874Y210889D01*
X193856Y210922D01*
X193834Y210948D01*
X193827Y210955D01*
X193812Y210969D01*
X193783Y210991D01*
X193747Y211017D01*
X193700Y211042D01*
X193641Y211064D01*
X193576Y211079D01*
X193499Y211086D01*
D02*
G37*
G36*
X194478Y190360D02*
X194475D01*
X194467D01*
X194453D01*
X194435Y190356D01*
X194413D01*
X194387Y190352D01*
X194329Y190341D01*
X194264Y190327D01*
X194194Y190302D01*
X194129Y190265D01*
X194067Y190218D01*
X194060Y190210D01*
X194042Y190192D01*
X194020Y190163D01*
X193991Y190123D01*
X193962Y190072D01*
X193940Y190014D01*
X193921Y189945D01*
X193914Y189868D01*
Y189847D01*
X193918Y189832D01*
X193921Y189795D01*
X193932Y189745D01*
X193951Y189690D01*
X193980Y189628D01*
X194016Y189570D01*
X194067Y189512D01*
X194074Y189504D01*
X194093Y189490D01*
X194125Y189464D01*
X194173Y189439D01*
X194227Y189413D01*
X194296Y189388D01*
X194373Y189373D01*
X194460Y189366D01*
X194467D01*
X194486D01*
X194518Y189370D01*
X194559Y189373D01*
X194606Y189381D01*
X194657Y189395D01*
X194711Y189410D01*
X194766Y189432D01*
X194773Y189435D01*
X194791Y189446D01*
X194817Y189461D01*
X194850Y189482D01*
X194883Y189508D01*
X194922Y189541D01*
X194955Y189577D01*
X194988Y189621D01*
X194992Y189628D01*
X194999Y189643D01*
X195013Y189668D01*
X195024Y189701D01*
X195039Y189737D01*
X195054Y189781D01*
X195061Y189828D01*
X195064Y189879D01*
Y189898D01*
X195061Y189912D01*
X195057Y189948D01*
X195046Y189996D01*
X195024Y190047D01*
X194999Y190105D01*
X194959Y190163D01*
X194937Y190192D01*
X194908Y190218D01*
X194904D01*
X194901Y190225D01*
X194879Y190240D01*
X194842Y190261D01*
X194795Y190291D01*
X194733Y190316D01*
X194660Y190338D01*
X194577Y190352D01*
X194478Y190360D01*
D02*
G37*
%LPD*%
D15*
X41732Y157874D02*
X41469Y158858D01*
X40748Y159579D01*
X39764Y159843D01*
X38780Y159579D01*
X38059Y158858D01*
X37795Y157874D01*
X38059Y156890D01*
X38780Y156169D01*
X39764Y155905D01*
X40748Y156169D01*
X41469Y156890D01*
X41732Y157874D01*
Y252362D02*
X41469Y253346D01*
X40748Y254067D01*
X39764Y254331D01*
X38780Y254067D01*
X38059Y253346D01*
X37795Y252362D01*
X38059Y251378D01*
X38780Y250657D01*
X39764Y250394D01*
X40748Y250657D01*
X41469Y251378D01*
X41732Y252362D01*
Y110630D02*
X41469Y111614D01*
X40748Y112335D01*
X39764Y112598D01*
X38780Y112335D01*
X38059Y111614D01*
X37795Y110630D01*
X38059Y109646D01*
X38780Y108925D01*
X39764Y108661D01*
X40748Y108925D01*
X41469Y109646D01*
X41732Y110630D01*
Y205118D02*
X41469Y206102D01*
X40748Y206823D01*
X39764Y207087D01*
X38780Y206823D01*
X38059Y206102D01*
X37795Y205118D01*
X38059Y204134D01*
X38780Y203413D01*
X39764Y203150D01*
X40748Y203413D01*
X41469Y204134D01*
X41732Y205118D01*
Y63386D02*
X41469Y64370D01*
X40748Y65091D01*
X39764Y65354D01*
X38780Y65091D01*
X38059Y64370D01*
X37795Y63386D01*
X38059Y62402D01*
X38780Y61681D01*
X39764Y61417D01*
X40748Y61681D01*
X41469Y62402D01*
X41732Y63386D01*
X106004Y250886D02*
Y257776D01*
Y250886D02*
X109744D01*
X106004Y257776D02*
X109744D01*
Y250886D02*
Y257776D01*
X98917Y250886D02*
Y257776D01*
Y250886D02*
X102657D01*
X98917Y257776D02*
X102657D01*
Y250886D02*
Y257776D01*
X122539Y195768D02*
Y202658D01*
Y195768D02*
X126279D01*
X122539Y202658D02*
X126279D01*
Y195768D02*
Y202658D01*
X115453Y195768D02*
Y202658D01*
Y195768D02*
X119193D01*
X115453Y202658D02*
X119193D01*
Y195768D02*
Y202658D01*
X111811Y181102D02*
Y187992D01*
Y181102D02*
X115551D01*
X111811Y187992D02*
X115551D01*
Y181102D02*
Y187992D01*
X103366Y181232D02*
Y188122D01*
Y181232D02*
X107106D01*
X103366Y188122D02*
X107106D01*
Y181232D02*
Y188122D01*
X122343Y87894D02*
Y94784D01*
X118602D02*
X122343D01*
X118602Y87894D02*
X122343D01*
X118602D02*
Y94784D01*
X131004Y87894D02*
Y94784D01*
X127264D02*
X131004D01*
X127264Y87894D02*
X131004D01*
X127264D02*
Y94784D01*
X192126Y320472D02*
Y322047D01*
X191339Y322835D02*
X192126Y322047D01*
X185827Y322835D02*
X191339D01*
Y319685D02*
X192126Y320472D01*
X185827Y319685D02*
X191339D01*
X185827D02*
Y322835D01*
X166634Y319390D02*
X173524D01*
Y323130D01*
X166634Y319390D02*
Y323130D01*
X173524D01*
X122343Y107579D02*
Y114469D01*
X118602D02*
X122343D01*
X118602Y107579D02*
X122343D01*
X118602D02*
Y114469D01*
X178445Y167421D02*
Y174311D01*
Y167421D02*
X182185D01*
X178445Y174311D02*
X182185D01*
Y167421D02*
Y174311D01*
X182185Y198720D02*
X191043D01*
X182185Y193406D02*
X191043D01*
Y198720D01*
X182185Y193406D02*
Y198720D01*
X172933Y242815D02*
X179823D01*
X172933Y239075D02*
Y242815D01*
X179823Y239075D02*
Y242815D01*
X172933Y239075D02*
X179823D01*
X172146Y186122D02*
X179035D01*
X172146Y182382D02*
Y186122D01*
X179035Y182382D02*
Y186122D01*
X172146Y182382D02*
X179035D01*
X86319Y30413D02*
Y37303D01*
X90059Y30413D02*
Y37303D01*
X86319Y30413D02*
X90059D01*
X86319Y37303D02*
X90059D01*
X109941Y35138D02*
Y42028D01*
X113681Y35138D02*
Y42028D01*
X109941Y35138D02*
X113681D01*
X109941Y42028D02*
X113681D01*
X150689Y6791D02*
Y13681D01*
X146949Y6791D02*
Y13681D01*
X150689D01*
X146949Y6791D02*
X150689D01*
X3937Y161417D02*
X43307D01*
X3937Y145669D02*
X43307D01*
X3937D02*
Y161417D01*
X43307Y145669D02*
Y161417D01*
X3937Y255906D02*
X43307D01*
X3937Y240158D02*
X43307D01*
X3937D02*
Y255906D01*
X43307Y240158D02*
Y255906D01*
X3937Y114173D02*
X43307D01*
X3937Y98425D02*
X43307D01*
X3937D02*
Y114173D01*
X43307Y98425D02*
Y114173D01*
X120571Y379272D02*
X127461D01*
Y383012D01*
X120571Y379272D02*
Y383012D01*
X127461D01*
X120571Y375138D02*
X127461D01*
X120571Y371398D02*
Y375138D01*
X127461Y371398D02*
Y375138D01*
X120571Y371398D02*
X127461D01*
X111122Y372185D02*
Y379075D01*
Y372185D02*
X114862D01*
X111122Y379075D02*
X114862D01*
Y372185D02*
Y379075D01*
X104035Y372185D02*
Y379075D01*
Y372185D02*
X107776D01*
X104035Y379075D02*
X107776D01*
Y372185D02*
Y379075D01*
X120571Y390098D02*
X127461D01*
X120571Y386358D02*
X127461D01*
X120571D02*
Y390098D01*
X127461Y386358D02*
Y390098D01*
X131595Y358799D02*
Y365689D01*
X135335Y358799D02*
Y365689D01*
X131595Y358799D02*
X135335D01*
X131595Y365689D02*
X135335D01*
X126083Y320216D02*
X132973D01*
X126083Y323957D02*
X132973D01*
Y320216D02*
Y323957D01*
X126083Y320216D02*
Y323957D01*
Y326516D02*
X132973D01*
X126083Y330256D02*
X132973D01*
Y326516D02*
Y330256D01*
X126083Y326516D02*
Y330256D01*
X126870Y343799D02*
X133760D01*
Y347539D01*
X126870Y343799D02*
Y347539D01*
X133760D01*
X126870Y335925D02*
X133760D01*
Y339665D01*
X126870Y335925D02*
Y339665D01*
X133760D01*
X46949Y339390D02*
Y346280D01*
X43209D02*
X46949D01*
X43209Y339390D02*
X46949D01*
X43209D02*
Y346280D01*
X50689Y339390D02*
Y346280D01*
Y339390D02*
X54429D01*
X50689Y346280D02*
X54429D01*
Y339390D02*
Y346280D01*
X80610Y344587D02*
Y351476D01*
X76870D02*
X80610D01*
X76870Y344587D02*
X80610D01*
X76870D02*
Y351476D01*
X83957Y344587D02*
Y351476D01*
Y344587D02*
X87697D01*
X83957Y351476D02*
X87697D01*
Y344587D02*
Y351476D01*
X30020Y346083D02*
X33760D01*
X30020Y339193D02*
X33760D01*
Y346083D01*
X30020Y339193D02*
Y346083D01*
X71949Y336831D02*
Y340571D01*
X65059Y336831D02*
Y340571D01*
Y336831D02*
X71949D01*
X65059Y340571D02*
X71949D01*
X35925Y346083D02*
X39665D01*
X35925Y339193D02*
X39665D01*
Y346083D01*
X35925Y339193D02*
Y346083D01*
X43307Y192913D02*
Y208661D01*
X3937Y192913D02*
Y208661D01*
Y192913D02*
X43307D01*
X3937Y208661D02*
X43307D01*
X92815Y298642D02*
Y305532D01*
X89075D02*
X92815D01*
X89075Y298642D02*
X92815D01*
X89075D02*
Y305532D01*
X89370Y284764D02*
X92520D01*
X89370Y279253D02*
Y284764D01*
Y279253D02*
X90157Y278465D01*
X92520Y279253D02*
Y284764D01*
X91732Y278465D02*
X92520Y279253D01*
X90157Y278465D02*
X91732D01*
X43307Y51181D02*
Y66929D01*
X3937Y51181D02*
Y66929D01*
Y51181D02*
X43307D01*
X3937Y66929D02*
X43307D01*
D92*
X190359Y197741D02*
X189759D01*
X190359D01*
D93*
X183415Y198720D02*
Y200984D01*
X184695D01*
Y198720D02*
Y200984D01*
X185974Y198720D02*
Y200984D01*
X187254D01*
Y198720D02*
Y200984D01*
X188533Y198720D02*
Y200984D01*
X189813D01*
Y198720D02*
Y200984D01*
Y191142D02*
Y193406D01*
X188533Y191142D02*
X189813D01*
X188533D02*
Y193406D01*
X184695Y191142D02*
Y193406D01*
X183415Y191142D02*
X184695D01*
X183415D02*
Y193406D01*
M02*
