G04*
G04 #@! TF.GenerationSoftware,Altium Limited,Altium Designer,21.7.2 (23)*
G04*
G04 Layer_Physical_Order=2*
G04 Layer_Color=36540*
%FSLAX25Y25*%
%MOIN*%
G70*
G04*
G04 #@! TF.SameCoordinates,50D7799F-02FE-4AD0-AE3F-70EE2030EBF6*
G04*
G04*
G04 #@! TF.FilePolarity,Positive*
G04*
G01*
G75*
%ADD16C,0.00787*%
%ADD17C,0.01000*%
%ADD74C,0.10925*%
%ADD75C,0.06000*%
%ADD76C,0.01772*%
G36*
X195276Y387402D02*
X195276Y63574D01*
X194889Y63257D01*
X194783Y63278D01*
X194131Y63148D01*
X193577Y62778D01*
X193207Y62225D01*
X193078Y61572D01*
X193207Y60919D01*
X193577Y60366D01*
X194131Y59996D01*
X194783Y59866D01*
X194889Y59887D01*
X195276Y59570D01*
Y8661D01*
X188976Y2362D01*
X151095D01*
X150859Y2650D01*
X146779D01*
X146543Y2362D01*
X9449Y2362D01*
X1575Y10236D01*
X1575Y388189D01*
X5512Y392126D01*
X131142Y392126D01*
X131192Y391626D01*
X130760Y391540D01*
X130137Y391123D01*
X129720Y390500D01*
X129673Y390264D01*
X133319D01*
X133273Y390500D01*
X132856Y391123D01*
X132232Y391540D01*
X131801Y391626D01*
X131850Y392126D01*
X190551D01*
X195276Y387402D01*
D02*
G37*
%LPC*%
G36*
X133319Y389264D02*
X131996D01*
Y387941D01*
X132232Y387987D01*
X132856Y388404D01*
X133273Y389028D01*
X133319Y389264D01*
D02*
G37*
G36*
X130996D02*
X129673D01*
X129720Y389028D01*
X130137Y388404D01*
X130760Y387987D01*
X130996Y387941D01*
Y389264D01*
D02*
G37*
G36*
X24685Y383899D02*
X23696Y383769D01*
X22775Y383387D01*
X21984Y382780D01*
X21377Y381989D01*
X20995Y381067D01*
X20865Y380079D01*
X20995Y379090D01*
X21377Y378169D01*
X21984Y377378D01*
X22775Y376770D01*
X23696Y376389D01*
X24685Y376259D01*
X25674Y376389D01*
X26595Y376770D01*
X27386Y377378D01*
X27993Y378169D01*
X28375Y379090D01*
X28505Y380079D01*
X28375Y381067D01*
X27993Y381989D01*
X27386Y382780D01*
X26595Y383387D01*
X25674Y383769D01*
X24685Y383899D01*
D02*
G37*
G36*
X14685D02*
X13696Y383769D01*
X12775Y383387D01*
X11984Y382780D01*
X11377Y381989D01*
X10995Y381067D01*
X10865Y380079D01*
X10995Y379090D01*
X11377Y378169D01*
X11984Y377378D01*
X12775Y376770D01*
X13696Y376389D01*
X14685Y376259D01*
X15674Y376389D01*
X16595Y376770D01*
X17386Y377378D01*
X17993Y378169D01*
X18375Y379090D01*
X18505Y380079D01*
X18375Y381067D01*
X17993Y381989D01*
X17386Y382780D01*
X16595Y383387D01*
X15674Y383769D01*
X14685Y383899D01*
D02*
G37*
G36*
X61130Y370327D02*
Y369004D01*
X62453D01*
X62406Y369240D01*
X61989Y369864D01*
X61366Y370280D01*
X61130Y370327D01*
D02*
G37*
G36*
X60130D02*
X59894Y370280D01*
X59270Y369864D01*
X58854Y369240D01*
X58807Y369004D01*
X60130D01*
Y370327D01*
D02*
G37*
G36*
X62453Y368004D02*
X61130D01*
Y366681D01*
X61366Y366727D01*
X61989Y367144D01*
X62406Y367768D01*
X62453Y368004D01*
D02*
G37*
G36*
X60130D02*
X58807D01*
X58854Y367768D01*
X59270Y367144D01*
X59894Y366727D01*
X60130Y366681D01*
Y368004D01*
D02*
G37*
G36*
X24685Y373899D02*
X23696Y373769D01*
X22775Y373387D01*
X21984Y372780D01*
X21377Y371989D01*
X20995Y371068D01*
X20865Y370079D01*
X20995Y369090D01*
X21377Y368169D01*
X21984Y367377D01*
X22775Y366770D01*
X23696Y366389D01*
X24685Y366259D01*
X25674Y366389D01*
X26595Y366770D01*
X27386Y367377D01*
X27993Y368169D01*
X28375Y369090D01*
X28505Y370079D01*
X28375Y371068D01*
X27993Y371989D01*
X27386Y372780D01*
X26595Y373387D01*
X25674Y373769D01*
X24685Y373899D01*
D02*
G37*
G36*
X14685D02*
X13696Y373769D01*
X12775Y373387D01*
X11984Y372780D01*
X11377Y371989D01*
X10995Y371068D01*
X10865Y370079D01*
X10995Y369090D01*
X11377Y368169D01*
X11984Y367377D01*
X12775Y366770D01*
X13696Y366389D01*
X14685Y366259D01*
X15674Y366389D01*
X16595Y366770D01*
X17386Y367377D01*
X17993Y368169D01*
X18375Y369090D01*
X18505Y370079D01*
X18375Y371068D01*
X17993Y371989D01*
X17386Y372780D01*
X16595Y373387D01*
X15674Y373769D01*
X14685Y373899D01*
D02*
G37*
G36*
X61130Y365603D02*
Y364280D01*
X62453D01*
X62406Y364515D01*
X61989Y365139D01*
X61366Y365556D01*
X61130Y365603D01*
D02*
G37*
G36*
X60130D02*
X59894Y365556D01*
X59270Y365139D01*
X58854Y364515D01*
X58807Y364280D01*
X60130D01*
Y365603D01*
D02*
G37*
G36*
X62453Y363280D02*
X61130D01*
Y361956D01*
X61366Y362003D01*
X61989Y362420D01*
X62406Y363044D01*
X62453Y363280D01*
D02*
G37*
G36*
X60130D02*
X58807D01*
X58854Y363044D01*
X59270Y362420D01*
X59894Y362003D01*
X60130Y361956D01*
Y363280D01*
D02*
G37*
G36*
X25185Y364047D02*
Y360579D01*
X28654D01*
X28582Y361123D01*
X28179Y362096D01*
X27538Y362932D01*
X26702Y363573D01*
X25729Y363976D01*
X25185Y364047D01*
D02*
G37*
G36*
X15185D02*
Y360579D01*
X18654D01*
X18582Y361123D01*
X18179Y362096D01*
X17538Y362932D01*
X16702Y363573D01*
X15729Y363976D01*
X15185Y364047D01*
D02*
G37*
G36*
X24185Y364047D02*
X23641Y363976D01*
X22668Y363573D01*
X21832Y362932D01*
X21191Y362096D01*
X20788Y361123D01*
X20716Y360579D01*
X24185D01*
Y364047D01*
D02*
G37*
G36*
X14185D02*
X13641Y363976D01*
X12668Y363573D01*
X11832Y362932D01*
X11191Y362096D01*
X10788Y361123D01*
X10716Y360579D01*
X14185D01*
Y364047D01*
D02*
G37*
G36*
X86614Y359974D02*
X85961Y359844D01*
X85408Y359474D01*
X85038Y358921D01*
X84921Y358333D01*
X84686Y358165D01*
X84441Y358053D01*
X84117Y358269D01*
X83465Y358399D01*
X82812Y358269D01*
X82488Y358053D01*
X82244Y358165D01*
X82008Y358333D01*
X81891Y358921D01*
X81521Y359474D01*
X80968Y359844D01*
X80315Y359974D01*
X79662Y359844D01*
X79109Y359474D01*
X78739Y358921D01*
X78609Y358268D01*
X78739Y357615D01*
X79109Y357061D01*
X79662Y356692D01*
X80315Y356562D01*
X80968Y356692D01*
X81292Y356908D01*
X81536Y356795D01*
X81772Y356627D01*
X81888Y356040D01*
X82258Y355487D01*
X82812Y355117D01*
X83465Y354987D01*
X84117Y355117D01*
X84671Y355487D01*
X85041Y356040D01*
X85158Y356627D01*
X85393Y356795D01*
X85638Y356908D01*
X85961Y356692D01*
X86614Y356562D01*
X87267Y356692D01*
X87821Y357061D01*
X88190Y357615D01*
X88320Y358268D01*
X88190Y358921D01*
X87821Y359474D01*
X87267Y359844D01*
X86614Y359974D01*
D02*
G37*
G36*
X166642Y359304D02*
Y357980D01*
X167965D01*
X167918Y358216D01*
X167501Y358840D01*
X166877Y359257D01*
X166642Y359304D01*
D02*
G37*
G36*
X165642D02*
X165406Y359257D01*
X164782Y358840D01*
X164365Y358216D01*
X164318Y357980D01*
X165642D01*
Y359304D01*
D02*
G37*
G36*
X61130Y359304D02*
Y357980D01*
X62453D01*
X62406Y358216D01*
X61989Y358840D01*
X61366Y359257D01*
X61130Y359304D01*
D02*
G37*
G36*
X60130D02*
X59894Y359257D01*
X59270Y358840D01*
X58854Y358216D01*
X58807Y357980D01*
X60130D01*
Y359304D01*
D02*
G37*
G36*
X96850Y359974D02*
X96197Y359844D01*
X95644Y359474D01*
X95274Y358921D01*
X95144Y358268D01*
X95274Y357615D01*
X95644Y357061D01*
X96197Y356692D01*
X96850Y356562D01*
X97503Y356692D01*
X98057Y357061D01*
X98427Y357615D01*
X98556Y358268D01*
X98427Y358921D01*
X98057Y359474D01*
X97503Y359844D01*
X96850Y359974D01*
D02*
G37*
G36*
X92126D02*
X91473Y359844D01*
X90920Y359474D01*
X90550Y358921D01*
X90420Y358268D01*
X90550Y357615D01*
X90920Y357061D01*
X91473Y356692D01*
X92126Y356562D01*
X92779Y356692D01*
X93332Y357061D01*
X93702Y357615D01*
X93832Y358268D01*
X93702Y358921D01*
X93332Y359474D01*
X92779Y359844D01*
X92126Y359974D01*
D02*
G37*
G36*
X28654Y359579D02*
X25185D01*
Y356110D01*
X25729Y356182D01*
X26702Y356585D01*
X27538Y357226D01*
X28179Y358062D01*
X28582Y359034D01*
X28654Y359579D01*
D02*
G37*
G36*
X18654D02*
X15185D01*
Y356110D01*
X15729Y356182D01*
X16702Y356585D01*
X17538Y357226D01*
X18179Y358062D01*
X18582Y359034D01*
X18654Y359579D01*
D02*
G37*
G36*
X24185D02*
X20716D01*
X20788Y359034D01*
X21191Y358062D01*
X21832Y357226D01*
X22668Y356585D01*
X23641Y356182D01*
X24185Y356110D01*
Y359579D01*
D02*
G37*
G36*
X14185D02*
X10716D01*
X10788Y359034D01*
X11191Y358062D01*
X11832Y357226D01*
X12668Y356585D01*
X13641Y356182D01*
X14185Y356110D01*
Y359579D01*
D02*
G37*
G36*
X167965Y356980D02*
X166642D01*
Y355657D01*
X166877Y355704D01*
X167501Y356121D01*
X167918Y356745D01*
X167965Y356980D01*
D02*
G37*
G36*
X165642D02*
X164318D01*
X164365Y356745D01*
X164782Y356121D01*
X165406Y355704D01*
X165642Y355657D01*
Y356980D01*
D02*
G37*
G36*
X62453Y356980D02*
X61130D01*
Y355657D01*
X61366Y355704D01*
X61989Y356121D01*
X62406Y356745D01*
X62453Y356980D01*
D02*
G37*
G36*
X60130D02*
X58807D01*
X58854Y356745D01*
X59270Y356121D01*
X59894Y355704D01*
X60130Y355657D01*
Y356980D01*
D02*
G37*
G36*
X163492Y356154D02*
Y354831D01*
X164815D01*
X164769Y355066D01*
X164352Y355690D01*
X163728Y356107D01*
X163492Y356154D01*
D02*
G37*
G36*
X162492D02*
X162256Y356107D01*
X161633Y355690D01*
X161216Y355066D01*
X161169Y354831D01*
X162492D01*
Y356154D01*
D02*
G37*
G36*
X120185D02*
Y354831D01*
X121508D01*
X121461Y355066D01*
X121045Y355690D01*
X120421Y356107D01*
X120185Y356154D01*
D02*
G37*
G36*
X119185D02*
X118949Y356107D01*
X118325Y355690D01*
X117909Y355066D01*
X117862Y354831D01*
X119185D01*
Y356154D01*
D02*
G37*
G36*
X112311D02*
Y354831D01*
X113634D01*
X113587Y355066D01*
X113171Y355690D01*
X112547Y356107D01*
X112311Y356154D01*
D02*
G37*
G36*
X111311D02*
X111075Y356107D01*
X110451Y355690D01*
X110035Y355066D01*
X109988Y354831D01*
X111311D01*
Y356154D01*
D02*
G37*
G36*
Y353831D02*
X109988D01*
X110035Y353595D01*
X109627Y353328D01*
X109003Y353745D01*
X108768Y353792D01*
Y352468D01*
X110091D01*
X110044Y352704D01*
X110451Y352971D01*
X111075Y352554D01*
X111311Y352507D01*
Y353831D01*
D02*
G37*
G36*
X96850Y356037D02*
X96197Y355907D01*
X95644Y355537D01*
X95274Y354984D01*
X95144Y354331D01*
X95274Y353678D01*
X95644Y353124D01*
X96197Y352755D01*
X96850Y352625D01*
X97503Y352755D01*
X98057Y353124D01*
X98427Y353678D01*
X98556Y354331D01*
X98427Y354984D01*
X98057Y355537D01*
X97503Y355907D01*
X96850Y356037D01*
D02*
G37*
G36*
X90551D02*
X89898Y355907D01*
X89345Y355537D01*
X88975Y354984D01*
X88845Y354331D01*
X88975Y353678D01*
X89345Y353124D01*
X89898Y352755D01*
X90551Y352625D01*
X91204Y352755D01*
X91758Y353124D01*
X92127Y353678D01*
X92257Y354331D01*
X92127Y354984D01*
X91758Y355537D01*
X91204Y355907D01*
X90551Y356037D01*
D02*
G37*
G36*
X46457Y355958D02*
X45804Y355828D01*
X45250Y355459D01*
X44881Y354905D01*
X44751Y354252D01*
X44881Y353600D01*
X45250Y353046D01*
X45804Y352676D01*
X46457Y352546D01*
X47110Y352676D01*
X47663Y353046D01*
X48033Y353600D01*
X48163Y354252D01*
X48033Y354905D01*
X47663Y355459D01*
X47110Y355828D01*
X46457Y355958D01*
D02*
G37*
G36*
X121508Y353831D02*
X120185D01*
Y352507D01*
X120421Y352554D01*
X121045Y352971D01*
X121461Y353595D01*
X121508Y353831D01*
D02*
G37*
G36*
X119185D02*
X117862D01*
X117909Y353595D01*
X118325Y352971D01*
X118949Y352554D01*
X119185Y352507D01*
Y353831D01*
D02*
G37*
G36*
X113634D02*
X112311D01*
Y352507D01*
X112547Y352554D01*
X113171Y352971D01*
X113587Y353595D01*
X113634Y353831D01*
D02*
G37*
G36*
X107768Y353792D02*
X107532Y353745D01*
X106908Y353328D01*
X106491Y352704D01*
X106444Y352468D01*
X107768D01*
Y353792D01*
D02*
G37*
G36*
X63492D02*
Y352468D01*
X64815D01*
X64768Y352704D01*
X64352Y353328D01*
X63728Y353745D01*
X63492Y353792D01*
D02*
G37*
G36*
X62492D02*
X62256Y353745D01*
X61633Y353328D01*
X61216Y352704D01*
X61169Y352468D01*
X62492D01*
Y353792D01*
D02*
G37*
G36*
X116248Y353004D02*
Y351681D01*
X117571D01*
X117524Y351917D01*
X117108Y352541D01*
X116484Y352958D01*
X116248Y353004D01*
D02*
G37*
G36*
X115248D02*
X115012Y352958D01*
X114388Y352541D01*
X113972Y351917D01*
X113925Y351681D01*
X115248D01*
Y353004D01*
D02*
G37*
G36*
X164815Y353831D02*
X161169D01*
X161216Y353595D01*
X161633Y352971D01*
X162256Y352554D01*
X162613Y352483D01*
X162718Y351953D01*
X162420Y351753D01*
X162003Y351130D01*
X161956Y350894D01*
X165603D01*
X165556Y351130D01*
X165139Y351753D01*
X164515Y352170D01*
X164159Y352241D01*
X164053Y352772D01*
X164352Y352971D01*
X164769Y353595D01*
X164815Y353831D01*
D02*
G37*
G36*
X110091Y351468D02*
X108768D01*
Y350145D01*
X109003Y350192D01*
X109627Y350609D01*
X110044Y351233D01*
X110091Y351468D01*
D02*
G37*
G36*
X107768D02*
X106444D01*
X106491Y351233D01*
X106908Y350609D01*
X107532Y350192D01*
X107768Y350145D01*
Y351468D01*
D02*
G37*
G36*
X64815D02*
X63492D01*
Y350145D01*
X63728Y350192D01*
X64352Y350609D01*
X64768Y351233D01*
X64815Y351468D01*
D02*
G37*
G36*
X62492D02*
X61169D01*
X61216Y351233D01*
X61633Y350609D01*
X62256Y350192D01*
X62492Y350145D01*
Y351468D01*
D02*
G37*
G36*
X117571Y350681D02*
X116248D01*
Y349358D01*
X116484Y349405D01*
X117108Y349821D01*
X117524Y350445D01*
X117571Y350681D01*
D02*
G37*
G36*
X115248D02*
X113925D01*
X113972Y350445D01*
X114388Y349821D01*
X115012Y349405D01*
X115248Y349358D01*
Y350681D01*
D02*
G37*
G36*
X91051Y350642D02*
Y349319D01*
X92374D01*
X92328Y349555D01*
X91911Y350179D01*
X91287Y350595D01*
X91051Y350642D01*
D02*
G37*
G36*
X90051D02*
X89815Y350595D01*
X89192Y350179D01*
X88775Y349555D01*
X88728Y349319D01*
X90051D01*
Y350642D01*
D02*
G37*
G36*
X165603Y349894D02*
X164279D01*
Y348570D01*
X164515Y348617D01*
X165139Y349034D01*
X165556Y349658D01*
X165603Y349894D01*
D02*
G37*
G36*
X163279D02*
X161956D01*
X162003Y349658D01*
X162420Y349034D01*
X163044Y348617D01*
X163279Y348570D01*
Y349894D01*
D02*
G37*
G36*
X56693Y350525D02*
X56040Y350395D01*
X55487Y350025D01*
X55117Y349472D01*
X54987Y348819D01*
X55117Y348166D01*
X55487Y347613D01*
X56040Y347243D01*
X56693Y347113D01*
X57346Y347243D01*
X57899Y347613D01*
X58269Y348166D01*
X58399Y348819D01*
X58269Y349472D01*
X57899Y350025D01*
X57346Y350395D01*
X56693Y350525D01*
D02*
G37*
G36*
X92374Y348319D02*
X91051D01*
Y346996D01*
X91287Y347042D01*
X91911Y347459D01*
X92328Y348083D01*
X92374Y348319D01*
D02*
G37*
G36*
X90051D02*
X88728D01*
X88775Y348083D01*
X89192Y347459D01*
X89815Y347042D01*
X90051Y346996D01*
Y348319D01*
D02*
G37*
G36*
X185539Y345918D02*
Y344595D01*
X186863D01*
X186816Y344830D01*
X186399Y345454D01*
X185775Y345871D01*
X185539Y345918D01*
D02*
G37*
G36*
X184539D02*
X184304Y345871D01*
X183680Y345454D01*
X183263Y344830D01*
X183216Y344595D01*
X184539D01*
Y345918D01*
D02*
G37*
G36*
X186863Y343595D02*
X185539D01*
Y342271D01*
X185775Y342318D01*
X186399Y342735D01*
X186816Y343359D01*
X186863Y343595D01*
D02*
G37*
G36*
X184539D02*
X183216D01*
X183263Y343359D01*
X183680Y342735D01*
X184304Y342318D01*
X184539Y342271D01*
Y343595D01*
D02*
G37*
G36*
X182390Y342768D02*
Y341445D01*
X183713D01*
X183666Y341681D01*
X183249Y342304D01*
X182626Y342721D01*
X182390Y342768D01*
D02*
G37*
G36*
X181390D02*
X181154Y342721D01*
X180530Y342304D01*
X180113Y341681D01*
X180067Y341445D01*
X181390D01*
Y342768D01*
D02*
G37*
G36*
X189476Y341193D02*
Y339870D01*
X190800D01*
X190753Y340106D01*
X190336Y340730D01*
X189712Y341146D01*
X189476Y341193D01*
D02*
G37*
G36*
X188476D02*
X188241Y341146D01*
X187617Y340730D01*
X187200Y340106D01*
X187153Y339870D01*
X188476D01*
Y341193D01*
D02*
G37*
G36*
X183713Y340445D02*
X182390D01*
Y339122D01*
X182626Y339169D01*
X183249Y339585D01*
X183666Y340209D01*
X183713Y340445D01*
D02*
G37*
G36*
X181390D02*
X180067D01*
X180113Y340209D01*
X180530Y339585D01*
X181154Y339169D01*
X181390Y339122D01*
Y340445D01*
D02*
G37*
G36*
X190800Y338870D02*
X189476D01*
Y337547D01*
X189712Y337594D01*
X190336Y338011D01*
X190753Y338634D01*
X190800Y338870D01*
D02*
G37*
G36*
X188476D02*
X187153D01*
X187200Y338634D01*
X187617Y338011D01*
X188241Y337594D01*
X188476Y337547D01*
Y338870D01*
D02*
G37*
G36*
X127756Y352690D02*
X127103Y352560D01*
X126550Y352190D01*
X126180Y351637D01*
X126087Y351172D01*
X119544Y344629D01*
X119260Y344203D01*
X119160Y343701D01*
Y329394D01*
X118896Y328999D01*
X118766Y328346D01*
X118896Y327694D01*
X119266Y327140D01*
X119820Y326770D01*
X120472Y326641D01*
X121125Y326770D01*
X121679Y327140D01*
X122049Y327694D01*
X122178Y328346D01*
X122049Y328999D01*
X121785Y329394D01*
Y343157D01*
X127944Y349316D01*
X128409Y349408D01*
X128962Y349778D01*
X129332Y350331D01*
X129462Y350984D01*
X129332Y351637D01*
X128962Y352190D01*
X128409Y352560D01*
X127756Y352690D01*
D02*
G37*
G36*
X192626Y316784D02*
Y315461D01*
X193949D01*
X193902Y315697D01*
X193486Y316320D01*
X192862Y316737D01*
X192626Y316784D01*
D02*
G37*
G36*
X191626D02*
X191390Y316737D01*
X190766Y316320D01*
X190350Y315697D01*
X190303Y315461D01*
X191626D01*
Y316784D01*
D02*
G37*
G36*
X91051Y315209D02*
Y313886D01*
X92374D01*
X92328Y314122D01*
X91911Y314745D01*
X91287Y315162D01*
X91051Y315209D01*
D02*
G37*
G36*
X90051D02*
X89815Y315162D01*
X89192Y314745D01*
X88775Y314122D01*
X88728Y313886D01*
X90051D01*
Y315209D01*
D02*
G37*
G36*
X193949Y314461D02*
X192626D01*
Y313137D01*
X192862Y313184D01*
X193486Y313601D01*
X193902Y314225D01*
X193949Y314461D01*
D02*
G37*
G36*
X191626D02*
X190303D01*
X190350Y314225D01*
X190766Y313601D01*
X191390Y313184D01*
X191626Y313137D01*
Y314461D01*
D02*
G37*
G36*
X92374Y312886D02*
X91051D01*
Y311562D01*
X91287Y311609D01*
X91911Y312026D01*
X92328Y312650D01*
X92374Y312886D01*
D02*
G37*
G36*
X90051D02*
X88728D01*
X88775Y312650D01*
X89192Y312026D01*
X89815Y311609D01*
X90051Y311562D01*
Y312886D01*
D02*
G37*
G36*
X64280Y308910D02*
Y307587D01*
X65603D01*
X65556Y307822D01*
X65139Y308446D01*
X64515Y308863D01*
X64280Y308910D01*
D02*
G37*
G36*
X63279D02*
X63044Y308863D01*
X62420Y308446D01*
X62003Y307822D01*
X61956Y307587D01*
X63279D01*
Y308910D01*
D02*
G37*
G36*
X65603Y306587D02*
X64280D01*
Y305263D01*
X64515Y305310D01*
X65139Y305727D01*
X65556Y306351D01*
X65603Y306587D01*
D02*
G37*
G36*
X63279D02*
X61956D01*
X62003Y306351D01*
X62420Y305727D01*
X63044Y305310D01*
X63279Y305263D01*
Y306587D01*
D02*
G37*
G36*
X71366Y306548D02*
Y305224D01*
X72689D01*
X72643Y305460D01*
X72226Y306084D01*
X71602Y306501D01*
X71366Y306548D01*
D02*
G37*
G36*
X70366D02*
X70130Y306501D01*
X69507Y306084D01*
X69090Y305460D01*
X69043Y305224D01*
X70366D01*
Y306548D01*
D02*
G37*
G36*
X57193D02*
Y305224D01*
X58516D01*
X58469Y305460D01*
X58052Y306084D01*
X57429Y306501D01*
X57193Y306548D01*
D02*
G37*
G36*
X56193D02*
X55957Y306501D01*
X55333Y306084D01*
X54917Y305460D01*
X54870Y305224D01*
X56193D01*
Y306548D01*
D02*
G37*
G36*
X72689Y304224D02*
X71366D01*
Y302901D01*
X71602Y302948D01*
X72226Y303365D01*
X72643Y303989D01*
X72689Y304224D01*
D02*
G37*
G36*
X70366D02*
X69043D01*
X69090Y303989D01*
X69507Y303365D01*
X70130Y302948D01*
X70366Y302901D01*
Y304224D01*
D02*
G37*
G36*
X58516D02*
X57193D01*
Y302901D01*
X57429Y302948D01*
X58052Y303365D01*
X58469Y303989D01*
X58516Y304224D01*
D02*
G37*
G36*
X56193D02*
X54870D01*
X54917Y303989D01*
X55333Y303365D01*
X55957Y302948D01*
X56193Y302901D01*
Y304224D01*
D02*
G37*
G36*
X63492Y298792D02*
Y297469D01*
X64815D01*
X64768Y297705D01*
X64352Y298329D01*
X63728Y298745D01*
X63492Y298792D01*
D02*
G37*
G36*
X62492D02*
X62256Y298745D01*
X61632Y298329D01*
X61216Y297705D01*
X61169Y297469D01*
X62492D01*
Y298792D01*
D02*
G37*
G36*
X64815Y296469D02*
X63492D01*
Y295146D01*
X63728Y295193D01*
X64352Y295609D01*
X64768Y296233D01*
X64815Y296469D01*
D02*
G37*
G36*
X62492D02*
X61169D01*
X61216Y296233D01*
X61632Y295609D01*
X62256Y295193D01*
X62492Y295146D01*
Y296469D01*
D02*
G37*
G36*
X71366Y294737D02*
Y293413D01*
X72689D01*
X72643Y293649D01*
X72226Y294273D01*
X71602Y294690D01*
X71366Y294737D01*
D02*
G37*
G36*
X70366D02*
X70130Y294690D01*
X69507Y294273D01*
X69090Y293649D01*
X69043Y293413D01*
X70366D01*
Y294737D01*
D02*
G37*
G36*
X56406Y293949D02*
Y292626D01*
X57729D01*
X57682Y292862D01*
X57265Y293486D01*
X56641Y293902D01*
X56406Y293949D01*
D02*
G37*
G36*
X55405D02*
X55170Y293902D01*
X54546Y293486D01*
X54129Y292862D01*
X54082Y292626D01*
X55405D01*
Y293949D01*
D02*
G37*
G36*
X72689Y292413D02*
X71366D01*
Y291090D01*
X71602Y291137D01*
X72226Y291554D01*
X72643Y292178D01*
X72689Y292413D01*
D02*
G37*
G36*
X70366D02*
X69043D01*
X69090Y292178D01*
X69507Y291554D01*
X70130Y291137D01*
X70366Y291090D01*
Y292413D01*
D02*
G37*
G36*
X57729Y291626D02*
X56406D01*
Y290303D01*
X56641Y290350D01*
X57265Y290766D01*
X57682Y291390D01*
X57729Y291626D01*
D02*
G37*
G36*
X55405D02*
X54082D01*
X54129Y291390D01*
X54546Y290766D01*
X55170Y290350D01*
X55405Y290303D01*
Y291626D01*
D02*
G37*
G36*
X65854Y289225D02*
Y287902D01*
X67178D01*
X67131Y288137D01*
X66714Y288761D01*
X66090Y289178D01*
X65854Y289225D01*
D02*
G37*
G36*
X64854D02*
X64618Y289178D01*
X63995Y288761D01*
X63578Y288137D01*
X63531Y287902D01*
X64854D01*
Y289225D01*
D02*
G37*
G36*
X67178Y286902D02*
X65854D01*
Y285578D01*
X66090Y285625D01*
X66714Y286042D01*
X67131Y286666D01*
X67178Y286902D01*
D02*
G37*
G36*
X64854D02*
X63531D01*
X63578Y286666D01*
X63995Y286042D01*
X64618Y285625D01*
X64854Y285578D01*
Y286902D01*
D02*
G37*
G36*
X105709Y293562D02*
X104420Y293393D01*
X103219Y292895D01*
X102188Y292104D01*
X101396Y291073D01*
X100899Y289872D01*
X100729Y288583D01*
X100899Y287294D01*
X101396Y286093D01*
X102188Y285062D01*
X103219Y284270D01*
X104420Y283773D01*
X105709Y283603D01*
X106998Y283773D01*
X108198Y284270D01*
X109230Y285062D01*
X110021Y286093D01*
X110519Y287294D01*
X110688Y288583D01*
X110519Y289872D01*
X110021Y291073D01*
X109230Y292104D01*
X108198Y292895D01*
X106998Y293393D01*
X105709Y293562D01*
D02*
G37*
G36*
X34646Y287657D02*
X33357Y287487D01*
X32156Y286990D01*
X31124Y286198D01*
X30333Y285167D01*
X29836Y283966D01*
X29666Y282677D01*
X29836Y281388D01*
X30333Y280187D01*
X31124Y279156D01*
X32156Y278365D01*
X33357Y277867D01*
X34646Y277698D01*
X35934Y277867D01*
X37135Y278365D01*
X38167Y279156D01*
X38958Y280187D01*
X39456Y281388D01*
X39625Y282677D01*
X39456Y283966D01*
X38958Y285167D01*
X38167Y286198D01*
X37135Y286990D01*
X35934Y287487D01*
X34646Y287657D01*
D02*
G37*
G36*
X156693Y338598D02*
X156386Y338537D01*
X156125Y338363D01*
X156125Y338363D01*
X126204Y308442D01*
X126030Y308181D01*
X125969Y307874D01*
X125969Y276576D01*
X125992Y276461D01*
X126003Y276343D01*
X126022Y276308D01*
X126030Y276269D01*
X126095Y276171D01*
X126151Y276067D01*
X126182Y276042D01*
X126204Y276009D01*
X126302Y275943D01*
X126393Y275869D01*
X126431Y275857D01*
X126464Y275835D01*
X126580Y275812D01*
X126693Y275778D01*
X127193Y275728D01*
X127310Y275740D01*
X127428D01*
X127495Y275734D01*
X127705Y275376D01*
X127483Y274919D01*
X126906Y274804D01*
X126353Y274435D01*
X125983Y273881D01*
X125853Y273228D01*
X125983Y272575D01*
X126353Y272022D01*
X126906Y271652D01*
X127559Y271522D01*
X128212Y271652D01*
X128621Y271925D01*
X129222D01*
X129245Y271906D01*
X129267Y271873D01*
X129365Y271808D01*
X129456Y271733D01*
X129495Y271721D01*
X129528Y271699D01*
X129643Y271676D01*
X129756Y271642D01*
X129796Y271646D01*
X129835Y271638D01*
X153630Y271638D01*
X153669Y271646D01*
X153708Y271642D01*
X153821Y271676D01*
X153937Y271699D01*
X153970Y271721D01*
X154008Y271733D01*
X154099Y271808D01*
X154197Y271873D01*
X154219Y271906D01*
X154243Y271925D01*
X154844D01*
X155253Y271652D01*
X155905Y271522D01*
X156558Y271652D01*
X157112Y272022D01*
X157482Y272575D01*
X157612Y273228D01*
X157482Y273881D01*
X157112Y274435D01*
X156558Y274804D01*
X155982Y274919D01*
X155759Y275376D01*
X155970Y275734D01*
X156036Y275740D01*
X156154D01*
X156272Y275728D01*
X156772Y275778D01*
X156884Y275812D01*
X157000Y275835D01*
X157033Y275857D01*
X157071Y275869D01*
X157162Y275943D01*
X157261Y276009D01*
X157283Y276042D01*
X157314Y276067D01*
X157369Y276171D01*
X157435Y276269D01*
X157442Y276308D01*
X157461Y276344D01*
X157473Y276461D01*
X157496Y276577D01*
Y316990D01*
X172221Y331716D01*
X172395Y331976D01*
X172456Y332283D01*
Y335433D01*
X172456Y335433D01*
X172395Y335740D01*
X172221Y336001D01*
X172221Y336001D01*
X169859Y338363D01*
X169859Y338363D01*
X169599Y338537D01*
X169291Y338598D01*
X156693Y338598D01*
D02*
G37*
G36*
X91839Y275052D02*
Y273728D01*
X93162D01*
X93115Y273964D01*
X92698Y274588D01*
X92074Y275005D01*
X91839Y275052D01*
D02*
G37*
G36*
X90839D02*
X90603Y275005D01*
X89979Y274588D01*
X89562Y273964D01*
X89515Y273728D01*
X90839D01*
Y275052D01*
D02*
G37*
G36*
X93162Y272728D02*
X91839D01*
Y271405D01*
X92074Y271452D01*
X92698Y271869D01*
X93115Y272493D01*
X93162Y272728D01*
D02*
G37*
G36*
X90839D02*
X89515D01*
X89562Y272493D01*
X89979Y271869D01*
X90603Y271452D01*
X90839Y271405D01*
Y272728D01*
D02*
G37*
G36*
X155118Y270210D02*
X154465Y270080D01*
X153912Y269710D01*
X153542Y269157D01*
X153412Y268504D01*
X153542Y267851D01*
X153912Y267298D01*
X154465Y266928D01*
X155118Y266798D01*
X155771Y266928D01*
X156324Y267298D01*
X156694Y267851D01*
X156824Y268504D01*
X156694Y269157D01*
X156324Y269710D01*
X155771Y270080D01*
X155118Y270210D01*
D02*
G37*
G36*
X127559D02*
X126906Y270080D01*
X126353Y269710D01*
X125983Y269157D01*
X125853Y268504D01*
X125983Y267851D01*
X126353Y267298D01*
X126906Y266928D01*
X127559Y266798D01*
X128212Y266928D01*
X128765Y267298D01*
X129135Y267851D01*
X129265Y268504D01*
X129135Y269157D01*
X128765Y269710D01*
X128212Y270080D01*
X127559Y270210D01*
D02*
G37*
G36*
X6799Y267965D02*
Y266642D01*
X8123D01*
X8076Y266878D01*
X7659Y267501D01*
X7035Y267918D01*
X6799Y267965D01*
D02*
G37*
G36*
X5799D02*
X5563Y267918D01*
X4940Y267501D01*
X4523Y266878D01*
X4476Y266642D01*
X5799D01*
Y267965D01*
D02*
G37*
G36*
X8123Y265642D02*
X6799D01*
Y264318D01*
X7035Y264365D01*
X7659Y264782D01*
X8076Y265406D01*
X8123Y265642D01*
D02*
G37*
G36*
X5799D02*
X4476D01*
X4523Y265406D01*
X4940Y264782D01*
X5563Y264365D01*
X5799Y264318D01*
Y265642D01*
D02*
G37*
G36*
X28346Y266273D02*
X27694Y266143D01*
X27140Y265773D01*
X26770Y265220D01*
X26640Y264567D01*
X26770Y263914D01*
X27140Y263361D01*
X27694Y262991D01*
X28346Y262861D01*
X28999Y262991D01*
X29553Y263361D01*
X29923Y263914D01*
X30053Y264567D01*
X29923Y265220D01*
X29553Y265773D01*
X28999Y266143D01*
X28346Y266273D01*
D02*
G37*
G36*
X96104Y258397D02*
X96104Y258397D01*
X44363D01*
X44362Y258397D01*
X43902Y258306D01*
X43511Y258045D01*
X43511Y258044D01*
X32127Y246660D01*
X31866Y246270D01*
X31774Y245809D01*
X31774Y245809D01*
Y244980D01*
X31288Y244883D01*
X30735Y244513D01*
X30365Y243960D01*
X30235Y243307D01*
X30365Y242654D01*
X30735Y242101D01*
X31288Y241731D01*
X31941Y241601D01*
X32594Y241731D01*
X33147Y242101D01*
X33409Y242493D01*
X33437Y242503D01*
X33937Y242503D01*
X33965Y242493D01*
X34227Y242101D01*
X34780Y241731D01*
X35433Y241601D01*
X36086Y241731D01*
X36639Y242101D01*
X37009Y242654D01*
X37139Y243307D01*
X37009Y243960D01*
X36639Y244513D01*
X36204Y244804D01*
X36054Y245361D01*
X45395Y254701D01*
X95072D01*
X117709Y232064D01*
Y178348D01*
X117247Y178157D01*
X109003Y186400D01*
Y214352D01*
X109503Y214619D01*
X109583Y214566D01*
X110236Y214436D01*
X110889Y214566D01*
X111442Y214935D01*
X111812Y215489D01*
X111942Y216142D01*
X111812Y216795D01*
X111442Y217348D01*
X110889Y217718D01*
X110236Y217848D01*
X109583Y217718D01*
X109503Y217665D01*
X109003Y217932D01*
Y225071D01*
X109003Y225071D01*
X108912Y225531D01*
X108651Y225922D01*
X97050Y237523D01*
X96659Y237784D01*
X96198Y237876D01*
X96198Y237876D01*
X94367D01*
X94293Y238375D01*
X95317Y238686D01*
X96403Y239266D01*
X97354Y240047D01*
X98135Y240999D01*
X98716Y242085D01*
X99073Y243263D01*
X99194Y244488D01*
X99073Y245713D01*
X98716Y246891D01*
X98135Y247977D01*
X97354Y248929D01*
X96403Y249710D01*
X95317Y250290D01*
X94139Y250648D01*
X92913Y250768D01*
X91688Y250648D01*
X90510Y250290D01*
X89424Y249710D01*
X88473Y248929D01*
X87691Y247977D01*
X87111Y246891D01*
X86754Y245713D01*
X86633Y244488D01*
X86754Y243263D01*
X87111Y242085D01*
X87691Y240999D01*
X88473Y240047D01*
X89424Y239266D01*
X90510Y238686D01*
X91534Y238375D01*
X91460Y237876D01*
X89558D01*
X82036Y245397D01*
X81646Y245658D01*
X81185Y245749D01*
X81185Y245749D01*
X73880D01*
X73419Y245658D01*
X73029Y245397D01*
X65614Y237982D01*
X63222D01*
X63147Y238482D01*
X63821Y238686D01*
X64906Y239266D01*
X65858Y240047D01*
X66639Y240999D01*
X67220Y242085D01*
X67577Y243263D01*
X67698Y244488D01*
X67577Y245713D01*
X67220Y246891D01*
X66639Y247977D01*
X65858Y248929D01*
X64906Y249710D01*
X63821Y250290D01*
X62643Y250648D01*
X61417Y250768D01*
X60192Y250648D01*
X59014Y250290D01*
X57928Y249710D01*
X56976Y248929D01*
X56195Y247977D01*
X55615Y246891D01*
X55258Y245713D01*
X55137Y244488D01*
X55258Y243263D01*
X55615Y242085D01*
X56195Y240999D01*
X56976Y240047D01*
X57928Y239266D01*
X59014Y238686D01*
X59687Y238482D01*
X59613Y237982D01*
X54101D01*
X54100Y237982D01*
X53640Y237890D01*
X53249Y237629D01*
X53249Y237629D01*
X51117Y235497D01*
X50856Y235106D01*
X50764Y234646D01*
X50764Y234646D01*
Y230420D01*
X49230Y228886D01*
X42014D01*
X41889Y229386D01*
X42328Y229679D01*
X42698Y230233D01*
X42828Y230886D01*
X42698Y231539D01*
X42328Y232092D01*
X41775Y232462D01*
X41122Y232592D01*
X40469Y232462D01*
X39916Y232092D01*
X39546Y231539D01*
X39416Y230886D01*
X39546Y230233D01*
X39916Y229679D01*
X40355Y229386D01*
X40230Y228886D01*
X36342D01*
X15470Y249759D01*
Y250296D01*
X15956Y250392D01*
X16510Y250762D01*
X16879Y251316D01*
X17009Y251969D01*
X16879Y252621D01*
X16510Y253175D01*
X15956Y253545D01*
X15303Y253675D01*
X14650Y253545D01*
X14097Y253175D01*
X13788Y252712D01*
X13398Y252597D01*
X13210Y252584D01*
X12973Y252820D01*
X12770Y252956D01*
X12624Y253175D01*
X12070Y253545D01*
X11417Y253675D01*
X10764Y253545D01*
X10211Y253175D01*
X9841Y252621D01*
X9711Y251969D01*
X9841Y251316D01*
X10211Y250762D01*
X10764Y250392D01*
X11417Y250262D01*
X11774Y249970D01*
Y248726D01*
X11774Y248726D01*
X11866Y248266D01*
X12127Y247875D01*
X34459Y225543D01*
X34849Y225282D01*
X35310Y225190D01*
X35310Y225190D01*
X50262D01*
X50262Y225190D01*
X50723Y225282D01*
X51114Y225543D01*
X54107Y228537D01*
X54107Y228537D01*
X54369Y228927D01*
X54460Y229388D01*
X54460Y229388D01*
Y233614D01*
X55133Y234286D01*
X57535D01*
X57714Y233786D01*
X56976Y233181D01*
X56195Y232229D01*
X55615Y231143D01*
X55258Y229965D01*
X55137Y228740D01*
X55258Y227515D01*
X55615Y226337D01*
X56195Y225251D01*
X56976Y224299D01*
X57928Y223518D01*
X58566Y223178D01*
X58759Y222520D01*
X58727Y222464D01*
X16457D01*
X11032Y227889D01*
X11152Y228476D01*
X11509Y228715D01*
X11879Y229268D01*
X12009Y229921D01*
X11879Y230574D01*
X11509Y231128D01*
X10956Y231497D01*
X10303Y231627D01*
X9650Y231497D01*
X9097Y231128D01*
X8788Y230665D01*
X8398Y230550D01*
X8210Y230536D01*
X8168Y230578D01*
X7801Y231128D01*
X7247Y231497D01*
X6594Y231627D01*
X5942Y231497D01*
X5388Y231128D01*
X5018Y230574D01*
X4888Y229921D01*
X5018Y229268D01*
X5388Y228715D01*
X5942Y228345D01*
X6594Y228215D01*
X6774Y228068D01*
Y227420D01*
X6774Y227419D01*
X6866Y226959D01*
X7127Y226568D01*
X14574Y219121D01*
X14574Y219121D01*
X14965Y218860D01*
X15425Y218768D01*
X15426Y218768D01*
X57936D01*
X58058Y218283D01*
X57928Y218214D01*
X56976Y217433D01*
X56195Y216481D01*
X55615Y215395D01*
X55258Y214217D01*
X55137Y212992D01*
X55258Y211767D01*
X55615Y210589D01*
X56195Y209503D01*
X56976Y208551D01*
X57928Y207770D01*
X58497Y207466D01*
X58372Y206966D01*
X41802D01*
X41802Y206966D01*
X41341Y206874D01*
X40950Y206613D01*
X40950Y206613D01*
X35322Y200985D01*
X35061Y200933D01*
X34670Y200672D01*
X34670Y200672D01*
X32639Y198640D01*
X32378Y198250D01*
X32326Y197989D01*
X29961Y195625D01*
X17543D01*
X17276Y196125D01*
X17324Y196197D01*
X17454Y196850D01*
X17324Y197503D01*
X16954Y198057D01*
X16401Y198426D01*
X15748Y198556D01*
X15095Y198426D01*
X14542Y198057D01*
X14332Y197743D01*
X14271Y197702D01*
X14034Y197465D01*
X13846Y197479D01*
X13456Y197594D01*
X13147Y198057D01*
X12594Y198426D01*
X11941Y198556D01*
X11288Y198426D01*
X10735Y198057D01*
X10365Y197503D01*
X10235Y196850D01*
X10365Y196197D01*
X10735Y195644D01*
X11288Y195274D01*
X11774Y195178D01*
Y194349D01*
X11774Y194349D01*
X11866Y193888D01*
X12127Y193497D01*
X13342Y192282D01*
X13342Y192282D01*
X13733Y192021D01*
X14194Y191929D01*
X14194Y191929D01*
X30994D01*
X30994Y191929D01*
X31454Y192021D01*
X31845Y192282D01*
X35202Y195638D01*
X35744Y195474D01*
X35778Y195304D01*
X36148Y194750D01*
X36702Y194380D01*
X37354Y194251D01*
X38007Y194380D01*
X38561Y194750D01*
X38930Y195304D01*
X39060Y195957D01*
X38930Y196609D01*
X38561Y197163D01*
X38007Y197533D01*
X37837Y197567D01*
X37673Y198109D01*
X42834Y203270D01*
X58372D01*
X58497Y202770D01*
X57928Y202466D01*
X56976Y201685D01*
X56195Y200733D01*
X55615Y199647D01*
X55258Y198469D01*
X55137Y197244D01*
X55258Y196019D01*
X55615Y194841D01*
X56195Y193755D01*
X56976Y192803D01*
X57928Y192022D01*
X59014Y191442D01*
X60192Y191085D01*
X61417Y190964D01*
X62643Y191085D01*
X63821Y191442D01*
X64906Y192022D01*
X65858Y192803D01*
X66639Y193755D01*
X67220Y194841D01*
X67577Y196019D01*
X67698Y197244D01*
X67577Y198469D01*
X67220Y199647D01*
X66639Y200733D01*
X65858Y201685D01*
X64906Y202466D01*
X63821Y203046D01*
X62643Y203404D01*
X62622Y203406D01*
Y204013D01*
X62622Y204013D01*
X62530Y204474D01*
X62269Y204865D01*
X62253Y205118D01*
X62269Y205371D01*
X62530Y205762D01*
X62622Y206223D01*
X62622Y206223D01*
Y206831D01*
X62643Y206833D01*
X63821Y207190D01*
X64906Y207770D01*
X65858Y208551D01*
X66639Y209503D01*
X67220Y210589D01*
X67577Y211767D01*
X67698Y212992D01*
X67577Y214217D01*
X67220Y215395D01*
X66639Y216481D01*
X65858Y217433D01*
X64906Y218214D01*
X64777Y218283D01*
X64898Y218768D01*
X66876D01*
X66876Y218768D01*
X67337Y218860D01*
X67728Y219121D01*
X70482Y221875D01*
X70962Y221648D01*
X70885Y220866D01*
X71006Y219641D01*
X71363Y218463D01*
X71943Y217377D01*
X72724Y216425D01*
X73676Y215644D01*
X74762Y215064D01*
X75940Y214707D01*
X77165Y214586D01*
X78391Y214707D01*
X79569Y215064D01*
X80655Y215644D01*
X81606Y216425D01*
X82387Y217377D01*
X82968Y218463D01*
X83325Y219641D01*
X83446Y220866D01*
X83369Y221648D01*
X83849Y221875D01*
X86603Y219121D01*
X86603Y219121D01*
X86994Y218860D01*
X87455Y218768D01*
X89432D01*
X89554Y218283D01*
X89424Y218214D01*
X88473Y217433D01*
X87691Y216481D01*
X87111Y215395D01*
X86754Y214217D01*
X86633Y212992D01*
X86754Y211767D01*
X87111Y210589D01*
X87691Y209503D01*
X88473Y208551D01*
X89424Y207770D01*
X90510Y207190D01*
X91688Y206833D01*
X91709Y206831D01*
Y206223D01*
X91709Y206223D01*
X91801Y205762D01*
X92062Y205371D01*
X92065Y205368D01*
Y204868D01*
X92062Y204865D01*
X91801Y204474D01*
X91709Y204013D01*
X91709Y204013D01*
Y203406D01*
X91688Y203404D01*
X90510Y203046D01*
X89424Y202466D01*
X88473Y201685D01*
X87691Y200733D01*
X87111Y199647D01*
X86754Y198469D01*
X86633Y197244D01*
X86754Y196019D01*
X87111Y194841D01*
X87691Y193755D01*
X88473Y192803D01*
X89424Y192022D01*
X90510Y191442D01*
X91688Y191085D01*
X92913Y190964D01*
X93692Y191041D01*
X93919Y190560D01*
X92918Y189559D01*
X90117D01*
X89615Y189459D01*
X89189Y189174D01*
X83948Y183933D01*
X81180D01*
X81001Y184433D01*
X81606Y184929D01*
X82387Y185881D01*
X82968Y186967D01*
X83325Y188145D01*
X83446Y189370D01*
X83325Y190595D01*
X82968Y191773D01*
X82387Y192859D01*
X81606Y193811D01*
X80655Y194592D01*
X79569Y195172D01*
X78391Y195530D01*
X77165Y195650D01*
X75940Y195530D01*
X74762Y195172D01*
X73676Y194592D01*
X72724Y193811D01*
X71943Y192859D01*
X71363Y191773D01*
X71006Y190595D01*
X70885Y189370D01*
X71006Y188145D01*
X71363Y186967D01*
X71943Y185881D01*
X72724Y184929D01*
X73676Y184148D01*
X74212Y183862D01*
X74303Y183246D01*
X66385Y175328D01*
X64197D01*
X64072Y175828D01*
X64906Y176274D01*
X65858Y177055D01*
X66639Y178007D01*
X67220Y179093D01*
X67577Y180271D01*
X67698Y181496D01*
X67577Y182721D01*
X67220Y183899D01*
X66639Y184985D01*
X65858Y185937D01*
X64906Y186718D01*
X63821Y187298D01*
X62643Y187656D01*
X61417Y187776D01*
X60192Y187656D01*
X59014Y187298D01*
X57928Y186718D01*
X56976Y185937D01*
X56195Y184985D01*
X55615Y183899D01*
X55258Y182721D01*
X55137Y181496D01*
X55258Y180271D01*
X55615Y179093D01*
X56195Y178007D01*
X56976Y177055D01*
X57928Y176274D01*
X58762Y175828D01*
X58637Y175328D01*
X55905D01*
X55403Y175228D01*
X54977Y174944D01*
X32096Y152062D01*
X31631Y151970D01*
X31077Y151600D01*
X30970Y151440D01*
X30470Y151591D01*
Y179200D01*
X30709Y179396D01*
X31361Y179526D01*
X31915Y179896D01*
X32285Y180449D01*
X32415Y181102D01*
X32285Y181755D01*
X31915Y182309D01*
X31361Y182678D01*
X30709Y182808D01*
X30056Y182678D01*
X29502Y182309D01*
X29254Y181937D01*
X29034Y181717D01*
X28846Y181731D01*
X28456Y181846D01*
X28147Y182309D01*
X27594Y182678D01*
X26941Y182808D01*
X26288Y182678D01*
X25735Y182309D01*
X25365Y181755D01*
X25235Y181102D01*
X25365Y180449D01*
X25735Y179896D01*
X26288Y179526D01*
X26774Y179429D01*
Y139738D01*
X26774Y139738D01*
X26866Y139277D01*
X27127Y138887D01*
X41454Y124559D01*
X41454Y124559D01*
X41845Y124298D01*
X42306Y124206D01*
X57657D01*
X57906Y123747D01*
X57904Y123706D01*
X56976Y122945D01*
X56195Y121993D01*
X55615Y120907D01*
X55258Y119729D01*
X55137Y118504D01*
X55258Y117279D01*
X55615Y116101D01*
X56195Y115015D01*
X56976Y114063D01*
X57928Y113282D01*
X59014Y112702D01*
X60192Y112344D01*
X61417Y112224D01*
X61653Y112247D01*
X62146Y112234D01*
X62153Y112233D01*
X62244Y111773D01*
X62506Y111382D01*
X64295Y109592D01*
X63391Y108688D01*
X62643Y108915D01*
X61417Y109036D01*
X60192Y108915D01*
X59014Y108558D01*
X57928Y107978D01*
X56976Y107197D01*
X56195Y106245D01*
X55615Y105159D01*
X55258Y103981D01*
X55137Y102756D01*
X55258Y101531D01*
X55615Y100353D01*
X56195Y99267D01*
X56976Y98315D01*
X57928Y97534D01*
X59014Y96954D01*
X60192Y96596D01*
X61417Y96476D01*
X62643Y96596D01*
X63821Y96954D01*
X64906Y97534D01*
X65634Y98131D01*
X65704Y98188D01*
X66029Y97829D01*
X66002Y97780D01*
X64023Y95801D01*
X53002D01*
X48401Y100401D01*
X48566Y100944D01*
X48684Y100967D01*
X49238Y101337D01*
X49608Y101890D01*
X49738Y102543D01*
X49608Y103196D01*
X49238Y103750D01*
X48684Y104120D01*
X48031Y104249D01*
X48014Y104246D01*
X47897Y104723D01*
X48450Y105093D01*
X48820Y105646D01*
X48950Y106299D01*
X48820Y106952D01*
X48450Y107506D01*
X47897Y107875D01*
X47244Y108005D01*
X46591Y107875D01*
X46038Y107506D01*
X45668Y106952D01*
X45538Y106299D01*
X45668Y105646D01*
X46038Y105093D01*
X46591Y104723D01*
X47244Y104593D01*
X47261Y104597D01*
X47379Y104120D01*
X46825Y103750D01*
X46455Y103196D01*
X46432Y103078D01*
X45889Y102913D01*
X42257Y106545D01*
Y109189D01*
X42521Y109583D01*
X42651Y110236D01*
X42521Y110889D01*
X42151Y111442D01*
X41598Y111812D01*
X40945Y111942D01*
X40292Y111812D01*
X39739Y111442D01*
X39369Y110889D01*
X39239Y110236D01*
X39369Y109583D01*
X39632Y109189D01*
Y106001D01*
X39732Y105499D01*
X40017Y105073D01*
X51530Y93560D01*
X51956Y93275D01*
X52458Y93176D01*
X58637D01*
X58762Y92676D01*
X57928Y92230D01*
X56976Y91449D01*
X56195Y90497D01*
X55615Y89411D01*
X55258Y88233D01*
X55137Y87008D01*
X55258Y85783D01*
X55615Y84605D01*
X56195Y83519D01*
X56976Y82567D01*
X57928Y81786D01*
X59014Y81206D01*
X60192Y80848D01*
X61417Y80728D01*
X62643Y80848D01*
X63821Y81206D01*
X64906Y81786D01*
X65858Y82567D01*
X66639Y83519D01*
X67220Y84605D01*
X67577Y85783D01*
X67698Y87008D01*
X67577Y88233D01*
X67220Y89411D01*
X66639Y90497D01*
X65858Y91449D01*
X64906Y92230D01*
X64072Y92676D01*
X64197Y93176D01*
X64567D01*
X65069Y93275D01*
X65495Y93560D01*
X72254Y100319D01*
X73151D01*
X73330Y99819D01*
X72724Y99323D01*
X71943Y98371D01*
X71363Y97285D01*
X71006Y96107D01*
X70885Y94882D01*
X71006Y93657D01*
X71363Y92479D01*
X71943Y91393D01*
X72724Y90441D01*
X73676Y89660D01*
X74762Y89080D01*
X75940Y88722D01*
X77165Y88602D01*
X78391Y88722D01*
X79569Y89080D01*
X80655Y89660D01*
X81606Y90441D01*
X82387Y91393D01*
X82968Y92479D01*
X83325Y93657D01*
X83446Y94882D01*
X83325Y96107D01*
X82968Y97285D01*
X82387Y98371D01*
X81606Y99323D01*
X80655Y100104D01*
X80119Y100390D01*
X80028Y101006D01*
X86726Y107705D01*
X87011Y108131D01*
X87111Y108633D01*
Y115041D01*
X87611Y115166D01*
X87691Y115015D01*
X88473Y114063D01*
X89424Y113282D01*
X90510Y112702D01*
X91688Y112344D01*
X91709Y112342D01*
Y111735D01*
X91709Y111735D01*
X91801Y111274D01*
X92062Y110883D01*
X92065Y110880D01*
Y110380D01*
X92062Y110377D01*
X91801Y109986D01*
X91709Y109525D01*
X91709Y109525D01*
Y108918D01*
X91688Y108915D01*
X90510Y108558D01*
X89424Y107978D01*
X88473Y107197D01*
X87691Y106245D01*
X87111Y105159D01*
X86754Y103981D01*
X86633Y102756D01*
X86754Y101531D01*
X87111Y100353D01*
X87691Y99267D01*
X88473Y98315D01*
X89424Y97534D01*
X90510Y96954D01*
X91688Y96596D01*
X92913Y96476D01*
X94139Y96596D01*
X95317Y96954D01*
X96403Y97534D01*
X97354Y98315D01*
X98135Y99267D01*
X98716Y100353D01*
X99073Y101531D01*
X99194Y102756D01*
X99073Y103981D01*
X98716Y105159D01*
X98135Y106245D01*
X97354Y107197D01*
X96403Y107978D01*
X95787Y108307D01*
X95864Y108832D01*
X96073Y108874D01*
X96464Y109135D01*
X121052Y133724D01*
X121313Y134114D01*
X121405Y134575D01*
X121405Y134575D01*
Y233096D01*
X121405Y233096D01*
X121313Y233557D01*
X121052Y233948D01*
X121052Y233948D01*
X96956Y258045D01*
X96565Y258306D01*
X96104Y258397D01*
D02*
G37*
G36*
X113689Y258713D02*
Y257390D01*
X115012D01*
X114965Y257626D01*
X114549Y258249D01*
X113925Y258666D01*
X113689Y258713D01*
D02*
G37*
G36*
X112689D02*
X112453Y258666D01*
X111829Y258249D01*
X111413Y257626D01*
X111366Y257390D01*
X112689D01*
Y258713D01*
D02*
G37*
G36*
X115012Y256390D02*
X113689D01*
Y255066D01*
X113925Y255113D01*
X114549Y255530D01*
X114965Y256154D01*
X115012Y256390D01*
D02*
G37*
G36*
X112689D02*
X111366D01*
X111413Y256154D01*
X111829Y255530D01*
X112453Y255113D01*
X112689Y255066D01*
Y256390D01*
D02*
G37*
G36*
X160630Y257611D02*
X159977Y257482D01*
X159424Y257112D01*
X159054Y256558D01*
X158924Y255906D01*
X159054Y255253D01*
X159424Y254699D01*
X159977Y254329D01*
X160630Y254200D01*
X161283Y254329D01*
X161836Y254699D01*
X162206Y255253D01*
X162336Y255906D01*
X162206Y256558D01*
X161836Y257112D01*
X161283Y257482D01*
X160630Y257611D01*
D02*
G37*
G36*
X140157D02*
X139505Y257482D01*
X138951Y257112D01*
X138581Y256558D01*
X138452Y255906D01*
X138581Y255253D01*
X138951Y254699D01*
X139505Y254329D01*
X140157Y254200D01*
X140810Y254329D01*
X141364Y254699D01*
X141734Y255253D01*
X141864Y255906D01*
X141734Y256558D01*
X141364Y257112D01*
X140810Y257482D01*
X140157Y257611D01*
D02*
G37*
G36*
X30709Y253675D02*
X30056Y253545D01*
X29502Y253175D01*
X29133Y252621D01*
X29003Y251969D01*
X29133Y251316D01*
X29502Y250762D01*
X30056Y250392D01*
X30709Y250262D01*
X31361Y250392D01*
X31915Y250762D01*
X32285Y251316D01*
X32415Y251969D01*
X32285Y252621D01*
X31915Y253175D01*
X31361Y253545D01*
X30709Y253675D01*
D02*
G37*
G36*
X21260D02*
X20607Y253545D01*
X20053Y253175D01*
X19684Y252621D01*
X19554Y251969D01*
X19684Y251316D01*
X20053Y250762D01*
X20607Y250392D01*
X21260Y250262D01*
X21913Y250392D01*
X22466Y250762D01*
X22836Y251316D01*
X22966Y251969D01*
X22836Y252621D01*
X22466Y253175D01*
X21913Y253545D01*
X21260Y253675D01*
D02*
G37*
G36*
X167717Y251312D02*
X167064Y251182D01*
X166510Y250813D01*
X166140Y250259D01*
X166010Y249606D01*
X166140Y248953D01*
X166510Y248400D01*
X167064Y248030D01*
X167717Y247900D01*
X168369Y248030D01*
X168923Y248400D01*
X169293Y248953D01*
X169422Y249606D01*
X169293Y250259D01*
X168923Y250813D01*
X168369Y251182D01*
X167717Y251312D01*
D02*
G37*
G36*
X140945D02*
X140292Y251182D01*
X139739Y250813D01*
X139369Y250259D01*
X139239Y249606D01*
X139369Y248953D01*
X139739Y248400D01*
X140292Y248030D01*
X140945Y247900D01*
X141598Y248030D01*
X142151Y248400D01*
X142521Y248953D01*
X142651Y249606D01*
X142521Y250259D01*
X142151Y250813D01*
X141598Y251182D01*
X140945Y251312D01*
D02*
G37*
G36*
X25984Y245800D02*
X25331Y245671D01*
X24778Y245301D01*
X24408Y244747D01*
X24278Y244094D01*
X24408Y243442D01*
X24778Y242888D01*
X25331Y242518D01*
X25984Y242389D01*
X26637Y242518D01*
X27191Y242888D01*
X27560Y243442D01*
X27690Y244094D01*
X27560Y244747D01*
X27191Y245301D01*
X26637Y245671D01*
X25984Y245800D01*
D02*
G37*
G36*
X162205Y245013D02*
X161552Y244883D01*
X160998Y244513D01*
X160629Y243960D01*
X160499Y243307D01*
X160629Y242654D01*
X160998Y242101D01*
X161552Y241731D01*
X162205Y241601D01*
X162858Y241731D01*
X163411Y242101D01*
X163781Y242654D01*
X163911Y243307D01*
X163781Y243960D01*
X163411Y244513D01*
X162858Y244883D01*
X162205Y245013D01*
D02*
G37*
G36*
X142913D02*
X142261Y244883D01*
X141707Y244513D01*
X141337Y243960D01*
X141207Y243307D01*
X141337Y242654D01*
X141707Y242101D01*
X142261Y241731D01*
X142913Y241601D01*
X143566Y241731D01*
X144120Y242101D01*
X144490Y242654D01*
X144619Y243307D01*
X144490Y243960D01*
X144120Y244513D01*
X143566Y244883D01*
X142913Y245013D01*
D02*
G37*
G36*
X183268Y242454D02*
X182615Y242324D01*
X182061Y241954D01*
X181692Y241401D01*
X181562Y240748D01*
X181692Y240095D01*
X182061Y239542D01*
X182615Y239172D01*
X183268Y239042D01*
X183921Y239172D01*
X184474Y239542D01*
X184844Y240095D01*
X184974Y240748D01*
X184844Y241401D01*
X184474Y241954D01*
X183921Y242324D01*
X183268Y242454D01*
D02*
G37*
G36*
X166929Y241863D02*
X166276Y241734D01*
X165723Y241364D01*
X165353Y240810D01*
X165223Y240158D01*
X165353Y239505D01*
X165723Y238951D01*
X166276Y238581D01*
X166929Y238452D01*
X167582Y238581D01*
X168135Y238951D01*
X168505Y239505D01*
X168635Y240158D01*
X168505Y240810D01*
X168135Y241364D01*
X167582Y241734D01*
X166929Y241863D01*
D02*
G37*
G36*
X102362Y241076D02*
X101709Y240946D01*
X101156Y240576D01*
X100786Y240023D01*
X100656Y239370D01*
X100786Y238717D01*
X101156Y238164D01*
X101709Y237794D01*
X102362Y237664D01*
X103015Y237794D01*
X103568Y238164D01*
X103938Y238717D01*
X104068Y239370D01*
X103938Y240023D01*
X103568Y240576D01*
X103015Y240946D01*
X102362Y241076D01*
D02*
G37*
G36*
X174016Y238123D02*
X173363Y237994D01*
X172809Y237624D01*
X172440Y237070D01*
X172310Y236417D01*
X172440Y235765D01*
X172809Y235211D01*
X173363Y234841D01*
X174016Y234711D01*
X174669Y234841D01*
X175222Y235211D01*
X175592Y235765D01*
X175722Y236417D01*
X175592Y237070D01*
X175222Y237624D01*
X174669Y237994D01*
X174016Y238123D01*
D02*
G37*
G36*
X109449Y233202D02*
X108796Y233072D01*
X108242Y232702D01*
X107873Y232149D01*
X107743Y231496D01*
X107873Y230843D01*
X108242Y230290D01*
X108796Y229920D01*
X109449Y229790D01*
X110102Y229920D01*
X110655Y230290D01*
X111025Y230843D01*
X111155Y231496D01*
X111025Y232149D01*
X110655Y232702D01*
X110102Y233072D01*
X109449Y233202D01*
D02*
G37*
G36*
X18898Y232415D02*
X18245Y232285D01*
X17691Y231915D01*
X17322Y231362D01*
X17192Y230709D01*
X17322Y230056D01*
X17691Y229502D01*
X18245Y229133D01*
X18898Y229003D01*
X19550Y229133D01*
X20104Y229502D01*
X20474Y230056D01*
X20604Y230709D01*
X20474Y231362D01*
X20104Y231915D01*
X19550Y232285D01*
X18898Y232415D01*
D02*
G37*
G36*
X112598Y230052D02*
X111946Y229923D01*
X111392Y229553D01*
X111022Y228999D01*
X110892Y228346D01*
X111022Y227694D01*
X111392Y227140D01*
X111946Y226770D01*
X112598Y226641D01*
X113251Y226770D01*
X113805Y227140D01*
X114175Y227694D01*
X114304Y228346D01*
X114175Y228999D01*
X113805Y229553D01*
X113251Y229923D01*
X112598Y230052D01*
D02*
G37*
G36*
X125984Y244226D02*
X125331Y244096D01*
X124778Y243726D01*
X124408Y243173D01*
X124316Y242707D01*
X122694Y241086D01*
X122409Y240660D01*
X122309Y240158D01*
Y213301D01*
X122409Y212798D01*
X122694Y212372D01*
X143869Y191198D01*
X144294Y190913D01*
X144797Y190813D01*
X147235D01*
X147251Y190812D01*
X147304Y190789D01*
X147387Y190788D01*
X147469Y190772D01*
X147543Y190787D01*
X147617Y190786D01*
X147686Y190813D01*
X148031D01*
X148534Y190913D01*
X148535Y190914D01*
X148684Y190944D01*
X149238Y191313D01*
X149608Y191867D01*
X149738Y192520D01*
X149608Y193173D01*
X149238Y193726D01*
X148684Y194096D01*
X148031Y194226D01*
X147379Y194096D01*
X146825Y193726D01*
X146633Y193439D01*
X145340D01*
X144711Y194068D01*
X144875Y194611D01*
X145224Y194680D01*
X145848Y195097D01*
X146265Y195721D01*
X146311Y195957D01*
X144488D01*
Y196457D01*
X143988D01*
Y198280D01*
X143752Y198233D01*
X143129Y197816D01*
X142712Y197193D01*
X142642Y196844D01*
X142100Y196679D01*
X124935Y213844D01*
Y233483D01*
X125435Y233635D01*
X125565Y233439D01*
X126119Y233069D01*
X126584Y232977D01*
X133127Y226434D01*
X133553Y226150D01*
X134055Y226050D01*
X166732D01*
X167235Y226150D01*
X167660Y226434D01*
X167904Y226678D01*
X168369Y226770D01*
X168923Y227140D01*
X169293Y227694D01*
X169422Y228346D01*
X169293Y228999D01*
X168923Y229553D01*
X168369Y229923D01*
X167717Y230052D01*
X167064Y229923D01*
X166510Y229553D01*
X166140Y228999D01*
X166076Y228675D01*
X134599D01*
X128440Y234833D01*
X128348Y235298D01*
X127978Y235852D01*
X127425Y236222D01*
X126772Y236352D01*
X126119Y236222D01*
X125565Y235852D01*
X125435Y235656D01*
X124935Y235808D01*
Y239614D01*
X126172Y240851D01*
X126637Y240944D01*
X127191Y241313D01*
X127560Y241867D01*
X127690Y242520D01*
X127560Y243173D01*
X127191Y243726D01*
X126637Y244096D01*
X125984Y244226D01*
D02*
G37*
G36*
X112598Y225328D02*
X111946Y225198D01*
X111392Y224828D01*
X111022Y224275D01*
X110892Y223622D01*
X111022Y222969D01*
X111392Y222416D01*
X111946Y222046D01*
X112598Y221916D01*
X113251Y222046D01*
X113805Y222416D01*
X114175Y222969D01*
X114304Y223622D01*
X114175Y224275D01*
X113805Y224828D01*
X113251Y225198D01*
X112598Y225328D01*
D02*
G37*
G36*
X6012Y219934D02*
Y218610D01*
X7335D01*
X7288Y218846D01*
X6871Y219470D01*
X6248Y219887D01*
X6012Y219934D01*
D02*
G37*
G36*
X5012D02*
X4776Y219887D01*
X4152Y219470D01*
X3735Y218846D01*
X3689Y218610D01*
X5012D01*
Y219934D01*
D02*
G37*
G36*
X181496Y220997D02*
X180843Y220867D01*
X180290Y220498D01*
X179920Y219944D01*
X179790Y219291D01*
X179920Y218638D01*
X180290Y218085D01*
X180843Y217715D01*
X181496Y217585D01*
X182149Y217715D01*
X182702Y218085D01*
X183072Y218638D01*
X183202Y219291D01*
X183072Y219944D01*
X182702Y220498D01*
X182149Y220867D01*
X181496Y220997D01*
D02*
G37*
G36*
X7335Y217610D02*
X6012D01*
Y216287D01*
X6248Y216334D01*
X6871Y216751D01*
X7288Y217374D01*
X7335Y217610D01*
D02*
G37*
G36*
X5012D02*
X3689D01*
X3735Y217374D01*
X4152Y216751D01*
X4776Y216334D01*
X5012Y216287D01*
Y217610D01*
D02*
G37*
G36*
X174909Y217571D02*
Y216248D01*
X176233D01*
X176186Y216484D01*
X175769Y217108D01*
X175145Y217524D01*
X174909Y217571D01*
D02*
G37*
G36*
X173909D02*
X173674Y217524D01*
X173050Y217108D01*
X172633Y216484D01*
X172586Y216248D01*
X173909D01*
Y217571D01*
D02*
G37*
G36*
X114961Y218635D02*
X114308Y218505D01*
X113754Y218135D01*
X113384Y217582D01*
X113255Y216929D01*
X113384Y216276D01*
X113754Y215723D01*
X114308Y215353D01*
X114961Y215223D01*
X115613Y215353D01*
X116167Y215723D01*
X116537Y216276D01*
X116667Y216929D01*
X116537Y217582D01*
X116167Y218135D01*
X115613Y218505D01*
X114961Y218635D01*
D02*
G37*
G36*
X41122Y217631D02*
X40469Y217501D01*
X39916Y217131D01*
X39546Y216578D01*
X39416Y215925D01*
X39546Y215272D01*
X39916Y214719D01*
X40469Y214349D01*
X41122Y214219D01*
X41775Y214349D01*
X42328Y214719D01*
X42698Y215272D01*
X42828Y215925D01*
X42698Y216578D01*
X42328Y217131D01*
X41775Y217501D01*
X41122Y217631D01*
D02*
G37*
G36*
X176233Y215248D02*
X174909D01*
Y213925D01*
X175145Y213972D01*
X175769Y214388D01*
X176186Y215012D01*
X176233Y215248D01*
D02*
G37*
G36*
X173909D02*
X172586D01*
X172633Y215012D01*
X173050Y214388D01*
X173674Y213972D01*
X173909Y213925D01*
Y215248D01*
D02*
G37*
G36*
X179724Y216667D02*
X179072Y216537D01*
X178518Y216167D01*
X178148Y215614D01*
X178018Y214961D01*
X178148Y214308D01*
X178518Y213754D01*
X179072Y213385D01*
X179724Y213255D01*
X180095Y213328D01*
X180473Y213219D01*
X180623Y212962D01*
X180707Y212536D01*
X181077Y211983D01*
X181631Y211613D01*
X182283Y211483D01*
X182936Y211613D01*
X183490Y211983D01*
X183860Y212536D01*
X183990Y213189D01*
X183860Y213842D01*
X183490Y214395D01*
X182936Y214765D01*
X182283Y214895D01*
X181913Y214821D01*
X181535Y214931D01*
X181385Y215187D01*
X181300Y215614D01*
X180931Y216167D01*
X180377Y216537D01*
X179724Y216667D01*
D02*
G37*
G36*
X177165Y211155D02*
X176513Y211025D01*
X175959Y210655D01*
X175589Y210102D01*
X175459Y209449D01*
X175589Y208796D01*
X175959Y208243D01*
X176513Y207873D01*
X177165Y207743D01*
X177818Y207873D01*
X178372Y208243D01*
X178742Y208796D01*
X178871Y209449D01*
X178742Y210102D01*
X178372Y210655D01*
X177818Y211025D01*
X177165Y211155D01*
D02*
G37*
G36*
X172441Y210367D02*
X171788Y210238D01*
X171235Y209868D01*
X170865Y209314D01*
X170735Y208661D01*
X170865Y208009D01*
X171235Y207455D01*
X171788Y207085D01*
X172441Y206955D01*
X173094Y207085D01*
X173647Y207455D01*
X174017Y208009D01*
X174147Y208661D01*
X174017Y209314D01*
X173647Y209868D01*
X173094Y210238D01*
X172441Y210367D01*
D02*
G37*
G36*
X112311Y207335D02*
Y206012D01*
X113634D01*
X113587Y206248D01*
X113171Y206871D01*
X112547Y207288D01*
X112311Y207335D01*
D02*
G37*
G36*
X111311D02*
X111075Y207288D01*
X110451Y206871D01*
X110035Y206248D01*
X109988Y206012D01*
X111311D01*
Y207335D01*
D02*
G37*
G36*
X187705Y206548D02*
Y205224D01*
X189028D01*
X188981Y205460D01*
X188564Y206084D01*
X187941Y206501D01*
X187705Y206548D01*
D02*
G37*
G36*
X186705D02*
X186469Y206501D01*
X185845Y206084D01*
X185428Y205460D01*
X185381Y205224D01*
X186705D01*
Y206548D01*
D02*
G37*
G36*
X11024Y207218D02*
X10371Y207088D01*
X9817Y206718D01*
X9448Y206165D01*
X9318Y205512D01*
X9448Y204859D01*
X9817Y204306D01*
X10371Y203936D01*
X11024Y203806D01*
X11676Y203936D01*
X12230Y204306D01*
X12600Y204859D01*
X12730Y205512D01*
X12600Y206165D01*
X12230Y206718D01*
X11676Y207088D01*
X11024Y207218D01*
D02*
G37*
G36*
X192126Y207217D02*
X191473Y207087D01*
X190919Y206718D01*
X190550Y206164D01*
X190420Y205511D01*
X190550Y204858D01*
X190919Y204305D01*
X191473Y203935D01*
X192126Y203805D01*
X192779Y203935D01*
X193332Y204305D01*
X193702Y204858D01*
X193832Y205511D01*
X193702Y206164D01*
X193332Y206718D01*
X192779Y207087D01*
X192126Y207217D01*
D02*
G37*
G36*
X113634Y205012D02*
X112311D01*
Y203689D01*
X112547Y203735D01*
X113171Y204152D01*
X113587Y204776D01*
X113634Y205012D01*
D02*
G37*
G36*
X111311D02*
X109988D01*
X110035Y204776D01*
X110451Y204152D01*
X111075Y203735D01*
X111311Y203689D01*
Y205012D01*
D02*
G37*
G36*
X189028Y204224D02*
X187705D01*
Y202901D01*
X187941Y202948D01*
X188564Y203365D01*
X188981Y203989D01*
X189028Y204224D01*
D02*
G37*
G36*
X186705D02*
X185381D01*
X185428Y203989D01*
X185845Y203365D01*
X186469Y202948D01*
X186705Y202901D01*
Y204224D01*
D02*
G37*
G36*
X177165Y206430D02*
X176513Y206301D01*
X175959Y205931D01*
X175589Y205377D01*
X175459Y204724D01*
X175589Y204072D01*
X175837Y203700D01*
X175775Y203149D01*
X175734Y203067D01*
X175412Y202852D01*
X174995Y202228D01*
X174948Y201992D01*
X178595D01*
X178548Y202228D01*
X178131Y202852D01*
X178203Y203405D01*
X178372Y203518D01*
X178742Y204072D01*
X178871Y204724D01*
X178742Y205377D01*
X178372Y205931D01*
X177818Y206301D01*
X177165Y206430D01*
D02*
G37*
G36*
X172441Y203084D02*
X171788Y202954D01*
X171235Y202584D01*
X170865Y202031D01*
X170735Y201378D01*
X170865Y200725D01*
X171235Y200172D01*
X171788Y199802D01*
X172441Y199672D01*
X173094Y199802D01*
X173647Y200172D01*
X174017Y200725D01*
X174147Y201378D01*
X174017Y202031D01*
X173647Y202584D01*
X173094Y202954D01*
X172441Y203084D01*
D02*
G37*
G36*
X178595Y200992D02*
X177272D01*
Y199669D01*
X177507Y199716D01*
X178131Y200132D01*
X178548Y200756D01*
X178595Y200992D01*
D02*
G37*
G36*
X176272D02*
X174948D01*
X174995Y200756D01*
X175412Y200132D01*
X176036Y199716D01*
X176272Y199669D01*
Y200992D01*
D02*
G37*
G36*
X77165Y211398D02*
X75940Y211278D01*
X74762Y210920D01*
X73676Y210340D01*
X72724Y209559D01*
X71943Y208607D01*
X71363Y207522D01*
X71006Y206343D01*
X70885Y205118D01*
X71006Y203893D01*
X71363Y202715D01*
X71943Y201629D01*
X72724Y200677D01*
X73676Y199896D01*
X74762Y199316D01*
X75940Y198959D01*
X77165Y198838D01*
X78391Y198959D01*
X79569Y199316D01*
X80655Y199896D01*
X81606Y200677D01*
X82387Y201629D01*
X82968Y202715D01*
X83325Y203893D01*
X83446Y205118D01*
X83325Y206343D01*
X82968Y207522D01*
X82387Y208607D01*
X81606Y209559D01*
X80655Y210340D01*
X79569Y210920D01*
X78391Y211278D01*
X77165Y211398D01*
D02*
G37*
G36*
X144988Y198280D02*
Y196957D01*
X146311D01*
X146265Y197193D01*
X145848Y197816D01*
X145224Y198233D01*
X144988Y198280D01*
D02*
G37*
G36*
X111417Y199738D02*
X110765Y199608D01*
X110211Y199238D01*
X109841Y198684D01*
X109711Y198031D01*
X109841Y197379D01*
X110211Y196825D01*
X110765Y196455D01*
X111417Y196326D01*
X112070Y196455D01*
X112624Y196825D01*
X112994Y197379D01*
X113123Y198031D01*
X112994Y198684D01*
X112624Y199238D01*
X112070Y199608D01*
X111417Y199738D01*
D02*
G37*
G36*
X6299Y198556D02*
X5646Y198426D01*
X5093Y198057D01*
X4723Y197503D01*
X4593Y196850D01*
X4723Y196197D01*
X5093Y195644D01*
X5646Y195274D01*
X6299Y195144D01*
X6952Y195274D01*
X7506Y195644D01*
X7875Y196197D01*
X8005Y196850D01*
X7875Y197503D01*
X7506Y198057D01*
X6952Y198426D01*
X6299Y198556D01*
D02*
G37*
G36*
X174409Y197769D02*
X173757Y197639D01*
X173203Y197269D01*
X172833Y196716D01*
X172703Y196063D01*
X172833Y195410D01*
X173203Y194857D01*
X173757Y194487D01*
X174409Y194357D01*
X175062Y194487D01*
X175616Y194857D01*
X175986Y195410D01*
X176116Y196063D01*
X175986Y196716D01*
X175616Y197269D01*
X175062Y197639D01*
X174409Y197769D01*
D02*
G37*
G36*
X49476Y196423D02*
X48823Y196293D01*
X48270Y195923D01*
X47900Y195369D01*
X47770Y194717D01*
X47900Y194064D01*
X48270Y193510D01*
X48277Y193506D01*
X48082Y193035D01*
X48031Y193045D01*
X47379Y192915D01*
X46825Y192545D01*
X46455Y191991D01*
X46325Y191339D01*
X46455Y190686D01*
X46825Y190132D01*
X47379Y189762D01*
X48031Y189633D01*
X48684Y189762D01*
X49238Y190132D01*
X49608Y190686D01*
X49738Y191339D01*
X49608Y191991D01*
X49238Y192545D01*
X49231Y192550D01*
X49426Y193021D01*
X49476Y193010D01*
X50129Y193140D01*
X50683Y193510D01*
X51052Y194064D01*
X51182Y194717D01*
X51052Y195369D01*
X50683Y195923D01*
X50129Y196293D01*
X49476Y196423D01*
D02*
G37*
G36*
X175992Y191587D02*
Y190264D01*
X177315D01*
X177269Y190500D01*
X176852Y191123D01*
X176228Y191540D01*
X175992Y191587D01*
D02*
G37*
G36*
X174992D02*
X174756Y191540D01*
X174133Y191123D01*
X173716Y190500D01*
X173669Y190264D01*
X174992D01*
Y191587D01*
D02*
G37*
G36*
X137303Y192552D02*
X136650Y192423D01*
X136097Y192053D01*
X135727Y191499D01*
X135597Y190847D01*
X135727Y190194D01*
X136097Y189640D01*
X136650Y189270D01*
X137303Y189140D01*
X137956Y189270D01*
X138510Y189640D01*
X138879Y190194D01*
X139009Y190847D01*
X138879Y191499D01*
X138510Y192053D01*
X137956Y192423D01*
X137303Y192552D01*
D02*
G37*
G36*
X177315Y189264D02*
X175992D01*
Y187941D01*
X176228Y187987D01*
X176852Y188404D01*
X177269Y189028D01*
X177315Y189264D01*
D02*
G37*
G36*
X174992D02*
X173669D01*
X173716Y189028D01*
X174133Y188404D01*
X174756Y187987D01*
X174992Y187941D01*
Y189264D01*
D02*
G37*
G36*
X187402Y188320D02*
X186749Y188190D01*
X186195Y187820D01*
X185825Y187267D01*
X185696Y186614D01*
X185825Y185961D01*
X186195Y185408D01*
X186749Y185038D01*
X187402Y184908D01*
X188054Y185038D01*
X188608Y185408D01*
X188978Y185961D01*
X189108Y186614D01*
X188978Y187267D01*
X188608Y187820D01*
X188054Y188190D01*
X187402Y188320D01*
D02*
G37*
G36*
X168504Y186745D02*
X167851Y186616D01*
X167298Y186246D01*
X166928Y185692D01*
X166798Y185039D01*
X166928Y184387D01*
X167298Y183833D01*
X167851Y183463D01*
X168504Y183333D01*
X169157Y183463D01*
X169710Y183833D01*
X170080Y184387D01*
X170210Y185039D01*
X170080Y185692D01*
X169710Y186246D01*
X169157Y186616D01*
X168504Y186745D01*
D02*
G37*
G36*
X41122Y185348D02*
X40469Y185218D01*
X39916Y184848D01*
X39546Y184295D01*
X39416Y183642D01*
X39546Y182989D01*
X39916Y182435D01*
X40469Y182066D01*
X41122Y181936D01*
X41775Y182066D01*
X42328Y182435D01*
X42698Y182989D01*
X42828Y183642D01*
X42698Y184295D01*
X42328Y184848D01*
X41775Y185218D01*
X41122Y185348D01*
D02*
G37*
G36*
X44882Y182808D02*
X44229Y182678D01*
X43676Y182309D01*
X43306Y181755D01*
X43176Y181102D01*
X43306Y180449D01*
X43676Y179896D01*
X44229Y179526D01*
X44882Y179396D01*
X45535Y179526D01*
X46088Y179896D01*
X46458Y180449D01*
X46588Y181102D01*
X46458Y181755D01*
X46088Y182309D01*
X45535Y182678D01*
X44882Y182808D01*
D02*
G37*
G36*
X157480Y182021D02*
X156827Y181891D01*
X156274Y181521D01*
X155904Y180968D01*
X155774Y180315D01*
X155904Y179662D01*
X156274Y179109D01*
X156827Y178739D01*
X157480Y178609D01*
X158133Y178739D01*
X158687Y179109D01*
X159056Y179662D01*
X159186Y180315D01*
X159056Y180968D01*
X158687Y181521D01*
X158133Y181891D01*
X157480Y182021D01*
D02*
G37*
G36*
X140157D02*
X139505Y181891D01*
X138951Y181521D01*
X138581Y180968D01*
X138452Y180315D01*
X138581Y179662D01*
X138951Y179109D01*
X139505Y178739D01*
X140157Y178609D01*
X140810Y178739D01*
X141364Y179109D01*
X141734Y179662D01*
X141864Y180315D01*
X141734Y180968D01*
X141364Y181521D01*
X140810Y181891D01*
X140157Y182021D01*
D02*
G37*
G36*
X124409Y181234D02*
X123757Y181104D01*
X123203Y180734D01*
X122833Y180180D01*
X122703Y179528D01*
X122833Y178875D01*
X123203Y178321D01*
X123757Y177951D01*
X124409Y177822D01*
X125062Y177951D01*
X125616Y178321D01*
X125986Y178875D01*
X126116Y179528D01*
X125986Y180180D01*
X125616Y180734D01*
X125062Y181104D01*
X124409Y181234D01*
D02*
G37*
G36*
X175591Y179659D02*
X174938Y179529D01*
X174384Y179159D01*
X174014Y178606D01*
X173884Y177953D01*
X174014Y177300D01*
X174384Y176746D01*
X174938Y176377D01*
X175591Y176247D01*
X176243Y176377D01*
X176797Y176746D01*
X177167Y177300D01*
X177297Y177953D01*
X177167Y178606D01*
X176797Y179159D01*
X176243Y179529D01*
X175591Y179659D01*
D02*
G37*
G36*
X138583Y175722D02*
X137930Y175592D01*
X137376Y175222D01*
X137006Y174669D01*
X136877Y174016D01*
X137006Y173363D01*
X137376Y172809D01*
X137930Y172440D01*
X138583Y172310D01*
X139235Y172440D01*
X139789Y172809D01*
X140159Y173363D01*
X140289Y174016D01*
X140159Y174669D01*
X139789Y175222D01*
X139235Y175592D01*
X138583Y175722D01*
D02*
G37*
G36*
X17035Y173477D02*
Y172153D01*
X18359D01*
X18312Y172389D01*
X17895Y173013D01*
X17271Y173430D01*
X17035Y173477D01*
D02*
G37*
G36*
X16035D02*
X15800Y173430D01*
X15176Y173013D01*
X14759Y172389D01*
X14712Y172153D01*
X16035D01*
Y173477D01*
D02*
G37*
G36*
X6799D02*
Y172153D01*
X8123D01*
X8076Y172389D01*
X7659Y173013D01*
X7035Y173430D01*
X6799Y173477D01*
D02*
G37*
G36*
X5799D02*
X5563Y173430D01*
X4940Y173013D01*
X4523Y172389D01*
X4476Y172153D01*
X5799D01*
Y173477D01*
D02*
G37*
G36*
X11122Y173261D02*
X10469Y173131D01*
X9916Y172761D01*
X9546Y172208D01*
X9416Y171555D01*
X9546Y170902D01*
X9916Y170349D01*
X10469Y169979D01*
X11122Y169849D01*
X11775Y169979D01*
X12328Y170349D01*
X12698Y170902D01*
X12828Y171555D01*
X12698Y172208D01*
X12328Y172761D01*
X11775Y173131D01*
X11122Y173261D01*
D02*
G37*
G36*
X18359Y171153D02*
X17035D01*
Y169830D01*
X17271Y169877D01*
X17895Y170294D01*
X18312Y170918D01*
X18359Y171153D01*
D02*
G37*
G36*
X16035D02*
X14712D01*
X14759Y170918D01*
X15176Y170294D01*
X15800Y169877D01*
X16035Y169830D01*
Y171153D01*
D02*
G37*
G36*
X8123D02*
X6799D01*
Y169830D01*
X7035Y169877D01*
X7659Y170294D01*
X8076Y170918D01*
X8123Y171153D01*
D02*
G37*
G36*
X5799D02*
X4476D01*
X4523Y170918D01*
X4940Y170294D01*
X5563Y169877D01*
X5799Y169830D01*
Y171153D01*
D02*
G37*
G36*
X174803Y170210D02*
X174150Y170080D01*
X173597Y169710D01*
X173227Y169157D01*
X173097Y168504D01*
X173227Y167851D01*
X173597Y167298D01*
X174150Y166928D01*
X174803Y166798D01*
X175456Y166928D01*
X176010Y167298D01*
X176379Y167851D01*
X176509Y168504D01*
X176379Y169157D01*
X176010Y169710D01*
X175456Y170080D01*
X174803Y170210D01*
D02*
G37*
G36*
X166929Y169619D02*
X166276Y169490D01*
X165723Y169120D01*
X165353Y168566D01*
X165223Y167913D01*
X165353Y167261D01*
X165723Y166707D01*
X166276Y166337D01*
X166929Y166207D01*
X167582Y166337D01*
X168135Y166707D01*
X168505Y167261D01*
X168635Y167913D01*
X168505Y168566D01*
X168135Y169120D01*
X167582Y169490D01*
X166929Y169619D01*
D02*
G37*
G36*
X140945Y169422D02*
X140292Y169293D01*
X139739Y168923D01*
X139369Y168369D01*
X139239Y167717D01*
X139369Y167064D01*
X139739Y166510D01*
X140292Y166140D01*
X140945Y166010D01*
X141598Y166140D01*
X142151Y166510D01*
X142521Y167064D01*
X142651Y167717D01*
X142521Y168369D01*
X142151Y168923D01*
X141598Y169293D01*
X140945Y169422D01*
D02*
G37*
G36*
X143413Y164815D02*
Y163492D01*
X144737D01*
X144690Y163728D01*
X144273Y164352D01*
X143649Y164769D01*
X143413Y164815D01*
D02*
G37*
G36*
X142413D02*
X142178Y164769D01*
X141554Y164352D01*
X141137Y163728D01*
X141090Y163492D01*
X142413D01*
Y164815D01*
D02*
G37*
G36*
X176378Y165486D02*
X175725Y165356D01*
X175172Y164986D01*
X174802Y164432D01*
X174672Y163779D01*
X174802Y163127D01*
X175172Y162573D01*
X175725Y162203D01*
X176378Y162074D01*
X177031Y162203D01*
X177584Y162573D01*
X177954Y163127D01*
X178084Y163779D01*
X177954Y164432D01*
X177584Y164986D01*
X177031Y165356D01*
X176378Y165486D01*
D02*
G37*
G36*
X172441D02*
X171788Y165356D01*
X171235Y164986D01*
X170865Y164432D01*
X170735Y163779D01*
X170865Y163127D01*
X171235Y162573D01*
X171788Y162203D01*
X172441Y162074D01*
X173094Y162203D01*
X173647Y162573D01*
X174017Y163127D01*
X174147Y163779D01*
X174017Y164432D01*
X173647Y164986D01*
X173094Y165356D01*
X172441Y165486D01*
D02*
G37*
G36*
X144737Y162492D02*
X143413D01*
Y161169D01*
X143649Y161216D01*
X144273Y161633D01*
X144690Y162256D01*
X144737Y162492D01*
D02*
G37*
G36*
X142413D02*
X141090D01*
X141137Y162256D01*
X141554Y161633D01*
X142178Y161216D01*
X142413Y161169D01*
Y162492D01*
D02*
G37*
G36*
X178847Y161272D02*
Y159949D01*
X180170D01*
X180123Y160185D01*
X179706Y160808D01*
X179082Y161225D01*
X178847Y161272D01*
D02*
G37*
G36*
X177847D02*
X177611Y161225D01*
X176987Y160808D01*
X176570Y160185D01*
X176523Y159949D01*
X177847D01*
Y161272D01*
D02*
G37*
G36*
X169291Y162730D02*
X168639Y162600D01*
X168085Y162230D01*
X167715Y161677D01*
X167585Y161024D01*
X167715Y160371D01*
X168085Y159817D01*
X168639Y159448D01*
X169291Y159318D01*
X169944Y159448D01*
X170498Y159817D01*
X170868Y160371D01*
X170997Y161024D01*
X170868Y161677D01*
X170498Y162230D01*
X169944Y162600D01*
X169291Y162730D01*
D02*
G37*
G36*
X180170Y158949D02*
X178847D01*
Y157625D01*
X179082Y157672D01*
X179706Y158089D01*
X180123Y158713D01*
X180170Y158949D01*
D02*
G37*
G36*
X177847D02*
X176523D01*
X176570Y158713D01*
X176987Y158089D01*
X177611Y157672D01*
X177847Y157625D01*
Y158949D01*
D02*
G37*
G36*
X142253Y156824D02*
X141601Y156694D01*
X141047Y156324D01*
X140677Y155771D01*
X140547Y155118D01*
X140677Y154465D01*
X141047Y153912D01*
X141601Y153542D01*
X142253Y153412D01*
X142906Y153542D01*
X143460Y153912D01*
X143830Y154465D01*
X143959Y155118D01*
X143830Y155771D01*
X143460Y156324D01*
X142906Y156694D01*
X142253Y156824D01*
D02*
G37*
G36*
X16535Y150525D02*
X15883Y150395D01*
X15329Y150025D01*
X14959Y149472D01*
X14829Y148819D01*
X14959Y148166D01*
X15329Y147613D01*
X15883Y147243D01*
X16535Y147113D01*
X17188Y147243D01*
X17742Y147613D01*
X18112Y148166D01*
X18241Y148819D01*
X18112Y149472D01*
X17742Y150025D01*
X17188Y150395D01*
X16535Y150525D01*
D02*
G37*
G36*
X167717Y150131D02*
X167064Y150001D01*
X166510Y149632D01*
X166140Y149078D01*
X166010Y148425D01*
X166140Y147772D01*
X166510Y147219D01*
X167064Y146849D01*
X167717Y146719D01*
X168369Y146849D01*
X168923Y147219D01*
X169293Y147772D01*
X169422Y148425D01*
X169293Y149078D01*
X168923Y149632D01*
X168369Y150001D01*
X167717Y150131D01*
D02*
G37*
G36*
X174409Y148950D02*
X173757Y148820D01*
X173203Y148450D01*
X172833Y147897D01*
X172703Y147244D01*
X172833Y146591D01*
X173203Y146038D01*
X173757Y145668D01*
X174409Y145538D01*
X175062Y145668D01*
X175616Y146038D01*
X175986Y146591D01*
X176116Y147244D01*
X175986Y147897D01*
X175616Y148450D01*
X175062Y148820D01*
X174409Y148950D01*
D02*
G37*
G36*
X168217Y143556D02*
Y142232D01*
X169540D01*
X169493Y142468D01*
X169076Y143092D01*
X168452Y143509D01*
X168217Y143556D01*
D02*
G37*
G36*
X167217D02*
X166981Y143509D01*
X166357Y143092D01*
X165940Y142468D01*
X165893Y142232D01*
X167217D01*
Y143556D01*
D02*
G37*
G36*
X169540Y141232D02*
X168217D01*
Y139909D01*
X168452Y139956D01*
X169076Y140373D01*
X169493Y140997D01*
X169540Y141232D01*
D02*
G37*
G36*
X167217D02*
X165893D01*
X165940Y140997D01*
X166357Y140373D01*
X166981Y139956D01*
X167217Y139909D01*
Y141232D01*
D02*
G37*
G36*
X142611Y141691D02*
X141958Y141561D01*
X141405Y141191D01*
X141035Y140637D01*
X140905Y139985D01*
X141035Y139332D01*
X141405Y138778D01*
X141958Y138408D01*
X142611Y138278D01*
X143264Y138408D01*
X143817Y138778D01*
X144187Y139332D01*
X144317Y139985D01*
X144187Y140637D01*
X143817Y141191D01*
X143264Y141561D01*
X142611Y141691D01*
D02*
G37*
G36*
X187402Y134777D02*
X186749Y134647D01*
X186195Y134277D01*
X185825Y133724D01*
X185696Y133071D01*
X185825Y132418D01*
X186195Y131865D01*
X186749Y131495D01*
X187402Y131365D01*
X188054Y131495D01*
X188608Y131865D01*
X188978Y132418D01*
X189108Y133071D01*
X188978Y133724D01*
X188608Y134277D01*
X188054Y134647D01*
X187402Y134777D01*
D02*
G37*
G36*
X169685Y131627D02*
X169032Y131497D01*
X168479Y131128D01*
X168109Y130574D01*
X167979Y129921D01*
X168109Y129268D01*
X168479Y128715D01*
X169032Y128345D01*
X169685Y128215D01*
X170338Y128345D01*
X170891Y128715D01*
X171261Y129268D01*
X171391Y129921D01*
X171261Y130574D01*
X170891Y131128D01*
X170338Y131497D01*
X169685Y131627D01*
D02*
G37*
G36*
X179528Y130052D02*
X178875Y129923D01*
X178321Y129553D01*
X177951Y128999D01*
X177822Y128347D01*
X177951Y127694D01*
X178321Y127140D01*
X178875Y126770D01*
X179528Y126640D01*
X180180Y126770D01*
X180734Y127140D01*
X181104Y127694D01*
X181234Y128347D01*
X181104Y128999D01*
X180734Y129553D01*
X180180Y129923D01*
X179528Y130052D01*
D02*
G37*
G36*
X175591Y129265D02*
X174938Y129135D01*
X174384Y128765D01*
X174014Y128212D01*
X173884Y127559D01*
X174014Y126906D01*
X174384Y126353D01*
X174938Y125983D01*
X175591Y125853D01*
X176243Y125983D01*
X176797Y126353D01*
X177167Y126906D01*
X177297Y127559D01*
X177167Y128212D01*
X176797Y128765D01*
X176243Y129135D01*
X175591Y129265D01*
D02*
G37*
G36*
X169848Y126233D02*
Y124909D01*
X171171D01*
X171124Y125145D01*
X170707Y125769D01*
X170083Y126186D01*
X169848Y126233D01*
D02*
G37*
G36*
X168848D02*
X168612Y126186D01*
X167988Y125769D01*
X167571Y125145D01*
X167524Y124909D01*
X168848D01*
Y126233D01*
D02*
G37*
G36*
X6799D02*
Y124909D01*
X8123D01*
X8076Y125145D01*
X7659Y125769D01*
X7035Y126186D01*
X6799Y126233D01*
D02*
G37*
G36*
X5799D02*
X5563Y126186D01*
X4940Y125769D01*
X4523Y125145D01*
X4476Y124909D01*
X5799D01*
Y126233D01*
D02*
G37*
G36*
X34009Y128478D02*
X33356Y128348D01*
X32803Y127978D01*
X32433Y127425D01*
X32303Y126772D01*
X32433Y126119D01*
X32803Y125565D01*
X33356Y125196D01*
X34009Y125066D01*
X34558Y125175D01*
X34861Y124962D01*
X34988Y124812D01*
X34908Y124409D01*
X35038Y123757D01*
X35408Y123203D01*
X35961Y122833D01*
X36614Y122704D01*
X37267Y122833D01*
X37821Y123203D01*
X38190Y123757D01*
X38320Y124409D01*
X38190Y125062D01*
X37821Y125616D01*
X37267Y125986D01*
X36614Y126116D01*
X36066Y126006D01*
X35762Y126219D01*
X35635Y126369D01*
X35715Y126772D01*
X35585Y127425D01*
X35215Y127978D01*
X34662Y128348D01*
X34009Y128478D01*
D02*
G37*
G36*
X11024Y126116D02*
X10371Y125986D01*
X9817Y125616D01*
X9448Y125062D01*
X9318Y124409D01*
X9448Y123757D01*
X9817Y123203D01*
X10371Y122833D01*
X11024Y122703D01*
X11676Y122833D01*
X12230Y123203D01*
X12600Y123757D01*
X12730Y124409D01*
X12600Y125062D01*
X12230Y125616D01*
X11676Y125986D01*
X11024Y126116D01*
D02*
G37*
G36*
X171171Y123909D02*
X169848D01*
Y122586D01*
X170083Y122633D01*
X170707Y123050D01*
X171124Y123674D01*
X171171Y123909D01*
D02*
G37*
G36*
X168848D02*
X167524D01*
X167571Y123674D01*
X167988Y123050D01*
X168612Y122633D01*
X168848Y122586D01*
Y123909D01*
D02*
G37*
G36*
X8123D02*
X6799D01*
Y122586D01*
X7035Y122633D01*
X7659Y123050D01*
X8076Y123674D01*
X8123Y123909D01*
D02*
G37*
G36*
X5799D02*
X4476D01*
X4523Y123674D01*
X4940Y123050D01*
X5563Y122633D01*
X5799Y122586D01*
Y123909D01*
D02*
G37*
G36*
X51181Y122178D02*
X50528Y122048D01*
X49975Y121678D01*
X49605Y121125D01*
X49475Y120472D01*
X49605Y119819D01*
X49975Y119266D01*
X50528Y118896D01*
X51181Y118766D01*
X51834Y118896D01*
X52387Y119266D01*
X52757Y119819D01*
X52887Y120472D01*
X52757Y121125D01*
X52387Y121678D01*
X51834Y122048D01*
X51181Y122178D01*
D02*
G37*
G36*
X120472Y120604D02*
X119820Y120474D01*
X119266Y120104D01*
X118896Y119551D01*
X118766Y118898D01*
X118896Y118245D01*
X119266Y117691D01*
X119820Y117322D01*
X120472Y117192D01*
X121125Y117322D01*
X121679Y117691D01*
X122049Y118245D01*
X122178Y118898D01*
X122049Y119551D01*
X121679Y120104D01*
X121125Y120474D01*
X120472Y120604D01*
D02*
G37*
G36*
X48819Y119029D02*
X48166Y118899D01*
X47613Y118529D01*
X47243Y117975D01*
X47113Y117323D01*
X47243Y116670D01*
X47613Y116116D01*
X48166Y115746D01*
X48819Y115617D01*
X49472Y115746D01*
X50025Y116116D01*
X50395Y116670D01*
X50525Y117323D01*
X50395Y117975D01*
X50025Y118529D01*
X49472Y118899D01*
X48819Y119029D01*
D02*
G37*
G36*
X187402Y115092D02*
X186749Y114962D01*
X186195Y114592D01*
X185825Y114039D01*
X185696Y113386D01*
X185825Y112733D01*
X186195Y112180D01*
X186749Y111810D01*
X187402Y111680D01*
X188054Y111810D01*
X188608Y112180D01*
X188978Y112733D01*
X189108Y113386D01*
X188978Y114039D01*
X188608Y114592D01*
X188054Y114962D01*
X187402Y115092D01*
D02*
G37*
G36*
X131996Y111272D02*
Y109949D01*
X133319D01*
X133273Y110185D01*
X132856Y110808D01*
X132232Y111225D01*
X131996Y111272D01*
D02*
G37*
G36*
X130996D02*
X130760Y111225D01*
X130137Y110808D01*
X129720Y110185D01*
X129673Y109949D01*
X130996D01*
Y111272D01*
D02*
G37*
G36*
X133319Y108949D02*
X131996D01*
Y107625D01*
X132232Y107672D01*
X132856Y108089D01*
X133273Y108713D01*
X133319Y108949D01*
D02*
G37*
G36*
X130996D02*
X129673D01*
X129720Y108713D01*
X130137Y108089D01*
X130760Y107672D01*
X130996Y107625D01*
Y108949D01*
D02*
G37*
G36*
X141732Y111798D02*
X140819Y111678D01*
X139967Y111325D01*
X139236Y110764D01*
X138675Y110033D01*
X138322Y109181D01*
X138202Y108268D01*
X138322Y107354D01*
X138675Y106503D01*
X139236Y105772D01*
X139967Y105210D01*
X140819Y104858D01*
X141732Y104737D01*
X142646Y104858D01*
X143497Y105210D01*
X144228Y105772D01*
X144790Y106503D01*
X145142Y107354D01*
X145263Y108268D01*
X145142Y109181D01*
X144790Y110033D01*
X144228Y110764D01*
X143497Y111325D01*
X142646Y111678D01*
X141732Y111798D01*
D02*
G37*
G36*
X146957Y105760D02*
Y104437D01*
X148280D01*
X148233Y104673D01*
X147816Y105297D01*
X147193Y105713D01*
X146957Y105760D01*
D02*
G37*
G36*
X145957D02*
X145721Y105713D01*
X145097Y105297D01*
X144680Y104673D01*
X144633Y104437D01*
X145957D01*
Y105760D01*
D02*
G37*
G36*
X136721D02*
Y104437D01*
X138044D01*
X137997Y104673D01*
X137580Y105297D01*
X136956Y105713D01*
X136721Y105760D01*
D02*
G37*
G36*
X135721D02*
X135485Y105713D01*
X134861Y105297D01*
X134444Y104673D01*
X134397Y104437D01*
X135721D01*
Y105760D01*
D02*
G37*
G36*
X148280Y103437D02*
X146957D01*
Y102114D01*
X147193Y102161D01*
X147816Y102577D01*
X148233Y103201D01*
X148280Y103437D01*
D02*
G37*
G36*
X145957D02*
X144633D01*
X144680Y103201D01*
X145097Y102577D01*
X145721Y102161D01*
X145957Y102114D01*
Y103437D01*
D02*
G37*
G36*
X138044D02*
X136721D01*
Y102114D01*
X136956Y102161D01*
X137580Y102577D01*
X137997Y103201D01*
X138044Y103437D01*
D02*
G37*
G36*
X135721D02*
X134397D01*
X134444Y103201D01*
X134861Y102577D01*
X135485Y102161D01*
X135721Y102114D01*
Y103437D01*
D02*
G37*
G36*
X151681Y101823D02*
Y100500D01*
X153004D01*
X152957Y100736D01*
X152541Y101360D01*
X151917Y101776D01*
X151681Y101823D01*
D02*
G37*
G36*
X150681D02*
X150445Y101776D01*
X149821Y101360D01*
X149405Y100736D01*
X149358Y100500D01*
X150681D01*
Y101823D01*
D02*
G37*
G36*
X153004Y99500D02*
X151681D01*
Y98177D01*
X151917Y98224D01*
X152541Y98640D01*
X152957Y99264D01*
X153004Y99500D01*
D02*
G37*
G36*
X150681D02*
X149358D01*
X149405Y99264D01*
X149821Y98640D01*
X150445Y98224D01*
X150681Y98177D01*
Y99500D01*
D02*
G37*
G36*
X113386Y100131D02*
X112733Y100001D01*
X112180Y99632D01*
X111810Y99078D01*
X111680Y98425D01*
X111810Y97772D01*
X112180Y97219D01*
X112733Y96849D01*
X113386Y96719D01*
X114039Y96849D01*
X114592Y97219D01*
X114962Y97772D01*
X115092Y98425D01*
X114962Y99078D01*
X114592Y99632D01*
X114039Y100001D01*
X113386Y100131D01*
D02*
G37*
G36*
X150106Y95524D02*
Y94201D01*
X151430D01*
X151383Y94437D01*
X150966Y95060D01*
X150342Y95477D01*
X150106Y95524D01*
D02*
G37*
G36*
X149106D02*
X148871Y95477D01*
X148247Y95060D01*
X147830Y94437D01*
X147783Y94201D01*
X149106D01*
Y95524D01*
D02*
G37*
G36*
X151430Y93201D02*
X150106D01*
Y91878D01*
X150342Y91924D01*
X150966Y92341D01*
X151383Y92965D01*
X151430Y93201D01*
D02*
G37*
G36*
X149106D02*
X147783D01*
X147830Y92965D01*
X148247Y92341D01*
X148871Y91924D01*
X149106Y91878D01*
Y93201D01*
D02*
G37*
G36*
X36720Y90800D02*
Y89476D01*
X38044D01*
X37997Y89712D01*
X37580Y90336D01*
X36956Y90753D01*
X36720Y90800D01*
D02*
G37*
G36*
X35721D02*
X35485Y90753D01*
X34861Y90336D01*
X34444Y89712D01*
X34397Y89476D01*
X35721D01*
Y90800D01*
D02*
G37*
G36*
X6799D02*
Y89476D01*
X8123D01*
X8076Y89712D01*
X7659Y90336D01*
X7035Y90753D01*
X6799Y90800D01*
D02*
G37*
G36*
X5799D02*
X5563Y90753D01*
X4940Y90336D01*
X4523Y89712D01*
X4476Y89476D01*
X5799D01*
Y90800D01*
D02*
G37*
G36*
X41122Y90860D02*
X40469Y90730D01*
X39916Y90360D01*
X39546Y89806D01*
X39416Y89153D01*
X39546Y88501D01*
X39916Y87947D01*
X40469Y87577D01*
X41122Y87448D01*
X41775Y87577D01*
X42328Y87947D01*
X42698Y88501D01*
X42828Y89153D01*
X42698Y89806D01*
X42328Y90360D01*
X41775Y90730D01*
X41122Y90860D01*
D02*
G37*
G36*
X38044Y88476D02*
X36720D01*
Y87153D01*
X36956Y87200D01*
X37580Y87617D01*
X37997Y88241D01*
X38044Y88476D01*
D02*
G37*
G36*
X35721D02*
X34397D01*
X34444Y88241D01*
X34861Y87617D01*
X35485Y87200D01*
X35721Y87153D01*
Y88476D01*
D02*
G37*
G36*
X8123D02*
X6799D01*
Y87153D01*
X7035Y87200D01*
X7659Y87617D01*
X8076Y88241D01*
X8123Y88476D01*
D02*
G37*
G36*
X5799D02*
X4476D01*
X4523Y88241D01*
X4940Y87617D01*
X5563Y87200D01*
X5799Y87153D01*
Y88476D01*
D02*
G37*
G36*
X185433Y89895D02*
X184780Y89765D01*
X184227Y89395D01*
X183857Y88842D01*
X183727Y88189D01*
X183857Y87536D01*
X184227Y86983D01*
X184780Y86613D01*
X185433Y86483D01*
X186086Y86613D01*
X186639Y86983D01*
X187009Y87536D01*
X187139Y88189D01*
X187009Y88842D01*
X186639Y89395D01*
X186086Y89765D01*
X185433Y89895D01*
D02*
G37*
G36*
X120972Y84500D02*
Y83177D01*
X122296D01*
X122249Y83413D01*
X121832Y84037D01*
X121208Y84454D01*
X120972Y84500D01*
D02*
G37*
G36*
X119972D02*
X119737Y84454D01*
X119113Y84037D01*
X118696Y83413D01*
X118649Y83177D01*
X119972D01*
Y84500D01*
D02*
G37*
G36*
X187429Y84749D02*
X186776Y84619D01*
X186223Y84249D01*
X185853Y83696D01*
X185723Y83043D01*
X185853Y82390D01*
X186223Y81836D01*
X186776Y81467D01*
X187429Y81337D01*
X188082Y81467D01*
X188635Y81836D01*
X189005Y82390D01*
X189135Y83043D01*
X189005Y83696D01*
X188635Y84249D01*
X188082Y84619D01*
X187429Y84749D01*
D02*
G37*
G36*
X122296Y82177D02*
X120972D01*
Y80854D01*
X121208Y80901D01*
X121832Y81318D01*
X122249Y81941D01*
X122296Y82177D01*
D02*
G37*
G36*
X119972D02*
X118649D01*
X118696Y81941D01*
X119113Y81318D01*
X119737Y80901D01*
X119972Y80854D01*
Y82177D01*
D02*
G37*
G36*
X92913Y93288D02*
X91688Y93167D01*
X90510Y92810D01*
X89424Y92230D01*
X88473Y91449D01*
X87691Y90497D01*
X87111Y89411D01*
X86754Y88233D01*
X86633Y87008D01*
X86754Y85783D01*
X87111Y84605D01*
X87691Y83519D01*
X88473Y82567D01*
X89424Y81786D01*
X90510Y81206D01*
X91688Y80848D01*
X92913Y80728D01*
X94139Y80848D01*
X95317Y81206D01*
X96403Y81786D01*
X97354Y82567D01*
X98135Y83519D01*
X98716Y84605D01*
X99073Y85783D01*
X99194Y87008D01*
X99073Y88233D01*
X98716Y89411D01*
X98135Y90497D01*
X97354Y91449D01*
X96403Y92230D01*
X95317Y92810D01*
X94139Y93167D01*
X92913Y93288D01*
D02*
G37*
G36*
X181890Y82808D02*
X181237Y82679D01*
X180683Y82309D01*
X180314Y81755D01*
X180184Y81102D01*
X180314Y80449D01*
X180683Y79896D01*
X181237Y79526D01*
X181890Y79396D01*
X182543Y79526D01*
X183096Y79896D01*
X183466Y80449D01*
X183596Y81102D01*
X183466Y81755D01*
X183096Y82309D01*
X182543Y82679D01*
X181890Y82808D01*
D02*
G37*
G36*
X6733Y78135D02*
Y76811D01*
X8056D01*
X8009Y77047D01*
X7592Y77671D01*
X6969Y78088D01*
X6733Y78135D01*
D02*
G37*
G36*
X5733D02*
X5497Y78088D01*
X4873Y77671D01*
X4456Y77047D01*
X4409Y76811D01*
X5733D01*
Y78135D01*
D02*
G37*
G36*
X189764Y78871D02*
X189111Y78742D01*
X188558Y78372D01*
X188188Y77818D01*
X188058Y77165D01*
X188188Y76512D01*
X188558Y75959D01*
X189111Y75589D01*
X189764Y75459D01*
X190417Y75589D01*
X190970Y75959D01*
X191340Y76512D01*
X191470Y77165D01*
X191340Y77818D01*
X190970Y78372D01*
X190417Y78742D01*
X189764Y78871D01*
D02*
G37*
G36*
X8056Y75811D02*
X6733D01*
Y74488D01*
X6969Y74535D01*
X7592Y74952D01*
X8009Y75576D01*
X8056Y75811D01*
D02*
G37*
G36*
X5733D02*
X4409D01*
X4456Y75576D01*
X4873Y74952D01*
X5497Y74535D01*
X5733Y74488D01*
Y75811D01*
D02*
G37*
G36*
X77165Y85414D02*
X75940Y85293D01*
X74762Y84936D01*
X73676Y84356D01*
X72724Y83575D01*
X71943Y82623D01*
X71363Y81537D01*
X71006Y80359D01*
X70885Y79134D01*
X71006Y77909D01*
X71363Y76731D01*
X71943Y75645D01*
X72724Y74693D01*
X73676Y73912D01*
X74762Y73332D01*
X75940Y72974D01*
X77165Y72854D01*
X78391Y72974D01*
X79569Y73332D01*
X80655Y73912D01*
X81606Y74693D01*
X82387Y75645D01*
X82968Y76731D01*
X83325Y77909D01*
X83446Y79134D01*
X83325Y80359D01*
X82968Y81537D01*
X82387Y82623D01*
X81606Y83575D01*
X80655Y84356D01*
X79569Y84936D01*
X78391Y85293D01*
X77165Y85414D01*
D02*
G37*
G36*
X161417Y73360D02*
X160765Y73230D01*
X160211Y72860D01*
X159841Y72306D01*
X159711Y71653D01*
X159841Y71001D01*
X160211Y70447D01*
X160765Y70077D01*
X161417Y69947D01*
X162070Y70077D01*
X162624Y70447D01*
X162994Y71001D01*
X163123Y71653D01*
X162994Y72306D01*
X162624Y72860D01*
X162070Y73230D01*
X161417Y73360D01*
D02*
G37*
G36*
X155905Y70997D02*
X155253Y70868D01*
X154699Y70498D01*
X154329Y69944D01*
X154200Y69291D01*
X154329Y68638D01*
X154699Y68085D01*
X155253Y67715D01*
X155905Y67585D01*
X156558Y67715D01*
X157112Y68085D01*
X157482Y68638D01*
X157612Y69291D01*
X157482Y69944D01*
X157112Y70498D01*
X156558Y70868D01*
X155905Y70997D01*
D02*
G37*
G36*
X192126Y69423D02*
X191473Y69293D01*
X190920Y68923D01*
X190550Y68369D01*
X190420Y67716D01*
X190550Y67064D01*
X190920Y66510D01*
X191473Y66140D01*
X192126Y66010D01*
X192779Y66140D01*
X193332Y66510D01*
X193702Y67064D01*
X193832Y67716D01*
X193702Y68369D01*
X193332Y68923D01*
X192779Y69293D01*
X192126Y69423D01*
D02*
G37*
G36*
X92913Y77540D02*
X91688Y77419D01*
X90510Y77062D01*
X89424Y76482D01*
X88473Y75701D01*
X87691Y74749D01*
X87111Y73663D01*
X86754Y72485D01*
X86633Y71260D01*
X86754Y70035D01*
X87111Y68857D01*
X87691Y67771D01*
X88473Y66819D01*
X89424Y66038D01*
X90510Y65458D01*
X91688Y65100D01*
X92913Y64980D01*
X94139Y65100D01*
X95317Y65458D01*
X96403Y66038D01*
X97354Y66819D01*
X98135Y67771D01*
X98716Y68857D01*
X99073Y70035D01*
X99194Y71260D01*
X99073Y72485D01*
X98716Y73663D01*
X98135Y74749D01*
X97354Y75701D01*
X96403Y76482D01*
X95317Y77062D01*
X94139Y77419D01*
X92913Y77540D01*
D02*
G37*
G36*
X61417D02*
X60192Y77419D01*
X59014Y77062D01*
X57928Y76482D01*
X56976Y75701D01*
X56195Y74749D01*
X55615Y73663D01*
X55258Y72485D01*
X55137Y71260D01*
X55258Y70035D01*
X55615Y68857D01*
X56195Y67771D01*
X56976Y66819D01*
X57928Y66038D01*
X59014Y65458D01*
X60192Y65100D01*
X61417Y64980D01*
X62643Y65100D01*
X63821Y65458D01*
X64906Y66038D01*
X65858Y66819D01*
X66639Y67771D01*
X67220Y68857D01*
X67577Y70035D01*
X67698Y71260D01*
X67577Y72485D01*
X67220Y73663D01*
X66639Y74749D01*
X65858Y75701D01*
X64906Y76482D01*
X63821Y77062D01*
X62643Y77419D01*
X61417Y77540D01*
D02*
G37*
G36*
X159055Y67848D02*
X158402Y67718D01*
X157849Y67348D01*
X157479Y66795D01*
X157349Y66142D01*
X157479Y65489D01*
X157849Y64935D01*
X158402Y64566D01*
X159055Y64436D01*
X159708Y64566D01*
X160261Y64935D01*
X160631Y65489D01*
X160761Y66142D01*
X160631Y66795D01*
X160261Y67348D01*
X159708Y67718D01*
X159055Y67848D01*
D02*
G37*
G36*
X153543D02*
X152891Y67718D01*
X152337Y67348D01*
X151967Y66795D01*
X151837Y66142D01*
X151967Y65489D01*
X152337Y64935D01*
X152891Y64566D01*
X153543Y64436D01*
X154196Y64566D01*
X154750Y64935D01*
X155120Y65489D01*
X155249Y66142D01*
X155120Y66795D01*
X154750Y67348D01*
X154196Y67718D01*
X153543Y67848D01*
D02*
G37*
G36*
X41732Y65092D02*
X41079Y64962D01*
X40526Y64592D01*
X40156Y64039D01*
X40026Y63386D01*
X40156Y62733D01*
X40526Y62179D01*
X41079Y61810D01*
X41732Y61680D01*
X42385Y61810D01*
X42939Y62179D01*
X43308Y62733D01*
X43438Y63386D01*
X43308Y64039D01*
X42939Y64592D01*
X42385Y64962D01*
X41732Y65092D01*
D02*
G37*
G36*
X150394Y64698D02*
X149741Y64568D01*
X149187Y64198D01*
X148818Y63645D01*
X148688Y62992D01*
X148818Y62339D01*
X149187Y61786D01*
X149741Y61416D01*
X150394Y61286D01*
X151047Y61416D01*
X151600Y61786D01*
X151970Y62339D01*
X152100Y62992D01*
X151970Y63645D01*
X151600Y64198D01*
X151047Y64568D01*
X150394Y64698D01*
D02*
G37*
G36*
X51181Y60761D02*
X50528Y60631D01*
X49975Y60261D01*
X49605Y59708D01*
X49475Y59055D01*
X49605Y58402D01*
X49975Y57849D01*
X50528Y57479D01*
X51181Y57349D01*
X51834Y57479D01*
X52387Y57849D01*
X52757Y58402D01*
X52887Y59055D01*
X52757Y59708D01*
X52387Y60261D01*
X51834Y60631D01*
X51181Y60761D01*
D02*
G37*
G36*
X148531Y53004D02*
Y51681D01*
X149855D01*
X149808Y51917D01*
X149391Y52541D01*
X148767Y52957D01*
X148531Y53004D01*
D02*
G37*
G36*
X147531D02*
X147296Y52957D01*
X146672Y52541D01*
X146255Y51917D01*
X146208Y51681D01*
X147531D01*
Y53004D01*
D02*
G37*
G36*
X149855Y50681D02*
X148531D01*
Y49358D01*
X148767Y49405D01*
X149391Y49821D01*
X149808Y50445D01*
X149855Y50681D01*
D02*
G37*
G36*
X147531D02*
X146208D01*
X146255Y50445D01*
X146672Y49821D01*
X147296Y49405D01*
X147531Y49358D01*
Y50681D01*
D02*
G37*
G36*
X112311Y48280D02*
Y46957D01*
X113634D01*
X113587Y47192D01*
X113171Y47816D01*
X112547Y48233D01*
X112311Y48280D01*
D02*
G37*
G36*
X111311D02*
X111075Y48233D01*
X110451Y47816D01*
X110035Y47192D01*
X109988Y46957D01*
X111311D01*
Y48280D01*
D02*
G37*
G36*
X113634Y45957D02*
X112311D01*
Y44633D01*
X112547Y44680D01*
X113171Y45097D01*
X113587Y45721D01*
X113634Y45957D01*
D02*
G37*
G36*
X111311D02*
X109988D01*
X110035Y45721D01*
X110451Y45097D01*
X111075Y44680D01*
X111311Y44633D01*
Y45957D01*
D02*
G37*
G36*
X36622Y42867D02*
Y41543D01*
X37945D01*
X37898Y41779D01*
X37482Y42403D01*
X36858Y42820D01*
X36622Y42867D01*
D02*
G37*
G36*
X35622D02*
X35386Y42820D01*
X34762Y42403D01*
X34346Y41779D01*
X34299Y41543D01*
X35622D01*
Y42867D01*
D02*
G37*
G36*
X41122Y43615D02*
X40469Y43486D01*
X39916Y43116D01*
X39546Y42562D01*
X39416Y41909D01*
X39546Y41257D01*
X39916Y40703D01*
X40469Y40333D01*
X41122Y40203D01*
X41775Y40333D01*
X42328Y40703D01*
X42698Y41257D01*
X42828Y41909D01*
X42698Y42562D01*
X42328Y43116D01*
X41775Y43486D01*
X41122Y43615D01*
D02*
G37*
G36*
X37945Y40543D02*
X36622D01*
Y39220D01*
X36858Y39267D01*
X37482Y39684D01*
X37898Y40308D01*
X37945Y40543D01*
D02*
G37*
G36*
X35622D02*
X34299D01*
X34346Y40308D01*
X34762Y39684D01*
X35386Y39267D01*
X35622Y39220D01*
Y40543D01*
D02*
G37*
G36*
X101362Y40501D02*
X100709Y40371D01*
X100156Y40002D01*
X99786Y39448D01*
X99656Y38795D01*
X99786Y38142D01*
X100156Y37589D01*
X100709Y37219D01*
X101362Y37089D01*
X102015Y37219D01*
X102568Y37589D01*
X102938Y38142D01*
X103068Y38795D01*
X102938Y39448D01*
X102568Y40002D01*
X102015Y40371D01*
X101362Y40501D01*
D02*
G37*
G36*
X73228Y40289D02*
X72575Y40159D01*
X72022Y39789D01*
X71652Y39235D01*
X71522Y38583D01*
X71652Y37930D01*
X72022Y37376D01*
X72575Y37007D01*
X73228Y36877D01*
X73881Y37007D01*
X74435Y37376D01*
X74805Y37930D01*
X74934Y38583D01*
X74805Y39235D01*
X74435Y39789D01*
X73881Y40159D01*
X73228Y40289D01*
D02*
G37*
G36*
X83571Y38044D02*
Y36720D01*
X84894D01*
X84847Y36956D01*
X84430Y37580D01*
X83807Y37997D01*
X83571Y38044D01*
D02*
G37*
G36*
X82571D02*
X82335Y37997D01*
X81711Y37580D01*
X81295Y36956D01*
X81248Y36720D01*
X82571D01*
Y38044D01*
D02*
G37*
G36*
X125189Y38722D02*
X124536Y38592D01*
X123983Y38222D01*
X123613Y37669D01*
X123483Y37016D01*
X123613Y36363D01*
X123983Y35809D01*
X124536Y35440D01*
X125189Y35310D01*
X125842Y35440D01*
X126395Y35809D01*
X126765Y36363D01*
X126895Y37016D01*
X126765Y37669D01*
X126395Y38222D01*
X125842Y38592D01*
X125189Y38722D01*
D02*
G37*
G36*
X84894Y35721D02*
X83571D01*
Y34397D01*
X83807Y34444D01*
X84430Y34861D01*
X84847Y35485D01*
X84894Y35721D01*
D02*
G37*
G36*
X82571D02*
X81248D01*
X81295Y35485D01*
X81711Y34861D01*
X82335Y34444D01*
X82571Y34397D01*
Y35721D01*
D02*
G37*
G36*
X163779Y33990D02*
X163127Y33860D01*
X162573Y33490D01*
X162203Y32936D01*
X162074Y32283D01*
X162203Y31631D01*
X162573Y31077D01*
X163127Y30707D01*
X163779Y30577D01*
X164432Y30707D01*
X164986Y31077D01*
X165356Y31631D01*
X165486Y32283D01*
X165356Y32936D01*
X164986Y33490D01*
X164432Y33860D01*
X163779Y33990D01*
D02*
G37*
G36*
X111811Y32415D02*
X111158Y32285D01*
X110605Y31915D01*
X110235Y31361D01*
X110105Y30709D01*
X110197Y30248D01*
X109729Y30036D01*
X109230Y30687D01*
X108198Y31478D01*
X106998Y31975D01*
X105709Y32145D01*
X104420Y31975D01*
X103219Y31478D01*
X102188Y30687D01*
X101396Y29655D01*
X100899Y28454D01*
X100729Y27165D01*
X100899Y25877D01*
X101396Y24676D01*
X102188Y23644D01*
X103219Y22853D01*
X104420Y22355D01*
X105709Y22186D01*
X106998Y22355D01*
X108198Y22853D01*
X109230Y23644D01*
X110021Y24676D01*
X110519Y25877D01*
X110688Y27165D01*
X110519Y28454D01*
X110263Y29070D01*
X110597Y29474D01*
X110634Y29483D01*
X111158Y29133D01*
X111811Y29003D01*
X112464Y29133D01*
X113017Y29502D01*
X113387Y30056D01*
X113517Y30709D01*
X113387Y31361D01*
X113017Y31915D01*
X112464Y32285D01*
X111811Y32415D01*
D02*
G37*
G36*
X173728Y30957D02*
Y29634D01*
X175052D01*
X175005Y29870D01*
X174588Y30494D01*
X173964Y30910D01*
X173728Y30957D01*
D02*
G37*
G36*
X172728D02*
X172493Y30910D01*
X171869Y30494D01*
X171452Y29870D01*
X171405Y29634D01*
X172728D01*
Y30957D01*
D02*
G37*
G36*
X93307Y32808D02*
X92654Y32678D01*
X92101Y32309D01*
X91731Y31755D01*
X91601Y31102D01*
X91731Y30450D01*
X92101Y29896D01*
X92654Y29526D01*
X93307Y29396D01*
X93960Y29526D01*
X94513Y29896D01*
X94883Y30450D01*
X95013Y31102D01*
X94883Y31755D01*
X94513Y32309D01*
X93960Y32678D01*
X93307Y32808D01*
D02*
G37*
G36*
X34646Y38050D02*
X33357Y37881D01*
X32156Y37383D01*
X31124Y36592D01*
X30333Y35561D01*
X29836Y34360D01*
X29666Y33071D01*
X29836Y31782D01*
X30333Y30581D01*
X31124Y29550D01*
X32156Y28758D01*
X33357Y28261D01*
X34646Y28091D01*
X35934Y28261D01*
X37135Y28758D01*
X38167Y29550D01*
X38958Y30581D01*
X39456Y31782D01*
X39625Y33071D01*
X39456Y34360D01*
X38958Y35561D01*
X38167Y36592D01*
X37135Y37383D01*
X35934Y37881D01*
X34646Y38050D01*
D02*
G37*
G36*
X146457Y30840D02*
X145804Y30710D01*
X145250Y30340D01*
X144880Y29787D01*
X144751Y29134D01*
X144880Y28481D01*
X145250Y27928D01*
X145804Y27558D01*
X146457Y27428D01*
X147109Y27558D01*
X147663Y27928D01*
X148033Y28481D01*
X148163Y29134D01*
X148033Y29787D01*
X147663Y30340D01*
X147109Y30710D01*
X146457Y30840D01*
D02*
G37*
G36*
X175052Y28634D02*
X173728D01*
Y27311D01*
X173964Y27358D01*
X174588Y27774D01*
X175005Y28398D01*
X175052Y28634D01*
D02*
G37*
G36*
X172728D02*
X171405D01*
X171452Y28398D01*
X171869Y27774D01*
X172493Y27358D01*
X172728Y27311D01*
Y28634D01*
D02*
G37*
G36*
X163779Y17454D02*
X163127Y17324D01*
X162573Y16954D01*
X162203Y16401D01*
X162074Y15748D01*
X162203Y15095D01*
X162573Y14542D01*
X163127Y14172D01*
X163779Y14042D01*
X164432Y14172D01*
X164986Y14542D01*
X165356Y15095D01*
X165486Y15748D01*
X165356Y16401D01*
X164986Y16954D01*
X164432Y17324D01*
X163779Y17454D01*
D02*
G37*
G36*
X51681Y15209D02*
Y13886D01*
X53004D01*
X52957Y14122D01*
X52541Y14745D01*
X51917Y15162D01*
X51681Y15209D01*
D02*
G37*
G36*
X50681D02*
X50445Y15162D01*
X49821Y14745D01*
X49405Y14122D01*
X49358Y13886D01*
X50681D01*
Y15209D01*
D02*
G37*
G36*
X143307Y15092D02*
X142654Y14962D01*
X142101Y14592D01*
X141731Y14039D01*
X141601Y13386D01*
X141731Y12733D01*
X142101Y12179D01*
X142654Y11810D01*
X143307Y11680D01*
X143960Y11810D01*
X144513Y12179D01*
X144883Y12733D01*
X145013Y13386D01*
X144883Y14039D01*
X144513Y14592D01*
X143960Y14962D01*
X143307Y15092D01*
D02*
G37*
G36*
X74803D02*
X74150Y14962D01*
X73597Y14592D01*
X73227Y14039D01*
X73097Y13386D01*
X73227Y12733D01*
X73597Y12179D01*
X74150Y11810D01*
X74803Y11680D01*
X75456Y11810D01*
X76010Y12179D01*
X76379Y12733D01*
X76509Y13386D01*
X76379Y14039D01*
X76010Y14592D01*
X75456Y14962D01*
X74803Y15092D01*
D02*
G37*
G36*
X53004Y12886D02*
X51681D01*
Y11563D01*
X51917Y11609D01*
X52541Y12026D01*
X52957Y12650D01*
X53004Y12886D01*
D02*
G37*
G36*
X50681D02*
X49358D01*
X49405Y12650D01*
X49821Y12026D01*
X50445Y11609D01*
X50681Y11563D01*
Y12886D01*
D02*
G37*
G36*
X149319Y4973D02*
Y3650D01*
X150642D01*
X150595Y3885D01*
X150179Y4509D01*
X149555Y4926D01*
X149319Y4973D01*
D02*
G37*
G36*
X148319D02*
X148083Y4926D01*
X147459Y4509D01*
X147043Y3885D01*
X146996Y3650D01*
X148319D01*
Y4973D01*
D02*
G37*
%LPD*%
G36*
X127748Y350197D02*
X127731Y350194D01*
X127709Y350184D01*
X127682Y350167D01*
X127649Y350144D01*
X127569Y350078D01*
X127467Y349986D01*
X127345Y349867D01*
X126638Y350574D01*
X126701Y350637D01*
X126939Y350910D01*
X126956Y350937D01*
X126965Y350959D01*
X126969Y350976D01*
X127748Y350197D01*
D02*
G37*
G36*
X120973Y329338D02*
X120998Y328976D01*
X121005Y328946D01*
X121014Y328923D01*
X121024Y328909D01*
X119921D01*
X119931Y328923D01*
X119940Y328946D01*
X119947Y328976D01*
X119954Y329016D01*
X119964Y329119D01*
X119970Y329257D01*
X119972Y329427D01*
X120972D01*
X120973Y329338D01*
D02*
G37*
G36*
X169291Y337795D02*
X171653Y335433D01*
Y332283D01*
X156693Y317323D01*
Y276577D01*
X156193Y276527D01*
X156076Y277114D01*
X155659Y277738D01*
X155036Y278154D01*
X154800Y278201D01*
Y276378D01*
X154300D01*
Y275878D01*
X152477D01*
X152524Y275642D01*
X152940Y275018D01*
X153564Y274602D01*
X153908Y274533D01*
X154138Y273978D01*
X154129Y273964D01*
X154082Y273728D01*
X155905D01*
Y272728D01*
X153865D01*
X153630Y272441D01*
X129835Y272441D01*
X129599Y272728D01*
X127559D01*
Y273728D01*
X129382D01*
X129335Y273964D01*
X129326Y273978D01*
X129557Y274533D01*
X129901Y274602D01*
X130524Y275018D01*
X130941Y275642D01*
X130988Y275878D01*
X129165D01*
Y276378D01*
X128665D01*
Y278201D01*
X128429Y278154D01*
X127805Y277738D01*
X127388Y277114D01*
X127272Y276527D01*
X126772Y276576D01*
X126772Y307874D01*
X156693Y337795D01*
X169291Y337795D01*
D02*
G37*
%LPC*%
G36*
X169004Y336469D02*
Y335146D01*
X170327D01*
X170280Y335382D01*
X169863Y336005D01*
X169240Y336422D01*
X169004Y336469D01*
D02*
G37*
G36*
X168004D02*
X167768Y336422D01*
X167144Y336005D01*
X166727Y335382D01*
X166681Y335146D01*
X168004D01*
Y336469D01*
D02*
G37*
G36*
X160917D02*
X160681Y336422D01*
X160058Y336005D01*
X159641Y335382D01*
X159594Y335146D01*
X160917D01*
Y336469D01*
D02*
G37*
G36*
X156980Y334894D02*
X156745Y334847D01*
X156121Y334431D01*
X155704Y333807D01*
X155657Y333571D01*
X156980D01*
Y334894D01*
D02*
G37*
G36*
X170327Y334146D02*
X169004D01*
Y332822D01*
X169240Y332869D01*
X169863Y333286D01*
X170280Y333910D01*
X170327Y334146D01*
D02*
G37*
G36*
X165067Y334894D02*
Y333571D01*
X166599D01*
X166877Y333686D01*
X167144Y333286D01*
X167768Y332869D01*
X168004Y332822D01*
Y334146D01*
X166472D01*
X166194Y334031D01*
X165927Y334431D01*
X165303Y334847D01*
X165067Y334894D01*
D02*
G37*
G36*
X157980D02*
Y333571D01*
X159513D01*
X159791Y333686D01*
X160058Y333286D01*
X160681Y332869D01*
X160917Y332822D01*
Y334146D01*
X159385D01*
X159107Y334031D01*
X158840Y334431D01*
X158216Y334847D01*
X157980Y334894D01*
D02*
G37*
G36*
X166390Y332571D02*
X165067D01*
Y331248D01*
X165303Y331294D01*
X165927Y331711D01*
X166343Y332335D01*
X166390Y332571D01*
D02*
G37*
G36*
X161917Y336469D02*
Y334646D01*
Y332822D01*
X162153Y332869D01*
X162172Y332882D01*
X162727Y332652D01*
X162791Y332335D01*
X163207Y331711D01*
X163831Y331294D01*
X164067Y331248D01*
Y333071D01*
Y334894D01*
X163831Y334847D01*
X163812Y334835D01*
X163257Y335065D01*
X163194Y335382D01*
X162777Y336005D01*
X162153Y336422D01*
X161917Y336469D01*
D02*
G37*
G36*
X159304Y332571D02*
X157980D01*
Y331248D01*
X158216Y331294D01*
X158840Y331711D01*
X159257Y332335D01*
X159304Y332571D01*
D02*
G37*
G36*
X156980D02*
X155657D01*
X155704Y332335D01*
X156121Y331711D01*
X156745Y331294D01*
X156980Y331248D01*
Y332571D01*
D02*
G37*
G36*
X135433Y300919D02*
X134780Y300789D01*
X134227Y300419D01*
X133857Y299866D01*
X133727Y299213D01*
X133857Y298560D01*
X134227Y298006D01*
X134780Y297637D01*
X135433Y297507D01*
X136086Y297637D01*
X136639Y298006D01*
X137009Y298560D01*
X137139Y299213D01*
X137009Y299866D01*
X136639Y300419D01*
X136086Y300789D01*
X135433Y300919D01*
D02*
G37*
G36*
X148819Y300131D02*
X148166Y300001D01*
X147613Y299632D01*
X147243Y299078D01*
X147113Y298425D01*
X147243Y297772D01*
X147613Y297219D01*
X148166Y296849D01*
X148819Y296719D01*
X149472Y296849D01*
X150025Y297219D01*
X150395Y297772D01*
X150525Y298425D01*
X150395Y299078D01*
X150025Y299632D01*
X149472Y300001D01*
X148819Y300131D01*
D02*
G37*
G36*
X129921Y296982D02*
X129268Y296852D01*
X128715Y296482D01*
X128345Y295929D01*
X128215Y295276D01*
X128345Y294623D01*
X128715Y294069D01*
X129268Y293699D01*
X129921Y293570D01*
X130574Y293699D01*
X131128Y294069D01*
X131497Y294623D01*
X131627Y295276D01*
X131497Y295929D01*
X131128Y296482D01*
X130574Y296852D01*
X129921Y296982D01*
D02*
G37*
G36*
X151969Y294619D02*
X151316Y294490D01*
X150762Y294120D01*
X150392Y293566D01*
X150262Y292913D01*
X150392Y292261D01*
X150762Y291707D01*
X151316Y291337D01*
X151969Y291207D01*
X152621Y291337D01*
X153175Y291707D01*
X153545Y292261D01*
X153674Y292913D01*
X153545Y293566D01*
X153175Y294120D01*
X152621Y294490D01*
X151969Y294619D01*
D02*
G37*
G36*
X135433D02*
X134780Y294490D01*
X134227Y294120D01*
X133857Y293566D01*
X133727Y292913D01*
X133857Y292261D01*
X134227Y291707D01*
X134780Y291337D01*
X135433Y291207D01*
X136086Y291337D01*
X136639Y291707D01*
X137009Y292261D01*
X137139Y292913D01*
X137009Y293566D01*
X136639Y294120D01*
X136086Y294490D01*
X135433Y294619D01*
D02*
G37*
G36*
X146457Y293045D02*
X145804Y292915D01*
X145250Y292545D01*
X144880Y291991D01*
X144751Y291339D01*
X144880Y290686D01*
X145250Y290132D01*
X145804Y289762D01*
X146457Y289633D01*
X147109Y289762D01*
X147663Y290132D01*
X148033Y290686D01*
X148163Y291339D01*
X148033Y291991D01*
X147663Y292545D01*
X147109Y292915D01*
X146457Y293045D01*
D02*
G37*
G36*
X129921Y290682D02*
X129268Y290552D01*
X128715Y290183D01*
X128345Y289629D01*
X128215Y288976D01*
X128345Y288323D01*
X128715Y287770D01*
X129268Y287400D01*
X129921Y287270D01*
X130574Y287400D01*
X131128Y287770D01*
X131497Y288323D01*
X131627Y288976D01*
X131497Y289629D01*
X131128Y290183D01*
X130574Y290552D01*
X129921Y290682D01*
D02*
G37*
G36*
X151181Y288320D02*
X150528Y288190D01*
X149975Y287821D01*
X149605Y287267D01*
X149475Y286614D01*
X149605Y285961D01*
X149975Y285408D01*
X150528Y285038D01*
X151181Y284908D01*
X151834Y285038D01*
X152387Y285408D01*
X152757Y285961D01*
X152887Y286614D01*
X152757Y287267D01*
X152387Y287821D01*
X151834Y288190D01*
X151181Y288320D01*
D02*
G37*
G36*
X135827Y290538D02*
X134913Y290418D01*
X134062Y290065D01*
X133331Y289504D01*
X132770Y288773D01*
X132417Y287922D01*
X132297Y287008D01*
X132417Y286094D01*
X132770Y285243D01*
X133331Y284512D01*
X134062Y283951D01*
X134913Y283598D01*
X135827Y283478D01*
X136741Y283598D01*
X137592Y283951D01*
X138323Y284512D01*
X138884Y285243D01*
X139237Y286094D01*
X139357Y287008D01*
X139237Y287922D01*
X138884Y288773D01*
X138323Y289504D01*
X137592Y290065D01*
X136741Y290418D01*
X135827Y290538D01*
D02*
G37*
G36*
X153800Y278201D02*
X153564Y278154D01*
X152940Y277738D01*
X152524Y277114D01*
X152477Y276878D01*
X153800D01*
Y278201D01*
D02*
G37*
G36*
X129665D02*
Y276878D01*
X130988D01*
X130941Y277114D01*
X130524Y277738D01*
X129901Y278154D01*
X129665Y278201D01*
D02*
G37*
%LPD*%
G36*
X70962Y237396D02*
X70885Y236614D01*
X71006Y235389D01*
X71363Y234211D01*
X71943Y233125D01*
X72724Y232173D01*
X73676Y231392D01*
X74762Y230812D01*
X75786Y230502D01*
X75711Y230001D01*
X73880D01*
X73419Y229910D01*
X73029Y229649D01*
X73029Y229649D01*
X65844Y222464D01*
X64107D01*
X64076Y222520D01*
X64269Y223178D01*
X64906Y223518D01*
X65858Y224299D01*
X66639Y225251D01*
X67220Y226337D01*
X67577Y227515D01*
X67698Y228740D01*
X67577Y229965D01*
X67220Y231143D01*
X66639Y232229D01*
X65858Y233181D01*
X65121Y233786D01*
X65300Y234286D01*
X66646D01*
X66646Y234286D01*
X67107Y234378D01*
X67497Y234639D01*
X70482Y237624D01*
X70962Y237396D01*
D02*
G37*
G36*
X87674Y234532D02*
X87674Y234532D01*
X88065Y234271D01*
X88526Y234180D01*
X88526Y234180D01*
X88901D01*
X89080Y233680D01*
X88473Y233181D01*
X87691Y232229D01*
X87111Y231143D01*
X86754Y229965D01*
X86633Y228740D01*
X86754Y227515D01*
X87111Y226337D01*
X87691Y225251D01*
X88473Y224299D01*
X89424Y223518D01*
X90062Y223178D01*
X90255Y222520D01*
X90223Y222464D01*
X88487D01*
X81302Y229649D01*
X80911Y229910D01*
X80450Y230001D01*
X80450Y230001D01*
X78619D01*
X78545Y230502D01*
X79569Y230812D01*
X80655Y231392D01*
X81606Y232173D01*
X82387Y233125D01*
X82968Y234211D01*
X83325Y235389D01*
X83446Y236614D01*
X83325Y237839D01*
X83179Y238320D01*
X83621Y238585D01*
X87674Y234532D01*
D02*
G37*
G36*
X105308Y224039D02*
Y219096D01*
X104846Y218905D01*
X101639Y222111D01*
X101248Y222372D01*
X100787Y222464D01*
X100787Y222464D01*
X95603D01*
X95572Y222520D01*
X95765Y223178D01*
X96403Y223518D01*
X97354Y224299D01*
X98135Y225251D01*
X98716Y226337D01*
X99073Y227515D01*
X99194Y228740D01*
X99117Y229522D01*
X99597Y229749D01*
X105308Y224039D01*
D02*
G37*
G36*
X102733Y215791D02*
Y208619D01*
X101080Y206966D01*
X95959D01*
X95833Y207466D01*
X96403Y207770D01*
X97354Y208551D01*
X98135Y209503D01*
X98716Y210589D01*
X99073Y211767D01*
X99194Y212992D01*
X99073Y214217D01*
X98716Y215395D01*
X98135Y216481D01*
X97354Y217433D01*
X96403Y218214D01*
X96273Y218283D01*
X96394Y218768D01*
X99755D01*
X102733Y215791D01*
D02*
G37*
G36*
X105308Y205313D02*
Y185368D01*
X105308Y185368D01*
X105399Y184907D01*
X105660Y184517D01*
X114618Y175559D01*
Y158053D01*
X100539Y143974D01*
X95959D01*
X95833Y144474D01*
X96403Y144778D01*
X97354Y145559D01*
X98135Y146511D01*
X98716Y147597D01*
X99073Y148775D01*
X99194Y150000D01*
X99073Y151225D01*
X98716Y152403D01*
X98135Y153489D01*
X97354Y154441D01*
X96403Y155222D01*
X95317Y155802D01*
X94139Y156160D01*
X92913Y156280D01*
X91688Y156160D01*
X90510Y155802D01*
X89424Y155222D01*
X88473Y154441D01*
X87691Y153489D01*
X87611Y153338D01*
X87111Y153463D01*
Y162285D01*
X87611Y162410D01*
X87691Y162259D01*
X88473Y161307D01*
X89424Y160526D01*
X90510Y159946D01*
X91688Y159589D01*
X92913Y159468D01*
X94139Y159589D01*
X95317Y159946D01*
X96403Y160526D01*
X97354Y161307D01*
X98135Y162259D01*
X98716Y163345D01*
X99073Y164523D01*
X99194Y165748D01*
X99073Y166973D01*
X98716Y168151D01*
X98135Y169237D01*
X97354Y170189D01*
X96403Y170970D01*
X95317Y171550D01*
X94139Y171908D01*
X92913Y172028D01*
X91688Y171908D01*
X90710Y171611D01*
X90445Y172053D01*
X91825Y173433D01*
X95709D01*
X96212Y173533D01*
X96637Y173818D01*
X100592Y177772D01*
X100876Y178198D01*
X100976Y178700D01*
Y187738D01*
X100902Y188108D01*
X100919Y188189D01*
X100789Y188842D01*
X100419Y189395D01*
X99866Y189765D01*
X99213Y189895D01*
X98560Y189765D01*
X98006Y189395D01*
X97636Y188842D01*
X97507Y188189D01*
X97636Y187536D01*
X98006Y186983D01*
X98351Y186752D01*
Y185511D01*
X97851Y185332D01*
X97354Y185937D01*
X96403Y186718D01*
X95317Y187298D01*
X95056Y187378D01*
X94934Y187863D01*
X99559Y192488D01*
X99684Y192475D01*
X99862Y192232D01*
X101469D01*
Y193839D01*
X101226Y194017D01*
X101213Y194141D01*
X103290Y196219D01*
X103575Y196645D01*
X103675Y197147D01*
Y198953D01*
X103938Y199347D01*
X104068Y200000D01*
X103938Y200653D01*
X103568Y201206D01*
X103015Y201576D01*
X102362Y201706D01*
X101709Y201576D01*
X101156Y201206D01*
X100786Y200653D01*
X100656Y200000D01*
X100786Y199347D01*
X101050Y198953D01*
Y197691D01*
X99597Y196238D01*
X99117Y196465D01*
X99194Y197244D01*
X99073Y198469D01*
X98716Y199647D01*
X98135Y200733D01*
X97354Y201685D01*
X96403Y202466D01*
X95833Y202770D01*
X95959Y203270D01*
X102112D01*
X102112Y203270D01*
X102573Y203362D01*
X102964Y203623D01*
X104846Y205505D01*
X105308Y205313D01*
D02*
G37*
G36*
X102904Y199424D02*
X102895Y199401D01*
X102887Y199370D01*
X102881Y199331D01*
X102870Y199227D01*
X102864Y199090D01*
X102862Y198919D01*
X101862D01*
X101862Y199009D01*
X101837Y199370D01*
X101829Y199401D01*
X101821Y199424D01*
X101811Y199438D01*
X102913D01*
X102904Y199424D01*
D02*
G37*
G36*
X15299Y196203D02*
X15266Y196221D01*
X15230Y196230D01*
X15190Y196231D01*
X15147Y196222D01*
X15102Y196206D01*
X15053Y196181D01*
X15000Y196147D01*
X14945Y196105D01*
X14886Y196054D01*
X14824Y195995D01*
X14362Y196647D01*
X15063Y197238D01*
X15299Y196203D01*
D02*
G37*
G36*
X100163Y187071D02*
X99163Y186931D01*
X99163Y187020D01*
X99143Y187285D01*
X99134Y187329D01*
X99124Y187363D01*
X99112Y187389D01*
X99098Y187405D01*
X99083Y187412D01*
X99973Y187984D01*
X100163Y187071D01*
D02*
G37*
G36*
X30288Y180437D02*
X30253Y180454D01*
X30215Y180463D01*
X30174Y180463D01*
X30130Y180454D01*
X30083Y180437D01*
X30033Y180412D01*
X29980Y180378D01*
X29924Y180336D01*
X29865Y180286D01*
X29803Y180226D01*
X29330Y180866D01*
X30013Y181471D01*
X30288Y180437D01*
D02*
G37*
G36*
X86710Y182275D02*
X86633Y181496D01*
X86754Y180271D01*
X87111Y179093D01*
X87691Y178007D01*
X88473Y177055D01*
X89424Y176274D01*
X89960Y175988D01*
X90051Y175372D01*
X84870Y170191D01*
X84585Y169765D01*
X84486Y169263D01*
Y109177D01*
X83470Y108161D01*
X83028Y108426D01*
X83325Y109405D01*
X83446Y110630D01*
X83325Y111855D01*
X82968Y113033D01*
X82387Y114119D01*
X81606Y115071D01*
X80655Y115852D01*
X79569Y116432D01*
X78391Y116789D01*
X77165Y116910D01*
X75940Y116789D01*
X74762Y116432D01*
X73676Y115852D01*
X72724Y115071D01*
X71943Y114119D01*
X71363Y113033D01*
X71006Y111855D01*
X70885Y110630D01*
X71006Y109405D01*
X71363Y108227D01*
X71943Y107141D01*
X72724Y106189D01*
X73676Y105408D01*
X74762Y104828D01*
X75940Y104470D01*
X77165Y104350D01*
X78391Y104470D01*
X79369Y104767D01*
X79634Y104325D01*
X78254Y102945D01*
X71711D01*
X71208Y102845D01*
X70783Y102560D01*
X66394Y98171D01*
X66344Y98144D01*
X65985Y98470D01*
X66042Y98539D01*
X66639Y99267D01*
X67220Y100353D01*
X67577Y101531D01*
X67698Y102756D01*
X67577Y103981D01*
X67220Y105159D01*
X66639Y106245D01*
X65858Y107197D01*
X66097Y107615D01*
X66204Y107745D01*
X66675D01*
X66675Y107745D01*
X67136Y107836D01*
X67527Y108097D01*
X69855Y110426D01*
X69855Y110426D01*
X70117Y110817D01*
X70208Y111278D01*
Y122466D01*
X70117Y122927D01*
X69855Y123318D01*
X69855Y123318D01*
X65624Y127550D01*
X65233Y127811D01*
X64772Y127902D01*
X64772Y127902D01*
X63738D01*
X63664Y128402D01*
X63821Y128450D01*
X64906Y129030D01*
X65858Y129811D01*
X66639Y130763D01*
X67220Y131849D01*
X67577Y133027D01*
X67698Y134252D01*
X67577Y135477D01*
X67220Y136655D01*
X66639Y137741D01*
X65858Y138693D01*
X64906Y139474D01*
X63821Y140054D01*
X62643Y140411D01*
X61417Y140532D01*
X60192Y140411D01*
X59014Y140054D01*
X57928Y139474D01*
X56976Y138693D01*
X56195Y137741D01*
X55615Y136655D01*
X55258Y135477D01*
X55137Y134252D01*
X55258Y133027D01*
X55615Y131849D01*
X56195Y130763D01*
X56976Y129811D01*
X57928Y129030D01*
X59014Y128450D01*
X59171Y128402D01*
X59097Y127902D01*
X43338D01*
X30470Y140770D01*
Y149196D01*
X30970Y149348D01*
X31077Y149187D01*
X31631Y148818D01*
X32283Y148688D01*
X32936Y148818D01*
X33490Y149187D01*
X33860Y149741D01*
X33952Y150206D01*
X56449Y172703D01*
X66929D01*
X67431Y172803D01*
X67857Y173088D01*
X70860Y176091D01*
X71303Y175826D01*
X71006Y174847D01*
X70885Y173622D01*
X71006Y172397D01*
X71363Y171219D01*
X71943Y170133D01*
X72724Y169181D01*
X73676Y168400D01*
X74762Y167820D01*
X75940Y167463D01*
X77165Y167342D01*
X78391Y167463D01*
X79569Y167820D01*
X80655Y168400D01*
X81606Y169181D01*
X82387Y170133D01*
X82968Y171219D01*
X83325Y172397D01*
X83446Y173622D01*
X83325Y174847D01*
X82968Y176025D01*
X82387Y177111D01*
X81606Y178063D01*
X80655Y178844D01*
X79569Y179424D01*
X78391Y179782D01*
X77165Y179902D01*
X75940Y179782D01*
X74962Y179485D01*
X74697Y179927D01*
X76077Y181307D01*
X84491D01*
X84994Y181407D01*
X85420Y181692D01*
X86230Y182502D01*
X86710Y182275D01*
D02*
G37*
G36*
X33401Y150804D02*
X33338Y150741D01*
X33100Y150468D01*
X33084Y150441D01*
X33074Y150418D01*
X33071Y150402D01*
X32291Y151181D01*
X32308Y151184D01*
X32330Y151194D01*
X32358Y151210D01*
X32390Y151234D01*
X32471Y151300D01*
X32572Y151392D01*
X32694Y151511D01*
X33401Y150804D01*
D02*
G37*
G36*
X117709Y155264D02*
Y137826D01*
X117209Y137675D01*
X117151Y137761D01*
X116598Y138131D01*
X115945Y138261D01*
X115292Y138131D01*
X114739Y137761D01*
X114369Y137208D01*
X114239Y136555D01*
X114369Y135902D01*
X114739Y135349D01*
X115292Y134979D01*
X115945Y134849D01*
X116318Y134923D01*
X116565Y134463D01*
X99597Y117495D01*
X99117Y117722D01*
X99194Y118504D01*
X99073Y119729D01*
X98716Y120907D01*
X98135Y121993D01*
X97354Y122945D01*
X96403Y123726D01*
X95317Y124306D01*
X94139Y124663D01*
X92913Y124784D01*
X91688Y124663D01*
X90510Y124306D01*
X89424Y123726D01*
X88473Y122945D01*
X87691Y121993D01*
X87611Y121842D01*
X87111Y121967D01*
Y130789D01*
X87611Y130914D01*
X87691Y130763D01*
X88473Y129811D01*
X89424Y129030D01*
X90510Y128450D01*
X91688Y128092D01*
X92913Y127972D01*
X94139Y128092D01*
X95317Y128450D01*
X96403Y129030D01*
X97354Y129811D01*
X98135Y130763D01*
X98716Y131849D01*
X99073Y133027D01*
X99194Y134252D01*
X99073Y135477D01*
X98716Y136655D01*
X98135Y137741D01*
X97354Y138693D01*
X96403Y139474D01*
X95833Y139778D01*
X95959Y140278D01*
X101571D01*
X101571Y140278D01*
X102032Y140370D01*
X102422Y140631D01*
X117247Y155456D01*
X117709Y155264D01*
D02*
G37*
G36*
X87691Y146511D02*
X88473Y145559D01*
X89424Y144778D01*
X90510Y144198D01*
X91688Y143840D01*
X91709Y143838D01*
Y143231D01*
X91709Y143231D01*
X91801Y142770D01*
X92062Y142379D01*
X92065Y142376D01*
Y141876D01*
X92062Y141873D01*
X91801Y141482D01*
X91709Y141021D01*
X91709Y141021D01*
Y140414D01*
X91688Y140411D01*
X90510Y140054D01*
X89424Y139474D01*
X88473Y138693D01*
X87691Y137741D01*
X87611Y137590D01*
X87111Y137715D01*
Y146537D01*
X87611Y146662D01*
X87691Y146511D01*
D02*
G37*
G36*
X64411Y113918D02*
X64272Y113784D01*
X64150Y113636D01*
X64044Y113475D01*
X63955Y113301D01*
X63881Y113114D01*
X63824Y112913D01*
X63783Y112700D01*
X63759Y112473D01*
X63751Y112233D01*
X62963D01*
X62954Y112412D01*
X62926Y112570D01*
X62879Y112707D01*
X62814Y112823D01*
X62729Y112917D01*
X62626Y112991D01*
X62505Y113044D01*
X62364Y113075D01*
X62205Y113086D01*
X62027Y113075D01*
X64566Y114040D01*
X64411Y113918D01*
D02*
G37*
G36*
X41486Y109660D02*
X41478Y109637D01*
X41470Y109606D01*
X41463Y109567D01*
X41453Y109463D01*
X41447Y109326D01*
X41445Y109155D01*
X40445D01*
X40444Y109245D01*
X40420Y109606D01*
X40412Y109637D01*
X40403Y109660D01*
X40394Y109674D01*
X41496D01*
X41486Y109660D01*
D02*
G37*
%LPC*%
G36*
X102469Y193556D02*
Y192232D01*
X103792D01*
X103745Y192468D01*
X103328Y193092D01*
X102704Y193509D01*
X102469Y193556D01*
D02*
G37*
G36*
X103792Y191232D02*
X102469D01*
Y189909D01*
X102704Y189956D01*
X103328Y190373D01*
X103745Y190997D01*
X103792Y191232D01*
D02*
G37*
G36*
X101469D02*
X100145D01*
X100192Y190997D01*
X100609Y190373D01*
X101233Y189956D01*
X101469Y189909D01*
Y191232D01*
D02*
G37*
G36*
X105236Y179147D02*
X104583Y179017D01*
X104030Y178647D01*
X103660Y178094D01*
X103530Y177441D01*
X103660Y176788D01*
X104030Y176235D01*
X104583Y175865D01*
X105236Y175735D01*
X105889Y175865D01*
X106442Y176235D01*
X106812Y176788D01*
X106942Y177441D01*
X106812Y178094D01*
X106442Y178647D01*
X105889Y179017D01*
X105236Y179147D01*
D02*
G37*
G36*
X110384Y167995D02*
X109731Y167866D01*
X109177Y167496D01*
X108808Y166942D01*
X108678Y166289D01*
X108780Y165776D01*
X108709Y165658D01*
X108506Y165455D01*
X108387Y165384D01*
X107874Y165486D01*
X107221Y165356D01*
X106668Y164986D01*
X106298Y164432D01*
X106168Y163779D01*
X106298Y163127D01*
X106668Y162573D01*
X107221Y162203D01*
X107874Y162074D01*
X108527Y162203D01*
X109080Y162573D01*
X109450Y163127D01*
X109580Y163779D01*
X109478Y164293D01*
X109549Y164411D01*
X109752Y164614D01*
X109871Y164685D01*
X110384Y164583D01*
X111037Y164713D01*
X111590Y165083D01*
X111960Y165637D01*
X112090Y166289D01*
X111960Y166942D01*
X111590Y167496D01*
X111037Y167866D01*
X110384Y167995D01*
D02*
G37*
G36*
X105512Y162336D02*
X104859Y162206D01*
X104306Y161836D01*
X103936Y161283D01*
X103806Y160630D01*
X103936Y159977D01*
X104306Y159424D01*
X104859Y159054D01*
X105512Y158924D01*
X106165Y159054D01*
X106718Y159424D01*
X107088Y159977D01*
X107218Y160630D01*
X107088Y161283D01*
X106718Y161836D01*
X106165Y162206D01*
X105512Y162336D01*
D02*
G37*
G36*
X102362Y159974D02*
X101709Y159844D01*
X101156Y159474D01*
X100786Y158921D01*
X100656Y158268D01*
X100786Y157615D01*
X101156Y157061D01*
X101709Y156692D01*
X102362Y156562D01*
X103015Y156692D01*
X103568Y157061D01*
X103938Y157615D01*
X104068Y158268D01*
X103938Y158921D01*
X103568Y159474D01*
X103015Y159844D01*
X102362Y159974D01*
D02*
G37*
G36*
X99606Y157218D02*
X98953Y157088D01*
X98400Y156718D01*
X98030Y156165D01*
X97900Y155512D01*
X98030Y154859D01*
X98400Y154306D01*
X98953Y153936D01*
X99606Y153806D01*
X100259Y153936D01*
X100813Y154306D01*
X101182Y154859D01*
X101312Y155512D01*
X101182Y156165D01*
X100813Y156718D01*
X100259Y157088D01*
X99606Y157218D01*
D02*
G37*
G36*
X61417Y172028D02*
X60192Y171908D01*
X59014Y171550D01*
X57928Y170970D01*
X56976Y170189D01*
X56195Y169237D01*
X55615Y168151D01*
X55258Y166973D01*
X55137Y165748D01*
X55258Y164523D01*
X55615Y163345D01*
X56195Y162259D01*
X56976Y161307D01*
X57928Y160526D01*
X59014Y159946D01*
X60192Y159589D01*
X61417Y159468D01*
X62643Y159589D01*
X63821Y159946D01*
X64906Y160526D01*
X65858Y161307D01*
X66639Y162259D01*
X67220Y163345D01*
X67577Y164523D01*
X67698Y165748D01*
X67577Y166973D01*
X67220Y168151D01*
X66639Y169237D01*
X65858Y170189D01*
X64906Y170970D01*
X63821Y171550D01*
X62643Y171908D01*
X61417Y172028D01*
D02*
G37*
G36*
X77165Y164154D02*
X75940Y164034D01*
X74762Y163676D01*
X73676Y163096D01*
X72724Y162315D01*
X71943Y161363D01*
X71363Y160277D01*
X71006Y159099D01*
X70885Y157874D01*
X71006Y156649D01*
X71363Y155471D01*
X71943Y154385D01*
X72724Y153433D01*
X73676Y152652D01*
X74762Y152072D01*
X75940Y151715D01*
X77165Y151594D01*
X78391Y151715D01*
X79569Y152072D01*
X80655Y152652D01*
X81606Y153433D01*
X82387Y154385D01*
X82968Y155471D01*
X83325Y156649D01*
X83446Y157874D01*
X83325Y159099D01*
X82968Y160277D01*
X82387Y161363D01*
X81606Y162315D01*
X80655Y163096D01*
X79569Y163676D01*
X78391Y164034D01*
X77165Y164154D01*
D02*
G37*
G36*
X61417Y156280D02*
X60192Y156160D01*
X59014Y155802D01*
X57928Y155222D01*
X56976Y154441D01*
X56195Y153489D01*
X55615Y152403D01*
X55258Y151225D01*
X55137Y150000D01*
X55258Y148775D01*
X55615Y147597D01*
X56195Y146511D01*
X56976Y145559D01*
X57928Y144778D01*
X59014Y144198D01*
X60192Y143840D01*
X61417Y143720D01*
X62643Y143840D01*
X63821Y144198D01*
X64906Y144778D01*
X65858Y145559D01*
X66639Y146511D01*
X67220Y147597D01*
X67577Y148775D01*
X67698Y150000D01*
X67577Y151225D01*
X67220Y152403D01*
X66639Y153489D01*
X65858Y154441D01*
X64906Y155222D01*
X63821Y155802D01*
X62643Y156160D01*
X61417Y156280D01*
D02*
G37*
G36*
X74016Y151312D02*
X73363Y151182D01*
X72809Y150813D01*
X72440Y150259D01*
X72310Y149606D01*
X72440Y148953D01*
X72809Y148400D01*
X73363Y148030D01*
X73749Y147953D01*
X73826Y147428D01*
X73676Y147348D01*
X72724Y146567D01*
X71943Y145615D01*
X71363Y144529D01*
X71006Y143351D01*
X70885Y142126D01*
X71006Y140901D01*
X71363Y139723D01*
X71943Y138637D01*
X72724Y137685D01*
X73676Y136904D01*
X74762Y136324D01*
X75940Y135966D01*
X77165Y135846D01*
X78391Y135966D01*
X79569Y136324D01*
X80655Y136904D01*
X81606Y137685D01*
X82387Y138637D01*
X82968Y139723D01*
X83325Y140901D01*
X83446Y142126D01*
X83325Y143351D01*
X82968Y144529D01*
X82387Y145615D01*
X81606Y146567D01*
X80655Y147348D01*
X79569Y147928D01*
X78391Y148286D01*
X77165Y148406D01*
X75940Y148286D01*
X75698Y148212D01*
X75381Y148639D01*
X75592Y148953D01*
X75722Y149606D01*
X75592Y150259D01*
X75222Y150813D01*
X74669Y151182D01*
X74016Y151312D01*
D02*
G37*
G36*
X41122Y138104D02*
X40469Y137974D01*
X39916Y137604D01*
X39546Y137050D01*
X39416Y136398D01*
X39546Y135745D01*
X39916Y135191D01*
X40469Y134821D01*
X41122Y134692D01*
X41775Y134821D01*
X42328Y135191D01*
X42698Y135745D01*
X42828Y136398D01*
X42698Y137050D01*
X42328Y137604D01*
X41775Y137974D01*
X41122Y138104D01*
D02*
G37*
G36*
X44882Y133202D02*
X44229Y133072D01*
X43676Y132702D01*
X43306Y132149D01*
X43176Y131496D01*
X43306Y130843D01*
X43676Y130290D01*
X44229Y129920D01*
X44882Y129790D01*
X45535Y129920D01*
X46088Y130290D01*
X46458Y130843D01*
X46588Y131496D01*
X46458Y132149D01*
X46088Y132702D01*
X45535Y133072D01*
X44882Y133202D01*
D02*
G37*
G36*
X77165Y132658D02*
X75940Y132537D01*
X74762Y132180D01*
X73676Y131600D01*
X72724Y130819D01*
X71943Y129867D01*
X71363Y128781D01*
X71006Y127603D01*
X70885Y126378D01*
X71006Y125153D01*
X71363Y123975D01*
X71943Y122889D01*
X72724Y121937D01*
X73676Y121156D01*
X74762Y120576D01*
X75940Y120218D01*
X77165Y120098D01*
X78391Y120218D01*
X79569Y120576D01*
X80655Y121156D01*
X81606Y121937D01*
X82387Y122889D01*
X82968Y123975D01*
X83325Y125153D01*
X83446Y126378D01*
X83325Y127603D01*
X82968Y128781D01*
X82387Y129867D01*
X81606Y130819D01*
X80655Y131600D01*
X79569Y132180D01*
X78391Y132537D01*
X77165Y132658D01*
D02*
G37*
G36*
X115425Y146911D02*
X114772Y146781D01*
X114219Y146411D01*
X113849Y145858D01*
X113719Y145205D01*
X113849Y144552D01*
X114219Y143998D01*
X114772Y143629D01*
X115425Y143499D01*
X116078Y143629D01*
X116631Y143998D01*
X117001Y144552D01*
X117131Y145205D01*
X117001Y145858D01*
X116631Y146411D01*
X116078Y146781D01*
X115425Y146911D01*
D02*
G37*
%LPD*%
G36*
X125976Y241732D02*
X125959Y241729D01*
X125937Y241719D01*
X125910Y241703D01*
X125877Y241680D01*
X125797Y241614D01*
X125696Y241521D01*
X125574Y241402D01*
X124866Y242109D01*
X124929Y242173D01*
X125168Y242445D01*
X125184Y242473D01*
X125194Y242495D01*
X125197Y242512D01*
X125976Y241732D01*
D02*
G37*
G36*
X127562Y234621D02*
X127572Y234599D01*
X127588Y234572D01*
X127611Y234539D01*
X127678Y234458D01*
X127770Y234357D01*
X127889Y234235D01*
X127182Y233528D01*
X127119Y233591D01*
X126846Y233829D01*
X126819Y233845D01*
X126796Y233855D01*
X126779Y233858D01*
X127559Y234638D01*
X127562Y234621D01*
D02*
G37*
G36*
X167709Y227559D02*
X167692Y227556D01*
X167670Y227546D01*
X167642Y227530D01*
X167610Y227507D01*
X167529Y227441D01*
X167428Y227348D01*
X167306Y227229D01*
X166599Y227936D01*
X166662Y227999D01*
X166900Y228272D01*
X166916Y228299D01*
X166926Y228322D01*
X166929Y228339D01*
X167709Y227559D01*
D02*
G37*
G36*
X147469Y191575D02*
X147455Y191585D01*
X147432Y191593D01*
X147401Y191601D01*
X147362Y191608D01*
X147258Y191618D01*
X147121Y191624D01*
X146951Y191626D01*
Y192626D01*
X147040Y192627D01*
X147401Y192651D01*
X147432Y192659D01*
X147455Y192667D01*
X147469Y192677D01*
Y191575D01*
D02*
G37*
D16*
X12122Y251969D02*
X12728Y251362D01*
X11811Y251969D02*
X12122D01*
X34516Y243914D02*
X35122Y243307D01*
X35433D01*
X7122Y229921D02*
X7728Y229314D01*
X6988Y229921D02*
X7122D01*
X35860Y199821D02*
X41802Y205762D01*
X35522Y199821D02*
X35860D01*
X33490Y197789D02*
X35522Y199821D01*
X33490Y197450D02*
Y197789D01*
X30460Y194421D02*
X33490Y197450D01*
X36393Y198533D02*
X42335Y204474D01*
X36055Y198533D02*
X36393D01*
X34778Y197256D02*
X36055Y198533D01*
X34778Y196917D02*
Y197256D01*
X30994Y193133D02*
X34778Y196917D01*
X14516Y196244D02*
X15123Y196850D01*
X15748D01*
X29516Y180496D02*
X30123Y181102D01*
X30709D01*
X107799Y185902D02*
Y225071D01*
X106512Y185368D02*
Y224537D01*
X105224Y207587D02*
Y216823D01*
X100787Y221260D02*
X105224Y216823D01*
X103937Y208120D02*
Y216290D01*
X100254Y219972D02*
X103937Y216290D01*
X101579Y205762D02*
X103937Y208120D01*
X96198Y236671D02*
X107799Y225071D01*
X102112Y204474D02*
X105224Y207587D01*
X95665Y235384D02*
X106512Y224537D01*
X93375Y204474D02*
X102112D01*
X87455Y219972D02*
X100254D01*
X93375Y205762D02*
X101579D01*
X107799Y185902D02*
X117109Y176591D01*
X106512Y185368D02*
X115822Y176058D01*
X87988Y221260D02*
X100787D01*
X89059Y236671D02*
X96198D01*
X117109Y157021D02*
Y176591D01*
X96104Y257193D02*
X120201Y233096D01*
X95612Y109986D02*
X120201Y134575D01*
X95571Y255906D02*
X118913Y232563D01*
X95079Y111274D02*
X118913Y135108D01*
Y232563D01*
X120201Y134575D02*
Y233096D01*
X42839Y126698D02*
X64772D01*
X29266Y140271D02*
X42839Y126698D01*
X42306Y125410D02*
X64239D01*
X27978Y139738D02*
X42306Y125410D01*
X29266Y140271D02*
Y179949D01*
X61417Y102756D02*
Y105012D01*
X66675Y108949D02*
X69004Y111278D01*
X65354Y108949D02*
X66675D01*
X66142Y110236D02*
X67716Y111811D01*
X65354Y110236D02*
X66142D01*
X63357Y112233D02*
X65354Y110236D01*
X63357Y112233D02*
Y116564D01*
X67716Y111811D02*
Y121933D01*
X61417Y118504D02*
X63357Y116564D01*
X69004Y111278D02*
Y122466D01*
X61417Y105012D02*
X65354Y108949D01*
X92913Y111735D02*
Y118504D01*
Y111735D02*
X93375Y111274D01*
X95079D01*
X92913Y102756D02*
Y109525D01*
X93375Y109986D01*
X95612D01*
X44896Y255906D02*
X95571D01*
X44362Y257193D02*
X96104D01*
X34266Y245276D02*
X44896Y255906D01*
X34266Y244461D02*
Y245276D01*
Y244461D02*
X34516Y244211D01*
Y243914D02*
Y244211D01*
X32978Y245809D02*
X44362Y257193D01*
X32978Y244461D02*
Y245809D01*
X32728Y244211D02*
X32978Y244461D01*
X32728Y243914D02*
Y244211D01*
X32335Y243520D02*
X32728Y243914D01*
X32335Y243307D02*
Y243520D01*
X54100Y236778D02*
X66113D01*
X54634Y235490D02*
X66646D01*
X15959Y221260D02*
X66343D01*
X15425Y219972D02*
X66876D01*
X53256Y234112D02*
X54634Y235490D01*
X51968Y234646D02*
X54100Y236778D01*
X66876Y219972D02*
X74413Y227510D01*
X7978Y227419D02*
X15425Y219972D01*
X92913Y143231D02*
Y150000D01*
Y143231D02*
X93375Y142770D01*
X101037D01*
X92913Y134252D02*
Y141021D01*
X93375Y141482D01*
X101571D01*
X101037Y142770D02*
X115822Y157554D01*
Y176058D01*
X101571Y141482D02*
X117109Y157021D01*
X88526Y235384D02*
X95665D01*
X81102Y242807D02*
X88526Y235384D01*
X81185Y244545D02*
X89059Y236671D01*
X81102Y242807D02*
X81102D01*
X80652Y243258D02*
X81102Y242807D01*
X74413Y243258D02*
X80652D01*
X66646Y235490D02*
X74413Y243258D01*
X73880Y244545D02*
X81185D01*
X66113Y236778D02*
X73880Y244545D01*
X53256Y229388D02*
Y234112D01*
X50262Y226395D02*
X53256Y229388D01*
X51968Y229921D02*
Y234646D01*
X35310Y226395D02*
X50262D01*
X49729Y227682D02*
X51968Y229921D01*
X35843Y227682D02*
X49729D01*
X14266Y249260D02*
X35843Y227682D01*
X12978Y248726D02*
X35310Y226395D01*
X12978Y248726D02*
Y250815D01*
X12728Y251065D02*
X12978Y250815D01*
X12728Y251065D02*
Y251362D01*
X14266Y249260D02*
Y250815D01*
X14516Y251065D01*
Y251362D01*
X14909Y251755D01*
Y251969D01*
X14516Y195947D02*
Y196244D01*
X14266Y195697D02*
X14516Y195947D01*
X14266Y194882D02*
Y195697D01*
Y194882D02*
X14727Y194421D01*
X30460D01*
X41802Y205762D02*
X60956D01*
X61417Y206223D01*
Y212992D01*
X12335Y196637D02*
Y196850D01*
Y196637D02*
X12728Y196244D01*
Y195947D02*
Y196244D01*
Y195947D02*
X12978Y195697D01*
Y194349D02*
Y195697D01*
Y194349D02*
X14194Y193133D01*
X30994D01*
X42335Y204474D02*
X60956D01*
X61417Y204013D01*
Y197244D02*
Y204013D01*
X9909Y229708D02*
Y229921D01*
X9516Y229314D02*
X9909Y229708D01*
X9516Y229018D02*
Y229314D01*
X9266Y227953D02*
X15959Y221260D01*
X9266Y228768D02*
X9516Y229018D01*
X9266Y227953D02*
Y228768D01*
X7978Y227419D02*
Y228768D01*
X7728Y229018D02*
Y229314D01*
Y229018D02*
X7978Y228768D01*
X92913Y206223D02*
Y212992D01*
Y206223D02*
X93375Y205762D01*
X92913Y197244D02*
Y204013D01*
X93375Y204474D01*
X80450Y228797D02*
X87988Y221260D01*
X79917Y227510D02*
X87455Y219972D01*
X74413Y227510D02*
X79917D01*
X73880Y228797D02*
X80450D01*
X66343Y221260D02*
X73880Y228797D01*
X64239Y125410D02*
X67716Y121933D01*
X64772Y126698D02*
X69004Y122466D01*
X27978Y139738D02*
Y179949D01*
X27728Y180199D02*
X27978Y179949D01*
X27728Y180199D02*
Y180496D01*
X27335Y180889D02*
X27728Y180496D01*
X27335Y180889D02*
Y181102D01*
X29266Y179949D02*
X29516Y180199D01*
Y180496D01*
D17*
X144797Y192126D02*
X148031D01*
X123622Y213301D02*
X144797Y192126D01*
X123622Y213301D02*
Y240158D01*
X125984Y242520D01*
X99663Y178700D02*
Y187738D01*
X95709Y174746D02*
X99663Y178700D01*
X99213Y188189D02*
X99663Y187738D01*
X166732Y227362D02*
X167717Y228346D01*
X134055Y227362D02*
X166732D01*
X126772Y234646D02*
X134055Y227362D01*
X102362Y197147D02*
Y200000D01*
X93461Y188246D02*
X102362Y197147D01*
X90117Y188246D02*
X93461D01*
X84491Y182620D02*
X90117Y188246D01*
X75533Y182620D02*
X84491D01*
X66929Y174016D02*
X75533Y182620D01*
X55905Y174016D02*
X66929D01*
X32283Y150394D02*
X55905Y174016D01*
X40945Y106001D02*
Y110236D01*
Y106001D02*
X52458Y94488D01*
X64567D01*
X71711Y101632D01*
X78797D01*
X85798Y108633D01*
Y169263D01*
X91281Y174746D01*
X95709D01*
X120472Y328346D02*
Y343701D01*
X127756Y350984D01*
D74*
X92913Y102756D02*
D03*
Y118504D02*
D03*
Y134252D02*
D03*
Y150000D02*
D03*
Y197244D02*
D03*
Y212992D02*
D03*
X61417Y102756D02*
D03*
Y118504D02*
D03*
Y197244D02*
D03*
Y212992D02*
D03*
D75*
X14685Y360079D02*
D03*
X24685D02*
D03*
D76*
X175492Y189764D02*
D03*
X176772Y201492D02*
D03*
X111811Y205512D02*
D03*
X113189Y256890D02*
D03*
X101969Y191732D02*
D03*
X120472Y82677D02*
D03*
X11417Y251969D02*
D03*
X35433Y243307D02*
D03*
X6594Y229921D02*
D03*
X15748Y196850D02*
D03*
X30709Y181102D02*
D03*
X108268Y351969D02*
D03*
X90551Y348819D02*
D03*
X60630Y363779D02*
D03*
X129165Y276378D02*
D03*
X154300D02*
D03*
X178347Y159449D02*
D03*
X148031Y192520D02*
D03*
X125984Y242520D02*
D03*
X174409Y215748D02*
D03*
X144488Y196457D02*
D03*
X142913Y162992D02*
D03*
X167717Y141732D02*
D03*
X169348Y124409D02*
D03*
X127559Y273228D02*
D03*
X155905D02*
D03*
X60630Y368504D02*
D03*
X111811Y354331D02*
D03*
X131496Y389764D02*
D03*
X99213Y188189D02*
D03*
X146457Y103937D02*
D03*
X136221D02*
D03*
X131496Y109449D02*
D03*
X151181Y100000D02*
D03*
X149606Y93701D02*
D03*
X62992Y351969D02*
D03*
X60630Y357480D02*
D03*
X173228Y29134D02*
D03*
X167717Y228346D02*
D03*
X126772Y234646D02*
D03*
X164567Y333071D02*
D03*
X168504Y334646D02*
D03*
X161417D02*
D03*
X157480Y333071D02*
D03*
X187205Y204724D02*
D03*
X192126Y314961D02*
D03*
X111811Y46457D02*
D03*
X83071Y36220D02*
D03*
X51181Y13386D02*
D03*
X36220Y88976D02*
D03*
X102362Y200000D02*
D03*
X32283Y150394D02*
D03*
X40945Y110236D02*
D03*
X36122Y41043D02*
D03*
X120472Y328346D02*
D03*
X127756Y350984D02*
D03*
X6299Y266142D02*
D03*
X5512Y218110D02*
D03*
X16535Y171653D02*
D03*
X6299D02*
D03*
Y124409D02*
D03*
Y88976D02*
D03*
X6233Y76311D02*
D03*
X148819Y3150D02*
D03*
X148031Y51181D02*
D03*
X115748Y351181D02*
D03*
X119685Y354331D02*
D03*
X90551Y313386D02*
D03*
X91339Y273228D02*
D03*
X185039Y344094D02*
D03*
X181890Y340945D02*
D03*
X162992Y354331D02*
D03*
X188976Y339370D02*
D03*
X166142Y357480D02*
D03*
X163779Y350394D02*
D03*
X63779Y307087D02*
D03*
X65354Y287402D02*
D03*
X62992Y296969D02*
D03*
X55905Y292126D02*
D03*
X70866Y292913D02*
D03*
Y304724D02*
D03*
X56693D02*
D03*
X31941Y243307D02*
D03*
X15303Y251969D02*
D03*
X11941Y196850D02*
D03*
X10303Y229921D02*
D03*
X26941Y181102D02*
D03*
M02*
