G04*
G04 #@! TF.GenerationSoftware,Altium Limited,Altium Designer,21.7.2 (23)*
G04*
G04 Layer_Color=16711935*
%FSLAX25Y25*%
%MOIN*%
G70*
G04*
G04 #@! TF.SameCoordinates,50D7799F-02FE-4AD0-AE3F-70EE2030EBF6*
G04*
G04*
G04 #@! TF.FilePolarity,Positive*
G04*
G01*
G75*
%ADD15C,0.00394*%
%ADD17C,0.01000*%
%ADD90C,0.00600*%
D15*
Y393701D01*
X196850D01*
X196850Y0D01*
X0D02*
X196850D01*
D17*
X0Y407087D02*
X6000Y409087D01*
X0Y407087D02*
X6000Y405087D01*
X190850D02*
X196850Y407087D01*
X190850Y409087D02*
X196850Y407087D01*
X0D02*
X81230D01*
X112421D02*
X196850D01*
X0Y394898D02*
Y408087D01*
X196850Y394898D02*
Y408087D01*
X216898Y6000D02*
X218898Y0D01*
X220898Y6000D01*
X218898Y393701D02*
X220898Y387701D01*
X216898D02*
X218898Y393701D01*
Y0D02*
Y177156D01*
Y213345D02*
Y393701D01*
X198047Y0D02*
X219898D01*
X198047Y393701D02*
X219898D01*
D90*
X86828Y408486D02*
X82830D01*
Y405487D01*
X84829Y406487D01*
X85829D01*
X86828Y405487D01*
Y403488D01*
X85829Y402488D01*
X83829D01*
X82830Y403488D01*
X88828Y407486D02*
X89828Y408486D01*
X91827D01*
X92826Y407486D01*
Y403488D01*
X91827Y402488D01*
X89828D01*
X88828Y403488D01*
Y407486D01*
X95825Y401488D02*
X96825Y402488D01*
Y403488D01*
X95825D01*
Y402488D01*
X96825D01*
X95825Y401488D01*
X94826Y400489D01*
X100824Y407486D02*
X101824Y408486D01*
X103823D01*
X104823Y407486D01*
Y403488D01*
X103823Y402488D01*
X101824D01*
X100824Y403488D01*
Y407486D01*
X106822D02*
X107822Y408486D01*
X109821D01*
X110821Y407486D01*
Y403488D01*
X109821Y402488D01*
X107822D01*
X106822Y403488D01*
Y407486D01*
X223496Y178756D02*
Y180755D01*
Y179755D01*
X217498D01*
X218498Y178756D01*
Y183754D02*
X217498Y184754D01*
Y186753D01*
X218498Y187753D01*
X222497D01*
X223496Y186753D01*
Y184754D01*
X222497Y183754D01*
X218498D01*
Y189752D02*
X217498Y190752D01*
Y192751D01*
X218498Y193751D01*
X222497D01*
X223496Y192751D01*
Y190752D01*
X222497Y189752D01*
X218498D01*
X224496Y196750D02*
X223496Y197750D01*
X222497D01*
Y196750D01*
X223496D01*
Y197750D01*
X224496Y196750D01*
X225496Y195750D01*
X218498Y201748D02*
X217498Y202748D01*
Y204747D01*
X218498Y205747D01*
X222497D01*
X223496Y204747D01*
Y202748D01*
X222497Y201748D01*
X218498D01*
Y207746D02*
X217498Y208746D01*
Y210745D01*
X218498Y211745D01*
X222497D01*
X223496Y210745D01*
Y208746D01*
X222497Y207746D01*
X218498D01*
M02*
