G04*
G04 #@! TF.GenerationSoftware,Altium Limited,Altium Designer,21.2.0 (30)*
G04*
G04 Layer_Color=65535*
%FSLAX25Y25*%
%MOIN*%
G70*
G04*
G04 #@! TF.SameCoordinates,A3FB2E6E-176B-49CF-A702-6EBA3DBCADC7*
G04*
G04*
G04 #@! TF.FilePolarity,Positive*
G04*
G01*
G75*
%ADD10C,0.01968*%
%ADD11C,0.00984*%
%ADD12C,0.02362*%
%ADD13C,0.00787*%
%ADD14C,0.00591*%
%ADD15C,0.00700*%
%ADD16C,0.00394*%
%ADD17C,0.01000*%
G36*
X90945Y280697D02*
X91929Y282402D01*
X89960D01*
X90945Y280697D01*
D02*
G37*
G36*
X189894Y321260D02*
X188189Y322244D01*
Y320276D01*
X189894Y321260D01*
D02*
G37*
D10*
X128937Y281102D02*
G03*
X128937Y281102I-984J0D01*
G01*
D11*
X192520Y199803D02*
G03*
X192520Y199803I-492J0D01*
G01*
X44961Y164272D02*
G03*
X44961Y164272I-492J0D01*
G01*
Y258760D02*
G03*
X44961Y258760I-492J0D01*
G01*
Y117028D02*
G03*
X44961Y117028I-492J0D01*
G01*
X150292Y373602D02*
G03*
X150292Y373602I-484J0D01*
G01*
X44961Y211516D02*
G03*
X44961Y211516I-492J0D01*
G01*
X87473Y315941D02*
G03*
X87473Y315941I-484J0D01*
G01*
X44961Y69784D02*
G03*
X44961Y69784I-492J0D01*
G01*
D12*
X40551Y155905D02*
G03*
X40551Y155905I-1181J0D01*
G01*
Y250394D02*
G03*
X40551Y250394I-1181J0D01*
G01*
Y108661D02*
G03*
X40551Y108661I-1181J0D01*
G01*
X146437Y368583D02*
G03*
X146437Y368583I-1181J0D01*
G01*
X83504Y325729D02*
G03*
X83504Y325729I-1181J0D01*
G01*
X40551Y203150D02*
G03*
X40551Y203150I-1181J0D01*
G01*
Y61417D02*
G03*
X40551Y61417I-1181J0D01*
G01*
D13*
X68307Y337323D02*
X68701D01*
X68307Y340079D02*
X68701D01*
X86811Y33661D02*
Y34055D01*
X89567Y33661D02*
Y34055D01*
X110433Y38386D02*
Y38780D01*
X113189Y38386D02*
Y38780D01*
X150197Y10039D02*
Y10433D01*
X147441Y10039D02*
Y10433D01*
X3937Y147244D02*
Y159843D01*
X43307Y147244D02*
Y159843D01*
X3937Y147244D02*
X43307D01*
X3937Y159843D02*
X43307D01*
X3937Y241732D02*
Y254331D01*
X43307Y241732D02*
Y254331D01*
X3937Y241732D02*
X43307D01*
X3937Y254331D02*
X43307D01*
X3937Y100000D02*
Y112598D01*
X43307Y100000D02*
Y112598D01*
X3937Y100000D02*
X43307D01*
X3937Y112598D02*
X43307D01*
X161221Y11417D02*
X175787D01*
X161221D02*
Y31102D01*
X175787D01*
Y11417D02*
Y31102D01*
X177165Y11319D02*
X182972D01*
X62008Y31004D02*
X76575D01*
Y11319D02*
Y31004D01*
X62008Y11319D02*
X76575D01*
X62008D02*
Y31004D01*
X54823Y31102D02*
X60630D01*
X140748Y384252D02*
Y386850D01*
X143957D01*
X140748Y375354D02*
Y377953D01*
Y375354D02*
X143957D01*
X155039Y328760D02*
Y332697D01*
Y328760D02*
X194803D01*
Y369744D01*
X155039D02*
X194803D01*
X155039Y365807D02*
Y369744D01*
X42500Y315945D02*
X46437D01*
X42500Y276182D02*
Y315945D01*
Y276182D02*
X83484D01*
Y315945D01*
X79547D02*
X83484D01*
X49606Y358780D02*
X53543D01*
X49606Y351694D02*
X53543D01*
X114173Y338189D02*
Y342126D01*
X121260Y338189D02*
Y342126D01*
X123819Y389606D02*
X124213D01*
X123819Y386850D02*
X124213D01*
X101673Y362047D02*
Y362441D01*
X106201Y362047D02*
Y362441D01*
X109547Y362047D02*
Y362441D01*
X114075Y362047D02*
Y362441D01*
X117028Y362047D02*
Y362441D01*
X121555Y362047D02*
Y362441D01*
X124508Y362047D02*
Y362441D01*
X129035Y362047D02*
Y362441D01*
X134843Y362047D02*
Y362441D01*
X132087Y362047D02*
Y362441D01*
X93504Y338189D02*
Y342126D01*
X100591Y338189D02*
Y342126D01*
X103740Y338189D02*
Y342126D01*
X110827Y338189D02*
Y342126D01*
X129331Y320709D02*
X129724D01*
X129331Y323465D02*
X129724D01*
X129331Y327008D02*
X129724D01*
X129331Y329764D02*
X129724D01*
X49606Y372363D02*
X53543D01*
X49606Y379449D02*
X53543D01*
X49606Y362126D02*
X53543D01*
X49606Y369213D02*
X53543D01*
X139370Y32579D02*
X145177D01*
X137992Y32677D02*
Y52362D01*
X123425D02*
X137992D01*
X123425Y32677D02*
Y52362D01*
Y32677D02*
X137992D01*
X33268Y342442D02*
Y342835D01*
X30512Y342442D02*
Y342835D01*
X68307Y365965D02*
X68701D01*
X68307Y370493D02*
X68701D01*
X68307Y358091D02*
X68701D01*
X68307Y362619D02*
X68701D01*
X68307Y350611D02*
X68701D01*
X68307Y355138D02*
X68701D01*
X68307Y343130D02*
X68701D01*
X68307Y347658D02*
X68701D01*
X39173Y342442D02*
Y342835D01*
X36417Y342442D02*
Y342835D01*
X3937Y207087D02*
X43307D01*
X3937Y194488D02*
X43307D01*
Y207087D01*
X3937Y194488D02*
Y207087D01*
X88740Y321791D02*
Y325000D01*
X91339D01*
X100236Y321791D02*
Y325000D01*
X97638D02*
X100236D01*
X3937Y65354D02*
X43307D01*
X3937Y52756D02*
X43307D01*
Y65354D01*
X3937Y52756D02*
Y65354D01*
X181891Y247244D02*
X183990D01*
X185039Y248294D01*
X183990Y249343D01*
X181891D01*
X185039Y250393D02*
Y251442D01*
Y250918D01*
X181891D01*
X182415Y250393D01*
X185039Y253016D02*
X184515D01*
Y253541D01*
X185039D01*
Y253016D01*
X182415Y255640D02*
X181891Y256165D01*
Y257215D01*
X182415Y257739D01*
X184515D01*
X185039Y257215D01*
Y256165D01*
X184515Y255640D01*
X182415D01*
X183465Y261937D02*
Y264037D01*
X185039Y268235D02*
Y269284D01*
Y268759D01*
X181891D01*
X182415Y268235D01*
Y270859D02*
X181891Y271383D01*
Y272433D01*
X182415Y272958D01*
X182940D01*
X183465Y272433D01*
X183990Y272958D01*
X184515D01*
X185039Y272433D01*
Y271383D01*
X184515Y270859D01*
X183990D01*
X183465Y271383D01*
X182940Y270859D01*
X182415D01*
X183465Y271383D02*
Y272433D01*
X185039Y274007D02*
X184515D01*
Y274532D01*
X185039D01*
Y274007D01*
X182415Y276631D02*
X181891Y277156D01*
Y278205D01*
X182415Y278730D01*
X184515D01*
X185039Y278205D01*
Y277156D01*
X184515Y276631D01*
X182415D01*
Y279780D02*
X181891Y280304D01*
Y281354D01*
X182415Y281879D01*
X182940D01*
X183465Y281354D01*
X183990Y281879D01*
X184515D01*
X185039Y281354D01*
Y280304D01*
X184515Y279780D01*
X183990D01*
X183465Y280304D01*
X182940Y279780D01*
X182415D01*
X183465Y280304D02*
Y281354D01*
X185039Y282928D02*
X184515D01*
Y283453D01*
X185039D01*
Y282928D01*
Y287651D02*
Y285552D01*
X182940Y287651D01*
X182415D01*
X181891Y287126D01*
Y286077D01*
X182415Y285552D01*
Y288701D02*
X181891Y289225D01*
Y290275D01*
X182415Y290800D01*
X184515D01*
X185039Y290275D01*
Y289225D01*
X184515Y288701D01*
X182415D01*
X185039Y293948D02*
Y291849D01*
X182940Y293948D01*
X182415D01*
X181891Y293423D01*
Y292374D01*
X182415Y291849D01*
X185039Y294998D02*
Y296047D01*
Y295522D01*
X181891D01*
X182415Y294998D01*
D14*
X105118Y259331D02*
X105874D01*
X105118Y249331D02*
Y259331D01*
Y249331D02*
X105874D01*
X109874D02*
X110630D01*
Y259331D01*
X109874D02*
X110630D01*
X105118Y254331D02*
X110630D01*
X98032Y259331D02*
X98787D01*
X98032Y249331D02*
Y259331D01*
Y249331D02*
X98787D01*
X102787D02*
X103543D01*
Y259331D01*
X102787D02*
X103543D01*
X98032Y254331D02*
X103543D01*
X121653Y204213D02*
X122409D01*
X121653Y194213D02*
Y204213D01*
Y194213D02*
X122409D01*
X126409D02*
X127165D01*
Y204213D01*
X126409D02*
X127165D01*
X121653Y199213D02*
X127165D01*
X114567Y204213D02*
X115323D01*
X114567Y194213D02*
Y204213D01*
Y194213D02*
X115323D01*
X119323D02*
X120079D01*
Y204213D01*
X119323D02*
X120079D01*
X114567Y199213D02*
X120079D01*
X110925Y189547D02*
X111681D01*
X110925Y179547D02*
Y189547D01*
Y179547D02*
X111681D01*
X115681D02*
X116437D01*
Y189547D01*
X115681D02*
X116437D01*
X110925Y184547D02*
X116437D01*
X102480Y189677D02*
X103236D01*
X102480Y179677D02*
Y189677D01*
Y179677D02*
X103236D01*
X107236D02*
X107992D01*
Y189677D01*
X107236D02*
X107992D01*
X102480Y184677D02*
X107992D01*
X122472Y86339D02*
X123228D01*
Y96339D01*
X122472D02*
X123228D01*
X117717D02*
X118472D01*
X117717Y86339D02*
Y96339D01*
Y86339D02*
X118472D01*
X117717Y91339D02*
X123228D01*
X131134Y86339D02*
X131890D01*
Y96339D01*
X131134D02*
X131890D01*
X126378D02*
X127134D01*
X126378Y86339D02*
Y96339D01*
Y86339D02*
X127134D01*
X126378Y91339D02*
X131890D01*
X183252Y318685D02*
X187402D01*
X183252D02*
Y323835D01*
X187402D01*
X193685Y318685D02*
X194701Y319701D01*
X190551Y318685D02*
X193685D01*
X194701Y319701D02*
Y322622D01*
X193488Y323835D02*
X194701Y322622D01*
X190551Y323835D02*
X193488D01*
X170079Y318504D02*
Y324016D01*
X175079Y318504D02*
Y319260D01*
X165079Y318504D02*
X175079D01*
X165079D02*
Y319260D01*
Y323260D02*
Y324016D01*
X175079D01*
Y323260D02*
Y324016D01*
X117717Y111024D02*
X123228D01*
X122472Y116024D02*
X123228D01*
Y106024D02*
Y116024D01*
X122472Y106024D02*
X123228D01*
X117717D02*
X118472D01*
X117717D02*
Y116024D01*
X118472D01*
X177559Y170866D02*
X183071D01*
X177559Y165866D02*
X178315D01*
X177559D02*
Y175866D01*
X178315D01*
X182315D02*
X183071D01*
Y165866D02*
Y175866D01*
X182315Y165866D02*
X183071D01*
X176378Y238189D02*
Y243701D01*
X171378Y242945D02*
Y243701D01*
X181378D01*
Y242945D02*
Y243701D01*
Y238189D02*
Y238945D01*
X171378Y238189D02*
X181378D01*
X171378D02*
Y238945D01*
X175591Y181496D02*
Y187008D01*
X170591Y186252D02*
Y187008D01*
X180591D01*
Y186252D02*
Y187008D01*
Y181496D02*
Y182252D01*
X170591Y181496D02*
X180591D01*
X170591D02*
Y182252D01*
X124016Y378386D02*
Y383898D01*
X129016Y378386D02*
Y379142D01*
X119016Y378386D02*
X129016D01*
X119016D02*
Y379142D01*
Y383142D02*
Y383898D01*
X129016D01*
Y383142D02*
Y383898D01*
X124016Y370512D02*
Y376024D01*
X119016Y375268D02*
Y376024D01*
X129016D01*
Y375268D02*
Y376024D01*
Y370512D02*
Y371268D01*
X119016Y370512D02*
X129016D01*
X119016D02*
Y371268D01*
X89961Y360433D02*
X95866D01*
Y378150D01*
X89961D02*
X95866D01*
X89961Y360433D02*
Y378150D01*
X110236Y375630D02*
X115748D01*
X110236Y370630D02*
X110992D01*
X110236D02*
Y380630D01*
X110992D01*
X114992D02*
X115748D01*
Y370630D02*
Y380630D01*
X114992Y370630D02*
X115748D01*
X103150Y375630D02*
X108661D01*
X103150Y370630D02*
X103905D01*
X103150D02*
Y380630D01*
X103905D01*
X107905D02*
X108661D01*
Y370630D02*
Y380630D01*
X107905Y370630D02*
X108661D01*
X130315Y342913D02*
Y348425D01*
X135315Y342913D02*
Y343669D01*
X125315Y342913D02*
X135315D01*
X125315D02*
Y343669D01*
Y347669D02*
Y348425D01*
X135315D01*
Y347669D02*
Y348425D01*
X130315Y335039D02*
Y340551D01*
X135315Y335039D02*
Y335795D01*
X125315Y335039D02*
X135315D01*
X125315D02*
Y335795D01*
Y339795D02*
Y340551D01*
X135315D01*
Y339795D02*
Y340551D01*
X79724Y360433D02*
X85630D01*
Y378150D01*
X79724D02*
X85630D01*
X79724Y360433D02*
Y378150D01*
X42323Y342835D02*
X47835D01*
X47079Y347835D02*
X47835D01*
Y337835D02*
Y347835D01*
X47079Y337835D02*
X47835D01*
X42323D02*
X43079D01*
X42323D02*
Y347835D01*
X43079D01*
X49803Y342835D02*
X55315D01*
X49803Y337835D02*
X50559D01*
X49803D02*
Y347835D01*
X50559D01*
X54559D02*
X55315D01*
Y337835D02*
Y347835D01*
X54559Y337835D02*
X55315D01*
X75984Y353031D02*
X76740D01*
X75984Y343032D02*
Y353031D01*
Y343032D02*
X76740D01*
X80740D02*
X81496D01*
Y353031D01*
X80740D02*
X81496D01*
X75984Y348031D02*
X81496D01*
X83071Y353031D02*
X83827D01*
X83071Y343032D02*
Y353031D01*
Y343032D02*
X83827D01*
X87827D02*
X88583D01*
Y353031D01*
X87827D02*
X88583D01*
X83071Y348031D02*
X88583D01*
X92945Y297087D02*
X93701D01*
Y307087D01*
X92945D02*
X93701D01*
X88189D02*
X88945D01*
X88189Y297087D02*
Y307087D01*
Y297087D02*
X88945D01*
X88189Y302087D02*
X93701D01*
X93520Y277103D02*
Y280040D01*
X92307Y275890D02*
X93520Y277103D01*
X89386Y275890D02*
X92307D01*
X88370Y276906D02*
Y280040D01*
Y276906D02*
X89386Y275890D01*
X93520Y283190D02*
Y287339D01*
X88370D02*
X93520D01*
X88370Y283190D02*
Y287339D01*
X11548Y354592D02*
X11023Y355117D01*
X9974D01*
X9449Y354592D01*
Y352493D01*
X9974Y351969D01*
X11023D01*
X11548Y352493D01*
Y353543D01*
X10498D01*
X12597Y351969D02*
Y355117D01*
X14696Y351969D01*
Y355117D01*
X15746D02*
Y351969D01*
X17320D01*
X17845Y352493D01*
Y354592D01*
X17320Y355117D01*
X15746D01*
X4724Y368504D02*
Y371653D01*
X6299D01*
X6824Y371128D01*
Y370078D01*
X6299Y369553D01*
X4724D01*
X9972Y371653D02*
X7873D01*
Y368504D01*
X9972D01*
X7873Y370078D02*
X8923D01*
X24146Y354592D02*
X23621Y355117D01*
X22572D01*
X22047Y354592D01*
Y352493D01*
X22572Y351969D01*
X23621D01*
X24146Y352493D01*
Y353543D01*
X23097D01*
X25196Y351969D02*
Y355117D01*
X27295Y351969D01*
Y355117D01*
X28344D02*
Y351969D01*
X29919D01*
X30444Y352493D01*
Y354592D01*
X29919Y355117D01*
X28344D01*
X17847Y385039D02*
X15748D01*
X17847Y387138D01*
Y387663D01*
X17322Y388188D01*
X16273D01*
X15748Y387663D01*
X20471Y385039D02*
Y388188D01*
X18897Y386614D01*
X20996D01*
X22045Y388188D02*
Y386089D01*
X23095Y385039D01*
X24144Y386089D01*
Y388188D01*
X102362Y261417D02*
X99214D01*
Y262992D01*
X99738Y263516D01*
X100788D01*
X101313Y262992D01*
Y261417D01*
Y262467D02*
X102362Y263516D01*
Y266665D02*
Y264566D01*
X100263Y266665D01*
X99738D01*
X99214Y266140D01*
Y265091D01*
X99738Y264566D01*
Y267715D02*
X99214Y268239D01*
Y269289D01*
X99738Y269814D01*
X100263D01*
X100788Y269289D01*
X101313Y269814D01*
X101837D01*
X102362Y269289D01*
Y268239D01*
X101837Y267715D01*
X101313D01*
X100788Y268239D01*
X100263Y267715D01*
X99738D01*
X100788Y268239D02*
Y269289D01*
X109449Y261417D02*
X106300D01*
Y262992D01*
X106825Y263516D01*
X107875D01*
X108399Y262992D01*
Y261417D01*
Y262467D02*
X109449Y263516D01*
Y266665D02*
Y264566D01*
X107350Y266665D01*
X106825D01*
X106300Y266140D01*
Y265091D01*
X106825Y264566D01*
X106300Y267715D02*
Y269814D01*
X106825D01*
X108924Y267715D01*
X109449D01*
X125984Y207874D02*
X122836D01*
Y209448D01*
X123360Y209973D01*
X124410D01*
X124935Y209448D01*
Y207874D01*
Y208924D02*
X125984Y209973D01*
Y213122D02*
Y211023D01*
X123885Y213122D01*
X123360D01*
X122836Y212597D01*
Y211547D01*
X123360Y211023D01*
X122836Y216270D02*
X123360Y215221D01*
X124410Y214171D01*
X125460D01*
X125984Y214696D01*
Y215745D01*
X125460Y216270D01*
X124935D01*
X124410Y215745D01*
Y214171D01*
X118110Y207807D02*
X114962D01*
Y209381D01*
X115486Y209906D01*
X116536D01*
X117061Y209381D01*
Y207807D01*
Y208857D02*
X118110Y209906D01*
Y213055D02*
Y210956D01*
X116011Y213055D01*
X115486D01*
X114962Y212530D01*
Y211480D01*
X115486Y210956D01*
X114962Y216203D02*
Y214104D01*
X116536D01*
X116011Y215154D01*
Y215679D01*
X116536Y216203D01*
X117586D01*
X118110Y215679D01*
Y214629D01*
X117586Y214104D01*
X114961Y166142D02*
X111812D01*
Y167716D01*
X112337Y168241D01*
X113386D01*
X113911Y167716D01*
Y166142D01*
Y167191D02*
X114961Y168241D01*
Y171389D02*
Y169290D01*
X112862Y171389D01*
X112337D01*
X111812Y170865D01*
Y169815D01*
X112337Y169290D01*
X114961Y174013D02*
X111812D01*
X113386Y172439D01*
Y174538D01*
X106299Y166142D02*
X103151D01*
Y167716D01*
X103675Y168241D01*
X104725D01*
X105250Y167716D01*
Y166142D01*
Y167191D02*
X106299Y168241D01*
Y171389D02*
Y169290D01*
X104200Y171389D01*
X103675D01*
X103151Y170865D01*
Y169815D01*
X103675Y169290D01*
Y172439D02*
X103151Y172964D01*
Y174013D01*
X103675Y174538D01*
X104200D01*
X104725Y174013D01*
Y173488D01*
Y174013D01*
X105250Y174538D01*
X105774D01*
X106299Y174013D01*
Y172964D01*
X105774Y172439D01*
X130709Y74803D02*
X127560D01*
Y76377D01*
X128085Y76902D01*
X129134D01*
X129659Y76377D01*
Y74803D01*
Y75853D02*
X130709Y76902D01*
Y80051D02*
Y77952D01*
X128610Y80051D01*
X128085D01*
X127560Y79526D01*
Y78477D01*
X128085Y77952D01*
X130709Y83199D02*
Y81100D01*
X128610Y83199D01*
X128085D01*
X127560Y82675D01*
Y81625D01*
X128085Y81100D01*
X122047Y74803D02*
X118899D01*
Y76377D01*
X119423Y76902D01*
X120473D01*
X120998Y76377D01*
Y74803D01*
Y75853D02*
X122047Y76902D01*
Y80051D02*
Y77952D01*
X119948Y80051D01*
X119423D01*
X118899Y79526D01*
Y78477D01*
X119423Y77952D01*
X122047Y81100D02*
Y82150D01*
Y81625D01*
X118899D01*
X119423Y81100D01*
X1969Y346456D02*
X4068Y343307D01*
Y346456D02*
X1969Y343307D01*
X5117D02*
X6167D01*
X5642D01*
Y346456D01*
X5117Y345931D01*
X115726Y59419D02*
X116776D01*
X116251D01*
Y56270D01*
X115726D01*
X116776D01*
X120449Y58894D02*
X119924Y59419D01*
X118875D01*
X118350Y58894D01*
Y56795D01*
X118875Y56270D01*
X119924D01*
X120449Y56795D01*
X121498Y58894D02*
X122023Y59419D01*
X123073D01*
X123598Y58894D01*
Y58369D01*
X123073Y57844D01*
X122548D01*
X123073D01*
X123598Y57320D01*
Y56795D01*
X123073Y56270D01*
X122023D01*
X121498Y56795D01*
X153543Y37007D02*
X154593D01*
X154068D01*
Y33858D01*
X153543D01*
X154593D01*
X158266Y36482D02*
X157741Y37007D01*
X156692D01*
X156167Y36482D01*
Y34383D01*
X156692Y33858D01*
X157741D01*
X158266Y34383D01*
X161415Y33858D02*
X159316D01*
X161415Y35957D01*
Y36482D01*
X160890Y37007D01*
X159841D01*
X159316Y36482D01*
X54326Y38013D02*
X55375D01*
X54851D01*
Y34865D01*
X54326D01*
X55375D01*
X59049Y37488D02*
X58524Y38013D01*
X57475D01*
X56950Y37488D01*
Y35389D01*
X57475Y34865D01*
X58524D01*
X59049Y35389D01*
X60098Y34865D02*
X61148D01*
X60623D01*
Y38013D01*
X60098Y37488D01*
X3400Y79949D02*
Y77325D01*
X3925Y76800D01*
X4974D01*
X5499Y77325D01*
Y79949D01*
X8123Y76800D02*
Y79949D01*
X6549Y78374D01*
X8648D01*
X9697Y76275D02*
X11796D01*
X12846Y76800D02*
Y79949D01*
X14420D01*
X14945Y79424D01*
Y78374D01*
X14420Y77850D01*
X12846D01*
X13895D02*
X14945Y76800D01*
X18093Y79424D02*
X17569Y79949D01*
X16519D01*
X15994Y79424D01*
Y78899D01*
X16519Y78374D01*
X17569D01*
X18093Y77850D01*
Y77325D01*
X17569Y76800D01*
X16519D01*
X15994Y77325D01*
X20717Y76800D02*
Y79949D01*
X19143Y78374D01*
X21242D01*
X24391Y76800D02*
X22291D01*
X24391Y78899D01*
Y79424D01*
X23866Y79949D01*
X22816D01*
X22291Y79424D01*
X27539Y76800D02*
X25440D01*
X27539Y78899D01*
Y79424D01*
X27014Y79949D01*
X25965D01*
X25440Y79424D01*
X28589D02*
X29114Y79949D01*
X30163D01*
X30688Y79424D01*
Y78899D01*
X30163Y78374D01*
X29638D01*
X30163D01*
X30688Y77850D01*
Y77325D01*
X30163Y76800D01*
X29114D01*
X28589Y77325D01*
X3400Y221749D02*
Y219125D01*
X3925Y218600D01*
X4974D01*
X5499Y219125D01*
Y221749D01*
X8123Y218600D02*
Y221749D01*
X6549Y220174D01*
X8648D01*
X9697Y218075D02*
X11796D01*
X12846Y218600D02*
Y221749D01*
X14420D01*
X14945Y221224D01*
Y220174D01*
X14420Y219650D01*
X12846D01*
X13895D02*
X14945Y218600D01*
X18093Y221224D02*
X17569Y221749D01*
X16519D01*
X15994Y221224D01*
Y220699D01*
X16519Y220174D01*
X17569D01*
X18093Y219650D01*
Y219125D01*
X17569Y218600D01*
X16519D01*
X15994Y219125D01*
X20717Y218600D02*
Y221749D01*
X19143Y220174D01*
X21242D01*
X24391Y218600D02*
X22291D01*
X24391Y220699D01*
Y221224D01*
X23866Y221749D01*
X22816D01*
X22291Y221224D01*
X27539Y218600D02*
X25440D01*
X27539Y220699D01*
Y221224D01*
X27014Y221749D01*
X25965D01*
X25440Y221224D01*
X30688Y218600D02*
X28589D01*
X30688Y220699D01*
Y221224D01*
X30163Y221749D01*
X29114D01*
X28589Y221224D01*
X3400Y127249D02*
Y124625D01*
X3925Y124100D01*
X4974D01*
X5499Y124625D01*
Y127249D01*
X8123Y124100D02*
Y127249D01*
X6549Y125674D01*
X8648D01*
X9697Y123575D02*
X11796D01*
X12846Y124100D02*
Y127249D01*
X14420D01*
X14945Y126724D01*
Y125674D01*
X14420Y125150D01*
X12846D01*
X13895D02*
X14945Y124100D01*
X18093Y126724D02*
X17569Y127249D01*
X16519D01*
X15994Y126724D01*
Y126199D01*
X16519Y125674D01*
X17569D01*
X18093Y125150D01*
Y124625D01*
X17569Y124100D01*
X16519D01*
X15994Y124625D01*
X20717Y124100D02*
Y127249D01*
X19143Y125674D01*
X21242D01*
X24391Y124100D02*
X22291D01*
X24391Y126199D01*
Y126724D01*
X23866Y127249D01*
X22816D01*
X22291Y126724D01*
X27539Y124100D02*
X25440D01*
X27539Y126199D01*
Y126724D01*
X27014Y127249D01*
X25965D01*
X25440Y126724D01*
X28589Y124100D02*
X29638D01*
X29114D01*
Y127249D01*
X28589Y126724D01*
X3400Y174449D02*
Y171825D01*
X3925Y171300D01*
X4974D01*
X5499Y171825D01*
Y174449D01*
X6549Y173924D02*
X7073Y174449D01*
X8123D01*
X8648Y173924D01*
Y173399D01*
X8123Y172874D01*
X7598D01*
X8123D01*
X8648Y172350D01*
Y171825D01*
X8123Y171300D01*
X7073D01*
X6549Y171825D01*
X9697Y170775D02*
X11796D01*
X12846Y174449D02*
X14945D01*
X13895D01*
Y171300D01*
X15994Y174449D02*
X17044D01*
X16519D01*
Y171300D01*
X15994D01*
X17044D01*
X18618Y170775D02*
X20717D01*
X21767Y174449D02*
Y171300D01*
X23341D01*
X23866Y171825D01*
Y173924D01*
X23341Y174449D01*
X21767D01*
X27014Y173924D02*
X26490Y174449D01*
X25440D01*
X24915Y173924D01*
Y173399D01*
X25440Y172874D01*
X26490D01*
X27014Y172350D01*
Y171825D01*
X26490Y171300D01*
X25440D01*
X24915Y171825D01*
X30163Y171300D02*
X28064D01*
X30163Y173399D01*
Y173924D01*
X29638Y174449D01*
X28589D01*
X28064Y173924D01*
X33312Y174449D02*
X32262Y173924D01*
X31212Y172874D01*
Y171825D01*
X31737Y171300D01*
X32787D01*
X33312Y171825D01*
Y172350D01*
X32787Y172874D01*
X31212D01*
X36460Y173924D02*
X35935Y174449D01*
X34886D01*
X34361Y173924D01*
Y171825D01*
X34886Y171300D01*
X35935D01*
X36460Y171825D01*
X37510Y173924D02*
X38034Y174449D01*
X39084D01*
X39609Y173924D01*
Y173399D01*
X39084Y172874D01*
X38559D01*
X39084D01*
X39609Y172350D01*
Y171825D01*
X39084Y171300D01*
X38034D01*
X37510Y171825D01*
X42757Y171300D02*
X40658D01*
X42757Y173399D01*
Y173924D01*
X42233Y174449D01*
X41183D01*
X40658Y173924D01*
X43807Y171300D02*
Y173399D01*
X44856Y174449D01*
X45906Y173399D01*
Y171300D01*
Y172874D01*
X43807D01*
X46955Y174449D02*
X49055D01*
X48005D01*
Y171300D01*
X50629D02*
Y174449D01*
X51678D02*
Y171300D01*
X50104Y173399D02*
X51678D01*
X52203D01*
X50104Y172350D02*
X52203D01*
X55352Y171300D02*
X53253D01*
X55352Y173399D01*
Y173924D01*
X54827Y174449D01*
X53777D01*
X53253Y173924D01*
X3400Y268949D02*
Y266325D01*
X3925Y265800D01*
X4974D01*
X5499Y266325D01*
Y268949D01*
X6549Y268424D02*
X7073Y268949D01*
X8123D01*
X8648Y268424D01*
Y267899D01*
X8123Y267374D01*
X7598D01*
X8123D01*
X8648Y266849D01*
Y266325D01*
X8123Y265800D01*
X7073D01*
X6549Y266325D01*
X9697Y265275D02*
X11796D01*
X12846Y268949D02*
X14945D01*
X13895D01*
Y265800D01*
X15994Y268949D02*
X17044D01*
X16519D01*
Y265800D01*
X15994D01*
X17044D01*
X18618Y265275D02*
X20717D01*
X21767Y268949D02*
Y265800D01*
X23341D01*
X23866Y266325D01*
Y268424D01*
X23341Y268949D01*
X21767D01*
X27014Y268424D02*
X26490Y268949D01*
X25440D01*
X24915Y268424D01*
Y267899D01*
X25440Y267374D01*
X26490D01*
X27014Y266849D01*
Y266325D01*
X26490Y265800D01*
X25440D01*
X24915Y266325D01*
X30163Y265800D02*
X28064D01*
X30163Y267899D01*
Y268424D01*
X29638Y268949D01*
X28589D01*
X28064Y268424D01*
X33312Y268949D02*
X32262Y268424D01*
X31212Y267374D01*
Y266325D01*
X31737Y265800D01*
X32787D01*
X33312Y266325D01*
Y266849D01*
X32787Y267374D01*
X31212D01*
X36460Y268424D02*
X35935Y268949D01*
X34886D01*
X34361Y268424D01*
Y266325D01*
X34886Y265800D01*
X35935D01*
X36460Y266325D01*
X37510Y268424D02*
X38034Y268949D01*
X39084D01*
X39609Y268424D01*
Y267899D01*
X39084Y267374D01*
X38559D01*
X39084D01*
X39609Y266849D01*
Y266325D01*
X39084Y265800D01*
X38034D01*
X37510Y266325D01*
X42757Y265800D02*
X40658D01*
X42757Y267899D01*
Y268424D01*
X42233Y268949D01*
X41183D01*
X40658Y268424D01*
X43807Y265800D02*
Y267899D01*
X44856Y268949D01*
X45906Y267899D01*
Y265800D01*
Y267374D01*
X43807D01*
X46955Y268949D02*
X49055D01*
X48005D01*
Y265800D01*
X50629D02*
Y268949D01*
X51678D02*
Y265800D01*
X50104Y267899D02*
X51678D01*
X52203D01*
X50104Y266849D02*
X52203D01*
X53253Y265800D02*
X54302D01*
X53777D01*
Y268949D01*
X53253Y268424D01*
X155905Y325196D02*
Y322572D01*
X156430Y322047D01*
X157480D01*
X158005Y322572D01*
Y325196D01*
X161153Y322047D02*
X159054D01*
X161153Y324146D01*
Y324671D01*
X160628Y325196D01*
X159579D01*
X159054Y324671D01*
X34646Y329920D02*
Y327296D01*
X35170Y326772D01*
X36220D01*
X36745Y327296D01*
Y329920D01*
X37794Y326772D02*
X38844D01*
X38319D01*
Y329920D01*
X37794Y329396D01*
X130709Y382677D02*
Y385826D01*
X132283D01*
X132808Y385301D01*
Y384251D01*
X132283Y383727D01*
X130709D01*
X131758D02*
X132808Y382677D01*
X133857D02*
X134907D01*
X134382D01*
Y385826D01*
X133857Y385301D01*
X138580Y385826D02*
X137531Y385301D01*
X136481Y384251D01*
Y383202D01*
X137006Y382677D01*
X138055D01*
X138580Y383202D01*
Y383727D01*
X138055Y384251D01*
X136481D01*
X114173Y382677D02*
X111025D01*
Y384251D01*
X111549Y384776D01*
X112599D01*
X113124Y384251D01*
Y382677D01*
Y383727D02*
X114173Y384776D01*
Y385826D02*
Y386875D01*
Y386350D01*
X111025D01*
X111549Y385826D01*
X111025Y390549D02*
Y388450D01*
X112599D01*
X112074Y389499D01*
Y390024D01*
X112599Y390549D01*
X113648D01*
X114173Y390024D01*
Y388974D01*
X113648Y388450D01*
X101575Y371654D02*
X98426D01*
Y373228D01*
X98951Y373753D01*
X100001D01*
X100525Y373228D01*
Y371654D01*
Y372703D02*
X101575Y373753D01*
Y374802D02*
Y375852D01*
Y375327D01*
X98426D01*
X98951Y374802D01*
X101575Y379000D02*
X98426D01*
X100001Y377426D01*
Y379525D01*
X114370Y306693D02*
Y309841D01*
X115944D01*
X116469Y309317D01*
Y308267D01*
X115944Y307743D01*
X114370D01*
X115420D02*
X116469Y306693D01*
X117519D02*
X118568D01*
X118043D01*
Y309841D01*
X117519Y309317D01*
X120142D02*
X120667Y309841D01*
X121717D01*
X122242Y309317D01*
Y308792D01*
X121717Y308267D01*
X121192D01*
X121717D01*
X122242Y307743D01*
Y307218D01*
X121717Y306693D01*
X120667D01*
X120142Y307218D01*
X114173Y312598D02*
Y315747D01*
X115747D01*
X116272Y315222D01*
Y314173D01*
X115747Y313648D01*
X114173D01*
X115223D02*
X116272Y312598D01*
X117322D02*
X118371D01*
X117847D01*
Y315747D01*
X117322Y315222D01*
X122045Y312598D02*
X119946D01*
X122045Y314698D01*
Y315222D01*
X121520Y315747D01*
X120470D01*
X119946Y315222D01*
X130709Y369291D02*
Y372440D01*
X132283D01*
X132808Y371915D01*
Y370866D01*
X132283Y370341D01*
X130709D01*
X131758D02*
X132808Y369291D01*
X133857D02*
X134907D01*
X134382D01*
Y372440D01*
X133857Y371915D01*
X136481Y369291D02*
X137531D01*
X137006D01*
Y372440D01*
X136481Y371915D01*
X83465Y337008D02*
Y340157D01*
X85039D01*
X85564Y339632D01*
Y338582D01*
X85039Y338057D01*
X83465D01*
X84514D02*
X85564Y337008D01*
X86613D02*
X87663D01*
X87138D01*
Y340157D01*
X86613Y339632D01*
X89237D02*
X89762Y340157D01*
X90811D01*
X91336Y339632D01*
Y337533D01*
X90811Y337008D01*
X89762D01*
X89237Y337533D01*
Y339632D01*
X165354Y312598D02*
Y315747D01*
X166929D01*
X167453Y315222D01*
Y314173D01*
X166929Y313648D01*
X165354D01*
X166404D02*
X167453Y312598D01*
X168503Y313123D02*
X169028Y312598D01*
X170077D01*
X170602Y313123D01*
Y315222D01*
X170077Y315747D01*
X169028D01*
X168503Y315222D01*
Y314698D01*
X169028Y314173D01*
X170602D01*
X88465Y310135D02*
Y313284D01*
X90040D01*
X90564Y312759D01*
Y311710D01*
X90040Y311185D01*
X88465D01*
X89515D02*
X90564Y310135D01*
X91614Y312759D02*
X92139Y313284D01*
X93188D01*
X93713Y312759D01*
Y312234D01*
X93188Y311710D01*
X93713Y311185D01*
Y310660D01*
X93188Y310135D01*
X92139D01*
X91614Y310660D01*
Y311185D01*
X92139Y311710D01*
X91614Y312234D01*
Y312759D01*
X92139Y311710D02*
X93188D01*
X76378Y337008D02*
Y340157D01*
X77952D01*
X78477Y339632D01*
Y338582D01*
X77952Y338057D01*
X76378D01*
X77428D02*
X78477Y337008D01*
X79527Y340157D02*
X81626D01*
Y339632D01*
X79527Y337533D01*
Y337008D01*
X20079Y337677D02*
Y340825D01*
X21653D01*
X22178Y340300D01*
Y339251D01*
X21653Y338726D01*
X20079D01*
X21128D02*
X22178Y337677D01*
X25326Y340825D02*
X24277Y340300D01*
X23227Y339251D01*
Y338201D01*
X23752Y337677D01*
X24802D01*
X25326Y338201D01*
Y338726D01*
X24802Y339251D01*
X23227D01*
X20079Y343188D02*
Y346337D01*
X21653D01*
X22178Y345812D01*
Y344763D01*
X21653Y344238D01*
X20079D01*
X21128D02*
X22178Y343188D01*
X25326Y346337D02*
X23227D01*
Y344763D01*
X24277Y345287D01*
X24802D01*
X25326Y344763D01*
Y343713D01*
X24802Y343188D01*
X23752D01*
X23227Y343713D01*
X90551Y384251D02*
Y381102D01*
X92650D01*
X95799D02*
X93700D01*
X95799Y383201D01*
Y383726D01*
X95274Y384251D01*
X94225D01*
X93700Y383726D01*
X80315Y384251D02*
Y381102D01*
X82414D01*
X83464D02*
X84513D01*
X83988D01*
Y384251D01*
X83464Y383726D01*
X153150Y390511D02*
Y387362D01*
X154724D01*
X155249Y387887D01*
Y389986D01*
X154724Y390511D01*
X153150D01*
X158397D02*
X157348Y389986D01*
X156298Y388936D01*
Y387887D01*
X156823Y387362D01*
X157872D01*
X158397Y387887D01*
Y388412D01*
X157872Y388936D01*
X156298D01*
X182677Y315747D02*
Y312598D01*
X184251D01*
X184776Y313123D01*
Y315222D01*
X184251Y315747D01*
X182677D01*
X187925D02*
X185826D01*
Y314173D01*
X186875Y314698D01*
X187400D01*
X187925Y314173D01*
Y313123D01*
X187400Y312598D01*
X186351D01*
X185826Y313123D01*
X87865Y294084D02*
Y290935D01*
X89440D01*
X89964Y291460D01*
Y293559D01*
X89440Y294084D01*
X87865D01*
X92588Y290935D02*
Y294084D01*
X91014Y292510D01*
X93113D01*
X86559Y334404D02*
Y331255D01*
X88134D01*
X88658Y331780D01*
Y333879D01*
X88134Y334404D01*
X86559D01*
X89708Y333879D02*
X90232Y334404D01*
X91282D01*
X91807Y333879D01*
Y333354D01*
X91282Y332830D01*
X90757D01*
X91282D01*
X91807Y332305D01*
Y331780D01*
X91282Y331255D01*
X90232D01*
X89708Y331780D01*
X114698Y25458D02*
X114173Y25983D01*
X113123D01*
X112598Y25458D01*
Y23359D01*
X113123Y22835D01*
X114173D01*
X114698Y23359D01*
X117846Y22835D02*
X115747D01*
X117846Y24934D01*
Y25458D01*
X117321Y25983D01*
X116272D01*
X115747Y25458D01*
X118896D02*
X119420Y25983D01*
X120470D01*
X120995Y25458D01*
Y24934D01*
X120470Y24409D01*
X120995Y23884D01*
Y23359D01*
X120470Y22835D01*
X119420D01*
X118896Y23359D01*
Y23884D01*
X119420Y24409D01*
X118896Y24934D01*
Y25458D01*
X119420Y24409D02*
X120470D01*
X155642Y6561D02*
X155118Y7086D01*
X154068D01*
X153543Y6561D01*
Y4462D01*
X154068Y3937D01*
X155118D01*
X155642Y4462D01*
X158791Y3937D02*
X156692D01*
X158791Y6036D01*
Y6561D01*
X158266Y7086D01*
X157217D01*
X156692Y6561D01*
X159841Y7086D02*
X161940D01*
Y6561D01*
X159841Y4462D01*
Y3937D01*
X89501Y23884D02*
X88976Y24408D01*
X87926D01*
X87402Y23884D01*
Y21785D01*
X87926Y21260D01*
X88976D01*
X89501Y21785D01*
X92649Y21260D02*
X90550D01*
X92649Y23359D01*
Y23884D01*
X92124Y24408D01*
X91075D01*
X90550Y23884D01*
X95798Y24408D02*
X94748Y23884D01*
X93699Y22834D01*
Y21785D01*
X94223Y21260D01*
X95273D01*
X95798Y21785D01*
Y22309D01*
X95273Y22834D01*
X93699D01*
X132808Y390813D02*
X132283Y391338D01*
X131233D01*
X130709Y390813D01*
Y388714D01*
X131233Y388189D01*
X132283D01*
X132808Y388714D01*
X135956Y388189D02*
X133857D01*
X135956Y390288D01*
Y390813D01*
X135432Y391338D01*
X134382D01*
X133857Y390813D01*
X137006D02*
X137531Y391338D01*
X138580D01*
X139105Y390813D01*
Y390288D01*
X138580Y389763D01*
X138055D01*
X138580D01*
X139105Y389239D01*
Y388714D01*
X138580Y388189D01*
X137531D01*
X137006Y388714D01*
X116233Y303017D02*
X115708Y303542D01*
X114659D01*
X114134Y303017D01*
Y300919D01*
X114659Y300394D01*
X115708D01*
X116233Y300919D01*
X119381Y300394D02*
X117282D01*
X119381Y302493D01*
Y303017D01*
X118857Y303542D01*
X117807D01*
X117282Y303017D01*
X122530Y300394D02*
X120431D01*
X122530Y302493D01*
Y303017D01*
X122005Y303542D01*
X120956D01*
X120431Y303017D01*
X105249Y323096D02*
X104724Y323621D01*
X103674D01*
X103150Y323096D01*
Y320997D01*
X103674Y320472D01*
X104724D01*
X105249Y320997D01*
X108397Y320472D02*
X106298D01*
X108397Y322571D01*
Y323096D01*
X107872Y323621D01*
X106823D01*
X106298Y323096D01*
X109447Y320472D02*
X110496D01*
X109972D01*
Y323621D01*
X109447Y323096D01*
X105249Y328608D02*
X104724Y329133D01*
X103674D01*
X103150Y328608D01*
Y326509D01*
X103674Y325984D01*
X104724D01*
X105249Y326509D01*
X108397Y325984D02*
X106298D01*
X108397Y328083D01*
Y328608D01*
X107872Y329133D01*
X106823D01*
X106298Y328608D01*
X109447D02*
X109972Y329133D01*
X111021D01*
X111546Y328608D01*
Y326509D01*
X111021Y325984D01*
X109972D01*
X109447Y326509D01*
Y328608D01*
X116272D02*
X115747Y329133D01*
X114698D01*
X114173Y328608D01*
Y326509D01*
X114698Y325984D01*
X115747D01*
X116272Y326509D01*
X117322Y325984D02*
X118371D01*
X117847D01*
Y329133D01*
X117322Y328608D01*
X119946Y326509D02*
X120470Y325984D01*
X121520D01*
X122045Y326509D01*
Y328608D01*
X121520Y329133D01*
X120470D01*
X119946Y328608D01*
Y328083D01*
X120470Y327559D01*
X122045D01*
X116233Y296718D02*
X115708Y297243D01*
X114659D01*
X114134Y296718D01*
Y294619D01*
X114659Y294094D01*
X115708D01*
X116233Y294619D01*
X117282Y294094D02*
X118332D01*
X117807D01*
Y297243D01*
X117282Y296718D01*
X119906D02*
X120431Y297243D01*
X121481D01*
X122005Y296718D01*
Y296194D01*
X121481Y295669D01*
X122005Y295144D01*
Y294619D01*
X121481Y294094D01*
X120431D01*
X119906Y294619D01*
Y295144D01*
X120431Y295669D01*
X119906Y296194D01*
Y296718D01*
X120431Y295669D02*
X121481D01*
X132020Y353805D02*
X131496Y354330D01*
X130446D01*
X129921Y353805D01*
Y351706D01*
X130446Y351181D01*
X131496D01*
X132020Y351706D01*
X133070Y351181D02*
X134119D01*
X133595D01*
Y354330D01*
X133070Y353805D01*
X135694Y354330D02*
X137793D01*
Y353805D01*
X135694Y351706D01*
Y351181D01*
X120997Y353805D02*
X120472Y354330D01*
X119422D01*
X118898Y353805D01*
Y351706D01*
X119422Y351181D01*
X120472D01*
X120997Y351706D01*
X122046Y351181D02*
X123096D01*
X122571D01*
Y354330D01*
X122046Y353805D01*
X126769Y354330D02*
X125720Y353805D01*
X124670Y352755D01*
Y351706D01*
X125195Y351181D01*
X126244D01*
X126769Y351706D01*
Y352231D01*
X126244Y352755D01*
X124670D01*
X111548Y353805D02*
X111023Y354330D01*
X109974D01*
X109449Y353805D01*
Y351706D01*
X109974Y351181D01*
X111023D01*
X111548Y351706D01*
X112597Y351181D02*
X113647D01*
X113122D01*
Y354330D01*
X112597Y353805D01*
X117320Y354330D02*
X115221D01*
Y352755D01*
X116271Y353280D01*
X116796D01*
X117320Y352755D01*
Y351706D01*
X116796Y351181D01*
X115746D01*
X115221Y351706D01*
X102099Y353805D02*
X101574Y354330D01*
X100525D01*
X100000Y353805D01*
Y351706D01*
X100525Y351181D01*
X101574D01*
X102099Y351706D01*
X103149Y351181D02*
X104198D01*
X103673D01*
Y354330D01*
X103149Y353805D01*
X107347Y351181D02*
Y354330D01*
X105772Y352755D01*
X107871D01*
X93438Y357742D02*
X92913Y358267D01*
X91863D01*
X91339Y357742D01*
Y355643D01*
X91863Y355118D01*
X92913D01*
X93438Y355643D01*
X94487Y355118D02*
X95537D01*
X95012D01*
Y358267D01*
X94487Y357742D01*
X97111D02*
X97636Y358267D01*
X98685D01*
X99210Y357742D01*
Y357217D01*
X98685Y356692D01*
X98160D01*
X98685D01*
X99210Y356168D01*
Y355643D01*
X98685Y355118D01*
X97636D01*
X97111Y355643D01*
X22178Y334001D02*
X21653Y334526D01*
X20604D01*
X20079Y334001D01*
Y331902D01*
X20604Y331377D01*
X21653D01*
X22178Y331902D01*
X23227Y331377D02*
X24277D01*
X23752D01*
Y334526D01*
X23227Y334001D01*
X27950Y331377D02*
X25851D01*
X27950Y333476D01*
Y334001D01*
X27426Y334526D01*
X26376D01*
X25851Y334001D01*
X39108Y374540D02*
X38584Y374015D01*
Y372966D01*
X39108Y372441D01*
X41208D01*
X41732Y372966D01*
Y374015D01*
X41208Y374540D01*
X41732Y375589D02*
Y376639D01*
Y376114D01*
X38584D01*
X39108Y375589D01*
X41732Y378213D02*
Y379263D01*
Y378738D01*
X38584D01*
X39108Y378213D01*
Y364304D02*
X38584Y363779D01*
Y362730D01*
X39108Y362205D01*
X41208D01*
X41732Y362730D01*
Y363779D01*
X41208Y364304D01*
X41732Y365353D02*
Y366403D01*
Y365878D01*
X38584D01*
X39108Y365353D01*
Y367977D02*
X38584Y368502D01*
Y369551D01*
X39108Y370076D01*
X41208D01*
X41732Y369551D01*
Y368502D01*
X41208Y367977D01*
X39108D01*
Y354855D02*
X38584Y354330D01*
Y353281D01*
X39108Y352756D01*
X41208D01*
X41732Y353281D01*
Y354330D01*
X41208Y354855D01*
Y355905D02*
X41732Y356429D01*
Y357479D01*
X41208Y358004D01*
X39108D01*
X38584Y357479D01*
Y356429D01*
X39108Y355905D01*
X39633D01*
X40158Y356429D01*
Y358004D01*
X22178Y327702D02*
X21653Y328227D01*
X20604D01*
X20079Y327702D01*
Y325603D01*
X20604Y325078D01*
X21653D01*
X22178Y325603D01*
X23227Y327702D02*
X23752Y328227D01*
X24802D01*
X25326Y327702D01*
Y327177D01*
X24802Y326653D01*
X25326Y326128D01*
Y325603D01*
X24802Y325078D01*
X23752D01*
X23227Y325603D01*
Y326128D01*
X23752Y326653D01*
X23227Y327177D01*
Y327702D01*
X23752Y326653D02*
X24802D01*
X58792Y340419D02*
X58267Y340944D01*
X57218D01*
X56693Y340419D01*
Y338320D01*
X57218Y337795D01*
X58267D01*
X58792Y338320D01*
X59842Y340944D02*
X61941D01*
Y340419D01*
X59842Y338320D01*
Y337795D01*
X58792Y346718D02*
X58267Y347243D01*
X57218D01*
X56693Y346718D01*
Y344619D01*
X57218Y344094D01*
X58267D01*
X58792Y344619D01*
X61941Y347243D02*
X60891Y346718D01*
X59842Y345669D01*
Y344619D01*
X60366Y344094D01*
X61416D01*
X61941Y344619D01*
Y345144D01*
X61416Y345669D01*
X59842D01*
X67453Y376640D02*
X66929Y377164D01*
X65879D01*
X65354Y376640D01*
Y374540D01*
X65879Y374016D01*
X66929D01*
X67453Y374540D01*
X70602Y377164D02*
X68503D01*
Y375590D01*
X69552Y376115D01*
X70077D01*
X70602Y375590D01*
Y374540D01*
X70077Y374016D01*
X69028D01*
X68503Y374540D01*
X67453Y382033D02*
X66929Y382558D01*
X65879D01*
X65354Y382033D01*
Y379934D01*
X65879Y379409D01*
X66929D01*
X67453Y379934D01*
X70077Y379409D02*
Y382558D01*
X68503Y380983D01*
X70602D01*
X67453Y387663D02*
X66929Y388188D01*
X65879D01*
X65354Y387663D01*
Y385564D01*
X65879Y385039D01*
X66929D01*
X67453Y385564D01*
X68503Y387663D02*
X69028Y388188D01*
X70077D01*
X70602Y387663D01*
Y387138D01*
X70077Y386614D01*
X69552D01*
X70077D01*
X70602Y386089D01*
Y385564D01*
X70077Y385039D01*
X69028D01*
X68503Y385564D01*
D15*
X127953Y103542D02*
X155511D01*
X127954Y111417D02*
X130709D01*
X152756D02*
X155512D01*
X152756D02*
Y114174D01*
X130709Y111417D02*
Y114174D01*
X127954Y103542D02*
Y111417D01*
X155512Y103543D02*
Y111417D01*
Y283858D02*
Y291535D01*
X130709Y281101D02*
Y283858D01*
X152756Y281101D02*
Y283858D01*
X155512D01*
X127954D02*
X130709D01*
X132480Y291535D02*
X155512D01*
X127954Y287009D02*
X132480Y291535D01*
X127954Y283858D02*
Y287009D01*
D16*
X191114Y194563D02*
Y197563D01*
X182114Y194563D02*
X191114D01*
X182114D02*
Y197563D01*
X191114D01*
D17*
X3185Y390079D02*
X36185D01*
Y383879D02*
Y390079D01*
X34185Y383879D02*
X36185D01*
X34185Y379579D02*
Y383879D01*
Y379579D02*
X36185D01*
Y360579D02*
Y379579D01*
X34185Y360579D02*
X36185D01*
X34185Y356279D02*
Y360579D01*
Y356279D02*
X36185D01*
Y350079D02*
Y356279D01*
X3185Y350079D02*
X36185D01*
X3185D02*
Y356279D01*
X5185D01*
Y363079D01*
X1185D02*
X5185D01*
X1185D02*
Y377079D01*
X5185D01*
Y384079D01*
X3185Y383879D02*
X5185D01*
X3185D02*
Y390079D01*
X188977Y246457D02*
X190748D01*
X191339Y247047D01*
Y248818D01*
X188977D01*
Y249999D02*
Y252360D01*
X191339Y249999D01*
Y252360D01*
X191929Y253541D02*
Y255902D01*
X191339Y258854D02*
Y257674D01*
X190748Y257083D01*
X189567D01*
X188977Y257674D01*
Y258854D01*
X189567Y259445D01*
X190158D01*
Y257083D01*
X188977Y260625D02*
X191339Y262987D01*
X190158Y261806D01*
X188977Y262987D01*
X191339Y260625D01*
X188387Y264758D02*
X188977D01*
Y264167D01*
Y265348D01*
Y264758D01*
X190748D01*
X191339Y265348D01*
X191929Y267119D02*
Y269481D01*
X187796Y273023D02*
X191339D01*
Y271252D01*
X190748Y270661D01*
X189567D01*
X188977Y271252D01*
Y273023D01*
X191929Y274204D02*
Y276565D01*
X191339Y277746D02*
Y278926D01*
Y278336D01*
X188977D01*
Y277746D01*
X191339Y280698D02*
X188977D01*
Y282469D01*
X189567Y283059D01*
X191339D01*
X188387Y284830D02*
X188977D01*
Y284240D01*
Y285420D01*
Y284830D01*
X190748D01*
X191339Y285420D01*
Y288963D02*
Y287782D01*
X190748Y287192D01*
X189567D01*
X188977Y287782D01*
Y288963D01*
X189567Y289553D01*
X190158D01*
Y287192D01*
X188977Y290734D02*
X191339D01*
X190158D01*
X189567Y291324D01*
X188977Y291914D01*
Y292505D01*
X191339Y294866D02*
X188387D01*
X189567D01*
Y294276D01*
Y295457D01*
Y294866D01*
X188387D01*
X187796Y295457D01*
X188977Y297818D02*
Y298999D01*
X189567Y299589D01*
X191339D01*
Y297818D01*
X190748Y297228D01*
X190158Y297818D01*
Y299589D01*
X188977Y303131D02*
Y301360D01*
X189567Y300770D01*
X190748D01*
X191339Y301360D01*
Y303131D01*
Y306083D02*
Y304902D01*
X190748Y304312D01*
X189567D01*
X188977Y304902D01*
Y306083D01*
X189567Y306673D01*
X190158D01*
Y304312D01*
X19685Y311298D02*
X20685Y312297D01*
X22684D01*
X23684Y311298D01*
Y310298D01*
X22684Y309298D01*
X21684D01*
X22684D01*
X23684Y308299D01*
Y307299D01*
X22684Y306299D01*
X20685D01*
X19685Y307299D01*
X25683Y312297D02*
Y308299D01*
X27683Y306299D01*
X29682Y308299D01*
Y312297D01*
X31681Y311298D02*
X32681Y312297D01*
X34680D01*
X35680Y311298D01*
Y310298D01*
X34680Y309298D01*
X33680D01*
X34680D01*
X35680Y308299D01*
Y307299D01*
X34680Y306299D01*
X32681D01*
X31681Y307299D01*
X187463Y379226D02*
X183465D01*
Y376227D01*
X185464Y377227D01*
X186464D01*
X187463Y376227D01*
Y374228D01*
X186464Y373228D01*
X184464D01*
X183465Y374228D01*
X189463Y379226D02*
Y375228D01*
X191462Y373228D01*
X193461Y375228D01*
Y379226D01*
M02*
