G04*
G04 #@! TF.GenerationSoftware,Altium Limited,Altium Designer,21.2.0 (30)*
G04*
G04 Layer_Color=8388736*
%FSLAX25Y25*%
%MOIN*%
G70*
G04*
G04 #@! TF.SameCoordinates,A3FB2E6E-176B-49CF-A702-6EBA3DBCADC7*
G04*
G04*
G04 #@! TF.FilePolarity,Positive*
G04*
G01*
G75*
%ADD13C,0.00787*%
%ADD16C,0.00394*%
G36*
X171327Y233855D02*
X171447Y233847D01*
X171556Y233836D01*
X171658Y233818D01*
X171753Y233800D01*
X171837Y233778D01*
X171913Y233756D01*
X171979Y233734D01*
X172037Y233713D01*
X172088Y233687D01*
X172132Y233669D01*
X172164Y233651D01*
X172193Y233633D01*
X172212Y233622D01*
X172222Y233614D01*
X172226Y233611D01*
X172270Y233571D01*
X172310Y233527D01*
X172346Y233480D01*
X172375Y233432D01*
X172401Y233385D01*
X172423Y233338D01*
X172437Y233290D01*
X172452Y233247D01*
X172463Y233203D01*
X172470Y233163D01*
X172477Y233127D01*
X172481Y233098D01*
X172485Y233072D01*
Y233036D01*
X172477Y232937D01*
X172463Y232846D01*
X172437Y232770D01*
X172412Y232704D01*
X172386Y232650D01*
X172372Y232632D01*
X172361Y232613D01*
X172354Y232599D01*
X172346Y232588D01*
X172339Y232584D01*
Y232581D01*
X172277Y232515D01*
X172212Y232460D01*
X172139Y232413D01*
X172073Y232377D01*
X172011Y232348D01*
X171986Y232333D01*
X171960Y232326D01*
X171942Y232319D01*
X171928Y232311D01*
X171920Y232308D01*
X171917D01*
X171862Y232289D01*
X171808Y232275D01*
X171691Y232253D01*
X171571Y232235D01*
X171455Y232224D01*
X171404Y232220D01*
X171356Y232217D01*
X171312D01*
X171273Y232213D01*
X171243D01*
X171218D01*
X171203D01*
X171200D01*
X171131D01*
X171065Y232217D01*
X171007D01*
X170949Y232220D01*
X170898Y232228D01*
X170847Y232231D01*
X170803Y232235D01*
X170763Y232242D01*
X170727Y232246D01*
X170694Y232253D01*
X170668Y232257D01*
X170646Y232260D01*
X170628Y232264D01*
X170617Y232268D01*
X170610Y232271D01*
X170606D01*
X170526Y232293D01*
X170454Y232319D01*
X170392Y232348D01*
X170337Y232369D01*
X170290Y232395D01*
X170257Y232410D01*
X170239Y232424D01*
X170231Y232428D01*
X170177Y232468D01*
X170130Y232508D01*
X170089Y232552D01*
X170053Y232592D01*
X170028Y232628D01*
X170009Y232657D01*
X169999Y232675D01*
X169995Y232679D01*
Y232682D01*
X169966Y232741D01*
X169948Y232803D01*
X169933Y232861D01*
X169922Y232915D01*
X169915Y232963D01*
X169911Y233003D01*
Y233036D01*
X169918Y233134D01*
X169933Y233225D01*
X169958Y233301D01*
X169984Y233367D01*
X170013Y233421D01*
X170024Y233443D01*
X170038Y233461D01*
X170046Y233476D01*
X170053Y233487D01*
X170060Y233491D01*
Y233494D01*
X170119Y233560D01*
X170188Y233614D01*
X170257Y233662D01*
X170323Y233698D01*
X170384Y233727D01*
X170410Y233742D01*
X170435Y233749D01*
X170454Y233756D01*
X170468Y233764D01*
X170475Y233767D01*
X170479D01*
X170534Y233782D01*
X170588Y233796D01*
X170708Y233818D01*
X170828Y233836D01*
X170941Y233847D01*
X170996Y233851D01*
X171043Y233855D01*
X171087D01*
X171127Y233858D01*
X171156D01*
X171181D01*
X171196D01*
X171200D01*
X171327Y233855D01*
D02*
G37*
G36*
X172441Y231372D02*
X172088D01*
Y231725D01*
X172441D01*
Y231372D01*
D02*
G37*
G36*
X170821Y230630D02*
X170796Y230575D01*
X170770Y230520D01*
X170745Y230469D01*
X170723Y230426D01*
X170705Y230389D01*
X170690Y230367D01*
X170686Y230364D01*
Y230360D01*
X170646Y230295D01*
X170606Y230237D01*
X170570Y230186D01*
X170537Y230146D01*
X170512Y230109D01*
X170490Y230087D01*
X170475Y230069D01*
X170472Y230065D01*
X172441D01*
Y229756D01*
X169911D01*
Y229956D01*
X169973Y229993D01*
X170031Y230033D01*
X170089Y230080D01*
X170141Y230124D01*
X170184Y230167D01*
X170220Y230200D01*
X170231Y230215D01*
X170242Y230226D01*
X170246Y230229D01*
X170250Y230233D01*
X170311Y230309D01*
X170370Y230386D01*
X170421Y230458D01*
X170461Y230531D01*
X170497Y230593D01*
X170512Y230619D01*
X170523Y230641D01*
X170534Y230659D01*
X170537Y230673D01*
X170545Y230680D01*
Y230684D01*
X170843D01*
X170821Y230630D01*
D02*
G37*
G36*
X173140Y227547D02*
X172255D01*
X172299Y227510D01*
X172335Y227477D01*
X172364Y227445D01*
X172390Y227419D01*
X172405Y227397D01*
X172419Y227379D01*
X172423Y227368D01*
X172426Y227364D01*
X172445Y227321D01*
X172459Y227281D01*
X172466Y227237D01*
X172474Y227197D01*
X172477Y227164D01*
X172481Y227139D01*
Y227113D01*
X172477Y227055D01*
X172470Y227000D01*
X172459Y226953D01*
X172445Y226913D01*
X172434Y226880D01*
X172423Y226855D01*
X172415Y226837D01*
X172412Y226833D01*
X172390Y226800D01*
X172361Y226767D01*
X172328Y226738D01*
X172299Y226709D01*
X172270Y226688D01*
X172244Y226669D01*
X172230Y226658D01*
X172222Y226655D01*
X172441D01*
Y226378D01*
X170614D01*
Y226684D01*
X171393D01*
X171469D01*
X171535Y226688D01*
X171597D01*
X171655Y226691D01*
X171702Y226695D01*
X171746Y226698D01*
X171786Y226702D01*
X171818Y226706D01*
X171848Y226713D01*
X171870Y226717D01*
X171891Y226720D01*
X171906Y226724D01*
X171917Y226728D01*
X171924D01*
X171931Y226731D01*
X171975Y226749D01*
X172011Y226775D01*
X172048Y226800D01*
X172073Y226822D01*
X172099Y226848D01*
X172113Y226866D01*
X172124Y226880D01*
X172128Y226884D01*
X172153Y226924D01*
X172172Y226968D01*
X172183Y227008D01*
X172190Y227044D01*
X172197Y227077D01*
X172201Y227106D01*
Y227128D01*
X172197Y227175D01*
X172190Y227219D01*
X172179Y227259D01*
X172164Y227292D01*
X172153Y227321D01*
X172143Y227343D01*
X172135Y227357D01*
X172132Y227361D01*
X172102Y227394D01*
X172070Y227423D01*
X172037Y227448D01*
X172004Y227470D01*
X171979Y227485D01*
X171957Y227496D01*
X171939Y227499D01*
X171935Y227503D01*
X171909Y227510D01*
X171873Y227517D01*
X171837Y227525D01*
X171797Y227528D01*
X171706Y227536D01*
X171615Y227539D01*
X171527Y227543D01*
X171491Y227547D01*
X171455D01*
X171429D01*
X171407D01*
X171393D01*
X171389D01*
X170614D01*
Y227856D01*
X173140D01*
Y227547D01*
D02*
G37*
G36*
X172441Y225479D02*
X171298D01*
Y224296D01*
X171000D01*
Y225479D01*
X170220D01*
Y224110D01*
X169922D01*
Y225814D01*
X172441D01*
Y225479D01*
D02*
G37*
G36*
X112272Y228343D02*
X112392Y228335D01*
X112501Y228325D01*
X112603Y228306D01*
X112698Y228288D01*
X112782Y228266D01*
X112858Y228244D01*
X112924Y228223D01*
X112982Y228201D01*
X113033Y228175D01*
X113076Y228157D01*
X113109Y228139D01*
X113138Y228121D01*
X113156Y228110D01*
X113167Y228103D01*
X113171Y228099D01*
X113215Y228059D01*
X113255Y228015D01*
X113291Y227968D01*
X113320Y227921D01*
X113346Y227873D01*
X113368Y227826D01*
X113382Y227779D01*
X113397Y227735D01*
X113408Y227691D01*
X113415Y227651D01*
X113422Y227615D01*
X113426Y227586D01*
X113429Y227560D01*
Y227524D01*
X113422Y227426D01*
X113408Y227334D01*
X113382Y227258D01*
X113357Y227193D01*
X113331Y227138D01*
X113317Y227120D01*
X113306Y227102D01*
X113298Y227087D01*
X113291Y227076D01*
X113284Y227073D01*
Y227069D01*
X113222Y227003D01*
X113156Y226949D01*
X113084Y226901D01*
X113018Y226865D01*
X112956Y226836D01*
X112931Y226821D01*
X112905Y226814D01*
X112887Y226807D01*
X112873Y226800D01*
X112865Y226796D01*
X112862D01*
X112807Y226778D01*
X112752Y226763D01*
X112636Y226741D01*
X112516Y226723D01*
X112399Y226712D01*
X112348Y226709D01*
X112301Y226705D01*
X112257D01*
X112217Y226701D01*
X112188D01*
X112163D01*
X112148D01*
X112145D01*
X112075D01*
X112010Y226705D01*
X111952D01*
X111893Y226709D01*
X111843Y226716D01*
X111792Y226719D01*
X111748Y226723D01*
X111708Y226730D01*
X111671Y226734D01*
X111639Y226741D01*
X111613Y226745D01*
X111591Y226748D01*
X111573Y226752D01*
X111562Y226756D01*
X111555Y226759D01*
X111551D01*
X111471Y226781D01*
X111398Y226807D01*
X111337Y226836D01*
X111282Y226858D01*
X111235Y226883D01*
X111202Y226898D01*
X111184Y226912D01*
X111176Y226916D01*
X111122Y226956D01*
X111074Y226996D01*
X111034Y227040D01*
X110998Y227080D01*
X110972Y227116D01*
X110954Y227145D01*
X110943Y227164D01*
X110940Y227167D01*
Y227171D01*
X110911Y227229D01*
X110892Y227291D01*
X110878Y227349D01*
X110867Y227404D01*
X110860Y227451D01*
X110856Y227491D01*
Y227524D01*
X110863Y227622D01*
X110878Y227713D01*
X110903Y227789D01*
X110929Y227855D01*
X110958Y227910D01*
X110969Y227931D01*
X110983Y227950D01*
X110991Y227964D01*
X110998Y227975D01*
X111005Y227979D01*
Y227982D01*
X111064Y228048D01*
X111133Y228103D01*
X111202Y228150D01*
X111267Y228186D01*
X111329Y228215D01*
X111355Y228230D01*
X111380Y228237D01*
X111398Y228244D01*
X111413Y228252D01*
X111420Y228256D01*
X111424D01*
X111478Y228270D01*
X111533Y228285D01*
X111653Y228306D01*
X111773Y228325D01*
X111886Y228335D01*
X111941Y228339D01*
X111988Y228343D01*
X112032D01*
X112072Y228346D01*
X112101D01*
X112126D01*
X112141D01*
X112145D01*
X112272Y228343D01*
D02*
G37*
G36*
X113386Y225860D02*
X113033D01*
Y226213D01*
X113386D01*
Y225860D01*
D02*
G37*
G36*
X111766Y225118D02*
X111741Y225063D01*
X111715Y225009D01*
X111690Y224958D01*
X111668Y224914D01*
X111650Y224878D01*
X111635Y224856D01*
X111631Y224852D01*
Y224848D01*
X111591Y224783D01*
X111551Y224725D01*
X111515Y224674D01*
X111482Y224634D01*
X111457Y224597D01*
X111435Y224575D01*
X111420Y224557D01*
X111417Y224554D01*
X113386D01*
Y224244D01*
X110856D01*
Y224444D01*
X110918Y224481D01*
X110976Y224521D01*
X111034Y224568D01*
X111085Y224612D01*
X111129Y224656D01*
X111165Y224688D01*
X111176Y224703D01*
X111187Y224714D01*
X111191Y224717D01*
X111195Y224721D01*
X111256Y224798D01*
X111315Y224874D01*
X111366Y224947D01*
X111406Y225020D01*
X111442Y225081D01*
X111457Y225107D01*
X111468Y225129D01*
X111478Y225147D01*
X111482Y225162D01*
X111489Y225169D01*
Y225172D01*
X111788D01*
X111766Y225118D01*
D02*
G37*
G36*
X114085Y222035D02*
X113200D01*
X113244Y221998D01*
X113280Y221966D01*
X113309Y221933D01*
X113335Y221907D01*
X113349Y221885D01*
X113364Y221867D01*
X113368Y221856D01*
X113371Y221853D01*
X113390Y221809D01*
X113404Y221769D01*
X113411Y221725D01*
X113419Y221685D01*
X113422Y221653D01*
X113426Y221627D01*
Y221602D01*
X113422Y221543D01*
X113415Y221489D01*
X113404Y221441D01*
X113390Y221401D01*
X113379Y221369D01*
X113368Y221343D01*
X113360Y221325D01*
X113357Y221321D01*
X113335Y221288D01*
X113306Y221256D01*
X113273Y221227D01*
X113244Y221198D01*
X113215Y221176D01*
X113189Y221158D01*
X113175Y221146D01*
X113167Y221143D01*
X113386D01*
Y220866D01*
X111558D01*
Y221172D01*
X112338D01*
X112414D01*
X112479Y221176D01*
X112541D01*
X112600Y221179D01*
X112647Y221183D01*
X112691Y221187D01*
X112731Y221190D01*
X112763Y221194D01*
X112793Y221201D01*
X112814Y221205D01*
X112836Y221208D01*
X112851Y221212D01*
X112862Y221216D01*
X112869D01*
X112876Y221219D01*
X112920Y221237D01*
X112956Y221263D01*
X112993Y221288D01*
X113018Y221310D01*
X113044Y221336D01*
X113058Y221354D01*
X113069Y221369D01*
X113073Y221372D01*
X113098Y221412D01*
X113117Y221456D01*
X113127Y221496D01*
X113135Y221532D01*
X113142Y221565D01*
X113146Y221594D01*
Y221616D01*
X113142Y221663D01*
X113135Y221707D01*
X113124Y221747D01*
X113109Y221780D01*
X113098Y221809D01*
X113087Y221831D01*
X113080Y221845D01*
X113076Y221849D01*
X113047Y221882D01*
X113015Y221911D01*
X112982Y221936D01*
X112949Y221958D01*
X112924Y221973D01*
X112902Y221984D01*
X112883Y221987D01*
X112880Y221991D01*
X112854Y221998D01*
X112818Y222006D01*
X112782Y222013D01*
X112742Y222017D01*
X112651Y222024D01*
X112559Y222027D01*
X112472Y222031D01*
X112436Y222035D01*
X112399D01*
X112374D01*
X112352D01*
X112338D01*
X112334D01*
X111558D01*
Y222344D01*
X114085D01*
Y222035D01*
D02*
G37*
G36*
X113386Y219967D02*
X112243D01*
Y218784D01*
X111944D01*
Y219967D01*
X111165D01*
Y218599D01*
X110867D01*
Y220302D01*
X113386D01*
Y219967D01*
D02*
G37*
G36*
X113059Y143303D02*
X113180Y143296D01*
X113289Y143285D01*
X113391Y143267D01*
X113485Y143249D01*
X113569Y143227D01*
X113645Y143205D01*
X113711Y143183D01*
X113769Y143161D01*
X113820Y143136D01*
X113864Y143118D01*
X113897Y143100D01*
X113926Y143081D01*
X113944Y143070D01*
X113955Y143063D01*
X113959Y143060D01*
X114002Y143019D01*
X114042Y142976D01*
X114079Y142929D01*
X114108Y142881D01*
X114133Y142834D01*
X114155Y142787D01*
X114170Y142739D01*
X114184Y142696D01*
X114195Y142652D01*
X114202Y142612D01*
X114210Y142576D01*
X114213Y142546D01*
X114217Y142521D01*
Y142484D01*
X114210Y142386D01*
X114195Y142295D01*
X114170Y142219D01*
X114144Y142153D01*
X114119Y142099D01*
X114104Y142080D01*
X114093Y142062D01*
X114086Y142048D01*
X114079Y142037D01*
X114071Y142033D01*
Y142029D01*
X114009Y141964D01*
X113944Y141909D01*
X113871Y141862D01*
X113806Y141826D01*
X113744Y141797D01*
X113718Y141782D01*
X113693Y141775D01*
X113674Y141767D01*
X113660Y141760D01*
X113653Y141756D01*
X113649D01*
X113594Y141738D01*
X113540Y141724D01*
X113423Y141702D01*
X113303Y141684D01*
X113187Y141673D01*
X113136Y141669D01*
X113089Y141665D01*
X113045D01*
X113005Y141662D01*
X112976D01*
X112950D01*
X112936D01*
X112932D01*
X112863D01*
X112797Y141665D01*
X112739D01*
X112681Y141669D01*
X112630Y141676D01*
X112579Y141680D01*
X112535Y141684D01*
X112495Y141691D01*
X112459Y141695D01*
X112426Y141702D01*
X112400Y141706D01*
X112379Y141709D01*
X112361Y141713D01*
X112350Y141716D01*
X112342Y141720D01*
X112339D01*
X112259Y141742D01*
X112186Y141767D01*
X112124Y141797D01*
X112069Y141818D01*
X112022Y141844D01*
X111989Y141858D01*
X111971Y141873D01*
X111964Y141877D01*
X111909Y141917D01*
X111862Y141957D01*
X111822Y142000D01*
X111785Y142040D01*
X111760Y142077D01*
X111742Y142106D01*
X111731Y142124D01*
X111727Y142128D01*
Y142131D01*
X111698Y142190D01*
X111680Y142252D01*
X111665Y142310D01*
X111654Y142364D01*
X111647Y142412D01*
X111643Y142452D01*
Y142484D01*
X111651Y142583D01*
X111665Y142674D01*
X111691Y142750D01*
X111716Y142816D01*
X111745Y142870D01*
X111756Y142892D01*
X111771Y142910D01*
X111778Y142925D01*
X111785Y142936D01*
X111793Y142939D01*
Y142943D01*
X111851Y143009D01*
X111920Y143063D01*
X111989Y143111D01*
X112055Y143147D01*
X112117Y143176D01*
X112142Y143191D01*
X112168Y143198D01*
X112186Y143205D01*
X112200Y143212D01*
X112208Y143216D01*
X112211D01*
X112266Y143231D01*
X112320Y143245D01*
X112441Y143267D01*
X112561Y143285D01*
X112674Y143296D01*
X112728Y143300D01*
X112776Y143303D01*
X112819D01*
X112859Y143307D01*
X112888D01*
X112914D01*
X112928D01*
X112932D01*
X113059Y143303D01*
D02*
G37*
G36*
X114173Y140821D02*
X113820D01*
Y141174D01*
X114173D01*
Y140821D01*
D02*
G37*
G36*
X112553Y140078D02*
X112528Y140024D01*
X112503Y139969D01*
X112477Y139918D01*
X112455Y139875D01*
X112437Y139838D01*
X112422Y139816D01*
X112419Y139813D01*
Y139809D01*
X112379Y139743D01*
X112339Y139685D01*
X112302Y139634D01*
X112269Y139594D01*
X112244Y139558D01*
X112222Y139536D01*
X112208Y139518D01*
X112204Y139514D01*
X114173D01*
Y139205D01*
X111643D01*
Y139405D01*
X111705Y139441D01*
X111764Y139481D01*
X111822Y139529D01*
X111873Y139573D01*
X111916Y139616D01*
X111953Y139649D01*
X111964Y139663D01*
X111975Y139674D01*
X111978Y139678D01*
X111982Y139682D01*
X112044Y139758D01*
X112102Y139834D01*
X112153Y139907D01*
X112193Y139980D01*
X112230Y140042D01*
X112244Y140068D01*
X112255Y140089D01*
X112266Y140108D01*
X112269Y140122D01*
X112277Y140129D01*
Y140133D01*
X112575D01*
X112553Y140078D01*
D02*
G37*
G36*
X114872Y136995D02*
X113988D01*
X114031Y136959D01*
X114068Y136926D01*
X114097Y136893D01*
X114122Y136868D01*
X114137Y136846D01*
X114151Y136828D01*
X114155Y136817D01*
X114159Y136813D01*
X114177Y136770D01*
X114191Y136730D01*
X114199Y136686D01*
X114206Y136646D01*
X114210Y136613D01*
X114213Y136588D01*
Y136562D01*
X114210Y136504D01*
X114202Y136449D01*
X114191Y136402D01*
X114177Y136362D01*
X114166Y136329D01*
X114155Y136304D01*
X114148Y136285D01*
X114144Y136282D01*
X114122Y136249D01*
X114093Y136216D01*
X114060Y136187D01*
X114031Y136158D01*
X114002Y136136D01*
X113977Y136118D01*
X113962Y136107D01*
X113955Y136103D01*
X114173D01*
Y135827D01*
X112346D01*
Y136133D01*
X113125D01*
X113201D01*
X113267Y136136D01*
X113329D01*
X113387Y136140D01*
X113434Y136144D01*
X113478Y136147D01*
X113518Y136151D01*
X113551Y136154D01*
X113580Y136162D01*
X113602Y136165D01*
X113624Y136169D01*
X113638Y136173D01*
X113649Y136176D01*
X113656D01*
X113664Y136180D01*
X113707Y136198D01*
X113744Y136224D01*
X113780Y136249D01*
X113806Y136271D01*
X113831Y136296D01*
X113846Y136315D01*
X113856Y136329D01*
X113860Y136333D01*
X113886Y136373D01*
X113904Y136417D01*
X113915Y136457D01*
X113922Y136493D01*
X113929Y136526D01*
X113933Y136555D01*
Y136577D01*
X113929Y136624D01*
X113922Y136668D01*
X113911Y136708D01*
X113897Y136741D01*
X113886Y136770D01*
X113875Y136792D01*
X113867Y136806D01*
X113864Y136810D01*
X113835Y136843D01*
X113802Y136872D01*
X113769Y136897D01*
X113736Y136919D01*
X113711Y136933D01*
X113689Y136944D01*
X113671Y136948D01*
X113667Y136952D01*
X113642Y136959D01*
X113605Y136966D01*
X113569Y136974D01*
X113529Y136977D01*
X113438Y136984D01*
X113347Y136988D01*
X113260Y136992D01*
X113223Y136995D01*
X113187D01*
X113161D01*
X113139D01*
X113125D01*
X113121D01*
X112346D01*
Y137305D01*
X114872D01*
Y136995D01*
D02*
G37*
G36*
X114173Y134928D02*
X113030D01*
Y133745D01*
X112732D01*
Y134928D01*
X111953D01*
Y133559D01*
X111654D01*
Y135263D01*
X114173D01*
Y134928D01*
D02*
G37*
G36*
X185898Y156799D02*
X185938Y156740D01*
X185986Y156682D01*
X186029Y156631D01*
X186073Y156588D01*
X186106Y156551D01*
X186120Y156540D01*
X186131Y156529D01*
X186135Y156526D01*
X186138Y156522D01*
X186215Y156460D01*
X186291Y156402D01*
X186364Y156351D01*
X186437Y156311D01*
X186499Y156274D01*
X186524Y156260D01*
X186546Y156249D01*
X186564Y156238D01*
X186579Y156234D01*
X186586Y156227D01*
X186590D01*
Y155929D01*
X186535Y155950D01*
X186480Y155976D01*
X186426Y156001D01*
X186375Y156027D01*
X186331Y156049D01*
X186295Y156067D01*
X186273Y156081D01*
X186269Y156085D01*
X186266D01*
X186200Y156125D01*
X186142Y156165D01*
X186091Y156202D01*
X186051Y156234D01*
X186015Y156260D01*
X185993Y156282D01*
X185975Y156296D01*
X185971Y156300D01*
Y154331D01*
X185661D01*
Y156860D01*
X185862D01*
X185898Y156799D01*
D02*
G37*
G36*
X183761Y153632D02*
X183452D01*
Y154516D01*
X183416Y154473D01*
X183383Y154436D01*
X183350Y154407D01*
X183325Y154382D01*
X183303Y154367D01*
X183285Y154352D01*
X183274Y154349D01*
X183270Y154345D01*
X183226Y154327D01*
X183186Y154313D01*
X183143Y154305D01*
X183103Y154298D01*
X183070Y154294D01*
X183044Y154291D01*
X183019D01*
X182961Y154294D01*
X182906Y154302D01*
X182859Y154313D01*
X182819Y154327D01*
X182786Y154338D01*
X182760Y154349D01*
X182742Y154356D01*
X182739Y154360D01*
X182706Y154382D01*
X182673Y154411D01*
X182644Y154444D01*
X182615Y154473D01*
X182593Y154502D01*
X182575Y154527D01*
X182564Y154542D01*
X182560Y154549D01*
Y154331D01*
X182284D01*
Y156158D01*
X182589D01*
Y155379D01*
Y155303D01*
X182593Y155237D01*
Y155175D01*
X182597Y155117D01*
X182600Y155070D01*
X182604Y155026D01*
X182607Y154986D01*
X182611Y154953D01*
X182618Y154924D01*
X182622Y154902D01*
X182626Y154880D01*
X182629Y154866D01*
X182633Y154855D01*
Y154848D01*
X182637Y154840D01*
X182655Y154797D01*
X182680Y154760D01*
X182706Y154724D01*
X182728Y154698D01*
X182753Y154673D01*
X182771Y154658D01*
X182786Y154647D01*
X182790Y154644D01*
X182830Y154618D01*
X182873Y154600D01*
X182913Y154589D01*
X182950Y154582D01*
X182983Y154575D01*
X183012Y154571D01*
X183033D01*
X183081Y154575D01*
X183124Y154582D01*
X183165Y154593D01*
X183197Y154607D01*
X183226Y154618D01*
X183248Y154629D01*
X183263Y154637D01*
X183266Y154640D01*
X183299Y154669D01*
X183328Y154702D01*
X183354Y154735D01*
X183376Y154768D01*
X183390Y154793D01*
X183401Y154815D01*
X183405Y154833D01*
X183408Y154837D01*
X183416Y154862D01*
X183423Y154899D01*
X183430Y154935D01*
X183434Y154975D01*
X183441Y155066D01*
X183445Y155157D01*
X183448Y155244D01*
X183452Y155281D01*
Y155317D01*
Y155343D01*
Y155365D01*
Y155379D01*
Y155383D01*
Y156158D01*
X183761D01*
Y153632D01*
D02*
G37*
G36*
X187631Y154331D02*
X187278D01*
Y154684D01*
X187631D01*
Y154331D01*
D02*
G37*
G36*
X181719D02*
X181385D01*
Y155474D01*
X180201D01*
Y155772D01*
X181385D01*
Y156551D01*
X180016D01*
Y156850D01*
X181719D01*
Y154331D01*
D02*
G37*
G36*
X189039Y156853D02*
X189130Y156839D01*
X189207Y156813D01*
X189272Y156788D01*
X189327Y156759D01*
X189349Y156748D01*
X189367Y156733D01*
X189382Y156726D01*
X189392Y156719D01*
X189396Y156711D01*
X189400D01*
X189465Y156653D01*
X189520Y156584D01*
X189567Y156515D01*
X189604Y156449D01*
X189633Y156387D01*
X189647Y156362D01*
X189655Y156336D01*
X189662Y156318D01*
X189669Y156304D01*
X189673Y156296D01*
Y156293D01*
X189687Y156238D01*
X189702Y156184D01*
X189724Y156063D01*
X189742Y155943D01*
X189753Y155830D01*
X189757Y155776D01*
X189760Y155728D01*
Y155685D01*
X189764Y155645D01*
Y155616D01*
Y155590D01*
Y155576D01*
Y155572D01*
X189760Y155445D01*
X189753Y155324D01*
X189742Y155215D01*
X189724Y155113D01*
X189706Y155019D01*
X189684Y154935D01*
X189662Y154859D01*
X189640Y154793D01*
X189618Y154735D01*
X189593Y154684D01*
X189575Y154640D01*
X189556Y154607D01*
X189538Y154578D01*
X189527Y154560D01*
X189520Y154549D01*
X189516Y154545D01*
X189476Y154502D01*
X189433Y154462D01*
X189385Y154425D01*
X189338Y154396D01*
X189291Y154371D01*
X189243Y154349D01*
X189196Y154334D01*
X189152Y154320D01*
X189109Y154309D01*
X189068Y154302D01*
X189032Y154294D01*
X189003Y154291D01*
X188978Y154287D01*
X188941D01*
X188843Y154294D01*
X188752Y154309D01*
X188675Y154334D01*
X188610Y154360D01*
X188555Y154385D01*
X188537Y154400D01*
X188519Y154411D01*
X188504Y154418D01*
X188493Y154425D01*
X188490Y154433D01*
X188486D01*
X188421Y154495D01*
X188366Y154560D01*
X188319Y154633D01*
X188282Y154698D01*
X188253Y154760D01*
X188239Y154786D01*
X188231Y154811D01*
X188224Y154829D01*
X188217Y154844D01*
X188213Y154851D01*
Y154855D01*
X188195Y154910D01*
X188180Y154964D01*
X188159Y155080D01*
X188140Y155201D01*
X188129Y155317D01*
X188126Y155368D01*
X188122Y155415D01*
Y155459D01*
X188119Y155499D01*
Y155528D01*
Y155554D01*
Y155568D01*
Y155572D01*
Y155641D01*
X188122Y155707D01*
Y155765D01*
X188126Y155823D01*
X188133Y155874D01*
X188137Y155925D01*
X188140Y155969D01*
X188148Y156009D01*
X188151Y156045D01*
X188159Y156078D01*
X188162Y156103D01*
X188166Y156125D01*
X188170Y156143D01*
X188173Y156154D01*
X188177Y156162D01*
Y156165D01*
X188199Y156245D01*
X188224Y156318D01*
X188253Y156380D01*
X188275Y156435D01*
X188301Y156482D01*
X188315Y156515D01*
X188330Y156533D01*
X188333Y156540D01*
X188373Y156595D01*
X188413Y156642D01*
X188457Y156682D01*
X188497Y156719D01*
X188533Y156744D01*
X188563Y156762D01*
X188581Y156773D01*
X188584Y156777D01*
X188588D01*
X188646Y156806D01*
X188708Y156824D01*
X188766Y156839D01*
X188821Y156850D01*
X188868Y156857D01*
X188908Y156860D01*
X188941D01*
X189039Y156853D01*
D02*
G37*
G36*
X165927Y117751D02*
X166630Y117070D01*
X166226D01*
X165494Y117817D01*
Y116379D01*
X165185D01*
Y118898D01*
X165494D01*
Y118173D01*
X165709Y117966D01*
X166317Y118898D01*
X166699D01*
X165927Y117751D01*
D02*
G37*
G36*
X162346Y116368D02*
X162145D01*
X162109Y116430D01*
X162069Y116488D01*
X162022Y116546D01*
X161978Y116597D01*
X161934Y116641D01*
X161901Y116677D01*
X161887Y116688D01*
X161876Y116699D01*
X161872Y116703D01*
X161869Y116706D01*
X161792Y116768D01*
X161716Y116826D01*
X161643Y116877D01*
X161570Y116918D01*
X161508Y116954D01*
X161483Y116968D01*
X161461Y116979D01*
X161443Y116990D01*
X161428Y116994D01*
X161421Y117001D01*
X161417D01*
Y117300D01*
X161472Y117278D01*
X161527Y117252D01*
X161581Y117227D01*
X161632Y117201D01*
X161676Y117180D01*
X161712Y117161D01*
X161734Y117147D01*
X161738Y117143D01*
X161741D01*
X161807Y117103D01*
X161865Y117063D01*
X161916Y117027D01*
X161956Y116994D01*
X161992Y116968D01*
X162014Y116947D01*
X162032Y116932D01*
X162036Y116928D01*
Y118898D01*
X162346D01*
Y116368D01*
D02*
G37*
G36*
X164060Y118934D02*
X164151Y118920D01*
X164227Y118894D01*
X164293Y118869D01*
X164348Y118843D01*
X164366Y118828D01*
X164384Y118818D01*
X164399Y118810D01*
X164409Y118803D01*
X164413Y118796D01*
X164417D01*
X164482Y118734D01*
X164537Y118668D01*
X164584Y118596D01*
X164620Y118530D01*
X164650Y118468D01*
X164664Y118443D01*
X164672Y118417D01*
X164679Y118399D01*
X164686Y118384D01*
X164690Y118377D01*
Y118374D01*
X164708Y118319D01*
X164722Y118264D01*
X164744Y118148D01*
X164762Y118028D01*
X164773Y117911D01*
X164777Y117860D01*
X164781Y117813D01*
Y117769D01*
X164784Y117729D01*
Y117700D01*
Y117675D01*
Y117660D01*
Y117656D01*
Y117587D01*
X164781Y117522D01*
Y117464D01*
X164777Y117405D01*
X164770Y117354D01*
X164766Y117303D01*
X164762Y117260D01*
X164755Y117220D01*
X164752Y117183D01*
X164744Y117150D01*
X164741Y117125D01*
X164737Y117103D01*
X164733Y117085D01*
X164730Y117074D01*
X164726Y117067D01*
Y117063D01*
X164704Y116983D01*
X164679Y116910D01*
X164650Y116848D01*
X164628Y116794D01*
X164602Y116746D01*
X164588Y116714D01*
X164573Y116695D01*
X164570Y116688D01*
X164530Y116634D01*
X164489Y116586D01*
X164446Y116546D01*
X164406Y116510D01*
X164369Y116484D01*
X164340Y116466D01*
X164322Y116455D01*
X164318Y116452D01*
X164315D01*
X164257Y116422D01*
X164195Y116404D01*
X164136Y116390D01*
X164082Y116379D01*
X164034Y116372D01*
X163994Y116368D01*
X163962D01*
X163863Y116375D01*
X163772Y116390D01*
X163696Y116415D01*
X163630Y116441D01*
X163576Y116470D01*
X163554Y116481D01*
X163536Y116495D01*
X163521Y116502D01*
X163510Y116510D01*
X163507Y116517D01*
X163503D01*
X163437Y116575D01*
X163383Y116645D01*
X163336Y116714D01*
X163299Y116779D01*
X163270Y116841D01*
X163256Y116867D01*
X163248Y116892D01*
X163241Y116910D01*
X163234Y116925D01*
X163230Y116932D01*
Y116936D01*
X163215Y116990D01*
X163201Y117045D01*
X163179Y117165D01*
X163161Y117285D01*
X163150Y117398D01*
X163146Y117453D01*
X163143Y117500D01*
Y117544D01*
X163139Y117584D01*
Y117613D01*
Y117638D01*
Y117653D01*
Y117656D01*
X163143Y117784D01*
X163150Y117904D01*
X163161Y118013D01*
X163179Y118115D01*
X163197Y118210D01*
X163219Y118293D01*
X163241Y118370D01*
X163263Y118435D01*
X163285Y118494D01*
X163310Y118545D01*
X163328Y118588D01*
X163347Y118621D01*
X163365Y118650D01*
X163376Y118668D01*
X163383Y118679D01*
X163387Y118683D01*
X163427Y118727D01*
X163470Y118767D01*
X163518Y118803D01*
X163565Y118832D01*
X163612Y118858D01*
X163660Y118879D01*
X163707Y118894D01*
X163751Y118909D01*
X163794Y118920D01*
X163834Y118927D01*
X163871Y118934D01*
X163900Y118938D01*
X163925Y118941D01*
X163962D01*
X164060Y118934D01*
D02*
G37*
G36*
X104033Y178846D02*
X104073Y178788D01*
X104120Y178729D01*
X104164Y178678D01*
X104208Y178635D01*
X104240Y178598D01*
X104255Y178587D01*
X104266Y178577D01*
X104269Y178573D01*
X104273Y178569D01*
X104350Y178507D01*
X104426Y178449D01*
X104499Y178398D01*
X104571Y178358D01*
X104633Y178322D01*
X104659Y178307D01*
X104681Y178296D01*
X104699Y178285D01*
X104713Y178282D01*
X104721Y178274D01*
X104724D01*
Y177976D01*
X104670Y177998D01*
X104615Y178023D01*
X104561Y178049D01*
X104510Y178074D01*
X104466Y178096D01*
X104430Y178114D01*
X104408Y178129D01*
X104404Y178132D01*
X104401D01*
X104335Y178173D01*
X104277Y178212D01*
X104226Y178249D01*
X104186Y178282D01*
X104149Y178307D01*
X104127Y178329D01*
X104109Y178344D01*
X104106Y178347D01*
Y176378D01*
X103796D01*
Y178908D01*
X103996D01*
X104033Y178846D01*
D02*
G37*
G36*
X100957Y176378D02*
X100648D01*
Y177102D01*
X100433Y177310D01*
X99825Y176378D01*
X99443D01*
X100214Y177524D01*
X99512Y178205D01*
X99916D01*
X100648Y177459D01*
Y178897D01*
X100957D01*
Y176378D01*
D02*
G37*
G36*
X102278Y178901D02*
X102369Y178886D01*
X102446Y178860D01*
X102511Y178835D01*
X102566Y178806D01*
X102588Y178795D01*
X102606Y178780D01*
X102620Y178773D01*
X102631Y178766D01*
X102635Y178759D01*
X102639D01*
X102704Y178700D01*
X102759Y178631D01*
X102806Y178562D01*
X102842Y178496D01*
X102872Y178435D01*
X102886Y178409D01*
X102893Y178384D01*
X102901Y178365D01*
X102908Y178351D01*
X102912Y178344D01*
Y178340D01*
X102926Y178285D01*
X102941Y178231D01*
X102963Y178111D01*
X102981Y177990D01*
X102992Y177878D01*
X102995Y177823D01*
X102999Y177776D01*
Y177732D01*
X103003Y177692D01*
Y177663D01*
Y177637D01*
Y177623D01*
Y177619D01*
X102999Y177492D01*
X102992Y177372D01*
X102981Y177262D01*
X102963Y177161D01*
X102945Y177066D01*
X102923Y176982D01*
X102901Y176906D01*
X102879Y176840D01*
X102857Y176782D01*
X102832Y176731D01*
X102813Y176687D01*
X102795Y176655D01*
X102777Y176626D01*
X102766Y176607D01*
X102759Y176596D01*
X102755Y176593D01*
X102715Y176549D01*
X102672Y176509D01*
X102624Y176473D01*
X102577Y176444D01*
X102530Y176418D01*
X102482Y176396D01*
X102435Y176382D01*
X102391Y176367D01*
X102348Y176356D01*
X102307Y176349D01*
X102271Y176342D01*
X102242Y176338D01*
X102216Y176334D01*
X102180D01*
X102082Y176342D01*
X101991Y176356D01*
X101914Y176382D01*
X101849Y176407D01*
X101794Y176433D01*
X101776Y176447D01*
X101758Y176458D01*
X101743Y176465D01*
X101732Y176473D01*
X101729Y176480D01*
X101725D01*
X101660Y176542D01*
X101605Y176607D01*
X101558Y176680D01*
X101521Y176746D01*
X101492Y176807D01*
X101478Y176833D01*
X101470Y176858D01*
X101463Y176877D01*
X101456Y176891D01*
X101452Y176899D01*
Y176902D01*
X101434Y176957D01*
X101419Y177011D01*
X101398Y177128D01*
X101379Y177248D01*
X101368Y177364D01*
X101365Y177415D01*
X101361Y177463D01*
Y177506D01*
X101357Y177546D01*
Y177576D01*
Y177601D01*
Y177616D01*
Y177619D01*
Y177688D01*
X101361Y177754D01*
Y177812D01*
X101365Y177870D01*
X101372Y177921D01*
X101376Y177972D01*
X101379Y178016D01*
X101386Y178056D01*
X101390Y178092D01*
X101398Y178125D01*
X101401Y178151D01*
X101405Y178173D01*
X101408Y178191D01*
X101412Y178202D01*
X101416Y178209D01*
Y178212D01*
X101437Y178293D01*
X101463Y178365D01*
X101492Y178427D01*
X101514Y178482D01*
X101539Y178529D01*
X101554Y178562D01*
X101568Y178580D01*
X101572Y178587D01*
X101612Y178642D01*
X101652Y178689D01*
X101696Y178729D01*
X101736Y178766D01*
X101772Y178791D01*
X101802Y178809D01*
X101820Y178820D01*
X101823Y178824D01*
X101827D01*
X101885Y178853D01*
X101947Y178871D01*
X102005Y178886D01*
X102060Y178897D01*
X102107Y178904D01*
X102147Y178908D01*
X102180D01*
X102278Y178901D01*
D02*
G37*
G36*
X169752Y208658D02*
X169872Y208650D01*
X169982Y208640D01*
X170083Y208621D01*
X170178Y208603D01*
X170262Y208581D01*
X170338Y208559D01*
X170404Y208538D01*
X170462Y208516D01*
X170513Y208490D01*
X170557Y208472D01*
X170589Y208454D01*
X170619Y208436D01*
X170637Y208425D01*
X170648Y208418D01*
X170651Y208414D01*
X170695Y208374D01*
X170735Y208330D01*
X170772Y208283D01*
X170801Y208236D01*
X170826Y208188D01*
X170848Y208141D01*
X170862Y208094D01*
X170877Y208050D01*
X170888Y208006D01*
X170895Y207966D01*
X170903Y207930D01*
X170906Y207901D01*
X170910Y207875D01*
Y207839D01*
X170903Y207740D01*
X170888Y207649D01*
X170862Y207573D01*
X170837Y207507D01*
X170811Y207453D01*
X170797Y207435D01*
X170786Y207417D01*
X170779Y207402D01*
X170772Y207391D01*
X170764Y207387D01*
Y207384D01*
X170702Y207318D01*
X170637Y207264D01*
X170564Y207216D01*
X170499Y207180D01*
X170437Y207151D01*
X170411Y207136D01*
X170386Y207129D01*
X170368Y207122D01*
X170353Y207114D01*
X170346Y207111D01*
X170342D01*
X170287Y207093D01*
X170233Y207078D01*
X170116Y207056D01*
X169996Y207038D01*
X169880Y207027D01*
X169829Y207023D01*
X169781Y207020D01*
X169738D01*
X169698Y207016D01*
X169669D01*
X169643D01*
X169629D01*
X169625D01*
X169556D01*
X169490Y207020D01*
X169432D01*
X169374Y207023D01*
X169323Y207031D01*
X169272Y207034D01*
X169228Y207038D01*
X169188Y207045D01*
X169152Y207049D01*
X169119Y207056D01*
X169094Y207060D01*
X169072Y207064D01*
X169053Y207067D01*
X169043Y207071D01*
X169035Y207074D01*
X169032D01*
X168951Y207096D01*
X168879Y207122D01*
X168817Y207151D01*
X168762Y207173D01*
X168715Y207198D01*
X168682Y207213D01*
X168664Y207227D01*
X168657Y207231D01*
X168602Y207271D01*
X168555Y207311D01*
X168515Y207355D01*
X168478Y207395D01*
X168453Y207431D01*
X168435Y207460D01*
X168424Y207478D01*
X168420Y207482D01*
Y207486D01*
X168391Y207544D01*
X168373Y207606D01*
X168358Y207664D01*
X168347Y207719D01*
X168340Y207766D01*
X168336Y207806D01*
Y207839D01*
X168344Y207937D01*
X168358Y208028D01*
X168384Y208104D01*
X168409Y208170D01*
X168438Y208225D01*
X168449Y208246D01*
X168464Y208265D01*
X168471Y208279D01*
X168478Y208290D01*
X168486Y208294D01*
Y208297D01*
X168544Y208363D01*
X168613Y208418D01*
X168682Y208465D01*
X168748Y208501D01*
X168809Y208530D01*
X168835Y208545D01*
X168860Y208552D01*
X168879Y208559D01*
X168893Y208567D01*
X168901Y208570D01*
X168904D01*
X168959Y208585D01*
X169013Y208599D01*
X169133Y208621D01*
X169254Y208640D01*
X169367Y208650D01*
X169421Y208654D01*
X169468Y208658D01*
X169512D01*
X169552Y208661D01*
X169581D01*
X169607D01*
X169621D01*
X169625D01*
X169752Y208658D01*
D02*
G37*
G36*
X170866Y206175D02*
X170513D01*
Y206528D01*
X170866D01*
Y206175D01*
D02*
G37*
G36*
X169246Y205433D02*
X169221Y205378D01*
X169195Y205324D01*
X169170Y205273D01*
X169148Y205229D01*
X169130Y205192D01*
X169115Y205171D01*
X169112Y205167D01*
Y205163D01*
X169072Y205098D01*
X169032Y205040D01*
X168995Y204989D01*
X168962Y204949D01*
X168937Y204912D01*
X168915Y204890D01*
X168901Y204872D01*
X168897Y204869D01*
X170866D01*
Y204559D01*
X168336D01*
Y204759D01*
X168398Y204796D01*
X168456Y204836D01*
X168515Y204883D01*
X168566Y204927D01*
X168609Y204971D01*
X168646Y205003D01*
X168657Y205018D01*
X168668Y205029D01*
X168671Y205032D01*
X168675Y205036D01*
X168737Y205112D01*
X168795Y205189D01*
X168846Y205262D01*
X168886Y205334D01*
X168922Y205396D01*
X168937Y205422D01*
X168948Y205444D01*
X168959Y205462D01*
X168962Y205476D01*
X168970Y205484D01*
Y205487D01*
X169268D01*
X169246Y205433D01*
D02*
G37*
G36*
X171565Y202350D02*
X170680D01*
X170724Y202313D01*
X170761Y202280D01*
X170790Y202248D01*
X170815Y202222D01*
X170830Y202200D01*
X170844Y202182D01*
X170848Y202171D01*
X170852Y202168D01*
X170870Y202124D01*
X170884Y202084D01*
X170892Y202040D01*
X170899Y202000D01*
X170903Y201968D01*
X170906Y201942D01*
Y201917D01*
X170903Y201858D01*
X170895Y201804D01*
X170884Y201756D01*
X170870Y201716D01*
X170859Y201683D01*
X170848Y201658D01*
X170841Y201640D01*
X170837Y201636D01*
X170815Y201604D01*
X170786Y201571D01*
X170753Y201542D01*
X170724Y201513D01*
X170695Y201491D01*
X170670Y201472D01*
X170655Y201462D01*
X170648Y201458D01*
X170866D01*
Y201181D01*
X169039D01*
Y201487D01*
X169818D01*
X169894D01*
X169960Y201491D01*
X170022D01*
X170080Y201494D01*
X170127Y201498D01*
X170171Y201501D01*
X170211Y201505D01*
X170244Y201509D01*
X170273Y201516D01*
X170295Y201520D01*
X170317Y201523D01*
X170331Y201527D01*
X170342Y201531D01*
X170349D01*
X170357Y201534D01*
X170400Y201553D01*
X170437Y201578D01*
X170473Y201604D01*
X170499Y201625D01*
X170524Y201651D01*
X170538Y201669D01*
X170549Y201683D01*
X170553Y201687D01*
X170579Y201727D01*
X170597Y201771D01*
X170608Y201811D01*
X170615Y201847D01*
X170622Y201880D01*
X170626Y201909D01*
Y201931D01*
X170622Y201978D01*
X170615Y202022D01*
X170604Y202062D01*
X170589Y202095D01*
X170579Y202124D01*
X170568Y202146D01*
X170560Y202160D01*
X170557Y202164D01*
X170528Y202197D01*
X170495Y202226D01*
X170462Y202251D01*
X170429Y202273D01*
X170404Y202288D01*
X170382Y202299D01*
X170364Y202302D01*
X170360Y202306D01*
X170335Y202313D01*
X170298Y202321D01*
X170262Y202328D01*
X170222Y202331D01*
X170131Y202339D01*
X170040Y202342D01*
X169952Y202346D01*
X169916Y202350D01*
X169880D01*
X169854D01*
X169832D01*
X169818D01*
X169814D01*
X169039D01*
Y202659D01*
X171565D01*
Y202350D01*
D02*
G37*
G36*
X170866Y200282D02*
X169723D01*
Y199099D01*
X169425D01*
Y200282D01*
X168646D01*
Y198914D01*
X168347D01*
Y200617D01*
X170866D01*
Y200282D01*
D02*
G37*
G36*
X188260Y133964D02*
X188300Y133906D01*
X188348Y133847D01*
X188391Y133797D01*
X188435Y133753D01*
X188468Y133716D01*
X188482Y133705D01*
X188493Y133695D01*
X188497Y133691D01*
X188500Y133687D01*
X188577Y133625D01*
X188653Y133567D01*
X188726Y133516D01*
X188799Y133476D01*
X188861Y133440D01*
X188886Y133425D01*
X188908Y133414D01*
X188926Y133403D01*
X188941Y133400D01*
X188948Y133393D01*
X188952D01*
Y133094D01*
X188897Y133116D01*
X188843Y133141D01*
X188788Y133167D01*
X188737Y133192D01*
X188693Y133214D01*
X188657Y133232D01*
X188635Y133247D01*
X188632Y133250D01*
X188628D01*
X188562Y133291D01*
X188504Y133331D01*
X188453Y133367D01*
X188413Y133400D01*
X188377Y133425D01*
X188355Y133447D01*
X188337Y133462D01*
X188333Y133465D01*
Y131496D01*
X188024D01*
Y134026D01*
X188224D01*
X188260Y133964D01*
D02*
G37*
G36*
X186124Y130797D02*
X185814D01*
Y131682D01*
X185778Y131638D01*
X185745Y131602D01*
X185712Y131572D01*
X185687Y131547D01*
X185665Y131533D01*
X185647Y131518D01*
X185636Y131514D01*
X185632Y131511D01*
X185589Y131492D01*
X185548Y131478D01*
X185505Y131471D01*
X185465Y131463D01*
X185432Y131460D01*
X185406Y131456D01*
X185381D01*
X185323Y131460D01*
X185268Y131467D01*
X185221Y131478D01*
X185181Y131492D01*
X185148Y131503D01*
X185123Y131514D01*
X185104Y131521D01*
X185101Y131525D01*
X185068Y131547D01*
X185035Y131576D01*
X185006Y131609D01*
X184977Y131638D01*
X184955Y131667D01*
X184937Y131693D01*
X184926Y131707D01*
X184922Y131714D01*
Y131496D01*
X184646D01*
Y133323D01*
X184951D01*
Y132544D01*
Y132468D01*
X184955Y132402D01*
Y132341D01*
X184959Y132282D01*
X184962Y132235D01*
X184966Y132191D01*
X184970Y132151D01*
X184973Y132118D01*
X184981Y132089D01*
X184984Y132068D01*
X184988Y132046D01*
X184992Y132031D01*
X184995Y132020D01*
Y132013D01*
X184999Y132006D01*
X185017Y131962D01*
X185043Y131926D01*
X185068Y131889D01*
X185090Y131864D01*
X185115Y131838D01*
X185134Y131824D01*
X185148Y131813D01*
X185152Y131809D01*
X185192Y131784D01*
X185236Y131765D01*
X185275Y131755D01*
X185312Y131747D01*
X185345Y131740D01*
X185374Y131736D01*
X185396D01*
X185443Y131740D01*
X185487Y131747D01*
X185527Y131758D01*
X185559Y131773D01*
X185589Y131784D01*
X185610Y131795D01*
X185625Y131802D01*
X185629Y131806D01*
X185661Y131835D01*
X185690Y131867D01*
X185716Y131900D01*
X185738Y131933D01*
X185752Y131958D01*
X185763Y131980D01*
X185767Y131998D01*
X185770Y132002D01*
X185778Y132027D01*
X185785Y132064D01*
X185792Y132100D01*
X185796Y132140D01*
X185803Y132231D01*
X185807Y132322D01*
X185811Y132410D01*
X185814Y132446D01*
Y132483D01*
Y132508D01*
Y132530D01*
Y132544D01*
Y132548D01*
Y133323D01*
X186124D01*
Y130797D01*
D02*
G37*
G36*
X189993Y131496D02*
X189640D01*
Y131849D01*
X189993D01*
Y131496D01*
D02*
G37*
G36*
X184082D02*
X183747D01*
Y132639D01*
X182564D01*
Y132938D01*
X183747D01*
Y133716D01*
X182378D01*
Y134015D01*
X184082D01*
Y131496D01*
D02*
G37*
G36*
X191402Y134019D02*
X191493Y134004D01*
X191569Y133978D01*
X191635Y133953D01*
X191689Y133924D01*
X191711Y133913D01*
X191729Y133898D01*
X191744Y133891D01*
X191755Y133884D01*
X191758Y133877D01*
X191762D01*
X191827Y133818D01*
X191882Y133749D01*
X191929Y133680D01*
X191966Y133615D01*
X191995Y133553D01*
X192009Y133527D01*
X192017Y133502D01*
X192024Y133484D01*
X192031Y133469D01*
X192035Y133462D01*
Y133458D01*
X192050Y133403D01*
X192064Y133349D01*
X192086Y133229D01*
X192104Y133109D01*
X192115Y132996D01*
X192119Y132941D01*
X192122Y132894D01*
Y132850D01*
X192126Y132810D01*
Y132781D01*
Y132755D01*
Y132741D01*
Y132737D01*
X192122Y132610D01*
X192115Y132490D01*
X192104Y132381D01*
X192086Y132279D01*
X192068Y132184D01*
X192046Y132100D01*
X192024Y132024D01*
X192002Y131958D01*
X191980Y131900D01*
X191955Y131849D01*
X191937Y131806D01*
X191919Y131773D01*
X191900Y131744D01*
X191889Y131725D01*
X191882Y131714D01*
X191878Y131711D01*
X191838Y131667D01*
X191795Y131627D01*
X191747Y131591D01*
X191700Y131562D01*
X191653Y131536D01*
X191605Y131514D01*
X191558Y131500D01*
X191515Y131485D01*
X191471Y131474D01*
X191431Y131467D01*
X191394Y131460D01*
X191365Y131456D01*
X191340Y131452D01*
X191303D01*
X191205Y131460D01*
X191114Y131474D01*
X191038Y131500D01*
X190972Y131525D01*
X190918Y131551D01*
X190899Y131565D01*
X190881Y131576D01*
X190866Y131583D01*
X190856Y131591D01*
X190852Y131598D01*
X190848D01*
X190783Y131660D01*
X190728Y131725D01*
X190681Y131798D01*
X190645Y131864D01*
X190615Y131926D01*
X190601Y131951D01*
X190594Y131976D01*
X190586Y131995D01*
X190579Y132009D01*
X190575Y132017D01*
Y132020D01*
X190557Y132075D01*
X190543Y132129D01*
X190521Y132246D01*
X190503Y132366D01*
X190492Y132483D01*
X190488Y132534D01*
X190484Y132581D01*
Y132624D01*
X190481Y132665D01*
Y132694D01*
Y132719D01*
Y132734D01*
Y132737D01*
Y132807D01*
X190484Y132872D01*
Y132930D01*
X190488Y132989D01*
X190495Y133039D01*
X190499Y133090D01*
X190503Y133134D01*
X190510Y133174D01*
X190514Y133211D01*
X190521Y133243D01*
X190524Y133269D01*
X190528Y133291D01*
X190532Y133309D01*
X190535Y133320D01*
X190539Y133327D01*
Y133331D01*
X190561Y133411D01*
X190586Y133484D01*
X190615Y133545D01*
X190637Y133600D01*
X190663Y133647D01*
X190677Y133680D01*
X190692Y133698D01*
X190696Y133705D01*
X190735Y133760D01*
X190776Y133808D01*
X190819Y133847D01*
X190859Y133884D01*
X190896Y133909D01*
X190925Y133928D01*
X190943Y133939D01*
X190947Y133942D01*
X190950D01*
X191008Y133971D01*
X191070Y133990D01*
X191129Y134004D01*
X191183Y134015D01*
X191230Y134022D01*
X191271Y134026D01*
X191303D01*
X191402Y134019D01*
D02*
G37*
G36*
X109520Y200106D02*
X109560Y200047D01*
X109608Y199989D01*
X109651Y199938D01*
X109695Y199895D01*
X109728Y199858D01*
X109742Y199847D01*
X109753Y199836D01*
X109757Y199833D01*
X109760Y199829D01*
X109837Y199767D01*
X109913Y199709D01*
X109986Y199658D01*
X110059Y199618D01*
X110121Y199582D01*
X110146Y199567D01*
X110168Y199556D01*
X110186Y199545D01*
X110201Y199541D01*
X110208Y199534D01*
X110212D01*
Y199236D01*
X110157Y199258D01*
X110102Y199283D01*
X110048Y199309D01*
X109997Y199334D01*
X109953Y199356D01*
X109917Y199374D01*
X109895Y199389D01*
X109891Y199392D01*
X109888D01*
X109822Y199432D01*
X109764Y199472D01*
X109713Y199509D01*
X109673Y199541D01*
X109637Y199567D01*
X109615Y199589D01*
X109597Y199603D01*
X109593Y199607D01*
Y197638D01*
X109283D01*
Y200168D01*
X109484D01*
X109520Y200106D01*
D02*
G37*
G36*
X107384Y196939D02*
X107074D01*
Y197823D01*
X107038Y197780D01*
X107005Y197743D01*
X106972Y197714D01*
X106947Y197689D01*
X106925Y197674D01*
X106907Y197660D01*
X106896Y197656D01*
X106892Y197652D01*
X106848Y197634D01*
X106808Y197620D01*
X106765Y197612D01*
X106725Y197605D01*
X106692Y197601D01*
X106666Y197598D01*
X106641D01*
X106583Y197601D01*
X106528Y197609D01*
X106481Y197620D01*
X106441Y197634D01*
X106408Y197645D01*
X106383Y197656D01*
X106364Y197663D01*
X106361Y197667D01*
X106328Y197689D01*
X106295Y197718D01*
X106266Y197751D01*
X106237Y197780D01*
X106215Y197809D01*
X106197Y197834D01*
X106186Y197849D01*
X106182Y197856D01*
Y197638D01*
X105906D01*
Y199465D01*
X106211D01*
Y198686D01*
Y198610D01*
X106215Y198544D01*
Y198482D01*
X106219Y198424D01*
X106222Y198377D01*
X106226Y198333D01*
X106230Y198293D01*
X106233Y198260D01*
X106240Y198231D01*
X106244Y198209D01*
X106248Y198187D01*
X106251Y198173D01*
X106255Y198162D01*
Y198155D01*
X106259Y198147D01*
X106277Y198104D01*
X106302Y198067D01*
X106328Y198031D01*
X106350Y198005D01*
X106375Y197980D01*
X106393Y197965D01*
X106408Y197954D01*
X106412Y197951D01*
X106452Y197925D01*
X106495Y197907D01*
X106535Y197896D01*
X106572Y197889D01*
X106605Y197882D01*
X106634Y197878D01*
X106656D01*
X106703Y197882D01*
X106746Y197889D01*
X106787Y197900D01*
X106819Y197914D01*
X106848Y197925D01*
X106870Y197936D01*
X106885Y197944D01*
X106888Y197947D01*
X106921Y197976D01*
X106950Y198009D01*
X106976Y198042D01*
X106998Y198075D01*
X107012Y198100D01*
X107023Y198122D01*
X107027Y198140D01*
X107030Y198144D01*
X107038Y198169D01*
X107045Y198206D01*
X107052Y198242D01*
X107056Y198282D01*
X107063Y198373D01*
X107067Y198464D01*
X107070Y198551D01*
X107074Y198588D01*
Y198624D01*
Y198650D01*
Y198672D01*
Y198686D01*
Y198690D01*
Y199465D01*
X107384D01*
Y196939D01*
D02*
G37*
G36*
X111253Y197638D02*
X110900D01*
Y197991D01*
X111253D01*
Y197638D01*
D02*
G37*
G36*
X105341D02*
X105007D01*
Y198781D01*
X103824D01*
Y199079D01*
X105007D01*
Y199858D01*
X103638D01*
Y200157D01*
X105341D01*
Y197638D01*
D02*
G37*
G36*
X112662Y200160D02*
X112752Y200146D01*
X112829Y200120D01*
X112894Y200095D01*
X112949Y200066D01*
X112971Y200055D01*
X112989Y200040D01*
X113004Y200033D01*
X113015Y200026D01*
X113018Y200018D01*
X113022D01*
X113087Y199960D01*
X113142Y199891D01*
X113189Y199822D01*
X113226Y199756D01*
X113255Y199694D01*
X113269Y199669D01*
X113277Y199643D01*
X113284Y199625D01*
X113291Y199611D01*
X113295Y199603D01*
Y199600D01*
X113309Y199545D01*
X113324Y199491D01*
X113346Y199370D01*
X113364Y199250D01*
X113375Y199137D01*
X113379Y199083D01*
X113382Y199036D01*
Y198992D01*
X113386Y198952D01*
Y198923D01*
Y198897D01*
Y198883D01*
Y198879D01*
X113382Y198752D01*
X113375Y198632D01*
X113364Y198522D01*
X113346Y198420D01*
X113328Y198326D01*
X113306Y198242D01*
X113284Y198166D01*
X113262Y198100D01*
X113240Y198042D01*
X113215Y197991D01*
X113197Y197947D01*
X113178Y197914D01*
X113160Y197885D01*
X113149Y197867D01*
X113142Y197856D01*
X113138Y197853D01*
X113098Y197809D01*
X113055Y197769D01*
X113007Y197732D01*
X112960Y197703D01*
X112913Y197678D01*
X112865Y197656D01*
X112818Y197641D01*
X112774Y197627D01*
X112731Y197616D01*
X112691Y197609D01*
X112654Y197601D01*
X112625Y197598D01*
X112600Y197594D01*
X112563D01*
X112465Y197601D01*
X112374Y197616D01*
X112297Y197641D01*
X112232Y197667D01*
X112177Y197692D01*
X112159Y197707D01*
X112141Y197718D01*
X112126Y197725D01*
X112116Y197732D01*
X112112Y197740D01*
X112108D01*
X112043Y197802D01*
X111988Y197867D01*
X111941Y197940D01*
X111904Y198005D01*
X111875Y198067D01*
X111861Y198093D01*
X111853Y198118D01*
X111846Y198136D01*
X111839Y198151D01*
X111835Y198158D01*
Y198162D01*
X111817Y198217D01*
X111802Y198271D01*
X111781Y198388D01*
X111762Y198508D01*
X111751Y198624D01*
X111748Y198675D01*
X111744Y198723D01*
Y198766D01*
X111741Y198806D01*
Y198835D01*
Y198861D01*
Y198875D01*
Y198879D01*
Y198948D01*
X111744Y199014D01*
Y199072D01*
X111748Y199130D01*
X111755Y199181D01*
X111759Y199232D01*
X111762Y199276D01*
X111770Y199316D01*
X111773Y199352D01*
X111781Y199385D01*
X111784Y199410D01*
X111788Y199432D01*
X111792Y199451D01*
X111795Y199461D01*
X111799Y199469D01*
Y199472D01*
X111821Y199552D01*
X111846Y199625D01*
X111875Y199687D01*
X111897Y199742D01*
X111923Y199789D01*
X111937Y199822D01*
X111952Y199840D01*
X111955Y199847D01*
X111995Y199902D01*
X112035Y199949D01*
X112079Y199989D01*
X112119Y200026D01*
X112155Y200051D01*
X112185Y200069D01*
X112203Y200080D01*
X112206Y200084D01*
X112210D01*
X112268Y200113D01*
X112330Y200131D01*
X112389Y200146D01*
X112443Y200157D01*
X112490Y200164D01*
X112530Y200168D01*
X112563D01*
X112662Y200160D01*
D02*
G37*
G36*
X107548Y144878D02*
X107668Y144871D01*
X107777Y144860D01*
X107879Y144842D01*
X107974Y144824D01*
X108057Y144802D01*
X108134Y144780D01*
X108199Y144758D01*
X108257Y144736D01*
X108308Y144711D01*
X108352Y144693D01*
X108385Y144674D01*
X108414Y144656D01*
X108432Y144645D01*
X108443Y144638D01*
X108447Y144634D01*
X108490Y144594D01*
X108530Y144551D01*
X108567Y144503D01*
X108596Y144456D01*
X108621Y144409D01*
X108643Y144361D01*
X108658Y144314D01*
X108672Y144270D01*
X108683Y144227D01*
X108691Y144187D01*
X108698Y144150D01*
X108702Y144121D01*
X108705Y144096D01*
Y144059D01*
X108698Y143961D01*
X108683Y143870D01*
X108658Y143793D01*
X108632Y143728D01*
X108607Y143673D01*
X108592Y143655D01*
X108581Y143637D01*
X108574Y143623D01*
X108567Y143612D01*
X108560Y143608D01*
Y143604D01*
X108498Y143539D01*
X108432Y143484D01*
X108359Y143437D01*
X108294Y143400D01*
X108232Y143371D01*
X108206Y143357D01*
X108181Y143350D01*
X108163Y143342D01*
X108148Y143335D01*
X108141Y143331D01*
X108137D01*
X108083Y143313D01*
X108028Y143298D01*
X107912Y143277D01*
X107791Y143258D01*
X107675Y143247D01*
X107624Y143244D01*
X107577Y143240D01*
X107533D01*
X107493Y143237D01*
X107464D01*
X107438D01*
X107424D01*
X107420D01*
X107351D01*
X107285Y143240D01*
X107227D01*
X107169Y143244D01*
X107118Y143251D01*
X107067Y143255D01*
X107023Y143258D01*
X106983Y143266D01*
X106947Y143269D01*
X106914Y143277D01*
X106889Y143280D01*
X106867Y143284D01*
X106849Y143288D01*
X106838Y143291D01*
X106831Y143295D01*
X106827D01*
X106747Y143317D01*
X106674Y143342D01*
X106612Y143371D01*
X106558Y143393D01*
X106510Y143419D01*
X106477Y143433D01*
X106459Y143448D01*
X106452Y143451D01*
X106397Y143491D01*
X106350Y143531D01*
X106310Y143575D01*
X106274Y143615D01*
X106248Y143652D01*
X106230Y143681D01*
X106219Y143699D01*
X106215Y143702D01*
Y143706D01*
X106186Y143764D01*
X106168Y143826D01*
X106154Y143885D01*
X106142Y143939D01*
X106135Y143986D01*
X106132Y144027D01*
Y144059D01*
X106139Y144158D01*
X106154Y144248D01*
X106179Y144325D01*
X106204Y144390D01*
X106234Y144445D01*
X106245Y144467D01*
X106259Y144485D01*
X106266Y144500D01*
X106274Y144511D01*
X106281Y144514D01*
Y144518D01*
X106339Y144583D01*
X106408Y144638D01*
X106477Y144685D01*
X106543Y144722D01*
X106605Y144751D01*
X106630Y144765D01*
X106656Y144773D01*
X106674Y144780D01*
X106688Y144787D01*
X106696Y144791D01*
X106700D01*
X106754Y144805D01*
X106809Y144820D01*
X106929Y144842D01*
X107049Y144860D01*
X107162Y144871D01*
X107216Y144875D01*
X107264Y144878D01*
X107307D01*
X107347Y144882D01*
X107377D01*
X107402D01*
X107416D01*
X107420D01*
X107548Y144878D01*
D02*
G37*
G36*
X108661Y142396D02*
X108308D01*
Y142749D01*
X108661D01*
Y142396D01*
D02*
G37*
G36*
X107042Y141653D02*
X107016Y141599D01*
X106991Y141544D01*
X106965Y141493D01*
X106943Y141449D01*
X106925Y141413D01*
X106911Y141391D01*
X106907Y141387D01*
Y141384D01*
X106867Y141318D01*
X106827Y141260D01*
X106790Y141209D01*
X106758Y141169D01*
X106732Y141133D01*
X106710Y141111D01*
X106696Y141093D01*
X106692Y141089D01*
X108661D01*
Y140780D01*
X106132D01*
Y140980D01*
X106193Y141016D01*
X106252Y141056D01*
X106310Y141104D01*
X106361Y141147D01*
X106405Y141191D01*
X106441Y141224D01*
X106452Y141238D01*
X106463Y141249D01*
X106466Y141253D01*
X106470Y141256D01*
X106532Y141333D01*
X106590Y141409D01*
X106641Y141482D01*
X106681Y141555D01*
X106718Y141617D01*
X106732Y141642D01*
X106743Y141664D01*
X106754Y141682D01*
X106758Y141697D01*
X106765Y141704D01*
Y141708D01*
X107063D01*
X107042Y141653D01*
D02*
G37*
G36*
X109360Y138570D02*
X108476D01*
X108519Y138534D01*
X108556Y138501D01*
X108585Y138468D01*
X108610Y138443D01*
X108625Y138421D01*
X108640Y138403D01*
X108643Y138392D01*
X108647Y138388D01*
X108665Y138345D01*
X108680Y138304D01*
X108687Y138261D01*
X108694Y138221D01*
X108698Y138188D01*
X108702Y138162D01*
Y138137D01*
X108698Y138079D01*
X108691Y138024D01*
X108680Y137977D01*
X108665Y137937D01*
X108654Y137904D01*
X108643Y137879D01*
X108636Y137860D01*
X108632Y137857D01*
X108610Y137824D01*
X108581Y137791D01*
X108549Y137762D01*
X108519Y137733D01*
X108490Y137711D01*
X108465Y137693D01*
X108450Y137682D01*
X108443Y137678D01*
X108661D01*
Y137402D01*
X106834D01*
Y137707D01*
X107613D01*
X107689D01*
X107755Y137711D01*
X107817D01*
X107875Y137715D01*
X107922Y137718D01*
X107966Y137722D01*
X108006Y137726D01*
X108039Y137729D01*
X108068Y137737D01*
X108090Y137740D01*
X108112Y137744D01*
X108126Y137748D01*
X108137Y137751D01*
X108144D01*
X108152Y137755D01*
X108195Y137773D01*
X108232Y137799D01*
X108268Y137824D01*
X108294Y137846D01*
X108319Y137871D01*
X108334Y137890D01*
X108345Y137904D01*
X108348Y137908D01*
X108374Y137948D01*
X108392Y137991D01*
X108403Y138031D01*
X108410Y138068D01*
X108417Y138101D01*
X108421Y138130D01*
Y138152D01*
X108417Y138199D01*
X108410Y138242D01*
X108399Y138283D01*
X108385Y138315D01*
X108374Y138345D01*
X108363Y138366D01*
X108356Y138381D01*
X108352Y138384D01*
X108323Y138417D01*
X108290Y138446D01*
X108257Y138472D01*
X108225Y138494D01*
X108199Y138508D01*
X108177Y138519D01*
X108159Y138523D01*
X108156Y138526D01*
X108130Y138534D01*
X108094Y138541D01*
X108057Y138548D01*
X108017Y138552D01*
X107926Y138559D01*
X107835Y138563D01*
X107748Y138567D01*
X107711Y138570D01*
X107675D01*
X107650D01*
X107628D01*
X107613D01*
X107609D01*
X106834D01*
Y138880D01*
X109360D01*
Y138570D01*
D02*
G37*
G36*
X108661Y136503D02*
X107518D01*
Y135320D01*
X107220D01*
Y136503D01*
X106441D01*
Y135134D01*
X106142D01*
Y136837D01*
X108661D01*
Y136503D01*
D02*
G37*
G36*
X102458Y174121D02*
X102498Y174063D01*
X102545Y174005D01*
X102589Y173954D01*
X102633Y173910D01*
X102665Y173874D01*
X102680Y173863D01*
X102691Y173852D01*
X102695Y173848D01*
X102698Y173845D01*
X102775Y173783D01*
X102851Y173725D01*
X102924Y173674D01*
X102997Y173634D01*
X103059Y173597D01*
X103084Y173583D01*
X103106Y173572D01*
X103124Y173561D01*
X103139Y173557D01*
X103146Y173550D01*
X103150D01*
Y173251D01*
X103095Y173273D01*
X103040Y173299D01*
X102986Y173324D01*
X102935Y173350D01*
X102891Y173372D01*
X102855Y173390D01*
X102833Y173404D01*
X102829Y173408D01*
X102826D01*
X102760Y173448D01*
X102702Y173488D01*
X102651Y173524D01*
X102611Y173557D01*
X102575Y173583D01*
X102553Y173605D01*
X102534Y173619D01*
X102531Y173623D01*
Y171653D01*
X102221D01*
Y174183D01*
X102422D01*
X102458Y174121D01*
D02*
G37*
G36*
X99382Y171653D02*
X99073D01*
Y172378D01*
X98858Y172585D01*
X98250Y171653D01*
X97868D01*
X98640Y172800D01*
X97937Y173481D01*
X98341D01*
X99073Y172735D01*
Y174172D01*
X99382D01*
Y171653D01*
D02*
G37*
G36*
X100704Y174176D02*
X100794Y174162D01*
X100871Y174136D01*
X100936Y174110D01*
X100991Y174081D01*
X101013Y174071D01*
X101031Y174056D01*
X101046Y174049D01*
X101057Y174041D01*
X101060Y174034D01*
X101064D01*
X101129Y173976D01*
X101184Y173907D01*
X101231Y173837D01*
X101268Y173772D01*
X101297Y173710D01*
X101311Y173685D01*
X101319Y173659D01*
X101326Y173641D01*
X101333Y173626D01*
X101337Y173619D01*
Y173616D01*
X101351Y173561D01*
X101366Y173506D01*
X101388Y173386D01*
X101406Y173266D01*
X101417Y173153D01*
X101421Y173099D01*
X101424Y173051D01*
Y173008D01*
X101428Y172968D01*
Y172939D01*
Y172913D01*
Y172898D01*
Y172895D01*
X101424Y172767D01*
X101417Y172647D01*
X101406Y172538D01*
X101388Y172436D01*
X101370Y172342D01*
X101348Y172258D01*
X101326Y172181D01*
X101304Y172116D01*
X101282Y172058D01*
X101257Y172007D01*
X101239Y171963D01*
X101220Y171930D01*
X101202Y171901D01*
X101191Y171883D01*
X101184Y171872D01*
X101180Y171868D01*
X101140Y171825D01*
X101097Y171785D01*
X101049Y171748D01*
X101002Y171719D01*
X100955Y171694D01*
X100907Y171672D01*
X100860Y171657D01*
X100816Y171643D01*
X100773Y171632D01*
X100733Y171624D01*
X100696Y171617D01*
X100667Y171614D01*
X100642Y171610D01*
X100605D01*
X100507Y171617D01*
X100416Y171632D01*
X100339Y171657D01*
X100274Y171683D01*
X100219Y171708D01*
X100201Y171723D01*
X100183Y171734D01*
X100168Y171741D01*
X100157Y171748D01*
X100154Y171756D01*
X100150D01*
X100085Y171817D01*
X100030Y171883D01*
X99983Y171956D01*
X99946Y172021D01*
X99917Y172083D01*
X99903Y172108D01*
X99896Y172134D01*
X99888Y172152D01*
X99881Y172167D01*
X99877Y172174D01*
Y172178D01*
X99859Y172232D01*
X99844Y172287D01*
X99823Y172403D01*
X99804Y172523D01*
X99793Y172640D01*
X99790Y172691D01*
X99786Y172738D01*
Y172782D01*
X99783Y172822D01*
Y172851D01*
Y172877D01*
Y172891D01*
Y172895D01*
Y172964D01*
X99786Y173029D01*
Y173088D01*
X99790Y173146D01*
X99797Y173197D01*
X99801Y173248D01*
X99804Y173292D01*
X99812Y173332D01*
X99815Y173368D01*
X99823Y173401D01*
X99826Y173426D01*
X99830Y173448D01*
X99834Y173466D01*
X99837Y173477D01*
X99841Y173485D01*
Y173488D01*
X99863Y173568D01*
X99888Y173641D01*
X99917Y173703D01*
X99939Y173758D01*
X99965Y173805D01*
X99979Y173837D01*
X99994Y173856D01*
X99997Y173863D01*
X100037Y173918D01*
X100077Y173965D01*
X100121Y174005D01*
X100161Y174041D01*
X100198Y174067D01*
X100227Y174085D01*
X100245Y174096D01*
X100249Y174100D01*
X100252D01*
X100310Y174129D01*
X100372Y174147D01*
X100431Y174162D01*
X100485Y174172D01*
X100532Y174180D01*
X100573Y174183D01*
X100605D01*
X100704Y174176D01*
D02*
G37*
G36*
X111907Y245775D02*
X111947Y245717D01*
X111994Y245658D01*
X112038Y245608D01*
X112082Y245564D01*
X112114Y245528D01*
X112129Y245517D01*
X112140Y245506D01*
X112143Y245502D01*
X112147Y245498D01*
X112223Y245437D01*
X112300Y245378D01*
X112373Y245327D01*
X112446Y245287D01*
X112507Y245251D01*
X112533Y245236D01*
X112555Y245225D01*
X112573Y245214D01*
X112587Y245211D01*
X112595Y245203D01*
X112598D01*
Y244905D01*
X112544Y244927D01*
X112489Y244952D01*
X112435Y244978D01*
X112384Y245003D01*
X112340Y245025D01*
X112304Y245043D01*
X112282Y245058D01*
X112278Y245062D01*
X112275D01*
X112209Y245102D01*
X112151Y245142D01*
X112100Y245178D01*
X112060Y245211D01*
X112023Y245236D01*
X112002Y245258D01*
X111983Y245273D01*
X111980Y245276D01*
Y243307D01*
X111670D01*
Y245837D01*
X111870D01*
X111907Y245775D01*
D02*
G37*
G36*
X108831Y243307D02*
X108522D01*
Y244031D01*
X108307Y244239D01*
X107699Y243307D01*
X107317D01*
X108089Y244454D01*
X107386Y245134D01*
X107790D01*
X108522Y244388D01*
Y245826D01*
X108831D01*
Y243307D01*
D02*
G37*
G36*
X110152Y245830D02*
X110243Y245815D01*
X110320Y245790D01*
X110385Y245764D01*
X110440Y245735D01*
X110462Y245724D01*
X110480Y245709D01*
X110494Y245702D01*
X110505Y245695D01*
X110509Y245688D01*
X110513D01*
X110578Y245629D01*
X110633Y245560D01*
X110680Y245491D01*
X110717Y245426D01*
X110746Y245364D01*
X110760Y245338D01*
X110767Y245313D01*
X110775Y245294D01*
X110782Y245280D01*
X110786Y245273D01*
Y245269D01*
X110800Y245214D01*
X110815Y245160D01*
X110837Y245040D01*
X110855Y244920D01*
X110866Y244807D01*
X110869Y244752D01*
X110873Y244705D01*
Y244661D01*
X110877Y244621D01*
Y244592D01*
Y244566D01*
Y244552D01*
Y244548D01*
X110873Y244421D01*
X110866Y244301D01*
X110855Y244192D01*
X110837Y244090D01*
X110819Y243995D01*
X110797Y243911D01*
X110775Y243835D01*
X110753Y243769D01*
X110731Y243711D01*
X110706Y243660D01*
X110687Y243617D01*
X110669Y243584D01*
X110651Y243555D01*
X110640Y243536D01*
X110633Y243526D01*
X110629Y243522D01*
X110589Y243478D01*
X110546Y243438D01*
X110498Y243402D01*
X110451Y243373D01*
X110404Y243347D01*
X110356Y243325D01*
X110309Y243311D01*
X110265Y243296D01*
X110222Y243285D01*
X110181Y243278D01*
X110145Y243271D01*
X110116Y243267D01*
X110090Y243263D01*
X110054D01*
X109956Y243271D01*
X109865Y243285D01*
X109788Y243311D01*
X109723Y243336D01*
X109668Y243362D01*
X109650Y243376D01*
X109632Y243387D01*
X109617Y243394D01*
X109606Y243402D01*
X109603Y243409D01*
X109599D01*
X109534Y243471D01*
X109479Y243536D01*
X109432Y243609D01*
X109395Y243675D01*
X109366Y243737D01*
X109352Y243762D01*
X109344Y243788D01*
X109337Y243806D01*
X109330Y243820D01*
X109326Y243828D01*
Y243831D01*
X109308Y243886D01*
X109293Y243940D01*
X109272Y244057D01*
X109253Y244177D01*
X109242Y244293D01*
X109239Y244344D01*
X109235Y244392D01*
Y244436D01*
X109231Y244476D01*
Y244505D01*
Y244530D01*
Y244545D01*
Y244548D01*
Y244618D01*
X109235Y244683D01*
Y244741D01*
X109239Y244799D01*
X109246Y244850D01*
X109250Y244901D01*
X109253Y244945D01*
X109260Y244985D01*
X109264Y245022D01*
X109272Y245054D01*
X109275Y245080D01*
X109279Y245102D01*
X109282Y245120D01*
X109286Y245131D01*
X109290Y245138D01*
Y245142D01*
X109311Y245222D01*
X109337Y245294D01*
X109366Y245356D01*
X109388Y245411D01*
X109413Y245458D01*
X109428Y245491D01*
X109443Y245509D01*
X109446Y245517D01*
X109486Y245571D01*
X109526Y245619D01*
X109570Y245658D01*
X109610Y245695D01*
X109646Y245720D01*
X109676Y245739D01*
X109694Y245749D01*
X109697Y245753D01*
X109701D01*
X109759Y245782D01*
X109821Y245800D01*
X109879Y245815D01*
X109934Y245826D01*
X109981Y245833D01*
X110021Y245837D01*
X110054D01*
X110152Y245830D01*
D02*
G37*
G36*
X42346Y237103D02*
X42467Y237095D01*
X42576Y237085D01*
X42678Y237066D01*
X42772Y237048D01*
X42856Y237026D01*
X42933Y237004D01*
X42998Y236982D01*
X43056Y236961D01*
X43107Y236935D01*
X43151Y236917D01*
X43184Y236899D01*
X43213Y236881D01*
X43231Y236870D01*
X43242Y236862D01*
X43246Y236859D01*
X43289Y236819D01*
X43329Y236775D01*
X43366Y236728D01*
X43395Y236680D01*
X43420Y236633D01*
X43442Y236586D01*
X43457Y236539D01*
X43471Y236495D01*
X43482Y236451D01*
X43489Y236411D01*
X43497Y236375D01*
X43500Y236346D01*
X43504Y236320D01*
Y236284D01*
X43497Y236185D01*
X43482Y236094D01*
X43457Y236018D01*
X43431Y235952D01*
X43406Y235898D01*
X43391Y235880D01*
X43380Y235861D01*
X43373Y235847D01*
X43366Y235836D01*
X43358Y235832D01*
Y235829D01*
X43297Y235763D01*
X43231Y235708D01*
X43158Y235661D01*
X43093Y235625D01*
X43031Y235596D01*
X43005Y235581D01*
X42980Y235574D01*
X42962Y235567D01*
X42947Y235559D01*
X42940Y235556D01*
X42936D01*
X42882Y235538D01*
X42827Y235523D01*
X42710Y235501D01*
X42590Y235483D01*
X42474Y235472D01*
X42423Y235468D01*
X42375Y235465D01*
X42332D01*
X42292Y235461D01*
X42263D01*
X42237D01*
X42223D01*
X42219D01*
X42150D01*
X42084Y235465D01*
X42026D01*
X41968Y235468D01*
X41917Y235476D01*
X41866Y235479D01*
X41822Y235483D01*
X41782Y235490D01*
X41746Y235494D01*
X41713Y235501D01*
X41688Y235505D01*
X41666Y235508D01*
X41647Y235512D01*
X41637Y235516D01*
X41629Y235519D01*
X41626D01*
X41546Y235541D01*
X41473Y235567D01*
X41411Y235596D01*
X41356Y235617D01*
X41309Y235643D01*
X41276Y235658D01*
X41258Y235672D01*
X41251Y235676D01*
X41196Y235716D01*
X41149Y235756D01*
X41109Y235800D01*
X41072Y235840D01*
X41047Y235876D01*
X41029Y235905D01*
X41018Y235923D01*
X41014Y235927D01*
Y235931D01*
X40985Y235989D01*
X40967Y236051D01*
X40952Y236109D01*
X40941Y236163D01*
X40934Y236211D01*
X40931Y236251D01*
Y236284D01*
X40938Y236382D01*
X40952Y236473D01*
X40978Y236549D01*
X41003Y236615D01*
X41032Y236669D01*
X41043Y236691D01*
X41058Y236709D01*
X41065Y236724D01*
X41072Y236735D01*
X41080Y236739D01*
Y236742D01*
X41138Y236808D01*
X41207Y236862D01*
X41276Y236910D01*
X41342Y236946D01*
X41404Y236975D01*
X41429Y236990D01*
X41455Y236997D01*
X41473Y237004D01*
X41487Y237012D01*
X41495Y237015D01*
X41498D01*
X41553Y237030D01*
X41607Y237044D01*
X41728Y237066D01*
X41848Y237085D01*
X41961Y237095D01*
X42015Y237099D01*
X42063Y237103D01*
X42106D01*
X42146Y237106D01*
X42175D01*
X42201D01*
X42215D01*
X42219D01*
X42346Y237103D01*
D02*
G37*
G36*
X43460Y234620D02*
X43107D01*
Y234973D01*
X43460D01*
Y234620D01*
D02*
G37*
G36*
X41840Y233878D02*
X41815Y233823D01*
X41789Y233768D01*
X41764Y233717D01*
X41742Y233674D01*
X41724Y233637D01*
X41709Y233615D01*
X41706Y233612D01*
Y233608D01*
X41666Y233543D01*
X41626Y233485D01*
X41589Y233434D01*
X41557Y233394D01*
X41531Y233357D01*
X41509Y233335D01*
X41495Y233317D01*
X41491Y233313D01*
X43460D01*
Y233004D01*
X40931D01*
Y233204D01*
X40992Y233241D01*
X41051Y233281D01*
X41109Y233328D01*
X41160Y233372D01*
X41203Y233415D01*
X41240Y233448D01*
X41251Y233463D01*
X41262Y233474D01*
X41265Y233477D01*
X41269Y233481D01*
X41331Y233557D01*
X41389Y233634D01*
X41440Y233706D01*
X41480Y233779D01*
X41517Y233841D01*
X41531Y233867D01*
X41542Y233889D01*
X41553Y233907D01*
X41557Y233921D01*
X41564Y233929D01*
Y233932D01*
X41862D01*
X41840Y233878D01*
D02*
G37*
G36*
X44159Y230795D02*
X43275D01*
X43318Y230758D01*
X43355Y230725D01*
X43384Y230693D01*
X43409Y230667D01*
X43424Y230645D01*
X43438Y230627D01*
X43442Y230616D01*
X43446Y230612D01*
X43464Y230569D01*
X43479Y230529D01*
X43486Y230485D01*
X43493Y230445D01*
X43497Y230412D01*
X43500Y230387D01*
Y230361D01*
X43497Y230303D01*
X43489Y230248D01*
X43479Y230201D01*
X43464Y230161D01*
X43453Y230128D01*
X43442Y230103D01*
X43435Y230085D01*
X43431Y230081D01*
X43409Y230048D01*
X43380Y230016D01*
X43347Y229987D01*
X43318Y229957D01*
X43289Y229936D01*
X43264Y229917D01*
X43249Y229906D01*
X43242Y229903D01*
X43460D01*
Y229626D01*
X41633D01*
Y229932D01*
X42412D01*
X42488D01*
X42554Y229936D01*
X42616D01*
X42674Y229939D01*
X42721Y229943D01*
X42765Y229946D01*
X42805Y229950D01*
X42838Y229954D01*
X42867Y229961D01*
X42889Y229965D01*
X42911Y229968D01*
X42925Y229972D01*
X42936Y229976D01*
X42943D01*
X42951Y229979D01*
X42994Y229997D01*
X43031Y230023D01*
X43067Y230048D01*
X43093Y230070D01*
X43118Y230096D01*
X43133Y230114D01*
X43144Y230128D01*
X43147Y230132D01*
X43173Y230172D01*
X43191Y230216D01*
X43202Y230256D01*
X43209Y230292D01*
X43216Y230325D01*
X43220Y230354D01*
Y230376D01*
X43216Y230423D01*
X43209Y230467D01*
X43198Y230507D01*
X43184Y230540D01*
X43173Y230569D01*
X43162Y230591D01*
X43154Y230605D01*
X43151Y230609D01*
X43122Y230642D01*
X43089Y230671D01*
X43056Y230696D01*
X43023Y230718D01*
X42998Y230733D01*
X42976Y230744D01*
X42958Y230747D01*
X42954Y230751D01*
X42929Y230758D01*
X42892Y230765D01*
X42856Y230773D01*
X42816Y230776D01*
X42725Y230784D01*
X42634Y230787D01*
X42547Y230791D01*
X42510Y230795D01*
X42474D01*
X42448D01*
X42426D01*
X42412D01*
X42408D01*
X41633D01*
Y231104D01*
X44159D01*
Y230795D01*
D02*
G37*
G36*
X43460Y228727D02*
X42317D01*
Y227544D01*
X42019D01*
Y228727D01*
X41240D01*
Y227358D01*
X40941D01*
Y229062D01*
X43460D01*
Y228727D01*
D02*
G37*
G36*
X41559Y142614D02*
X41679Y142607D01*
X41788Y142596D01*
X41890Y142578D01*
X41985Y142560D01*
X42069Y142538D01*
X42145Y142516D01*
X42211Y142494D01*
X42269Y142473D01*
X42320Y142447D01*
X42364Y142429D01*
X42396Y142411D01*
X42425Y142392D01*
X42443Y142382D01*
X42454Y142374D01*
X42458Y142371D01*
X42502Y142331D01*
X42542Y142287D01*
X42578Y142240D01*
X42607Y142192D01*
X42633Y142145D01*
X42655Y142098D01*
X42669Y142050D01*
X42684Y142007D01*
X42695Y141963D01*
X42702Y141923D01*
X42709Y141886D01*
X42713Y141857D01*
X42717Y141832D01*
Y141796D01*
X42709Y141697D01*
X42695Y141606D01*
X42669Y141530D01*
X42644Y141464D01*
X42618Y141410D01*
X42604Y141391D01*
X42593Y141373D01*
X42586Y141359D01*
X42578Y141348D01*
X42571Y141344D01*
Y141340D01*
X42509Y141275D01*
X42443Y141220D01*
X42371Y141173D01*
X42305Y141137D01*
X42243Y141107D01*
X42218Y141093D01*
X42192Y141086D01*
X42174Y141078D01*
X42160Y141071D01*
X42152Y141068D01*
X42149D01*
X42094Y141049D01*
X42039Y141035D01*
X41923Y141013D01*
X41803Y140995D01*
X41686Y140984D01*
X41635Y140980D01*
X41588Y140977D01*
X41544D01*
X41504Y140973D01*
X41475D01*
X41450D01*
X41435D01*
X41432D01*
X41363D01*
X41297Y140977D01*
X41239D01*
X41181Y140980D01*
X41129Y140987D01*
X41078Y140991D01*
X41035Y140995D01*
X40995Y141002D01*
X40958Y141006D01*
X40926Y141013D01*
X40900Y141016D01*
X40878Y141020D01*
X40860Y141024D01*
X40849Y141027D01*
X40842Y141031D01*
X40838D01*
X40758Y141053D01*
X40685Y141078D01*
X40624Y141107D01*
X40569Y141129D01*
X40522Y141155D01*
X40489Y141169D01*
X40471Y141184D01*
X40463Y141188D01*
X40409Y141228D01*
X40361Y141268D01*
X40321Y141311D01*
X40285Y141351D01*
X40260Y141388D01*
X40241Y141417D01*
X40230Y141435D01*
X40227Y141439D01*
Y141442D01*
X40198Y141501D01*
X40179Y141562D01*
X40165Y141621D01*
X40154Y141675D01*
X40147Y141723D01*
X40143Y141763D01*
Y141796D01*
X40150Y141894D01*
X40165Y141985D01*
X40190Y142061D01*
X40216Y142127D01*
X40245Y142181D01*
X40256Y142203D01*
X40270Y142221D01*
X40278Y142236D01*
X40285Y142247D01*
X40292Y142251D01*
Y142254D01*
X40350Y142320D01*
X40420Y142374D01*
X40489Y142422D01*
X40554Y142458D01*
X40616Y142487D01*
X40642Y142502D01*
X40667Y142509D01*
X40685Y142516D01*
X40700Y142524D01*
X40707Y142527D01*
X40711D01*
X40766Y142542D01*
X40820Y142556D01*
X40940Y142578D01*
X41060Y142596D01*
X41173Y142607D01*
X41228Y142611D01*
X41275Y142614D01*
X41319D01*
X41359Y142618D01*
X41388D01*
X41413D01*
X41428D01*
X41432D01*
X41559Y142614D01*
D02*
G37*
G36*
X42673Y140132D02*
X42320D01*
Y140485D01*
X42673D01*
Y140132D01*
D02*
G37*
G36*
X41053Y139389D02*
X41028Y139335D01*
X41002Y139280D01*
X40977Y139229D01*
X40955Y139186D01*
X40937Y139149D01*
X40922Y139127D01*
X40918Y139124D01*
Y139120D01*
X40878Y139055D01*
X40838Y138996D01*
X40802Y138945D01*
X40769Y138905D01*
X40744Y138869D01*
X40722Y138847D01*
X40707Y138829D01*
X40704Y138825D01*
X42673D01*
Y138516D01*
X40143D01*
Y138716D01*
X40205Y138752D01*
X40263Y138793D01*
X40321Y138840D01*
X40372Y138883D01*
X40416Y138927D01*
X40452Y138960D01*
X40463Y138974D01*
X40474Y138985D01*
X40478Y138989D01*
X40482Y138993D01*
X40543Y139069D01*
X40602Y139146D01*
X40653Y139218D01*
X40693Y139291D01*
X40729Y139353D01*
X40744Y139378D01*
X40755Y139400D01*
X40766Y139419D01*
X40769Y139433D01*
X40776Y139440D01*
Y139444D01*
X41075D01*
X41053Y139389D01*
D02*
G37*
G36*
X43372Y136306D02*
X42487D01*
X42531Y136270D01*
X42567Y136237D01*
X42596Y136204D01*
X42622Y136179D01*
X42636Y136157D01*
X42651Y136139D01*
X42655Y136128D01*
X42658Y136124D01*
X42676Y136081D01*
X42691Y136041D01*
X42698Y135997D01*
X42706Y135957D01*
X42709Y135924D01*
X42713Y135899D01*
Y135873D01*
X42709Y135815D01*
X42702Y135760D01*
X42691Y135713D01*
X42676Y135673D01*
X42666Y135640D01*
X42655Y135615D01*
X42647Y135597D01*
X42644Y135593D01*
X42622Y135560D01*
X42593Y135527D01*
X42560Y135498D01*
X42531Y135469D01*
X42502Y135447D01*
X42476Y135429D01*
X42462Y135418D01*
X42454Y135415D01*
X42673D01*
Y135138D01*
X40846D01*
Y135444D01*
X41625D01*
X41701D01*
X41767Y135447D01*
X41828D01*
X41887Y135451D01*
X41934Y135455D01*
X41978Y135458D01*
X42018Y135462D01*
X42050Y135466D01*
X42079Y135473D01*
X42101Y135476D01*
X42123Y135480D01*
X42138Y135484D01*
X42149Y135487D01*
X42156D01*
X42163Y135491D01*
X42207Y135509D01*
X42243Y135535D01*
X42280Y135560D01*
X42305Y135582D01*
X42331Y135608D01*
X42345Y135626D01*
X42356Y135640D01*
X42360Y135644D01*
X42385Y135684D01*
X42404Y135728D01*
X42414Y135768D01*
X42422Y135804D01*
X42429Y135837D01*
X42433Y135866D01*
Y135888D01*
X42429Y135935D01*
X42422Y135979D01*
X42411Y136019D01*
X42396Y136051D01*
X42385Y136081D01*
X42374Y136102D01*
X42367Y136117D01*
X42364Y136121D01*
X42334Y136153D01*
X42302Y136183D01*
X42269Y136208D01*
X42236Y136230D01*
X42211Y136244D01*
X42189Y136255D01*
X42171Y136259D01*
X42167Y136263D01*
X42141Y136270D01*
X42105Y136277D01*
X42069Y136284D01*
X42029Y136288D01*
X41938Y136295D01*
X41847Y136299D01*
X41759Y136303D01*
X41723Y136306D01*
X41686D01*
X41661D01*
X41639D01*
X41625D01*
X41621D01*
X40846D01*
Y136616D01*
X43372D01*
Y136306D01*
D02*
G37*
G36*
X42673Y134239D02*
X41530D01*
Y133056D01*
X41231D01*
Y134239D01*
X40452D01*
Y132870D01*
X40154D01*
Y134574D01*
X42673D01*
Y134239D01*
D02*
G37*
G36*
X41559Y190646D02*
X41679Y190639D01*
X41788Y190628D01*
X41890Y190610D01*
X41985Y190591D01*
X42069Y190569D01*
X42145Y190548D01*
X42211Y190526D01*
X42269Y190504D01*
X42320Y190479D01*
X42364Y190460D01*
X42396Y190442D01*
X42425Y190424D01*
X42443Y190413D01*
X42454Y190406D01*
X42458Y190402D01*
X42502Y190362D01*
X42542Y190318D01*
X42578Y190271D01*
X42607Y190224D01*
X42633Y190176D01*
X42655Y190129D01*
X42669Y190082D01*
X42684Y190038D01*
X42695Y189994D01*
X42702Y189954D01*
X42709Y189918D01*
X42713Y189889D01*
X42717Y189863D01*
Y189827D01*
X42709Y189729D01*
X42695Y189638D01*
X42669Y189561D01*
X42644Y189496D01*
X42618Y189441D01*
X42604Y189423D01*
X42593Y189405D01*
X42586Y189390D01*
X42578Y189379D01*
X42571Y189376D01*
Y189372D01*
X42509Y189306D01*
X42443Y189252D01*
X42371Y189205D01*
X42305Y189168D01*
X42243Y189139D01*
X42218Y189125D01*
X42192Y189117D01*
X42174Y189110D01*
X42160Y189103D01*
X42152Y189099D01*
X42149D01*
X42094Y189081D01*
X42039Y189066D01*
X41923Y189044D01*
X41803Y189026D01*
X41686Y189015D01*
X41635Y189012D01*
X41588Y189008D01*
X41544D01*
X41504Y189004D01*
X41475D01*
X41450D01*
X41435D01*
X41432D01*
X41363D01*
X41297Y189008D01*
X41239D01*
X41181Y189012D01*
X41129Y189019D01*
X41078Y189023D01*
X41035Y189026D01*
X40995Y189033D01*
X40958Y189037D01*
X40926Y189044D01*
X40900Y189048D01*
X40878Y189052D01*
X40860Y189055D01*
X40849Y189059D01*
X40842Y189063D01*
X40838D01*
X40758Y189084D01*
X40685Y189110D01*
X40624Y189139D01*
X40569Y189161D01*
X40522Y189186D01*
X40489Y189201D01*
X40471Y189216D01*
X40463Y189219D01*
X40409Y189259D01*
X40361Y189299D01*
X40321Y189343D01*
X40285Y189383D01*
X40260Y189419D01*
X40241Y189448D01*
X40230Y189467D01*
X40227Y189470D01*
Y189474D01*
X40198Y189532D01*
X40179Y189594D01*
X40165Y189652D01*
X40154Y189707D01*
X40147Y189754D01*
X40143Y189794D01*
Y189827D01*
X40150Y189925D01*
X40165Y190016D01*
X40190Y190093D01*
X40216Y190158D01*
X40245Y190213D01*
X40256Y190235D01*
X40270Y190253D01*
X40278Y190267D01*
X40285Y190278D01*
X40292Y190282D01*
Y190286D01*
X40350Y190351D01*
X40420Y190406D01*
X40489Y190453D01*
X40554Y190489D01*
X40616Y190519D01*
X40642Y190533D01*
X40667Y190540D01*
X40685Y190548D01*
X40700Y190555D01*
X40707Y190559D01*
X40711D01*
X40766Y190573D01*
X40820Y190588D01*
X40940Y190610D01*
X41060Y190628D01*
X41173Y190639D01*
X41228Y190642D01*
X41275Y190646D01*
X41319D01*
X41359Y190650D01*
X41388D01*
X41413D01*
X41428D01*
X41432D01*
X41559Y190646D01*
D02*
G37*
G36*
X42673Y188163D02*
X42320D01*
Y188517D01*
X42673D01*
Y188163D01*
D02*
G37*
G36*
X41053Y187421D02*
X41028Y187366D01*
X41002Y187312D01*
X40977Y187261D01*
X40955Y187217D01*
X40937Y187181D01*
X40922Y187159D01*
X40918Y187155D01*
Y187152D01*
X40878Y187086D01*
X40838Y187028D01*
X40802Y186977D01*
X40769Y186937D01*
X40744Y186900D01*
X40722Y186879D01*
X40707Y186860D01*
X40704Y186857D01*
X42673D01*
Y186547D01*
X40143D01*
Y186748D01*
X40205Y186784D01*
X40263Y186824D01*
X40321Y186871D01*
X40372Y186915D01*
X40416Y186959D01*
X40452Y186991D01*
X40463Y187006D01*
X40474Y187017D01*
X40478Y187021D01*
X40482Y187024D01*
X40543Y187101D01*
X40602Y187177D01*
X40653Y187250D01*
X40693Y187323D01*
X40729Y187384D01*
X40744Y187410D01*
X40755Y187432D01*
X40766Y187450D01*
X40769Y187465D01*
X40776Y187472D01*
Y187476D01*
X41075D01*
X41053Y187421D01*
D02*
G37*
G36*
X43372Y184338D02*
X42487D01*
X42531Y184301D01*
X42567Y184269D01*
X42596Y184236D01*
X42622Y184210D01*
X42636Y184189D01*
X42651Y184170D01*
X42655Y184160D01*
X42658Y184156D01*
X42676Y184112D01*
X42691Y184072D01*
X42698Y184028D01*
X42706Y183988D01*
X42709Y183956D01*
X42713Y183930D01*
Y183905D01*
X42709Y183846D01*
X42702Y183792D01*
X42691Y183745D01*
X42676Y183704D01*
X42666Y183672D01*
X42655Y183646D01*
X42647Y183628D01*
X42644Y183624D01*
X42622Y183592D01*
X42593Y183559D01*
X42560Y183530D01*
X42531Y183501D01*
X42502Y183479D01*
X42476Y183461D01*
X42462Y183450D01*
X42454Y183446D01*
X42673D01*
Y183169D01*
X40846D01*
Y183475D01*
X41625D01*
X41701D01*
X41767Y183479D01*
X41828D01*
X41887Y183482D01*
X41934Y183486D01*
X41978Y183490D01*
X42018Y183493D01*
X42050Y183497D01*
X42079Y183504D01*
X42101Y183508D01*
X42123Y183512D01*
X42138Y183515D01*
X42149Y183519D01*
X42156D01*
X42163Y183522D01*
X42207Y183541D01*
X42243Y183566D01*
X42280Y183592D01*
X42305Y183614D01*
X42331Y183639D01*
X42345Y183657D01*
X42356Y183672D01*
X42360Y183675D01*
X42385Y183715D01*
X42404Y183759D01*
X42414Y183799D01*
X42422Y183835D01*
X42429Y183868D01*
X42433Y183897D01*
Y183919D01*
X42429Y183967D01*
X42422Y184010D01*
X42411Y184050D01*
X42396Y184083D01*
X42385Y184112D01*
X42374Y184134D01*
X42367Y184149D01*
X42364Y184152D01*
X42334Y184185D01*
X42302Y184214D01*
X42269Y184240D01*
X42236Y184261D01*
X42211Y184276D01*
X42189Y184287D01*
X42171Y184291D01*
X42167Y184294D01*
X42141Y184301D01*
X42105Y184309D01*
X42069Y184316D01*
X42029Y184320D01*
X41938Y184327D01*
X41847Y184331D01*
X41759Y184334D01*
X41723Y184338D01*
X41686D01*
X41661D01*
X41639D01*
X41625D01*
X41621D01*
X40846D01*
Y184647D01*
X43372D01*
Y184338D01*
D02*
G37*
G36*
X42673Y182270D02*
X41530D01*
Y181087D01*
X41231D01*
Y182270D01*
X40452D01*
Y180902D01*
X40154D01*
Y182605D01*
X42673D01*
Y182270D01*
D02*
G37*
G36*
X41559Y48126D02*
X41679Y48119D01*
X41788Y48108D01*
X41890Y48090D01*
X41985Y48072D01*
X42069Y48050D01*
X42145Y48028D01*
X42211Y48006D01*
X42269Y47984D01*
X42320Y47959D01*
X42364Y47941D01*
X42396Y47922D01*
X42425Y47904D01*
X42443Y47893D01*
X42454Y47886D01*
X42458Y47882D01*
X42502Y47842D01*
X42542Y47799D01*
X42578Y47751D01*
X42607Y47704D01*
X42633Y47657D01*
X42655Y47609D01*
X42669Y47562D01*
X42684Y47518D01*
X42695Y47475D01*
X42702Y47435D01*
X42709Y47398D01*
X42713Y47369D01*
X42717Y47344D01*
Y47307D01*
X42709Y47209D01*
X42695Y47118D01*
X42669Y47042D01*
X42644Y46976D01*
X42618Y46921D01*
X42604Y46903D01*
X42593Y46885D01*
X42586Y46870D01*
X42578Y46860D01*
X42571Y46856D01*
Y46852D01*
X42509Y46787D01*
X42443Y46732D01*
X42371Y46685D01*
X42305Y46648D01*
X42243Y46619D01*
X42218Y46605D01*
X42192Y46597D01*
X42174Y46590D01*
X42160Y46583D01*
X42152Y46579D01*
X42149D01*
X42094Y46561D01*
X42039Y46547D01*
X41923Y46525D01*
X41803Y46507D01*
X41686Y46496D01*
X41635Y46492D01*
X41588Y46488D01*
X41544D01*
X41504Y46485D01*
X41475D01*
X41450D01*
X41435D01*
X41432D01*
X41363D01*
X41297Y46488D01*
X41239D01*
X41181Y46492D01*
X41129Y46499D01*
X41078Y46503D01*
X41035Y46507D01*
X40995Y46514D01*
X40958Y46517D01*
X40926Y46525D01*
X40900Y46528D01*
X40878Y46532D01*
X40860Y46536D01*
X40849Y46539D01*
X40842Y46543D01*
X40838D01*
X40758Y46565D01*
X40685Y46590D01*
X40624Y46619D01*
X40569Y46641D01*
X40522Y46667D01*
X40489Y46681D01*
X40471Y46696D01*
X40463Y46699D01*
X40409Y46739D01*
X40361Y46780D01*
X40321Y46823D01*
X40285Y46863D01*
X40260Y46900D01*
X40241Y46929D01*
X40230Y46947D01*
X40227Y46951D01*
Y46954D01*
X40198Y47012D01*
X40179Y47074D01*
X40165Y47133D01*
X40154Y47187D01*
X40147Y47234D01*
X40143Y47275D01*
Y47307D01*
X40150Y47406D01*
X40165Y47497D01*
X40190Y47573D01*
X40216Y47638D01*
X40245Y47693D01*
X40256Y47715D01*
X40270Y47733D01*
X40278Y47748D01*
X40285Y47759D01*
X40292Y47762D01*
Y47766D01*
X40350Y47831D01*
X40420Y47886D01*
X40489Y47933D01*
X40554Y47970D01*
X40616Y47999D01*
X40642Y48013D01*
X40667Y48021D01*
X40685Y48028D01*
X40700Y48035D01*
X40707Y48039D01*
X40711D01*
X40766Y48054D01*
X40820Y48068D01*
X40940Y48090D01*
X41060Y48108D01*
X41173Y48119D01*
X41228Y48123D01*
X41275Y48126D01*
X41319D01*
X41359Y48130D01*
X41388D01*
X41413D01*
X41428D01*
X41432D01*
X41559Y48126D01*
D02*
G37*
G36*
X42673Y45644D02*
X42320D01*
Y45997D01*
X42673D01*
Y45644D01*
D02*
G37*
G36*
X41053Y44901D02*
X41028Y44847D01*
X41002Y44792D01*
X40977Y44741D01*
X40955Y44697D01*
X40937Y44661D01*
X40922Y44639D01*
X40918Y44635D01*
Y44632D01*
X40878Y44566D01*
X40838Y44508D01*
X40802Y44457D01*
X40769Y44417D01*
X40744Y44381D01*
X40722Y44359D01*
X40707Y44341D01*
X40704Y44337D01*
X42673D01*
Y44028D01*
X40143D01*
Y44228D01*
X40205Y44264D01*
X40263Y44304D01*
X40321Y44352D01*
X40372Y44395D01*
X40416Y44439D01*
X40452Y44472D01*
X40463Y44486D01*
X40474Y44497D01*
X40478Y44501D01*
X40482Y44504D01*
X40543Y44581D01*
X40602Y44657D01*
X40653Y44730D01*
X40693Y44803D01*
X40729Y44865D01*
X40744Y44890D01*
X40755Y44912D01*
X40766Y44930D01*
X40769Y44945D01*
X40776Y44952D01*
Y44956D01*
X41075D01*
X41053Y44901D01*
D02*
G37*
G36*
X43372Y41818D02*
X42487D01*
X42531Y41782D01*
X42567Y41749D01*
X42596Y41716D01*
X42622Y41691D01*
X42636Y41669D01*
X42651Y41651D01*
X42655Y41640D01*
X42658Y41636D01*
X42676Y41592D01*
X42691Y41552D01*
X42698Y41509D01*
X42706Y41469D01*
X42709Y41436D01*
X42713Y41410D01*
Y41385D01*
X42709Y41327D01*
X42702Y41272D01*
X42691Y41225D01*
X42676Y41185D01*
X42666Y41152D01*
X42655Y41127D01*
X42647Y41108D01*
X42644Y41105D01*
X42622Y41072D01*
X42593Y41039D01*
X42560Y41010D01*
X42531Y40981D01*
X42502Y40959D01*
X42476Y40941D01*
X42462Y40930D01*
X42454Y40926D01*
X42673D01*
Y40650D01*
X40846D01*
Y40955D01*
X41625D01*
X41701D01*
X41767Y40959D01*
X41828D01*
X41887Y40963D01*
X41934Y40966D01*
X41978Y40970D01*
X42018Y40974D01*
X42050Y40977D01*
X42079Y40985D01*
X42101Y40988D01*
X42123Y40992D01*
X42138Y40995D01*
X42149Y40999D01*
X42156D01*
X42163Y41003D01*
X42207Y41021D01*
X42243Y41047D01*
X42280Y41072D01*
X42305Y41094D01*
X42331Y41119D01*
X42345Y41137D01*
X42356Y41152D01*
X42360Y41156D01*
X42385Y41196D01*
X42404Y41239D01*
X42414Y41279D01*
X42422Y41316D01*
X42429Y41349D01*
X42433Y41378D01*
Y41400D01*
X42429Y41447D01*
X42422Y41491D01*
X42411Y41531D01*
X42396Y41563D01*
X42385Y41592D01*
X42374Y41614D01*
X42367Y41629D01*
X42364Y41633D01*
X42334Y41665D01*
X42302Y41694D01*
X42269Y41720D01*
X42236Y41742D01*
X42211Y41756D01*
X42189Y41767D01*
X42171Y41771D01*
X42167Y41774D01*
X42141Y41782D01*
X42105Y41789D01*
X42069Y41796D01*
X42029Y41800D01*
X41938Y41807D01*
X41847Y41811D01*
X41759Y41815D01*
X41723Y41818D01*
X41686D01*
X41661D01*
X41639D01*
X41625D01*
X41621D01*
X40846D01*
Y42128D01*
X43372D01*
Y41818D01*
D02*
G37*
G36*
X42673Y39751D02*
X41530D01*
Y38568D01*
X41231D01*
Y39751D01*
X40452D01*
Y38382D01*
X40154D01*
Y40086D01*
X42673D01*
Y39751D01*
D02*
G37*
G36*
X41559Y95370D02*
X41679Y95363D01*
X41788Y95352D01*
X41890Y95334D01*
X41985Y95316D01*
X42069Y95294D01*
X42145Y95272D01*
X42211Y95250D01*
X42269Y95228D01*
X42320Y95203D01*
X42364Y95185D01*
X42396Y95166D01*
X42425Y95148D01*
X42443Y95137D01*
X42454Y95130D01*
X42458Y95126D01*
X42502Y95086D01*
X42542Y95043D01*
X42578Y94995D01*
X42607Y94948D01*
X42633Y94901D01*
X42655Y94854D01*
X42669Y94806D01*
X42684Y94762D01*
X42695Y94719D01*
X42702Y94679D01*
X42709Y94642D01*
X42713Y94613D01*
X42717Y94588D01*
Y94551D01*
X42709Y94453D01*
X42695Y94362D01*
X42669Y94286D01*
X42644Y94220D01*
X42618Y94165D01*
X42604Y94147D01*
X42593Y94129D01*
X42586Y94115D01*
X42578Y94104D01*
X42571Y94100D01*
Y94096D01*
X42509Y94031D01*
X42443Y93976D01*
X42371Y93929D01*
X42305Y93893D01*
X42243Y93863D01*
X42218Y93849D01*
X42192Y93842D01*
X42174Y93834D01*
X42160Y93827D01*
X42152Y93823D01*
X42149D01*
X42094Y93805D01*
X42039Y93791D01*
X41923Y93769D01*
X41803Y93751D01*
X41686Y93740D01*
X41635Y93736D01*
X41588Y93732D01*
X41544D01*
X41504Y93729D01*
X41475D01*
X41450D01*
X41435D01*
X41432D01*
X41363D01*
X41297Y93732D01*
X41239D01*
X41181Y93736D01*
X41129Y93743D01*
X41078Y93747D01*
X41035Y93751D01*
X40995Y93758D01*
X40958Y93761D01*
X40926Y93769D01*
X40900Y93772D01*
X40878Y93776D01*
X40860Y93780D01*
X40849Y93783D01*
X40842Y93787D01*
X40838D01*
X40758Y93809D01*
X40685Y93834D01*
X40624Y93863D01*
X40569Y93885D01*
X40522Y93911D01*
X40489Y93925D01*
X40471Y93940D01*
X40463Y93944D01*
X40409Y93984D01*
X40361Y94024D01*
X40321Y94067D01*
X40285Y94107D01*
X40260Y94144D01*
X40241Y94173D01*
X40230Y94191D01*
X40227Y94195D01*
Y94198D01*
X40198Y94257D01*
X40179Y94318D01*
X40165Y94377D01*
X40154Y94431D01*
X40147Y94479D01*
X40143Y94519D01*
Y94551D01*
X40150Y94650D01*
X40165Y94741D01*
X40190Y94817D01*
X40216Y94883D01*
X40245Y94937D01*
X40256Y94959D01*
X40270Y94977D01*
X40278Y94992D01*
X40285Y95003D01*
X40292Y95006D01*
Y95010D01*
X40350Y95076D01*
X40420Y95130D01*
X40489Y95178D01*
X40554Y95214D01*
X40616Y95243D01*
X40642Y95258D01*
X40667Y95265D01*
X40685Y95272D01*
X40700Y95279D01*
X40707Y95283D01*
X40711D01*
X40766Y95298D01*
X40820Y95312D01*
X40940Y95334D01*
X41060Y95352D01*
X41173Y95363D01*
X41228Y95367D01*
X41275Y95370D01*
X41319D01*
X41359Y95374D01*
X41388D01*
X41413D01*
X41428D01*
X41432D01*
X41559Y95370D01*
D02*
G37*
G36*
X42673Y92888D02*
X42320D01*
Y93241D01*
X42673D01*
Y92888D01*
D02*
G37*
G36*
X41053Y92145D02*
X41028Y92091D01*
X41002Y92036D01*
X40977Y91985D01*
X40955Y91941D01*
X40937Y91905D01*
X40922Y91883D01*
X40918Y91880D01*
Y91876D01*
X40878Y91811D01*
X40838Y91752D01*
X40802Y91701D01*
X40769Y91661D01*
X40744Y91625D01*
X40722Y91603D01*
X40707Y91585D01*
X40704Y91581D01*
X42673D01*
Y91272D01*
X40143D01*
Y91472D01*
X40205Y91508D01*
X40263Y91548D01*
X40321Y91596D01*
X40372Y91639D01*
X40416Y91683D01*
X40452Y91716D01*
X40463Y91730D01*
X40474Y91741D01*
X40478Y91745D01*
X40482Y91749D01*
X40543Y91825D01*
X40602Y91901D01*
X40653Y91974D01*
X40693Y92047D01*
X40729Y92109D01*
X40744Y92134D01*
X40755Y92156D01*
X40766Y92175D01*
X40769Y92189D01*
X40776Y92196D01*
Y92200D01*
X41075D01*
X41053Y92145D01*
D02*
G37*
G36*
X43372Y89062D02*
X42487D01*
X42531Y89026D01*
X42567Y88993D01*
X42596Y88960D01*
X42622Y88935D01*
X42636Y88913D01*
X42651Y88895D01*
X42655Y88884D01*
X42658Y88880D01*
X42676Y88837D01*
X42691Y88797D01*
X42698Y88753D01*
X42706Y88713D01*
X42709Y88680D01*
X42713Y88655D01*
Y88629D01*
X42709Y88571D01*
X42702Y88516D01*
X42691Y88469D01*
X42676Y88429D01*
X42666Y88396D01*
X42655Y88371D01*
X42647Y88353D01*
X42644Y88349D01*
X42622Y88316D01*
X42593Y88283D01*
X42560Y88254D01*
X42531Y88225D01*
X42502Y88203D01*
X42476Y88185D01*
X42462Y88174D01*
X42454Y88170D01*
X42673D01*
Y87894D01*
X40846D01*
Y88200D01*
X41625D01*
X41701D01*
X41767Y88203D01*
X41828D01*
X41887Y88207D01*
X41934Y88210D01*
X41978Y88214D01*
X42018Y88218D01*
X42050Y88221D01*
X42079Y88229D01*
X42101Y88232D01*
X42123Y88236D01*
X42138Y88240D01*
X42149Y88243D01*
X42156D01*
X42163Y88247D01*
X42207Y88265D01*
X42243Y88291D01*
X42280Y88316D01*
X42305Y88338D01*
X42331Y88363D01*
X42345Y88382D01*
X42356Y88396D01*
X42360Y88400D01*
X42385Y88440D01*
X42404Y88484D01*
X42414Y88524D01*
X42422Y88560D01*
X42429Y88593D01*
X42433Y88622D01*
Y88644D01*
X42429Y88691D01*
X42422Y88735D01*
X42411Y88775D01*
X42396Y88807D01*
X42385Y88837D01*
X42374Y88858D01*
X42367Y88873D01*
X42364Y88877D01*
X42334Y88909D01*
X42302Y88938D01*
X42269Y88964D01*
X42236Y88986D01*
X42211Y89000D01*
X42189Y89011D01*
X42171Y89015D01*
X42167Y89019D01*
X42141Y89026D01*
X42105Y89033D01*
X42069Y89040D01*
X42029Y89044D01*
X41938Y89051D01*
X41847Y89055D01*
X41759Y89059D01*
X41723Y89062D01*
X41686D01*
X41661D01*
X41639D01*
X41625D01*
X41621D01*
X40846D01*
Y89372D01*
X43372D01*
Y89062D01*
D02*
G37*
G36*
X42673Y86995D02*
X41530D01*
Y85812D01*
X41231D01*
Y86995D01*
X40452D01*
Y85626D01*
X40154D01*
Y87330D01*
X42673D01*
Y86995D01*
D02*
G37*
G36*
X37367Y362332D02*
X38048Y363035D01*
Y362631D01*
X37301Y361899D01*
X38739D01*
Y361590D01*
X36220D01*
Y361899D01*
X36945D01*
X37152Y362114D01*
X36220Y362722D01*
Y363104D01*
X37367Y362332D01*
D02*
G37*
G36*
X38707Y359566D02*
X38408D01*
Y360800D01*
X38303Y360713D01*
X38190Y360629D01*
X38080Y360556D01*
X37975Y360487D01*
X37928Y360458D01*
X37884Y360432D01*
X37844Y360407D01*
X37811Y360389D01*
X37782Y360374D01*
X37764Y360363D01*
X37749Y360356D01*
X37746Y360352D01*
X37600Y360279D01*
X37454Y360214D01*
X37316Y360159D01*
X37254Y360138D01*
X37192Y360116D01*
X37138Y360094D01*
X37087Y360079D01*
X37043Y360065D01*
X37007Y360054D01*
X36974Y360043D01*
X36952Y360036D01*
X36937Y360032D01*
X36934D01*
X36785Y359996D01*
X36712Y359981D01*
X36646Y359970D01*
X36584Y359959D01*
X36523Y359948D01*
X36472Y359941D01*
X36421Y359934D01*
X36377Y359930D01*
X36337Y359926D01*
X36301Y359923D01*
X36271D01*
X36250Y359919D01*
X36235D01*
X36224D01*
X36220D01*
Y360236D01*
X36359Y360247D01*
X36486Y360265D01*
X36603Y360283D01*
X36657Y360294D01*
X36708Y360305D01*
X36752Y360312D01*
X36792Y360323D01*
X36828Y360330D01*
X36858Y360338D01*
X36879Y360345D01*
X36898Y360349D01*
X36908Y360352D01*
X36912D01*
X37080Y360407D01*
X37236Y360465D01*
X37312Y360494D01*
X37385Y360523D01*
X37451Y360556D01*
X37516Y360585D01*
X37574Y360611D01*
X37626Y360636D01*
X37669Y360658D01*
X37709Y360676D01*
X37742Y360694D01*
X37764Y360705D01*
X37778Y360713D01*
X37782Y360716D01*
X37859Y360760D01*
X37935Y360804D01*
X38004Y360847D01*
X38070Y360891D01*
X38128Y360931D01*
X38186Y360971D01*
X38237Y361011D01*
X38281Y361044D01*
X38324Y361077D01*
X38361Y361106D01*
X38390Y361135D01*
X38415Y361157D01*
X38437Y361171D01*
X38452Y361186D01*
X38459Y361193D01*
X38463Y361197D01*
X38707D01*
Y359566D01*
D02*
G37*
G36*
X37109Y358885D02*
X38739D01*
Y358634D01*
X37109Y357480D01*
X36825D01*
Y358576D01*
X36220D01*
Y358885D01*
X36825D01*
Y359227D01*
X37109D01*
Y358885D01*
D02*
G37*
G36*
X37367Y384380D02*
X38048Y385082D01*
Y384678D01*
X37301Y383946D01*
X38739D01*
Y383637D01*
X36220D01*
Y383946D01*
X36945D01*
X37152Y384161D01*
X36220Y384769D01*
Y385151D01*
X37367Y384380D01*
D02*
G37*
G36*
X38707Y381613D02*
X38408D01*
Y382847D01*
X38303Y382760D01*
X38190Y382676D01*
X38080Y382603D01*
X37975Y382534D01*
X37928Y382505D01*
X37884Y382480D01*
X37844Y382454D01*
X37811Y382436D01*
X37782Y382421D01*
X37764Y382410D01*
X37749Y382403D01*
X37746Y382400D01*
X37600Y382327D01*
X37454Y382261D01*
X37316Y382207D01*
X37254Y382185D01*
X37192Y382163D01*
X37138Y382141D01*
X37087Y382126D01*
X37043Y382112D01*
X37007Y382101D01*
X36974Y382090D01*
X36952Y382083D01*
X36937Y382079D01*
X36934D01*
X36785Y382043D01*
X36712Y382028D01*
X36646Y382017D01*
X36584Y382006D01*
X36523Y381996D01*
X36472Y381988D01*
X36421Y381981D01*
X36377Y381977D01*
X36337Y381974D01*
X36301Y381970D01*
X36271D01*
X36250Y381966D01*
X36235D01*
X36224D01*
X36220D01*
Y382283D01*
X36359Y382294D01*
X36486Y382312D01*
X36603Y382330D01*
X36657Y382341D01*
X36708Y382352D01*
X36752Y382360D01*
X36792Y382370D01*
X36828Y382378D01*
X36858Y382385D01*
X36879Y382392D01*
X36898Y382396D01*
X36908Y382400D01*
X36912D01*
X37080Y382454D01*
X37236Y382512D01*
X37312Y382541D01*
X37385Y382571D01*
X37451Y382603D01*
X37516Y382632D01*
X37574Y382658D01*
X37626Y382683D01*
X37669Y382705D01*
X37709Y382723D01*
X37742Y382742D01*
X37764Y382753D01*
X37778Y382760D01*
X37782Y382764D01*
X37859Y382807D01*
X37935Y382851D01*
X38004Y382895D01*
X38070Y382938D01*
X38128Y382978D01*
X38186Y383018D01*
X38237Y383058D01*
X38281Y383091D01*
X38324Y383124D01*
X38361Y383153D01*
X38390Y383182D01*
X38415Y383204D01*
X38437Y383219D01*
X38452Y383233D01*
X38459Y383240D01*
X38463Y383244D01*
X38707D01*
Y381613D01*
D02*
G37*
G36*
X37109Y380933D02*
X38739D01*
Y380681D01*
X37109Y379528D01*
X36825D01*
Y380623D01*
X36220D01*
Y380933D01*
X36825D01*
Y381275D01*
X37109D01*
Y380933D01*
D02*
G37*
G36*
X178024Y364673D02*
X178064Y364614D01*
X178111Y364556D01*
X178155Y364505D01*
X178199Y364461D01*
X178232Y364425D01*
X178246Y364414D01*
X178257Y364403D01*
X178261Y364400D01*
X178264Y364396D01*
X178341Y364334D01*
X178417Y364276D01*
X178490Y364225D01*
X178563Y364185D01*
X178625Y364148D01*
X178650Y364134D01*
X178672Y364123D01*
X178690Y364112D01*
X178705Y364108D01*
X178712Y364101D01*
X178716D01*
Y363803D01*
X178661Y363825D01*
X178606Y363850D01*
X178552Y363876D01*
X178501Y363901D01*
X178457Y363923D01*
X178421Y363941D01*
X178399Y363956D01*
X178395Y363959D01*
X178392D01*
X178326Y363999D01*
X178268Y364039D01*
X178217Y364076D01*
X178177Y364108D01*
X178141Y364134D01*
X178119Y364156D01*
X178101Y364170D01*
X178097Y364174D01*
Y362205D01*
X177787D01*
Y364735D01*
X177988D01*
X178024Y364673D01*
D02*
G37*
G36*
X175887Y361506D02*
X175578D01*
Y362390D01*
X175542Y362347D01*
X175509Y362310D01*
X175476Y362281D01*
X175451Y362256D01*
X175429Y362241D01*
X175411Y362227D01*
X175400Y362223D01*
X175396Y362219D01*
X175352Y362201D01*
X175312Y362187D01*
X175269Y362179D01*
X175229Y362172D01*
X175196Y362168D01*
X175170Y362165D01*
X175145D01*
X175087Y362168D01*
X175032Y362176D01*
X174985Y362187D01*
X174945Y362201D01*
X174912Y362212D01*
X174886Y362223D01*
X174868Y362230D01*
X174865Y362234D01*
X174832Y362256D01*
X174799Y362285D01*
X174770Y362318D01*
X174741Y362347D01*
X174719Y362376D01*
X174701Y362401D01*
X174690Y362416D01*
X174686Y362423D01*
Y362205D01*
X174410D01*
Y364032D01*
X174715D01*
Y363253D01*
Y363177D01*
X174719Y363111D01*
Y363049D01*
X174723Y362991D01*
X174726Y362944D01*
X174730Y362900D01*
X174733Y362860D01*
X174737Y362827D01*
X174744Y362798D01*
X174748Y362776D01*
X174752Y362754D01*
X174755Y362740D01*
X174759Y362729D01*
Y362722D01*
X174763Y362714D01*
X174781Y362671D01*
X174806Y362634D01*
X174832Y362598D01*
X174854Y362572D01*
X174879Y362547D01*
X174897Y362532D01*
X174912Y362521D01*
X174916Y362518D01*
X174956Y362492D01*
X174999Y362474D01*
X175039Y362463D01*
X175076Y362456D01*
X175108Y362449D01*
X175138Y362445D01*
X175159D01*
X175207Y362449D01*
X175250Y362456D01*
X175290Y362467D01*
X175323Y362481D01*
X175352Y362492D01*
X175374Y362503D01*
X175389Y362510D01*
X175392Y362514D01*
X175425Y362543D01*
X175454Y362576D01*
X175480Y362609D01*
X175502Y362642D01*
X175516Y362667D01*
X175527Y362689D01*
X175531Y362707D01*
X175534Y362711D01*
X175542Y362736D01*
X175549Y362773D01*
X175556Y362809D01*
X175560Y362849D01*
X175567Y362940D01*
X175571Y363031D01*
X175574Y363118D01*
X175578Y363155D01*
Y363191D01*
Y363217D01*
Y363239D01*
Y363253D01*
Y363257D01*
Y364032D01*
X175887D01*
Y361506D01*
D02*
G37*
G36*
X179757Y362205D02*
X179404D01*
Y362558D01*
X179757D01*
Y362205D01*
D02*
G37*
G36*
X173845D02*
X173511D01*
Y363348D01*
X172327D01*
Y363646D01*
X173511D01*
Y364425D01*
X172142D01*
Y364724D01*
X173845D01*
Y362205D01*
D02*
G37*
G36*
X181165Y364727D02*
X181256Y364713D01*
X181333Y364687D01*
X181398Y364662D01*
X181453Y364633D01*
X181475Y364622D01*
X181493Y364607D01*
X181508Y364600D01*
X181518Y364593D01*
X181522Y364585D01*
X181526D01*
X181591Y364527D01*
X181646Y364458D01*
X181693Y364389D01*
X181730Y364323D01*
X181759Y364261D01*
X181773Y364236D01*
X181781Y364210D01*
X181788Y364192D01*
X181795Y364178D01*
X181799Y364170D01*
Y364167D01*
X181813Y364112D01*
X181828Y364057D01*
X181850Y363937D01*
X181868Y363817D01*
X181879Y363704D01*
X181883Y363650D01*
X181886Y363602D01*
Y363559D01*
X181890Y363519D01*
Y363490D01*
Y363464D01*
Y363450D01*
Y363446D01*
X181886Y363319D01*
X181879Y363198D01*
X181868Y363089D01*
X181850Y362987D01*
X181832Y362893D01*
X181810Y362809D01*
X181788Y362733D01*
X181766Y362667D01*
X181744Y362609D01*
X181719Y362558D01*
X181701Y362514D01*
X181682Y362481D01*
X181664Y362452D01*
X181653Y362434D01*
X181646Y362423D01*
X181642Y362420D01*
X181602Y362376D01*
X181559Y362336D01*
X181511Y362299D01*
X181464Y362270D01*
X181417Y362245D01*
X181369Y362223D01*
X181322Y362208D01*
X181278Y362194D01*
X181235Y362183D01*
X181194Y362176D01*
X181158Y362168D01*
X181129Y362165D01*
X181104Y362161D01*
X181067D01*
X180969Y362168D01*
X180878Y362183D01*
X180801Y362208D01*
X180736Y362234D01*
X180681Y362259D01*
X180663Y362274D01*
X180645Y362285D01*
X180630Y362292D01*
X180619Y362299D01*
X180616Y362307D01*
X180612D01*
X180547Y362368D01*
X180492Y362434D01*
X180445Y362507D01*
X180408Y362572D01*
X180379Y362634D01*
X180365Y362660D01*
X180357Y362685D01*
X180350Y362703D01*
X180343Y362718D01*
X180339Y362725D01*
Y362729D01*
X180321Y362784D01*
X180306Y362838D01*
X180285Y362955D01*
X180266Y363075D01*
X180255Y363191D01*
X180252Y363242D01*
X180248Y363289D01*
Y363333D01*
X180245Y363373D01*
Y363402D01*
Y363428D01*
Y363442D01*
Y363446D01*
Y363515D01*
X180248Y363581D01*
Y363639D01*
X180252Y363697D01*
X180259Y363748D01*
X180263Y363799D01*
X180266Y363843D01*
X180274Y363883D01*
X180277Y363919D01*
X180285Y363952D01*
X180288Y363977D01*
X180292Y363999D01*
X180295Y364017D01*
X180299Y364028D01*
X180303Y364036D01*
Y364039D01*
X180325Y364119D01*
X180350Y364192D01*
X180379Y364254D01*
X180401Y364309D01*
X180427Y364356D01*
X180441Y364389D01*
X180456Y364407D01*
X180459Y364414D01*
X180499Y364469D01*
X180539Y364516D01*
X180583Y364556D01*
X180623Y364593D01*
X180659Y364618D01*
X180689Y364636D01*
X180707Y364647D01*
X180710Y364651D01*
X180714D01*
X180772Y364680D01*
X180834Y364698D01*
X180892Y364713D01*
X180947Y364724D01*
X180994Y364731D01*
X181034Y364735D01*
X181067D01*
X181165Y364727D01*
D02*
G37*
G36*
X178568Y374016D02*
X178258D01*
Y374740D01*
X178043Y374948D01*
X177436Y374016D01*
X177053D01*
X177825Y375162D01*
X177122Y375843D01*
X177527D01*
X178258Y375097D01*
Y376535D01*
X178568D01*
Y374016D01*
D02*
G37*
G36*
X182677Y374904D02*
Y374620D01*
X181581D01*
Y374016D01*
X181272D01*
Y374620D01*
X180930D01*
Y374904D01*
X181272D01*
Y376535D01*
X181523D01*
X182677Y374904D01*
D02*
G37*
G36*
X180591Y376203D02*
X179358D01*
X179445Y376098D01*
X179529Y375985D01*
X179601Y375876D01*
X179671Y375770D01*
X179700Y375723D01*
X179725Y375679D01*
X179751Y375639D01*
X179769Y375606D01*
X179783Y375577D01*
X179794Y375559D01*
X179802Y375545D01*
X179805Y375541D01*
X179878Y375395D01*
X179944Y375250D01*
X179998Y375111D01*
X180020Y375049D01*
X180042Y374988D01*
X180064Y374933D01*
X180078Y374882D01*
X180093Y374838D01*
X180104Y374802D01*
X180115Y374769D01*
X180122Y374747D01*
X180125Y374733D01*
Y374729D01*
X180162Y374580D01*
X180176Y374507D01*
X180187Y374442D01*
X180198Y374380D01*
X180209Y374318D01*
X180217Y374267D01*
X180224Y374216D01*
X180227Y374172D01*
X180231Y374132D01*
X180235Y374096D01*
Y374067D01*
X180238Y374045D01*
Y374030D01*
Y374019D01*
Y374016D01*
X179922D01*
X179911Y374154D01*
X179893Y374282D01*
X179874Y374398D01*
X179863Y374453D01*
X179852Y374503D01*
X179845Y374547D01*
X179834Y374587D01*
X179827Y374624D01*
X179820Y374653D01*
X179813Y374675D01*
X179809Y374693D01*
X179805Y374704D01*
Y374707D01*
X179751Y374875D01*
X179692Y375031D01*
X179663Y375108D01*
X179634Y375181D01*
X179601Y375246D01*
X179572Y375312D01*
X179547Y375370D01*
X179521Y375421D01*
X179499Y375465D01*
X179481Y375504D01*
X179463Y375537D01*
X179452Y375559D01*
X179445Y375574D01*
X179441Y375577D01*
X179397Y375654D01*
X179354Y375730D01*
X179310Y375799D01*
X179267Y375865D01*
X179226Y375923D01*
X179186Y375981D01*
X179146Y376032D01*
X179114Y376076D01*
X179081Y376120D01*
X179052Y376156D01*
X179023Y376185D01*
X179001Y376211D01*
X178986Y376233D01*
X178972Y376247D01*
X178964Y376254D01*
X178961Y376258D01*
Y376502D01*
X180591D01*
Y376203D01*
D02*
G37*
G36*
X178568Y381102D02*
X178258D01*
Y381827D01*
X178043Y382034D01*
X177436Y381102D01*
X177053D01*
X177825Y382249D01*
X177122Y382930D01*
X177527D01*
X178258Y382183D01*
Y383621D01*
X178568D01*
Y381102D01*
D02*
G37*
G36*
X182677Y381991D02*
Y381707D01*
X181581D01*
Y381102D01*
X181272D01*
Y381707D01*
X180930D01*
Y381991D01*
X181272D01*
Y383621D01*
X181523D01*
X182677Y381991D01*
D02*
G37*
G36*
X180591Y383290D02*
X179358D01*
X179445Y383184D01*
X179529Y383072D01*
X179601Y382962D01*
X179671Y382857D01*
X179700Y382809D01*
X179725Y382766D01*
X179751Y382726D01*
X179769Y382693D01*
X179783Y382664D01*
X179794Y382646D01*
X179802Y382631D01*
X179805Y382628D01*
X179878Y382482D01*
X179944Y382336D01*
X179998Y382198D01*
X180020Y382136D01*
X180042Y382074D01*
X180064Y382020D01*
X180078Y381969D01*
X180093Y381925D01*
X180104Y381889D01*
X180115Y381856D01*
X180122Y381834D01*
X180125Y381819D01*
Y381816D01*
X180162Y381667D01*
X180176Y381594D01*
X180187Y381528D01*
X180198Y381466D01*
X180209Y381404D01*
X180217Y381353D01*
X180224Y381303D01*
X180227Y381259D01*
X180231Y381219D01*
X180235Y381182D01*
Y381153D01*
X180238Y381132D01*
Y381117D01*
Y381106D01*
Y381102D01*
X179922D01*
X179911Y381241D01*
X179893Y381368D01*
X179874Y381485D01*
X179863Y381539D01*
X179852Y381590D01*
X179845Y381634D01*
X179834Y381674D01*
X179827Y381710D01*
X179820Y381739D01*
X179813Y381761D01*
X179809Y381779D01*
X179805Y381790D01*
Y381794D01*
X179751Y381961D01*
X179692Y382118D01*
X179663Y382194D01*
X179634Y382267D01*
X179601Y382333D01*
X179572Y382398D01*
X179547Y382456D01*
X179521Y382507D01*
X179499Y382551D01*
X179481Y382591D01*
X179463Y382624D01*
X179452Y382646D01*
X179445Y382660D01*
X179441Y382664D01*
X179397Y382740D01*
X179354Y382817D01*
X179310Y382886D01*
X179267Y382951D01*
X179226Y383010D01*
X179186Y383068D01*
X179146Y383119D01*
X179114Y383163D01*
X179081Y383206D01*
X179052Y383243D01*
X179023Y383272D01*
X179001Y383297D01*
X178986Y383319D01*
X178972Y383334D01*
X178964Y383341D01*
X178961Y383345D01*
Y383589D01*
X180591D01*
Y383290D01*
D02*
G37*
%LPC*%
G36*
X171258Y233542D02*
X171225D01*
X171207D01*
X171200D01*
X171087Y233538D01*
X170985Y233534D01*
X170890Y233527D01*
X170803Y233516D01*
X170727Y233505D01*
X170657Y233491D01*
X170596Y233476D01*
X170541Y233461D01*
X170493Y233447D01*
X170454Y233436D01*
X170421Y233421D01*
X170392Y233411D01*
X170373Y233400D01*
X170359Y233392D01*
X170352Y233385D01*
X170348D01*
X170315Y233360D01*
X170286Y233334D01*
X170264Y233305D01*
X170242Y233276D01*
X170210Y233218D01*
X170188Y233163D01*
X170177Y233116D01*
X170170Y233076D01*
X170166Y233061D01*
Y233039D01*
X170170Y232999D01*
X170173Y232959D01*
X170184Y232923D01*
X170199Y232890D01*
X170231Y232828D01*
X170268Y232773D01*
X170308Y232733D01*
X170341Y232701D01*
X170355Y232690D01*
X170366Y232682D01*
X170370Y232675D01*
X170373D01*
X170417Y232650D01*
X170468Y232628D01*
X170526Y232606D01*
X170588Y232592D01*
X170654Y232577D01*
X170723Y232566D01*
X170861Y232548D01*
X170930Y232541D01*
X170992Y232537D01*
X171051Y232533D01*
X171098D01*
X171142Y232530D01*
X171174D01*
X171192D01*
X171196D01*
X171200D01*
X171312D01*
X171414Y232537D01*
X171505Y232544D01*
X171593Y232552D01*
X171666Y232562D01*
X171735Y232577D01*
X171793Y232592D01*
X171848Y232603D01*
X171891Y232617D01*
X171928Y232632D01*
X171960Y232643D01*
X171986Y232657D01*
X172004Y232664D01*
X172015Y232672D01*
X172022Y232679D01*
X172026D01*
X172062Y232708D01*
X172091Y232737D01*
X172121Y232766D01*
X172143Y232795D01*
X172179Y232857D01*
X172204Y232912D01*
X172219Y232963D01*
X172226Y232999D01*
X172230Y233014D01*
Y233036D01*
X172226Y233076D01*
X172222Y233112D01*
X172197Y233181D01*
X172164Y233243D01*
X172128Y233298D01*
X172091Y233338D01*
X172059Y233370D01*
X172033Y233389D01*
X172030Y233396D01*
X172026D01*
X171982Y233421D01*
X171931Y233443D01*
X171873Y233465D01*
X171811Y233480D01*
X171746Y233494D01*
X171677Y233505D01*
X171535Y233523D01*
X171469Y233531D01*
X171407Y233534D01*
X171349Y233538D01*
X171302D01*
X171258Y233542D01*
D02*
G37*
G36*
X112203Y228030D02*
X112170D01*
X112152D01*
X112145D01*
X112032Y228026D01*
X111930Y228023D01*
X111835Y228015D01*
X111748Y228004D01*
X111671Y227993D01*
X111602Y227979D01*
X111540Y227964D01*
X111486Y227950D01*
X111438Y227935D01*
X111398Y227924D01*
X111366Y227910D01*
X111337Y227899D01*
X111318Y227888D01*
X111304Y227881D01*
X111296Y227873D01*
X111293D01*
X111260Y227848D01*
X111231Y227822D01*
X111209Y227793D01*
X111187Y227764D01*
X111154Y227706D01*
X111133Y227651D01*
X111122Y227604D01*
X111115Y227564D01*
X111111Y227549D01*
Y227527D01*
X111115Y227487D01*
X111118Y227447D01*
X111129Y227411D01*
X111144Y227378D01*
X111176Y227316D01*
X111213Y227262D01*
X111253Y227222D01*
X111285Y227189D01*
X111300Y227178D01*
X111311Y227171D01*
X111315Y227164D01*
X111318D01*
X111362Y227138D01*
X111413Y227116D01*
X111471Y227094D01*
X111533Y227080D01*
X111599Y227065D01*
X111668Y227054D01*
X111806Y227036D01*
X111875Y227029D01*
X111937Y227025D01*
X111995Y227022D01*
X112043D01*
X112086Y227018D01*
X112119D01*
X112137D01*
X112141D01*
X112145D01*
X112257D01*
X112359Y227025D01*
X112450Y227032D01*
X112538Y227040D01*
X112610Y227051D01*
X112680Y227065D01*
X112738Y227080D01*
X112793Y227091D01*
X112836Y227105D01*
X112873Y227120D01*
X112905Y227131D01*
X112931Y227145D01*
X112949Y227152D01*
X112960Y227160D01*
X112967Y227167D01*
X112971D01*
X113007Y227196D01*
X113036Y227225D01*
X113066Y227255D01*
X113087Y227284D01*
X113124Y227345D01*
X113149Y227400D01*
X113164Y227451D01*
X113171Y227487D01*
X113175Y227502D01*
Y227524D01*
X113171Y227564D01*
X113167Y227600D01*
X113142Y227669D01*
X113109Y227731D01*
X113073Y227786D01*
X113036Y227826D01*
X113004Y227859D01*
X112978Y227877D01*
X112975Y227884D01*
X112971D01*
X112927Y227910D01*
X112876Y227931D01*
X112818Y227953D01*
X112756Y227968D01*
X112691Y227982D01*
X112621Y227993D01*
X112479Y228012D01*
X112414Y228019D01*
X112352Y228023D01*
X112294Y228026D01*
X112247D01*
X112203Y228030D01*
D02*
G37*
G36*
X112990Y142990D02*
X112958D01*
X112939D01*
X112932D01*
X112819Y142987D01*
X112717Y142983D01*
X112623Y142976D01*
X112535Y142965D01*
X112459Y142954D01*
X112390Y142939D01*
X112328Y142925D01*
X112273Y142910D01*
X112226Y142896D01*
X112186Y142885D01*
X112153Y142870D01*
X112124Y142859D01*
X112106Y142849D01*
X112091Y142841D01*
X112084Y142834D01*
X112080D01*
X112048Y142808D01*
X112018Y142783D01*
X111996Y142754D01*
X111975Y142725D01*
X111942Y142666D01*
X111920Y142612D01*
X111909Y142564D01*
X111902Y142525D01*
X111898Y142510D01*
Y142488D01*
X111902Y142448D01*
X111906Y142408D01*
X111916Y142372D01*
X111931Y142339D01*
X111964Y142277D01*
X112000Y142222D01*
X112040Y142182D01*
X112073Y142150D01*
X112088Y142139D01*
X112098Y142131D01*
X112102Y142124D01*
X112106D01*
X112149Y142099D01*
X112200Y142077D01*
X112259Y142055D01*
X112320Y142040D01*
X112386Y142026D01*
X112455Y142015D01*
X112593Y141997D01*
X112663Y141989D01*
X112724Y141986D01*
X112783Y141982D01*
X112830D01*
X112874Y141979D01*
X112907D01*
X112925D01*
X112928D01*
X112932D01*
X113045D01*
X113147Y141986D01*
X113238Y141993D01*
X113325Y142000D01*
X113398Y142011D01*
X113467Y142026D01*
X113525Y142040D01*
X113580Y142051D01*
X113624Y142066D01*
X113660Y142080D01*
X113693Y142091D01*
X113718Y142106D01*
X113736Y142113D01*
X113747Y142121D01*
X113755Y142128D01*
X113758D01*
X113795Y142157D01*
X113824Y142186D01*
X113853Y142215D01*
X113875Y142244D01*
X113911Y142306D01*
X113937Y142361D01*
X113951Y142412D01*
X113959Y142448D01*
X113962Y142463D01*
Y142484D01*
X113959Y142525D01*
X113955Y142561D01*
X113929Y142630D01*
X113897Y142692D01*
X113860Y142746D01*
X113824Y142787D01*
X113791Y142819D01*
X113766Y142838D01*
X113762Y142845D01*
X113758D01*
X113715Y142870D01*
X113664Y142892D01*
X113605Y142914D01*
X113543Y142929D01*
X113478Y142943D01*
X113409Y142954D01*
X113267Y142972D01*
X113201Y142980D01*
X113139Y142983D01*
X113081Y142987D01*
X113034D01*
X112990Y142990D01*
D02*
G37*
G36*
X188967Y156606D02*
X188945D01*
X188905Y156602D01*
X188865Y156598D01*
X188828Y156588D01*
X188795Y156573D01*
X188734Y156540D01*
X188679Y156504D01*
X188639Y156464D01*
X188606Y156431D01*
X188595Y156416D01*
X188588Y156405D01*
X188581Y156402D01*
Y156398D01*
X188555Y156354D01*
X188533Y156304D01*
X188512Y156245D01*
X188497Y156184D01*
X188482Y156118D01*
X188472Y156049D01*
X188453Y155911D01*
X188446Y155841D01*
X188443Y155779D01*
X188439Y155721D01*
Y155674D01*
X188435Y155630D01*
Y155597D01*
Y155579D01*
Y155576D01*
Y155572D01*
Y155459D01*
X188443Y155357D01*
X188450Y155266D01*
X188457Y155179D01*
X188468Y155106D01*
X188482Y155037D01*
X188497Y154979D01*
X188508Y154924D01*
X188523Y154880D01*
X188537Y154844D01*
X188548Y154811D01*
X188563Y154786D01*
X188570Y154768D01*
X188577Y154757D01*
X188584Y154749D01*
Y154746D01*
X188613Y154709D01*
X188643Y154680D01*
X188672Y154651D01*
X188701Y154629D01*
X188763Y154593D01*
X188817Y154567D01*
X188868Y154553D01*
X188905Y154545D01*
X188919Y154542D01*
X188941D01*
X188981Y154545D01*
X189018Y154549D01*
X189087Y154575D01*
X189149Y154607D01*
X189203Y154644D01*
X189243Y154680D01*
X189276Y154713D01*
X189294Y154738D01*
X189302Y154742D01*
Y154746D01*
X189327Y154789D01*
X189349Y154840D01*
X189371Y154899D01*
X189385Y154960D01*
X189400Y155026D01*
X189411Y155095D01*
X189429Y155237D01*
X189436Y155303D01*
X189440Y155365D01*
X189444Y155423D01*
Y155470D01*
X189447Y155514D01*
Y155546D01*
Y155565D01*
Y155572D01*
X189444Y155685D01*
X189440Y155787D01*
X189433Y155881D01*
X189422Y155969D01*
X189411Y156045D01*
X189396Y156114D01*
X189382Y156176D01*
X189367Y156231D01*
X189353Y156278D01*
X189341Y156318D01*
X189327Y156351D01*
X189316Y156380D01*
X189305Y156398D01*
X189298Y156413D01*
X189291Y156420D01*
Y156424D01*
X189265Y156456D01*
X189240Y156486D01*
X189210Y156507D01*
X189181Y156529D01*
X189123Y156562D01*
X189068Y156584D01*
X189021Y156595D01*
X188981Y156602D01*
X188967Y156606D01*
D02*
G37*
G36*
X163984Y118686D02*
X163962D01*
X163922Y118683D01*
X163885Y118679D01*
X163816Y118654D01*
X163754Y118621D01*
X163700Y118585D01*
X163660Y118548D01*
X163627Y118515D01*
X163609Y118490D01*
X163601Y118486D01*
Y118483D01*
X163576Y118439D01*
X163554Y118388D01*
X163532Y118330D01*
X163518Y118268D01*
X163503Y118202D01*
X163492Y118133D01*
X163474Y117991D01*
X163467Y117926D01*
X163463Y117864D01*
X163459Y117806D01*
Y117758D01*
X163456Y117715D01*
Y117682D01*
Y117664D01*
Y117656D01*
X163459Y117544D01*
X163463Y117442D01*
X163470Y117347D01*
X163481Y117260D01*
X163492Y117183D01*
X163507Y117114D01*
X163521Y117052D01*
X163536Y116998D01*
X163550Y116950D01*
X163561Y116910D01*
X163576Y116877D01*
X163587Y116848D01*
X163598Y116830D01*
X163605Y116816D01*
X163612Y116808D01*
Y116805D01*
X163638Y116772D01*
X163663Y116743D01*
X163692Y116721D01*
X163721Y116699D01*
X163780Y116666D01*
X163834Y116645D01*
X163882Y116634D01*
X163922Y116626D01*
X163936Y116623D01*
X163958D01*
X163998Y116626D01*
X164038Y116630D01*
X164075Y116641D01*
X164107Y116655D01*
X164169Y116688D01*
X164224Y116725D01*
X164264Y116765D01*
X164297Y116797D01*
X164307Y116812D01*
X164315Y116823D01*
X164322Y116826D01*
Y116830D01*
X164348Y116874D01*
X164369Y116925D01*
X164391Y116983D01*
X164406Y117045D01*
X164420Y117110D01*
X164431Y117180D01*
X164449Y117318D01*
X164457Y117387D01*
X164460Y117449D01*
X164464Y117507D01*
Y117554D01*
X164468Y117598D01*
Y117631D01*
Y117649D01*
Y117653D01*
Y117656D01*
Y117769D01*
X164460Y117871D01*
X164453Y117962D01*
X164446Y118050D01*
X164435Y118122D01*
X164420Y118192D01*
X164406Y118250D01*
X164395Y118304D01*
X164380Y118348D01*
X164366Y118384D01*
X164355Y118417D01*
X164340Y118443D01*
X164333Y118461D01*
X164326Y118472D01*
X164318Y118479D01*
Y118483D01*
X164289Y118519D01*
X164260Y118548D01*
X164231Y118577D01*
X164202Y118599D01*
X164140Y118636D01*
X164085Y118661D01*
X164034Y118676D01*
X163998Y118683D01*
X163984Y118686D01*
D02*
G37*
G36*
X102206Y178653D02*
X102184D01*
X102144Y178649D01*
X102104Y178646D01*
X102067Y178635D01*
X102034Y178620D01*
X101973Y178587D01*
X101918Y178551D01*
X101878Y178511D01*
X101845Y178478D01*
X101834Y178464D01*
X101827Y178453D01*
X101820Y178449D01*
Y178445D01*
X101794Y178402D01*
X101772Y178351D01*
X101751Y178293D01*
X101736Y178231D01*
X101721Y178165D01*
X101710Y178096D01*
X101692Y177958D01*
X101685Y177889D01*
X101681Y177827D01*
X101678Y177768D01*
Y177721D01*
X101674Y177677D01*
Y177645D01*
Y177627D01*
Y177623D01*
Y177619D01*
Y177506D01*
X101681Y177404D01*
X101689Y177313D01*
X101696Y177226D01*
X101707Y177153D01*
X101721Y177084D01*
X101736Y177026D01*
X101747Y176971D01*
X101761Y176928D01*
X101776Y176891D01*
X101787Y176858D01*
X101802Y176833D01*
X101809Y176815D01*
X101816Y176804D01*
X101823Y176797D01*
Y176793D01*
X101852Y176757D01*
X101882Y176727D01*
X101911Y176698D01*
X101940Y176676D01*
X102002Y176640D01*
X102056Y176615D01*
X102107Y176600D01*
X102144Y176593D01*
X102158Y176589D01*
X102180D01*
X102220Y176593D01*
X102257Y176596D01*
X102326Y176622D01*
X102387Y176655D01*
X102442Y176691D01*
X102482Y176727D01*
X102515Y176760D01*
X102533Y176786D01*
X102540Y176789D01*
Y176793D01*
X102566Y176837D01*
X102588Y176888D01*
X102610Y176946D01*
X102624Y177008D01*
X102639Y177073D01*
X102650Y177142D01*
X102668Y177284D01*
X102675Y177350D01*
X102679Y177412D01*
X102682Y177470D01*
Y177517D01*
X102686Y177561D01*
Y177594D01*
Y177612D01*
Y177619D01*
X102682Y177732D01*
X102679Y177834D01*
X102672Y177929D01*
X102661Y178016D01*
X102650Y178092D01*
X102635Y178162D01*
X102620Y178223D01*
X102606Y178278D01*
X102591Y178325D01*
X102580Y178365D01*
X102566Y178398D01*
X102555Y178427D01*
X102544Y178445D01*
X102537Y178460D01*
X102530Y178467D01*
Y178471D01*
X102504Y178504D01*
X102479Y178533D01*
X102449Y178555D01*
X102420Y178577D01*
X102362Y178609D01*
X102307Y178631D01*
X102260Y178642D01*
X102220Y178649D01*
X102206Y178653D01*
D02*
G37*
G36*
X169683Y208345D02*
X169650D01*
X169632D01*
X169625D01*
X169512Y208341D01*
X169410Y208337D01*
X169316Y208330D01*
X169228Y208319D01*
X169152Y208308D01*
X169082Y208294D01*
X169021Y208279D01*
X168966Y208265D01*
X168919Y208250D01*
X168879Y208239D01*
X168846Y208225D01*
X168817Y208214D01*
X168799Y208203D01*
X168784Y208195D01*
X168777Y208188D01*
X168773D01*
X168740Y208163D01*
X168711Y208137D01*
X168689Y208108D01*
X168668Y208079D01*
X168635Y208021D01*
X168613Y207966D01*
X168602Y207919D01*
X168595Y207879D01*
X168591Y207864D01*
Y207842D01*
X168595Y207802D01*
X168598Y207762D01*
X168609Y207726D01*
X168624Y207693D01*
X168657Y207631D01*
X168693Y207577D01*
X168733Y207537D01*
X168766Y207504D01*
X168780Y207493D01*
X168791Y207486D01*
X168795Y207478D01*
X168799D01*
X168842Y207453D01*
X168893Y207431D01*
X168951Y207409D01*
X169013Y207395D01*
X169079Y207380D01*
X169148Y207369D01*
X169286Y207351D01*
X169355Y207344D01*
X169417Y207340D01*
X169476Y207336D01*
X169523D01*
X169567Y207333D01*
X169599D01*
X169618D01*
X169621D01*
X169625D01*
X169738D01*
X169840Y207340D01*
X169931Y207347D01*
X170018Y207355D01*
X170091Y207366D01*
X170160Y207380D01*
X170218Y207395D01*
X170273Y207406D01*
X170317Y207420D01*
X170353Y207435D01*
X170386Y207446D01*
X170411Y207460D01*
X170429Y207468D01*
X170440Y207475D01*
X170448Y207482D01*
X170451D01*
X170488Y207511D01*
X170517Y207540D01*
X170546Y207569D01*
X170568Y207598D01*
X170604Y207660D01*
X170630Y207715D01*
X170644Y207766D01*
X170651Y207802D01*
X170655Y207817D01*
Y207839D01*
X170651Y207879D01*
X170648Y207915D01*
X170622Y207984D01*
X170589Y208046D01*
X170553Y208101D01*
X170517Y208141D01*
X170484Y208174D01*
X170458Y208192D01*
X170455Y208199D01*
X170451D01*
X170407Y208225D01*
X170357Y208246D01*
X170298Y208268D01*
X170236Y208283D01*
X170171Y208297D01*
X170102Y208308D01*
X169960Y208327D01*
X169894Y208334D01*
X169832Y208337D01*
X169774Y208341D01*
X169727D01*
X169683Y208345D01*
D02*
G37*
G36*
X191329Y133771D02*
X191307D01*
X191267Y133767D01*
X191227Y133764D01*
X191191Y133753D01*
X191158Y133738D01*
X191096Y133705D01*
X191041Y133669D01*
X191001Y133629D01*
X190969Y133596D01*
X190957Y133582D01*
X190950Y133571D01*
X190943Y133567D01*
Y133564D01*
X190918Y133520D01*
X190896Y133469D01*
X190874Y133411D01*
X190859Y133349D01*
X190845Y133283D01*
X190834Y133214D01*
X190816Y133076D01*
X190808Y133007D01*
X190805Y132945D01*
X190801Y132887D01*
Y132839D01*
X190797Y132796D01*
Y132763D01*
Y132745D01*
Y132741D01*
Y132737D01*
Y132624D01*
X190805Y132522D01*
X190812Y132431D01*
X190819Y132344D01*
X190830Y132271D01*
X190845Y132202D01*
X190859Y132144D01*
X190870Y132089D01*
X190885Y132046D01*
X190899Y132009D01*
X190910Y131976D01*
X190925Y131951D01*
X190932Y131933D01*
X190939Y131922D01*
X190947Y131915D01*
Y131911D01*
X190976Y131875D01*
X191005Y131845D01*
X191034Y131816D01*
X191063Y131795D01*
X191125Y131758D01*
X191180Y131733D01*
X191230Y131718D01*
X191267Y131711D01*
X191281Y131707D01*
X191303D01*
X191343Y131711D01*
X191380Y131714D01*
X191449Y131740D01*
X191511Y131773D01*
X191565Y131809D01*
X191605Y131845D01*
X191638Y131878D01*
X191656Y131904D01*
X191664Y131907D01*
Y131911D01*
X191689Y131955D01*
X191711Y132006D01*
X191733Y132064D01*
X191747Y132126D01*
X191762Y132191D01*
X191773Y132261D01*
X191791Y132402D01*
X191798Y132468D01*
X191802Y132530D01*
X191806Y132588D01*
Y132635D01*
X191809Y132679D01*
Y132712D01*
Y132730D01*
Y132737D01*
X191806Y132850D01*
X191802Y132952D01*
X191795Y133047D01*
X191784Y133134D01*
X191773Y133211D01*
X191758Y133280D01*
X191744Y133342D01*
X191729Y133396D01*
X191715Y133443D01*
X191704Y133484D01*
X191689Y133516D01*
X191678Y133545D01*
X191667Y133564D01*
X191660Y133578D01*
X191653Y133585D01*
Y133589D01*
X191627Y133622D01*
X191602Y133651D01*
X191573Y133673D01*
X191544Y133695D01*
X191485Y133727D01*
X191431Y133749D01*
X191383Y133760D01*
X191343Y133767D01*
X191329Y133771D01*
D02*
G37*
G36*
X112589Y199913D02*
X112567D01*
X112527Y199909D01*
X112487Y199906D01*
X112450Y199895D01*
X112418Y199880D01*
X112356Y199847D01*
X112301Y199811D01*
X112261Y199771D01*
X112228Y199738D01*
X112217Y199723D01*
X112210Y199713D01*
X112203Y199709D01*
Y199705D01*
X112177Y199662D01*
X112155Y199611D01*
X112134Y199552D01*
X112119Y199491D01*
X112104Y199425D01*
X112094Y199356D01*
X112075Y199218D01*
X112068Y199148D01*
X112065Y199086D01*
X112061Y199028D01*
Y198981D01*
X112057Y198937D01*
Y198905D01*
Y198886D01*
Y198883D01*
Y198879D01*
Y198766D01*
X112065Y198664D01*
X112072Y198573D01*
X112079Y198486D01*
X112090Y198413D01*
X112104Y198344D01*
X112119Y198286D01*
X112130Y198231D01*
X112145Y198187D01*
X112159Y198151D01*
X112170Y198118D01*
X112185Y198093D01*
X112192Y198075D01*
X112199Y198064D01*
X112206Y198056D01*
Y198053D01*
X112236Y198016D01*
X112265Y197987D01*
X112294Y197958D01*
X112323Y197936D01*
X112385Y197900D01*
X112439Y197874D01*
X112490Y197860D01*
X112527Y197853D01*
X112541Y197849D01*
X112563D01*
X112603Y197853D01*
X112640Y197856D01*
X112709Y197882D01*
X112771Y197914D01*
X112825Y197951D01*
X112865Y197987D01*
X112898Y198020D01*
X112916Y198046D01*
X112924Y198049D01*
Y198053D01*
X112949Y198096D01*
X112971Y198147D01*
X112993Y198206D01*
X113007Y198267D01*
X113022Y198333D01*
X113033Y198402D01*
X113051Y198544D01*
X113058Y198610D01*
X113062Y198672D01*
X113066Y198730D01*
Y198777D01*
X113069Y198821D01*
Y198854D01*
Y198872D01*
Y198879D01*
X113066Y198992D01*
X113062Y199094D01*
X113055Y199188D01*
X113044Y199276D01*
X113033Y199352D01*
X113018Y199421D01*
X113004Y199483D01*
X112989Y199538D01*
X112975Y199585D01*
X112964Y199625D01*
X112949Y199658D01*
X112938Y199687D01*
X112927Y199705D01*
X112920Y199720D01*
X112913Y199727D01*
Y199731D01*
X112887Y199764D01*
X112862Y199793D01*
X112832Y199814D01*
X112803Y199836D01*
X112745Y199869D01*
X112691Y199891D01*
X112643Y199902D01*
X112603Y199909D01*
X112589Y199913D01*
D02*
G37*
G36*
X107478Y144565D02*
X107446D01*
X107428D01*
X107420D01*
X107307Y144562D01*
X107205Y144558D01*
X107111Y144551D01*
X107023Y144540D01*
X106947Y144529D01*
X106878Y144514D01*
X106816Y144500D01*
X106761Y144485D01*
X106714Y144471D01*
X106674Y144460D01*
X106641Y144445D01*
X106612Y144434D01*
X106594Y144423D01*
X106579Y144416D01*
X106572Y144409D01*
X106568D01*
X106536Y144383D01*
X106507Y144358D01*
X106485Y144329D01*
X106463Y144299D01*
X106430Y144241D01*
X106408Y144187D01*
X106397Y144139D01*
X106390Y144099D01*
X106386Y144085D01*
Y144063D01*
X106390Y144023D01*
X106394Y143983D01*
X106405Y143946D01*
X106419Y143914D01*
X106452Y143852D01*
X106488Y143797D01*
X106528Y143757D01*
X106561Y143724D01*
X106576Y143713D01*
X106587Y143706D01*
X106590Y143699D01*
X106594D01*
X106638Y143673D01*
X106688Y143652D01*
X106747Y143630D01*
X106809Y143615D01*
X106874Y143601D01*
X106943Y143590D01*
X107082Y143571D01*
X107151Y143564D01*
X107213Y143561D01*
X107271Y143557D01*
X107318D01*
X107362Y143553D01*
X107395D01*
X107413D01*
X107416D01*
X107420D01*
X107533D01*
X107635Y143561D01*
X107726Y143568D01*
X107813Y143575D01*
X107886Y143586D01*
X107955Y143601D01*
X108013Y143615D01*
X108068Y143626D01*
X108112Y143641D01*
X108148Y143655D01*
X108181Y143666D01*
X108206Y143681D01*
X108225Y143688D01*
X108236Y143695D01*
X108243Y143702D01*
X108247D01*
X108283Y143732D01*
X108312Y143761D01*
X108341Y143790D01*
X108363Y143819D01*
X108399Y143881D01*
X108425Y143936D01*
X108439Y143986D01*
X108447Y144023D01*
X108450Y144037D01*
Y144059D01*
X108447Y144099D01*
X108443Y144136D01*
X108417Y144205D01*
X108385Y144267D01*
X108348Y144321D01*
X108312Y144361D01*
X108279Y144394D01*
X108254Y144412D01*
X108250Y144420D01*
X108247D01*
X108203Y144445D01*
X108152Y144467D01*
X108094Y144489D01*
X108032Y144503D01*
X107966Y144518D01*
X107897Y144529D01*
X107755Y144547D01*
X107689Y144554D01*
X107628Y144558D01*
X107569Y144562D01*
X107522D01*
X107478Y144565D01*
D02*
G37*
G36*
X100631Y173928D02*
X100609D01*
X100569Y173925D01*
X100529Y173921D01*
X100492Y173910D01*
X100460Y173896D01*
X100398Y173863D01*
X100343Y173827D01*
X100303Y173787D01*
X100270Y173754D01*
X100259Y173739D01*
X100252Y173728D01*
X100245Y173725D01*
Y173721D01*
X100219Y173677D01*
X100198Y173626D01*
X100176Y173568D01*
X100161Y173506D01*
X100147Y173441D01*
X100136Y173372D01*
X100118Y173233D01*
X100110Y173164D01*
X100107Y173102D01*
X100103Y173044D01*
Y172997D01*
X100099Y172953D01*
Y172920D01*
Y172902D01*
Y172898D01*
Y172895D01*
Y172782D01*
X100107Y172680D01*
X100114Y172589D01*
X100121Y172502D01*
X100132Y172429D01*
X100147Y172360D01*
X100161Y172301D01*
X100172Y172247D01*
X100187Y172203D01*
X100201Y172167D01*
X100212Y172134D01*
X100227Y172108D01*
X100234Y172090D01*
X100241Y172079D01*
X100249Y172072D01*
Y172069D01*
X100278Y172032D01*
X100307Y172003D01*
X100336Y171974D01*
X100365Y171952D01*
X100427Y171916D01*
X100481Y171890D01*
X100532Y171876D01*
X100569Y171868D01*
X100583Y171865D01*
X100605D01*
X100645Y171868D01*
X100682Y171872D01*
X100751Y171897D01*
X100813Y171930D01*
X100867Y171967D01*
X100907Y172003D01*
X100940Y172036D01*
X100958Y172061D01*
X100966Y172065D01*
Y172069D01*
X100991Y172112D01*
X101013Y172163D01*
X101035Y172221D01*
X101049Y172283D01*
X101064Y172349D01*
X101075Y172418D01*
X101093Y172560D01*
X101100Y172625D01*
X101104Y172687D01*
X101108Y172746D01*
Y172793D01*
X101111Y172836D01*
Y172869D01*
Y172888D01*
Y172895D01*
X101108Y173008D01*
X101104Y173109D01*
X101097Y173204D01*
X101086Y173292D01*
X101075Y173368D01*
X101060Y173437D01*
X101046Y173499D01*
X101031Y173554D01*
X101017Y173601D01*
X101006Y173641D01*
X100991Y173674D01*
X100980Y173703D01*
X100969Y173721D01*
X100962Y173736D01*
X100955Y173743D01*
Y173747D01*
X100929Y173779D01*
X100904Y173808D01*
X100875Y173830D01*
X100846Y173852D01*
X100787Y173885D01*
X100733Y173907D01*
X100685Y173918D01*
X100645Y173925D01*
X100631Y173928D01*
D02*
G37*
G36*
X110080Y245582D02*
X110058D01*
X110018Y245579D01*
X109978Y245575D01*
X109941Y245564D01*
X109908Y245549D01*
X109847Y245517D01*
X109792Y245480D01*
X109752Y245440D01*
X109719Y245407D01*
X109708Y245393D01*
X109701Y245382D01*
X109694Y245378D01*
Y245375D01*
X109668Y245331D01*
X109646Y245280D01*
X109625Y245222D01*
X109610Y245160D01*
X109595Y245094D01*
X109584Y245025D01*
X109566Y244887D01*
X109559Y244818D01*
X109555Y244756D01*
X109552Y244698D01*
Y244650D01*
X109548Y244607D01*
Y244574D01*
Y244556D01*
Y244552D01*
Y244548D01*
Y244436D01*
X109555Y244334D01*
X109563Y244243D01*
X109570Y244155D01*
X109581Y244082D01*
X109595Y244013D01*
X109610Y243955D01*
X109621Y243900D01*
X109635Y243857D01*
X109650Y243820D01*
X109661Y243788D01*
X109676Y243762D01*
X109683Y243744D01*
X109690Y243733D01*
X109697Y243726D01*
Y243722D01*
X109727Y243686D01*
X109756Y243656D01*
X109785Y243627D01*
X109814Y243606D01*
X109876Y243569D01*
X109930Y243544D01*
X109981Y243529D01*
X110018Y243522D01*
X110032Y243518D01*
X110054D01*
X110094Y243522D01*
X110131Y243526D01*
X110200Y243551D01*
X110262Y243584D01*
X110316Y243620D01*
X110356Y243656D01*
X110389Y243689D01*
X110407Y243715D01*
X110414Y243718D01*
Y243722D01*
X110440Y243766D01*
X110462Y243817D01*
X110484Y243875D01*
X110498Y243937D01*
X110513Y244002D01*
X110524Y244072D01*
X110542Y244214D01*
X110549Y244279D01*
X110553Y244341D01*
X110556Y244399D01*
Y244446D01*
X110560Y244490D01*
Y244523D01*
Y244541D01*
Y244548D01*
X110556Y244661D01*
X110553Y244763D01*
X110546Y244858D01*
X110535Y244945D01*
X110524Y245022D01*
X110509Y245091D01*
X110494Y245153D01*
X110480Y245207D01*
X110465Y245254D01*
X110454Y245294D01*
X110440Y245327D01*
X110429Y245356D01*
X110418Y245375D01*
X110411Y245389D01*
X110404Y245396D01*
Y245400D01*
X110378Y245433D01*
X110353Y245462D01*
X110323Y245484D01*
X110294Y245506D01*
X110236Y245538D01*
X110181Y245560D01*
X110134Y245571D01*
X110094Y245579D01*
X110080Y245582D01*
D02*
G37*
G36*
X42277Y236790D02*
X42244D01*
X42226D01*
X42219D01*
X42106Y236786D01*
X42004Y236782D01*
X41910Y236775D01*
X41822Y236764D01*
X41746Y236753D01*
X41677Y236739D01*
X41615Y236724D01*
X41560Y236709D01*
X41513Y236695D01*
X41473Y236684D01*
X41440Y236669D01*
X41411Y236659D01*
X41393Y236648D01*
X41378Y236640D01*
X41371Y236633D01*
X41367D01*
X41335Y236608D01*
X41305Y236582D01*
X41284Y236553D01*
X41262Y236524D01*
X41229Y236466D01*
X41207Y236411D01*
X41196Y236364D01*
X41189Y236324D01*
X41185Y236309D01*
Y236287D01*
X41189Y236247D01*
X41192Y236207D01*
X41203Y236171D01*
X41218Y236138D01*
X41251Y236076D01*
X41287Y236022D01*
X41327Y235981D01*
X41360Y235949D01*
X41374Y235938D01*
X41385Y235931D01*
X41389Y235923D01*
X41393D01*
X41436Y235898D01*
X41487Y235876D01*
X41546Y235854D01*
X41607Y235840D01*
X41673Y235825D01*
X41742Y235814D01*
X41881Y235796D01*
X41950Y235789D01*
X42011Y235785D01*
X42070Y235781D01*
X42117D01*
X42161Y235778D01*
X42193D01*
X42212D01*
X42215D01*
X42219D01*
X42332D01*
X42434Y235785D01*
X42525Y235792D01*
X42612Y235800D01*
X42685Y235810D01*
X42754Y235825D01*
X42812Y235840D01*
X42867Y235851D01*
X42911Y235865D01*
X42947Y235880D01*
X42980Y235891D01*
X43005Y235905D01*
X43023Y235912D01*
X43034Y235920D01*
X43042Y235927D01*
X43045D01*
X43082Y235956D01*
X43111Y235985D01*
X43140Y236014D01*
X43162Y236043D01*
X43198Y236105D01*
X43224Y236160D01*
X43238Y236211D01*
X43246Y236247D01*
X43249Y236262D01*
Y236284D01*
X43246Y236324D01*
X43242Y236360D01*
X43216Y236429D01*
X43184Y236491D01*
X43147Y236546D01*
X43111Y236586D01*
X43078Y236618D01*
X43053Y236637D01*
X43049Y236644D01*
X43045D01*
X43002Y236669D01*
X42951Y236691D01*
X42892Y236713D01*
X42831Y236728D01*
X42765Y236742D01*
X42696Y236753D01*
X42554Y236771D01*
X42488Y236779D01*
X42426Y236782D01*
X42368Y236786D01*
X42321D01*
X42277Y236790D01*
D02*
G37*
G36*
X41490Y142301D02*
X41457D01*
X41439D01*
X41432D01*
X41319Y142298D01*
X41217Y142294D01*
X41122Y142287D01*
X41035Y142276D01*
X40958Y142265D01*
X40889Y142251D01*
X40827Y142236D01*
X40773Y142221D01*
X40725Y142207D01*
X40685Y142196D01*
X40653Y142181D01*
X40624Y142170D01*
X40605Y142159D01*
X40591Y142152D01*
X40584Y142145D01*
X40580D01*
X40547Y142119D01*
X40518Y142094D01*
X40496Y142065D01*
X40474Y142036D01*
X40442Y141978D01*
X40420Y141923D01*
X40409Y141876D01*
X40402Y141835D01*
X40398Y141821D01*
Y141799D01*
X40402Y141759D01*
X40405Y141719D01*
X40416Y141683D01*
X40431Y141650D01*
X40463Y141588D01*
X40500Y141533D01*
X40540Y141493D01*
X40573Y141461D01*
X40587Y141450D01*
X40598Y141442D01*
X40602Y141435D01*
X40605D01*
X40649Y141410D01*
X40700Y141388D01*
X40758Y141366D01*
X40820Y141351D01*
X40886Y141337D01*
X40955Y141326D01*
X41093Y141308D01*
X41162Y141300D01*
X41224Y141297D01*
X41282Y141293D01*
X41330D01*
X41373Y141289D01*
X41406D01*
X41424D01*
X41428D01*
X41432D01*
X41544D01*
X41646Y141297D01*
X41737Y141304D01*
X41825Y141311D01*
X41897Y141322D01*
X41967Y141337D01*
X42025Y141351D01*
X42079Y141362D01*
X42123Y141377D01*
X42160Y141391D01*
X42192Y141402D01*
X42218Y141417D01*
X42236Y141424D01*
X42247Y141431D01*
X42254Y141439D01*
X42258D01*
X42294Y141468D01*
X42323Y141497D01*
X42353Y141526D01*
X42374Y141555D01*
X42411Y141617D01*
X42436Y141672D01*
X42451Y141723D01*
X42458Y141759D01*
X42462Y141774D01*
Y141796D01*
X42458Y141835D01*
X42454Y141872D01*
X42429Y141941D01*
X42396Y142003D01*
X42360Y142058D01*
X42323Y142098D01*
X42291Y142130D01*
X42265Y142149D01*
X42261Y142156D01*
X42258D01*
X42214Y142181D01*
X42163Y142203D01*
X42105Y142225D01*
X42043Y142240D01*
X41978Y142254D01*
X41908Y142265D01*
X41767Y142283D01*
X41701Y142290D01*
X41639Y142294D01*
X41581Y142298D01*
X41533D01*
X41490Y142301D01*
D02*
G37*
G36*
Y190333D02*
X41457D01*
X41439D01*
X41432D01*
X41319Y190329D01*
X41217Y190326D01*
X41122Y190318D01*
X41035Y190307D01*
X40958Y190296D01*
X40889Y190282D01*
X40827Y190267D01*
X40773Y190253D01*
X40725Y190238D01*
X40685Y190227D01*
X40653Y190213D01*
X40624Y190202D01*
X40605Y190191D01*
X40591Y190184D01*
X40584Y190176D01*
X40580D01*
X40547Y190151D01*
X40518Y190126D01*
X40496Y190096D01*
X40474Y190067D01*
X40442Y190009D01*
X40420Y189954D01*
X40409Y189907D01*
X40402Y189867D01*
X40398Y189852D01*
Y189831D01*
X40402Y189791D01*
X40405Y189751D01*
X40416Y189714D01*
X40431Y189681D01*
X40463Y189620D01*
X40500Y189565D01*
X40540Y189525D01*
X40573Y189492D01*
X40587Y189481D01*
X40598Y189474D01*
X40602Y189467D01*
X40605D01*
X40649Y189441D01*
X40700Y189419D01*
X40758Y189398D01*
X40820Y189383D01*
X40886Y189368D01*
X40955Y189357D01*
X41093Y189339D01*
X41162Y189332D01*
X41224Y189328D01*
X41282Y189325D01*
X41330D01*
X41373Y189321D01*
X41406D01*
X41424D01*
X41428D01*
X41432D01*
X41544D01*
X41646Y189328D01*
X41737Y189336D01*
X41825Y189343D01*
X41897Y189354D01*
X41967Y189368D01*
X42025Y189383D01*
X42079Y189394D01*
X42123Y189408D01*
X42160Y189423D01*
X42192Y189434D01*
X42218Y189448D01*
X42236Y189456D01*
X42247Y189463D01*
X42254Y189470D01*
X42258D01*
X42294Y189499D01*
X42323Y189529D01*
X42353Y189558D01*
X42374Y189587D01*
X42411Y189649D01*
X42436Y189703D01*
X42451Y189754D01*
X42458Y189791D01*
X42462Y189805D01*
Y189827D01*
X42458Y189867D01*
X42454Y189903D01*
X42429Y189973D01*
X42396Y190034D01*
X42360Y190089D01*
X42323Y190129D01*
X42291Y190162D01*
X42265Y190180D01*
X42261Y190187D01*
X42258D01*
X42214Y190213D01*
X42163Y190235D01*
X42105Y190257D01*
X42043Y190271D01*
X41978Y190286D01*
X41908Y190296D01*
X41767Y190315D01*
X41701Y190322D01*
X41639Y190326D01*
X41581Y190329D01*
X41533D01*
X41490Y190333D01*
D02*
G37*
G36*
Y47813D02*
X41457D01*
X41439D01*
X41432D01*
X41319Y47810D01*
X41217Y47806D01*
X41122Y47799D01*
X41035Y47788D01*
X40958Y47777D01*
X40889Y47762D01*
X40827Y47748D01*
X40773Y47733D01*
X40725Y47719D01*
X40685Y47708D01*
X40653Y47693D01*
X40624Y47682D01*
X40605Y47671D01*
X40591Y47664D01*
X40584Y47657D01*
X40580D01*
X40547Y47631D01*
X40518Y47606D01*
X40496Y47577D01*
X40474Y47548D01*
X40442Y47489D01*
X40420Y47435D01*
X40409Y47387D01*
X40402Y47347D01*
X40398Y47333D01*
Y47311D01*
X40402Y47271D01*
X40405Y47231D01*
X40416Y47194D01*
X40431Y47162D01*
X40463Y47100D01*
X40500Y47045D01*
X40540Y47005D01*
X40573Y46972D01*
X40587Y46962D01*
X40598Y46954D01*
X40602Y46947D01*
X40605D01*
X40649Y46921D01*
X40700Y46900D01*
X40758Y46878D01*
X40820Y46863D01*
X40886Y46849D01*
X40955Y46838D01*
X41093Y46819D01*
X41162Y46812D01*
X41224Y46809D01*
X41282Y46805D01*
X41330D01*
X41373Y46801D01*
X41406D01*
X41424D01*
X41428D01*
X41432D01*
X41544D01*
X41646Y46809D01*
X41737Y46816D01*
X41825Y46823D01*
X41897Y46834D01*
X41967Y46849D01*
X42025Y46863D01*
X42079Y46874D01*
X42123Y46889D01*
X42160Y46903D01*
X42192Y46914D01*
X42218Y46929D01*
X42236Y46936D01*
X42247Y46943D01*
X42254Y46951D01*
X42258D01*
X42294Y46980D01*
X42323Y47009D01*
X42353Y47038D01*
X42374Y47067D01*
X42411Y47129D01*
X42436Y47183D01*
X42451Y47234D01*
X42458Y47271D01*
X42462Y47285D01*
Y47307D01*
X42458Y47347D01*
X42454Y47384D01*
X42429Y47453D01*
X42396Y47515D01*
X42360Y47569D01*
X42323Y47609D01*
X42291Y47642D01*
X42265Y47660D01*
X42261Y47668D01*
X42258D01*
X42214Y47693D01*
X42163Y47715D01*
X42105Y47737D01*
X42043Y47751D01*
X41978Y47766D01*
X41908Y47777D01*
X41767Y47795D01*
X41701Y47802D01*
X41639Y47806D01*
X41581Y47810D01*
X41533D01*
X41490Y47813D01*
D02*
G37*
G36*
Y95057D02*
X41457D01*
X41439D01*
X41432D01*
X41319Y95054D01*
X41217Y95050D01*
X41122Y95043D01*
X41035Y95032D01*
X40958Y95021D01*
X40889Y95006D01*
X40827Y94992D01*
X40773Y94977D01*
X40725Y94963D01*
X40685Y94952D01*
X40653Y94937D01*
X40624Y94926D01*
X40605Y94915D01*
X40591Y94908D01*
X40584Y94901D01*
X40580D01*
X40547Y94875D01*
X40518Y94850D01*
X40496Y94821D01*
X40474Y94792D01*
X40442Y94733D01*
X40420Y94679D01*
X40409Y94631D01*
X40402Y94591D01*
X40398Y94577D01*
Y94555D01*
X40402Y94515D01*
X40405Y94475D01*
X40416Y94438D01*
X40431Y94406D01*
X40463Y94344D01*
X40500Y94289D01*
X40540Y94249D01*
X40573Y94217D01*
X40587Y94206D01*
X40598Y94198D01*
X40602Y94191D01*
X40605D01*
X40649Y94165D01*
X40700Y94144D01*
X40758Y94122D01*
X40820Y94107D01*
X40886Y94093D01*
X40955Y94082D01*
X41093Y94064D01*
X41162Y94056D01*
X41224Y94053D01*
X41282Y94049D01*
X41330D01*
X41373Y94045D01*
X41406D01*
X41424D01*
X41428D01*
X41432D01*
X41544D01*
X41646Y94053D01*
X41737Y94060D01*
X41825Y94067D01*
X41897Y94078D01*
X41967Y94093D01*
X42025Y94107D01*
X42079Y94118D01*
X42123Y94133D01*
X42160Y94147D01*
X42192Y94158D01*
X42218Y94173D01*
X42236Y94180D01*
X42247Y94187D01*
X42254Y94195D01*
X42258D01*
X42294Y94224D01*
X42323Y94253D01*
X42353Y94282D01*
X42374Y94311D01*
X42411Y94373D01*
X42436Y94428D01*
X42451Y94479D01*
X42458Y94515D01*
X42462Y94529D01*
Y94551D01*
X42458Y94591D01*
X42454Y94628D01*
X42429Y94697D01*
X42396Y94759D01*
X42360Y94814D01*
X42323Y94854D01*
X42291Y94886D01*
X42265Y94905D01*
X42261Y94912D01*
X42258D01*
X42214Y94937D01*
X42163Y94959D01*
X42105Y94981D01*
X42043Y94995D01*
X41978Y95010D01*
X41908Y95021D01*
X41767Y95039D01*
X41701Y95046D01*
X41639Y95050D01*
X41581Y95054D01*
X41533D01*
X41490Y95057D01*
D02*
G37*
G36*
X38237Y358576D02*
X37109D01*
Y357782D01*
X38237Y358576D01*
D02*
G37*
G36*
Y380623D02*
X37109D01*
Y379830D01*
X38237Y380623D01*
D02*
G37*
G36*
X181093Y364480D02*
X181071D01*
X181031Y364476D01*
X180991Y364472D01*
X180954Y364461D01*
X180921Y364447D01*
X180860Y364414D01*
X180805Y364378D01*
X180765Y364338D01*
X180732Y364305D01*
X180721Y364290D01*
X180714Y364280D01*
X180707Y364276D01*
Y364272D01*
X180681Y364229D01*
X180659Y364178D01*
X180638Y364119D01*
X180623Y364057D01*
X180608Y363992D01*
X180598Y363923D01*
X180579Y363785D01*
X180572Y363715D01*
X180568Y363653D01*
X180565Y363595D01*
Y363548D01*
X180561Y363504D01*
Y363471D01*
Y363453D01*
Y363450D01*
Y363446D01*
Y363333D01*
X180568Y363231D01*
X180576Y363140D01*
X180583Y363053D01*
X180594Y362980D01*
X180608Y362911D01*
X180623Y362853D01*
X180634Y362798D01*
X180649Y362754D01*
X180663Y362718D01*
X180674Y362685D01*
X180689Y362660D01*
X180696Y362642D01*
X180703Y362631D01*
X180710Y362623D01*
Y362620D01*
X180739Y362583D01*
X180769Y362554D01*
X180798Y362525D01*
X180827Y362503D01*
X180889Y362467D01*
X180943Y362441D01*
X180994Y362427D01*
X181031Y362420D01*
X181045Y362416D01*
X181067D01*
X181107Y362420D01*
X181144Y362423D01*
X181213Y362449D01*
X181275Y362481D01*
X181329Y362518D01*
X181369Y362554D01*
X181402Y362587D01*
X181420Y362612D01*
X181428Y362616D01*
Y362620D01*
X181453Y362663D01*
X181475Y362714D01*
X181497Y362773D01*
X181511Y362834D01*
X181526Y362900D01*
X181537Y362969D01*
X181555Y363111D01*
X181562Y363177D01*
X181566Y363239D01*
X181569Y363297D01*
Y363344D01*
X181573Y363388D01*
Y363421D01*
Y363439D01*
Y363446D01*
X181569Y363559D01*
X181566Y363661D01*
X181559Y363755D01*
X181548Y363843D01*
X181537Y363919D01*
X181522Y363988D01*
X181508Y364050D01*
X181493Y364105D01*
X181478Y364152D01*
X181467Y364192D01*
X181453Y364225D01*
X181442Y364254D01*
X181431Y364272D01*
X181424Y364287D01*
X181417Y364294D01*
Y364298D01*
X181391Y364331D01*
X181366Y364360D01*
X181336Y364381D01*
X181307Y364403D01*
X181249Y364436D01*
X181194Y364458D01*
X181147Y364469D01*
X181107Y364476D01*
X181093Y364480D01*
D02*
G37*
G36*
X181581Y376032D02*
Y374904D01*
X182375D01*
X181581Y376032D01*
D02*
G37*
G36*
Y383119D02*
Y381991D01*
X182375D01*
X181581Y383119D01*
D02*
G37*
%LPD*%
D13*
X6988Y309252D02*
X133366D01*
Y6496D02*
Y309252D01*
X6988Y6496D02*
X133366D01*
X6988D02*
Y309252D01*
D16*
X170965Y359095D02*
X175197Y354862D01*
Y344843D02*
Y359095D01*
X153937Y344843D02*
X175197D01*
X153937D02*
Y359095D01*
X175197D01*
M02*
