G04*
G04 #@! TF.GenerationSoftware,Altium Limited,Altium Designer,19.1.8 (144)*
G04*
G04 Layer_Physical_Order=3*
G04 Layer_Color=16440176*
%FSLAX25Y25*%
%MOIN*%
G70*
G01*
G75*
%ADD78C,0.01575*%
G36*
X195276Y329921D02*
Y63430D01*
X194776Y63101D01*
X194390Y63178D01*
X193775Y63055D01*
X193254Y62707D01*
X192906Y62186D01*
X192784Y61572D01*
X192906Y60957D01*
X193254Y60436D01*
X193775Y60088D01*
X194390Y59966D01*
X194776Y60043D01*
X195276Y59714D01*
Y8661D01*
X188976Y2362D01*
X150742D01*
X150367Y2862D01*
X150425Y3150D01*
X150302Y3764D01*
X149954Y4285D01*
X149433Y4633D01*
X148819Y4755D01*
X148204Y4633D01*
X147684Y4285D01*
X147336Y3764D01*
X147213Y3150D01*
X147270Y2862D01*
X146896Y2362D01*
X9449D01*
X1575Y10236D01*
Y330709D01*
X8661Y337795D01*
X186614D01*
X195276Y329921D01*
D02*
G37*
%LPC*%
G36*
X168504Y336251D02*
X167889Y336129D01*
X167369Y335781D01*
X167020Y335260D01*
X166898Y334646D01*
X167020Y334031D01*
X167369Y333510D01*
X167889Y333162D01*
X168504Y333040D01*
X169118Y333162D01*
X169639Y333510D01*
X169987Y334031D01*
X170110Y334646D01*
X169987Y335260D01*
X169639Y335781D01*
X169118Y336129D01*
X168504Y336251D01*
D02*
G37*
G36*
X161417D02*
X160803Y336129D01*
X160282Y335781D01*
X159934Y335260D01*
X159812Y334646D01*
X159934Y334031D01*
X160282Y333510D01*
X160803Y333162D01*
X161417Y333040D01*
X162032Y333162D01*
X162537Y333500D01*
X162609Y333483D01*
X163004Y333286D01*
X162961Y333071D01*
X163084Y332456D01*
X163432Y331936D01*
X163953Y331587D01*
X164567Y331465D01*
X165181Y331587D01*
X165702Y331936D01*
X166050Y332456D01*
X166173Y333071D01*
X166050Y333685D01*
X165702Y334206D01*
X165181Y334554D01*
X164567Y334677D01*
X163953Y334554D01*
X163447Y334217D01*
X163376Y334234D01*
X162980Y334431D01*
X163023Y334646D01*
X162901Y335260D01*
X162553Y335781D01*
X162032Y336129D01*
X161417Y336251D01*
D02*
G37*
G36*
X157480Y334677D02*
X156866Y334554D01*
X156345Y334206D01*
X155997Y333685D01*
X155875Y333071D01*
X155997Y332456D01*
X156345Y331936D01*
X156866Y331587D01*
X157480Y331465D01*
X158095Y331587D01*
X158616Y331936D01*
X158964Y332456D01*
X159086Y333071D01*
X158964Y333685D01*
X158616Y334206D01*
X158095Y334554D01*
X157480Y334677D01*
D02*
G37*
G36*
X120972Y330069D02*
Y328847D01*
X122195D01*
X122156Y329044D01*
X121761Y329635D01*
X121170Y330030D01*
X120972Y330069D01*
D02*
G37*
G36*
X119972D02*
X119775Y330030D01*
X119184Y329635D01*
X118789Y329044D01*
X118749Y328847D01*
X119972D01*
Y330069D01*
D02*
G37*
G36*
X122195Y327847D02*
X120972D01*
Y326624D01*
X121170Y326663D01*
X121761Y327058D01*
X122156Y327649D01*
X122195Y327847D01*
D02*
G37*
G36*
X119972D02*
X118749D01*
X118789Y327649D01*
X119184Y327058D01*
X119775Y326663D01*
X119972Y326624D01*
Y327847D01*
D02*
G37*
G36*
X192126Y316566D02*
X191511Y316444D01*
X190991Y316096D01*
X190643Y315575D01*
X190520Y314961D01*
X190643Y314346D01*
X190991Y313825D01*
X191511Y313477D01*
X192126Y313355D01*
X192740Y313477D01*
X193261Y313825D01*
X193609Y314346D01*
X193732Y314961D01*
X193609Y315575D01*
X193261Y316096D01*
X192740Y316444D01*
X192126Y316566D01*
D02*
G37*
G36*
X90551Y314991D02*
X89937Y314869D01*
X89416Y314521D01*
X89068Y314000D01*
X88946Y313386D01*
X89068Y312771D01*
X89416Y312250D01*
X89937Y311902D01*
X90551Y311780D01*
X91166Y311902D01*
X91686Y312250D01*
X92035Y312771D01*
X92157Y313386D01*
X92035Y314000D01*
X91686Y314521D01*
X91166Y314869D01*
X90551Y314991D01*
D02*
G37*
G36*
X63779Y308692D02*
X63165Y308570D01*
X62644Y308222D01*
X62296Y307701D01*
X62174Y307087D01*
X62296Y306472D01*
X62644Y305951D01*
X63165Y305603D01*
X63779Y305481D01*
X64394Y305603D01*
X64915Y305951D01*
X65263Y306472D01*
X65385Y307087D01*
X65263Y307701D01*
X64915Y308222D01*
X64394Y308570D01*
X63779Y308692D01*
D02*
G37*
G36*
X70866Y306330D02*
X70252Y306208D01*
X69731Y305860D01*
X69383Y305339D01*
X69261Y304724D01*
X69383Y304110D01*
X69731Y303589D01*
X70252Y303241D01*
X70866Y303119D01*
X71481Y303241D01*
X72001Y303589D01*
X72350Y304110D01*
X72472Y304724D01*
X72350Y305339D01*
X72001Y305860D01*
X71481Y306208D01*
X70866Y306330D01*
D02*
G37*
G36*
X56693D02*
X56078Y306208D01*
X55558Y305860D01*
X55209Y305339D01*
X55087Y304724D01*
X55209Y304110D01*
X55558Y303589D01*
X56078Y303241D01*
X56693Y303119D01*
X57307Y303241D01*
X57828Y303589D01*
X58176Y304110D01*
X58299Y304724D01*
X58176Y305339D01*
X57828Y305860D01*
X57307Y306208D01*
X56693Y306330D01*
D02*
G37*
G36*
X135433Y300818D02*
X134819Y300696D01*
X134298Y300348D01*
X133950Y299827D01*
X133827Y299213D01*
X133950Y298598D01*
X134298Y298077D01*
X134819Y297729D01*
X135433Y297607D01*
X136047Y297729D01*
X136568Y298077D01*
X136916Y298598D01*
X137039Y299213D01*
X136916Y299827D01*
X136568Y300348D01*
X136047Y300696D01*
X135433Y300818D01*
D02*
G37*
G36*
X148819Y300031D02*
X148204Y299909D01*
X147684Y299561D01*
X147336Y299040D01*
X147213Y298425D01*
X147336Y297811D01*
X147684Y297290D01*
X148204Y296942D01*
X148819Y296819D01*
X149433Y296942D01*
X149954Y297290D01*
X150302Y297811D01*
X150425Y298425D01*
X150302Y299040D01*
X149954Y299561D01*
X149433Y299909D01*
X148819Y300031D01*
D02*
G37*
G36*
X62992Y298575D02*
X62378Y298452D01*
X61857Y298104D01*
X61509Y297584D01*
X61386Y296969D01*
X61509Y296355D01*
X61857Y295834D01*
X62378Y295486D01*
X62992Y295363D01*
X63607Y295486D01*
X64127Y295834D01*
X64476Y296355D01*
X64598Y296969D01*
X64476Y297584D01*
X64127Y298104D01*
X63607Y298452D01*
X62992Y298575D01*
D02*
G37*
G36*
X129921Y296881D02*
X129307Y296759D01*
X128786Y296411D01*
X128438Y295890D01*
X128316Y295276D01*
X128438Y294661D01*
X128786Y294140D01*
X129307Y293792D01*
X129921Y293670D01*
X130536Y293792D01*
X131057Y294140D01*
X131405Y294661D01*
X131527Y295276D01*
X131405Y295890D01*
X131057Y296411D01*
X130536Y296759D01*
X129921Y296881D01*
D02*
G37*
G36*
X151969Y294519D02*
X151354Y294397D01*
X150833Y294049D01*
X150485Y293528D01*
X150363Y292913D01*
X150485Y292299D01*
X150833Y291778D01*
X151354Y291430D01*
X151969Y291308D01*
X152583Y291430D01*
X153104Y291778D01*
X153452Y292299D01*
X153574Y292913D01*
X153452Y293528D01*
X153104Y294049D01*
X152583Y294397D01*
X151969Y294519D01*
D02*
G37*
G36*
X135433D02*
X134819Y294397D01*
X134298Y294049D01*
X133950Y293528D01*
X133827Y292913D01*
X133950Y292299D01*
X134298Y291778D01*
X134819Y291430D01*
X135433Y291308D01*
X136047Y291430D01*
X136568Y291778D01*
X136916Y292299D01*
X137039Y292913D01*
X136916Y293528D01*
X136568Y294049D01*
X136047Y294397D01*
X135433Y294519D01*
D02*
G37*
G36*
X70866D02*
X70252Y294397D01*
X69731Y294049D01*
X69383Y293528D01*
X69261Y292913D01*
X69383Y292299D01*
X69731Y291778D01*
X70252Y291430D01*
X70866Y291308D01*
X71481Y291430D01*
X72001Y291778D01*
X72350Y292299D01*
X72472Y292913D01*
X72350Y293528D01*
X72001Y294049D01*
X71481Y294397D01*
X70866Y294519D01*
D02*
G37*
G36*
X55905Y293732D02*
X55291Y293609D01*
X54770Y293261D01*
X54422Y292740D01*
X54300Y292126D01*
X54422Y291512D01*
X54770Y290991D01*
X55291Y290642D01*
X55905Y290520D01*
X56520Y290642D01*
X57041Y290991D01*
X57389Y291512D01*
X57511Y292126D01*
X57389Y292740D01*
X57041Y293261D01*
X56520Y293609D01*
X55905Y293732D01*
D02*
G37*
G36*
X146457Y292944D02*
X145842Y292822D01*
X145321Y292474D01*
X144973Y291953D01*
X144851Y291339D01*
X144973Y290724D01*
X145321Y290203D01*
X145842Y289855D01*
X146457Y289733D01*
X147071Y289855D01*
X147592Y290203D01*
X147940Y290724D01*
X148062Y291339D01*
X147940Y291953D01*
X147592Y292474D01*
X147071Y292822D01*
X146457Y292944D01*
D02*
G37*
G36*
X129921Y290582D02*
X129307Y290460D01*
X128786Y290112D01*
X128438Y289591D01*
X128316Y288976D01*
X128438Y288362D01*
X128786Y287841D01*
X129307Y287493D01*
X129921Y287371D01*
X130536Y287493D01*
X131057Y287841D01*
X131405Y288362D01*
X131527Y288976D01*
X131405Y289591D01*
X131057Y290112D01*
X130536Y290460D01*
X129921Y290582D01*
D02*
G37*
G36*
X65354Y289007D02*
X64740Y288885D01*
X64219Y288537D01*
X63871Y288016D01*
X63749Y287402D01*
X63871Y286787D01*
X64219Y286266D01*
X64740Y285918D01*
X65354Y285796D01*
X65969Y285918D01*
X66490Y286266D01*
X66838Y286787D01*
X66960Y287402D01*
X66838Y288016D01*
X66490Y288537D01*
X65969Y288885D01*
X65354Y289007D01*
D02*
G37*
G36*
X151181Y288220D02*
X150567Y288098D01*
X150046Y287750D01*
X149698Y287229D01*
X149575Y286614D01*
X149698Y286000D01*
X150046Y285479D01*
X150567Y285131D01*
X151181Y285009D01*
X151796Y285131D01*
X152316Y285479D01*
X152664Y286000D01*
X152787Y286614D01*
X152664Y287229D01*
X152316Y287750D01*
X151796Y288098D01*
X151181Y288220D01*
D02*
G37*
G36*
X105709Y293562D02*
X104420Y293393D01*
X103219Y292895D01*
X102188Y292104D01*
X101396Y291073D01*
X100899Y289872D01*
X100729Y288583D01*
X100899Y287294D01*
X101396Y286093D01*
X102188Y285062D01*
X103219Y284270D01*
X104420Y283773D01*
X105709Y283603D01*
X106998Y283773D01*
X108198Y284270D01*
X109230Y285062D01*
X110021Y286093D01*
X110519Y287294D01*
X110688Y288583D01*
X110519Y289872D01*
X110021Y291073D01*
X109230Y292104D01*
X108198Y292895D01*
X106998Y293393D01*
X105709Y293562D01*
D02*
G37*
G36*
X135827Y290538D02*
X134913Y290418D01*
X134062Y290065D01*
X133331Y289504D01*
X132770Y288773D01*
X132417Y287922D01*
X132297Y287008D01*
X132417Y286094D01*
X132770Y285243D01*
X133331Y284512D01*
X134062Y283951D01*
X134913Y283598D01*
X135827Y283478D01*
X136741Y283598D01*
X137592Y283951D01*
X138323Y284512D01*
X138884Y285243D01*
X139237Y286094D01*
X139357Y287008D01*
X139237Y287922D01*
X138884Y288773D01*
X138323Y289504D01*
X137592Y290065D01*
X136741Y290418D01*
X135827Y290538D01*
D02*
G37*
G36*
X34646Y287657D02*
X33357Y287487D01*
X32156Y286990D01*
X31124Y286198D01*
X30333Y285167D01*
X29836Y283966D01*
X29666Y282677D01*
X29836Y281388D01*
X30333Y280187D01*
X31124Y279156D01*
X32156Y278365D01*
X33357Y277867D01*
X34646Y277698D01*
X35934Y277867D01*
X37135Y278365D01*
X38167Y279156D01*
X38958Y280187D01*
X39456Y281388D01*
X39625Y282677D01*
X39456Y283966D01*
X38958Y285167D01*
X38167Y286198D01*
X37135Y286990D01*
X35934Y287487D01*
X34646Y287657D01*
D02*
G37*
G36*
X129165Y277984D02*
X128550Y277861D01*
X128029Y277513D01*
X127681Y276992D01*
X127559Y276378D01*
X127681Y275764D01*
X128023Y275251D01*
X128014Y275210D01*
X127818Y274782D01*
X127559Y274834D01*
X126945Y274712D01*
X126424Y274364D01*
X126076Y273843D01*
X125953Y273228D01*
X126076Y272614D01*
X126424Y272093D01*
X126945Y271745D01*
X127559Y271623D01*
X128173Y271745D01*
X128694Y272093D01*
X129042Y272614D01*
X129165Y273228D01*
X129042Y273843D01*
X128700Y274355D01*
X128710Y274397D01*
X128906Y274824D01*
X129165Y274772D01*
X129779Y274894D01*
X130300Y275243D01*
X130648Y275764D01*
X130770Y276378D01*
X130648Y276992D01*
X130300Y277513D01*
X129779Y277861D01*
X129165Y277984D01*
D02*
G37*
G36*
X154300D02*
X153685Y277861D01*
X153165Y277513D01*
X152816Y276992D01*
X152694Y276378D01*
X152816Y275764D01*
X153165Y275243D01*
X153685Y274894D01*
X154300Y274772D01*
X154559Y274824D01*
X154755Y274397D01*
X154764Y274355D01*
X154422Y273843D01*
X154300Y273228D01*
X154422Y272614D01*
X154770Y272093D01*
X155291Y271745D01*
X155905Y271623D01*
X156520Y271745D01*
X157041Y272093D01*
X157389Y272614D01*
X157511Y273228D01*
X157389Y273843D01*
X157041Y274364D01*
X156520Y274712D01*
X155905Y274834D01*
X155647Y274782D01*
X155450Y275210D01*
X155441Y275251D01*
X155783Y275764D01*
X155905Y276378D01*
X155783Y276992D01*
X155435Y277513D01*
X154914Y277861D01*
X154300Y277984D01*
D02*
G37*
G36*
X91339Y274834D02*
X90724Y274712D01*
X90203Y274364D01*
X89855Y273843D01*
X89733Y273228D01*
X89855Y272614D01*
X90203Y272093D01*
X90724Y271745D01*
X91339Y271623D01*
X91953Y271745D01*
X92474Y272093D01*
X92822Y272614D01*
X92944Y273228D01*
X92822Y273843D01*
X92474Y274364D01*
X91953Y274712D01*
X91339Y274834D01*
D02*
G37*
G36*
X155618Y270227D02*
Y269004D01*
X156841D01*
X156802Y269201D01*
X156407Y269793D01*
X155815Y270188D01*
X155618Y270227D01*
D02*
G37*
G36*
X154618D02*
X154421Y270188D01*
X153830Y269793D01*
X153434Y269201D01*
X153395Y269004D01*
X154618D01*
Y270227D01*
D02*
G37*
G36*
X128059D02*
Y269004D01*
X129282D01*
X129243Y269201D01*
X128848Y269793D01*
X128256Y270188D01*
X128059Y270227D01*
D02*
G37*
G36*
X127059D02*
X126862Y270188D01*
X126270Y269793D01*
X125875Y269201D01*
X125836Y269004D01*
X127059D01*
Y270227D01*
D02*
G37*
G36*
X156841Y268004D02*
X155618D01*
Y266781D01*
X155815Y266820D01*
X156407Y267215D01*
X156802Y267807D01*
X156841Y268004D01*
D02*
G37*
G36*
X154618D02*
X153395D01*
X153434Y267807D01*
X153830Y267215D01*
X154421Y266820D01*
X154618Y266781D01*
Y268004D01*
D02*
G37*
G36*
X129282D02*
X128059D01*
Y266781D01*
X128256Y266820D01*
X128848Y267215D01*
X129243Y267807D01*
X129282Y268004D01*
D02*
G37*
G36*
X127059D02*
X125836D01*
X125875Y267807D01*
X126270Y267215D01*
X126862Y266820D01*
X127059Y266781D01*
Y268004D01*
D02*
G37*
G36*
X6299Y267747D02*
X5685Y267625D01*
X5164Y267277D01*
X4816Y266756D01*
X4694Y266142D01*
X4816Y265527D01*
X5164Y265006D01*
X5685Y264658D01*
X6299Y264536D01*
X6914Y264658D01*
X7435Y265006D01*
X7783Y265527D01*
X7905Y266142D01*
X7783Y266756D01*
X7435Y267277D01*
X6914Y267625D01*
X6299Y267747D01*
D02*
G37*
G36*
X28346Y266173D02*
X27732Y266050D01*
X27211Y265702D01*
X26863Y265181D01*
X26741Y264567D01*
X26863Y263952D01*
X27211Y263432D01*
X27732Y263084D01*
X28346Y262961D01*
X28961Y263084D01*
X29482Y263432D01*
X29830Y263952D01*
X29952Y264567D01*
X29830Y265181D01*
X29482Y265702D01*
X28961Y266050D01*
X28346Y266173D01*
D02*
G37*
G36*
X113189Y258295D02*
X112651Y258188D01*
X112196Y257883D01*
X111891Y257427D01*
X111784Y256890D01*
X111891Y256352D01*
X112196Y255896D01*
X112651Y255592D01*
X113189Y255485D01*
X113727Y255592D01*
X114182Y255896D01*
X114487Y256352D01*
X114594Y256890D01*
X114487Y257427D01*
X114182Y257883D01*
X113727Y258188D01*
X113189Y258295D01*
D02*
G37*
G36*
X160630Y257511D02*
X160015Y257389D01*
X159494Y257041D01*
X159146Y256520D01*
X159024Y255906D01*
X159146Y255291D01*
X159494Y254770D01*
X160015Y254422D01*
X160630Y254300D01*
X161244Y254422D01*
X161765Y254770D01*
X162113Y255291D01*
X162236Y255906D01*
X162113Y256520D01*
X161765Y257041D01*
X161244Y257389D01*
X160630Y257511D01*
D02*
G37*
G36*
X140157D02*
X139543Y257389D01*
X139022Y257041D01*
X138674Y256520D01*
X138552Y255906D01*
X138674Y255291D01*
X139022Y254770D01*
X139543Y254422D01*
X140157Y254300D01*
X140772Y254422D01*
X141293Y254770D01*
X141641Y255291D01*
X141763Y255906D01*
X141641Y256520D01*
X141293Y257041D01*
X140772Y257389D01*
X140157Y257511D01*
D02*
G37*
G36*
X14909Y253574D02*
X14295Y253452D01*
X13774Y253104D01*
X13661Y252935D01*
X13060D01*
X12946Y253104D01*
X12426Y253452D01*
X11811Y253574D01*
X11197Y253452D01*
X10676Y253104D01*
X10328Y252583D01*
X10205Y251969D01*
X10328Y251354D01*
X10676Y250833D01*
X11197Y250485D01*
X11811Y250363D01*
X12426Y250485D01*
X12946Y250833D01*
X13060Y251003D01*
X13661D01*
X13774Y250833D01*
X14295Y250485D01*
X14909Y250363D01*
X15524Y250485D01*
X16045Y250833D01*
X16393Y251354D01*
X16515Y251969D01*
X16393Y252583D01*
X16045Y253104D01*
X15524Y253452D01*
X14909Y253574D01*
D02*
G37*
G36*
X30709D02*
X30094Y253452D01*
X29573Y253104D01*
X29225Y252583D01*
X29103Y251969D01*
X29225Y251354D01*
X29573Y250833D01*
X30094Y250485D01*
X30709Y250363D01*
X31323Y250485D01*
X31844Y250833D01*
X32192Y251354D01*
X32314Y251969D01*
X32192Y252583D01*
X31844Y253104D01*
X31323Y253452D01*
X30709Y253574D01*
D02*
G37*
G36*
X21260D02*
X20645Y253452D01*
X20124Y253104D01*
X19776Y252583D01*
X19654Y251969D01*
X19776Y251354D01*
X20124Y250833D01*
X20645Y250485D01*
X21260Y250363D01*
X21874Y250485D01*
X22395Y250833D01*
X22743Y251354D01*
X22865Y251969D01*
X22743Y252583D01*
X22395Y253104D01*
X21874Y253452D01*
X21260Y253574D01*
D02*
G37*
G36*
X167717Y251212D02*
X167102Y251090D01*
X166581Y250742D01*
X166233Y250221D01*
X166111Y249606D01*
X166233Y248992D01*
X166581Y248471D01*
X167102Y248123D01*
X167717Y248001D01*
X168331Y248123D01*
X168852Y248471D01*
X169200Y248992D01*
X169322Y249606D01*
X169200Y250221D01*
X168852Y250742D01*
X168331Y251090D01*
X167717Y251212D01*
D02*
G37*
G36*
X140945D02*
X140330Y251090D01*
X139810Y250742D01*
X139461Y250221D01*
X139339Y249606D01*
X139461Y248992D01*
X139810Y248471D01*
X140330Y248123D01*
X140945Y248001D01*
X141559Y248123D01*
X142080Y248471D01*
X142428Y248992D01*
X142551Y249606D01*
X142428Y250221D01*
X142080Y250742D01*
X141559Y251090D01*
X140945Y251212D01*
D02*
G37*
G36*
X25984Y245700D02*
X25370Y245578D01*
X24849Y245230D01*
X24501Y244709D01*
X24379Y244094D01*
X24501Y243480D01*
X24849Y242959D01*
X25370Y242611D01*
X25984Y242489D01*
X26599Y242611D01*
X27120Y242959D01*
X27468Y243480D01*
X27590Y244094D01*
X27468Y244709D01*
X27120Y245230D01*
X26599Y245578D01*
X25984Y245700D01*
D02*
G37*
G36*
X162205Y244913D02*
X161590Y244791D01*
X161069Y244443D01*
X160721Y243921D01*
X160599Y243307D01*
X160721Y242693D01*
X161069Y242172D01*
X161590Y241824D01*
X162205Y241701D01*
X162819Y241824D01*
X163340Y242172D01*
X163688Y242693D01*
X163810Y243307D01*
X163688Y243921D01*
X163340Y244443D01*
X162819Y244791D01*
X162205Y244913D01*
D02*
G37*
G36*
X142520D02*
X141905Y244791D01*
X141384Y244443D01*
X141036Y243921D01*
X140914Y243307D01*
X141036Y242693D01*
X141384Y242172D01*
X141905Y241824D01*
X142520Y241701D01*
X143134Y241824D01*
X143655Y242172D01*
X144003Y242693D01*
X144125Y243307D01*
X144003Y243921D01*
X143655Y244443D01*
X143134Y244791D01*
X142520Y244913D01*
D02*
G37*
G36*
X32335Y244913D02*
X31720Y244791D01*
X31199Y244443D01*
X30851Y243922D01*
X30729Y243307D01*
X30851Y242693D01*
X31199Y242172D01*
X31720Y241824D01*
X32335Y241702D01*
X32949Y241824D01*
X33470Y242172D01*
X33583Y242341D01*
X34185D01*
X34298Y242172D01*
X34819Y241824D01*
X35433Y241701D01*
X36048Y241824D01*
X36568Y242172D01*
X36917Y242693D01*
X37039Y243307D01*
X36917Y243921D01*
X36568Y244443D01*
X36048Y244791D01*
X35433Y244913D01*
X34819Y244791D01*
X34298Y244443D01*
X34185Y244273D01*
X33583D01*
X33470Y244443D01*
X32949Y244791D01*
X32335Y244913D01*
D02*
G37*
G36*
X125984Y244125D02*
X125370Y244003D01*
X124849Y243655D01*
X124501Y243134D01*
X124379Y242520D01*
X124501Y241905D01*
X124849Y241384D01*
X125370Y241036D01*
X125984Y240914D01*
X126599Y241036D01*
X127120Y241384D01*
X127468Y241905D01*
X127590Y242520D01*
X127468Y243134D01*
X127120Y243655D01*
X126599Y244003D01*
X125984Y244125D01*
D02*
G37*
G36*
X183268Y242354D02*
X182653Y242231D01*
X182132Y241883D01*
X181784Y241363D01*
X181662Y240748D01*
X181784Y240134D01*
X182132Y239613D01*
X182653Y239265D01*
X183268Y239142D01*
X183882Y239265D01*
X184403Y239613D01*
X184751Y240134D01*
X184873Y240748D01*
X184751Y241363D01*
X184403Y241883D01*
X183882Y242231D01*
X183268Y242354D01*
D02*
G37*
G36*
X166929Y241763D02*
X166315Y241641D01*
X165794Y241293D01*
X165446Y240772D01*
X165323Y240158D01*
X165446Y239543D01*
X165794Y239022D01*
X166315Y238674D01*
X166929Y238552D01*
X167544Y238674D01*
X168064Y239022D01*
X168413Y239543D01*
X168535Y240158D01*
X168413Y240772D01*
X168064Y241293D01*
X167544Y241641D01*
X166929Y241763D01*
D02*
G37*
G36*
X92913Y250768D02*
X91688Y250648D01*
X90510Y250290D01*
X89424Y249710D01*
X88473Y248929D01*
X87691Y247977D01*
X87111Y246891D01*
X86754Y245713D01*
X86633Y244488D01*
X86754Y243263D01*
X87111Y242085D01*
X87691Y240999D01*
X88473Y240047D01*
X89424Y239266D01*
X90510Y238686D01*
X91688Y238329D01*
X92913Y238208D01*
X94139Y238329D01*
X95317Y238686D01*
X96403Y239266D01*
X97354Y240047D01*
X98135Y240999D01*
X98716Y242085D01*
X99073Y243263D01*
X99194Y244488D01*
X99073Y245713D01*
X98716Y246891D01*
X98135Y247977D01*
X97354Y248929D01*
X96403Y249710D01*
X95317Y250290D01*
X94139Y250648D01*
X92913Y250768D01*
D02*
G37*
G36*
X61417D02*
X60192Y250648D01*
X59014Y250290D01*
X57928Y249710D01*
X56976Y248929D01*
X56195Y247977D01*
X55615Y246891D01*
X55258Y245713D01*
X55137Y244488D01*
X55258Y243263D01*
X55615Y242085D01*
X56195Y240999D01*
X56976Y240047D01*
X57928Y239266D01*
X59014Y238686D01*
X60192Y238329D01*
X61417Y238208D01*
X62643Y238329D01*
X63821Y238686D01*
X64906Y239266D01*
X65858Y240047D01*
X66639Y240999D01*
X67220Y242085D01*
X67577Y243263D01*
X67698Y244488D01*
X67577Y245713D01*
X67220Y246891D01*
X66639Y247977D01*
X65858Y248929D01*
X64906Y249710D01*
X63821Y250290D01*
X62643Y250648D01*
X61417Y250768D01*
D02*
G37*
G36*
X102362Y240976D02*
X101748Y240854D01*
X101227Y240506D01*
X100879Y239984D01*
X100757Y239370D01*
X100879Y238756D01*
X101227Y238235D01*
X101748Y237887D01*
X102362Y237764D01*
X102977Y237887D01*
X103498Y238235D01*
X103846Y238756D01*
X103968Y239370D01*
X103846Y239984D01*
X103498Y240506D01*
X102977Y240854D01*
X102362Y240976D01*
D02*
G37*
G36*
X174016Y237826D02*
X173401Y237704D01*
X172880Y237356D01*
X172532Y236835D01*
X172410Y236221D01*
X172532Y235606D01*
X172880Y235085D01*
X173401Y234737D01*
X174016Y234615D01*
X174630Y234737D01*
X175151Y235085D01*
X175499Y235606D01*
X175621Y236221D01*
X175499Y236835D01*
X175151Y237356D01*
X174630Y237704D01*
X174016Y237826D01*
D02*
G37*
G36*
X126772Y236251D02*
X126157Y236129D01*
X125636Y235781D01*
X125288Y235260D01*
X125166Y234646D01*
X125288Y234031D01*
X125636Y233510D01*
X126157Y233162D01*
X126772Y233040D01*
X127386Y233162D01*
X127907Y233510D01*
X128255Y234031D01*
X128377Y234646D01*
X128255Y235260D01*
X127907Y235781D01*
X127386Y236129D01*
X126772Y236251D01*
D02*
G37*
G36*
X9909Y231527D02*
X9295Y231405D01*
X8774Y231057D01*
X8699Y230944D01*
X8199D01*
X8124Y231057D01*
X7603Y231405D01*
X6988Y231527D01*
X6374Y231405D01*
X5853Y231057D01*
X5505Y230536D01*
X5382Y229921D01*
X5505Y229307D01*
X5853Y228786D01*
X6374Y228438D01*
X6988Y228316D01*
X7603Y228438D01*
X8124Y228786D01*
X8199Y228899D01*
X8699D01*
X8774Y228786D01*
X9295Y228438D01*
X9909Y228316D01*
X10524Y228438D01*
X11045Y228786D01*
X11393Y229307D01*
X11515Y229921D01*
X11393Y230536D01*
X11045Y231057D01*
X10524Y231405D01*
X9909Y231527D01*
D02*
G37*
G36*
X77165Y242894D02*
X75940Y242774D01*
X74762Y242416D01*
X73676Y241836D01*
X72724Y241055D01*
X71943Y240103D01*
X71363Y239018D01*
X71006Y237839D01*
X70885Y236614D01*
X71006Y235389D01*
X71363Y234211D01*
X71943Y233125D01*
X72724Y232173D01*
X73676Y231392D01*
X74762Y230812D01*
X75940Y230455D01*
X77165Y230334D01*
X78391Y230455D01*
X79569Y230812D01*
X80655Y231392D01*
X81606Y232173D01*
X82387Y233125D01*
X82968Y234211D01*
X83325Y235389D01*
X83446Y236614D01*
X83325Y237839D01*
X82968Y239018D01*
X82387Y240103D01*
X81606Y241055D01*
X80655Y241836D01*
X79569Y242416D01*
X78391Y242774D01*
X77165Y242894D01*
D02*
G37*
G36*
X109449Y233102D02*
X108834Y232979D01*
X108313Y232631D01*
X107965Y232111D01*
X107843Y231496D01*
X107965Y230882D01*
X108313Y230361D01*
X108834Y230013D01*
X109449Y229890D01*
X110063Y230013D01*
X110584Y230361D01*
X110932Y230882D01*
X111055Y231496D01*
X110932Y232111D01*
X110584Y232631D01*
X110063Y232979D01*
X109449Y233102D01*
D02*
G37*
G36*
X41122Y232491D02*
X40508Y232369D01*
X39987Y232021D01*
X39639Y231500D01*
X39516Y230886D01*
X39639Y230271D01*
X39987Y229750D01*
X40508Y229402D01*
X41122Y229280D01*
X41737Y229402D01*
X42257Y229750D01*
X42606Y230271D01*
X42728Y230886D01*
X42606Y231500D01*
X42257Y232021D01*
X41737Y232369D01*
X41122Y232491D01*
D02*
G37*
G36*
X18898Y232314D02*
X18283Y232192D01*
X17762Y231844D01*
X17414Y231323D01*
X17292Y230709D01*
X17414Y230094D01*
X17762Y229573D01*
X18283Y229225D01*
X18898Y229103D01*
X19512Y229225D01*
X20033Y229573D01*
X20381Y230094D01*
X20503Y230709D01*
X20381Y231323D01*
X20033Y231844D01*
X19512Y232192D01*
X18898Y232314D01*
D02*
G37*
G36*
X167717Y229952D02*
X167102Y229830D01*
X166581Y229482D01*
X166233Y228961D01*
X166111Y228346D01*
X166233Y227732D01*
X166581Y227211D01*
X167102Y226863D01*
X167717Y226741D01*
X168331Y226863D01*
X168852Y227211D01*
X169200Y227732D01*
X169322Y228346D01*
X169200Y228961D01*
X168852Y229482D01*
X168331Y229830D01*
X167717Y229952D01*
D02*
G37*
G36*
X112598D02*
X111984Y229830D01*
X111463Y229482D01*
X111115Y228961D01*
X110993Y228346D01*
X111115Y227732D01*
X111463Y227211D01*
X111984Y226863D01*
X112598Y226741D01*
X113213Y226863D01*
X113734Y227211D01*
X114082Y227732D01*
X114204Y228346D01*
X114082Y228961D01*
X113734Y229482D01*
X113213Y229830D01*
X112598Y229952D01*
D02*
G37*
G36*
X92913Y235020D02*
X91688Y234900D01*
X90510Y234542D01*
X89424Y233962D01*
X88473Y233181D01*
X87691Y232229D01*
X87111Y231143D01*
X86754Y229965D01*
X86633Y228740D01*
X86754Y227515D01*
X87111Y226337D01*
X87691Y225251D01*
X88473Y224299D01*
X89424Y223518D01*
X90510Y222938D01*
X91688Y222581D01*
X92913Y222460D01*
X94139Y222581D01*
X95317Y222938D01*
X96403Y223518D01*
X97354Y224299D01*
X98135Y225251D01*
X98716Y226337D01*
X99073Y227515D01*
X99194Y228740D01*
X99073Y229965D01*
X98716Y231143D01*
X98135Y232229D01*
X97354Y233181D01*
X96403Y233962D01*
X95317Y234542D01*
X94139Y234900D01*
X92913Y235020D01*
D02*
G37*
G36*
X61417D02*
X60192Y234900D01*
X59014Y234542D01*
X57928Y233962D01*
X56976Y233181D01*
X56195Y232229D01*
X55615Y231143D01*
X55258Y229965D01*
X55137Y228740D01*
X55258Y227515D01*
X55615Y226337D01*
X56195Y225251D01*
X56976Y224299D01*
X57928Y223518D01*
X59014Y222938D01*
X60192Y222581D01*
X61417Y222460D01*
X62643Y222581D01*
X63821Y222938D01*
X64906Y223518D01*
X65858Y224299D01*
X66639Y225251D01*
X67220Y226337D01*
X67577Y227515D01*
X67698Y228740D01*
X67577Y229965D01*
X67220Y231143D01*
X66639Y232229D01*
X65858Y233181D01*
X64906Y233962D01*
X63821Y234542D01*
X62643Y234900D01*
X61417Y235020D01*
D02*
G37*
G36*
X112598Y225228D02*
X111984Y225106D01*
X111463Y224757D01*
X111115Y224236D01*
X110993Y223622D01*
X111115Y223008D01*
X111463Y222487D01*
X111984Y222139D01*
X112598Y222016D01*
X113213Y222139D01*
X113734Y222487D01*
X114082Y223008D01*
X114204Y223622D01*
X114082Y224236D01*
X113734Y224757D01*
X113213Y225106D01*
X112598Y225228D01*
D02*
G37*
G36*
X181890Y220897D02*
X181275Y220775D01*
X180754Y220427D01*
X180406Y219906D01*
X180284Y219291D01*
X180406Y218677D01*
X180754Y218156D01*
X181275Y217808D01*
X181890Y217686D01*
X182504Y217808D01*
X183025Y218156D01*
X183373Y218677D01*
X183495Y219291D01*
X183373Y219906D01*
X183025Y220427D01*
X182504Y220775D01*
X181890Y220897D01*
D02*
G37*
G36*
X5512Y219716D02*
X4897Y219594D01*
X4376Y219246D01*
X4028Y218725D01*
X3906Y218110D01*
X4028Y217496D01*
X4376Y216975D01*
X4897Y216627D01*
X5512Y216505D01*
X6126Y216627D01*
X6647Y216975D01*
X6995Y217496D01*
X7118Y218110D01*
X6995Y218725D01*
X6647Y219246D01*
X6126Y219594D01*
X5512Y219716D01*
D02*
G37*
G36*
X110736Y217471D02*
Y216248D01*
X111959D01*
X111920Y216445D01*
X111525Y217037D01*
X110934Y217432D01*
X110736Y217471D01*
D02*
G37*
G36*
X109736D02*
X109539Y217432D01*
X108948Y217037D01*
X108553Y216445D01*
X108513Y216248D01*
X109736D01*
Y217471D01*
D02*
G37*
G36*
X114961Y218141D02*
X114346Y218019D01*
X113825Y217671D01*
X113477Y217150D01*
X113355Y216535D01*
X113477Y215921D01*
X113825Y215400D01*
X114346Y215052D01*
X114961Y214930D01*
X115575Y215052D01*
X116096Y215400D01*
X116444Y215921D01*
X116566Y216535D01*
X116444Y217150D01*
X116096Y217671D01*
X115575Y218019D01*
X114961Y218141D01*
D02*
G37*
G36*
X77165Y227146D02*
X75940Y227026D01*
X74762Y226668D01*
X73676Y226088D01*
X72724Y225307D01*
X71943Y224355D01*
X71363Y223270D01*
X71006Y222091D01*
X70885Y220866D01*
X71006Y219641D01*
X71363Y218463D01*
X71943Y217377D01*
X72724Y216425D01*
X73676Y215644D01*
X74762Y215064D01*
X75940Y214707D01*
X77165Y214586D01*
X78391Y214707D01*
X79569Y215064D01*
X80655Y215644D01*
X81606Y216425D01*
X82387Y217377D01*
X82968Y218463D01*
X83325Y219641D01*
X83446Y220866D01*
X83325Y222091D01*
X82968Y223270D01*
X82387Y224355D01*
X81606Y225307D01*
X80655Y226088D01*
X79569Y226668D01*
X78391Y227026D01*
X77165Y227146D01*
D02*
G37*
G36*
X41122Y217531D02*
X40508Y217409D01*
X39987Y217061D01*
X39639Y216540D01*
X39516Y215925D01*
X39639Y215311D01*
X39987Y214790D01*
X40508Y214442D01*
X41122Y214319D01*
X41737Y214442D01*
X42257Y214790D01*
X42606Y215311D01*
X42728Y215925D01*
X42606Y216540D01*
X42257Y217061D01*
X41737Y217409D01*
X41122Y217531D01*
D02*
G37*
G36*
X174803Y217354D02*
X174189Y217231D01*
X173668Y216883D01*
X173320Y216363D01*
X173197Y215748D01*
X173320Y215134D01*
X173668Y214613D01*
X174189Y214265D01*
X174803Y214142D01*
X175418Y214265D01*
X175938Y214613D01*
X176287Y215134D01*
X176409Y215748D01*
X176287Y216363D01*
X175938Y216883D01*
X175418Y217231D01*
X174803Y217354D01*
D02*
G37*
G36*
X111959Y215248D02*
X110736D01*
Y214025D01*
X110934Y214064D01*
X111525Y214459D01*
X111920Y215051D01*
X111959Y215248D01*
D02*
G37*
G36*
X109736D02*
X108513D01*
X108553Y215051D01*
X108948Y214459D01*
X109539Y214064D01*
X109736Y214025D01*
Y215248D01*
D02*
G37*
G36*
X179724Y216566D02*
X179110Y216444D01*
X178589Y216096D01*
X178241Y215575D01*
X178119Y214961D01*
X178241Y214346D01*
X178589Y213825D01*
X179110Y213477D01*
X179724Y213355D01*
X180339Y213477D01*
X180860Y213825D01*
X181208Y214346D01*
X181330Y214961D01*
X181208Y215575D01*
X180860Y216096D01*
X180339Y216444D01*
X179724Y216566D01*
D02*
G37*
G36*
X182677Y214204D02*
X182063Y214082D01*
X181542Y213734D01*
X181194Y213213D01*
X181071Y212598D01*
X181194Y211984D01*
X181542Y211463D01*
X182063Y211115D01*
X182677Y210993D01*
X183292Y211115D01*
X183812Y211463D01*
X184161Y211984D01*
X184283Y212598D01*
X184161Y213213D01*
X183812Y213734D01*
X183292Y214082D01*
X182677Y214204D01*
D02*
G37*
G36*
X177165Y211054D02*
X176551Y210932D01*
X176030Y210584D01*
X175682Y210063D01*
X175560Y209449D01*
X175682Y208834D01*
X176030Y208313D01*
X176551Y207965D01*
X177165Y207843D01*
X177780Y207965D01*
X178301Y208313D01*
X178649Y208834D01*
X178771Y209449D01*
X178649Y210063D01*
X178301Y210584D01*
X177780Y210932D01*
X177165Y211054D01*
D02*
G37*
G36*
X172441Y210267D02*
X171827Y210145D01*
X171306Y209797D01*
X170958Y209276D01*
X170835Y208661D01*
X170958Y208047D01*
X171306Y207526D01*
X171827Y207178D01*
X172441Y207056D01*
X173055Y207178D01*
X173576Y207526D01*
X173924Y208047D01*
X174047Y208661D01*
X173924Y209276D01*
X173576Y209797D01*
X173055Y210145D01*
X172441Y210267D01*
D02*
G37*
G36*
X92913Y219272D02*
X91688Y219152D01*
X90510Y218794D01*
X89424Y218214D01*
X88473Y217433D01*
X87691Y216481D01*
X87111Y215395D01*
X86754Y214217D01*
X86633Y212992D01*
X86754Y211767D01*
X87111Y210589D01*
X87691Y209503D01*
X88473Y208551D01*
X89424Y207770D01*
X90510Y207190D01*
X91688Y206833D01*
X92913Y206712D01*
X94139Y206833D01*
X95317Y207190D01*
X96403Y207770D01*
X97354Y208551D01*
X98135Y209503D01*
X98716Y210589D01*
X99073Y211767D01*
X99194Y212992D01*
X99073Y214217D01*
X98716Y215395D01*
X98135Y216481D01*
X97354Y217433D01*
X96403Y218214D01*
X95317Y218794D01*
X94139Y219152D01*
X92913Y219272D01*
D02*
G37*
G36*
X61417D02*
X60192Y219152D01*
X59014Y218794D01*
X57928Y218214D01*
X56976Y217433D01*
X56195Y216481D01*
X55615Y215395D01*
X55258Y214217D01*
X55137Y212992D01*
X55258Y211767D01*
X55615Y210589D01*
X56195Y209503D01*
X56976Y208551D01*
X57928Y207770D01*
X59014Y207190D01*
X60192Y206833D01*
X61417Y206712D01*
X62643Y206833D01*
X63821Y207190D01*
X64906Y207770D01*
X65858Y208551D01*
X66639Y209503D01*
X67220Y210589D01*
X67577Y211767D01*
X67698Y212992D01*
X67577Y214217D01*
X67220Y215395D01*
X66639Y216481D01*
X65858Y217433D01*
X64906Y218214D01*
X63821Y218794D01*
X62643Y219152D01*
X61417Y219272D01*
D02*
G37*
G36*
X192626Y207234D02*
Y206011D01*
X193849D01*
X193809Y206209D01*
X193414Y206800D01*
X192823Y207195D01*
X192626Y207234D01*
D02*
G37*
G36*
X191626D02*
X191428Y207195D01*
X190837Y206800D01*
X190442Y206209D01*
X190403Y206011D01*
X191626D01*
Y207234D01*
D02*
G37*
G36*
X111811Y206917D02*
X111273Y206810D01*
X110818Y206505D01*
X110513Y206049D01*
X110406Y205512D01*
X110513Y204974D01*
X110818Y204518D01*
X111273Y204214D01*
X111811Y204107D01*
X112349Y204214D01*
X112804Y204518D01*
X113109Y204974D01*
X113216Y205512D01*
X113109Y206049D01*
X112804Y206505D01*
X112349Y206810D01*
X111811Y206917D01*
D02*
G37*
G36*
X11024Y207118D02*
X10409Y206995D01*
X9888Y206647D01*
X9540Y206126D01*
X9418Y205512D01*
X9540Y204897D01*
X9888Y204376D01*
X10409Y204028D01*
X11024Y203906D01*
X11638Y204028D01*
X12159Y204376D01*
X12507Y204897D01*
X12629Y205512D01*
X12507Y206126D01*
X12159Y206647D01*
X11638Y206995D01*
X11024Y207118D01*
D02*
G37*
G36*
X193849Y205011D02*
X192626D01*
Y203788D01*
X192823Y203828D01*
X193414Y204223D01*
X193809Y204814D01*
X193849Y205011D01*
D02*
G37*
G36*
X191626D02*
X190403D01*
X190442Y204814D01*
X190837Y204223D01*
X191428Y203828D01*
X191626Y203788D01*
Y205011D01*
D02*
G37*
G36*
X187402Y206330D02*
X186787Y206208D01*
X186266Y205860D01*
X185918Y205339D01*
X185796Y204724D01*
X185918Y204110D01*
X186266Y203589D01*
X186787Y203241D01*
X187402Y203119D01*
X188016Y203241D01*
X188537Y203589D01*
X188885Y204110D01*
X189007Y204724D01*
X188885Y205339D01*
X188537Y205860D01*
X188016Y206208D01*
X187402Y206330D01*
D02*
G37*
G36*
X177165D02*
X176551Y206208D01*
X176030Y205860D01*
X175682Y205339D01*
X175560Y204724D01*
X175682Y204110D01*
X176030Y203589D01*
X176551Y203241D01*
X177165Y203119D01*
X177780Y203241D01*
X178301Y203589D01*
X178649Y204110D01*
X178771Y204724D01*
X178649Y205339D01*
X178301Y205860D01*
X177780Y206208D01*
X177165Y206330D01*
D02*
G37*
G36*
X172441Y203180D02*
X171827Y203058D01*
X171306Y202710D01*
X170958Y202189D01*
X170835Y201575D01*
X170958Y200960D01*
X171306Y200439D01*
X171827Y200091D01*
X172441Y199969D01*
X173055Y200091D01*
X173576Y200439D01*
X173924Y200960D01*
X174047Y201575D01*
X173924Y202189D01*
X173576Y202710D01*
X173055Y203058D01*
X172441Y203180D01*
D02*
G37*
G36*
X177165Y202393D02*
X176551Y202271D01*
X176030Y201923D01*
X175682Y201402D01*
X175560Y200787D01*
X175682Y200173D01*
X176030Y199652D01*
X176551Y199304D01*
X177165Y199182D01*
X177780Y199304D01*
X178301Y199652D01*
X178649Y200173D01*
X178771Y200787D01*
X178649Y201402D01*
X178301Y201923D01*
X177780Y202271D01*
X177165Y202393D01*
D02*
G37*
G36*
X112311Y200148D02*
Y198925D01*
X113534D01*
X113495Y199123D01*
X113100Y199714D01*
X112508Y200109D01*
X112311Y200148D01*
D02*
G37*
G36*
X111311D02*
X111114Y200109D01*
X110522Y199714D01*
X110127Y199123D01*
X110088Y198925D01*
X111311D01*
Y200148D01*
D02*
G37*
G36*
X77165Y211398D02*
X75940Y211278D01*
X74762Y210920D01*
X73676Y210340D01*
X72724Y209559D01*
X71943Y208607D01*
X71363Y207522D01*
X71006Y206343D01*
X70885Y205118D01*
X71006Y203893D01*
X71363Y202715D01*
X71943Y201629D01*
X72724Y200677D01*
X73676Y199896D01*
X74762Y199316D01*
X75940Y198959D01*
X77165Y198838D01*
X78391Y198959D01*
X79569Y199316D01*
X80655Y199896D01*
X81606Y200677D01*
X82387Y201629D01*
X82968Y202715D01*
X83325Y203893D01*
X83446Y205118D01*
X83325Y206343D01*
X82968Y207522D01*
X82387Y208607D01*
X81606Y209559D01*
X80655Y210340D01*
X79569Y210920D01*
X78391Y211278D01*
X77165Y211398D01*
D02*
G37*
G36*
X102362Y201606D02*
X101748Y201483D01*
X101227Y201135D01*
X100879Y200615D01*
X100757Y200000D01*
X100879Y199385D01*
X101227Y198865D01*
X101748Y198517D01*
X102362Y198394D01*
X102977Y198517D01*
X103498Y198865D01*
X103846Y199385D01*
X103968Y200000D01*
X103846Y200615D01*
X103498Y201135D01*
X102977Y201483D01*
X102362Y201606D01*
D02*
G37*
G36*
X113534Y197925D02*
X112311D01*
Y196702D01*
X112508Y196741D01*
X113100Y197137D01*
X113495Y197728D01*
X113534Y197925D01*
D02*
G37*
G36*
X111311D02*
X110088D01*
X110127Y197728D01*
X110522Y197137D01*
X111114Y196741D01*
X111311Y196702D01*
Y197925D01*
D02*
G37*
G36*
X12335Y198456D02*
X11720Y198334D01*
X11199Y197986D01*
X10851Y197465D01*
X10729Y196850D01*
X10851Y196236D01*
X11199Y195715D01*
X11720Y195367D01*
X12335Y195245D01*
X12949Y195367D01*
X13470Y195715D01*
X13769Y196163D01*
X14041Y196203D01*
X14313Y196163D01*
X14613Y195715D01*
X15134Y195367D01*
X15748Y195245D01*
X16363Y195367D01*
X16883Y195715D01*
X17232Y196236D01*
X17354Y196850D01*
X17232Y197465D01*
X16883Y197986D01*
X16363Y198334D01*
X15748Y198456D01*
X15134Y198334D01*
X14613Y197986D01*
X14313Y197538D01*
X14041Y197498D01*
X13769Y197538D01*
X13470Y197986D01*
X12949Y198334D01*
X12335Y198456D01*
D02*
G37*
G36*
X6299Y198456D02*
X5685Y198334D01*
X5164Y197986D01*
X4816Y197465D01*
X4694Y196850D01*
X4816Y196236D01*
X5164Y195715D01*
X5685Y195367D01*
X6299Y195245D01*
X6914Y195367D01*
X7435Y195715D01*
X7783Y196236D01*
X7905Y196850D01*
X7783Y197465D01*
X7435Y197986D01*
X6914Y198334D01*
X6299Y198456D01*
D02*
G37*
G36*
X36959Y197958D02*
X36344Y197836D01*
X35823Y197487D01*
X35475Y196967D01*
X35353Y196352D01*
X35475Y195738D01*
X35823Y195217D01*
X36344Y194869D01*
X36959Y194746D01*
X37573Y194869D01*
X38094Y195217D01*
X38442Y195738D01*
X38564Y196352D01*
X38442Y196967D01*
X38094Y197487D01*
X37573Y197836D01*
X36959Y197958D01*
D02*
G37*
G36*
X174803Y197669D02*
X174189Y197546D01*
X173668Y197198D01*
X173320Y196677D01*
X173197Y196063D01*
X173320Y195449D01*
X173668Y194928D01*
X174189Y194580D01*
X174803Y194457D01*
X175418Y194580D01*
X175938Y194928D01*
X176287Y195449D01*
X176409Y196063D01*
X176287Y196677D01*
X175938Y197198D01*
X175418Y197546D01*
X174803Y197669D01*
D02*
G37*
G36*
X144095D02*
X143480Y197546D01*
X142959Y197198D01*
X142611Y196677D01*
X142489Y196063D01*
X142611Y195449D01*
X142959Y194928D01*
X143480Y194580D01*
X144095Y194457D01*
X144709Y194580D01*
X145230Y194928D01*
X145578Y195449D01*
X145700Y196063D01*
X145578Y196677D01*
X145230Y197198D01*
X144709Y197546D01*
X144095Y197669D01*
D02*
G37*
G36*
X50262Y195929D02*
X49648Y195807D01*
X49127Y195459D01*
X48779Y194938D01*
X48657Y194324D01*
X48779Y193709D01*
X49127Y193188D01*
X49648Y192840D01*
X50262Y192718D01*
X50877Y192840D01*
X51398Y193188D01*
X51746Y193709D01*
X51868Y194324D01*
X51746Y194938D01*
X51398Y195459D01*
X50877Y195807D01*
X50262Y195929D01*
D02*
G37*
G36*
X92913Y203524D02*
X91688Y203404D01*
X90510Y203046D01*
X89424Y202466D01*
X88473Y201685D01*
X87691Y200733D01*
X87111Y199647D01*
X86754Y198469D01*
X86633Y197244D01*
X86754Y196019D01*
X87111Y194841D01*
X87691Y193755D01*
X88473Y192803D01*
X89424Y192022D01*
X90510Y191442D01*
X91688Y191085D01*
X92913Y190964D01*
X94139Y191085D01*
X95317Y191442D01*
X96403Y192022D01*
X97354Y192803D01*
X98135Y193755D01*
X98716Y194841D01*
X99073Y196019D01*
X99194Y197244D01*
X99073Y198469D01*
X98716Y199647D01*
X98135Y200733D01*
X97354Y201685D01*
X96403Y202466D01*
X95317Y203046D01*
X94139Y203404D01*
X92913Y203524D01*
D02*
G37*
G36*
X61417D02*
X60192Y203404D01*
X59014Y203046D01*
X57928Y202466D01*
X56976Y201685D01*
X56195Y200733D01*
X55615Y199647D01*
X55258Y198469D01*
X55137Y197244D01*
X55258Y196019D01*
X55615Y194841D01*
X56195Y193755D01*
X56976Y192803D01*
X57928Y192022D01*
X59014Y191442D01*
X60192Y191085D01*
X61417Y190964D01*
X62643Y191085D01*
X63821Y191442D01*
X64906Y192022D01*
X65858Y192803D01*
X66639Y193755D01*
X67220Y194841D01*
X67577Y196019D01*
X67698Y197244D01*
X67577Y198469D01*
X67220Y199647D01*
X66639Y200733D01*
X65858Y201685D01*
X64906Y202466D01*
X63821Y203046D01*
X62643Y203404D01*
X61417Y203524D01*
D02*
G37*
G36*
X101575Y193531D02*
X101037Y193424D01*
X100581Y193119D01*
X100277Y192664D01*
X100170Y192126D01*
X100277Y191588D01*
X100581Y191132D01*
X101037Y190828D01*
X101575Y190721D01*
X102112Y190828D01*
X102568Y191132D01*
X102873Y191588D01*
X102980Y192126D01*
X102873Y192664D01*
X102568Y193119D01*
X102112Y193424D01*
X101575Y193531D01*
D02*
G37*
G36*
X148031Y193732D02*
X147417Y193609D01*
X146896Y193261D01*
X146548Y192740D01*
X146426Y192126D01*
X146548Y191511D01*
X146896Y190991D01*
X147417Y190643D01*
X148031Y190520D01*
X148646Y190643D01*
X149167Y190991D01*
X149515Y191511D01*
X149637Y192126D01*
X149515Y192740D01*
X149167Y193261D01*
X148646Y193609D01*
X148031Y193732D01*
D02*
G37*
G36*
X48031Y192944D02*
X47417Y192822D01*
X46896Y192474D01*
X46548Y191953D01*
X46426Y191339D01*
X46548Y190724D01*
X46896Y190203D01*
X47417Y189855D01*
X48031Y189733D01*
X48646Y189855D01*
X49167Y190203D01*
X49515Y190724D01*
X49637Y191339D01*
X49515Y191953D01*
X49167Y192474D01*
X48646Y192822D01*
X48031Y192944D01*
D02*
G37*
G36*
X137303Y192452D02*
X136689Y192330D01*
X136168Y191982D01*
X135820Y191461D01*
X135697Y190847D01*
X135820Y190232D01*
X136168Y189711D01*
X136689Y189363D01*
X137303Y189241D01*
X137918Y189363D01*
X138438Y189711D01*
X138787Y190232D01*
X138909Y190847D01*
X138787Y191461D01*
X138438Y191982D01*
X137918Y192330D01*
X137303Y192452D01*
D02*
G37*
G36*
X175591Y191369D02*
X174976Y191247D01*
X174455Y190899D01*
X174107Y190378D01*
X173985Y189764D01*
X174107Y189149D01*
X174455Y188628D01*
X174976Y188280D01*
X175591Y188158D01*
X176205Y188280D01*
X176726Y188628D01*
X177074Y189149D01*
X177196Y189764D01*
X177074Y190378D01*
X176726Y190899D01*
X176205Y191247D01*
X175591Y191369D01*
D02*
G37*
G36*
X99213Y189795D02*
X98598Y189672D01*
X98077Y189324D01*
X97729Y188803D01*
X97607Y188189D01*
X97729Y187575D01*
X98077Y187054D01*
X98598Y186706D01*
X99213Y186583D01*
X99827Y186706D01*
X100348Y187054D01*
X100696Y187575D01*
X100818Y188189D01*
X100696Y188803D01*
X100348Y189324D01*
X99827Y189672D01*
X99213Y189795D01*
D02*
G37*
G36*
X187402Y188220D02*
X186787Y188098D01*
X186266Y187750D01*
X185918Y187229D01*
X185796Y186614D01*
X185918Y186000D01*
X186266Y185479D01*
X186787Y185131D01*
X187402Y185009D01*
X188016Y185131D01*
X188537Y185479D01*
X188885Y186000D01*
X189007Y186614D01*
X188885Y187229D01*
X188537Y187750D01*
X188016Y188098D01*
X187402Y188220D01*
D02*
G37*
G36*
X41622Y185365D02*
Y184142D01*
X42845D01*
X42806Y184339D01*
X42411Y184930D01*
X41820Y185325D01*
X41622Y185365D01*
D02*
G37*
G36*
X40622D02*
X40425Y185325D01*
X39833Y184930D01*
X39438Y184339D01*
X39399Y184142D01*
X40622D01*
Y185365D01*
D02*
G37*
G36*
X168504Y186645D02*
X167889Y186523D01*
X167369Y186175D01*
X167020Y185654D01*
X166898Y185039D01*
X167020Y184425D01*
X167369Y183904D01*
X167889Y183556D01*
X168504Y183434D01*
X169118Y183556D01*
X169639Y183904D01*
X169987Y184425D01*
X170110Y185039D01*
X169987Y185654D01*
X169639Y186175D01*
X169118Y186523D01*
X168504Y186645D01*
D02*
G37*
G36*
X77165Y195650D02*
X75940Y195530D01*
X74762Y195172D01*
X73676Y194592D01*
X72724Y193811D01*
X71943Y192859D01*
X71363Y191773D01*
X71006Y190595D01*
X70885Y189370D01*
X71006Y188145D01*
X71363Y186967D01*
X71943Y185881D01*
X72724Y184929D01*
X73676Y184148D01*
X74762Y183568D01*
X75940Y183211D01*
X77165Y183090D01*
X78391Y183211D01*
X79569Y183568D01*
X80655Y184148D01*
X81606Y184929D01*
X82387Y185881D01*
X82968Y186967D01*
X83325Y188145D01*
X83446Y189370D01*
X83325Y190595D01*
X82968Y191773D01*
X82387Y192859D01*
X81606Y193811D01*
X80655Y194592D01*
X79569Y195172D01*
X78391Y195530D01*
X77165Y195650D01*
D02*
G37*
G36*
X42845Y183142D02*
X41622D01*
Y181919D01*
X41820Y181958D01*
X42411Y182353D01*
X42806Y182944D01*
X42845Y183142D01*
D02*
G37*
G36*
X40622D02*
X39399D01*
X39438Y182944D01*
X39833Y182353D01*
X40425Y181958D01*
X40622Y181919D01*
Y183142D01*
D02*
G37*
G36*
X30709Y182708D02*
X30094Y182586D01*
X29573Y182238D01*
X29299Y181828D01*
X29137Y181790D01*
X28906D01*
X28744Y181828D01*
X28470Y182238D01*
X27949Y182586D01*
X27335Y182708D01*
X26720Y182586D01*
X26199Y182238D01*
X25851Y181717D01*
X25729Y181102D01*
X25851Y180488D01*
X26199Y179967D01*
X26720Y179619D01*
X27335Y179497D01*
X27949Y179619D01*
X28470Y179967D01*
X28744Y180377D01*
X28906Y180414D01*
X29137D01*
X29299Y180377D01*
X29573Y179967D01*
X30094Y179619D01*
X30709Y179497D01*
X31323Y179619D01*
X31844Y179967D01*
X32192Y180488D01*
X32314Y181102D01*
X32192Y181717D01*
X31844Y182238D01*
X31323Y182586D01*
X30709Y182708D01*
D02*
G37*
G36*
X44882D02*
X44267Y182586D01*
X43747Y182238D01*
X43398Y181717D01*
X43276Y181102D01*
X43398Y180488D01*
X43747Y179967D01*
X44267Y179619D01*
X44882Y179497D01*
X45496Y179619D01*
X46017Y179967D01*
X46365Y180488D01*
X46488Y181102D01*
X46365Y181717D01*
X46017Y182238D01*
X45496Y182586D01*
X44882Y182708D01*
D02*
G37*
G36*
X157480Y181921D02*
X156866Y181798D01*
X156345Y181450D01*
X155997Y180929D01*
X155875Y180315D01*
X155997Y179701D01*
X156345Y179180D01*
X156866Y178832D01*
X157480Y178709D01*
X158095Y178832D01*
X158616Y179180D01*
X158964Y179701D01*
X159086Y180315D01*
X158964Y180929D01*
X158616Y181450D01*
X158095Y181798D01*
X157480Y181921D01*
D02*
G37*
G36*
X140157D02*
X139543Y181798D01*
X139022Y181450D01*
X138674Y180929D01*
X138552Y180315D01*
X138674Y179701D01*
X139022Y179180D01*
X139543Y178832D01*
X140157Y178709D01*
X140772Y178832D01*
X141293Y179180D01*
X141641Y179701D01*
X141763Y180315D01*
X141641Y180929D01*
X141293Y181450D01*
X140772Y181798D01*
X140157Y181921D01*
D02*
G37*
G36*
X124409Y180932D02*
X123872Y180826D01*
X123416Y180521D01*
X123111Y180065D01*
X123004Y179528D01*
X123111Y178990D01*
X123416Y178534D01*
X123872Y178230D01*
X124409Y178123D01*
X124947Y178230D01*
X125403Y178534D01*
X125707Y178990D01*
X125814Y179528D01*
X125707Y180065D01*
X125403Y180521D01*
X124947Y180826D01*
X124409Y180932D01*
D02*
G37*
G36*
X175591Y179558D02*
X174976Y179436D01*
X174455Y179088D01*
X174107Y178567D01*
X173985Y177953D01*
X174107Y177338D01*
X174455Y176817D01*
X174976Y176469D01*
X175591Y176347D01*
X176205Y176469D01*
X176726Y176817D01*
X177074Y177338D01*
X177196Y177953D01*
X177074Y178567D01*
X176726Y179088D01*
X176205Y179436D01*
X175591Y179558D01*
D02*
G37*
G36*
X105236Y178846D02*
X104699Y178739D01*
X104243Y178434D01*
X103938Y177979D01*
X103831Y177441D01*
X103938Y176903D01*
X104243Y176447D01*
X104699Y176143D01*
X105236Y176036D01*
X105774Y176143D01*
X106230Y176447D01*
X106534Y176903D01*
X106641Y177441D01*
X106534Y177979D01*
X106230Y178434D01*
X105774Y178739D01*
X105236Y178846D01*
D02*
G37*
G36*
X92913Y187776D02*
X91688Y187656D01*
X90510Y187298D01*
X89424Y186718D01*
X88473Y185937D01*
X87691Y184985D01*
X87111Y183899D01*
X86754Y182721D01*
X86633Y181496D01*
X86754Y180271D01*
X87111Y179093D01*
X87691Y178007D01*
X88473Y177055D01*
X89424Y176274D01*
X90510Y175694D01*
X91688Y175337D01*
X92913Y175216D01*
X94139Y175337D01*
X95317Y175694D01*
X96403Y176274D01*
X97354Y177055D01*
X98135Y178007D01*
X98716Y179093D01*
X99073Y180271D01*
X99194Y181496D01*
X99073Y182721D01*
X98716Y183899D01*
X98135Y184985D01*
X97354Y185937D01*
X96403Y186718D01*
X95317Y187298D01*
X94139Y187656D01*
X92913Y187776D01*
D02*
G37*
G36*
X61417D02*
X60192Y187656D01*
X59014Y187298D01*
X57928Y186718D01*
X56976Y185937D01*
X56195Y184985D01*
X55615Y183899D01*
X55258Y182721D01*
X55137Y181496D01*
X55258Y180271D01*
X55615Y179093D01*
X56195Y178007D01*
X56976Y177055D01*
X57928Y176274D01*
X59014Y175694D01*
X60192Y175337D01*
X61417Y175216D01*
X62643Y175337D01*
X63821Y175694D01*
X64906Y176274D01*
X65858Y177055D01*
X66639Y178007D01*
X67220Y179093D01*
X67577Y180271D01*
X67698Y181496D01*
X67577Y182721D01*
X67220Y183899D01*
X66639Y184985D01*
X65858Y185937D01*
X64906Y186718D01*
X63821Y187298D01*
X62643Y187656D01*
X61417Y187776D01*
D02*
G37*
G36*
X138583Y175621D02*
X137968Y175499D01*
X137447Y175151D01*
X137099Y174630D01*
X136977Y174016D01*
X137099Y173401D01*
X137447Y172880D01*
X137968Y172532D01*
X138583Y172410D01*
X139197Y172532D01*
X139718Y172880D01*
X140066Y173401D01*
X140188Y174016D01*
X140066Y174630D01*
X139718Y175151D01*
X139197Y175499D01*
X138583Y175621D01*
D02*
G37*
G36*
X11622Y173278D02*
Y172055D01*
X12845D01*
X12806Y172253D01*
X12411Y172844D01*
X11819Y173239D01*
X11622Y173278D01*
D02*
G37*
G36*
X10622D02*
X10425Y173239D01*
X9833Y172844D01*
X9438Y172253D01*
X9399Y172055D01*
X10622D01*
Y173278D01*
D02*
G37*
G36*
X16535Y173259D02*
X15921Y173137D01*
X15400Y172789D01*
X15052Y172268D01*
X14930Y171653D01*
X15052Y171039D01*
X15400Y170518D01*
X15921Y170170D01*
X16535Y170048D01*
X17150Y170170D01*
X17671Y170518D01*
X18019Y171039D01*
X18141Y171653D01*
X18019Y172268D01*
X17671Y172789D01*
X17150Y173137D01*
X16535Y173259D01*
D02*
G37*
G36*
X6299D02*
X5685Y173137D01*
X5164Y172789D01*
X4816Y172268D01*
X4694Y171653D01*
X4816Y171039D01*
X5164Y170518D01*
X5685Y170170D01*
X6299Y170048D01*
X6914Y170170D01*
X7435Y170518D01*
X7783Y171039D01*
X7905Y171653D01*
X7783Y172268D01*
X7435Y172789D01*
X6914Y173137D01*
X6299Y173259D01*
D02*
G37*
G36*
X12845Y171055D02*
X11622D01*
Y169832D01*
X11819Y169871D01*
X12411Y170266D01*
X12806Y170858D01*
X12845Y171055D01*
D02*
G37*
G36*
X10622D02*
X9399D01*
X9438Y170858D01*
X9833Y170266D01*
X10425Y169871D01*
X10622Y169832D01*
Y171055D01*
D02*
G37*
G36*
X77165Y179902D02*
X75940Y179782D01*
X74762Y179424D01*
X73676Y178844D01*
X72724Y178063D01*
X71943Y177111D01*
X71363Y176025D01*
X71006Y174847D01*
X70885Y173622D01*
X71006Y172397D01*
X71363Y171219D01*
X71943Y170133D01*
X72724Y169181D01*
X73676Y168400D01*
X74762Y167820D01*
X75940Y167463D01*
X77165Y167342D01*
X78391Y167463D01*
X79569Y167820D01*
X80655Y168400D01*
X81606Y169181D01*
X82387Y170133D01*
X82968Y171219D01*
X83325Y172397D01*
X83446Y173622D01*
X83325Y174847D01*
X82968Y176025D01*
X82387Y177111D01*
X81606Y178063D01*
X80655Y178844D01*
X79569Y179424D01*
X78391Y179782D01*
X77165Y179902D01*
D02*
G37*
G36*
X174803Y170110D02*
X174189Y169987D01*
X173668Y169639D01*
X173320Y169118D01*
X173197Y168504D01*
X173320Y167889D01*
X173668Y167369D01*
X174189Y167020D01*
X174803Y166898D01*
X175418Y167020D01*
X175938Y167369D01*
X176287Y167889D01*
X176409Y168504D01*
X176287Y169118D01*
X175938Y169639D01*
X175418Y169987D01*
X174803Y170110D01*
D02*
G37*
G36*
X167717D02*
X167102Y169987D01*
X166581Y169639D01*
X166233Y169118D01*
X166111Y168504D01*
X166233Y167889D01*
X166581Y167369D01*
X167102Y167020D01*
X167717Y166898D01*
X168331Y167020D01*
X168852Y167369D01*
X169200Y167889D01*
X169322Y168504D01*
X169200Y169118D01*
X168852Y169639D01*
X168331Y169987D01*
X167717Y170110D01*
D02*
G37*
G36*
X140945Y169322D02*
X140330Y169200D01*
X139810Y168852D01*
X139461Y168331D01*
X139339Y167717D01*
X139461Y167102D01*
X139810Y166581D01*
X140330Y166233D01*
X140945Y166111D01*
X141559Y166233D01*
X142080Y166581D01*
X142428Y167102D01*
X142551Y167717D01*
X142428Y168331D01*
X142080Y168852D01*
X141559Y169200D01*
X140945Y169322D01*
D02*
G37*
G36*
X110384Y167895D02*
X109769Y167773D01*
X109248Y167425D01*
X108900Y166904D01*
X108778Y166289D01*
X108900Y165675D01*
X109004Y165520D01*
X108644Y165159D01*
X108489Y165263D01*
X107874Y165385D01*
X107260Y165263D01*
X106739Y164915D01*
X106391Y164394D01*
X106268Y163779D01*
X106391Y163165D01*
X106739Y162644D01*
X107260Y162296D01*
X107874Y162174D01*
X108489Y162296D01*
X109009Y162644D01*
X109357Y163165D01*
X109480Y163779D01*
X109357Y164394D01*
X109254Y164549D01*
X109614Y164910D01*
X109769Y164806D01*
X110384Y164684D01*
X110998Y164806D01*
X111519Y165154D01*
X111867Y165675D01*
X111989Y166289D01*
X111867Y166904D01*
X111519Y167425D01*
X110998Y167773D01*
X110384Y167895D01*
D02*
G37*
G36*
X172441Y165385D02*
X171827Y165263D01*
X171306Y164915D01*
X170958Y164394D01*
X170835Y163779D01*
X170925Y163327D01*
X170511Y163002D01*
X170209Y163204D01*
X169595Y163326D01*
X168980Y163204D01*
X168459Y162856D01*
X168111Y162335D01*
X167989Y161721D01*
X168111Y161106D01*
X168459Y160585D01*
X168980Y160237D01*
X169595Y160115D01*
X170209Y160237D01*
X170730Y160585D01*
X171078Y161106D01*
X171200Y161721D01*
X171110Y162173D01*
X171525Y162498D01*
X171827Y162296D01*
X172441Y162174D01*
X173055Y162296D01*
X173576Y162644D01*
X173924Y163165D01*
X174047Y163779D01*
X173924Y164394D01*
X173576Y164915D01*
X173055Y165263D01*
X172441Y165385D01*
D02*
G37*
G36*
X176378D02*
X175763Y165263D01*
X175243Y164915D01*
X174894Y164394D01*
X174772Y163779D01*
X174894Y163165D01*
X175243Y162644D01*
X175763Y162296D01*
X176378Y162174D01*
X176992Y162296D01*
X177513Y162644D01*
X177861Y163165D01*
X177984Y163779D01*
X177861Y164394D01*
X177513Y164915D01*
X176992Y165263D01*
X176378Y165385D01*
D02*
G37*
G36*
X142520Y164598D02*
X141905Y164476D01*
X141384Y164128D01*
X141036Y163607D01*
X140914Y162992D01*
X141036Y162378D01*
X141384Y161857D01*
X141905Y161509D01*
X142520Y161387D01*
X143134Y161509D01*
X143655Y161857D01*
X144003Y162378D01*
X144125Y162992D01*
X144003Y163607D01*
X143655Y164128D01*
X143134Y164476D01*
X142520Y164598D01*
D02*
G37*
G36*
X92913Y172028D02*
X91688Y171908D01*
X90510Y171550D01*
X89424Y170970D01*
X88473Y170189D01*
X87691Y169237D01*
X87111Y168151D01*
X86754Y166973D01*
X86633Y165748D01*
X86754Y164523D01*
X87111Y163345D01*
X87691Y162259D01*
X88473Y161307D01*
X89424Y160526D01*
X90510Y159946D01*
X91688Y159589D01*
X92913Y159468D01*
X94139Y159589D01*
X95317Y159946D01*
X96403Y160526D01*
X97354Y161307D01*
X98135Y162259D01*
X98716Y163345D01*
X99073Y164523D01*
X99194Y165748D01*
X99073Y166973D01*
X98716Y168151D01*
X98135Y169237D01*
X97354Y170189D01*
X96403Y170970D01*
X95317Y171550D01*
X94139Y171908D01*
X92913Y172028D01*
D02*
G37*
G36*
X61417D02*
X60192Y171908D01*
X59014Y171550D01*
X57928Y170970D01*
X56976Y170189D01*
X56195Y169237D01*
X55615Y168151D01*
X55258Y166973D01*
X55137Y165748D01*
X55258Y164523D01*
X55615Y163345D01*
X56195Y162259D01*
X56976Y161307D01*
X57928Y160526D01*
X59014Y159946D01*
X60192Y159589D01*
X61417Y159468D01*
X62643Y159589D01*
X63821Y159946D01*
X64906Y160526D01*
X65858Y161307D01*
X66639Y162259D01*
X67220Y163345D01*
X67577Y164523D01*
X67698Y165748D01*
X67577Y166973D01*
X67220Y168151D01*
X66639Y169237D01*
X65858Y170189D01*
X64906Y170970D01*
X63821Y171550D01*
X62643Y171908D01*
X61417Y172028D01*
D02*
G37*
G36*
X105512Y162236D02*
X104897Y162113D01*
X104376Y161765D01*
X104028Y161244D01*
X103906Y160630D01*
X104028Y160015D01*
X104376Y159495D01*
X104897Y159146D01*
X105512Y159024D01*
X106126Y159146D01*
X106647Y159495D01*
X106995Y160015D01*
X107117Y160630D01*
X106995Y161244D01*
X106647Y161765D01*
X106126Y162113D01*
X105512Y162236D01*
D02*
G37*
G36*
X178740Y161055D02*
X178126Y160932D01*
X177605Y160584D01*
X177257Y160063D01*
X177135Y159449D01*
X177257Y158834D01*
X177605Y158314D01*
X178126Y157965D01*
X178740Y157843D01*
X179355Y157965D01*
X179876Y158314D01*
X180224Y158834D01*
X180346Y159449D01*
X180224Y160063D01*
X179876Y160584D01*
X179355Y160932D01*
X178740Y161055D01*
D02*
G37*
G36*
X102362Y159873D02*
X101748Y159751D01*
X101227Y159403D01*
X100879Y158882D01*
X100757Y158268D01*
X100879Y157653D01*
X101169Y157219D01*
X100809Y156858D01*
X100304Y157195D01*
X100106Y157235D01*
Y156012D01*
X101329D01*
X101290Y156209D01*
X100953Y156714D01*
X101313Y157075D01*
X101748Y156784D01*
X102362Y156662D01*
X102977Y156784D01*
X103498Y157132D01*
X103846Y157653D01*
X103968Y158268D01*
X103846Y158882D01*
X103498Y159403D01*
X102977Y159751D01*
X102362Y159873D01*
D02*
G37*
G36*
X99106Y157235D02*
X98909Y157195D01*
X98318Y156800D01*
X97923Y156209D01*
X97883Y156012D01*
X99106D01*
Y157235D01*
D02*
G37*
G36*
X101329Y155012D02*
X100106D01*
Y153789D01*
X100304Y153828D01*
X100895Y154223D01*
X101290Y154814D01*
X101329Y155012D01*
D02*
G37*
G36*
X99106D02*
X97883D01*
X97923Y154814D01*
X98318Y154223D01*
X98909Y153828D01*
X99106Y153789D01*
Y155012D01*
D02*
G37*
G36*
X142520Y156724D02*
X141905Y156602D01*
X141384Y156254D01*
X141036Y155733D01*
X140914Y155118D01*
X141036Y154504D01*
X141384Y153983D01*
X141905Y153635D01*
X142520Y153513D01*
X143134Y153635D01*
X143655Y153983D01*
X144003Y154504D01*
X144125Y155118D01*
X144003Y155733D01*
X143655Y156254D01*
X143134Y156602D01*
X142520Y156724D01*
D02*
G37*
G36*
X77165Y164154D02*
X75940Y164034D01*
X74762Y163676D01*
X73676Y163096D01*
X72724Y162315D01*
X71943Y161363D01*
X71363Y160277D01*
X71006Y159099D01*
X70885Y157874D01*
X71006Y156649D01*
X71363Y155471D01*
X71943Y154385D01*
X72724Y153433D01*
X73676Y152652D01*
X74762Y152072D01*
X75940Y151715D01*
X77165Y151594D01*
X78391Y151715D01*
X79569Y152072D01*
X80655Y152652D01*
X81606Y153433D01*
X82387Y154385D01*
X82968Y155471D01*
X83325Y156649D01*
X83446Y157874D01*
X83325Y159099D01*
X82968Y160277D01*
X82387Y161363D01*
X81606Y162315D01*
X80655Y163096D01*
X79569Y163676D01*
X78391Y164034D01*
X77165Y164154D01*
D02*
G37*
G36*
X32283Y151999D02*
X31669Y151877D01*
X31148Y151529D01*
X30800Y151008D01*
X30678Y150394D01*
X30800Y149779D01*
X31148Y149258D01*
X31669Y148910D01*
X32283Y148788D01*
X32898Y148910D01*
X33419Y149258D01*
X33767Y149779D01*
X33889Y150394D01*
X33767Y151008D01*
X33419Y151529D01*
X32898Y151877D01*
X32283Y151999D01*
D02*
G37*
G36*
X16535Y150425D02*
X15921Y150302D01*
X15400Y149954D01*
X15052Y149433D01*
X14930Y148819D01*
X15052Y148204D01*
X15400Y147684D01*
X15921Y147336D01*
X16535Y147213D01*
X17150Y147336D01*
X17671Y147684D01*
X18019Y148204D01*
X18141Y148819D01*
X18019Y149433D01*
X17671Y149954D01*
X17150Y150302D01*
X16535Y150425D01*
D02*
G37*
G36*
X168504Y149637D02*
X167889Y149515D01*
X167369Y149167D01*
X167020Y148646D01*
X166898Y148031D01*
X167020Y147417D01*
X167369Y146896D01*
X167889Y146548D01*
X168504Y146426D01*
X169118Y146548D01*
X169639Y146896D01*
X169987Y147417D01*
X170110Y148031D01*
X169987Y148646D01*
X169639Y149167D01*
X169118Y149515D01*
X168504Y149637D01*
D02*
G37*
G36*
X174803Y148850D02*
X174189Y148728D01*
X173668Y148380D01*
X173320Y147859D01*
X173197Y147244D01*
X173320Y146630D01*
X173668Y146109D01*
X174189Y145761D01*
X174803Y145638D01*
X175418Y145761D01*
X175938Y146109D01*
X176287Y146630D01*
X176409Y147244D01*
X176287Y147859D01*
X175938Y148380D01*
X175418Y148728D01*
X174803Y148850D01*
D02*
G37*
G36*
X115748Y147275D02*
X115134Y147153D01*
X114613Y146805D01*
X114265Y146284D01*
X114142Y145669D01*
X114265Y145055D01*
X114613Y144534D01*
X115134Y144186D01*
X115748Y144064D01*
X116363Y144186D01*
X116883Y144534D01*
X117232Y145055D01*
X117354Y145669D01*
X117232Y146284D01*
X116883Y146805D01*
X116363Y147153D01*
X115748Y147275D01*
D02*
G37*
G36*
X92913Y156280D02*
X91688Y156160D01*
X90510Y155802D01*
X89424Y155222D01*
X88473Y154441D01*
X87691Y153489D01*
X87111Y152403D01*
X86754Y151225D01*
X86633Y150000D01*
X86754Y148775D01*
X87111Y147597D01*
X87691Y146511D01*
X88473Y145559D01*
X89424Y144778D01*
X90510Y144198D01*
X91688Y143840D01*
X92913Y143720D01*
X94139Y143840D01*
X95317Y144198D01*
X96403Y144778D01*
X97354Y145559D01*
X98135Y146511D01*
X98716Y147597D01*
X99073Y148775D01*
X99194Y150000D01*
X99073Y151225D01*
X98716Y152403D01*
X98135Y153489D01*
X97354Y154441D01*
X96403Y155222D01*
X95317Y155802D01*
X94139Y156160D01*
X92913Y156280D01*
D02*
G37*
G36*
X61417D02*
X60192Y156160D01*
X59014Y155802D01*
X57928Y155222D01*
X56976Y154441D01*
X56195Y153489D01*
X55615Y152403D01*
X55258Y151225D01*
X55137Y150000D01*
X55258Y148775D01*
X55615Y147597D01*
X56195Y146511D01*
X56976Y145559D01*
X57928Y144778D01*
X59014Y144198D01*
X60192Y143840D01*
X61417Y143720D01*
X62643Y143840D01*
X63821Y144198D01*
X64906Y144778D01*
X65858Y145559D01*
X66639Y146511D01*
X67220Y147597D01*
X67577Y148775D01*
X67698Y150000D01*
X67577Y151225D01*
X67220Y152403D01*
X66639Y153489D01*
X65858Y154441D01*
X64906Y155222D01*
X63821Y155802D01*
X62643Y156160D01*
X61417Y156280D01*
D02*
G37*
G36*
X167717Y143338D02*
X167102Y143216D01*
X166581Y142868D01*
X166233Y142347D01*
X166111Y141732D01*
X166233Y141118D01*
X166581Y140597D01*
X167102Y140249D01*
X167717Y140127D01*
X168331Y140249D01*
X168852Y140597D01*
X169200Y141118D01*
X169322Y141732D01*
X169200Y142347D01*
X168852Y142868D01*
X168331Y143216D01*
X167717Y143338D01*
D02*
G37*
G36*
X142611Y141590D02*
X141997Y141468D01*
X141476Y141120D01*
X141128Y140599D01*
X141005Y139985D01*
X141128Y139370D01*
X141476Y138849D01*
X141997Y138501D01*
X142611Y138379D01*
X143226Y138501D01*
X143746Y138849D01*
X144095Y139370D01*
X144217Y139985D01*
X144095Y140599D01*
X143746Y141120D01*
X143226Y141468D01*
X142611Y141590D01*
D02*
G37*
G36*
X116248Y138731D02*
Y137508D01*
X117471D01*
X117432Y137705D01*
X117037Y138296D01*
X116445Y138692D01*
X116248Y138731D01*
D02*
G37*
G36*
X115248D02*
X115051Y138692D01*
X114459Y138296D01*
X114064Y137705D01*
X114025Y137508D01*
X115248D01*
Y138731D01*
D02*
G37*
G36*
X74016Y151212D02*
X73401Y151090D01*
X72880Y150742D01*
X72532Y150221D01*
X72410Y149606D01*
X72532Y148992D01*
X72880Y148471D01*
X73401Y148123D01*
X73885Y148027D01*
X74016Y147532D01*
Y147530D01*
X73676Y147348D01*
X72724Y146567D01*
X71943Y145615D01*
X71363Y144529D01*
X71006Y143351D01*
X70885Y142126D01*
X71006Y140901D01*
X71363Y139723D01*
X71943Y138637D01*
X72724Y137685D01*
X73676Y136904D01*
X74762Y136324D01*
X75940Y135966D01*
X77165Y135846D01*
X78391Y135966D01*
X79569Y136324D01*
X80655Y136904D01*
X81606Y137685D01*
X82387Y138637D01*
X82968Y139723D01*
X83325Y140901D01*
X83446Y142126D01*
X83325Y143351D01*
X82968Y144529D01*
X82387Y145615D01*
X81606Y146567D01*
X80655Y147348D01*
X79569Y147928D01*
X78391Y148286D01*
X77165Y148406D01*
X75940Y148286D01*
X75510Y148155D01*
X75233Y148594D01*
X75499Y148992D01*
X75621Y149606D01*
X75499Y150221D01*
X75151Y150742D01*
X74630Y151090D01*
X74016Y151212D01*
D02*
G37*
G36*
X117471Y136508D02*
X116248D01*
Y135285D01*
X116445Y135324D01*
X117037Y135719D01*
X117432Y136311D01*
X117471Y136508D01*
D02*
G37*
G36*
X115248D02*
X114025D01*
X114064Y136311D01*
X114459Y135719D01*
X115051Y135324D01*
X115248Y135285D01*
Y136508D01*
D02*
G37*
G36*
X41122Y138003D02*
X40508Y137881D01*
X39987Y137533D01*
X39639Y137012D01*
X39516Y136398D01*
X39639Y135783D01*
X39987Y135262D01*
X40508Y134914D01*
X41122Y134792D01*
X41737Y134914D01*
X42257Y135262D01*
X42606Y135783D01*
X42728Y136398D01*
X42606Y137012D01*
X42257Y137533D01*
X41737Y137881D01*
X41122Y138003D01*
D02*
G37*
G36*
X187402Y134677D02*
X186787Y134554D01*
X186266Y134206D01*
X185918Y133685D01*
X185796Y133071D01*
X185918Y132456D01*
X186266Y131936D01*
X186787Y131587D01*
X187402Y131465D01*
X188016Y131587D01*
X188537Y131936D01*
X188885Y132456D01*
X189007Y133071D01*
X188885Y133685D01*
X188537Y134206D01*
X188016Y134554D01*
X187402Y134677D01*
D02*
G37*
G36*
X44882Y133102D02*
X44267Y132980D01*
X43747Y132631D01*
X43398Y132111D01*
X43276Y131496D01*
X43398Y130882D01*
X43747Y130361D01*
X44267Y130013D01*
X44882Y129890D01*
X45496Y130013D01*
X46017Y130361D01*
X46365Y130882D01*
X46488Y131496D01*
X46365Y132111D01*
X46017Y132631D01*
X45496Y132980D01*
X44882Y133102D01*
D02*
G37*
G36*
X169291Y131527D02*
X168677Y131405D01*
X168156Y131057D01*
X167808Y130536D01*
X167686Y129921D01*
X167808Y129307D01*
X168156Y128786D01*
X168677Y128438D01*
X169291Y128316D01*
X169906Y128438D01*
X170427Y128786D01*
X170775Y129307D01*
X170897Y129921D01*
X170775Y130536D01*
X170427Y131057D01*
X169906Y131405D01*
X169291Y131527D01*
D02*
G37*
G36*
X92913Y140532D02*
X91688Y140411D01*
X90510Y140054D01*
X89424Y139474D01*
X88473Y138693D01*
X87691Y137741D01*
X87111Y136655D01*
X86754Y135477D01*
X86633Y134252D01*
X86754Y133027D01*
X87111Y131849D01*
X87691Y130763D01*
X88473Y129811D01*
X89424Y129030D01*
X90510Y128450D01*
X91688Y128092D01*
X92913Y127972D01*
X94139Y128092D01*
X95317Y128450D01*
X96403Y129030D01*
X97354Y129811D01*
X98135Y130763D01*
X98716Y131849D01*
X99073Y133027D01*
X99194Y134252D01*
X99073Y135477D01*
X98716Y136655D01*
X98135Y137741D01*
X97354Y138693D01*
X96403Y139474D01*
X95317Y140054D01*
X94139Y140411D01*
X92913Y140532D01*
D02*
G37*
G36*
X61417D02*
X60192Y140411D01*
X59014Y140054D01*
X57928Y139474D01*
X56976Y138693D01*
X56195Y137741D01*
X55615Y136655D01*
X55258Y135477D01*
X55137Y134252D01*
X55258Y133027D01*
X55615Y131849D01*
X56195Y130763D01*
X56976Y129811D01*
X57928Y129030D01*
X59014Y128450D01*
X60192Y128092D01*
X61417Y127972D01*
X62643Y128092D01*
X63821Y128450D01*
X64906Y129030D01*
X65858Y129811D01*
X66639Y130763D01*
X67220Y131849D01*
X67577Y133027D01*
X67698Y134252D01*
X67577Y135477D01*
X67220Y136655D01*
X66639Y137741D01*
X65858Y138693D01*
X64906Y139474D01*
X63821Y140054D01*
X62643Y140411D01*
X61417Y140532D01*
D02*
G37*
G36*
X179528Y129952D02*
X178913Y129830D01*
X178392Y129482D01*
X178044Y128961D01*
X177922Y128347D01*
X178044Y127732D01*
X178392Y127211D01*
X178913Y126863D01*
X179528Y126741D01*
X180142Y126863D01*
X180663Y127211D01*
X181011Y127732D01*
X181133Y128347D01*
X181011Y128961D01*
X180663Y129482D01*
X180142Y129830D01*
X179528Y129952D01*
D02*
G37*
G36*
X175591Y129165D02*
X174976Y129042D01*
X174455Y128694D01*
X174107Y128173D01*
X173985Y127559D01*
X174107Y126945D01*
X174455Y126424D01*
X174976Y126076D01*
X175591Y125953D01*
X176205Y126076D01*
X176726Y126424D01*
X177074Y126945D01*
X177196Y127559D01*
X177074Y128173D01*
X176726Y128694D01*
X176205Y129042D01*
X175591Y129165D01*
D02*
G37*
G36*
X34009Y128377D02*
X33395Y128255D01*
X32874Y127907D01*
X32526Y127386D01*
X32403Y126772D01*
X32526Y126157D01*
X32874Y125636D01*
X33395Y125288D01*
X34009Y125166D01*
X34306Y125225D01*
X34328Y125215D01*
X34691Y124792D01*
X34615Y124409D01*
X34737Y123795D01*
X35085Y123274D01*
X35606Y122926D01*
X36220Y122804D01*
X36835Y122926D01*
X37356Y123274D01*
X37704Y123795D01*
X37826Y124409D01*
X37704Y125024D01*
X37356Y125545D01*
X36835Y125893D01*
X36220Y126015D01*
X35923Y125956D01*
X35901Y125966D01*
X35539Y126389D01*
X35615Y126772D01*
X35492Y127386D01*
X35144Y127907D01*
X34623Y128255D01*
X34009Y128377D01*
D02*
G37*
G36*
X169348Y126015D02*
X168733Y125893D01*
X168212Y125545D01*
X167864Y125024D01*
X167742Y124409D01*
X167864Y123795D01*
X168212Y123274D01*
X168733Y122926D01*
X169348Y122804D01*
X169962Y122926D01*
X170483Y123274D01*
X170831Y123795D01*
X170953Y124409D01*
X170831Y125024D01*
X170483Y125545D01*
X169962Y125893D01*
X169348Y126015D01*
D02*
G37*
G36*
X11024D02*
X10409Y125893D01*
X9888Y125545D01*
X9540Y125024D01*
X9418Y124409D01*
X9540Y123795D01*
X9888Y123274D01*
X10409Y122926D01*
X11024Y122804D01*
X11638Y122926D01*
X12159Y123274D01*
X12507Y123795D01*
X12629Y124409D01*
X12507Y125024D01*
X12159Y125545D01*
X11638Y125893D01*
X11024Y126015D01*
D02*
G37*
G36*
X6299D02*
X5685Y125893D01*
X5164Y125545D01*
X4816Y125024D01*
X4694Y124409D01*
X4816Y123795D01*
X5164Y123274D01*
X5685Y122926D01*
X6299Y122804D01*
X6914Y122926D01*
X7435Y123274D01*
X7783Y123795D01*
X7905Y124409D01*
X7783Y125024D01*
X7435Y125545D01*
X6914Y125893D01*
X6299Y126015D01*
D02*
G37*
G36*
X77165Y132658D02*
X75940Y132537D01*
X74762Y132180D01*
X73676Y131600D01*
X72724Y130819D01*
X71943Y129867D01*
X71363Y128781D01*
X71006Y127603D01*
X70885Y126378D01*
X71006Y125153D01*
X71363Y123975D01*
X71943Y122889D01*
X72724Y121937D01*
X73676Y121156D01*
X74762Y120576D01*
X75940Y120218D01*
X77165Y120098D01*
X78391Y120218D01*
X79569Y120576D01*
X80655Y121156D01*
X81606Y121937D01*
X82387Y122889D01*
X82968Y123975D01*
X83325Y125153D01*
X83446Y126378D01*
X83325Y127603D01*
X82968Y128781D01*
X82387Y129867D01*
X81606Y130819D01*
X80655Y131600D01*
X79569Y132180D01*
X78391Y132537D01*
X77165Y132658D01*
D02*
G37*
G36*
X51181Y122078D02*
X50567Y121956D01*
X50046Y121608D01*
X49698Y121087D01*
X49575Y120472D01*
X49698Y119858D01*
X50046Y119337D01*
X50567Y118989D01*
X51181Y118867D01*
X51796Y118989D01*
X52316Y119337D01*
X52664Y119858D01*
X52787Y120472D01*
X52664Y121087D01*
X52316Y121608D01*
X51796Y121956D01*
X51181Y122078D01*
D02*
G37*
G36*
X120472Y120503D02*
X119858Y120381D01*
X119337Y120033D01*
X118989Y119512D01*
X118867Y118898D01*
X118989Y118283D01*
X119337Y117762D01*
X119858Y117414D01*
X120472Y117292D01*
X121087Y117414D01*
X121608Y117762D01*
X121956Y118283D01*
X122078Y118898D01*
X121956Y119512D01*
X121608Y120033D01*
X121087Y120381D01*
X120472Y120503D01*
D02*
G37*
G36*
X48819Y118928D02*
X48204Y118806D01*
X47683Y118458D01*
X47335Y117937D01*
X47213Y117323D01*
X47335Y116708D01*
X47683Y116187D01*
X48204Y115839D01*
X48819Y115717D01*
X49433Y115839D01*
X49954Y116187D01*
X50302Y116708D01*
X50424Y117323D01*
X50302Y117937D01*
X49954Y118458D01*
X49433Y118806D01*
X48819Y118928D01*
D02*
G37*
G36*
X187902Y115109D02*
Y113886D01*
X189125D01*
X189085Y114083D01*
X188690Y114674D01*
X188099Y115069D01*
X187902Y115109D01*
D02*
G37*
G36*
X186902D02*
X186704Y115069D01*
X186113Y114674D01*
X185718Y114083D01*
X185679Y113886D01*
X186902D01*
Y115109D01*
D02*
G37*
G36*
X92913Y124784D02*
X91688Y124663D01*
X90510Y124306D01*
X89424Y123726D01*
X88473Y122945D01*
X87691Y121993D01*
X87111Y120907D01*
X86754Y119729D01*
X86633Y118504D01*
X86754Y117279D01*
X87111Y116101D01*
X87691Y115015D01*
X88473Y114063D01*
X89424Y113282D01*
X90510Y112702D01*
X91688Y112344D01*
X92913Y112224D01*
X94139Y112344D01*
X95317Y112702D01*
X96403Y113282D01*
X97354Y114063D01*
X98135Y115015D01*
X98716Y116101D01*
X99073Y117279D01*
X99194Y118504D01*
X99073Y119729D01*
X98716Y120907D01*
X98135Y121993D01*
X97354Y122945D01*
X96403Y123726D01*
X95317Y124306D01*
X94139Y124663D01*
X92913Y124784D01*
D02*
G37*
G36*
X61417D02*
X60192Y124663D01*
X59014Y124306D01*
X57928Y123726D01*
X56976Y122945D01*
X56195Y121993D01*
X55615Y120907D01*
X55258Y119729D01*
X55137Y118504D01*
X55258Y117279D01*
X55615Y116101D01*
X56195Y115015D01*
X56976Y114063D01*
X57928Y113282D01*
X59014Y112702D01*
X60192Y112344D01*
X61417Y112224D01*
X62643Y112344D01*
X63821Y112702D01*
X64906Y113282D01*
X65858Y114063D01*
X66639Y115015D01*
X67220Y116101D01*
X67577Y117279D01*
X67698Y118504D01*
X67577Y119729D01*
X67220Y120907D01*
X66639Y121993D01*
X65858Y122945D01*
X64906Y123726D01*
X63821Y124306D01*
X62643Y124663D01*
X61417Y124784D01*
D02*
G37*
G36*
X189125Y112886D02*
X187902D01*
Y111663D01*
X188099Y111702D01*
X188690Y112097D01*
X189085Y112688D01*
X189125Y112886D01*
D02*
G37*
G36*
X186902D02*
X185679D01*
X185718Y112688D01*
X186113Y112097D01*
X186704Y111702D01*
X186902Y111663D01*
Y112886D01*
D02*
G37*
G36*
X40945Y111842D02*
X40330Y111720D01*
X39810Y111372D01*
X39461Y110851D01*
X39339Y110236D01*
X39461Y109622D01*
X39810Y109101D01*
X40330Y108753D01*
X40945Y108631D01*
X41559Y108753D01*
X42080Y109101D01*
X42428Y109622D01*
X42551Y110236D01*
X42428Y110851D01*
X42080Y111372D01*
X41559Y111720D01*
X40945Y111842D01*
D02*
G37*
G36*
X131496Y111055D02*
X130882Y110932D01*
X130361Y110584D01*
X130013Y110063D01*
X129890Y109449D01*
X130013Y108834D01*
X130361Y108313D01*
X130882Y107965D01*
X131496Y107843D01*
X132111Y107965D01*
X132631Y108313D01*
X132980Y108834D01*
X133102Y109449D01*
X132980Y110063D01*
X132631Y110584D01*
X132111Y110932D01*
X131496Y111055D01*
D02*
G37*
G36*
X141732Y111798D02*
X140819Y111678D01*
X139967Y111325D01*
X139236Y110764D01*
X138675Y110033D01*
X138322Y109181D01*
X138202Y108268D01*
X138322Y107354D01*
X138675Y106503D01*
X139236Y105772D01*
X139967Y105210D01*
X140819Y104858D01*
X141732Y104737D01*
X142646Y104858D01*
X143497Y105210D01*
X144228Y105772D01*
X144790Y106503D01*
X145142Y107354D01*
X145263Y108268D01*
X145142Y109181D01*
X144790Y110033D01*
X144228Y110764D01*
X143497Y111325D01*
X142646Y111678D01*
X141732Y111798D01*
D02*
G37*
G36*
X77165Y116910D02*
X75940Y116789D01*
X74762Y116432D01*
X73676Y115852D01*
X72724Y115071D01*
X71943Y114119D01*
X71363Y113033D01*
X71006Y111855D01*
X70885Y110630D01*
X71006Y109405D01*
X71363Y108227D01*
X71943Y107141D01*
X72724Y106189D01*
X73676Y105408D01*
X74762Y104828D01*
X75940Y104470D01*
X77165Y104350D01*
X78391Y104470D01*
X79569Y104828D01*
X80655Y105408D01*
X81606Y106189D01*
X82387Y107141D01*
X82968Y108227D01*
X83325Y109405D01*
X83446Y110630D01*
X83325Y111855D01*
X82968Y113033D01*
X82387Y114119D01*
X81606Y115071D01*
X80655Y115852D01*
X79569Y116432D01*
X78391Y116789D01*
X77165Y116910D01*
D02*
G37*
G36*
X146457Y105543D02*
X145842Y105420D01*
X145321Y105072D01*
X144973Y104551D01*
X144851Y103937D01*
X144973Y103323D01*
X145321Y102802D01*
X145842Y102454D01*
X146457Y102331D01*
X147071Y102454D01*
X147592Y102802D01*
X147940Y103323D01*
X148062Y103937D01*
X147940Y104551D01*
X147592Y105072D01*
X147071Y105420D01*
X146457Y105543D01*
D02*
G37*
G36*
X136221D02*
X135606Y105420D01*
X135085Y105072D01*
X134737Y104551D01*
X134615Y103937D01*
X134737Y103323D01*
X135085Y102802D01*
X135606Y102454D01*
X136221Y102331D01*
X136835Y102454D01*
X137356Y102802D01*
X137704Y103323D01*
X137826Y103937D01*
X137704Y104551D01*
X137356Y105072D01*
X136835Y105420D01*
X136221Y105543D01*
D02*
G37*
G36*
X47244Y107905D02*
X46630Y107783D01*
X46109Y107435D01*
X45761Y106914D01*
X45638Y106299D01*
X45761Y105685D01*
X46109Y105164D01*
X46510Y104896D01*
X46542Y104766D01*
Y104470D01*
X46510Y104340D01*
X46109Y104072D01*
X45761Y103551D01*
X45638Y102937D01*
X45761Y102323D01*
X46109Y101802D01*
X46630Y101454D01*
X47244Y101331D01*
X47859Y101454D01*
X48379Y101802D01*
X48728Y102323D01*
X48850Y102937D01*
X48728Y103551D01*
X48379Y104072D01*
X47978Y104340D01*
X47946Y104470D01*
Y104766D01*
X47978Y104896D01*
X48379Y105164D01*
X48728Y105685D01*
X48850Y106299D01*
X48728Y106914D01*
X48379Y107435D01*
X47859Y107783D01*
X47244Y107905D01*
D02*
G37*
G36*
X151181Y101606D02*
X150567Y101483D01*
X150046Y101135D01*
X149698Y100615D01*
X149575Y100000D01*
X149698Y99385D01*
X150046Y98865D01*
X150567Y98517D01*
X151181Y98394D01*
X151796Y98517D01*
X152316Y98865D01*
X152664Y99385D01*
X152787Y100000D01*
X152664Y100615D01*
X152316Y101135D01*
X151796Y101483D01*
X151181Y101606D01*
D02*
G37*
G36*
X113386Y100031D02*
X112771Y99909D01*
X112250Y99561D01*
X111902Y99040D01*
X111780Y98425D01*
X111902Y97811D01*
X112250Y97290D01*
X112771Y96942D01*
X113386Y96820D01*
X114000Y96942D01*
X114521Y97290D01*
X114869Y97811D01*
X114991Y98425D01*
X114869Y99040D01*
X114521Y99561D01*
X114000Y99909D01*
X113386Y100031D01*
D02*
G37*
G36*
X92913Y109036D02*
X91688Y108915D01*
X90510Y108558D01*
X89424Y107978D01*
X88473Y107197D01*
X87691Y106245D01*
X87111Y105159D01*
X86754Y103981D01*
X86633Y102756D01*
X86754Y101531D01*
X87111Y100353D01*
X87691Y99267D01*
X88473Y98315D01*
X89424Y97534D01*
X90510Y96954D01*
X91688Y96596D01*
X92913Y96476D01*
X94139Y96596D01*
X95317Y96954D01*
X96403Y97534D01*
X97354Y98315D01*
X98135Y99267D01*
X98716Y100353D01*
X99073Y101531D01*
X99194Y102756D01*
X99073Y103981D01*
X98716Y105159D01*
X98135Y106245D01*
X97354Y107197D01*
X96403Y107978D01*
X95317Y108558D01*
X94139Y108915D01*
X92913Y109036D01*
D02*
G37*
G36*
X61417D02*
X60192Y108915D01*
X59014Y108558D01*
X57928Y107978D01*
X56976Y107197D01*
X56195Y106245D01*
X55615Y105159D01*
X55258Y103981D01*
X55137Y102756D01*
X55258Y101531D01*
X55615Y100353D01*
X56195Y99267D01*
X56976Y98315D01*
X57928Y97534D01*
X59014Y96954D01*
X60192Y96596D01*
X61417Y96476D01*
X62643Y96596D01*
X63821Y96954D01*
X64906Y97534D01*
X65858Y98315D01*
X66639Y99267D01*
X67220Y100353D01*
X67577Y101531D01*
X67698Y102756D01*
X67577Y103981D01*
X67220Y105159D01*
X66639Y106245D01*
X65858Y107197D01*
X64906Y107978D01*
X63821Y108558D01*
X62643Y108915D01*
X61417Y109036D01*
D02*
G37*
G36*
X149606Y95306D02*
X148992Y95184D01*
X148471Y94836D01*
X148123Y94315D01*
X148001Y93701D01*
X148123Y93086D01*
X148471Y92565D01*
X148992Y92217D01*
X149606Y92095D01*
X150221Y92217D01*
X150742Y92565D01*
X151090Y93086D01*
X151212Y93701D01*
X151090Y94315D01*
X150742Y94836D01*
X150221Y95184D01*
X149606Y95306D01*
D02*
G37*
G36*
X41622Y90877D02*
Y89653D01*
X42845D01*
X42806Y89851D01*
X42411Y90442D01*
X41820Y90837D01*
X41622Y90877D01*
D02*
G37*
G36*
X40622D02*
X40425Y90837D01*
X39833Y90442D01*
X39438Y89851D01*
X39399Y89653D01*
X40622D01*
Y90877D01*
D02*
G37*
G36*
X77165Y101162D02*
X75940Y101041D01*
X74762Y100684D01*
X73676Y100104D01*
X72724Y99323D01*
X71943Y98371D01*
X71363Y97285D01*
X71006Y96107D01*
X70885Y94882D01*
X71006Y93657D01*
X71363Y92479D01*
X71943Y91393D01*
X72724Y90441D01*
X73676Y89660D01*
X74762Y89080D01*
X75940Y88722D01*
X77165Y88602D01*
X78391Y88722D01*
X79569Y89080D01*
X80655Y89660D01*
X81606Y90441D01*
X82387Y91393D01*
X82968Y92479D01*
X83325Y93657D01*
X83446Y94882D01*
X83325Y96107D01*
X82968Y97285D01*
X82387Y98371D01*
X81606Y99323D01*
X80655Y100104D01*
X79569Y100684D01*
X78391Y101041D01*
X77165Y101162D01*
D02*
G37*
G36*
X42845Y88653D02*
X41622D01*
Y87431D01*
X41820Y87470D01*
X42411Y87865D01*
X42806Y88456D01*
X42845Y88653D01*
D02*
G37*
G36*
X40622D02*
X39399D01*
X39438Y88456D01*
X39833Y87865D01*
X40425Y87470D01*
X40622Y87431D01*
Y88653D01*
D02*
G37*
G36*
X36220Y90582D02*
X35606Y90460D01*
X35085Y90112D01*
X34737Y89591D01*
X34615Y88976D01*
X34737Y88362D01*
X35085Y87841D01*
X35606Y87493D01*
X36220Y87371D01*
X36835Y87493D01*
X37356Y87841D01*
X37704Y88362D01*
X37826Y88976D01*
X37704Y89591D01*
X37356Y90112D01*
X36835Y90460D01*
X36220Y90582D01*
D02*
G37*
G36*
X6299D02*
X5685Y90460D01*
X5164Y90112D01*
X4816Y89591D01*
X4694Y88976D01*
X4816Y88362D01*
X5164Y87841D01*
X5685Y87493D01*
X6299Y87371D01*
X6914Y87493D01*
X7435Y87841D01*
X7783Y88362D01*
X7905Y88976D01*
X7783Y89591D01*
X7435Y90112D01*
X6914Y90460D01*
X6299Y90582D01*
D02*
G37*
G36*
X185039Y89795D02*
X184425Y89672D01*
X183904Y89324D01*
X183556Y88803D01*
X183434Y88189D01*
X183556Y87574D01*
X183904Y87054D01*
X184425Y86706D01*
X185039Y86583D01*
X185654Y86706D01*
X186175Y87054D01*
X186523Y87574D01*
X186645Y88189D01*
X186523Y88803D01*
X186175Y89324D01*
X185654Y89672D01*
X185039Y89795D01*
D02*
G37*
G36*
X187036Y84648D02*
X186422Y84526D01*
X185901Y84178D01*
X185553Y83657D01*
X185430Y83043D01*
X185553Y82428D01*
X185901Y81907D01*
X186422Y81559D01*
X187036Y81437D01*
X187650Y81559D01*
X188171Y81907D01*
X188519Y82428D01*
X188642Y83043D01*
X188519Y83657D01*
X188171Y84178D01*
X187650Y84526D01*
X187036Y84648D01*
D02*
G37*
G36*
X120472Y84082D02*
X119935Y83975D01*
X119479Y83671D01*
X119174Y83215D01*
X119068Y82677D01*
X119174Y82139D01*
X119479Y81684D01*
X119935Y81379D01*
X120472Y81272D01*
X121010Y81379D01*
X121466Y81684D01*
X121770Y82139D01*
X121877Y82677D01*
X121770Y83215D01*
X121466Y83671D01*
X121010Y83975D01*
X120472Y84082D01*
D02*
G37*
G36*
X92913Y93288D02*
X91688Y93167D01*
X90510Y92810D01*
X89424Y92230D01*
X88473Y91449D01*
X87691Y90497D01*
X87111Y89411D01*
X86754Y88233D01*
X86633Y87008D01*
X86754Y85783D01*
X87111Y84605D01*
X87691Y83519D01*
X88473Y82567D01*
X89424Y81786D01*
X90510Y81206D01*
X91688Y80848D01*
X92913Y80728D01*
X94139Y80848D01*
X95317Y81206D01*
X96403Y81786D01*
X97354Y82567D01*
X98135Y83519D01*
X98716Y84605D01*
X99073Y85783D01*
X99194Y87008D01*
X99073Y88233D01*
X98716Y89411D01*
X98135Y90497D01*
X97354Y91449D01*
X96403Y92230D01*
X95317Y92810D01*
X94139Y93167D01*
X92913Y93288D01*
D02*
G37*
G36*
X61417D02*
X60192Y93167D01*
X59014Y92810D01*
X57928Y92230D01*
X56976Y91449D01*
X56195Y90497D01*
X55615Y89411D01*
X55258Y88233D01*
X55137Y87008D01*
X55258Y85783D01*
X55615Y84605D01*
X56195Y83519D01*
X56976Y82567D01*
X57928Y81786D01*
X59014Y81206D01*
X60192Y80848D01*
X61417Y80728D01*
X62643Y80848D01*
X63821Y81206D01*
X64906Y81786D01*
X65858Y82567D01*
X66639Y83519D01*
X67220Y84605D01*
X67577Y85783D01*
X67698Y87008D01*
X67577Y88233D01*
X67220Y89411D01*
X66639Y90497D01*
X65858Y91449D01*
X64906Y92230D01*
X63821Y92810D01*
X62643Y93167D01*
X61417Y93288D01*
D02*
G37*
G36*
X181890Y82708D02*
X181275Y82586D01*
X180754Y82238D01*
X180406Y81717D01*
X180284Y81102D01*
X180406Y80488D01*
X180754Y79967D01*
X181275Y79619D01*
X181890Y79497D01*
X182504Y79619D01*
X183025Y79967D01*
X183373Y80488D01*
X183495Y81102D01*
X183373Y81717D01*
X183025Y82238D01*
X182504Y82586D01*
X181890Y82708D01*
D02*
G37*
G36*
X189764Y78771D02*
X189149Y78649D01*
X188628Y78301D01*
X188280Y77780D01*
X188158Y77165D01*
X188280Y76551D01*
X188628Y76030D01*
X189149Y75682D01*
X189764Y75560D01*
X190378Y75682D01*
X190899Y76030D01*
X191247Y76551D01*
X191369Y77165D01*
X191247Y77780D01*
X190899Y78301D01*
X190378Y78649D01*
X189764Y78771D01*
D02*
G37*
G36*
X6233Y77917D02*
X5618Y77795D01*
X5097Y77447D01*
X4749Y76926D01*
X4627Y76311D01*
X4749Y75697D01*
X5097Y75176D01*
X5618Y74828D01*
X6233Y74706D01*
X6847Y74828D01*
X7368Y75176D01*
X7716Y75697D01*
X7838Y76311D01*
X7716Y76926D01*
X7368Y77447D01*
X6847Y77795D01*
X6233Y77917D01*
D02*
G37*
G36*
X77165Y85414D02*
X75940Y85293D01*
X74762Y84936D01*
X73676Y84356D01*
X72724Y83575D01*
X71943Y82623D01*
X71363Y81537D01*
X71006Y80359D01*
X70885Y79134D01*
X71006Y77909D01*
X71363Y76731D01*
X71943Y75645D01*
X72724Y74693D01*
X73676Y73912D01*
X74762Y73332D01*
X75940Y72974D01*
X77165Y72854D01*
X78391Y72974D01*
X79569Y73332D01*
X80655Y73912D01*
X81606Y74693D01*
X82387Y75645D01*
X82968Y76731D01*
X83325Y77909D01*
X83446Y79134D01*
X83325Y80359D01*
X82968Y81537D01*
X82387Y82623D01*
X81606Y83575D01*
X80655Y84356D01*
X79569Y84936D01*
X78391Y85293D01*
X77165Y85414D01*
D02*
G37*
G36*
X161417Y73259D02*
X160803Y73137D01*
X160282Y72789D01*
X159934Y72268D01*
X159812Y71653D01*
X159934Y71039D01*
X160282Y70518D01*
X160803Y70170D01*
X161417Y70048D01*
X162032Y70170D01*
X162553Y70518D01*
X162901Y71039D01*
X163023Y71653D01*
X162901Y72268D01*
X162553Y72789D01*
X162032Y73137D01*
X161417Y73259D01*
D02*
G37*
G36*
X155905Y70897D02*
X155291Y70775D01*
X154770Y70427D01*
X154422Y69906D01*
X154300Y69291D01*
X154422Y68677D01*
X154770Y68156D01*
X155291Y67808D01*
X155905Y67686D01*
X156520Y67808D01*
X157041Y68156D01*
X157389Y68677D01*
X157511Y69291D01*
X157389Y69906D01*
X157041Y70427D01*
X156520Y70775D01*
X155905Y70897D01*
D02*
G37*
G36*
X192126Y69322D02*
X191511Y69200D01*
X190991Y68852D01*
X190643Y68331D01*
X190520Y67716D01*
X190643Y67102D01*
X190991Y66581D01*
X191511Y66233D01*
X192126Y66111D01*
X192740Y66233D01*
X193261Y66581D01*
X193609Y67102D01*
X193732Y67716D01*
X193609Y68331D01*
X193261Y68852D01*
X192740Y69200D01*
X192126Y69322D01*
D02*
G37*
G36*
X92913Y77540D02*
X91688Y77419D01*
X90510Y77062D01*
X89424Y76482D01*
X88473Y75701D01*
X87691Y74749D01*
X87111Y73663D01*
X86754Y72485D01*
X86633Y71260D01*
X86754Y70035D01*
X87111Y68857D01*
X87691Y67771D01*
X88473Y66819D01*
X89424Y66038D01*
X90510Y65458D01*
X91688Y65100D01*
X92913Y64980D01*
X94139Y65100D01*
X95317Y65458D01*
X96403Y66038D01*
X97354Y66819D01*
X98135Y67771D01*
X98716Y68857D01*
X99073Y70035D01*
X99194Y71260D01*
X99073Y72485D01*
X98716Y73663D01*
X98135Y74749D01*
X97354Y75701D01*
X96403Y76482D01*
X95317Y77062D01*
X94139Y77419D01*
X92913Y77540D01*
D02*
G37*
G36*
X61417D02*
X60192Y77419D01*
X59014Y77062D01*
X57928Y76482D01*
X56976Y75701D01*
X56195Y74749D01*
X55615Y73663D01*
X55258Y72485D01*
X55137Y71260D01*
X55258Y70035D01*
X55615Y68857D01*
X56195Y67771D01*
X56976Y66819D01*
X57928Y66038D01*
X59014Y65458D01*
X60192Y65100D01*
X61417Y64980D01*
X62643Y65100D01*
X63821Y65458D01*
X64906Y66038D01*
X65858Y66819D01*
X66639Y67771D01*
X67220Y68857D01*
X67577Y70035D01*
X67698Y71260D01*
X67577Y72485D01*
X67220Y73663D01*
X66639Y74749D01*
X65858Y75701D01*
X64906Y76482D01*
X63821Y77062D01*
X62643Y77419D01*
X61417Y77540D01*
D02*
G37*
G36*
X159055Y67747D02*
X158441Y67625D01*
X157920Y67277D01*
X157572Y66756D01*
X157449Y66142D01*
X157572Y65527D01*
X157920Y65006D01*
X158441Y64658D01*
X159055Y64536D01*
X159670Y64658D01*
X160190Y65006D01*
X160539Y65527D01*
X160661Y66142D01*
X160539Y66756D01*
X160190Y67277D01*
X159670Y67625D01*
X159055Y67747D01*
D02*
G37*
G36*
X153543D02*
X152929Y67625D01*
X152408Y67277D01*
X152060Y66756D01*
X151938Y66142D01*
X152060Y65527D01*
X152408Y65006D01*
X152929Y64658D01*
X153543Y64536D01*
X154158Y64658D01*
X154679Y65006D01*
X155027Y65527D01*
X155149Y66142D01*
X155027Y66756D01*
X154679Y67277D01*
X154158Y67625D01*
X153543Y67747D01*
D02*
G37*
G36*
X41732Y64991D02*
X41118Y64869D01*
X40597Y64521D01*
X40249Y64000D01*
X40127Y63386D01*
X40249Y62771D01*
X40597Y62251D01*
X41118Y61902D01*
X41732Y61780D01*
X42347Y61902D01*
X42868Y62251D01*
X43216Y62771D01*
X43338Y63386D01*
X43216Y64000D01*
X42868Y64521D01*
X42347Y64869D01*
X41732Y64991D01*
D02*
G37*
G36*
X150394Y64598D02*
X149779Y64476D01*
X149258Y64127D01*
X148910Y63607D01*
X148788Y62992D01*
X148910Y62378D01*
X149258Y61857D01*
X149779Y61509D01*
X150394Y61387D01*
X151008Y61509D01*
X151529Y61857D01*
X151877Y62378D01*
X151999Y62992D01*
X151877Y63607D01*
X151529Y64127D01*
X151008Y64476D01*
X150394Y64598D01*
D02*
G37*
G36*
X51181Y60661D02*
X50567Y60539D01*
X50046Y60190D01*
X49698Y59670D01*
X49575Y59055D01*
X49698Y58441D01*
X50046Y57920D01*
X50567Y57572D01*
X51181Y57450D01*
X51796Y57572D01*
X52316Y57920D01*
X52665Y58441D01*
X52787Y59055D01*
X52665Y59670D01*
X52316Y60190D01*
X51796Y60539D01*
X51181Y60661D01*
D02*
G37*
G36*
X148031Y52787D02*
X147417Y52665D01*
X146896Y52316D01*
X146548Y51796D01*
X146426Y51181D01*
X146548Y50567D01*
X146896Y50046D01*
X147417Y49698D01*
X148031Y49575D01*
X148646Y49698D01*
X149167Y50046D01*
X149515Y50567D01*
X149637Y51181D01*
X149515Y51796D01*
X149167Y52316D01*
X148646Y52665D01*
X148031Y52787D01*
D02*
G37*
G36*
X111811Y48062D02*
X111197Y47940D01*
X110676Y47592D01*
X110328Y47071D01*
X110205Y46457D01*
X110328Y45842D01*
X110676Y45321D01*
X111197Y44973D01*
X111811Y44851D01*
X112425Y44973D01*
X112946Y45321D01*
X113294Y45842D01*
X113417Y46457D01*
X113294Y47071D01*
X112946Y47592D01*
X112425Y47940D01*
X111811Y48062D01*
D02*
G37*
G36*
X41622Y43632D02*
Y42409D01*
X42845D01*
X42806Y42607D01*
X42411Y43198D01*
X41820Y43593D01*
X41622Y43632D01*
D02*
G37*
G36*
X40622D02*
X40425Y43593D01*
X39833Y43198D01*
X39438Y42607D01*
X39399Y42409D01*
X40622D01*
Y43632D01*
D02*
G37*
G36*
X42845Y41409D02*
X41622D01*
Y40187D01*
X41820Y40226D01*
X42411Y40621D01*
X42806Y41212D01*
X42845Y41409D01*
D02*
G37*
G36*
X40622D02*
X39399D01*
X39438Y41212D01*
X39833Y40621D01*
X40425Y40226D01*
X40622Y40187D01*
Y41409D01*
D02*
G37*
G36*
X36122Y42649D02*
X35508Y42527D01*
X34987Y42179D01*
X34639Y41658D01*
X34516Y41043D01*
X34639Y40429D01*
X34987Y39908D01*
X35508Y39560D01*
X36122Y39438D01*
X36737Y39560D01*
X37257Y39908D01*
X37606Y40429D01*
X37728Y41043D01*
X37606Y41658D01*
X37257Y42179D01*
X36737Y42527D01*
X36122Y42649D01*
D02*
G37*
G36*
X101362Y40401D02*
X100748Y40279D01*
X100227Y39931D01*
X99879Y39410D01*
X99757Y38795D01*
X99879Y38181D01*
X100227Y37660D01*
X100748Y37312D01*
X101362Y37190D01*
X101977Y37312D01*
X102498Y37660D01*
X102846Y38181D01*
X102968Y38795D01*
X102846Y39410D01*
X102498Y39931D01*
X101977Y40279D01*
X101362Y40401D01*
D02*
G37*
G36*
X73228Y40188D02*
X72614Y40066D01*
X72093Y39718D01*
X71745Y39197D01*
X71623Y38583D01*
X71745Y37968D01*
X72093Y37447D01*
X72614Y37099D01*
X73228Y36977D01*
X73843Y37099D01*
X74364Y37447D01*
X74712Y37968D01*
X74834Y38583D01*
X74712Y39197D01*
X74364Y39718D01*
X73843Y40066D01*
X73228Y40188D01*
D02*
G37*
G36*
X125189Y38621D02*
X124574Y38499D01*
X124054Y38151D01*
X123705Y37630D01*
X123583Y37016D01*
X123705Y36401D01*
X124054Y35880D01*
X124574Y35532D01*
X125189Y35410D01*
X125803Y35532D01*
X126324Y35880D01*
X126672Y36401D01*
X126795Y37016D01*
X126672Y37630D01*
X126324Y38151D01*
X125803Y38499D01*
X125189Y38621D01*
D02*
G37*
G36*
X83071Y38220D02*
X82456Y38098D01*
X81936Y37749D01*
X81587Y37229D01*
X81465Y36614D01*
X81587Y36000D01*
X81936Y35479D01*
X82456Y35131D01*
X83071Y35008D01*
X83685Y35131D01*
X84206Y35479D01*
X84554Y36000D01*
X84676Y36614D01*
X84554Y37229D01*
X84206Y37749D01*
X83685Y38098D01*
X83071Y38220D01*
D02*
G37*
G36*
X93807Y32825D02*
Y31602D01*
X95030D01*
X94991Y31800D01*
X94596Y32391D01*
X94004Y32786D01*
X93807Y32825D01*
D02*
G37*
G36*
X92807D02*
X92610Y32786D01*
X92018Y32391D01*
X91623Y31800D01*
X91584Y31602D01*
X92807D01*
Y32825D01*
D02*
G37*
G36*
X112311Y32432D02*
Y31209D01*
X113534D01*
X113495Y31406D01*
X113100Y31997D01*
X112508Y32392D01*
X112311Y32432D01*
D02*
G37*
G36*
X163779Y33889D02*
X163165Y33767D01*
X162644Y33419D01*
X162296Y32898D01*
X162174Y32283D01*
X162296Y31669D01*
X162644Y31148D01*
X163165Y30800D01*
X163779Y30678D01*
X164394Y30800D01*
X164915Y31148D01*
X165263Y31669D01*
X165385Y32283D01*
X165263Y32898D01*
X164915Y33419D01*
X164394Y33767D01*
X163779Y33889D01*
D02*
G37*
G36*
X111311Y32432D02*
X111114Y32392D01*
X110522Y31997D01*
X110127Y31406D01*
X109989Y30709D01*
X110040Y30452D01*
X109572Y30241D01*
X109230Y30687D01*
X108198Y31478D01*
X106998Y31975D01*
X105709Y32145D01*
X104420Y31975D01*
X103219Y31478D01*
X102188Y30687D01*
X101396Y29655D01*
X100899Y28454D01*
X100729Y27165D01*
X100899Y25877D01*
X101396Y24676D01*
X102188Y23644D01*
X103219Y22853D01*
X104420Y22355D01*
X105709Y22186D01*
X106998Y22355D01*
X108198Y22853D01*
X109230Y23644D01*
X110021Y24676D01*
X110519Y25877D01*
X110688Y27165D01*
X110519Y28454D01*
X110308Y28962D01*
X110712Y29293D01*
X111114Y29025D01*
X111311Y28986D01*
Y30709D01*
Y32432D01*
D02*
G37*
G36*
X95030Y30602D02*
X93807D01*
Y29379D01*
X94004Y29419D01*
X94596Y29814D01*
X94991Y30405D01*
X95030Y30602D01*
D02*
G37*
G36*
X92807D02*
X91584D01*
X91623Y30405D01*
X92018Y29814D01*
X92610Y29419D01*
X92807Y29379D01*
Y30602D01*
D02*
G37*
G36*
X113534Y30209D02*
X112311D01*
Y28986D01*
X112508Y29025D01*
X113100Y29420D01*
X113495Y30011D01*
X113534Y30209D01*
D02*
G37*
G36*
X34646Y38050D02*
X33357Y37881D01*
X32156Y37383D01*
X31124Y36592D01*
X30333Y35561D01*
X29836Y34360D01*
X29666Y33071D01*
X29836Y31782D01*
X30333Y30581D01*
X31124Y29550D01*
X32156Y28758D01*
X33357Y28261D01*
X34646Y28091D01*
X35934Y28261D01*
X37135Y28758D01*
X38167Y29550D01*
X38958Y30581D01*
X39456Y31782D01*
X39625Y33071D01*
X39456Y34360D01*
X38958Y35561D01*
X38167Y36592D01*
X37135Y37383D01*
X35934Y37881D01*
X34646Y38050D01*
D02*
G37*
G36*
X173228Y30740D02*
X172614Y30617D01*
X172093Y30269D01*
X171745Y29748D01*
X171623Y29134D01*
X171745Y28519D01*
X172093Y27999D01*
X172614Y27650D01*
X173228Y27528D01*
X173843Y27650D01*
X174364Y27999D01*
X174712Y28519D01*
X174834Y29134D01*
X174712Y29748D01*
X174364Y30269D01*
X173843Y30617D01*
X173228Y30740D01*
D02*
G37*
G36*
X146457D02*
X145842Y30617D01*
X145321Y30269D01*
X144973Y29748D01*
X144851Y29134D01*
X144973Y28519D01*
X145321Y27999D01*
X145842Y27650D01*
X146457Y27528D01*
X147071Y27650D01*
X147592Y27999D01*
X147940Y28519D01*
X148062Y29134D01*
X147940Y29748D01*
X147592Y30269D01*
X147071Y30617D01*
X146457Y30740D01*
D02*
G37*
G36*
X163779Y17354D02*
X163165Y17232D01*
X162644Y16883D01*
X162296Y16363D01*
X162174Y15748D01*
X162296Y15134D01*
X162644Y14613D01*
X163165Y14265D01*
X163779Y14142D01*
X164394Y14265D01*
X164915Y14613D01*
X165263Y15134D01*
X165385Y15748D01*
X165263Y16363D01*
X164915Y16883D01*
X164394Y17232D01*
X163779Y17354D01*
D02*
G37*
G36*
X143807Y15109D02*
Y13886D01*
X145030D01*
X144991Y14083D01*
X144596Y14674D01*
X144004Y15069D01*
X143807Y15109D01*
D02*
G37*
G36*
X142807D02*
X142610Y15069D01*
X142018Y14674D01*
X141623Y14083D01*
X141584Y13886D01*
X142807D01*
Y15109D01*
D02*
G37*
G36*
X74803Y14991D02*
X74189Y14869D01*
X73668Y14521D01*
X73320Y14000D01*
X73198Y13386D01*
X73320Y12771D01*
X73668Y12251D01*
X74189Y11902D01*
X74803Y11780D01*
X75418Y11902D01*
X75938Y12251D01*
X76287Y12771D01*
X76409Y13386D01*
X76287Y14000D01*
X75938Y14521D01*
X75418Y14869D01*
X74803Y14991D01*
D02*
G37*
G36*
X51181D02*
X50567Y14869D01*
X50046Y14521D01*
X49698Y14000D01*
X49575Y13386D01*
X49698Y12771D01*
X50046Y12251D01*
X50567Y11902D01*
X51181Y11780D01*
X51796Y11902D01*
X52316Y12251D01*
X52665Y12771D01*
X52787Y13386D01*
X52665Y14000D01*
X52316Y14521D01*
X51796Y14869D01*
X51181Y14991D01*
D02*
G37*
G36*
X145030Y12886D02*
X143807D01*
Y11663D01*
X144004Y11702D01*
X144596Y12097D01*
X144991Y12688D01*
X145030Y12886D01*
D02*
G37*
G36*
X142807D02*
X141584D01*
X141623Y12688D01*
X142018Y12097D01*
X142610Y11702D01*
X142807Y11663D01*
Y12886D01*
D02*
G37*
%LPD*%
D78*
X192126Y205511D02*
D03*
X115748Y137008D02*
D03*
X143307Y13386D02*
D03*
X110236Y215748D02*
D03*
X111811Y198425D02*
D03*
X99606Y155512D02*
D03*
X187402Y113386D02*
D03*
X41122Y183642D02*
D03*
Y89153D02*
D03*
Y41909D02*
D03*
X111811Y30709D02*
D03*
X93307Y31102D02*
D03*
X11122Y171555D02*
D03*
X127559Y268504D02*
D03*
X155118D02*
D03*
X120472Y328346D02*
D03*
M02*
