G04*
G04 #@! TF.GenerationSoftware,Altium Limited,Altium Designer,21.7.2 (23)*
G04*
G04 Layer_Color=32896*
%FSLAX25Y25*%
%MOIN*%
G70*
G04*
G04 #@! TF.SameCoordinates,50D7799F-02FE-4AD0-AE3F-70EE2030EBF6*
G04*
G04*
G04 #@! TF.FilePolarity,Positive*
G04*
G01*
G75*
%ADD15C,0.00394*%
%ADD91C,0.00197*%
D15*
X187401Y120079D02*
Y124016D01*
X185433Y122047D02*
X189370D01*
X172047Y118898D02*
X175984D01*
X174016Y116929D02*
Y120866D01*
X108268Y182677D02*
X112205D01*
X110236Y180709D02*
Y184646D01*
X108268Y172441D02*
X112205D01*
X110236Y170472D02*
Y174409D01*
X108268Y239370D02*
X112205D01*
X110236Y237402D02*
Y241339D01*
X141732Y204724D02*
Y212598D01*
X137795Y208661D02*
X145669D01*
X141732Y141732D02*
Y149606D01*
X137795Y145669D02*
X145669D01*
X41339Y363779D02*
X45276D01*
X43307Y361811D02*
Y365748D01*
Y379134D02*
Y383071D01*
X41339Y381102D02*
X45276D01*
X189764Y370472D02*
Y374409D01*
X187795Y372441D02*
X191732D01*
X189764Y383071D02*
Y387008D01*
X187795Y385039D02*
X191732D01*
D91*
X168209Y216929D02*
X171949D01*
X170079Y215059D02*
Y218799D01*
X106004Y222835D02*
X109744D01*
X107874Y220965D02*
Y224705D01*
X111516Y126772D02*
X115256D01*
X113386Y124902D02*
Y128642D01*
X172441Y154035D02*
Y157776D01*
X170571Y155905D02*
X174311D01*
X168209Y192913D02*
X171949D01*
X170079Y191043D02*
Y194783D01*
X176378Y131201D02*
Y134941D01*
X174508Y133071D02*
X178248D01*
X108661Y191831D02*
Y195571D01*
X106791Y193701D02*
X110531D01*
X106004Y152756D02*
X109744D01*
X107874Y150886D02*
Y154626D01*
X40650Y240945D02*
X44390D01*
X42520Y239075D02*
Y242815D01*
X39862Y146457D02*
X43602D01*
X41732Y144587D02*
Y148327D01*
X39862Y194488D02*
X43602D01*
X41732Y192618D02*
Y196358D01*
X39862Y51968D02*
X43602D01*
X41732Y50098D02*
Y53839D01*
X39862Y99213D02*
X43602D01*
X41732Y97342D02*
Y101083D01*
X187106Y365354D02*
X190847D01*
X188976Y363484D02*
Y367224D01*
M02*
