G04*
G04 #@! TF.GenerationSoftware,Altium Limited,Altium Designer,21.7.2 (23)*
G04*
G04 Layer_Color=8388736*
%FSLAX25Y25*%
%MOIN*%
G70*
G04*
G04 #@! TF.SameCoordinates,50D7799F-02FE-4AD0-AE3F-70EE2030EBF6*
G04*
G04*
G04 #@! TF.FilePolarity,Positive*
G04*
G01*
G75*
%ADD15C,0.00394*%
%ADD16C,0.00787*%
G36*
X171326Y233856D02*
X171445Y233849D01*
X171556Y233836D01*
X171659Y233819D01*
X171751Y233800D01*
X171833Y233781D01*
X171909Y233756D01*
X171977Y233734D01*
X172035Y233710D01*
X172086Y233688D01*
X172127Y233669D01*
X172161Y233649D01*
X172188Y233632D01*
X172208Y233620D01*
X172217Y233613D01*
X172222Y233610D01*
X172268Y233569D01*
X172307Y233525D01*
X172344Y233479D01*
X172373Y233433D01*
X172397Y233384D01*
X172419Y233338D01*
X172436Y233290D01*
X172451Y233246D01*
X172460Y233202D01*
X172468Y233163D01*
X172475Y233127D01*
X172477Y233098D01*
X172480Y233071D01*
X172482Y233054D01*
Y233037D01*
X172480Y232986D01*
X172475Y232937D01*
X172468Y232891D01*
X172460Y232847D01*
X172448Y232808D01*
X172436Y232770D01*
X172424Y232736D01*
X172409Y232704D01*
X172395Y232677D01*
X172383Y232651D01*
X172371Y232631D01*
X172358Y232612D01*
X172351Y232599D01*
X172344Y232587D01*
X172339Y232582D01*
X172336Y232580D01*
X172307Y232546D01*
X172276Y232517D01*
X172208Y232461D01*
X172137Y232412D01*
X172072Y232373D01*
X172040Y232359D01*
X172011Y232344D01*
X171984Y232332D01*
X171960Y232323D01*
X171943Y232315D01*
X171928Y232310D01*
X171918Y232306D01*
X171916D01*
X171863Y232289D01*
X171807Y232274D01*
X171688Y232252D01*
X171569Y232235D01*
X171510Y232230D01*
X171454Y232225D01*
X171401Y232220D01*
X171352Y232218D01*
X171309Y232216D01*
X171270D01*
X171240Y232213D01*
X171216D01*
X171202D01*
X171197D01*
X171129D01*
X171063Y232216D01*
X171002Y232218D01*
X170947Y232223D01*
X170893Y232228D01*
X170844Y232233D01*
X170798Y232238D01*
X170759Y232242D01*
X170723Y232247D01*
X170691Y232252D01*
X170665Y232257D01*
X170643Y232262D01*
X170623Y232267D01*
X170611Y232269D01*
X170604Y232272D01*
X170601D01*
X170521Y232293D01*
X170451Y232320D01*
X170385Y232344D01*
X170358Y232359D01*
X170332Y232371D01*
X170307Y232381D01*
X170288Y232393D01*
X170268Y232403D01*
X170254Y232410D01*
X170242Y232417D01*
X170235Y232422D01*
X170230Y232427D01*
X170227D01*
X170174Y232466D01*
X170125Y232510D01*
X170086Y232551D01*
X170052Y232590D01*
X170026Y232626D01*
X170006Y232653D01*
X170001Y232665D01*
X169996Y232672D01*
X169992Y232677D01*
Y232680D01*
X169965Y232738D01*
X169943Y232801D01*
X169928Y232859D01*
X169919Y232915D01*
X169916Y232942D01*
X169914Y232964D01*
X169911Y232986D01*
X169909Y233003D01*
Y233037D01*
X169911Y233088D01*
X169916Y233134D01*
X169923Y233180D01*
X169931Y233224D01*
X169943Y233265D01*
X169955Y233302D01*
X169970Y233336D01*
X169982Y233367D01*
X169996Y233397D01*
X170011Y233421D01*
X170023Y233443D01*
X170033Y233460D01*
X170043Y233474D01*
X170050Y233487D01*
X170055Y233491D01*
X170057Y233494D01*
X170086Y233528D01*
X170118Y233557D01*
X170186Y233613D01*
X170256Y233661D01*
X170322Y233700D01*
X170354Y233715D01*
X170383Y233730D01*
X170410Y233742D01*
X170434Y233751D01*
X170451Y233759D01*
X170465Y233764D01*
X170475Y233768D01*
X170477D01*
X170531Y233783D01*
X170587Y233798D01*
X170703Y233819D01*
X170825Y233836D01*
X170883Y233841D01*
X170939Y233846D01*
X170993Y233851D01*
X171041Y233853D01*
X171085Y233856D01*
X171122D01*
X171153Y233858D01*
X171177D01*
X171192D01*
X171194D01*
X171197D01*
X171326Y233856D01*
D02*
G37*
G36*
X172441Y231372D02*
X172089D01*
Y231725D01*
X172441D01*
Y231372D01*
D02*
G37*
G36*
X170820Y230626D02*
X170793Y230571D01*
X170767Y230517D01*
X170742Y230466D01*
X170718Y230422D01*
X170708Y230405D01*
X170699Y230388D01*
X170691Y230376D01*
X170686Y230366D01*
X170682Y230362D01*
Y230359D01*
X170643Y230293D01*
X170604Y230235D01*
X170567Y230184D01*
X170536Y230143D01*
X170509Y230109D01*
X170487Y230082D01*
X170480Y230075D01*
X170475Y230067D01*
X170470Y230065D01*
Y230063D01*
X172441D01*
Y229754D01*
X169909D01*
Y229953D01*
X169940Y229970D01*
X169972Y229990D01*
X170033Y230031D01*
X170089Y230077D01*
X170140Y230123D01*
X170164Y230145D01*
X170186Y230165D01*
X170203Y230182D01*
X170220Y230199D01*
X170232Y230211D01*
X170242Y230221D01*
X170247Y230228D01*
X170249Y230230D01*
X170312Y230306D01*
X170368Y230383D01*
X170417Y230459D01*
X170460Y230529D01*
X170480Y230561D01*
X170494Y230590D01*
X170509Y230617D01*
X170521Y230639D01*
X170531Y230658D01*
X170538Y230670D01*
X170541Y230680D01*
X170543Y230682D01*
X170842D01*
X170820Y230626D01*
D02*
G37*
G36*
X173141Y227548D02*
X172259D01*
X172302Y227511D01*
X172339Y227477D01*
X172368Y227448D01*
X172390Y227421D01*
X172407Y227399D01*
X172417Y227382D01*
X172424Y227370D01*
X172426Y227368D01*
X172446Y227324D01*
X172458Y227280D01*
X172468Y227239D01*
X172475Y227200D01*
X172480Y227166D01*
X172482Y227139D01*
Y227115D01*
X172480Y227057D01*
X172473Y227003D01*
X172460Y226955D01*
X172448Y226913D01*
X172436Y226879D01*
X172424Y226855D01*
X172422Y226845D01*
X172417Y226838D01*
X172414Y226836D01*
Y226833D01*
X172390Y226799D01*
X172361Y226767D01*
X172332Y226738D01*
X172300Y226712D01*
X172271Y226690D01*
X172247Y226670D01*
X172237Y226665D01*
X172230Y226661D01*
X172227Y226656D01*
X172441D01*
Y226379D01*
X170614D01*
Y226682D01*
X171394D01*
X171469D01*
X171537Y226685D01*
X171600Y226687D01*
X171656Y226690D01*
X171705Y226692D01*
X171748Y226697D01*
X171787Y226702D01*
X171821Y226704D01*
X171851Y226709D01*
X171872Y226714D01*
X171892Y226719D01*
X171909Y226721D01*
X171918Y226724D01*
X171928Y226726D01*
X171931Y226729D01*
X171933D01*
X171974Y226748D01*
X172013Y226770D01*
X172047Y226797D01*
X172074Y226821D01*
X172098Y226845D01*
X172113Y226865D01*
X172125Y226877D01*
X172127Y226879D01*
Y226882D01*
X172152Y226923D01*
X172171Y226964D01*
X172183Y227006D01*
X172193Y227045D01*
X172198Y227079D01*
X172200Y227103D01*
X172203Y227113D01*
Y227127D01*
X172200Y227176D01*
X172191Y227220D01*
X172181Y227258D01*
X172166Y227292D01*
X172154Y227322D01*
X172142Y227343D01*
X172135Y227356D01*
X172132Y227360D01*
X172103Y227395D01*
X172072Y227424D01*
X172038Y227450D01*
X172006Y227470D01*
X171979Y227484D01*
X171955Y227497D01*
X171940Y227501D01*
X171938Y227504D01*
X171935D01*
X171909Y227511D01*
X171875Y227518D01*
X171838Y227523D01*
X171797Y227528D01*
X171753Y227533D01*
X171707Y227538D01*
X171615Y227543D01*
X171571D01*
X171527Y227545D01*
X171491D01*
X171457Y227548D01*
X171428D01*
X171408D01*
X171394D01*
X171389D01*
X170614D01*
Y227854D01*
X173141D01*
Y227548D01*
D02*
G37*
G36*
X172441Y225477D02*
X171294D01*
Y224294D01*
X170998D01*
Y225477D01*
X170215D01*
Y224109D01*
X169919D01*
Y225810D01*
X172441D01*
Y225477D01*
D02*
G37*
G36*
X112270Y228344D02*
X112390Y228337D01*
X112501Y228325D01*
X112603Y228308D01*
X112696Y228288D01*
X112778Y228269D01*
X112854Y228244D01*
X112922Y228222D01*
X112980Y228198D01*
X113031Y228176D01*
X113072Y228157D01*
X113106Y228137D01*
X113133Y228120D01*
X113153Y228108D01*
X113162Y228101D01*
X113167Y228099D01*
X113213Y228057D01*
X113252Y228013D01*
X113289Y227967D01*
X113318Y227921D01*
X113342Y227873D01*
X113364Y227826D01*
X113381Y227778D01*
X113396Y227734D01*
X113405Y227690D01*
X113413Y227652D01*
X113420Y227615D01*
X113422Y227586D01*
X113425Y227559D01*
X113427Y227542D01*
Y227525D01*
X113425Y227474D01*
X113420Y227426D01*
X113413Y227379D01*
X113405Y227336D01*
X113393Y227297D01*
X113381Y227258D01*
X113369Y227224D01*
X113354Y227192D01*
X113340Y227166D01*
X113328Y227139D01*
X113315Y227119D01*
X113303Y227100D01*
X113296Y227088D01*
X113289Y227076D01*
X113284Y227071D01*
X113281Y227068D01*
X113252Y227034D01*
X113221Y227005D01*
X113153Y226949D01*
X113082Y226901D01*
X113016Y226862D01*
X112985Y226847D01*
X112956Y226833D01*
X112929Y226820D01*
X112905Y226811D01*
X112888Y226803D01*
X112873Y226799D01*
X112863Y226794D01*
X112861D01*
X112808Y226777D01*
X112752Y226762D01*
X112633Y226740D01*
X112513Y226723D01*
X112455Y226718D01*
X112399Y226713D01*
X112346Y226709D01*
X112297Y226706D01*
X112253Y226704D01*
X112215D01*
X112185Y226701D01*
X112161D01*
X112146D01*
X112142D01*
X112074D01*
X112008Y226704D01*
X111947Y226706D01*
X111891Y226711D01*
X111838Y226716D01*
X111789Y226721D01*
X111743Y226726D01*
X111704Y226730D01*
X111668Y226735D01*
X111636Y226740D01*
X111609Y226745D01*
X111588Y226750D01*
X111568Y226755D01*
X111556Y226757D01*
X111549Y226760D01*
X111546D01*
X111466Y226782D01*
X111396Y226808D01*
X111330Y226833D01*
X111303Y226847D01*
X111277Y226859D01*
X111252Y226869D01*
X111233Y226881D01*
X111213Y226891D01*
X111199Y226898D01*
X111187Y226905D01*
X111179Y226910D01*
X111174Y226915D01*
X111172D01*
X111119Y226954D01*
X111070Y226998D01*
X111031Y227039D01*
X110997Y227078D01*
X110970Y227114D01*
X110951Y227141D01*
X110946Y227153D01*
X110941Y227161D01*
X110936Y227166D01*
Y227168D01*
X110910Y227226D01*
X110888Y227289D01*
X110873Y227348D01*
X110863Y227404D01*
X110861Y227430D01*
X110859Y227452D01*
X110856Y227474D01*
X110854Y227491D01*
Y227525D01*
X110856Y227576D01*
X110861Y227622D01*
X110868Y227668D01*
X110876Y227712D01*
X110888Y227753D01*
X110900Y227790D01*
X110915Y227824D01*
X110927Y227856D01*
X110941Y227885D01*
X110956Y227909D01*
X110968Y227931D01*
X110978Y227948D01*
X110987Y227962D01*
X110995Y227975D01*
X111000Y227979D01*
X111002Y227982D01*
X111031Y228016D01*
X111063Y228045D01*
X111131Y228101D01*
X111201Y228150D01*
X111267Y228188D01*
X111299Y228203D01*
X111328Y228218D01*
X111354Y228230D01*
X111379Y228239D01*
X111396Y228247D01*
X111410Y228252D01*
X111420Y228257D01*
X111422D01*
X111476Y228271D01*
X111532Y228286D01*
X111648Y228308D01*
X111770Y228325D01*
X111828Y228329D01*
X111884Y228334D01*
X111938Y228339D01*
X111986Y228342D01*
X112030Y228344D01*
X112066D01*
X112098Y228346D01*
X112122D01*
X112137D01*
X112139D01*
X112142D01*
X112270Y228344D01*
D02*
G37*
G36*
X113386Y225861D02*
X113033D01*
Y226213D01*
X113386D01*
Y225861D01*
D02*
G37*
G36*
X111765Y225115D02*
X111738Y225059D01*
X111712Y225005D01*
X111687Y224954D01*
X111663Y224910D01*
X111653Y224893D01*
X111644Y224876D01*
X111636Y224864D01*
X111631Y224855D01*
X111627Y224850D01*
Y224847D01*
X111588Y224782D01*
X111549Y224723D01*
X111512Y224672D01*
X111481Y224631D01*
X111454Y224597D01*
X111432Y224570D01*
X111425Y224563D01*
X111420Y224556D01*
X111415Y224553D01*
Y224551D01*
X113386D01*
Y224242D01*
X110854D01*
Y224441D01*
X110885Y224459D01*
X110917Y224478D01*
X110978Y224519D01*
X111034Y224565D01*
X111085Y224611D01*
X111109Y224633D01*
X111131Y224653D01*
X111148Y224670D01*
X111165Y224687D01*
X111177Y224699D01*
X111187Y224709D01*
X111191Y224716D01*
X111194Y224718D01*
X111257Y224794D01*
X111313Y224872D01*
X111362Y224947D01*
X111405Y225017D01*
X111425Y225049D01*
X111439Y225078D01*
X111454Y225105D01*
X111466Y225127D01*
X111476Y225146D01*
X111483Y225158D01*
X111486Y225168D01*
X111488Y225170D01*
X111787D01*
X111765Y225115D01*
D02*
G37*
G36*
X114086Y222036D02*
X113204D01*
X113247Y221999D01*
X113284Y221965D01*
X113313Y221936D01*
X113335Y221909D01*
X113352Y221887D01*
X113362Y221870D01*
X113369Y221858D01*
X113371Y221856D01*
X113391Y221812D01*
X113403Y221768D01*
X113413Y221727D01*
X113420Y221688D01*
X113425Y221654D01*
X113427Y221627D01*
Y221603D01*
X113425Y221545D01*
X113417Y221491D01*
X113405Y221443D01*
X113393Y221402D01*
X113381Y221368D01*
X113369Y221343D01*
X113366Y221334D01*
X113362Y221326D01*
X113359Y221324D01*
Y221321D01*
X113335Y221287D01*
X113306Y221256D01*
X113277Y221227D01*
X113245Y221200D01*
X113216Y221178D01*
X113191Y221159D01*
X113182Y221154D01*
X113174Y221149D01*
X113172Y221144D01*
X113386D01*
Y220867D01*
X111558D01*
Y221171D01*
X112338D01*
X112414D01*
X112482Y221173D01*
X112545Y221176D01*
X112601Y221178D01*
X112650Y221180D01*
X112693Y221185D01*
X112732Y221190D01*
X112766Y221193D01*
X112795Y221197D01*
X112817Y221202D01*
X112837Y221207D01*
X112854Y221210D01*
X112863Y221212D01*
X112873Y221214D01*
X112875Y221217D01*
X112878D01*
X112919Y221236D01*
X112958Y221258D01*
X112992Y221285D01*
X113019Y221309D01*
X113043Y221334D01*
X113058Y221353D01*
X113070Y221365D01*
X113072Y221368D01*
Y221370D01*
X113097Y221411D01*
X113116Y221453D01*
X113128Y221494D01*
X113138Y221533D01*
X113143Y221567D01*
X113145Y221591D01*
X113148Y221601D01*
Y221615D01*
X113145Y221664D01*
X113136Y221708D01*
X113126Y221747D01*
X113111Y221781D01*
X113099Y221810D01*
X113087Y221832D01*
X113080Y221844D01*
X113077Y221849D01*
X113048Y221883D01*
X113016Y221912D01*
X112982Y221938D01*
X112951Y221958D01*
X112924Y221973D01*
X112900Y221985D01*
X112885Y221990D01*
X112883Y221992D01*
X112880D01*
X112854Y221999D01*
X112820Y222007D01*
X112783Y222011D01*
X112742Y222016D01*
X112698Y222021D01*
X112652Y222026D01*
X112560Y222031D01*
X112516D01*
X112472Y222033D01*
X112436D01*
X112402Y222036D01*
X112373D01*
X112353D01*
X112338D01*
X112334D01*
X111558D01*
Y222342D01*
X114086D01*
Y222036D01*
D02*
G37*
G36*
X113386Y219965D02*
X112239D01*
Y218782D01*
X111942D01*
Y219965D01*
X111160D01*
Y218597D01*
X110863D01*
Y220298D01*
X113386D01*
Y219965D01*
D02*
G37*
G36*
X113058Y143305D02*
X113177Y143297D01*
X113289Y143285D01*
X113391Y143268D01*
X113483Y143249D01*
X113566Y143229D01*
X113641Y143205D01*
X113709Y143183D01*
X113767Y143159D01*
X113819Y143137D01*
X113860Y143118D01*
X113894Y143098D01*
X113920Y143081D01*
X113940Y143069D01*
X113950Y143062D01*
X113954Y143059D01*
X114001Y143018D01*
X114040Y142974D01*
X114076Y142928D01*
X114105Y142882D01*
X114129Y142833D01*
X114151Y142787D01*
X114168Y142738D01*
X114183Y142695D01*
X114193Y142651D01*
X114200Y142612D01*
X114207Y142576D01*
X114210Y142546D01*
X114212Y142520D01*
X114215Y142503D01*
Y142486D01*
X114212Y142435D01*
X114207Y142386D01*
X114200Y142340D01*
X114193Y142296D01*
X114181Y142257D01*
X114168Y142218D01*
X114156Y142184D01*
X114142Y142153D01*
X114127Y142126D01*
X114115Y142099D01*
X114103Y142080D01*
X114091Y142060D01*
X114083Y142048D01*
X114076Y142036D01*
X114071Y142031D01*
X114069Y142029D01*
X114040Y141995D01*
X114008Y141966D01*
X113940Y141910D01*
X113870Y141861D01*
X113804Y141822D01*
X113772Y141808D01*
X113743Y141793D01*
X113716Y141781D01*
X113692Y141771D01*
X113675Y141764D01*
X113661Y141759D01*
X113651Y141754D01*
X113648D01*
X113595Y141737D01*
X113539Y141723D01*
X113420Y141701D01*
X113301Y141684D01*
X113242Y141679D01*
X113187Y141674D01*
X113133Y141669D01*
X113085Y141667D01*
X113041Y141664D01*
X113002D01*
X112973Y141662D01*
X112949D01*
X112934D01*
X112929D01*
X112861D01*
X112795Y141664D01*
X112735Y141667D01*
X112679Y141672D01*
X112625Y141677D01*
X112577Y141681D01*
X112531Y141686D01*
X112492Y141691D01*
X112455Y141696D01*
X112424Y141701D01*
X112397Y141706D01*
X112375Y141711D01*
X112356Y141715D01*
X112343Y141718D01*
X112336Y141720D01*
X112334D01*
X112253Y141742D01*
X112183Y141769D01*
X112118Y141793D01*
X112091Y141808D01*
X112064Y141820D01*
X112040Y141830D01*
X112020Y141842D01*
X112001Y141851D01*
X111986Y141859D01*
X111974Y141866D01*
X111967Y141871D01*
X111962Y141876D01*
X111960D01*
X111906Y141915D01*
X111857Y141958D01*
X111819Y142000D01*
X111785Y142039D01*
X111758Y142075D01*
X111738Y142102D01*
X111733Y142114D01*
X111729Y142121D01*
X111724Y142126D01*
Y142129D01*
X111697Y142187D01*
X111675Y142250D01*
X111661Y142308D01*
X111651Y142364D01*
X111648Y142391D01*
X111646Y142413D01*
X111644Y142435D01*
X111641Y142452D01*
Y142486D01*
X111644Y142537D01*
X111648Y142583D01*
X111656Y142629D01*
X111663Y142673D01*
X111675Y142714D01*
X111687Y142751D01*
X111702Y142785D01*
X111714Y142816D01*
X111729Y142845D01*
X111743Y142870D01*
X111755Y142892D01*
X111765Y142909D01*
X111775Y142923D01*
X111782Y142935D01*
X111787Y142940D01*
X111789Y142943D01*
X111819Y142977D01*
X111850Y143006D01*
X111918Y143062D01*
X111989Y143110D01*
X112054Y143149D01*
X112086Y143164D01*
X112115Y143178D01*
X112142Y143191D01*
X112166Y143200D01*
X112183Y143208D01*
X112198Y143212D01*
X112207Y143217D01*
X112210D01*
X112263Y143232D01*
X112319Y143246D01*
X112436Y143268D01*
X112557Y143285D01*
X112616Y143290D01*
X112671Y143295D01*
X112725Y143300D01*
X112774Y143302D01*
X112817Y143305D01*
X112854D01*
X112885Y143307D01*
X112910D01*
X112924D01*
X112927D01*
X112929D01*
X113058Y143305D01*
D02*
G37*
G36*
X114173Y140821D02*
X113821D01*
Y141174D01*
X114173D01*
Y140821D01*
D02*
G37*
G36*
X112552Y140075D02*
X112526Y140019D01*
X112499Y139966D01*
X112475Y139915D01*
X112450Y139871D01*
X112441Y139854D01*
X112431Y139837D01*
X112424Y139825D01*
X112419Y139815D01*
X112414Y139810D01*
Y139808D01*
X112375Y139742D01*
X112336Y139684D01*
X112300Y139633D01*
X112268Y139592D01*
X112241Y139558D01*
X112220Y139531D01*
X112212Y139524D01*
X112207Y139516D01*
X112203Y139514D01*
Y139511D01*
X114173D01*
Y139203D01*
X111641D01*
Y139402D01*
X111673Y139419D01*
X111704Y139438D01*
X111765Y139480D01*
X111821Y139526D01*
X111872Y139572D01*
X111896Y139594D01*
X111918Y139613D01*
X111935Y139630D01*
X111952Y139647D01*
X111964Y139660D01*
X111974Y139669D01*
X111979Y139677D01*
X111981Y139679D01*
X112045Y139754D01*
X112100Y139832D01*
X112149Y139908D01*
X112193Y139978D01*
X112212Y140010D01*
X112227Y140039D01*
X112241Y140066D01*
X112253Y140087D01*
X112263Y140107D01*
X112270Y140119D01*
X112273Y140129D01*
X112275Y140131D01*
X112574D01*
X112552Y140075D01*
D02*
G37*
G36*
X114873Y136996D02*
X113991D01*
X114035Y136960D01*
X114071Y136926D01*
X114100Y136897D01*
X114122Y136870D01*
X114139Y136848D01*
X114149Y136831D01*
X114156Y136819D01*
X114159Y136817D01*
X114178Y136773D01*
X114190Y136729D01*
X114200Y136688D01*
X114207Y136649D01*
X114212Y136615D01*
X114215Y136588D01*
Y136564D01*
X114212Y136505D01*
X114205Y136452D01*
X114193Y136404D01*
X114181Y136362D01*
X114168Y136328D01*
X114156Y136304D01*
X114154Y136294D01*
X114149Y136287D01*
X114146Y136284D01*
Y136282D01*
X114122Y136248D01*
X114093Y136216D01*
X114064Y136187D01*
X114032Y136161D01*
X114003Y136139D01*
X113979Y136119D01*
X113969Y136114D01*
X113962Y136109D01*
X113959Y136105D01*
X114173D01*
Y135828D01*
X112346D01*
Y136131D01*
X113126D01*
X113201D01*
X113269Y136134D01*
X113332Y136136D01*
X113388Y136139D01*
X113437Y136141D01*
X113481Y136146D01*
X113520Y136151D01*
X113554Y136153D01*
X113583Y136158D01*
X113605Y136163D01*
X113624Y136168D01*
X113641Y136170D01*
X113651Y136173D01*
X113661Y136175D01*
X113663Y136178D01*
X113665D01*
X113707Y136197D01*
X113746Y136219D01*
X113780Y136246D01*
X113806Y136270D01*
X113831Y136294D01*
X113845Y136314D01*
X113857Y136326D01*
X113860Y136328D01*
Y136331D01*
X113884Y136372D01*
X113903Y136413D01*
X113916Y136454D01*
X113925Y136493D01*
X113930Y136527D01*
X113933Y136552D01*
X113935Y136561D01*
Y136576D01*
X113933Y136625D01*
X113923Y136668D01*
X113913Y136707D01*
X113899Y136741D01*
X113886Y136770D01*
X113874Y136792D01*
X113867Y136804D01*
X113865Y136809D01*
X113836Y136843D01*
X113804Y136872D01*
X113770Y136899D01*
X113738Y136919D01*
X113712Y136933D01*
X113687Y136945D01*
X113673Y136950D01*
X113670Y136953D01*
X113668D01*
X113641Y136960D01*
X113607Y136967D01*
X113571Y136972D01*
X113529Y136977D01*
X113486Y136982D01*
X113439Y136987D01*
X113347Y136992D01*
X113303D01*
X113259Y136994D01*
X113223D01*
X113189Y136996D01*
X113160D01*
X113140D01*
X113126D01*
X113121D01*
X112346D01*
Y137303D01*
X114873D01*
Y136996D01*
D02*
G37*
G36*
X114173Y134926D02*
X113026D01*
Y133743D01*
X112730D01*
Y134926D01*
X111947D01*
Y133558D01*
X111651D01*
Y135259D01*
X114173D01*
Y134926D01*
D02*
G37*
G36*
X185876Y156831D02*
X185895Y156800D01*
X185936Y156739D01*
X185983Y156683D01*
X186029Y156632D01*
X186051Y156608D01*
X186070Y156586D01*
X186087Y156569D01*
X186104Y156552D01*
X186116Y156540D01*
X186126Y156530D01*
X186133Y156525D01*
X186136Y156523D01*
X186211Y156459D01*
X186289Y156404D01*
X186364Y156355D01*
X186435Y156311D01*
X186466Y156292D01*
X186495Y156277D01*
X186522Y156263D01*
X186544Y156250D01*
X186564Y156241D01*
X186576Y156233D01*
X186585Y156231D01*
X186588Y156228D01*
Y155930D01*
X186532Y155951D01*
X186476Y155978D01*
X186423Y156005D01*
X186372Y156029D01*
X186328Y156054D01*
X186311Y156063D01*
X186294Y156073D01*
X186282Y156080D01*
X186272Y156085D01*
X186267Y156090D01*
X186265D01*
X186199Y156129D01*
X186141Y156168D01*
X186090Y156204D01*
X186048Y156236D01*
X186014Y156263D01*
X185988Y156284D01*
X185980Y156292D01*
X185973Y156297D01*
X185971Y156301D01*
X185968D01*
Y154331D01*
X185660D01*
Y156863D01*
X185859D01*
X185876Y156831D01*
D02*
G37*
G36*
X183759Y153631D02*
X183453D01*
Y154513D01*
X183417Y154469D01*
X183383Y154433D01*
X183353Y154404D01*
X183327Y154382D01*
X183305Y154365D01*
X183288Y154355D01*
X183276Y154348D01*
X183273Y154345D01*
X183229Y154326D01*
X183186Y154314D01*
X183144Y154304D01*
X183106Y154297D01*
X183072Y154292D01*
X183045Y154289D01*
X183020D01*
X182962Y154292D01*
X182909Y154299D01*
X182860Y154311D01*
X182819Y154323D01*
X182785Y154336D01*
X182761Y154348D01*
X182751Y154350D01*
X182744Y154355D01*
X182741Y154357D01*
X182739D01*
X182705Y154382D01*
X182673Y154411D01*
X182644Y154440D01*
X182617Y154472D01*
X182595Y154501D01*
X182576Y154525D01*
X182571Y154535D01*
X182566Y154542D01*
X182561Y154545D01*
Y154331D01*
X182284D01*
Y156158D01*
X182588D01*
Y155378D01*
Y155303D01*
X182590Y155235D01*
X182593Y155172D01*
X182595Y155116D01*
X182598Y155067D01*
X182603Y155023D01*
X182607Y154984D01*
X182610Y154950D01*
X182615Y154921D01*
X182620Y154899D01*
X182624Y154880D01*
X182627Y154863D01*
X182629Y154853D01*
X182632Y154843D01*
X182634Y154841D01*
Y154839D01*
X182654Y154797D01*
X182676Y154758D01*
X182702Y154724D01*
X182727Y154698D01*
X182751Y154673D01*
X182770Y154659D01*
X182782Y154647D01*
X182785Y154644D01*
X182787D01*
X182829Y154620D01*
X182870Y154600D01*
X182911Y154588D01*
X182950Y154579D01*
X182984Y154574D01*
X183008Y154571D01*
X183018Y154569D01*
X183033D01*
X183081Y154571D01*
X183125Y154581D01*
X183164Y154591D01*
X183198Y154605D01*
X183227Y154618D01*
X183249Y154630D01*
X183261Y154637D01*
X183266Y154639D01*
X183300Y154668D01*
X183329Y154700D01*
X183356Y154734D01*
X183375Y154766D01*
X183390Y154792D01*
X183402Y154817D01*
X183407Y154831D01*
X183409Y154834D01*
Y154836D01*
X183417Y154863D01*
X183424Y154897D01*
X183429Y154933D01*
X183434Y154975D01*
X183439Y155018D01*
X183443Y155065D01*
X183448Y155157D01*
Y155201D01*
X183451Y155244D01*
Y155281D01*
X183453Y155315D01*
Y155344D01*
Y155364D01*
Y155378D01*
Y155383D01*
Y156158D01*
X183759D01*
Y153631D01*
D02*
G37*
G36*
X187630Y154331D02*
X187278D01*
Y154683D01*
X187630D01*
Y154331D01*
D02*
G37*
G36*
X181716D02*
X181383D01*
Y155478D01*
X180199D01*
Y155774D01*
X181383D01*
Y156557D01*
X180015D01*
Y156853D01*
X181716D01*
Y154331D01*
D02*
G37*
G36*
X188994Y156860D02*
X189040Y156855D01*
X189086Y156848D01*
X189129Y156841D01*
X189171Y156829D01*
X189207Y156817D01*
X189241Y156802D01*
X189273Y156790D01*
X189302Y156775D01*
X189326Y156761D01*
X189348Y156749D01*
X189365Y156739D01*
X189380Y156729D01*
X189392Y156722D01*
X189397Y156717D01*
X189399Y156714D01*
X189433Y156685D01*
X189462Y156654D01*
X189518Y156586D01*
X189567Y156515D01*
X189606Y156450D01*
X189620Y156418D01*
X189635Y156389D01*
X189647Y156362D01*
X189657Y156338D01*
X189664Y156321D01*
X189669Y156306D01*
X189674Y156297D01*
Y156294D01*
X189688Y156241D01*
X189703Y156185D01*
X189725Y156068D01*
X189742Y155947D01*
X189747Y155888D01*
X189752Y155832D01*
X189757Y155779D01*
X189759Y155730D01*
X189761Y155687D01*
Y155650D01*
X189764Y155619D01*
Y155594D01*
Y155580D01*
Y155577D01*
Y155575D01*
X189761Y155446D01*
X189754Y155327D01*
X189742Y155215D01*
X189725Y155113D01*
X189706Y155021D01*
X189686Y154938D01*
X189662Y154863D01*
X189640Y154795D01*
X189616Y154736D01*
X189594Y154685D01*
X189574Y154644D01*
X189555Y154610D01*
X189538Y154583D01*
X189526Y154564D01*
X189518Y154554D01*
X189516Y154549D01*
X189475Y154503D01*
X189431Y154464D01*
X189385Y154428D01*
X189339Y154399D01*
X189290Y154375D01*
X189244Y154353D01*
X189195Y154336D01*
X189151Y154321D01*
X189108Y154311D01*
X189069Y154304D01*
X189032Y154297D01*
X189003Y154294D01*
X188977Y154292D01*
X188959Y154289D01*
X188942D01*
X188891Y154292D01*
X188843Y154297D01*
X188797Y154304D01*
X188753Y154311D01*
X188714Y154323D01*
X188675Y154336D01*
X188641Y154348D01*
X188610Y154362D01*
X188583Y154377D01*
X188556Y154389D01*
X188537Y154401D01*
X188517Y154413D01*
X188505Y154421D01*
X188493Y154428D01*
X188488Y154433D01*
X188486Y154435D01*
X188452Y154464D01*
X188422Y154496D01*
X188366Y154564D01*
X188318Y154634D01*
X188279Y154700D01*
X188265Y154732D01*
X188250Y154761D01*
X188238Y154788D01*
X188228Y154812D01*
X188221Y154829D01*
X188216Y154843D01*
X188211Y154853D01*
Y154856D01*
X188194Y154909D01*
X188179Y154965D01*
X188157Y155084D01*
X188140Y155203D01*
X188136Y155261D01*
X188131Y155317D01*
X188126Y155371D01*
X188124Y155419D01*
X188121Y155463D01*
Y155502D01*
X188119Y155531D01*
Y155555D01*
Y155570D01*
Y155575D01*
Y155643D01*
X188121Y155709D01*
X188124Y155769D01*
X188128Y155825D01*
X188133Y155879D01*
X188138Y155927D01*
X188143Y155973D01*
X188148Y156012D01*
X188153Y156049D01*
X188157Y156080D01*
X188162Y156107D01*
X188167Y156129D01*
X188172Y156148D01*
X188175Y156160D01*
X188177Y156168D01*
Y156170D01*
X188199Y156250D01*
X188226Y156321D01*
X188250Y156386D01*
X188265Y156413D01*
X188277Y156440D01*
X188286Y156464D01*
X188298Y156484D01*
X188308Y156503D01*
X188315Y156518D01*
X188323Y156530D01*
X188328Y156537D01*
X188332Y156542D01*
Y156544D01*
X188371Y156598D01*
X188415Y156647D01*
X188456Y156685D01*
X188495Y156719D01*
X188532Y156746D01*
X188558Y156766D01*
X188571Y156770D01*
X188578Y156775D01*
X188583Y156780D01*
X188585D01*
X188644Y156807D01*
X188707Y156829D01*
X188765Y156843D01*
X188821Y156853D01*
X188848Y156855D01*
X188870Y156858D01*
X188891Y156860D01*
X188908Y156863D01*
X188942D01*
X188994Y156860D01*
D02*
G37*
G36*
X165930Y117751D02*
X166627Y117070D01*
X166226D01*
X165492Y117816D01*
Y116375D01*
X165184D01*
Y118898D01*
X165492D01*
Y118176D01*
X165711Y117962D01*
X166314Y118898D01*
X166698D01*
X165930Y117751D01*
D02*
G37*
G36*
X162346Y116366D02*
X162146D01*
X162129Y116397D01*
X162110Y116429D01*
X162069Y116490D01*
X162022Y116545D01*
X161976Y116596D01*
X161954Y116621D01*
X161935Y116643D01*
X161918Y116660D01*
X161901Y116677D01*
X161889Y116689D01*
X161879Y116699D01*
X161872Y116703D01*
X161869Y116706D01*
X161794Y116769D01*
X161716Y116825D01*
X161641Y116874D01*
X161570Y116917D01*
X161539Y116937D01*
X161510Y116951D01*
X161483Y116966D01*
X161461Y116978D01*
X161442Y116988D01*
X161430Y116995D01*
X161420Y116997D01*
X161417Y117000D01*
Y117299D01*
X161473Y117277D01*
X161529Y117250D01*
X161583Y117223D01*
X161634Y117199D01*
X161677Y117175D01*
X161694Y117165D01*
X161711Y117155D01*
X161723Y117148D01*
X161733Y117143D01*
X161738Y117138D01*
X161741D01*
X161806Y117099D01*
X161864Y117061D01*
X161916Y117024D01*
X161957Y116992D01*
X161991Y116966D01*
X162018Y116944D01*
X162025Y116937D01*
X162032Y116932D01*
X162034Y116927D01*
X162037D01*
Y118898D01*
X162346D01*
Y116366D01*
D02*
G37*
G36*
X164010Y118937D02*
X164059Y118932D01*
X164105Y118924D01*
X164149Y118917D01*
X164188Y118905D01*
X164226Y118893D01*
X164260Y118881D01*
X164292Y118866D01*
X164319Y118851D01*
X164346Y118839D01*
X164365Y118827D01*
X164384Y118815D01*
X164397Y118808D01*
X164409Y118800D01*
X164413Y118796D01*
X164416Y118793D01*
X164450Y118764D01*
X164479Y118732D01*
X164535Y118664D01*
X164584Y118594D01*
X164622Y118528D01*
X164637Y118497D01*
X164652Y118467D01*
X164664Y118441D01*
X164673Y118417D01*
X164681Y118400D01*
X164686Y118385D01*
X164690Y118375D01*
Y118373D01*
X164708Y118319D01*
X164722Y118263D01*
X164744Y118144D01*
X164761Y118025D01*
X164766Y117967D01*
X164771Y117911D01*
X164776Y117858D01*
X164778Y117809D01*
X164780Y117765D01*
Y117726D01*
X164783Y117697D01*
Y117673D01*
Y117658D01*
Y117654D01*
Y117585D01*
X164780Y117520D01*
X164778Y117459D01*
X164773Y117403D01*
X164768Y117350D01*
X164763Y117301D01*
X164759Y117255D01*
X164754Y117216D01*
X164749Y117180D01*
X164744Y117148D01*
X164739Y117121D01*
X164734Y117099D01*
X164729Y117080D01*
X164727Y117068D01*
X164725Y117061D01*
Y117058D01*
X164703Y116978D01*
X164676Y116908D01*
X164652Y116842D01*
X164637Y116815D01*
X164625Y116788D01*
X164615Y116764D01*
X164603Y116745D01*
X164593Y116725D01*
X164586Y116711D01*
X164579Y116699D01*
X164574Y116691D01*
X164569Y116686D01*
Y116684D01*
X164530Y116630D01*
X164486Y116582D01*
X164445Y116543D01*
X164406Y116509D01*
X164370Y116482D01*
X164343Y116463D01*
X164331Y116458D01*
X164324Y116453D01*
X164319Y116448D01*
X164316D01*
X164258Y116421D01*
X164195Y116400D01*
X164137Y116385D01*
X164081Y116375D01*
X164054Y116373D01*
X164032Y116370D01*
X164010Y116368D01*
X163993Y116366D01*
X163959D01*
X163908Y116368D01*
X163862Y116373D01*
X163816Y116380D01*
X163772Y116387D01*
X163731Y116400D01*
X163694Y116412D01*
X163660Y116426D01*
X163629Y116438D01*
X163600Y116453D01*
X163575Y116468D01*
X163553Y116480D01*
X163536Y116490D01*
X163522Y116499D01*
X163510Y116507D01*
X163505Y116511D01*
X163502Y116514D01*
X163468Y116543D01*
X163439Y116575D01*
X163383Y116643D01*
X163335Y116713D01*
X163296Y116779D01*
X163281Y116810D01*
X163267Y116839D01*
X163254Y116866D01*
X163245Y116891D01*
X163237Y116908D01*
X163233Y116922D01*
X163228Y116932D01*
Y116934D01*
X163213Y116988D01*
X163198Y117044D01*
X163177Y117160D01*
X163160Y117282D01*
X163155Y117340D01*
X163150Y117396D01*
X163145Y117449D01*
X163143Y117498D01*
X163140Y117542D01*
Y117578D01*
X163138Y117610D01*
Y117634D01*
Y117649D01*
Y117651D01*
Y117654D01*
X163140Y117782D01*
X163147Y117901D01*
X163160Y118013D01*
X163177Y118115D01*
X163196Y118208D01*
X163215Y118290D01*
X163240Y118366D01*
X163262Y118433D01*
X163286Y118492D01*
X163308Y118543D01*
X163327Y118584D01*
X163347Y118618D01*
X163364Y118645D01*
X163376Y118664D01*
X163383Y118674D01*
X163386Y118679D01*
X163427Y118725D01*
X163471Y118764D01*
X163517Y118800D01*
X163563Y118830D01*
X163612Y118854D01*
X163658Y118876D01*
X163706Y118893D01*
X163750Y118907D01*
X163794Y118917D01*
X163833Y118924D01*
X163869Y118932D01*
X163898Y118934D01*
X163925Y118937D01*
X163942Y118939D01*
X163959D01*
X164010Y118937D01*
D02*
G37*
G36*
X104012Y178878D02*
X104032Y178847D01*
X104073Y178786D01*
X104119Y178730D01*
X104165Y178679D01*
X104187Y178655D01*
X104207Y178633D01*
X104224Y178616D01*
X104241Y178599D01*
X104253Y178587D01*
X104263Y178577D01*
X104270Y178572D01*
X104272Y178570D01*
X104348Y178507D01*
X104426Y178451D01*
X104501Y178402D01*
X104571Y178358D01*
X104603Y178339D01*
X104632Y178324D01*
X104659Y178310D01*
X104681Y178298D01*
X104700Y178288D01*
X104712Y178281D01*
X104722Y178278D01*
X104724Y178276D01*
Y177977D01*
X104668Y177999D01*
X104613Y178025D01*
X104559Y178052D01*
X104508Y178077D01*
X104464Y178101D01*
X104447Y178111D01*
X104430Y178120D01*
X104418Y178128D01*
X104409Y178132D01*
X104404Y178137D01*
X104401D01*
X104336Y178176D01*
X104277Y178215D01*
X104226Y178252D01*
X104185Y178283D01*
X104151Y178310D01*
X104124Y178332D01*
X104117Y178339D01*
X104110Y178344D01*
X104107Y178349D01*
X104105D01*
Y176378D01*
X103796D01*
Y178910D01*
X103995D01*
X104012Y178878D01*
D02*
G37*
G36*
X100958Y176378D02*
X100649D01*
Y177100D01*
X100431Y177313D01*
X99828Y176378D01*
X99444D01*
X100212Y177525D01*
X99515Y178205D01*
X99915D01*
X100649Y177459D01*
Y178900D01*
X100958D01*
Y176378D01*
D02*
G37*
G36*
X102234Y178908D02*
X102280Y178903D01*
X102326Y178895D01*
X102370Y178888D01*
X102411Y178876D01*
X102447Y178864D01*
X102481Y178849D01*
X102513Y178837D01*
X102542Y178823D01*
X102567Y178808D01*
X102588Y178796D01*
X102605Y178786D01*
X102620Y178776D01*
X102632Y178769D01*
X102637Y178764D01*
X102639Y178762D01*
X102673Y178733D01*
X102703Y178701D01*
X102759Y178633D01*
X102807Y178562D01*
X102846Y178497D01*
X102861Y178465D01*
X102875Y178436D01*
X102887Y178409D01*
X102897Y178385D01*
X102904Y178368D01*
X102909Y178354D01*
X102914Y178344D01*
Y178341D01*
X102929Y178288D01*
X102943Y178232D01*
X102965Y178115D01*
X102982Y177994D01*
X102987Y177936D01*
X102992Y177880D01*
X102997Y177826D01*
X102999Y177778D01*
X103001Y177734D01*
Y177697D01*
X103004Y177666D01*
Y177642D01*
Y177627D01*
Y177624D01*
Y177622D01*
X103001Y177493D01*
X102994Y177374D01*
X102982Y177262D01*
X102965Y177160D01*
X102946Y177068D01*
X102926Y176985D01*
X102902Y176910D01*
X102880Y176842D01*
X102856Y176784D01*
X102834Y176733D01*
X102814Y176691D01*
X102795Y176657D01*
X102778Y176631D01*
X102766Y176611D01*
X102759Y176602D01*
X102756Y176597D01*
X102715Y176550D01*
X102671Y176512D01*
X102625Y176475D01*
X102579Y176446D01*
X102530Y176422D01*
X102484Y176400D01*
X102435Y176383D01*
X102392Y176368D01*
X102348Y176358D01*
X102309Y176351D01*
X102272Y176344D01*
X102243Y176341D01*
X102217Y176339D01*
X102200Y176337D01*
X102183D01*
X102132Y176339D01*
X102083Y176344D01*
X102037Y176351D01*
X101993Y176358D01*
X101954Y176371D01*
X101915Y176383D01*
X101881Y176395D01*
X101850Y176409D01*
X101823Y176424D01*
X101796Y176436D01*
X101777Y176448D01*
X101757Y176461D01*
X101745Y176468D01*
X101733Y176475D01*
X101728Y176480D01*
X101726Y176482D01*
X101692Y176512D01*
X101663Y176543D01*
X101607Y176611D01*
X101558Y176682D01*
X101519Y176747D01*
X101505Y176779D01*
X101490Y176808D01*
X101478Y176835D01*
X101468Y176859D01*
X101461Y176876D01*
X101456Y176891D01*
X101451Y176900D01*
Y176903D01*
X101434Y176956D01*
X101420Y177012D01*
X101398Y177131D01*
X101381Y177250D01*
X101376Y177309D01*
X101371Y177365D01*
X101366Y177418D01*
X101364Y177467D01*
X101361Y177510D01*
Y177549D01*
X101359Y177578D01*
Y177603D01*
Y177617D01*
Y177622D01*
Y177690D01*
X101361Y177756D01*
X101364Y177816D01*
X101369Y177872D01*
X101373Y177926D01*
X101378Y177974D01*
X101383Y178021D01*
X101388Y178059D01*
X101393Y178096D01*
X101398Y178128D01*
X101403Y178154D01*
X101408Y178176D01*
X101412Y178196D01*
X101415Y178208D01*
X101417Y178215D01*
Y178217D01*
X101439Y178298D01*
X101466Y178368D01*
X101490Y178434D01*
X101505Y178461D01*
X101517Y178487D01*
X101526Y178512D01*
X101539Y178531D01*
X101548Y178550D01*
X101556Y178565D01*
X101563Y178577D01*
X101568Y178584D01*
X101573Y178589D01*
Y178592D01*
X101612Y178645D01*
X101655Y178694D01*
X101697Y178733D01*
X101735Y178767D01*
X101772Y178793D01*
X101799Y178813D01*
X101811Y178818D01*
X101818Y178823D01*
X101823Y178827D01*
X101825D01*
X101884Y178854D01*
X101947Y178876D01*
X102005Y178891D01*
X102061Y178900D01*
X102088Y178903D01*
X102110Y178905D01*
X102132Y178908D01*
X102149Y178910D01*
X102183D01*
X102234Y178908D01*
D02*
G37*
G36*
X169751Y208659D02*
X169870Y208652D01*
X169982Y208640D01*
X170084Y208623D01*
X170176Y208603D01*
X170259Y208584D01*
X170334Y208559D01*
X170402Y208538D01*
X170460Y208513D01*
X170511Y208491D01*
X170553Y208472D01*
X170587Y208452D01*
X170613Y208435D01*
X170633Y208423D01*
X170643Y208416D01*
X170647Y208414D01*
X170694Y208372D01*
X170732Y208329D01*
X170769Y208282D01*
X170798Y208236D01*
X170822Y208188D01*
X170844Y208141D01*
X170861Y208093D01*
X170876Y208049D01*
X170886Y208005D01*
X170893Y207966D01*
X170900Y207930D01*
X170903Y207901D01*
X170905Y207874D01*
X170907Y207857D01*
Y207840D01*
X170905Y207789D01*
X170900Y207740D01*
X170893Y207694D01*
X170886Y207650D01*
X170873Y207612D01*
X170861Y207573D01*
X170849Y207539D01*
X170835Y207507D01*
X170820Y207480D01*
X170808Y207454D01*
X170796Y207434D01*
X170783Y207415D01*
X170776Y207403D01*
X170769Y207390D01*
X170764Y207386D01*
X170762Y207383D01*
X170732Y207349D01*
X170701Y207320D01*
X170633Y207264D01*
X170562Y207216D01*
X170497Y207177D01*
X170465Y207162D01*
X170436Y207148D01*
X170409Y207135D01*
X170385Y207126D01*
X170368Y207118D01*
X170353Y207114D01*
X170344Y207109D01*
X170341D01*
X170288Y207092D01*
X170232Y207077D01*
X170113Y207055D01*
X169994Y207038D01*
X169935Y207033D01*
X169880Y207029D01*
X169826Y207024D01*
X169778Y207021D01*
X169734Y207019D01*
X169695D01*
X169666Y207016D01*
X169641D01*
X169627D01*
X169622D01*
X169554D01*
X169488Y207019D01*
X169428Y207021D01*
X169372Y207026D01*
X169318Y207031D01*
X169270Y207036D01*
X169223Y207041D01*
X169185Y207046D01*
X169148Y207050D01*
X169116Y207055D01*
X169090Y207060D01*
X169068Y207065D01*
X169049Y207070D01*
X169036Y207072D01*
X169029Y207075D01*
X169027D01*
X168946Y207097D01*
X168876Y207123D01*
X168810Y207148D01*
X168784Y207162D01*
X168757Y207174D01*
X168733Y207184D01*
X168713Y207196D01*
X168694Y207206D01*
X168679Y207213D01*
X168667Y207220D01*
X168660Y207225D01*
X168655Y207230D01*
X168652D01*
X168599Y207269D01*
X168550Y207313D01*
X168511Y207354D01*
X168477Y207393D01*
X168451Y207429D01*
X168431Y207456D01*
X168426Y207468D01*
X168422Y207476D01*
X168417Y207480D01*
Y207483D01*
X168390Y207541D01*
X168368Y207604D01*
X168353Y207663D01*
X168344Y207719D01*
X168341Y207745D01*
X168339Y207767D01*
X168336Y207789D01*
X168334Y207806D01*
Y207840D01*
X168336Y207891D01*
X168341Y207937D01*
X168349Y207983D01*
X168356Y208027D01*
X168368Y208068D01*
X168380Y208105D01*
X168395Y208139D01*
X168407Y208171D01*
X168422Y208200D01*
X168436Y208224D01*
X168448Y208246D01*
X168458Y208263D01*
X168468Y208278D01*
X168475Y208290D01*
X168480Y208295D01*
X168482Y208297D01*
X168511Y208331D01*
X168543Y208360D01*
X168611Y208416D01*
X168682Y208465D01*
X168747Y208504D01*
X168779Y208518D01*
X168808Y208533D01*
X168835Y208545D01*
X168859Y208555D01*
X168876Y208562D01*
X168891Y208567D01*
X168900Y208572D01*
X168903D01*
X168956Y208586D01*
X169012Y208601D01*
X169129Y208623D01*
X169250Y208640D01*
X169308Y208644D01*
X169364Y208649D01*
X169418Y208654D01*
X169466Y208657D01*
X169510Y208659D01*
X169547D01*
X169578Y208661D01*
X169603D01*
X169617D01*
X169620D01*
X169622D01*
X169751Y208659D01*
D02*
G37*
G36*
X170866Y206175D02*
X170514D01*
Y206528D01*
X170866D01*
Y206175D01*
D02*
G37*
G36*
X169245Y205430D02*
X169219Y205374D01*
X169192Y205320D01*
X169168Y205269D01*
X169143Y205225D01*
X169133Y205208D01*
X169124Y205191D01*
X169116Y205179D01*
X169112Y205170D01*
X169107Y205165D01*
Y205162D01*
X169068Y205097D01*
X169029Y205038D01*
X168993Y204987D01*
X168961Y204946D01*
X168934Y204912D01*
X168912Y204885D01*
X168905Y204878D01*
X168900Y204871D01*
X168895Y204868D01*
Y204866D01*
X170866D01*
Y204557D01*
X168334D01*
Y204756D01*
X168366Y204773D01*
X168397Y204793D01*
X168458Y204834D01*
X168514Y204880D01*
X168565Y204926D01*
X168589Y204948D01*
X168611Y204968D01*
X168628Y204985D01*
X168645Y205002D01*
X168657Y205014D01*
X168667Y205024D01*
X168672Y205031D01*
X168674Y205033D01*
X168737Y205109D01*
X168793Y205187D01*
X168842Y205262D01*
X168886Y205332D01*
X168905Y205364D01*
X168920Y205393D01*
X168934Y205420D01*
X168946Y205442D01*
X168956Y205461D01*
X168963Y205473D01*
X168966Y205483D01*
X168968Y205485D01*
X169267D01*
X169245Y205430D01*
D02*
G37*
G36*
X171566Y202351D02*
X170684D01*
X170728Y202314D01*
X170764Y202280D01*
X170793Y202251D01*
X170815Y202224D01*
X170832Y202203D01*
X170842Y202186D01*
X170849Y202173D01*
X170852Y202171D01*
X170871Y202127D01*
X170883Y202083D01*
X170893Y202042D01*
X170900Y202003D01*
X170905Y201969D01*
X170907Y201942D01*
Y201918D01*
X170905Y201860D01*
X170898Y201806D01*
X170886Y201758D01*
X170873Y201716D01*
X170861Y201682D01*
X170849Y201658D01*
X170847Y201648D01*
X170842Y201641D01*
X170839Y201639D01*
Y201636D01*
X170815Y201602D01*
X170786Y201571D01*
X170757Y201541D01*
X170725Y201515D01*
X170696Y201493D01*
X170672Y201473D01*
X170662Y201469D01*
X170655Y201464D01*
X170652Y201459D01*
X170866D01*
Y201182D01*
X169039D01*
Y201486D01*
X169819D01*
X169894D01*
X169962Y201488D01*
X170025Y201490D01*
X170081Y201493D01*
X170130Y201495D01*
X170174Y201500D01*
X170212Y201505D01*
X170247Y201507D01*
X170276Y201512D01*
X170298Y201517D01*
X170317Y201522D01*
X170334Y201524D01*
X170344Y201527D01*
X170353Y201529D01*
X170356Y201532D01*
X170358D01*
X170400Y201551D01*
X170439Y201573D01*
X170473Y201600D01*
X170499Y201624D01*
X170524Y201648D01*
X170538Y201668D01*
X170550Y201680D01*
X170553Y201682D01*
Y201685D01*
X170577Y201726D01*
X170596Y201767D01*
X170609Y201809D01*
X170618Y201848D01*
X170623Y201882D01*
X170626Y201906D01*
X170628Y201916D01*
Y201930D01*
X170626Y201979D01*
X170616Y202023D01*
X170606Y202062D01*
X170592Y202096D01*
X170579Y202125D01*
X170567Y202147D01*
X170560Y202159D01*
X170557Y202164D01*
X170528Y202198D01*
X170497Y202227D01*
X170463Y202254D01*
X170431Y202273D01*
X170404Y202288D01*
X170380Y202300D01*
X170366Y202305D01*
X170363Y202307D01*
X170361D01*
X170334Y202314D01*
X170300Y202322D01*
X170264Y202326D01*
X170222Y202331D01*
X170178Y202336D01*
X170132Y202341D01*
X170040Y202346D01*
X169996D01*
X169952Y202348D01*
X169916D01*
X169882Y202351D01*
X169853D01*
X169833D01*
X169819D01*
X169814D01*
X169039D01*
Y202657D01*
X171566D01*
Y202351D01*
D02*
G37*
G36*
X170866Y200280D02*
X169719D01*
Y199097D01*
X169423D01*
Y200280D01*
X168640D01*
Y198912D01*
X168344D01*
Y200613D01*
X170866D01*
Y200280D01*
D02*
G37*
G36*
X188238Y133996D02*
X188257Y133965D01*
X188299Y133904D01*
X188345Y133848D01*
X188391Y133797D01*
X188413Y133773D01*
X188432Y133751D01*
X188449Y133734D01*
X188466Y133717D01*
X188479Y133705D01*
X188488Y133695D01*
X188496Y133690D01*
X188498Y133688D01*
X188573Y133625D01*
X188651Y133569D01*
X188726Y133520D01*
X188797Y133476D01*
X188829Y133457D01*
X188858Y133442D01*
X188884Y133428D01*
X188906Y133416D01*
X188926Y133406D01*
X188938Y133399D01*
X188947Y133396D01*
X188950Y133394D01*
Y133095D01*
X188894Y133117D01*
X188838Y133144D01*
X188785Y133170D01*
X188734Y133195D01*
X188690Y133219D01*
X188673Y133229D01*
X188656Y133238D01*
X188644Y133246D01*
X188634Y133250D01*
X188629Y133255D01*
X188627D01*
X188561Y133294D01*
X188503Y133333D01*
X188452Y133370D01*
X188410Y133401D01*
X188376Y133428D01*
X188350Y133450D01*
X188342Y133457D01*
X188335Y133462D01*
X188333Y133467D01*
X188330D01*
Y131496D01*
X188022D01*
Y134028D01*
X188221D01*
X188238Y133996D01*
D02*
G37*
G36*
X186121Y130796D02*
X185815D01*
Y131678D01*
X185779Y131635D01*
X185745Y131598D01*
X185716Y131569D01*
X185689Y131547D01*
X185667Y131530D01*
X185650Y131520D01*
X185638Y131513D01*
X185635Y131511D01*
X185592Y131491D01*
X185548Y131479D01*
X185507Y131469D01*
X185468Y131462D01*
X185434Y131457D01*
X185407Y131455D01*
X185383D01*
X185324Y131457D01*
X185271Y131465D01*
X185222Y131477D01*
X185181Y131489D01*
X185147Y131501D01*
X185123Y131513D01*
X185113Y131516D01*
X185106Y131520D01*
X185103Y131523D01*
X185101D01*
X185067Y131547D01*
X185035Y131576D01*
X185006Y131605D01*
X184979Y131637D01*
X184958Y131666D01*
X184938Y131691D01*
X184933Y131700D01*
X184928Y131708D01*
X184924Y131710D01*
Y131496D01*
X184646D01*
Y133323D01*
X184950D01*
Y132543D01*
Y132468D01*
X184953Y132400D01*
X184955Y132337D01*
X184958Y132281D01*
X184960Y132232D01*
X184965Y132189D01*
X184970Y132150D01*
X184972Y132116D01*
X184977Y132087D01*
X184982Y132065D01*
X184987Y132045D01*
X184989Y132028D01*
X184992Y132018D01*
X184994Y132009D01*
X184996Y132006D01*
Y132004D01*
X185016Y131963D01*
X185038Y131924D01*
X185064Y131890D01*
X185089Y131863D01*
X185113Y131839D01*
X185132Y131824D01*
X185145Y131812D01*
X185147Y131809D01*
X185150D01*
X185191Y131785D01*
X185232Y131766D01*
X185273Y131754D01*
X185312Y131744D01*
X185346Y131739D01*
X185371Y131737D01*
X185380Y131734D01*
X185395D01*
X185443Y131737D01*
X185487Y131746D01*
X185526Y131756D01*
X185560Y131771D01*
X185589Y131783D01*
X185611Y131795D01*
X185623Y131802D01*
X185628Y131805D01*
X185662Y131834D01*
X185691Y131865D01*
X185718Y131899D01*
X185738Y131931D01*
X185752Y131958D01*
X185764Y131982D01*
X185769Y131997D01*
X185772Y131999D01*
Y132001D01*
X185779Y132028D01*
X185786Y132062D01*
X185791Y132099D01*
X185796Y132140D01*
X185801Y132184D01*
X185805Y132230D01*
X185810Y132322D01*
Y132366D01*
X185813Y132410D01*
Y132446D01*
X185815Y132480D01*
Y132509D01*
Y132529D01*
Y132543D01*
Y132548D01*
Y133323D01*
X186121D01*
Y130796D01*
D02*
G37*
G36*
X189992Y131496D02*
X189640D01*
Y131848D01*
X189992D01*
Y131496D01*
D02*
G37*
G36*
X184078D02*
X183745D01*
Y132643D01*
X182562D01*
Y132940D01*
X183745D01*
Y133722D01*
X182377D01*
Y134018D01*
X184078D01*
Y131496D01*
D02*
G37*
G36*
X191356Y134026D02*
X191402Y134021D01*
X191448Y134013D01*
X191492Y134006D01*
X191533Y133994D01*
X191569Y133982D01*
X191604Y133967D01*
X191635Y133955D01*
X191664Y133941D01*
X191689Y133926D01*
X191710Y133914D01*
X191727Y133904D01*
X191742Y133895D01*
X191754Y133887D01*
X191759Y133882D01*
X191762Y133880D01*
X191796Y133851D01*
X191825Y133819D01*
X191881Y133751D01*
X191929Y133681D01*
X191968Y133615D01*
X191983Y133583D01*
X191997Y133554D01*
X192009Y133528D01*
X192019Y133503D01*
X192026Y133486D01*
X192031Y133472D01*
X192036Y133462D01*
Y133459D01*
X192051Y133406D01*
X192065Y133350D01*
X192087Y133233D01*
X192104Y133112D01*
X192109Y133054D01*
X192114Y132998D01*
X192119Y132944D01*
X192121Y132896D01*
X192124Y132852D01*
Y132816D01*
X192126Y132784D01*
Y132760D01*
Y132745D01*
Y132743D01*
Y132740D01*
X192124Y132611D01*
X192116Y132492D01*
X192104Y132381D01*
X192087Y132279D01*
X192068Y132186D01*
X192048Y132104D01*
X192024Y132028D01*
X192002Y131960D01*
X191978Y131902D01*
X191956Y131851D01*
X191936Y131809D01*
X191917Y131775D01*
X191900Y131749D01*
X191888Y131729D01*
X191881Y131720D01*
X191878Y131715D01*
X191837Y131669D01*
X191793Y131630D01*
X191747Y131593D01*
X191701Y131564D01*
X191652Y131540D01*
X191606Y131518D01*
X191557Y131501D01*
X191514Y131486D01*
X191470Y131477D01*
X191431Y131469D01*
X191395Y131462D01*
X191365Y131460D01*
X191339Y131457D01*
X191322Y131455D01*
X191305D01*
X191254Y131457D01*
X191205Y131462D01*
X191159Y131469D01*
X191115Y131477D01*
X191076Y131489D01*
X191037Y131501D01*
X191003Y131513D01*
X190972Y131528D01*
X190945Y131542D01*
X190918Y131554D01*
X190899Y131567D01*
X190879Y131579D01*
X190867Y131586D01*
X190855Y131593D01*
X190850Y131598D01*
X190848Y131600D01*
X190814Y131630D01*
X190785Y131661D01*
X190729Y131729D01*
X190680Y131800D01*
X190641Y131865D01*
X190627Y131897D01*
X190612Y131926D01*
X190600Y131953D01*
X190590Y131977D01*
X190583Y131994D01*
X190578Y132009D01*
X190573Y132018D01*
Y132021D01*
X190556Y132074D01*
X190542Y132130D01*
X190520Y132249D01*
X190503Y132368D01*
X190498Y132427D01*
X190493Y132483D01*
X190488Y132536D01*
X190486Y132585D01*
X190483Y132628D01*
Y132667D01*
X190481Y132696D01*
Y132721D01*
Y132735D01*
Y132740D01*
Y132808D01*
X190483Y132874D01*
X190486Y132935D01*
X190491Y132991D01*
X190496Y133044D01*
X190500Y133093D01*
X190505Y133139D01*
X190510Y133178D01*
X190515Y133214D01*
X190520Y133246D01*
X190525Y133272D01*
X190530Y133294D01*
X190534Y133314D01*
X190537Y133326D01*
X190539Y133333D01*
Y133336D01*
X190561Y133416D01*
X190588Y133486D01*
X190612Y133552D01*
X190627Y133579D01*
X190639Y133605D01*
X190648Y133630D01*
X190661Y133649D01*
X190670Y133668D01*
X190678Y133683D01*
X190685Y133695D01*
X190690Y133703D01*
X190695Y133707D01*
Y133710D01*
X190734Y133763D01*
X190777Y133812D01*
X190819Y133851D01*
X190858Y133885D01*
X190894Y133912D01*
X190921Y133931D01*
X190933Y133936D01*
X190940Y133941D01*
X190945Y133946D01*
X190947D01*
X191006Y133972D01*
X191069Y133994D01*
X191127Y134009D01*
X191183Y134018D01*
X191210Y134021D01*
X191232Y134023D01*
X191254Y134026D01*
X191271Y134028D01*
X191305D01*
X191356Y134026D01*
D02*
G37*
G36*
X109498Y200138D02*
X109517Y200107D01*
X109559Y200046D01*
X109605Y199990D01*
X109651Y199939D01*
X109673Y199915D01*
X109692Y199893D01*
X109709Y199876D01*
X109726Y199859D01*
X109738Y199847D01*
X109748Y199837D01*
X109755Y199832D01*
X109758Y199830D01*
X109833Y199767D01*
X109911Y199711D01*
X109986Y199662D01*
X110057Y199618D01*
X110088Y199599D01*
X110117Y199584D01*
X110144Y199570D01*
X110166Y199557D01*
X110186Y199548D01*
X110198Y199540D01*
X110207Y199538D01*
X110210Y199536D01*
Y199237D01*
X110154Y199259D01*
X110098Y199285D01*
X110045Y199312D01*
X109994Y199336D01*
X109950Y199361D01*
X109933Y199370D01*
X109916Y199380D01*
X109904Y199387D01*
X109894Y199392D01*
X109889Y199397D01*
X109887D01*
X109821Y199436D01*
X109763Y199475D01*
X109712Y199511D01*
X109670Y199543D01*
X109636Y199570D01*
X109610Y199592D01*
X109602Y199599D01*
X109595Y199604D01*
X109593Y199609D01*
X109590D01*
Y197638D01*
X109282D01*
Y200170D01*
X109481D01*
X109498Y200138D01*
D02*
G37*
G36*
X107381Y196938D02*
X107075D01*
Y197820D01*
X107039Y197776D01*
X107005Y197740D01*
X106975Y197711D01*
X106949Y197689D01*
X106927Y197672D01*
X106910Y197662D01*
X106898Y197655D01*
X106895Y197652D01*
X106852Y197633D01*
X106808Y197621D01*
X106766Y197611D01*
X106728Y197604D01*
X106694Y197599D01*
X106667Y197597D01*
X106643D01*
X106584Y197599D01*
X106531Y197606D01*
X106482Y197618D01*
X106441Y197631D01*
X106407Y197643D01*
X106383Y197655D01*
X106373Y197657D01*
X106366Y197662D01*
X106363Y197664D01*
X106361D01*
X106327Y197689D01*
X106295Y197718D01*
X106266Y197747D01*
X106239Y197779D01*
X106217Y197808D01*
X106198Y197832D01*
X106193Y197842D01*
X106188Y197849D01*
X106183Y197852D01*
Y197638D01*
X105906D01*
Y199465D01*
X106210D01*
Y198685D01*
Y198610D01*
X106212Y198542D01*
X106215Y198479D01*
X106217Y198423D01*
X106220Y198374D01*
X106225Y198330D01*
X106229Y198292D01*
X106232Y198257D01*
X106237Y198228D01*
X106242Y198206D01*
X106246Y198187D01*
X106249Y198170D01*
X106251Y198160D01*
X106254Y198151D01*
X106256Y198148D01*
Y198146D01*
X106276Y198104D01*
X106298Y198065D01*
X106324Y198031D01*
X106349Y198005D01*
X106373Y197980D01*
X106392Y197966D01*
X106404Y197954D01*
X106407Y197951D01*
X106409D01*
X106451Y197927D01*
X106492Y197907D01*
X106533Y197895D01*
X106572Y197886D01*
X106606Y197881D01*
X106630Y197878D01*
X106640Y197876D01*
X106655D01*
X106703Y197878D01*
X106747Y197888D01*
X106786Y197898D01*
X106820Y197912D01*
X106849Y197924D01*
X106871Y197937D01*
X106883Y197944D01*
X106888Y197946D01*
X106922Y197976D01*
X106951Y198007D01*
X106978Y198041D01*
X106997Y198073D01*
X107012Y198100D01*
X107024Y198124D01*
X107029Y198138D01*
X107031Y198141D01*
Y198143D01*
X107039Y198170D01*
X107046Y198204D01*
X107051Y198240D01*
X107056Y198282D01*
X107061Y198326D01*
X107065Y198372D01*
X107070Y198464D01*
Y198508D01*
X107073Y198551D01*
Y198588D01*
X107075Y198622D01*
Y198651D01*
Y198671D01*
Y198685D01*
Y198690D01*
Y199465D01*
X107381D01*
Y196938D01*
D02*
G37*
G36*
X111252Y197638D02*
X110900D01*
Y197990D01*
X111252D01*
Y197638D01*
D02*
G37*
G36*
X105338D02*
X105005D01*
Y198785D01*
X103821D01*
Y199081D01*
X105005D01*
Y199864D01*
X103637D01*
Y200160D01*
X105338D01*
Y197638D01*
D02*
G37*
G36*
X112616Y200167D02*
X112662Y200163D01*
X112708Y200155D01*
X112752Y200148D01*
X112793Y200136D01*
X112829Y200124D01*
X112863Y200109D01*
X112895Y200097D01*
X112924Y200082D01*
X112948Y200068D01*
X112970Y200056D01*
X112987Y200046D01*
X113002Y200036D01*
X113014Y200029D01*
X113019Y200024D01*
X113021Y200022D01*
X113055Y199993D01*
X113084Y199961D01*
X113140Y199893D01*
X113189Y199822D01*
X113228Y199757D01*
X113242Y199725D01*
X113257Y199696D01*
X113269Y199669D01*
X113279Y199645D01*
X113286Y199628D01*
X113291Y199613D01*
X113296Y199604D01*
Y199601D01*
X113311Y199548D01*
X113325Y199492D01*
X113347Y199375D01*
X113364Y199254D01*
X113369Y199195D01*
X113374Y199139D01*
X113379Y199086D01*
X113381Y199038D01*
X113383Y198994D01*
Y198957D01*
X113386Y198926D01*
Y198901D01*
Y198887D01*
Y198884D01*
Y198882D01*
X113383Y198753D01*
X113376Y198634D01*
X113364Y198522D01*
X113347Y198420D01*
X113328Y198328D01*
X113308Y198245D01*
X113284Y198170D01*
X113262Y198102D01*
X113238Y198044D01*
X113216Y197993D01*
X113196Y197951D01*
X113177Y197917D01*
X113160Y197890D01*
X113148Y197871D01*
X113140Y197861D01*
X113138Y197856D01*
X113097Y197810D01*
X113053Y197772D01*
X113007Y197735D01*
X112961Y197706D01*
X112912Y197681D01*
X112866Y197660D01*
X112817Y197643D01*
X112774Y197628D01*
X112730Y197618D01*
X112691Y197611D01*
X112654Y197604D01*
X112625Y197601D01*
X112599Y197599D01*
X112582Y197597D01*
X112565D01*
X112513Y197599D01*
X112465Y197604D01*
X112419Y197611D01*
X112375Y197618D01*
X112336Y197631D01*
X112297Y197643D01*
X112263Y197655D01*
X112232Y197669D01*
X112205Y197684D01*
X112178Y197696D01*
X112159Y197708D01*
X112139Y197720D01*
X112127Y197728D01*
X112115Y197735D01*
X112110Y197740D01*
X112108Y197742D01*
X112074Y197772D01*
X112045Y197803D01*
X111989Y197871D01*
X111940Y197942D01*
X111901Y198007D01*
X111887Y198039D01*
X111872Y198068D01*
X111860Y198095D01*
X111850Y198119D01*
X111843Y198136D01*
X111838Y198151D01*
X111833Y198160D01*
Y198163D01*
X111816Y198216D01*
X111802Y198272D01*
X111780Y198391D01*
X111763Y198510D01*
X111758Y198568D01*
X111753Y198624D01*
X111748Y198678D01*
X111746Y198726D01*
X111743Y198770D01*
Y198809D01*
X111741Y198838D01*
Y198863D01*
Y198877D01*
Y198882D01*
Y198950D01*
X111743Y199016D01*
X111746Y199076D01*
X111750Y199132D01*
X111755Y199186D01*
X111760Y199234D01*
X111765Y199281D01*
X111770Y199319D01*
X111775Y199356D01*
X111780Y199387D01*
X111785Y199414D01*
X111789Y199436D01*
X111794Y199455D01*
X111797Y199468D01*
X111799Y199475D01*
Y199477D01*
X111821Y199557D01*
X111848Y199628D01*
X111872Y199694D01*
X111887Y199720D01*
X111899Y199747D01*
X111908Y199771D01*
X111920Y199791D01*
X111930Y199810D01*
X111938Y199825D01*
X111945Y199837D01*
X111950Y199844D01*
X111955Y199849D01*
Y199852D01*
X111993Y199905D01*
X112037Y199954D01*
X112078Y199993D01*
X112117Y200026D01*
X112154Y200053D01*
X112180Y200073D01*
X112193Y200078D01*
X112200Y200082D01*
X112205Y200087D01*
X112207D01*
X112266Y200114D01*
X112329Y200136D01*
X112387Y200150D01*
X112443Y200160D01*
X112470Y200163D01*
X112492Y200165D01*
X112513Y200167D01*
X112531Y200170D01*
X112565D01*
X112616Y200167D01*
D02*
G37*
G36*
X107546Y144879D02*
X107665Y144872D01*
X107777Y144860D01*
X107879Y144843D01*
X107971Y144824D01*
X108054Y144804D01*
X108129Y144780D01*
X108197Y144758D01*
X108256Y144734D01*
X108307Y144712D01*
X108348Y144692D01*
X108382Y144673D01*
X108409Y144656D01*
X108428Y144644D01*
X108438Y144636D01*
X108443Y144634D01*
X108489Y144593D01*
X108528Y144549D01*
X108564Y144503D01*
X108593Y144457D01*
X108618Y144408D01*
X108640Y144362D01*
X108657Y144313D01*
X108671Y144270D01*
X108681Y144226D01*
X108688Y144187D01*
X108695Y144150D01*
X108698Y144121D01*
X108700Y144095D01*
X108703Y144078D01*
Y144061D01*
X108700Y144009D01*
X108695Y143961D01*
X108688Y143915D01*
X108681Y143871D01*
X108669Y143832D01*
X108657Y143793D01*
X108644Y143759D01*
X108630Y143728D01*
X108615Y143701D01*
X108603Y143674D01*
X108591Y143655D01*
X108579Y143635D01*
X108572Y143623D01*
X108564Y143611D01*
X108559Y143606D01*
X108557Y143604D01*
X108528Y143570D01*
X108496Y143541D01*
X108428Y143485D01*
X108358Y143436D01*
X108292Y143397D01*
X108261Y143383D01*
X108231Y143368D01*
X108205Y143356D01*
X108180Y143346D01*
X108163Y143339D01*
X108149Y143334D01*
X108139Y143329D01*
X108136D01*
X108083Y143312D01*
X108027Y143298D01*
X107908Y143276D01*
X107789Y143259D01*
X107731Y143254D01*
X107675Y143249D01*
X107621Y143244D01*
X107573Y143242D01*
X107529Y143239D01*
X107490D01*
X107461Y143237D01*
X107437D01*
X107422D01*
X107417D01*
X107349D01*
X107284Y143239D01*
X107223Y143242D01*
X107167Y143246D01*
X107114Y143251D01*
X107065Y143256D01*
X107019Y143261D01*
X106980Y143266D01*
X106943Y143271D01*
X106912Y143276D01*
X106885Y143280D01*
X106863Y143285D01*
X106844Y143290D01*
X106832Y143293D01*
X106824Y143295D01*
X106822D01*
X106742Y143317D01*
X106671Y143344D01*
X106606Y143368D01*
X106579Y143383D01*
X106552Y143395D01*
X106528Y143404D01*
X106508Y143417D01*
X106489Y143426D01*
X106474Y143434D01*
X106462Y143441D01*
X106455Y143446D01*
X106450Y143451D01*
X106448D01*
X106394Y143490D01*
X106346Y143533D01*
X106307Y143575D01*
X106273Y143613D01*
X106246Y143650D01*
X106227Y143677D01*
X106222Y143689D01*
X106217Y143696D01*
X106212Y143701D01*
Y143703D01*
X106185Y143762D01*
X106163Y143825D01*
X106149Y143883D01*
X106139Y143939D01*
X106137Y143966D01*
X106134Y143988D01*
X106132Y144009D01*
X106129Y144027D01*
Y144061D01*
X106132Y144112D01*
X106137Y144158D01*
X106144Y144204D01*
X106151Y144248D01*
X106163Y144289D01*
X106175Y144325D01*
X106190Y144359D01*
X106202Y144391D01*
X106217Y144420D01*
X106231Y144445D01*
X106244Y144466D01*
X106253Y144483D01*
X106263Y144498D01*
X106270Y144510D01*
X106275Y144515D01*
X106278Y144517D01*
X106307Y144551D01*
X106338Y144581D01*
X106406Y144636D01*
X106477Y144685D01*
X106543Y144724D01*
X106574Y144738D01*
X106603Y144753D01*
X106630Y144765D01*
X106654Y144775D01*
X106671Y144782D01*
X106686Y144787D01*
X106696Y144792D01*
X106698D01*
X106751Y144807D01*
X106807Y144821D01*
X106924Y144843D01*
X107045Y144860D01*
X107104Y144865D01*
X107160Y144870D01*
X107213Y144875D01*
X107262Y144877D01*
X107306Y144879D01*
X107342D01*
X107373Y144882D01*
X107398D01*
X107412D01*
X107415D01*
X107417D01*
X107546Y144879D01*
D02*
G37*
G36*
X108661Y142396D02*
X108309D01*
Y142748D01*
X108661D01*
Y142396D01*
D02*
G37*
G36*
X107041Y141650D02*
X107014Y141594D01*
X106987Y141541D01*
X106963Y141490D01*
X106939Y141446D01*
X106929Y141429D01*
X106919Y141412D01*
X106912Y141400D01*
X106907Y141390D01*
X106902Y141385D01*
Y141383D01*
X106863Y141317D01*
X106824Y141259D01*
X106788Y141208D01*
X106756Y141166D01*
X106730Y141132D01*
X106708Y141106D01*
X106700Y141098D01*
X106696Y141091D01*
X106691Y141089D01*
Y141086D01*
X108661D01*
Y140778D01*
X106129D01*
Y140977D01*
X106161Y140994D01*
X106193Y141013D01*
X106253Y141055D01*
X106309Y141101D01*
X106360Y141147D01*
X106385Y141169D01*
X106406Y141188D01*
X106423Y141205D01*
X106440Y141222D01*
X106453Y141235D01*
X106462Y141244D01*
X106467Y141252D01*
X106470Y141254D01*
X106533Y141329D01*
X106589Y141407D01*
X106637Y141482D01*
X106681Y141553D01*
X106700Y141584D01*
X106715Y141613D01*
X106730Y141640D01*
X106742Y141662D01*
X106751Y141682D01*
X106759Y141694D01*
X106761Y141703D01*
X106764Y141706D01*
X107062D01*
X107041Y141650D01*
D02*
G37*
G36*
X109361Y138571D02*
X108479D01*
X108523Y138535D01*
X108559Y138501D01*
X108589Y138472D01*
X108610Y138445D01*
X108627Y138423D01*
X108637Y138406D01*
X108644Y138394D01*
X108647Y138391D01*
X108666Y138348D01*
X108678Y138304D01*
X108688Y138263D01*
X108695Y138224D01*
X108700Y138190D01*
X108703Y138163D01*
Y138139D01*
X108700Y138080D01*
X108693Y138027D01*
X108681Y137978D01*
X108669Y137937D01*
X108657Y137903D01*
X108644Y137879D01*
X108642Y137869D01*
X108637Y137862D01*
X108635Y137859D01*
Y137857D01*
X108610Y137823D01*
X108581Y137791D01*
X108552Y137762D01*
X108520Y137735D01*
X108491Y137713D01*
X108467Y137694D01*
X108457Y137689D01*
X108450Y137684D01*
X108448Y137679D01*
X108661D01*
Y137402D01*
X106834D01*
Y137706D01*
X107614D01*
X107689D01*
X107757Y137708D01*
X107821Y137711D01*
X107877Y137713D01*
X107925Y137716D01*
X107969Y137721D01*
X108008Y137725D01*
X108042Y137728D01*
X108071Y137733D01*
X108093Y137738D01*
X108112Y137743D01*
X108129Y137745D01*
X108139Y137747D01*
X108149Y137750D01*
X108151Y137752D01*
X108153D01*
X108195Y137772D01*
X108234Y137794D01*
X108268Y137820D01*
X108294Y137845D01*
X108319Y137869D01*
X108333Y137888D01*
X108345Y137900D01*
X108348Y137903D01*
Y137905D01*
X108372Y137947D01*
X108392Y137988D01*
X108404Y138029D01*
X108414Y138068D01*
X108418Y138102D01*
X108421Y138127D01*
X108423Y138136D01*
Y138151D01*
X108421Y138199D01*
X108411Y138243D01*
X108401Y138282D01*
X108387Y138316D01*
X108375Y138345D01*
X108362Y138367D01*
X108355Y138379D01*
X108353Y138384D01*
X108324Y138418D01*
X108292Y138447D01*
X108258Y138474D01*
X108226Y138493D01*
X108200Y138508D01*
X108175Y138520D01*
X108161Y138525D01*
X108158Y138527D01*
X108156D01*
X108129Y138535D01*
X108095Y138542D01*
X108059Y138547D01*
X108018Y138552D01*
X107974Y138557D01*
X107928Y138561D01*
X107835Y138566D01*
X107791D01*
X107748Y138569D01*
X107711D01*
X107677Y138571D01*
X107648D01*
X107629D01*
X107614D01*
X107609D01*
X106834D01*
Y138877D01*
X109361D01*
Y138571D01*
D02*
G37*
G36*
X108661Y136501D02*
X107515D01*
Y135317D01*
X107218D01*
Y136501D01*
X106436D01*
Y135133D01*
X106139D01*
Y136834D01*
X108661D01*
Y136501D01*
D02*
G37*
G36*
X102438Y174154D02*
X102457Y174122D01*
X102498Y174062D01*
X102544Y174006D01*
X102591Y173955D01*
X102613Y173930D01*
X102632Y173909D01*
X102649Y173892D01*
X102666Y173875D01*
X102678Y173862D01*
X102688Y173853D01*
X102695Y173848D01*
X102698Y173845D01*
X102773Y173782D01*
X102851Y173726D01*
X102926Y173678D01*
X102997Y173634D01*
X103028Y173615D01*
X103057Y173600D01*
X103084Y173585D01*
X103106Y173573D01*
X103125Y173564D01*
X103138Y173556D01*
X103147Y173554D01*
X103150Y173551D01*
Y173252D01*
X103094Y173274D01*
X103038Y173301D01*
X102984Y173328D01*
X102933Y173352D01*
X102890Y173376D01*
X102873Y173386D01*
X102856Y173396D01*
X102843Y173403D01*
X102834Y173408D01*
X102829Y173413D01*
X102826D01*
X102761Y173452D01*
X102702Y173491D01*
X102652Y173527D01*
X102610Y173559D01*
X102576Y173585D01*
X102549Y173607D01*
X102542Y173615D01*
X102535Y173619D01*
X102532Y173624D01*
X102530D01*
Y171653D01*
X102221D01*
Y174186D01*
X102421D01*
X102438Y174154D01*
D02*
G37*
G36*
X99383Y171653D02*
X99075D01*
Y172375D01*
X98856Y172589D01*
X98253Y171653D01*
X97869D01*
X98637Y172801D01*
X97940Y173481D01*
X98341D01*
X99075Y172735D01*
Y174176D01*
X99383D01*
Y171653D01*
D02*
G37*
G36*
X100659Y174183D02*
X100705Y174178D01*
X100751Y174171D01*
X100795Y174164D01*
X100836Y174152D01*
X100873Y174139D01*
X100907Y174125D01*
X100938Y174113D01*
X100968Y174098D01*
X100992Y174083D01*
X101014Y174071D01*
X101031Y174062D01*
X101045Y174052D01*
X101057Y174045D01*
X101062Y174040D01*
X101065Y174037D01*
X101099Y174008D01*
X101128Y173977D01*
X101184Y173909D01*
X101232Y173838D01*
X101271Y173773D01*
X101286Y173741D01*
X101300Y173712D01*
X101312Y173685D01*
X101322Y173661D01*
X101330Y173644D01*
X101334Y173629D01*
X101339Y173619D01*
Y173617D01*
X101354Y173564D01*
X101368Y173508D01*
X101390Y173391D01*
X101407Y173269D01*
X101412Y173211D01*
X101417Y173155D01*
X101422Y173102D01*
X101424Y173053D01*
X101427Y173010D01*
Y172973D01*
X101429Y172941D01*
Y172917D01*
Y172903D01*
Y172900D01*
Y172898D01*
X101427Y172769D01*
X101419Y172650D01*
X101407Y172538D01*
X101390Y172436D01*
X101371Y172344D01*
X101351Y172261D01*
X101327Y172186D01*
X101305Y172118D01*
X101281Y172059D01*
X101259Y172008D01*
X101240Y171967D01*
X101220Y171933D01*
X101203Y171906D01*
X101191Y171887D01*
X101184Y171877D01*
X101181Y171872D01*
X101140Y171826D01*
X101096Y171787D01*
X101050Y171751D01*
X101004Y171722D01*
X100955Y171697D01*
X100909Y171675D01*
X100861Y171658D01*
X100817Y171644D01*
X100773Y171634D01*
X100734Y171627D01*
X100698Y171619D01*
X100669Y171617D01*
X100642Y171615D01*
X100625Y171612D01*
X100608D01*
X100557Y171615D01*
X100508Y171619D01*
X100462Y171627D01*
X100418Y171634D01*
X100379Y171646D01*
X100340Y171658D01*
X100306Y171671D01*
X100275Y171685D01*
X100248Y171700D01*
X100222Y171712D01*
X100202Y171724D01*
X100183Y171736D01*
X100170Y171744D01*
X100158Y171751D01*
X100153Y171756D01*
X100151Y171758D01*
X100117Y171787D01*
X100088Y171819D01*
X100032Y171887D01*
X99983Y171957D01*
X99944Y172023D01*
X99930Y172055D01*
X99915Y172084D01*
X99903Y172110D01*
X99893Y172135D01*
X99886Y172152D01*
X99881Y172166D01*
X99876Y172176D01*
Y172178D01*
X99859Y172232D01*
X99845Y172288D01*
X99823Y172407D01*
X99806Y172526D01*
X99801Y172584D01*
X99796Y172640D01*
X99791Y172694D01*
X99789Y172742D01*
X99787Y172786D01*
Y172825D01*
X99784Y172854D01*
Y172878D01*
Y172893D01*
Y172898D01*
Y172966D01*
X99787Y173031D01*
X99789Y173092D01*
X99794Y173148D01*
X99799Y173201D01*
X99804Y173250D01*
X99808Y173296D01*
X99813Y173335D01*
X99818Y173372D01*
X99823Y173403D01*
X99828Y173430D01*
X99833Y173452D01*
X99837Y173471D01*
X99840Y173483D01*
X99842Y173491D01*
Y173493D01*
X99864Y173573D01*
X99891Y173644D01*
X99915Y173709D01*
X99930Y173736D01*
X99942Y173763D01*
X99952Y173787D01*
X99964Y173807D01*
X99974Y173826D01*
X99981Y173840D01*
X99988Y173853D01*
X99993Y173860D01*
X99998Y173865D01*
Y173867D01*
X100037Y173921D01*
X100081Y173969D01*
X100122Y174008D01*
X100161Y174042D01*
X100197Y174069D01*
X100224Y174088D01*
X100236Y174093D01*
X100243Y174098D01*
X100248Y174103D01*
X100251D01*
X100309Y174130D01*
X100372Y174152D01*
X100430Y174166D01*
X100486Y174176D01*
X100513Y174178D01*
X100535Y174181D01*
X100557Y174183D01*
X100574Y174186D01*
X100608D01*
X100659Y174183D01*
D02*
G37*
G36*
X111886Y245808D02*
X111906Y245776D01*
X111947Y245715D01*
X111993Y245659D01*
X112039Y245608D01*
X112061Y245584D01*
X112081Y245562D01*
X112098Y245545D01*
X112115Y245528D01*
X112127Y245516D01*
X112137Y245506D01*
X112144Y245501D01*
X112146Y245499D01*
X112222Y245436D01*
X112300Y245380D01*
X112375Y245331D01*
X112445Y245287D01*
X112477Y245268D01*
X112506Y245253D01*
X112533Y245239D01*
X112555Y245227D01*
X112574Y245217D01*
X112586Y245210D01*
X112596Y245207D01*
X112598Y245205D01*
Y244906D01*
X112542Y244928D01*
X112487Y244955D01*
X112433Y244981D01*
X112382Y245006D01*
X112338Y245030D01*
X112321Y245040D01*
X112304Y245049D01*
X112292Y245057D01*
X112283Y245061D01*
X112278Y245066D01*
X112275D01*
X112210Y245105D01*
X112151Y245144D01*
X112100Y245181D01*
X112059Y245212D01*
X112025Y245239D01*
X111998Y245261D01*
X111991Y245268D01*
X111984Y245273D01*
X111981Y245278D01*
X111979D01*
Y243307D01*
X111670D01*
Y245839D01*
X111869D01*
X111886Y245808D01*
D02*
G37*
G36*
X108832Y243307D02*
X108523D01*
Y244029D01*
X108305Y244243D01*
X107702Y243307D01*
X107318D01*
X108086Y244454D01*
X107388Y245134D01*
X107790D01*
X108523Y244388D01*
Y245829D01*
X108832D01*
Y243307D01*
D02*
G37*
G36*
X110108Y245837D02*
X110154Y245832D01*
X110200Y245825D01*
X110244Y245817D01*
X110285Y245805D01*
X110321Y245793D01*
X110355Y245778D01*
X110387Y245766D01*
X110416Y245752D01*
X110441Y245737D01*
X110462Y245725D01*
X110479Y245715D01*
X110494Y245706D01*
X110506Y245698D01*
X110511Y245693D01*
X110513Y245691D01*
X110547Y245662D01*
X110577Y245630D01*
X110633Y245562D01*
X110681Y245492D01*
X110720Y245426D01*
X110735Y245394D01*
X110749Y245365D01*
X110761Y245339D01*
X110771Y245314D01*
X110778Y245297D01*
X110783Y245283D01*
X110788Y245273D01*
Y245270D01*
X110803Y245217D01*
X110817Y245161D01*
X110839Y245044D01*
X110856Y244923D01*
X110861Y244865D01*
X110866Y244809D01*
X110871Y244755D01*
X110873Y244707D01*
X110876Y244663D01*
Y244627D01*
X110878Y244595D01*
Y244571D01*
Y244556D01*
Y244554D01*
Y244551D01*
X110876Y244423D01*
X110868Y244303D01*
X110856Y244192D01*
X110839Y244090D01*
X110820Y243997D01*
X110800Y243915D01*
X110776Y243839D01*
X110754Y243771D01*
X110730Y243713D01*
X110708Y243662D01*
X110688Y243621D01*
X110669Y243586D01*
X110652Y243560D01*
X110640Y243540D01*
X110633Y243531D01*
X110630Y243526D01*
X110589Y243480D01*
X110545Y243441D01*
X110499Y243404D01*
X110453Y243375D01*
X110404Y243351D01*
X110358Y243329D01*
X110309Y243312D01*
X110266Y243297D01*
X110222Y243288D01*
X110183Y243280D01*
X110147Y243273D01*
X110117Y243271D01*
X110091Y243268D01*
X110074Y243266D01*
X110057D01*
X110006Y243268D01*
X109957Y243273D01*
X109911Y243280D01*
X109867Y243288D01*
X109828Y243300D01*
X109789Y243312D01*
X109755Y243324D01*
X109724Y243339D01*
X109697Y243353D01*
X109670Y243365D01*
X109651Y243378D01*
X109631Y243390D01*
X109619Y243397D01*
X109607Y243404D01*
X109602Y243409D01*
X109600Y243412D01*
X109566Y243441D01*
X109537Y243472D01*
X109481Y243540D01*
X109432Y243611D01*
X109393Y243676D01*
X109379Y243708D01*
X109364Y243737D01*
X109352Y243764D01*
X109342Y243788D01*
X109335Y243805D01*
X109330Y243820D01*
X109325Y243829D01*
Y243832D01*
X109308Y243885D01*
X109294Y243941D01*
X109272Y244060D01*
X109255Y244180D01*
X109250Y244238D01*
X109245Y244294D01*
X109240Y244347D01*
X109238Y244396D01*
X109235Y244440D01*
Y244478D01*
X109233Y244508D01*
Y244532D01*
Y244546D01*
Y244551D01*
Y244619D01*
X109235Y244685D01*
X109238Y244746D01*
X109243Y244801D01*
X109248Y244855D01*
X109252Y244904D01*
X109257Y244950D01*
X109262Y244989D01*
X109267Y245025D01*
X109272Y245057D01*
X109277Y245083D01*
X109282Y245105D01*
X109286Y245125D01*
X109289Y245137D01*
X109291Y245144D01*
Y245147D01*
X109313Y245227D01*
X109340Y245297D01*
X109364Y245363D01*
X109379Y245390D01*
X109391Y245416D01*
X109400Y245441D01*
X109413Y245460D01*
X109422Y245479D01*
X109430Y245494D01*
X109437Y245506D01*
X109442Y245514D01*
X109447Y245518D01*
Y245521D01*
X109486Y245574D01*
X109529Y245623D01*
X109571Y245662D01*
X109609Y245696D01*
X109646Y245723D01*
X109673Y245742D01*
X109685Y245747D01*
X109692Y245752D01*
X109697Y245757D01*
X109699D01*
X109758Y245783D01*
X109821Y245805D01*
X109879Y245820D01*
X109935Y245829D01*
X109962Y245832D01*
X109984Y245834D01*
X110006Y245837D01*
X110023Y245839D01*
X110057D01*
X110108Y245837D01*
D02*
G37*
G36*
X42345Y237104D02*
X42464Y237097D01*
X42576Y237084D01*
X42678Y237067D01*
X42770Y237048D01*
X42853Y237029D01*
X42928Y237004D01*
X42996Y236982D01*
X43055Y236958D01*
X43106Y236936D01*
X43147Y236917D01*
X43181Y236897D01*
X43207Y236880D01*
X43227Y236868D01*
X43237Y236861D01*
X43242Y236858D01*
X43288Y236817D01*
X43327Y236773D01*
X43363Y236727D01*
X43392Y236681D01*
X43417Y236632D01*
X43438Y236586D01*
X43455Y236538D01*
X43470Y236494D01*
X43480Y236450D01*
X43487Y236411D01*
X43494Y236375D01*
X43497Y236346D01*
X43499Y236319D01*
X43502Y236302D01*
Y236285D01*
X43499Y236234D01*
X43494Y236185D01*
X43487Y236139D01*
X43480Y236095D01*
X43468Y236056D01*
X43455Y236018D01*
X43443Y235984D01*
X43429Y235952D01*
X43414Y235925D01*
X43402Y235899D01*
X43390Y235879D01*
X43378Y235860D01*
X43370Y235848D01*
X43363Y235835D01*
X43358Y235830D01*
X43356Y235828D01*
X43327Y235794D01*
X43295Y235765D01*
X43227Y235709D01*
X43156Y235660D01*
X43091Y235622D01*
X43059Y235607D01*
X43030Y235592D01*
X43003Y235580D01*
X42979Y235571D01*
X42962Y235563D01*
X42948Y235558D01*
X42938Y235554D01*
X42935D01*
X42882Y235537D01*
X42826Y235522D01*
X42707Y235500D01*
X42588Y235483D01*
X42530Y235478D01*
X42474Y235473D01*
X42420Y235469D01*
X42372Y235466D01*
X42328Y235464D01*
X42289D01*
X42260Y235461D01*
X42235D01*
X42221D01*
X42216D01*
X42148D01*
X42083Y235464D01*
X42022Y235466D01*
X41966Y235471D01*
X41912Y235476D01*
X41864Y235481D01*
X41818Y235486D01*
X41779Y235490D01*
X41742Y235495D01*
X41711Y235500D01*
X41684Y235505D01*
X41662Y235510D01*
X41643Y235515D01*
X41631Y235517D01*
X41623Y235520D01*
X41621D01*
X41541Y235541D01*
X41470Y235568D01*
X41405Y235592D01*
X41378Y235607D01*
X41351Y235619D01*
X41327Y235629D01*
X41307Y235641D01*
X41288Y235651D01*
X41273Y235658D01*
X41261Y235665D01*
X41254Y235670D01*
X41249Y235675D01*
X41247D01*
X41193Y235714D01*
X41144Y235758D01*
X41106Y235799D01*
X41072Y235838D01*
X41045Y235874D01*
X41025Y235901D01*
X41021Y235913D01*
X41016Y235921D01*
X41011Y235925D01*
Y235928D01*
X40984Y235986D01*
X40962Y236049D01*
X40948Y236108D01*
X40938Y236163D01*
X40936Y236190D01*
X40933Y236212D01*
X40931Y236234D01*
X40928Y236251D01*
Y236285D01*
X40931Y236336D01*
X40936Y236382D01*
X40943Y236428D01*
X40950Y236472D01*
X40962Y236513D01*
X40974Y236550D01*
X40989Y236584D01*
X41001Y236615D01*
X41016Y236645D01*
X41030Y236669D01*
X41042Y236691D01*
X41052Y236708D01*
X41062Y236722D01*
X41069Y236735D01*
X41074Y236739D01*
X41076Y236742D01*
X41106Y236776D01*
X41137Y236805D01*
X41205Y236861D01*
X41276Y236910D01*
X41341Y236948D01*
X41373Y236963D01*
X41402Y236978D01*
X41429Y236990D01*
X41453Y236999D01*
X41470Y237007D01*
X41485Y237012D01*
X41494Y237016D01*
X41497D01*
X41550Y237031D01*
X41606Y237046D01*
X41723Y237067D01*
X41844Y237084D01*
X41903Y237089D01*
X41958Y237094D01*
X42012Y237099D01*
X42061Y237101D01*
X42104Y237104D01*
X42141D01*
X42172Y237106D01*
X42197D01*
X42211D01*
X42214D01*
X42216D01*
X42345Y237104D01*
D02*
G37*
G36*
X43460Y234620D02*
X43108D01*
Y234973D01*
X43460D01*
Y234620D01*
D02*
G37*
G36*
X41839Y233874D02*
X41813Y233819D01*
X41786Y233765D01*
X41762Y233714D01*
X41737Y233670D01*
X41728Y233653D01*
X41718Y233636D01*
X41711Y233624D01*
X41706Y233614D01*
X41701Y233610D01*
Y233607D01*
X41662Y233541D01*
X41623Y233483D01*
X41587Y233432D01*
X41555Y233391D01*
X41528Y233357D01*
X41506Y233330D01*
X41499Y233323D01*
X41494Y233315D01*
X41489Y233313D01*
Y233311D01*
X43460D01*
Y233002D01*
X40928D01*
Y233201D01*
X40960Y233218D01*
X40991Y233238D01*
X41052Y233279D01*
X41108Y233325D01*
X41159Y233371D01*
X41183Y233393D01*
X41205Y233413D01*
X41222Y233430D01*
X41239Y233447D01*
X41251Y233459D01*
X41261Y233469D01*
X41266Y233476D01*
X41268Y233478D01*
X41332Y233554D01*
X41388Y233631D01*
X41436Y233707D01*
X41480Y233777D01*
X41499Y233809D01*
X41514Y233838D01*
X41528Y233865D01*
X41541Y233887D01*
X41550Y233906D01*
X41558Y233918D01*
X41560Y233928D01*
X41562Y233930D01*
X41861D01*
X41839Y233874D01*
D02*
G37*
G36*
X44160Y230796D02*
X43278D01*
X43322Y230759D01*
X43358Y230725D01*
X43387Y230696D01*
X43409Y230669D01*
X43426Y230647D01*
X43436Y230630D01*
X43443Y230618D01*
X43446Y230616D01*
X43465Y230572D01*
X43477Y230528D01*
X43487Y230487D01*
X43494Y230448D01*
X43499Y230414D01*
X43502Y230387D01*
Y230363D01*
X43499Y230305D01*
X43492Y230251D01*
X43480Y230203D01*
X43468Y230161D01*
X43455Y230127D01*
X43443Y230103D01*
X43441Y230093D01*
X43436Y230086D01*
X43433Y230084D01*
Y230081D01*
X43409Y230047D01*
X43380Y230016D01*
X43351Y229986D01*
X43319Y229960D01*
X43290Y229938D01*
X43266Y229918D01*
X43256Y229913D01*
X43249Y229909D01*
X43246Y229904D01*
X43460D01*
Y229627D01*
X41633D01*
Y229930D01*
X42413D01*
X42488D01*
X42556Y229933D01*
X42619Y229935D01*
X42675Y229938D01*
X42724Y229940D01*
X42768Y229945D01*
X42807Y229950D01*
X42841Y229952D01*
X42870Y229957D01*
X42892Y229962D01*
X42911Y229967D01*
X42928Y229969D01*
X42938Y229972D01*
X42948Y229974D01*
X42950Y229977D01*
X42952D01*
X42994Y229996D01*
X43033Y230018D01*
X43067Y230045D01*
X43093Y230069D01*
X43118Y230093D01*
X43132Y230113D01*
X43144Y230125D01*
X43147Y230127D01*
Y230130D01*
X43171Y230171D01*
X43191Y230212D01*
X43203Y230254D01*
X43212Y230293D01*
X43217Y230327D01*
X43220Y230351D01*
X43222Y230361D01*
Y230375D01*
X43220Y230424D01*
X43210Y230468D01*
X43200Y230506D01*
X43186Y230540D01*
X43174Y230570D01*
X43161Y230592D01*
X43154Y230604D01*
X43152Y230609D01*
X43123Y230643D01*
X43091Y230672D01*
X43057Y230698D01*
X43025Y230718D01*
X42999Y230732D01*
X42974Y230745D01*
X42960Y230749D01*
X42957Y230752D01*
X42955D01*
X42928Y230759D01*
X42894Y230766D01*
X42858Y230771D01*
X42816Y230776D01*
X42773Y230781D01*
X42726Y230786D01*
X42634Y230791D01*
X42590D01*
X42547Y230793D01*
X42510D01*
X42476Y230796D01*
X42447D01*
X42428D01*
X42413D01*
X42408D01*
X41633D01*
Y231102D01*
X44160D01*
Y230796D01*
D02*
G37*
G36*
X43460Y228725D02*
X42313D01*
Y227542D01*
X42017D01*
Y228725D01*
X41234D01*
Y227357D01*
X40938D01*
Y229058D01*
X43460D01*
Y228725D01*
D02*
G37*
G36*
X41557Y142616D02*
X41677Y142608D01*
X41788Y142596D01*
X41890Y142579D01*
X41983Y142560D01*
X42065Y142540D01*
X42141Y142516D01*
X42209Y142494D01*
X42267Y142470D01*
X42318Y142448D01*
X42359Y142429D01*
X42393Y142409D01*
X42420Y142392D01*
X42440Y142380D01*
X42449Y142373D01*
X42454Y142370D01*
X42500Y142329D01*
X42539Y142285D01*
X42576Y142239D01*
X42605Y142193D01*
X42629Y142144D01*
X42651Y142098D01*
X42668Y142050D01*
X42683Y142006D01*
X42692Y141962D01*
X42700Y141923D01*
X42707Y141887D01*
X42709Y141858D01*
X42712Y141831D01*
X42714Y141814D01*
Y141797D01*
X42712Y141746D01*
X42707Y141697D01*
X42700Y141651D01*
X42692Y141607D01*
X42680Y141568D01*
X42668Y141530D01*
X42656Y141496D01*
X42641Y141464D01*
X42627Y141437D01*
X42614Y141410D01*
X42602Y141391D01*
X42590Y141372D01*
X42583Y141359D01*
X42576Y141347D01*
X42571Y141342D01*
X42568Y141340D01*
X42539Y141306D01*
X42508Y141277D01*
X42440Y141221D01*
X42369Y141172D01*
X42303Y141133D01*
X42272Y141119D01*
X42243Y141104D01*
X42216Y141092D01*
X42192Y141082D01*
X42175Y141075D01*
X42160Y141070D01*
X42150Y141065D01*
X42148D01*
X42094Y141048D01*
X42039Y141034D01*
X41919Y141012D01*
X41800Y140995D01*
X41742Y140990D01*
X41686Y140985D01*
X41633Y140980D01*
X41584Y140978D01*
X41541Y140975D01*
X41502D01*
X41472Y140973D01*
X41448D01*
X41434D01*
X41429D01*
X41361D01*
X41295Y140975D01*
X41234Y140978D01*
X41178Y140983D01*
X41125Y140988D01*
X41076Y140992D01*
X41030Y140997D01*
X40991Y141002D01*
X40955Y141007D01*
X40923Y141012D01*
X40896Y141017D01*
X40875Y141022D01*
X40855Y141026D01*
X40843Y141029D01*
X40836Y141031D01*
X40833D01*
X40753Y141053D01*
X40683Y141080D01*
X40617Y141104D01*
X40590Y141119D01*
X40564Y141131D01*
X40539Y141141D01*
X40520Y141153D01*
X40500Y141163D01*
X40486Y141170D01*
X40474Y141177D01*
X40466Y141182D01*
X40462Y141187D01*
X40459D01*
X40406Y141226D01*
X40357Y141270D01*
X40318Y141311D01*
X40284Y141350D01*
X40257Y141386D01*
X40238Y141413D01*
X40233Y141425D01*
X40228Y141432D01*
X40223Y141437D01*
Y141440D01*
X40197Y141498D01*
X40175Y141561D01*
X40160Y141619D01*
X40150Y141675D01*
X40148Y141702D01*
X40146Y141724D01*
X40143Y141746D01*
X40141Y141763D01*
Y141797D01*
X40143Y141848D01*
X40148Y141894D01*
X40155Y141940D01*
X40163Y141984D01*
X40175Y142025D01*
X40187Y142062D01*
X40202Y142096D01*
X40214Y142127D01*
X40228Y142156D01*
X40243Y142181D01*
X40255Y142203D01*
X40265Y142220D01*
X40274Y142234D01*
X40282Y142246D01*
X40287Y142251D01*
X40289Y142254D01*
X40318Y142288D01*
X40350Y142317D01*
X40418Y142373D01*
X40488Y142421D01*
X40554Y142460D01*
X40586Y142475D01*
X40615Y142489D01*
X40641Y142501D01*
X40666Y142511D01*
X40683Y142518D01*
X40697Y142523D01*
X40707Y142528D01*
X40709D01*
X40763Y142543D01*
X40819Y142557D01*
X40935Y142579D01*
X41057Y142596D01*
X41115Y142601D01*
X41171Y142606D01*
X41225Y142611D01*
X41273Y142613D01*
X41317Y142616D01*
X41353D01*
X41385Y142618D01*
X41409D01*
X41424D01*
X41426D01*
X41429D01*
X41557Y142616D01*
D02*
G37*
G36*
X42673Y140132D02*
X42320D01*
Y140485D01*
X42673D01*
Y140132D01*
D02*
G37*
G36*
X41052Y139386D02*
X41025Y139330D01*
X40999Y139277D01*
X40974Y139226D01*
X40950Y139182D01*
X40940Y139165D01*
X40931Y139148D01*
X40923Y139136D01*
X40918Y139126D01*
X40914Y139121D01*
Y139119D01*
X40875Y139053D01*
X40836Y138995D01*
X40799Y138944D01*
X40768Y138903D01*
X40741Y138869D01*
X40719Y138842D01*
X40712Y138835D01*
X40707Y138827D01*
X40702Y138825D01*
Y138822D01*
X42673D01*
Y138514D01*
X40141D01*
Y138713D01*
X40172Y138730D01*
X40204Y138750D01*
X40265Y138791D01*
X40321Y138837D01*
X40372Y138883D01*
X40396Y138905D01*
X40418Y138925D01*
X40435Y138942D01*
X40452Y138959D01*
X40464Y138971D01*
X40474Y138980D01*
X40479Y138988D01*
X40481Y138990D01*
X40544Y139066D01*
X40600Y139143D01*
X40649Y139218D01*
X40692Y139289D01*
X40712Y139321D01*
X40726Y139350D01*
X40741Y139376D01*
X40753Y139398D01*
X40763Y139418D01*
X40770Y139430D01*
X40773Y139440D01*
X40775Y139442D01*
X41074D01*
X41052Y139386D01*
D02*
G37*
G36*
X43373Y136307D02*
X42491D01*
X42534Y136271D01*
X42571Y136237D01*
X42600Y136208D01*
X42622Y136181D01*
X42639Y136159D01*
X42649Y136142D01*
X42656Y136130D01*
X42658Y136128D01*
X42678Y136084D01*
X42690Y136040D01*
X42700Y135999D01*
X42707Y135960D01*
X42712Y135926D01*
X42714Y135899D01*
Y135875D01*
X42712Y135817D01*
X42704Y135763D01*
X42692Y135714D01*
X42680Y135673D01*
X42668Y135639D01*
X42656Y135615D01*
X42653Y135605D01*
X42649Y135598D01*
X42646Y135595D01*
Y135593D01*
X42622Y135559D01*
X42593Y135527D01*
X42564Y135498D01*
X42532Y135471D01*
X42503Y135450D01*
X42478Y135430D01*
X42469Y135425D01*
X42461Y135421D01*
X42459Y135416D01*
X42673D01*
Y135139D01*
X40846D01*
Y135442D01*
X41625D01*
X41701D01*
X41769Y135445D01*
X41832Y135447D01*
X41888Y135450D01*
X41937Y135452D01*
X41980Y135457D01*
X42019Y135462D01*
X42053Y135464D01*
X42082Y135469D01*
X42104Y135474D01*
X42124Y135479D01*
X42141Y135481D01*
X42150Y135484D01*
X42160Y135486D01*
X42162Y135488D01*
X42165D01*
X42206Y135508D01*
X42245Y135530D01*
X42279Y135556D01*
X42306Y135581D01*
X42330Y135605D01*
X42345Y135625D01*
X42357Y135637D01*
X42359Y135639D01*
Y135642D01*
X42384Y135683D01*
X42403Y135724D01*
X42415Y135766D01*
X42425Y135804D01*
X42430Y135838D01*
X42432Y135863D01*
X42435Y135872D01*
Y135887D01*
X42432Y135936D01*
X42423Y135979D01*
X42413Y136018D01*
X42398Y136052D01*
X42386Y136081D01*
X42374Y136103D01*
X42367Y136115D01*
X42364Y136120D01*
X42335Y136154D01*
X42303Y136184D01*
X42270Y136210D01*
X42238Y136230D01*
X42211Y136244D01*
X42187Y136256D01*
X42172Y136261D01*
X42170Y136264D01*
X42167D01*
X42141Y136271D01*
X42107Y136278D01*
X42070Y136283D01*
X42029Y136288D01*
X41985Y136293D01*
X41939Y136298D01*
X41847Y136302D01*
X41803D01*
X41759Y136305D01*
X41723D01*
X41689Y136307D01*
X41660D01*
X41640D01*
X41625D01*
X41621D01*
X40846D01*
Y136614D01*
X43373D01*
Y136307D01*
D02*
G37*
G36*
X42673Y134237D02*
X41526D01*
Y133054D01*
X41229D01*
Y134237D01*
X40447D01*
Y132869D01*
X40150D01*
Y134570D01*
X42673D01*
Y134237D01*
D02*
G37*
G36*
X41557Y190647D02*
X41677Y190640D01*
X41788Y190628D01*
X41890Y190611D01*
X41983Y190591D01*
X42065Y190572D01*
X42141Y190548D01*
X42209Y190526D01*
X42267Y190501D01*
X42318Y190480D01*
X42359Y190460D01*
X42393Y190441D01*
X42420Y190424D01*
X42440Y190411D01*
X42449Y190404D01*
X42454Y190402D01*
X42500Y190360D01*
X42539Y190317D01*
X42576Y190270D01*
X42605Y190224D01*
X42629Y190176D01*
X42651Y190130D01*
X42668Y190081D01*
X42683Y190037D01*
X42692Y189994D01*
X42700Y189955D01*
X42707Y189918D01*
X42709Y189889D01*
X42712Y189862D01*
X42714Y189845D01*
Y189828D01*
X42712Y189777D01*
X42707Y189729D01*
X42700Y189682D01*
X42692Y189639D01*
X42680Y189600D01*
X42668Y189561D01*
X42656Y189527D01*
X42641Y189495D01*
X42627Y189469D01*
X42614Y189442D01*
X42602Y189423D01*
X42590Y189403D01*
X42583Y189391D01*
X42576Y189379D01*
X42571Y189374D01*
X42568Y189371D01*
X42539Y189337D01*
X42508Y189308D01*
X42440Y189252D01*
X42369Y189204D01*
X42303Y189165D01*
X42272Y189150D01*
X42243Y189136D01*
X42216Y189124D01*
X42192Y189114D01*
X42175Y189107D01*
X42160Y189102D01*
X42150Y189097D01*
X42148D01*
X42094Y189080D01*
X42039Y189065D01*
X41919Y189043D01*
X41800Y189026D01*
X41742Y189022D01*
X41686Y189017D01*
X41633Y189012D01*
X41584Y189009D01*
X41541Y189007D01*
X41502D01*
X41472Y189005D01*
X41448D01*
X41434D01*
X41429D01*
X41361D01*
X41295Y189007D01*
X41234Y189009D01*
X41178Y189014D01*
X41125Y189019D01*
X41076Y189024D01*
X41030Y189029D01*
X40991Y189034D01*
X40955Y189039D01*
X40923Y189043D01*
X40896Y189048D01*
X40875Y189053D01*
X40855Y189058D01*
X40843Y189060D01*
X40836Y189063D01*
X40833D01*
X40753Y189085D01*
X40683Y189111D01*
X40617Y189136D01*
X40590Y189150D01*
X40564Y189162D01*
X40539Y189172D01*
X40520Y189184D01*
X40500Y189194D01*
X40486Y189201D01*
X40474Y189209D01*
X40466Y189214D01*
X40462Y189218D01*
X40459D01*
X40406Y189257D01*
X40357Y189301D01*
X40318Y189342D01*
X40284Y189381D01*
X40257Y189418D01*
X40238Y189444D01*
X40233Y189456D01*
X40228Y189464D01*
X40223Y189469D01*
Y189471D01*
X40197Y189529D01*
X40175Y189593D01*
X40160Y189651D01*
X40150Y189707D01*
X40148Y189734D01*
X40146Y189755D01*
X40143Y189777D01*
X40141Y189794D01*
Y189828D01*
X40143Y189879D01*
X40148Y189926D01*
X40155Y189972D01*
X40163Y190015D01*
X40175Y190057D01*
X40187Y190093D01*
X40202Y190127D01*
X40214Y190159D01*
X40228Y190188D01*
X40243Y190212D01*
X40255Y190234D01*
X40265Y190251D01*
X40274Y190266D01*
X40282Y190278D01*
X40287Y190283D01*
X40289Y190285D01*
X40318Y190319D01*
X40350Y190348D01*
X40418Y190404D01*
X40488Y190453D01*
X40554Y190492D01*
X40586Y190506D01*
X40615Y190521D01*
X40641Y190533D01*
X40666Y190543D01*
X40683Y190550D01*
X40697Y190555D01*
X40707Y190560D01*
X40709D01*
X40763Y190574D01*
X40819Y190589D01*
X40935Y190611D01*
X41057Y190628D01*
X41115Y190633D01*
X41171Y190638D01*
X41225Y190642D01*
X41273Y190645D01*
X41317Y190647D01*
X41353D01*
X41385Y190650D01*
X41409D01*
X41424D01*
X41426D01*
X41429D01*
X41557Y190647D01*
D02*
G37*
G36*
X42673Y188164D02*
X42320D01*
Y188516D01*
X42673D01*
Y188164D01*
D02*
G37*
G36*
X41052Y187418D02*
X41025Y187362D01*
X40999Y187308D01*
X40974Y187257D01*
X40950Y187214D01*
X40940Y187197D01*
X40931Y187180D01*
X40923Y187167D01*
X40918Y187158D01*
X40914Y187153D01*
Y187150D01*
X40875Y187085D01*
X40836Y187027D01*
X40799Y186976D01*
X40768Y186934D01*
X40741Y186900D01*
X40719Y186873D01*
X40712Y186866D01*
X40707Y186859D01*
X40702Y186856D01*
Y186854D01*
X42673D01*
Y186545D01*
X40141D01*
Y186745D01*
X40172Y186762D01*
X40204Y186781D01*
X40265Y186822D01*
X40321Y186869D01*
X40372Y186915D01*
X40396Y186937D01*
X40418Y186956D01*
X40435Y186973D01*
X40452Y186990D01*
X40464Y187002D01*
X40474Y187012D01*
X40479Y187019D01*
X40481Y187022D01*
X40544Y187097D01*
X40600Y187175D01*
X40649Y187250D01*
X40692Y187320D01*
X40712Y187352D01*
X40726Y187381D01*
X40741Y187408D01*
X40753Y187430D01*
X40763Y187449D01*
X40770Y187461D01*
X40773Y187471D01*
X40775Y187474D01*
X41074D01*
X41052Y187418D01*
D02*
G37*
G36*
X43373Y184339D02*
X42491D01*
X42534Y184302D01*
X42571Y184268D01*
X42600Y184239D01*
X42622Y184213D01*
X42639Y184191D01*
X42649Y184174D01*
X42656Y184161D01*
X42658Y184159D01*
X42678Y184115D01*
X42690Y184072D01*
X42700Y184030D01*
X42707Y183991D01*
X42712Y183957D01*
X42714Y183931D01*
Y183906D01*
X42712Y183848D01*
X42704Y183795D01*
X42692Y183746D01*
X42680Y183705D01*
X42668Y183671D01*
X42656Y183646D01*
X42653Y183637D01*
X42649Y183629D01*
X42646Y183627D01*
Y183624D01*
X42622Y183590D01*
X42593Y183559D01*
X42564Y183530D01*
X42532Y183503D01*
X42503Y183481D01*
X42478Y183462D01*
X42469Y183457D01*
X42461Y183452D01*
X42459Y183447D01*
X42673D01*
Y183170D01*
X40846D01*
Y183474D01*
X41625D01*
X41701D01*
X41769Y183476D01*
X41832Y183479D01*
X41888Y183481D01*
X41937Y183484D01*
X41980Y183488D01*
X42019Y183493D01*
X42053Y183496D01*
X42082Y183501D01*
X42104Y183505D01*
X42124Y183510D01*
X42141Y183513D01*
X42150Y183515D01*
X42160Y183518D01*
X42162Y183520D01*
X42165D01*
X42206Y183539D01*
X42245Y183561D01*
X42279Y183588D01*
X42306Y183612D01*
X42330Y183637D01*
X42345Y183656D01*
X42357Y183668D01*
X42359Y183671D01*
Y183673D01*
X42384Y183714D01*
X42403Y183756D01*
X42415Y183797D01*
X42425Y183836D01*
X42430Y183870D01*
X42432Y183894D01*
X42435Y183904D01*
Y183918D01*
X42432Y183967D01*
X42423Y184011D01*
X42413Y184050D01*
X42398Y184084D01*
X42386Y184113D01*
X42374Y184135D01*
X42367Y184147D01*
X42364Y184152D01*
X42335Y184186D01*
X42303Y184215D01*
X42270Y184242D01*
X42238Y184261D01*
X42211Y184276D01*
X42187Y184288D01*
X42172Y184293D01*
X42170Y184295D01*
X42167D01*
X42141Y184302D01*
X42107Y184310D01*
X42070Y184315D01*
X42029Y184319D01*
X41985Y184324D01*
X41939Y184329D01*
X41847Y184334D01*
X41803D01*
X41759Y184336D01*
X41723D01*
X41689Y184339D01*
X41660D01*
X41640D01*
X41625D01*
X41621D01*
X40846D01*
Y184645D01*
X43373D01*
Y184339D01*
D02*
G37*
G36*
X42673Y182269D02*
X41526D01*
Y181085D01*
X41229D01*
Y182269D01*
X40447D01*
Y180901D01*
X40150D01*
Y182601D01*
X42673D01*
Y182269D01*
D02*
G37*
G36*
X41557Y48127D02*
X41677Y48120D01*
X41788Y48108D01*
X41890Y48091D01*
X41983Y48072D01*
X42065Y48052D01*
X42141Y48028D01*
X42209Y48006D01*
X42267Y47982D01*
X42318Y47960D01*
X42359Y47940D01*
X42393Y47921D01*
X42420Y47904D01*
X42440Y47892D01*
X42449Y47885D01*
X42454Y47882D01*
X42500Y47841D01*
X42539Y47797D01*
X42576Y47751D01*
X42605Y47705D01*
X42629Y47656D01*
X42651Y47610D01*
X42668Y47561D01*
X42683Y47518D01*
X42692Y47474D01*
X42700Y47435D01*
X42707Y47398D01*
X42709Y47369D01*
X42712Y47343D01*
X42714Y47326D01*
Y47309D01*
X42712Y47258D01*
X42707Y47209D01*
X42700Y47163D01*
X42692Y47119D01*
X42680Y47080D01*
X42668Y47041D01*
X42656Y47007D01*
X42641Y46976D01*
X42627Y46949D01*
X42614Y46922D01*
X42602Y46903D01*
X42590Y46883D01*
X42583Y46871D01*
X42576Y46859D01*
X42571Y46854D01*
X42568Y46852D01*
X42539Y46818D01*
X42508Y46789D01*
X42440Y46733D01*
X42369Y46684D01*
X42303Y46645D01*
X42272Y46631D01*
X42243Y46616D01*
X42216Y46604D01*
X42192Y46594D01*
X42175Y46587D01*
X42160Y46582D01*
X42150Y46577D01*
X42148D01*
X42094Y46560D01*
X42039Y46546D01*
X41919Y46524D01*
X41800Y46507D01*
X41742Y46502D01*
X41686Y46497D01*
X41633Y46492D01*
X41584Y46490D01*
X41541Y46487D01*
X41502D01*
X41472Y46485D01*
X41448D01*
X41434D01*
X41429D01*
X41361D01*
X41295Y46487D01*
X41234Y46490D01*
X41178Y46494D01*
X41125Y46499D01*
X41076Y46504D01*
X41030Y46509D01*
X40991Y46514D01*
X40955Y46519D01*
X40923Y46524D01*
X40896Y46529D01*
X40875Y46533D01*
X40855Y46538D01*
X40843Y46541D01*
X40836Y46543D01*
X40833D01*
X40753Y46565D01*
X40683Y46592D01*
X40617Y46616D01*
X40590Y46631D01*
X40564Y46643D01*
X40539Y46652D01*
X40520Y46665D01*
X40500Y46674D01*
X40486Y46682D01*
X40474Y46689D01*
X40466Y46694D01*
X40462Y46699D01*
X40459D01*
X40406Y46738D01*
X40357Y46781D01*
X40318Y46823D01*
X40284Y46861D01*
X40257Y46898D01*
X40238Y46925D01*
X40233Y46937D01*
X40228Y46944D01*
X40223Y46949D01*
Y46951D01*
X40197Y47010D01*
X40175Y47073D01*
X40160Y47131D01*
X40150Y47187D01*
X40148Y47214D01*
X40146Y47236D01*
X40143Y47258D01*
X40141Y47275D01*
Y47309D01*
X40143Y47360D01*
X40148Y47406D01*
X40155Y47452D01*
X40163Y47496D01*
X40175Y47537D01*
X40187Y47574D01*
X40202Y47607D01*
X40214Y47639D01*
X40228Y47668D01*
X40243Y47692D01*
X40255Y47714D01*
X40265Y47731D01*
X40274Y47746D01*
X40282Y47758D01*
X40287Y47763D01*
X40289Y47765D01*
X40318Y47799D01*
X40350Y47829D01*
X40418Y47885D01*
X40488Y47933D01*
X40554Y47972D01*
X40586Y47987D01*
X40615Y48001D01*
X40641Y48013D01*
X40666Y48023D01*
X40683Y48030D01*
X40697Y48035D01*
X40707Y48040D01*
X40709D01*
X40763Y48055D01*
X40819Y48069D01*
X40935Y48091D01*
X41057Y48108D01*
X41115Y48113D01*
X41171Y48118D01*
X41225Y48123D01*
X41273Y48125D01*
X41317Y48127D01*
X41353D01*
X41385Y48130D01*
X41409D01*
X41424D01*
X41426D01*
X41429D01*
X41557Y48127D01*
D02*
G37*
G36*
X42673Y45644D02*
X42320D01*
Y45996D01*
X42673D01*
Y45644D01*
D02*
G37*
G36*
X41052Y44898D02*
X41025Y44842D01*
X40999Y44789D01*
X40974Y44738D01*
X40950Y44694D01*
X40940Y44677D01*
X40931Y44660D01*
X40923Y44648D01*
X40918Y44638D01*
X40914Y44633D01*
Y44631D01*
X40875Y44565D01*
X40836Y44507D01*
X40799Y44456D01*
X40768Y44414D01*
X40741Y44380D01*
X40719Y44354D01*
X40712Y44346D01*
X40707Y44339D01*
X40702Y44337D01*
Y44334D01*
X42673D01*
Y44026D01*
X40141D01*
Y44225D01*
X40172Y44242D01*
X40204Y44261D01*
X40265Y44303D01*
X40321Y44349D01*
X40372Y44395D01*
X40396Y44417D01*
X40418Y44436D01*
X40435Y44453D01*
X40452Y44470D01*
X40464Y44482D01*
X40474Y44492D01*
X40479Y44499D01*
X40481Y44502D01*
X40544Y44577D01*
X40600Y44655D01*
X40649Y44730D01*
X40692Y44801D01*
X40712Y44832D01*
X40726Y44862D01*
X40741Y44888D01*
X40753Y44910D01*
X40763Y44930D01*
X40770Y44942D01*
X40773Y44952D01*
X40775Y44954D01*
X41074D01*
X41052Y44898D01*
D02*
G37*
G36*
X43373Y41819D02*
X42491D01*
X42534Y41783D01*
X42571Y41749D01*
X42600Y41720D01*
X42622Y41693D01*
X42639Y41671D01*
X42649Y41654D01*
X42656Y41642D01*
X42658Y41639D01*
X42678Y41596D01*
X42690Y41552D01*
X42700Y41511D01*
X42707Y41472D01*
X42712Y41438D01*
X42714Y41411D01*
Y41387D01*
X42712Y41328D01*
X42704Y41275D01*
X42692Y41226D01*
X42680Y41185D01*
X42668Y41151D01*
X42656Y41127D01*
X42653Y41117D01*
X42649Y41110D01*
X42646Y41107D01*
Y41105D01*
X42622Y41071D01*
X42593Y41039D01*
X42564Y41010D01*
X42532Y40983D01*
X42503Y40961D01*
X42478Y40942D01*
X42469Y40937D01*
X42461Y40932D01*
X42459Y40927D01*
X42673D01*
Y40650D01*
X40846D01*
Y40954D01*
X41625D01*
X41701D01*
X41769Y40957D01*
X41832Y40959D01*
X41888Y40961D01*
X41937Y40964D01*
X41980Y40969D01*
X42019Y40974D01*
X42053Y40976D01*
X42082Y40981D01*
X42104Y40986D01*
X42124Y40991D01*
X42141Y40993D01*
X42150Y40995D01*
X42160Y40998D01*
X42162Y41000D01*
X42165D01*
X42206Y41020D01*
X42245Y41042D01*
X42279Y41068D01*
X42306Y41093D01*
X42330Y41117D01*
X42345Y41136D01*
X42357Y41148D01*
X42359Y41151D01*
Y41153D01*
X42384Y41195D01*
X42403Y41236D01*
X42415Y41277D01*
X42425Y41316D01*
X42430Y41350D01*
X42432Y41374D01*
X42435Y41384D01*
Y41399D01*
X42432Y41447D01*
X42423Y41491D01*
X42413Y41530D01*
X42398Y41564D01*
X42386Y41593D01*
X42374Y41615D01*
X42367Y41627D01*
X42364Y41632D01*
X42335Y41666D01*
X42303Y41695D01*
X42270Y41722D01*
X42238Y41741D01*
X42211Y41756D01*
X42187Y41768D01*
X42172Y41773D01*
X42170Y41776D01*
X42167D01*
X42141Y41783D01*
X42107Y41790D01*
X42070Y41795D01*
X42029Y41800D01*
X41985Y41805D01*
X41939Y41809D01*
X41847Y41814D01*
X41803D01*
X41759Y41817D01*
X41723D01*
X41689Y41819D01*
X41660D01*
X41640D01*
X41625D01*
X41621D01*
X40846D01*
Y42125D01*
X43373D01*
Y41819D01*
D02*
G37*
G36*
X42673Y39749D02*
X41526D01*
Y38565D01*
X41229D01*
Y39749D01*
X40447D01*
Y38381D01*
X40150D01*
Y40082D01*
X42673D01*
Y39749D01*
D02*
G37*
G36*
X41557Y95372D02*
X41677Y95364D01*
X41788Y95352D01*
X41890Y95335D01*
X41983Y95316D01*
X42065Y95296D01*
X42141Y95272D01*
X42209Y95250D01*
X42267Y95226D01*
X42318Y95204D01*
X42359Y95184D01*
X42393Y95165D01*
X42420Y95148D01*
X42440Y95136D01*
X42449Y95129D01*
X42454Y95126D01*
X42500Y95085D01*
X42539Y95041D01*
X42576Y94995D01*
X42605Y94949D01*
X42629Y94900D01*
X42651Y94854D01*
X42668Y94805D01*
X42683Y94762D01*
X42692Y94718D01*
X42700Y94679D01*
X42707Y94643D01*
X42709Y94613D01*
X42712Y94587D01*
X42714Y94570D01*
Y94553D01*
X42712Y94502D01*
X42707Y94453D01*
X42700Y94407D01*
X42692Y94363D01*
X42680Y94324D01*
X42668Y94285D01*
X42656Y94251D01*
X42641Y94220D01*
X42627Y94193D01*
X42614Y94166D01*
X42602Y94147D01*
X42590Y94127D01*
X42583Y94115D01*
X42576Y94103D01*
X42571Y94098D01*
X42568Y94096D01*
X42539Y94062D01*
X42508Y94033D01*
X42440Y93977D01*
X42369Y93928D01*
X42303Y93889D01*
X42272Y93875D01*
X42243Y93860D01*
X42216Y93848D01*
X42192Y93838D01*
X42175Y93831D01*
X42160Y93826D01*
X42150Y93821D01*
X42148D01*
X42094Y93804D01*
X42039Y93790D01*
X41919Y93768D01*
X41800Y93751D01*
X41742Y93746D01*
X41686Y93741D01*
X41633Y93736D01*
X41584Y93734D01*
X41541Y93731D01*
X41502D01*
X41472Y93729D01*
X41448D01*
X41434D01*
X41429D01*
X41361D01*
X41295Y93731D01*
X41234Y93734D01*
X41178Y93739D01*
X41125Y93743D01*
X41076Y93748D01*
X41030Y93753D01*
X40991Y93758D01*
X40955Y93763D01*
X40923Y93768D01*
X40896Y93773D01*
X40875Y93778D01*
X40855Y93782D01*
X40843Y93785D01*
X40836Y93787D01*
X40833D01*
X40753Y93809D01*
X40683Y93836D01*
X40617Y93860D01*
X40590Y93875D01*
X40564Y93887D01*
X40539Y93897D01*
X40520Y93909D01*
X40500Y93918D01*
X40486Y93926D01*
X40474Y93933D01*
X40466Y93938D01*
X40462Y93943D01*
X40459D01*
X40406Y93982D01*
X40357Y94025D01*
X40318Y94067D01*
X40284Y94106D01*
X40257Y94142D01*
X40238Y94169D01*
X40233Y94181D01*
X40228Y94188D01*
X40223Y94193D01*
Y94195D01*
X40197Y94254D01*
X40175Y94317D01*
X40160Y94375D01*
X40150Y94431D01*
X40148Y94458D01*
X40146Y94480D01*
X40143Y94502D01*
X40141Y94519D01*
Y94553D01*
X40143Y94604D01*
X40148Y94650D01*
X40155Y94696D01*
X40163Y94740D01*
X40175Y94781D01*
X40187Y94818D01*
X40202Y94852D01*
X40214Y94883D01*
X40228Y94912D01*
X40243Y94937D01*
X40255Y94959D01*
X40265Y94976D01*
X40274Y94990D01*
X40282Y95002D01*
X40287Y95007D01*
X40289Y95009D01*
X40318Y95043D01*
X40350Y95073D01*
X40418Y95129D01*
X40488Y95177D01*
X40554Y95216D01*
X40586Y95231D01*
X40615Y95245D01*
X40641Y95257D01*
X40666Y95267D01*
X40683Y95274D01*
X40697Y95279D01*
X40707Y95284D01*
X40709D01*
X40763Y95299D01*
X40819Y95313D01*
X40935Y95335D01*
X41057Y95352D01*
X41115Y95357D01*
X41171Y95362D01*
X41225Y95367D01*
X41273Y95369D01*
X41317Y95372D01*
X41353D01*
X41385Y95374D01*
X41409D01*
X41424D01*
X41426D01*
X41429D01*
X41557Y95372D01*
D02*
G37*
G36*
X42673Y92888D02*
X42320D01*
Y93240D01*
X42673D01*
Y92888D01*
D02*
G37*
G36*
X41052Y92142D02*
X41025Y92086D01*
X40999Y92033D01*
X40974Y91982D01*
X40950Y91938D01*
X40940Y91921D01*
X40931Y91904D01*
X40923Y91892D01*
X40918Y91882D01*
X40914Y91877D01*
Y91875D01*
X40875Y91809D01*
X40836Y91751D01*
X40799Y91700D01*
X40768Y91659D01*
X40741Y91624D01*
X40719Y91598D01*
X40712Y91590D01*
X40707Y91583D01*
X40702Y91581D01*
Y91578D01*
X42673D01*
Y91270D01*
X40141D01*
Y91469D01*
X40172Y91486D01*
X40204Y91505D01*
X40265Y91547D01*
X40321Y91593D01*
X40372Y91639D01*
X40396Y91661D01*
X40418Y91680D01*
X40435Y91697D01*
X40452Y91714D01*
X40464Y91727D01*
X40474Y91736D01*
X40479Y91744D01*
X40481Y91746D01*
X40544Y91821D01*
X40600Y91899D01*
X40649Y91975D01*
X40692Y92045D01*
X40712Y92076D01*
X40726Y92106D01*
X40741Y92132D01*
X40753Y92154D01*
X40763Y92174D01*
X40770Y92186D01*
X40773Y92196D01*
X40775Y92198D01*
X41074D01*
X41052Y92142D01*
D02*
G37*
G36*
X43373Y89063D02*
X42491D01*
X42534Y89027D01*
X42571Y88993D01*
X42600Y88964D01*
X42622Y88937D01*
X42639Y88915D01*
X42649Y88898D01*
X42656Y88886D01*
X42658Y88884D01*
X42678Y88840D01*
X42690Y88796D01*
X42700Y88755D01*
X42707Y88716D01*
X42712Y88682D01*
X42714Y88655D01*
Y88631D01*
X42712Y88573D01*
X42704Y88519D01*
X42692Y88470D01*
X42680Y88429D01*
X42668Y88395D01*
X42656Y88371D01*
X42653Y88361D01*
X42649Y88354D01*
X42646Y88351D01*
Y88349D01*
X42622Y88315D01*
X42593Y88283D01*
X42564Y88254D01*
X42532Y88227D01*
X42503Y88205D01*
X42478Y88186D01*
X42469Y88181D01*
X42461Y88176D01*
X42459Y88171D01*
X42673D01*
Y87894D01*
X40846D01*
Y88198D01*
X41625D01*
X41701D01*
X41769Y88201D01*
X41832Y88203D01*
X41888Y88205D01*
X41937Y88208D01*
X41980Y88213D01*
X42019Y88218D01*
X42053Y88220D01*
X42082Y88225D01*
X42104Y88230D01*
X42124Y88235D01*
X42141Y88237D01*
X42150Y88240D01*
X42160Y88242D01*
X42162Y88244D01*
X42165D01*
X42206Y88264D01*
X42245Y88286D01*
X42279Y88312D01*
X42306Y88337D01*
X42330Y88361D01*
X42345Y88380D01*
X42357Y88393D01*
X42359Y88395D01*
Y88398D01*
X42384Y88439D01*
X42403Y88480D01*
X42415Y88521D01*
X42425Y88560D01*
X42430Y88594D01*
X42432Y88619D01*
X42435Y88628D01*
Y88643D01*
X42432Y88692D01*
X42423Y88735D01*
X42413Y88774D01*
X42398Y88808D01*
X42386Y88837D01*
X42374Y88859D01*
X42367Y88871D01*
X42364Y88876D01*
X42335Y88910D01*
X42303Y88939D01*
X42270Y88966D01*
X42238Y88986D01*
X42211Y89000D01*
X42187Y89012D01*
X42172Y89017D01*
X42170Y89020D01*
X42167D01*
X42141Y89027D01*
X42107Y89034D01*
X42070Y89039D01*
X42029Y89044D01*
X41985Y89049D01*
X41939Y89054D01*
X41847Y89059D01*
X41803D01*
X41759Y89061D01*
X41723D01*
X41689Y89063D01*
X41660D01*
X41640D01*
X41625D01*
X41621D01*
X40846D01*
Y89369D01*
X43373D01*
Y89063D01*
D02*
G37*
G36*
X42673Y86993D02*
X41526D01*
Y85809D01*
X41229D01*
Y86993D01*
X40447D01*
Y85625D01*
X40150D01*
Y87326D01*
X42673D01*
Y86993D01*
D02*
G37*
G36*
X37367Y362333D02*
X38048Y363030D01*
Y362630D01*
X37302Y361896D01*
X38743D01*
Y361587D01*
X36220D01*
Y361896D01*
X36942D01*
X37156Y362114D01*
X36220Y362717D01*
Y363101D01*
X37367Y362333D01*
D02*
G37*
G36*
X38711Y359563D02*
X38415D01*
Y360795D01*
X38364Y360751D01*
X38308Y360707D01*
X38199Y360627D01*
X38087Y360552D01*
X38033Y360515D01*
X37982Y360484D01*
X37934Y360455D01*
X37890Y360428D01*
X37851Y360406D01*
X37817Y360387D01*
X37790Y360372D01*
X37768Y360360D01*
X37756Y360353D01*
X37751Y360350D01*
X37603Y360277D01*
X37460Y360212D01*
X37389Y360182D01*
X37321Y360156D01*
X37258Y360134D01*
X37197Y360112D01*
X37141Y360093D01*
X37093Y360076D01*
X37047Y360061D01*
X37010Y360051D01*
X36979Y360041D01*
X36957Y360034D01*
X36942Y360032D01*
X36940Y360029D01*
X36937D01*
X36860Y360010D01*
X36787Y359993D01*
X36716Y359978D01*
X36648Y359966D01*
X36585Y359954D01*
X36527Y359944D01*
X36471Y359937D01*
X36422Y359932D01*
X36376Y359927D01*
X36337Y359923D01*
X36303Y359920D01*
X36274Y359918D01*
X36250D01*
X36235Y359915D01*
X36223D01*
X36220D01*
Y360233D01*
X36359Y360246D01*
X36425Y360253D01*
X36488Y360263D01*
X36549Y360272D01*
X36604Y360282D01*
X36658Y360292D01*
X36709Y360301D01*
X36753Y360311D01*
X36794Y360319D01*
X36828Y360328D01*
X36857Y360336D01*
X36881Y360340D01*
X36898Y360345D01*
X36911Y360350D01*
X36913D01*
X36998Y360374D01*
X37081Y360404D01*
X37161Y360433D01*
X37239Y360462D01*
X37316Y360491D01*
X37387Y360523D01*
X37455Y360552D01*
X37518Y360581D01*
X37576Y360608D01*
X37630Y360634D01*
X37676Y360656D01*
X37715Y360676D01*
X37747Y360693D01*
X37768Y360705D01*
X37783Y360712D01*
X37788Y360715D01*
X37866Y360758D01*
X37938Y360805D01*
X38009Y360848D01*
X38075Y360890D01*
X38135Y360931D01*
X38191Y360970D01*
X38242Y361009D01*
X38288Y361043D01*
X38330Y361077D01*
X38366Y361106D01*
X38398Y361130D01*
X38425Y361152D01*
X38444Y361169D01*
X38458Y361184D01*
X38468Y361191D01*
X38471Y361193D01*
X38711D01*
Y359563D01*
D02*
G37*
G36*
X37110Y358885D02*
X38743D01*
Y358632D01*
X37110Y357480D01*
X36825D01*
Y358576D01*
X36220D01*
Y358885D01*
X36825D01*
Y359225D01*
X37110D01*
Y358885D01*
D02*
G37*
G36*
X37367Y384380D02*
X38048Y385078D01*
Y384677D01*
X37302Y383943D01*
X38743D01*
Y383634D01*
X36220D01*
Y383943D01*
X36942D01*
X37156Y384162D01*
X36220Y384764D01*
Y385148D01*
X37367Y384380D01*
D02*
G37*
G36*
X38711Y381610D02*
X38415D01*
Y382842D01*
X38364Y382798D01*
X38308Y382755D01*
X38199Y382674D01*
X38087Y382599D01*
X38033Y382563D01*
X37982Y382531D01*
X37934Y382502D01*
X37890Y382475D01*
X37851Y382453D01*
X37817Y382434D01*
X37790Y382419D01*
X37768Y382407D01*
X37756Y382400D01*
X37751Y382397D01*
X37603Y382325D01*
X37460Y382259D01*
X37389Y382230D01*
X37321Y382203D01*
X37258Y382181D01*
X37197Y382159D01*
X37141Y382140D01*
X37093Y382123D01*
X37047Y382108D01*
X37010Y382099D01*
X36979Y382089D01*
X36957Y382082D01*
X36942Y382079D01*
X36940Y382077D01*
X36937D01*
X36860Y382057D01*
X36787Y382040D01*
X36716Y382026D01*
X36648Y382014D01*
X36585Y382001D01*
X36527Y381992D01*
X36471Y381984D01*
X36422Y381979D01*
X36376Y381975D01*
X36337Y381970D01*
X36303Y381967D01*
X36274Y381965D01*
X36250D01*
X36235Y381962D01*
X36223D01*
X36220D01*
Y382281D01*
X36359Y382293D01*
X36425Y382300D01*
X36488Y382310D01*
X36549Y382320D01*
X36604Y382329D01*
X36658Y382339D01*
X36709Y382349D01*
X36753Y382359D01*
X36794Y382366D01*
X36828Y382376D01*
X36857Y382383D01*
X36881Y382388D01*
X36898Y382393D01*
X36911Y382397D01*
X36913D01*
X36998Y382422D01*
X37081Y382451D01*
X37161Y382480D01*
X37239Y382509D01*
X37316Y382538D01*
X37387Y382570D01*
X37455Y382599D01*
X37518Y382628D01*
X37576Y382655D01*
X37630Y382682D01*
X37676Y382704D01*
X37715Y382723D01*
X37747Y382740D01*
X37768Y382752D01*
X37783Y382759D01*
X37788Y382762D01*
X37866Y382806D01*
X37938Y382852D01*
X38009Y382895D01*
X38075Y382937D01*
X38135Y382978D01*
X38191Y383017D01*
X38242Y383056D01*
X38288Y383090D01*
X38330Y383124D01*
X38366Y383153D01*
X38398Y383177D01*
X38425Y383199D01*
X38444Y383216D01*
X38458Y383231D01*
X38468Y383238D01*
X38471Y383241D01*
X38711D01*
Y381610D01*
D02*
G37*
G36*
X37110Y380932D02*
X38743D01*
Y380679D01*
X37110Y379528D01*
X36825D01*
Y380624D01*
X36220D01*
Y380932D01*
X36825D01*
Y381272D01*
X37110D01*
Y380932D01*
D02*
G37*
G36*
X178002Y364705D02*
X178021Y364674D01*
X178062Y364613D01*
X178109Y364557D01*
X178155Y364506D01*
X178177Y364482D01*
X178196Y364460D01*
X178213Y364443D01*
X178230Y364426D01*
X178242Y364414D01*
X178252Y364404D01*
X178259Y364399D01*
X178262Y364397D01*
X178337Y364333D01*
X178415Y364278D01*
X178490Y364229D01*
X178561Y364185D01*
X178592Y364166D01*
X178621Y364151D01*
X178648Y364137D01*
X178670Y364124D01*
X178690Y364115D01*
X178702Y364107D01*
X178711Y364105D01*
X178714Y364103D01*
Y363804D01*
X178658Y363825D01*
X178602Y363852D01*
X178549Y363879D01*
X178498Y363903D01*
X178454Y363928D01*
X178437Y363937D01*
X178420Y363947D01*
X178408Y363954D01*
X178398Y363959D01*
X178393Y363964D01*
X178391D01*
X178325Y364003D01*
X178267Y364042D01*
X178216Y364078D01*
X178174Y364110D01*
X178140Y364137D01*
X178113Y364158D01*
X178106Y364166D01*
X178099Y364171D01*
X178096Y364176D01*
X178094D01*
Y362205D01*
X177786D01*
Y364737D01*
X177985D01*
X178002Y364705D01*
D02*
G37*
G36*
X175885Y361505D02*
X175579D01*
Y362387D01*
X175543Y362343D01*
X175509Y362307D01*
X175479Y362278D01*
X175453Y362256D01*
X175431Y362239D01*
X175414Y362229D01*
X175402Y362222D01*
X175399Y362219D01*
X175356Y362200D01*
X175312Y362188D01*
X175270Y362178D01*
X175232Y362171D01*
X175198Y362166D01*
X175171Y362163D01*
X175146D01*
X175088Y362166D01*
X175035Y362173D01*
X174986Y362185D01*
X174945Y362197D01*
X174911Y362210D01*
X174887Y362222D01*
X174877Y362224D01*
X174870Y362229D01*
X174867Y362231D01*
X174865D01*
X174831Y362256D01*
X174799Y362285D01*
X174770Y362314D01*
X174743Y362346D01*
X174721Y362375D01*
X174702Y362399D01*
X174697Y362409D01*
X174692Y362416D01*
X174687Y362419D01*
Y362205D01*
X174410D01*
Y364032D01*
X174714D01*
Y363252D01*
Y363177D01*
X174716Y363109D01*
X174719Y363046D01*
X174721Y362990D01*
X174724Y362941D01*
X174729Y362897D01*
X174733Y362858D01*
X174736Y362824D01*
X174741Y362795D01*
X174746Y362773D01*
X174750Y362754D01*
X174753Y362737D01*
X174755Y362727D01*
X174758Y362718D01*
X174760Y362715D01*
Y362713D01*
X174780Y362671D01*
X174801Y362632D01*
X174828Y362598D01*
X174853Y362572D01*
X174877Y362547D01*
X174896Y362533D01*
X174908Y362521D01*
X174911Y362518D01*
X174913D01*
X174954Y362494D01*
X174996Y362474D01*
X175037Y362462D01*
X175076Y362453D01*
X175110Y362448D01*
X175134Y362445D01*
X175144Y362443D01*
X175159D01*
X175207Y362445D01*
X175251Y362455D01*
X175290Y362465D01*
X175324Y362479D01*
X175353Y362491D01*
X175375Y362504D01*
X175387Y362511D01*
X175392Y362513D01*
X175426Y362543D01*
X175455Y362574D01*
X175482Y362608D01*
X175501Y362640D01*
X175516Y362666D01*
X175528Y362691D01*
X175533Y362705D01*
X175535Y362708D01*
Y362710D01*
X175543Y362737D01*
X175550Y362771D01*
X175555Y362807D01*
X175560Y362849D01*
X175565Y362892D01*
X175569Y362939D01*
X175574Y363031D01*
Y363075D01*
X175577Y363118D01*
Y363155D01*
X175579Y363189D01*
Y363218D01*
Y363238D01*
Y363252D01*
Y363257D01*
Y364032D01*
X175885D01*
Y361505D01*
D02*
G37*
G36*
X179756Y362205D02*
X179404D01*
Y362557D01*
X179756D01*
Y362205D01*
D02*
G37*
G36*
X173842D02*
X173509D01*
Y363352D01*
X172325D01*
Y363648D01*
X173509D01*
Y364431D01*
X172141D01*
Y364727D01*
X173842D01*
Y362205D01*
D02*
G37*
G36*
X181120Y364734D02*
X181166Y364729D01*
X181212Y364722D01*
X181255Y364715D01*
X181297Y364703D01*
X181333Y364691D01*
X181367Y364676D01*
X181399Y364664D01*
X181428Y364649D01*
X181452Y364635D01*
X181474Y364623D01*
X181491Y364613D01*
X181506Y364603D01*
X181518Y364596D01*
X181523Y364591D01*
X181525Y364588D01*
X181559Y364559D01*
X181588Y364528D01*
X181644Y364460D01*
X181693Y364389D01*
X181732Y364324D01*
X181746Y364292D01*
X181761Y364263D01*
X181773Y364236D01*
X181783Y364212D01*
X181790Y364195D01*
X181795Y364180D01*
X181800Y364171D01*
Y364168D01*
X181814Y364115D01*
X181829Y364059D01*
X181851Y363942D01*
X181868Y363821D01*
X181873Y363762D01*
X181878Y363706D01*
X181883Y363653D01*
X181885Y363604D01*
X181887Y363561D01*
Y363524D01*
X181890Y363493D01*
Y363468D01*
Y363454D01*
Y363451D01*
Y363449D01*
X181887Y363320D01*
X181880Y363201D01*
X181868Y363089D01*
X181851Y362987D01*
X181831Y362895D01*
X181812Y362812D01*
X181788Y362737D01*
X181766Y362669D01*
X181741Y362611D01*
X181720Y362560D01*
X181700Y362518D01*
X181681Y362484D01*
X181664Y362457D01*
X181652Y362438D01*
X181644Y362428D01*
X181642Y362423D01*
X181601Y362377D01*
X181557Y362338D01*
X181511Y362302D01*
X181465Y362273D01*
X181416Y362248D01*
X181370Y362227D01*
X181321Y362210D01*
X181277Y362195D01*
X181234Y362185D01*
X181195Y362178D01*
X181158Y362171D01*
X181129Y362168D01*
X181102Y362166D01*
X181085Y362163D01*
X181068D01*
X181017Y362166D01*
X180969Y362171D01*
X180923Y362178D01*
X180879Y362185D01*
X180840Y362197D01*
X180801Y362210D01*
X180767Y362222D01*
X180736Y362236D01*
X180709Y362251D01*
X180682Y362263D01*
X180663Y362275D01*
X180643Y362287D01*
X180631Y362295D01*
X180619Y362302D01*
X180614Y362307D01*
X180612Y362309D01*
X180578Y362338D01*
X180548Y362370D01*
X180492Y362438D01*
X180444Y362509D01*
X180405Y362574D01*
X180391Y362606D01*
X180376Y362635D01*
X180364Y362662D01*
X180354Y362686D01*
X180347Y362703D01*
X180342Y362718D01*
X180337Y362727D01*
Y362730D01*
X180320Y362783D01*
X180305Y362839D01*
X180283Y362958D01*
X180266Y363077D01*
X180262Y363135D01*
X180257Y363191D01*
X180252Y363245D01*
X180250Y363293D01*
X180247Y363337D01*
Y363376D01*
X180245Y363405D01*
Y363429D01*
Y363444D01*
Y363449D01*
Y363517D01*
X180247Y363582D01*
X180250Y363643D01*
X180254Y363699D01*
X180259Y363753D01*
X180264Y363801D01*
X180269Y363847D01*
X180274Y363886D01*
X180279Y363923D01*
X180283Y363954D01*
X180288Y363981D01*
X180293Y364003D01*
X180298Y364022D01*
X180300Y364035D01*
X180303Y364042D01*
Y364044D01*
X180325Y364124D01*
X180352Y364195D01*
X180376Y364261D01*
X180391Y364287D01*
X180403Y364314D01*
X180412Y364338D01*
X180424Y364358D01*
X180434Y364377D01*
X180441Y364392D01*
X180449Y364404D01*
X180454Y364411D01*
X180458Y364416D01*
Y364418D01*
X180497Y364472D01*
X180541Y364521D01*
X180582Y364559D01*
X180621Y364593D01*
X180658Y364620D01*
X180684Y364640D01*
X180697Y364644D01*
X180704Y364649D01*
X180709Y364654D01*
X180711D01*
X180770Y364681D01*
X180833Y364703D01*
X180891Y364717D01*
X180947Y364727D01*
X180974Y364729D01*
X180996Y364732D01*
X181017Y364734D01*
X181034Y364737D01*
X181068D01*
X181120Y364734D01*
D02*
G37*
G36*
X178570Y374016D02*
X178262D01*
Y374738D01*
X178043Y374951D01*
X177441Y374016D01*
X177057D01*
X177824Y375163D01*
X177127Y375843D01*
X177528D01*
X178262Y375097D01*
Y376538D01*
X178570D01*
Y374016D01*
D02*
G37*
G36*
X182677Y374905D02*
Y374621D01*
X181581D01*
Y374016D01*
X181273D01*
Y374621D01*
X180932D01*
Y374905D01*
X181273D01*
Y376538D01*
X181525D01*
X182677Y374905D01*
D02*
G37*
G36*
X180595Y376210D02*
X179363D01*
X179406Y376159D01*
X179450Y376103D01*
X179530Y375994D01*
X179606Y375882D01*
X179642Y375829D01*
X179674Y375778D01*
X179703Y375729D01*
X179730Y375685D01*
X179751Y375646D01*
X179771Y375612D01*
X179786Y375586D01*
X179798Y375564D01*
X179805Y375552D01*
X179807Y375547D01*
X179880Y375398D01*
X179946Y375255D01*
X179975Y375185D01*
X180002Y375116D01*
X180024Y375053D01*
X180045Y374993D01*
X180065Y374937D01*
X180082Y374888D01*
X180096Y374842D01*
X180106Y374805D01*
X180116Y374774D01*
X180123Y374752D01*
X180126Y374738D01*
X180128Y374735D01*
Y374733D01*
X180148Y374655D01*
X180165Y374582D01*
X180179Y374512D01*
X180191Y374443D01*
X180203Y374380D01*
X180213Y374322D01*
X180220Y374266D01*
X180225Y374217D01*
X180230Y374171D01*
X180235Y374132D01*
X180237Y374098D01*
X180240Y374069D01*
Y374045D01*
X180242Y374030D01*
Y374018D01*
Y374016D01*
X179924D01*
X179912Y374154D01*
X179904Y374220D01*
X179895Y374283D01*
X179885Y374344D01*
X179875Y374400D01*
X179866Y374453D01*
X179856Y374504D01*
X179846Y374548D01*
X179839Y374589D01*
X179829Y374623D01*
X179822Y374652D01*
X179817Y374677D01*
X179812Y374694D01*
X179807Y374706D01*
Y374708D01*
X179783Y374793D01*
X179754Y374876D01*
X179725Y374956D01*
X179696Y375034D01*
X179666Y375112D01*
X179635Y375182D01*
X179606Y375250D01*
X179577Y375313D01*
X179550Y375372D01*
X179523Y375425D01*
X179501Y375471D01*
X179482Y375510D01*
X179465Y375542D01*
X179453Y375564D01*
X179445Y375578D01*
X179443Y375583D01*
X179399Y375661D01*
X179353Y375734D01*
X179309Y375804D01*
X179268Y375870D01*
X179227Y375931D01*
X179188Y375987D01*
X179149Y376038D01*
X179115Y376084D01*
X179081Y376125D01*
X179052Y376161D01*
X179027Y376193D01*
X179005Y376220D01*
X178988Y376239D01*
X178974Y376254D01*
X178967Y376263D01*
X178964Y376266D01*
Y376506D01*
X180595D01*
Y376210D01*
D02*
G37*
G36*
X178570Y381102D02*
X178262D01*
Y381824D01*
X178043Y382038D01*
X177441Y381102D01*
X177057D01*
X177824Y382249D01*
X177127Y382930D01*
X177528D01*
X178262Y382184D01*
Y383625D01*
X178570D01*
Y381102D01*
D02*
G37*
G36*
X182677Y381992D02*
Y381707D01*
X181581D01*
Y381102D01*
X181273D01*
Y381707D01*
X180932D01*
Y381992D01*
X181273D01*
Y383625D01*
X181525D01*
X182677Y381992D01*
D02*
G37*
G36*
X180595Y383297D02*
X179363D01*
X179406Y383246D01*
X179450Y383190D01*
X179530Y383080D01*
X179606Y382969D01*
X179642Y382915D01*
X179674Y382864D01*
X179703Y382816D01*
X179730Y382772D01*
X179751Y382733D01*
X179771Y382699D01*
X179786Y382672D01*
X179798Y382650D01*
X179805Y382638D01*
X179807Y382633D01*
X179880Y382485D01*
X179946Y382342D01*
X179975Y382271D01*
X180002Y382203D01*
X180024Y382140D01*
X180045Y382079D01*
X180065Y382023D01*
X180082Y381975D01*
X180096Y381929D01*
X180106Y381892D01*
X180116Y381860D01*
X180123Y381839D01*
X180126Y381824D01*
X180128Y381822D01*
Y381819D01*
X180148Y381741D01*
X180165Y381669D01*
X180179Y381598D01*
X180191Y381530D01*
X180203Y381467D01*
X180213Y381409D01*
X180220Y381353D01*
X180225Y381304D01*
X180230Y381258D01*
X180235Y381219D01*
X180237Y381185D01*
X180240Y381156D01*
Y381132D01*
X180242Y381117D01*
Y381105D01*
Y381102D01*
X179924D01*
X179912Y381241D01*
X179904Y381307D01*
X179895Y381370D01*
X179885Y381430D01*
X179875Y381486D01*
X179866Y381540D01*
X179856Y381591D01*
X179846Y381634D01*
X179839Y381676D01*
X179829Y381710D01*
X179822Y381739D01*
X179817Y381763D01*
X179812Y381780D01*
X179807Y381792D01*
Y381795D01*
X179783Y381880D01*
X179754Y381963D01*
X179725Y382043D01*
X179696Y382120D01*
X179666Y382198D01*
X179635Y382269D01*
X179606Y382337D01*
X179577Y382400D01*
X179550Y382458D01*
X179523Y382512D01*
X179501Y382558D01*
X179482Y382597D01*
X179465Y382628D01*
X179453Y382650D01*
X179445Y382665D01*
X179443Y382670D01*
X179399Y382748D01*
X179353Y382820D01*
X179309Y382891D01*
X179268Y382956D01*
X179227Y383017D01*
X179188Y383073D01*
X179149Y383124D01*
X179115Y383170D01*
X179081Y383212D01*
X179052Y383248D01*
X179027Y383280D01*
X179005Y383306D01*
X178988Y383326D01*
X178974Y383340D01*
X178967Y383350D01*
X178964Y383352D01*
Y383593D01*
X180595D01*
Y383297D01*
D02*
G37*
%LPC*%
G36*
X171255Y233540D02*
X171238D01*
X171223D01*
X171211D01*
X171204D01*
X171199D01*
X171197D01*
X171085Y233538D01*
X170983Y233533D01*
X170888Y233525D01*
X170803Y233516D01*
X170725Y233504D01*
X170655Y233489D01*
X170594Y233477D01*
X170541Y233460D01*
X170494Y233445D01*
X170453Y233433D01*
X170422Y233418D01*
X170395Y233406D01*
X170373Y233397D01*
X170361Y233389D01*
X170351Y233384D01*
X170349Y233382D01*
X170317Y233358D01*
X170288Y233331D01*
X170264Y233302D01*
X170244Y233275D01*
X170225Y233246D01*
X170210Y233217D01*
X170198Y233190D01*
X170188Y233163D01*
X170176Y233115D01*
X170171Y233093D01*
X170169Y233076D01*
X170167Y233059D01*
Y233039D01*
X170169Y233000D01*
X170176Y232962D01*
X170186Y232925D01*
X170198Y232891D01*
X170232Y232830D01*
X170252Y232801D01*
X170268Y232777D01*
X170288Y232755D01*
X170307Y232736D01*
X170324Y232719D01*
X170341Y232704D01*
X170354Y232692D01*
X170363Y232685D01*
X170371Y232680D01*
X170373Y232677D01*
X170393Y232665D01*
X170417Y232651D01*
X170468Y232629D01*
X170524Y232609D01*
X170587Y232592D01*
X170655Y232578D01*
X170723Y232568D01*
X170861Y232548D01*
X170927Y232544D01*
X170990Y232539D01*
X171046Y232536D01*
X171097Y232534D01*
X171119D01*
X171139Y232531D01*
X171156D01*
X171170D01*
X171182D01*
X171189D01*
X171194D01*
X171197D01*
X171309Y232534D01*
X171411Y232539D01*
X171503Y232546D01*
X171588Y232553D01*
X171663Y232565D01*
X171731Y232578D01*
X171790Y232590D01*
X171843Y232604D01*
X171887Y232619D01*
X171926Y232631D01*
X171955Y232643D01*
X171982Y232655D01*
X171999Y232663D01*
X172013Y232670D01*
X172021Y232675D01*
X172023Y232677D01*
X172059Y232706D01*
X172091Y232736D01*
X172118Y232765D01*
X172142Y232794D01*
X172161Y232825D01*
X172176Y232855D01*
X172191Y232884D01*
X172200Y232911D01*
X172210Y232937D01*
X172217Y232962D01*
X172220Y232983D01*
X172225Y233000D01*
Y233015D01*
X172227Y233027D01*
Y233037D01*
X172225Y233076D01*
X172217Y233115D01*
X172208Y233149D01*
X172195Y233183D01*
X172161Y233243D01*
X172144Y233273D01*
X172125Y233297D01*
X172106Y233319D01*
X172089Y233338D01*
X172069Y233355D01*
X172055Y233370D01*
X172042Y233382D01*
X172033Y233389D01*
X172025Y233394D01*
X172023Y233397D01*
X172003Y233409D01*
X171979Y233421D01*
X171928Y233443D01*
X171870Y233462D01*
X171807Y233479D01*
X171741Y233494D01*
X171671Y233506D01*
X171532Y233523D01*
X171467Y233528D01*
X171403Y233533D01*
X171347Y233535D01*
X171296Y233538D01*
X171274D01*
X171255Y233540D01*
D02*
G37*
G36*
X112200Y228028D02*
X112183D01*
X112168D01*
X112156D01*
X112149D01*
X112144D01*
X112142D01*
X112030Y228026D01*
X111928Y228021D01*
X111833Y228013D01*
X111748Y228004D01*
X111670Y227992D01*
X111600Y227977D01*
X111539Y227965D01*
X111486Y227948D01*
X111439Y227933D01*
X111398Y227921D01*
X111366Y227907D01*
X111340Y227894D01*
X111318Y227885D01*
X111306Y227877D01*
X111296Y227873D01*
X111294Y227870D01*
X111262Y227846D01*
X111233Y227819D01*
X111208Y227790D01*
X111189Y227763D01*
X111170Y227734D01*
X111155Y227705D01*
X111143Y227678D01*
X111133Y227652D01*
X111121Y227603D01*
X111116Y227581D01*
X111114Y227564D01*
X111111Y227547D01*
Y227528D01*
X111114Y227489D01*
X111121Y227450D01*
X111131Y227413D01*
X111143Y227379D01*
X111177Y227319D01*
X111196Y227289D01*
X111213Y227265D01*
X111233Y227243D01*
X111252Y227224D01*
X111269Y227207D01*
X111286Y227192D01*
X111299Y227180D01*
X111308Y227173D01*
X111316Y227168D01*
X111318Y227166D01*
X111337Y227153D01*
X111362Y227139D01*
X111413Y227117D01*
X111469Y227097D01*
X111532Y227080D01*
X111600Y227066D01*
X111668Y227056D01*
X111806Y227037D01*
X111872Y227032D01*
X111935Y227027D01*
X111991Y227025D01*
X112042Y227022D01*
X112064D01*
X112083Y227020D01*
X112100D01*
X112115D01*
X112127D01*
X112134D01*
X112139D01*
X112142D01*
X112253Y227022D01*
X112355Y227027D01*
X112448Y227034D01*
X112533Y227042D01*
X112608Y227054D01*
X112676Y227066D01*
X112735Y227078D01*
X112788Y227093D01*
X112832Y227107D01*
X112871Y227119D01*
X112900Y227132D01*
X112927Y227144D01*
X112944Y227151D01*
X112958Y227158D01*
X112965Y227163D01*
X112968Y227166D01*
X113004Y227195D01*
X113036Y227224D01*
X113063Y227253D01*
X113087Y227282D01*
X113106Y227314D01*
X113121Y227343D01*
X113136Y227372D01*
X113145Y227399D01*
X113155Y227426D01*
X113162Y227450D01*
X113165Y227472D01*
X113170Y227489D01*
Y227503D01*
X113172Y227515D01*
Y227525D01*
X113170Y227564D01*
X113162Y227603D01*
X113153Y227637D01*
X113140Y227671D01*
X113106Y227732D01*
X113089Y227761D01*
X113070Y227785D01*
X113050Y227807D01*
X113033Y227826D01*
X113014Y227843D01*
X112999Y227858D01*
X112987Y227870D01*
X112978Y227877D01*
X112970Y227882D01*
X112968Y227885D01*
X112948Y227897D01*
X112924Y227909D01*
X112873Y227931D01*
X112815Y227950D01*
X112752Y227967D01*
X112686Y227982D01*
X112616Y227994D01*
X112477Y228011D01*
X112411Y228016D01*
X112348Y228021D01*
X112292Y228023D01*
X112241Y228026D01*
X112219D01*
X112200Y228028D01*
D02*
G37*
G36*
X112987Y142989D02*
X112970D01*
X112956D01*
X112944D01*
X112936D01*
X112932D01*
X112929D01*
X112817Y142986D01*
X112715Y142982D01*
X112620Y142974D01*
X112535Y142964D01*
X112458Y142952D01*
X112387Y142938D01*
X112326Y142926D01*
X112273Y142909D01*
X112227Y142894D01*
X112186Y142882D01*
X112154Y142867D01*
X112127Y142855D01*
X112105Y142845D01*
X112093Y142838D01*
X112083Y142833D01*
X112081Y142831D01*
X112049Y142806D01*
X112020Y142780D01*
X111996Y142751D01*
X111977Y142724D01*
X111957Y142695D01*
X111943Y142666D01*
X111930Y142639D01*
X111921Y142612D01*
X111908Y142563D01*
X111904Y142542D01*
X111901Y142525D01*
X111899Y142508D01*
Y142488D01*
X111901Y142449D01*
X111908Y142410D01*
X111918Y142374D01*
X111930Y142340D01*
X111964Y142279D01*
X111984Y142250D01*
X112001Y142226D01*
X112020Y142204D01*
X112040Y142184D01*
X112057Y142167D01*
X112074Y142153D01*
X112086Y142141D01*
X112096Y142133D01*
X112103Y142129D01*
X112105Y142126D01*
X112125Y142114D01*
X112149Y142099D01*
X112200Y142078D01*
X112256Y142058D01*
X112319Y142041D01*
X112387Y142026D01*
X112455Y142017D01*
X112594Y141997D01*
X112659Y141992D01*
X112723Y141988D01*
X112778Y141985D01*
X112829Y141983D01*
X112851D01*
X112871Y141980D01*
X112888D01*
X112902D01*
X112915D01*
X112922D01*
X112927D01*
X112929D01*
X113041Y141983D01*
X113143Y141988D01*
X113235Y141995D01*
X113320Y142002D01*
X113396Y142014D01*
X113464Y142026D01*
X113522Y142039D01*
X113575Y142053D01*
X113619Y142068D01*
X113658Y142080D01*
X113687Y142092D01*
X113714Y142104D01*
X113731Y142112D01*
X113746Y142119D01*
X113753Y142124D01*
X113755Y142126D01*
X113792Y142155D01*
X113823Y142184D01*
X113850Y142214D01*
X113874Y142243D01*
X113894Y142274D01*
X113908Y142304D01*
X113923Y142333D01*
X113933Y142359D01*
X113942Y142386D01*
X113950Y142410D01*
X113952Y142432D01*
X113957Y142449D01*
Y142464D01*
X113959Y142476D01*
Y142486D01*
X113957Y142525D01*
X113950Y142563D01*
X113940Y142597D01*
X113928Y142631D01*
X113894Y142692D01*
X113877Y142721D01*
X113857Y142746D01*
X113838Y142768D01*
X113821Y142787D01*
X113801Y142804D01*
X113787Y142819D01*
X113775Y142831D01*
X113765Y142838D01*
X113758Y142843D01*
X113755Y142845D01*
X113736Y142858D01*
X113712Y142870D01*
X113661Y142892D01*
X113602Y142911D01*
X113539Y142928D01*
X113473Y142943D01*
X113403Y142955D01*
X113264Y142972D01*
X113199Y142977D01*
X113136Y142982D01*
X113080Y142984D01*
X113029Y142986D01*
X113007D01*
X112987Y142989D01*
D02*
G37*
G36*
X188964Y156605D02*
X188945D01*
X188906Y156603D01*
X188867Y156596D01*
X188831Y156586D01*
X188797Y156574D01*
X188736Y156540D01*
X188707Y156520D01*
X188682Y156503D01*
X188661Y156484D01*
X188641Y156464D01*
X188624Y156447D01*
X188610Y156430D01*
X188597Y156418D01*
X188590Y156408D01*
X188585Y156401D01*
X188583Y156399D01*
X188571Y156379D01*
X188556Y156355D01*
X188534Y156304D01*
X188515Y156248D01*
X188498Y156185D01*
X188483Y156117D01*
X188473Y156049D01*
X188454Y155910D01*
X188449Y155845D01*
X188444Y155781D01*
X188442Y155726D01*
X188439Y155675D01*
Y155653D01*
X188437Y155633D01*
Y155616D01*
Y155602D01*
Y155589D01*
Y155582D01*
Y155577D01*
Y155575D01*
X188439Y155463D01*
X188444Y155361D01*
X188452Y155269D01*
X188459Y155184D01*
X188471Y155108D01*
X188483Y155040D01*
X188495Y154982D01*
X188510Y154929D01*
X188524Y154885D01*
X188537Y154846D01*
X188549Y154817D01*
X188561Y154790D01*
X188568Y154773D01*
X188575Y154758D01*
X188580Y154751D01*
X188583Y154749D01*
X188612Y154712D01*
X188641Y154681D01*
X188670Y154654D01*
X188699Y154630D01*
X188731Y154610D01*
X188760Y154596D01*
X188789Y154581D01*
X188816Y154571D01*
X188843Y154562D01*
X188867Y154554D01*
X188889Y154552D01*
X188906Y154547D01*
X188921D01*
X188933Y154545D01*
X188942D01*
X188981Y154547D01*
X189020Y154554D01*
X189054Y154564D01*
X189088Y154576D01*
X189149Y154610D01*
X189178Y154627D01*
X189202Y154647D01*
X189224Y154666D01*
X189244Y154683D01*
X189261Y154702D01*
X189275Y154717D01*
X189287Y154729D01*
X189295Y154739D01*
X189300Y154746D01*
X189302Y154749D01*
X189314Y154768D01*
X189326Y154792D01*
X189348Y154843D01*
X189368Y154902D01*
X189385Y154965D01*
X189399Y155031D01*
X189411Y155101D01*
X189428Y155239D01*
X189433Y155305D01*
X189438Y155368D01*
X189441Y155424D01*
X189443Y155475D01*
Y155497D01*
X189445Y155517D01*
Y155534D01*
Y155548D01*
Y155560D01*
Y155568D01*
Y155572D01*
Y155575D01*
X189443Y155687D01*
X189438Y155789D01*
X189431Y155884D01*
X189421Y155968D01*
X189409Y156046D01*
X189394Y156117D01*
X189382Y156177D01*
X189365Y156231D01*
X189351Y156277D01*
X189339Y156318D01*
X189324Y156350D01*
X189312Y156377D01*
X189302Y156399D01*
X189295Y156411D01*
X189290Y156421D01*
X189287Y156423D01*
X189263Y156455D01*
X189236Y156484D01*
X189207Y156508D01*
X189181Y156527D01*
X189151Y156547D01*
X189122Y156561D01*
X189095Y156574D01*
X189069Y156583D01*
X189020Y156596D01*
X188998Y156600D01*
X188981Y156603D01*
X188964Y156605D01*
D02*
G37*
G36*
X163969Y118684D02*
X163959D01*
X163920Y118681D01*
X163881Y118674D01*
X163847Y118664D01*
X163813Y118652D01*
X163752Y118618D01*
X163723Y118601D01*
X163699Y118582D01*
X163677Y118562D01*
X163658Y118545D01*
X163641Y118526D01*
X163626Y118511D01*
X163614Y118499D01*
X163607Y118489D01*
X163602Y118482D01*
X163600Y118480D01*
X163587Y118460D01*
X163575Y118436D01*
X163553Y118385D01*
X163534Y118327D01*
X163517Y118263D01*
X163502Y118198D01*
X163490Y118127D01*
X163473Y117989D01*
X163468Y117923D01*
X163463Y117860D01*
X163461Y117804D01*
X163459Y117753D01*
Y117731D01*
X163456Y117712D01*
Y117695D01*
Y117680D01*
Y117668D01*
Y117661D01*
Y117656D01*
Y117654D01*
X163459Y117542D01*
X163463Y117440D01*
X163471Y117345D01*
X163480Y117260D01*
X163493Y117182D01*
X163507Y117112D01*
X163519Y117051D01*
X163536Y116997D01*
X163551Y116951D01*
X163563Y116910D01*
X163578Y116878D01*
X163590Y116852D01*
X163600Y116830D01*
X163607Y116818D01*
X163612Y116808D01*
X163614Y116805D01*
X163638Y116774D01*
X163665Y116745D01*
X163694Y116720D01*
X163721Y116701D01*
X163750Y116682D01*
X163779Y116667D01*
X163806Y116655D01*
X163833Y116645D01*
X163881Y116633D01*
X163903Y116628D01*
X163920Y116626D01*
X163937Y116623D01*
X163957D01*
X163996Y116626D01*
X164034Y116633D01*
X164071Y116643D01*
X164105Y116655D01*
X164166Y116689D01*
X164195Y116708D01*
X164219Y116725D01*
X164241Y116745D01*
X164260Y116764D01*
X164277Y116781D01*
X164292Y116798D01*
X164304Y116810D01*
X164311Y116820D01*
X164316Y116827D01*
X164319Y116830D01*
X164331Y116849D01*
X164346Y116874D01*
X164367Y116925D01*
X164387Y116980D01*
X164404Y117044D01*
X164418Y117112D01*
X164428Y117180D01*
X164447Y117318D01*
X164452Y117384D01*
X164457Y117447D01*
X164460Y117503D01*
X164462Y117554D01*
Y117576D01*
X164464Y117595D01*
Y117612D01*
Y117627D01*
Y117639D01*
Y117646D01*
Y117651D01*
Y117654D01*
X164462Y117765D01*
X164457Y117867D01*
X164450Y117960D01*
X164443Y118045D01*
X164430Y118120D01*
X164418Y118188D01*
X164406Y118246D01*
X164392Y118300D01*
X164377Y118344D01*
X164365Y118383D01*
X164353Y118412D01*
X164341Y118438D01*
X164333Y118455D01*
X164326Y118470D01*
X164321Y118477D01*
X164319Y118480D01*
X164290Y118516D01*
X164260Y118548D01*
X164231Y118575D01*
X164202Y118599D01*
X164171Y118618D01*
X164141Y118633D01*
X164112Y118647D01*
X164085Y118657D01*
X164059Y118667D01*
X164034Y118674D01*
X164013Y118676D01*
X163996Y118681D01*
X163981D01*
X163969Y118684D01*
D02*
G37*
G36*
X102205Y178652D02*
X102185D01*
X102146Y178650D01*
X102107Y178643D01*
X102071Y178633D01*
X102037Y178621D01*
X101976Y178587D01*
X101947Y178567D01*
X101923Y178550D01*
X101901Y178531D01*
X101881Y178512D01*
X101864Y178495D01*
X101850Y178478D01*
X101838Y178465D01*
X101830Y178456D01*
X101825Y178448D01*
X101823Y178446D01*
X101811Y178426D01*
X101796Y178402D01*
X101774Y178351D01*
X101755Y178295D01*
X101738Y178232D01*
X101723Y178164D01*
X101714Y178096D01*
X101694Y177957D01*
X101689Y177892D01*
X101684Y177829D01*
X101682Y177773D01*
X101680Y177722D01*
Y177700D01*
X101677Y177680D01*
Y177663D01*
Y177649D01*
Y177637D01*
Y177629D01*
Y177624D01*
Y177622D01*
X101680Y177510D01*
X101684Y177408D01*
X101692Y177316D01*
X101699Y177231D01*
X101711Y177155D01*
X101723Y177087D01*
X101735Y177029D01*
X101750Y176976D01*
X101765Y176932D01*
X101777Y176893D01*
X101789Y176864D01*
X101801Y176837D01*
X101808Y176820D01*
X101816Y176806D01*
X101821Y176798D01*
X101823Y176796D01*
X101852Y176760D01*
X101881Y176728D01*
X101910Y176701D01*
X101940Y176677D01*
X101971Y176657D01*
X102000Y176643D01*
X102030Y176628D01*
X102056Y176619D01*
X102083Y176609D01*
X102107Y176602D01*
X102129Y176599D01*
X102146Y176594D01*
X102161D01*
X102173Y176592D01*
X102183D01*
X102222Y176594D01*
X102260Y176602D01*
X102294Y176611D01*
X102328Y176623D01*
X102389Y176657D01*
X102418Y176674D01*
X102443Y176694D01*
X102464Y176713D01*
X102484Y176730D01*
X102501Y176750D01*
X102515Y176764D01*
X102528Y176777D01*
X102535Y176786D01*
X102540Y176794D01*
X102542Y176796D01*
X102554Y176815D01*
X102567Y176840D01*
X102588Y176891D01*
X102608Y176949D01*
X102625Y177012D01*
X102639Y177078D01*
X102652Y177148D01*
X102669Y177287D01*
X102673Y177352D01*
X102678Y177416D01*
X102681Y177471D01*
X102683Y177523D01*
Y177544D01*
X102686Y177564D01*
Y177581D01*
Y177595D01*
Y177608D01*
Y177615D01*
Y177620D01*
Y177622D01*
X102683Y177734D01*
X102678Y177836D01*
X102671Y177931D01*
X102661Y178016D01*
X102649Y178094D01*
X102635Y178164D01*
X102622Y178225D01*
X102605Y178278D01*
X102591Y178324D01*
X102579Y178366D01*
X102564Y178397D01*
X102552Y178424D01*
X102542Y178446D01*
X102535Y178458D01*
X102530Y178468D01*
X102528Y178470D01*
X102503Y178502D01*
X102477Y178531D01*
X102447Y178555D01*
X102421Y178575D01*
X102392Y178594D01*
X102363Y178609D01*
X102336Y178621D01*
X102309Y178631D01*
X102260Y178643D01*
X102239Y178648D01*
X102222Y178650D01*
X102205Y178652D01*
D02*
G37*
G36*
X169680Y208343D02*
X169663D01*
X169649D01*
X169637D01*
X169629D01*
X169624D01*
X169622D01*
X169510Y208341D01*
X169408Y208336D01*
X169313Y208329D01*
X169228Y208319D01*
X169151Y208307D01*
X169080Y208292D01*
X169019Y208280D01*
X168966Y208263D01*
X168920Y208248D01*
X168878Y208236D01*
X168847Y208222D01*
X168820Y208209D01*
X168798Y208200D01*
X168786Y208192D01*
X168776Y208188D01*
X168774Y208185D01*
X168742Y208161D01*
X168713Y208134D01*
X168689Y208105D01*
X168669Y208078D01*
X168650Y208049D01*
X168635Y208020D01*
X168623Y207993D01*
X168614Y207966D01*
X168601Y207918D01*
X168596Y207896D01*
X168594Y207879D01*
X168592Y207862D01*
Y207842D01*
X168594Y207804D01*
X168601Y207765D01*
X168611Y207728D01*
X168623Y207694D01*
X168657Y207633D01*
X168677Y207604D01*
X168694Y207580D01*
X168713Y207558D01*
X168733Y207539D01*
X168750Y207522D01*
X168767Y207507D01*
X168779Y207495D01*
X168789Y207488D01*
X168796Y207483D01*
X168798Y207480D01*
X168818Y207468D01*
X168842Y207454D01*
X168893Y207432D01*
X168949Y207412D01*
X169012Y207395D01*
X169080Y207381D01*
X169148Y207371D01*
X169287Y207352D01*
X169352Y207347D01*
X169415Y207342D01*
X169471Y207340D01*
X169522Y207337D01*
X169544D01*
X169564Y207335D01*
X169581D01*
X169595D01*
X169607D01*
X169615D01*
X169620D01*
X169622D01*
X169734Y207337D01*
X169836Y207342D01*
X169928Y207349D01*
X170013Y207357D01*
X170089Y207369D01*
X170157Y207381D01*
X170215Y207393D01*
X170268Y207407D01*
X170312Y207422D01*
X170351Y207434D01*
X170380Y207446D01*
X170407Y207459D01*
X170424Y207466D01*
X170439Y207473D01*
X170446Y207478D01*
X170448Y207480D01*
X170485Y207510D01*
X170516Y207539D01*
X170543Y207568D01*
X170567Y207597D01*
X170587Y207629D01*
X170601Y207658D01*
X170616Y207687D01*
X170626Y207714D01*
X170635Y207740D01*
X170643Y207765D01*
X170645Y207787D01*
X170650Y207804D01*
Y207818D01*
X170652Y207830D01*
Y207840D01*
X170650Y207879D01*
X170643Y207918D01*
X170633Y207952D01*
X170621Y207986D01*
X170587Y208047D01*
X170570Y208076D01*
X170550Y208100D01*
X170531Y208122D01*
X170514Y208141D01*
X170494Y208158D01*
X170480Y208173D01*
X170468Y208185D01*
X170458Y208192D01*
X170451Y208197D01*
X170448Y208200D01*
X170429Y208212D01*
X170404Y208224D01*
X170353Y208246D01*
X170295Y208265D01*
X170232Y208282D01*
X170166Y208297D01*
X170096Y208309D01*
X169957Y208326D01*
X169892Y208331D01*
X169828Y208336D01*
X169773Y208338D01*
X169722Y208341D01*
X169700D01*
X169680Y208343D01*
D02*
G37*
G36*
X191326Y133771D02*
X191307D01*
X191268Y133768D01*
X191229Y133761D01*
X191193Y133751D01*
X191159Y133739D01*
X191098Y133705D01*
X191069Y133686D01*
X191045Y133668D01*
X191023Y133649D01*
X191003Y133630D01*
X190986Y133613D01*
X190972Y133596D01*
X190960Y133583D01*
X190952Y133574D01*
X190947Y133566D01*
X190945Y133564D01*
X190933Y133545D01*
X190918Y133520D01*
X190896Y133469D01*
X190877Y133413D01*
X190860Y133350D01*
X190845Y133282D01*
X190836Y133214D01*
X190816Y133076D01*
X190811Y133010D01*
X190806Y132947D01*
X190804Y132891D01*
X190802Y132840D01*
Y132818D01*
X190799Y132799D01*
Y132782D01*
Y132767D01*
Y132755D01*
Y132747D01*
Y132743D01*
Y132740D01*
X190802Y132628D01*
X190806Y132526D01*
X190814Y132434D01*
X190821Y132349D01*
X190833Y132274D01*
X190845Y132206D01*
X190858Y132147D01*
X190872Y132094D01*
X190887Y132050D01*
X190899Y132011D01*
X190911Y131982D01*
X190923Y131955D01*
X190930Y131938D01*
X190938Y131924D01*
X190943Y131916D01*
X190945Y131914D01*
X190974Y131878D01*
X191003Y131846D01*
X191033Y131819D01*
X191062Y131795D01*
X191093Y131775D01*
X191122Y131761D01*
X191151Y131746D01*
X191178Y131737D01*
X191205Y131727D01*
X191229Y131720D01*
X191251Y131717D01*
X191268Y131712D01*
X191283D01*
X191295Y131710D01*
X191305D01*
X191343Y131712D01*
X191382Y131720D01*
X191416Y131729D01*
X191450Y131741D01*
X191511Y131775D01*
X191540Y131792D01*
X191565Y131812D01*
X191586Y131831D01*
X191606Y131848D01*
X191623Y131868D01*
X191638Y131882D01*
X191650Y131895D01*
X191657Y131904D01*
X191662Y131912D01*
X191664Y131914D01*
X191676Y131933D01*
X191689Y131958D01*
X191710Y132009D01*
X191730Y132067D01*
X191747Y132130D01*
X191762Y132196D01*
X191774Y132266D01*
X191791Y132405D01*
X191796Y132471D01*
X191800Y132534D01*
X191803Y132590D01*
X191805Y132641D01*
Y132662D01*
X191808Y132682D01*
Y132699D01*
Y132713D01*
Y132726D01*
Y132733D01*
Y132738D01*
Y132740D01*
X191805Y132852D01*
X191800Y132954D01*
X191793Y133049D01*
X191783Y133134D01*
X191771Y133212D01*
X191757Y133282D01*
X191744Y133343D01*
X191727Y133396D01*
X191713Y133442D01*
X191701Y133484D01*
X191686Y133515D01*
X191674Y133542D01*
X191664Y133564D01*
X191657Y133576D01*
X191652Y133586D01*
X191650Y133588D01*
X191625Y133620D01*
X191599Y133649D01*
X191569Y133673D01*
X191543Y133693D01*
X191514Y133712D01*
X191484Y133727D01*
X191458Y133739D01*
X191431Y133749D01*
X191382Y133761D01*
X191360Y133766D01*
X191343Y133768D01*
X191326Y133771D01*
D02*
G37*
G36*
X112586Y199912D02*
X112567D01*
X112528Y199910D01*
X112489Y199903D01*
X112453Y199893D01*
X112419Y199881D01*
X112358Y199847D01*
X112329Y199827D01*
X112304Y199810D01*
X112283Y199791D01*
X112263Y199771D01*
X112246Y199754D01*
X112232Y199737D01*
X112219Y199725D01*
X112212Y199715D01*
X112207Y199708D01*
X112205Y199706D01*
X112193Y199686D01*
X112178Y199662D01*
X112156Y199611D01*
X112137Y199555D01*
X112120Y199492D01*
X112105Y199424D01*
X112095Y199356D01*
X112076Y199217D01*
X112071Y199152D01*
X112066Y199089D01*
X112064Y199033D01*
X112062Y198982D01*
Y198960D01*
X112059Y198940D01*
Y198923D01*
Y198909D01*
Y198897D01*
Y198889D01*
Y198884D01*
Y198882D01*
X112062Y198770D01*
X112066Y198668D01*
X112074Y198576D01*
X112081Y198491D01*
X112093Y198415D01*
X112105Y198347D01*
X112117Y198289D01*
X112132Y198236D01*
X112146Y198192D01*
X112159Y198153D01*
X112171Y198124D01*
X112183Y198097D01*
X112190Y198080D01*
X112198Y198065D01*
X112202Y198058D01*
X112205Y198056D01*
X112234Y198019D01*
X112263Y197988D01*
X112292Y197961D01*
X112321Y197937D01*
X112353Y197917D01*
X112382Y197903D01*
X112411Y197888D01*
X112438Y197878D01*
X112465Y197869D01*
X112489Y197861D01*
X112511Y197859D01*
X112528Y197854D01*
X112543D01*
X112555Y197852D01*
X112565D01*
X112603Y197854D01*
X112642Y197861D01*
X112676Y197871D01*
X112710Y197883D01*
X112771Y197917D01*
X112800Y197934D01*
X112824Y197954D01*
X112846Y197973D01*
X112866Y197990D01*
X112883Y198010D01*
X112897Y198024D01*
X112909Y198036D01*
X112917Y198046D01*
X112922Y198053D01*
X112924Y198056D01*
X112936Y198075D01*
X112948Y198100D01*
X112970Y198151D01*
X112990Y198209D01*
X113007Y198272D01*
X113021Y198338D01*
X113033Y198408D01*
X113050Y198547D01*
X113055Y198612D01*
X113060Y198675D01*
X113063Y198731D01*
X113065Y198782D01*
Y198804D01*
X113067Y198824D01*
Y198841D01*
Y198855D01*
Y198867D01*
Y198875D01*
Y198880D01*
Y198882D01*
X113065Y198994D01*
X113060Y199096D01*
X113053Y199191D01*
X113043Y199276D01*
X113031Y199353D01*
X113016Y199424D01*
X113004Y199485D01*
X112987Y199538D01*
X112973Y199584D01*
X112961Y199626D01*
X112946Y199657D01*
X112934Y199684D01*
X112924Y199706D01*
X112917Y199718D01*
X112912Y199728D01*
X112909Y199730D01*
X112885Y199762D01*
X112858Y199791D01*
X112829Y199815D01*
X112803Y199835D01*
X112774Y199854D01*
X112744Y199869D01*
X112718Y199881D01*
X112691Y199890D01*
X112642Y199903D01*
X112620Y199907D01*
X112603Y199910D01*
X112586Y199912D01*
D02*
G37*
G36*
X107476Y144564D02*
X107459D01*
X107444D01*
X107432D01*
X107424D01*
X107420D01*
X107417D01*
X107306Y144561D01*
X107203Y144556D01*
X107109Y144549D01*
X107024Y144539D01*
X106946Y144527D01*
X106875Y144512D01*
X106815Y144500D01*
X106761Y144483D01*
X106715Y144469D01*
X106674Y144457D01*
X106642Y144442D01*
X106615Y144430D01*
X106594Y144420D01*
X106581Y144413D01*
X106572Y144408D01*
X106569Y144406D01*
X106538Y144381D01*
X106508Y144355D01*
X106484Y144325D01*
X106465Y144299D01*
X106445Y144270D01*
X106431Y144240D01*
X106419Y144214D01*
X106409Y144187D01*
X106397Y144138D01*
X106392Y144116D01*
X106389Y144099D01*
X106387Y144082D01*
Y144063D01*
X106389Y144024D01*
X106397Y143985D01*
X106406Y143949D01*
X106419Y143915D01*
X106453Y143854D01*
X106472Y143825D01*
X106489Y143800D01*
X106508Y143779D01*
X106528Y143759D01*
X106545Y143742D01*
X106562Y143728D01*
X106574Y143716D01*
X106584Y143708D01*
X106591Y143703D01*
X106594Y143701D01*
X106613Y143689D01*
X106637Y143674D01*
X106688Y143652D01*
X106744Y143633D01*
X106807Y143616D01*
X106875Y143601D01*
X106943Y143592D01*
X107082Y143572D01*
X107148Y143567D01*
X107211Y143562D01*
X107267Y143560D01*
X107318Y143558D01*
X107340D01*
X107359Y143555D01*
X107376D01*
X107390D01*
X107403D01*
X107410D01*
X107415D01*
X107417D01*
X107529Y143558D01*
X107631Y143562D01*
X107723Y143570D01*
X107808Y143577D01*
X107884Y143589D01*
X107952Y143601D01*
X108010Y143613D01*
X108064Y143628D01*
X108107Y143643D01*
X108146Y143655D01*
X108175Y143667D01*
X108202Y143679D01*
X108219Y143686D01*
X108234Y143694D01*
X108241Y143699D01*
X108244Y143701D01*
X108280Y143730D01*
X108311Y143759D01*
X108338Y143788D01*
X108362Y143818D01*
X108382Y143849D01*
X108397Y143878D01*
X108411Y143907D01*
X108421Y143934D01*
X108431Y143961D01*
X108438Y143985D01*
X108440Y144007D01*
X108445Y144024D01*
Y144039D01*
X108448Y144051D01*
Y144061D01*
X108445Y144099D01*
X108438Y144138D01*
X108428Y144172D01*
X108416Y144206D01*
X108382Y144267D01*
X108365Y144296D01*
X108345Y144321D01*
X108326Y144342D01*
X108309Y144362D01*
X108290Y144379D01*
X108275Y144394D01*
X108263Y144406D01*
X108253Y144413D01*
X108246Y144418D01*
X108244Y144420D01*
X108224Y144432D01*
X108200Y144445D01*
X108149Y144466D01*
X108090Y144486D01*
X108027Y144503D01*
X107962Y144517D01*
X107891Y144529D01*
X107753Y144547D01*
X107687Y144551D01*
X107624Y144556D01*
X107568Y144559D01*
X107517Y144561D01*
X107495D01*
X107476Y144564D01*
D02*
G37*
G36*
X100630Y173928D02*
X100610D01*
X100571Y173926D01*
X100532Y173918D01*
X100496Y173909D01*
X100462Y173896D01*
X100401Y173862D01*
X100372Y173843D01*
X100348Y173826D01*
X100326Y173807D01*
X100306Y173787D01*
X100289Y173770D01*
X100275Y173753D01*
X100263Y173741D01*
X100256Y173731D01*
X100251Y173724D01*
X100248Y173722D01*
X100236Y173702D01*
X100222Y173678D01*
X100200Y173627D01*
X100180Y173571D01*
X100163Y173508D01*
X100149Y173440D01*
X100139Y173372D01*
X100119Y173233D01*
X100115Y173167D01*
X100110Y173104D01*
X100107Y173048D01*
X100105Y172997D01*
Y172976D01*
X100102Y172956D01*
Y172939D01*
Y172924D01*
Y172912D01*
Y172905D01*
Y172900D01*
Y172898D01*
X100105Y172786D01*
X100110Y172684D01*
X100117Y172591D01*
X100124Y172506D01*
X100136Y172431D01*
X100149Y172363D01*
X100161Y172305D01*
X100175Y172251D01*
X100190Y172208D01*
X100202Y172169D01*
X100214Y172140D01*
X100226Y172113D01*
X100234Y172096D01*
X100241Y172081D01*
X100246Y172074D01*
X100248Y172072D01*
X100277Y172035D01*
X100306Y172003D01*
X100336Y171977D01*
X100365Y171952D01*
X100396Y171933D01*
X100426Y171918D01*
X100455Y171904D01*
X100481Y171894D01*
X100508Y171884D01*
X100532Y171877D01*
X100554Y171875D01*
X100571Y171870D01*
X100586D01*
X100598Y171867D01*
X100608D01*
X100647Y171870D01*
X100686Y171877D01*
X100720Y171887D01*
X100754Y171899D01*
X100814Y171933D01*
X100844Y171950D01*
X100868Y171969D01*
X100890Y171989D01*
X100909Y172006D01*
X100926Y172025D01*
X100941Y172040D01*
X100953Y172052D01*
X100960Y172062D01*
X100965Y172069D01*
X100968Y172072D01*
X100980Y172091D01*
X100992Y172115D01*
X101014Y172166D01*
X101033Y172225D01*
X101050Y172288D01*
X101065Y172353D01*
X101077Y172424D01*
X101094Y172562D01*
X101099Y172628D01*
X101103Y172691D01*
X101106Y172747D01*
X101108Y172798D01*
Y172820D01*
X101111Y172839D01*
Y172856D01*
Y172871D01*
Y172883D01*
Y172890D01*
Y172895D01*
Y172898D01*
X101108Y173010D01*
X101103Y173111D01*
X101096Y173206D01*
X101086Y173291D01*
X101074Y173369D01*
X101060Y173440D01*
X101048Y173500D01*
X101031Y173554D01*
X101016Y173600D01*
X101004Y173641D01*
X100989Y173673D01*
X100977Y173700D01*
X100968Y173722D01*
X100960Y173734D01*
X100955Y173743D01*
X100953Y173746D01*
X100929Y173777D01*
X100902Y173807D01*
X100873Y173831D01*
X100846Y173850D01*
X100817Y173870D01*
X100788Y173884D01*
X100761Y173896D01*
X100734Y173906D01*
X100686Y173918D01*
X100664Y173923D01*
X100647Y173926D01*
X100630Y173928D01*
D02*
G37*
G36*
X110079Y245582D02*
X110059D01*
X110020Y245579D01*
X109981Y245572D01*
X109945Y245562D01*
X109911Y245550D01*
X109850Y245516D01*
X109821Y245497D01*
X109797Y245479D01*
X109775Y245460D01*
X109755Y245441D01*
X109738Y245424D01*
X109724Y245407D01*
X109712Y245394D01*
X109704Y245385D01*
X109699Y245377D01*
X109697Y245375D01*
X109685Y245356D01*
X109670Y245331D01*
X109648Y245280D01*
X109629Y245224D01*
X109612Y245161D01*
X109597Y245093D01*
X109588Y245025D01*
X109568Y244887D01*
X109563Y244821D01*
X109558Y244758D01*
X109556Y244702D01*
X109554Y244651D01*
Y244629D01*
X109551Y244610D01*
Y244593D01*
Y244578D01*
Y244566D01*
Y244559D01*
Y244554D01*
Y244551D01*
X109554Y244440D01*
X109558Y244337D01*
X109566Y244245D01*
X109573Y244160D01*
X109585Y244085D01*
X109597Y244017D01*
X109609Y243958D01*
X109624Y243905D01*
X109639Y243861D01*
X109651Y243822D01*
X109663Y243793D01*
X109675Y243766D01*
X109682Y243749D01*
X109690Y243735D01*
X109695Y243727D01*
X109697Y243725D01*
X109726Y243689D01*
X109755Y243657D01*
X109784Y243630D01*
X109814Y243606D01*
X109845Y243586D01*
X109874Y243572D01*
X109904Y243557D01*
X109930Y243548D01*
X109957Y243538D01*
X109981Y243531D01*
X110003Y243528D01*
X110020Y243523D01*
X110035D01*
X110047Y243521D01*
X110057D01*
X110096Y243523D01*
X110134Y243531D01*
X110168Y243540D01*
X110202Y243552D01*
X110263Y243586D01*
X110292Y243603D01*
X110317Y243623D01*
X110338Y243642D01*
X110358Y243659D01*
X110375Y243679D01*
X110390Y243693D01*
X110402Y243706D01*
X110409Y243715D01*
X110414Y243723D01*
X110416Y243725D01*
X110428Y243744D01*
X110441Y243769D01*
X110462Y243820D01*
X110482Y243878D01*
X110499Y243941D01*
X110513Y244007D01*
X110526Y244077D01*
X110543Y244216D01*
X110547Y244282D01*
X110552Y244345D01*
X110555Y244401D01*
X110557Y244452D01*
Y244474D01*
X110560Y244493D01*
Y244510D01*
Y244525D01*
Y244537D01*
Y244544D01*
Y244549D01*
Y244551D01*
X110557Y244663D01*
X110552Y244765D01*
X110545Y244860D01*
X110535Y244945D01*
X110523Y245023D01*
X110509Y245093D01*
X110496Y245154D01*
X110479Y245207D01*
X110465Y245253D01*
X110453Y245295D01*
X110438Y245326D01*
X110426Y245353D01*
X110416Y245375D01*
X110409Y245387D01*
X110404Y245397D01*
X110402Y245399D01*
X110377Y245431D01*
X110351Y245460D01*
X110321Y245484D01*
X110295Y245504D01*
X110266Y245523D01*
X110237Y245538D01*
X110210Y245550D01*
X110183Y245560D01*
X110134Y245572D01*
X110113Y245577D01*
X110096Y245579D01*
X110079Y245582D01*
D02*
G37*
G36*
X42274Y236788D02*
X42257D01*
X42243D01*
X42231D01*
X42223D01*
X42219D01*
X42216D01*
X42104Y236786D01*
X42002Y236781D01*
X41908Y236773D01*
X41822Y236764D01*
X41745Y236752D01*
X41674Y236737D01*
X41614Y236725D01*
X41560Y236708D01*
X41514Y236693D01*
X41473Y236681D01*
X41441Y236666D01*
X41414Y236654D01*
X41392Y236645D01*
X41380Y236637D01*
X41370Y236632D01*
X41368Y236630D01*
X41336Y236606D01*
X41307Y236579D01*
X41283Y236550D01*
X41263Y236523D01*
X41244Y236494D01*
X41230Y236465D01*
X41217Y236438D01*
X41208Y236411D01*
X41195Y236363D01*
X41191Y236341D01*
X41188Y236324D01*
X41186Y236307D01*
Y236287D01*
X41188Y236248D01*
X41195Y236210D01*
X41205Y236173D01*
X41217Y236139D01*
X41251Y236078D01*
X41271Y236049D01*
X41288Y236025D01*
X41307Y236003D01*
X41327Y235984D01*
X41344Y235967D01*
X41361Y235952D01*
X41373Y235940D01*
X41383Y235933D01*
X41390Y235928D01*
X41392Y235925D01*
X41412Y235913D01*
X41436Y235899D01*
X41487Y235877D01*
X41543Y235857D01*
X41606Y235840D01*
X41674Y235826D01*
X41742Y235816D01*
X41881Y235796D01*
X41946Y235792D01*
X42010Y235787D01*
X42065Y235784D01*
X42116Y235782D01*
X42138D01*
X42158Y235780D01*
X42175D01*
X42189D01*
X42202D01*
X42209D01*
X42214D01*
X42216D01*
X42328Y235782D01*
X42430Y235787D01*
X42522Y235794D01*
X42607Y235801D01*
X42683Y235813D01*
X42751Y235826D01*
X42809Y235838D01*
X42862Y235852D01*
X42906Y235867D01*
X42945Y235879D01*
X42974Y235891D01*
X43001Y235904D01*
X43018Y235911D01*
X43033Y235918D01*
X43040Y235923D01*
X43042Y235925D01*
X43079Y235954D01*
X43110Y235984D01*
X43137Y236013D01*
X43161Y236042D01*
X43181Y236073D01*
X43195Y236103D01*
X43210Y236132D01*
X43220Y236159D01*
X43229Y236185D01*
X43237Y236210D01*
X43239Y236231D01*
X43244Y236248D01*
Y236263D01*
X43246Y236275D01*
Y236285D01*
X43244Y236324D01*
X43237Y236363D01*
X43227Y236397D01*
X43215Y236431D01*
X43181Y236491D01*
X43164Y236521D01*
X43144Y236545D01*
X43125Y236567D01*
X43108Y236586D01*
X43088Y236603D01*
X43074Y236618D01*
X43062Y236630D01*
X43052Y236637D01*
X43045Y236642D01*
X43042Y236645D01*
X43023Y236657D01*
X42999Y236669D01*
X42948Y236691D01*
X42889Y236710D01*
X42826Y236727D01*
X42760Y236742D01*
X42690Y236754D01*
X42551Y236771D01*
X42486Y236776D01*
X42423Y236781D01*
X42367Y236783D01*
X42316Y236786D01*
X42294D01*
X42274Y236788D01*
D02*
G37*
G36*
X41487Y142300D02*
X41470D01*
X41455D01*
X41443D01*
X41436D01*
X41431D01*
X41429D01*
X41317Y142297D01*
X41215Y142292D01*
X41120Y142285D01*
X41035Y142276D01*
X40957Y142263D01*
X40887Y142249D01*
X40826Y142237D01*
X40773Y142220D01*
X40726Y142205D01*
X40685Y142193D01*
X40653Y142178D01*
X40627Y142166D01*
X40605Y142156D01*
X40593Y142149D01*
X40583Y142144D01*
X40581Y142142D01*
X40549Y142118D01*
X40520Y142091D01*
X40496Y142062D01*
X40476Y142035D01*
X40457Y142006D01*
X40442Y141977D01*
X40430Y141950D01*
X40420Y141923D01*
X40408Y141875D01*
X40403Y141853D01*
X40401Y141836D01*
X40398Y141819D01*
Y141799D01*
X40401Y141760D01*
X40408Y141721D01*
X40418Y141685D01*
X40430Y141651D01*
X40464Y141590D01*
X40483Y141561D01*
X40500Y141537D01*
X40520Y141515D01*
X40539Y141496D01*
X40556Y141478D01*
X40573Y141464D01*
X40586Y141452D01*
X40595Y141444D01*
X40602Y141440D01*
X40605Y141437D01*
X40624Y141425D01*
X40649Y141410D01*
X40700Y141388D01*
X40756Y141369D01*
X40819Y141352D01*
X40887Y141338D01*
X40955Y141328D01*
X41093Y141308D01*
X41159Y141304D01*
X41222Y141299D01*
X41278Y141296D01*
X41329Y141294D01*
X41351D01*
X41370Y141291D01*
X41387D01*
X41402D01*
X41414D01*
X41421D01*
X41426D01*
X41429D01*
X41541Y141294D01*
X41642Y141299D01*
X41735Y141306D01*
X41820Y141313D01*
X41895Y141325D01*
X41963Y141338D01*
X42022Y141350D01*
X42075Y141364D01*
X42119Y141379D01*
X42158Y141391D01*
X42187Y141403D01*
X42214Y141415D01*
X42231Y141423D01*
X42245Y141430D01*
X42252Y141435D01*
X42255Y141437D01*
X42291Y141466D01*
X42323Y141496D01*
X42350Y141525D01*
X42374Y141554D01*
X42393Y141585D01*
X42408Y141614D01*
X42423Y141644D01*
X42432Y141670D01*
X42442Y141697D01*
X42449Y141721D01*
X42452Y141743D01*
X42457Y141760D01*
Y141775D01*
X42459Y141787D01*
Y141797D01*
X42457Y141836D01*
X42449Y141875D01*
X42440Y141909D01*
X42427Y141943D01*
X42393Y142003D01*
X42376Y142033D01*
X42357Y142057D01*
X42338Y142079D01*
X42320Y142098D01*
X42301Y142115D01*
X42287Y142130D01*
X42274Y142142D01*
X42265Y142149D01*
X42257Y142154D01*
X42255Y142156D01*
X42235Y142169D01*
X42211Y142181D01*
X42160Y142203D01*
X42102Y142222D01*
X42039Y142239D01*
X41973Y142254D01*
X41903Y142266D01*
X41764Y142283D01*
X41698Y142288D01*
X41635Y142292D01*
X41579Y142295D01*
X41528Y142297D01*
X41506D01*
X41487Y142300D01*
D02*
G37*
G36*
Y190331D02*
X41470D01*
X41455D01*
X41443D01*
X41436D01*
X41431D01*
X41429D01*
X41317Y190329D01*
X41215Y190324D01*
X41120Y190317D01*
X41035Y190307D01*
X40957Y190295D01*
X40887Y190280D01*
X40826Y190268D01*
X40773Y190251D01*
X40726Y190236D01*
X40685Y190224D01*
X40653Y190210D01*
X40627Y190198D01*
X40605Y190188D01*
X40593Y190181D01*
X40583Y190176D01*
X40581Y190173D01*
X40549Y190149D01*
X40520Y190122D01*
X40496Y190093D01*
X40476Y190066D01*
X40457Y190037D01*
X40442Y190008D01*
X40430Y189981D01*
X40420Y189955D01*
X40408Y189906D01*
X40403Y189884D01*
X40401Y189867D01*
X40398Y189850D01*
Y189831D01*
X40401Y189792D01*
X40408Y189753D01*
X40418Y189716D01*
X40430Y189682D01*
X40464Y189622D01*
X40483Y189593D01*
X40500Y189568D01*
X40520Y189546D01*
X40539Y189527D01*
X40556Y189510D01*
X40573Y189495D01*
X40586Y189483D01*
X40595Y189476D01*
X40602Y189471D01*
X40605Y189469D01*
X40624Y189456D01*
X40649Y189442D01*
X40700Y189420D01*
X40756Y189401D01*
X40819Y189384D01*
X40887Y189369D01*
X40955Y189359D01*
X41093Y189340D01*
X41159Y189335D01*
X41222Y189330D01*
X41278Y189328D01*
X41329Y189325D01*
X41351D01*
X41370Y189323D01*
X41387D01*
X41402D01*
X41414D01*
X41421D01*
X41426D01*
X41429D01*
X41541Y189325D01*
X41642Y189330D01*
X41735Y189337D01*
X41820Y189345D01*
X41895Y189357D01*
X41963Y189369D01*
X42022Y189381D01*
X42075Y189396D01*
X42119Y189410D01*
X42158Y189423D01*
X42187Y189435D01*
X42214Y189447D01*
X42231Y189454D01*
X42245Y189461D01*
X42252Y189466D01*
X42255Y189469D01*
X42291Y189498D01*
X42323Y189527D01*
X42350Y189556D01*
X42374Y189585D01*
X42393Y189617D01*
X42408Y189646D01*
X42423Y189675D01*
X42432Y189702D01*
X42442Y189729D01*
X42449Y189753D01*
X42452Y189775D01*
X42457Y189792D01*
Y189806D01*
X42459Y189819D01*
Y189828D01*
X42457Y189867D01*
X42449Y189906D01*
X42440Y189940D01*
X42427Y189974D01*
X42393Y190035D01*
X42376Y190064D01*
X42357Y190088D01*
X42338Y190110D01*
X42320Y190130D01*
X42301Y190147D01*
X42287Y190161D01*
X42274Y190173D01*
X42265Y190181D01*
X42257Y190185D01*
X42255Y190188D01*
X42235Y190200D01*
X42211Y190212D01*
X42160Y190234D01*
X42102Y190253D01*
X42039Y190270D01*
X41973Y190285D01*
X41903Y190297D01*
X41764Y190314D01*
X41698Y190319D01*
X41635Y190324D01*
X41579Y190326D01*
X41528Y190329D01*
X41506D01*
X41487Y190331D01*
D02*
G37*
G36*
Y47812D02*
X41470D01*
X41455D01*
X41443D01*
X41436D01*
X41431D01*
X41429D01*
X41317Y47809D01*
X41215Y47804D01*
X41120Y47797D01*
X41035Y47787D01*
X40957Y47775D01*
X40887Y47761D01*
X40826Y47748D01*
X40773Y47731D01*
X40726Y47717D01*
X40685Y47705D01*
X40653Y47690D01*
X40627Y47678D01*
X40605Y47668D01*
X40593Y47661D01*
X40583Y47656D01*
X40581Y47654D01*
X40549Y47629D01*
X40520Y47603D01*
X40496Y47574D01*
X40476Y47547D01*
X40457Y47518D01*
X40442Y47488D01*
X40430Y47462D01*
X40420Y47435D01*
X40408Y47386D01*
X40403Y47365D01*
X40401Y47348D01*
X40398Y47330D01*
Y47311D01*
X40401Y47272D01*
X40408Y47233D01*
X40418Y47197D01*
X40430Y47163D01*
X40464Y47102D01*
X40483Y47073D01*
X40500Y47049D01*
X40520Y47027D01*
X40539Y47007D01*
X40556Y46990D01*
X40573Y46976D01*
X40586Y46964D01*
X40595Y46956D01*
X40602Y46951D01*
X40605Y46949D01*
X40624Y46937D01*
X40649Y46922D01*
X40700Y46900D01*
X40756Y46881D01*
X40819Y46864D01*
X40887Y46849D01*
X40955Y46840D01*
X41093Y46820D01*
X41159Y46815D01*
X41222Y46810D01*
X41278Y46808D01*
X41329Y46806D01*
X41351D01*
X41370Y46803D01*
X41387D01*
X41402D01*
X41414D01*
X41421D01*
X41426D01*
X41429D01*
X41541Y46806D01*
X41642Y46810D01*
X41735Y46818D01*
X41820Y46825D01*
X41895Y46837D01*
X41963Y46849D01*
X42022Y46861D01*
X42075Y46876D01*
X42119Y46891D01*
X42158Y46903D01*
X42187Y46915D01*
X42214Y46927D01*
X42231Y46934D01*
X42245Y46942D01*
X42252Y46946D01*
X42255Y46949D01*
X42291Y46978D01*
X42323Y47007D01*
X42350Y47036D01*
X42374Y47066D01*
X42393Y47097D01*
X42408Y47126D01*
X42423Y47155D01*
X42432Y47182D01*
X42442Y47209D01*
X42449Y47233D01*
X42452Y47255D01*
X42457Y47272D01*
Y47287D01*
X42459Y47299D01*
Y47309D01*
X42457Y47348D01*
X42449Y47386D01*
X42440Y47420D01*
X42427Y47454D01*
X42393Y47515D01*
X42376Y47544D01*
X42357Y47569D01*
X42338Y47591D01*
X42320Y47610D01*
X42301Y47627D01*
X42287Y47642D01*
X42274Y47654D01*
X42265Y47661D01*
X42257Y47666D01*
X42255Y47668D01*
X42235Y47680D01*
X42211Y47692D01*
X42160Y47714D01*
X42102Y47734D01*
X42039Y47751D01*
X41973Y47765D01*
X41903Y47778D01*
X41764Y47795D01*
X41698Y47799D01*
X41635Y47804D01*
X41579Y47807D01*
X41528Y47809D01*
X41506D01*
X41487Y47812D01*
D02*
G37*
G36*
Y95056D02*
X41470D01*
X41455D01*
X41443D01*
X41436D01*
X41431D01*
X41429D01*
X41317Y95053D01*
X41215Y95048D01*
X41120Y95041D01*
X41035Y95031D01*
X40957Y95019D01*
X40887Y95005D01*
X40826Y94993D01*
X40773Y94976D01*
X40726Y94961D01*
X40685Y94949D01*
X40653Y94934D01*
X40627Y94922D01*
X40605Y94912D01*
X40593Y94905D01*
X40583Y94900D01*
X40581Y94898D01*
X40549Y94873D01*
X40520Y94847D01*
X40496Y94818D01*
X40476Y94791D01*
X40457Y94762D01*
X40442Y94732D01*
X40430Y94706D01*
X40420Y94679D01*
X40408Y94630D01*
X40403Y94609D01*
X40401Y94592D01*
X40398Y94574D01*
Y94555D01*
X40401Y94516D01*
X40408Y94477D01*
X40418Y94441D01*
X40430Y94407D01*
X40464Y94346D01*
X40483Y94317D01*
X40500Y94293D01*
X40520Y94271D01*
X40539Y94251D01*
X40556Y94234D01*
X40573Y94220D01*
X40586Y94208D01*
X40595Y94200D01*
X40602Y94195D01*
X40605Y94193D01*
X40624Y94181D01*
X40649Y94166D01*
X40700Y94144D01*
X40756Y94125D01*
X40819Y94108D01*
X40887Y94093D01*
X40955Y94084D01*
X41093Y94064D01*
X41159Y94059D01*
X41222Y94055D01*
X41278Y94052D01*
X41329Y94050D01*
X41351D01*
X41370Y94047D01*
X41387D01*
X41402D01*
X41414D01*
X41421D01*
X41426D01*
X41429D01*
X41541Y94050D01*
X41642Y94055D01*
X41735Y94062D01*
X41820Y94069D01*
X41895Y94081D01*
X41963Y94093D01*
X42022Y94106D01*
X42075Y94120D01*
X42119Y94135D01*
X42158Y94147D01*
X42187Y94159D01*
X42214Y94171D01*
X42231Y94178D01*
X42245Y94186D01*
X42252Y94191D01*
X42255Y94193D01*
X42291Y94222D01*
X42323Y94251D01*
X42350Y94280D01*
X42374Y94310D01*
X42393Y94341D01*
X42408Y94370D01*
X42423Y94400D01*
X42432Y94426D01*
X42442Y94453D01*
X42449Y94477D01*
X42452Y94499D01*
X42457Y94516D01*
Y94531D01*
X42459Y94543D01*
Y94553D01*
X42457Y94592D01*
X42449Y94630D01*
X42440Y94665D01*
X42427Y94699D01*
X42393Y94759D01*
X42376Y94788D01*
X42357Y94813D01*
X42338Y94835D01*
X42320Y94854D01*
X42301Y94871D01*
X42287Y94886D01*
X42274Y94898D01*
X42265Y94905D01*
X42257Y94910D01*
X42255Y94912D01*
X42235Y94924D01*
X42211Y94937D01*
X42160Y94959D01*
X42102Y94978D01*
X42039Y94995D01*
X41973Y95009D01*
X41903Y95022D01*
X41764Y95039D01*
X41698Y95043D01*
X41635Y95048D01*
X41579Y95051D01*
X41528Y95053D01*
X41506D01*
X41487Y95056D01*
D02*
G37*
G36*
X38247Y358576D02*
X37110D01*
Y357784D01*
X38247Y358576D01*
D02*
G37*
G36*
Y380624D02*
X37110D01*
Y379831D01*
X38247Y380624D01*
D02*
G37*
G36*
X181090Y364479D02*
X181071D01*
X181032Y364477D01*
X180993Y364470D01*
X180957Y364460D01*
X180923Y364448D01*
X180862Y364414D01*
X180833Y364394D01*
X180808Y364377D01*
X180787Y364358D01*
X180767Y364338D01*
X180750Y364321D01*
X180736Y364304D01*
X180723Y364292D01*
X180716Y364282D01*
X180711Y364275D01*
X180709Y364273D01*
X180697Y364253D01*
X180682Y364229D01*
X180660Y364178D01*
X180641Y364122D01*
X180624Y364059D01*
X180609Y363991D01*
X180599Y363923D01*
X180580Y363784D01*
X180575Y363719D01*
X180570Y363655D01*
X180568Y363599D01*
X180565Y363548D01*
Y363527D01*
X180563Y363507D01*
Y363490D01*
Y363476D01*
Y363463D01*
Y363456D01*
Y363451D01*
Y363449D01*
X180565Y363337D01*
X180570Y363235D01*
X180578Y363143D01*
X180585Y363058D01*
X180597Y362982D01*
X180609Y362914D01*
X180621Y362856D01*
X180636Y362803D01*
X180650Y362759D01*
X180663Y362720D01*
X180675Y362691D01*
X180687Y362664D01*
X180694Y362647D01*
X180701Y362632D01*
X180706Y362625D01*
X180709Y362623D01*
X180738Y362586D01*
X180767Y362555D01*
X180796Y362528D01*
X180825Y362504D01*
X180857Y362484D01*
X180886Y362470D01*
X180915Y362455D01*
X180942Y362445D01*
X180969Y362436D01*
X180993Y362428D01*
X181015Y362426D01*
X181032Y362421D01*
X181047D01*
X181059Y362419D01*
X181068D01*
X181107Y362421D01*
X181146Y362428D01*
X181180Y362438D01*
X181214Y362450D01*
X181275Y362484D01*
X181304Y362501D01*
X181328Y362521D01*
X181350Y362540D01*
X181370Y362557D01*
X181387Y362577D01*
X181401Y362591D01*
X181413Y362603D01*
X181421Y362613D01*
X181426Y362620D01*
X181428Y362623D01*
X181440Y362642D01*
X181452Y362666D01*
X181474Y362718D01*
X181494Y362776D01*
X181511Y362839D01*
X181525Y362905D01*
X181537Y362975D01*
X181554Y363113D01*
X181559Y363179D01*
X181564Y363242D01*
X181567Y363298D01*
X181569Y363349D01*
Y363371D01*
X181571Y363391D01*
Y363408D01*
Y363422D01*
Y363434D01*
Y363442D01*
Y363446D01*
Y363449D01*
X181569Y363561D01*
X181564Y363663D01*
X181557Y363757D01*
X181547Y363843D01*
X181535Y363920D01*
X181520Y363991D01*
X181508Y364052D01*
X181491Y364105D01*
X181477Y364151D01*
X181465Y364193D01*
X181450Y364224D01*
X181438Y364251D01*
X181428Y364273D01*
X181421Y364285D01*
X181416Y364295D01*
X181413Y364297D01*
X181389Y364329D01*
X181362Y364358D01*
X181333Y364382D01*
X181307Y364401D01*
X181277Y364421D01*
X181248Y364436D01*
X181221Y364448D01*
X181195Y364457D01*
X181146Y364470D01*
X181124Y364474D01*
X181107Y364477D01*
X181090Y364479D01*
D02*
G37*
G36*
X181581Y376042D02*
Y374905D01*
X182373D01*
X181581Y376042D01*
D02*
G37*
G36*
Y383129D02*
Y381992D01*
X182373D01*
X181581Y383129D01*
D02*
G37*
%LPD*%
D15*
X170965Y359095D02*
X175197Y354862D01*
Y344843D02*
Y359095D01*
X153937Y344843D02*
X175197D01*
X153937D02*
Y359095D01*
X175197D01*
D16*
X6988Y309252D02*
X133366D01*
Y6496D02*
Y309252D01*
X6988Y6496D02*
X133366D01*
X6988D02*
Y309252D01*
M02*
