G04*
G04 #@! TF.GenerationSoftware,Altium Limited,Altium Designer,21.7.2 (23)*
G04*
G04 Layer_Color=32896*
%FSLAX25Y25*%
%MOIN*%
G70*
G04*
G04 #@! TF.SameCoordinates,50D7799F-02FE-4AD0-AE3F-70EE2030EBF6*
G04*
G04*
G04 #@! TF.FilePolarity,Positive*
G04*
G01*
G75*
%ADD11C,0.00984*%
%ADD13C,0.00591*%
%ADD15C,0.00394*%
%ADD16C,0.00787*%
%ADD83C,0.03937*%
D11*
X191634Y127461D02*
X190896Y127887D01*
Y127034D01*
X191634Y127461D01*
X195961Y357894D02*
X195234Y358313D01*
Y357474D01*
X195961Y357894D01*
X48720Y366142D02*
X47982Y366568D01*
Y365716D01*
X48720Y366142D01*
X182776Y387402D02*
X182037Y387828D01*
Y386975D01*
X182776Y387402D01*
D13*
X174016Y116142D02*
Y121653D01*
X169016Y116142D02*
Y116898D01*
Y116142D02*
X179016D01*
Y116898D01*
Y120898D02*
Y121653D01*
X169016D02*
X179016D01*
X169016Y120898D02*
Y121653D01*
X110236Y179921D02*
Y185433D01*
X115236Y184677D02*
Y185433D01*
X105236D02*
X115236D01*
X105236Y184677D02*
Y185433D01*
Y179921D02*
Y180677D01*
Y179921D02*
X115236D01*
Y180677D01*
X110236Y169685D02*
Y175197D01*
X105236Y169685D02*
Y170441D01*
Y169685D02*
X115236D01*
Y170441D01*
Y174441D02*
Y175197D01*
X105236D02*
X115236D01*
X105236Y174441D02*
Y175197D01*
X110236Y236614D02*
Y242126D01*
X105236Y236614D02*
Y237370D01*
Y236614D02*
X115236D01*
Y237370D01*
Y241370D02*
Y242126D01*
X105236D02*
X115236D01*
X105236Y241370D02*
Y242126D01*
X40551Y358780D02*
X41307D01*
X40551D02*
Y368779D01*
X41307D01*
X45307D02*
X46063D01*
Y358780D02*
Y368779D01*
X45307Y358780D02*
X46063D01*
X40551Y363779D02*
X46063D01*
X40551Y381102D02*
X46063D01*
X45307Y376102D02*
X46063D01*
Y386102D01*
X45307D02*
X46063D01*
X40551D02*
X41307D01*
X40551Y376102D02*
Y386102D01*
Y376102D02*
X41307D01*
X194764Y369685D02*
Y370441D01*
X184764Y369685D02*
X194764D01*
X184764D02*
Y370441D01*
Y374441D02*
Y375197D01*
X194764D01*
Y374441D02*
Y375197D01*
X189764Y369685D02*
Y375197D01*
X194764Y382283D02*
Y383039D01*
X184764Y382283D02*
X194764D01*
X184764D02*
Y383039D01*
Y387039D02*
Y387795D01*
X194764D01*
Y387039D02*
Y387795D01*
X189764Y382283D02*
Y387795D01*
X28610Y354592D02*
X29134Y355117D01*
X30184D01*
X30709Y354592D01*
Y352493D01*
X30184Y351969D01*
X29134D01*
X28610Y352493D01*
Y353543D01*
X29659D01*
X27560Y351969D02*
Y355117D01*
X25461Y351969D01*
Y355117D01*
X24411D02*
Y351969D01*
X22837D01*
X22312Y352493D01*
Y354592D01*
X22837Y355117D01*
X24411D01*
X16011Y354592D02*
X16536Y355117D01*
X17585D01*
X18110Y354592D01*
Y352493D01*
X17585Y351969D01*
X16536D01*
X16011Y352493D01*
Y353543D01*
X17061D01*
X14962Y351969D02*
Y355117D01*
X12863Y351969D01*
Y355117D01*
X11813D02*
Y351969D01*
X10239D01*
X9714Y352493D01*
Y354592D01*
X10239Y355117D01*
X11813D01*
X9449Y368504D02*
Y371653D01*
X7875D01*
X7350Y371128D01*
Y370078D01*
X7875Y369553D01*
X9449D01*
X4201Y371653D02*
X6300D01*
Y368504D01*
X4201D01*
X6300Y370078D02*
X5251D01*
X29921Y384252D02*
X28872D01*
X29397D01*
Y387401D01*
X29921Y386876D01*
X25198Y384252D02*
X27297D01*
X25198Y386351D01*
Y386876D01*
X25723Y387401D01*
X26773D01*
X27297Y386876D01*
X24149Y387401D02*
Y385301D01*
X23099Y384252D01*
X22050Y385301D01*
Y387401D01*
X21000Y384252D02*
X18901Y386351D01*
X15753Y384252D02*
X17852D01*
X15753Y386351D01*
Y386876D01*
X16277Y387401D01*
X17327D01*
X17852Y386876D01*
X13129Y384252D02*
Y387401D01*
X14703Y385826D01*
X12604D01*
X11554Y387401D02*
Y385301D01*
X10505Y384252D01*
X9455Y385301D01*
Y387401D01*
X136910Y319145D02*
X137959D01*
X137434D01*
Y316521D01*
X137959Y315996D01*
X138484D01*
X139009Y316521D01*
X133761Y315996D02*
X135860D01*
X133761Y318095D01*
Y318620D01*
X134286Y319145D01*
X135335D01*
X135860Y318620D01*
X30972Y330970D02*
X31497Y331495D01*
X32546D01*
X33071Y330970D01*
Y328871D01*
X32546Y328346D01*
X31497D01*
X30972Y328871D01*
X29922Y330970D02*
X29397Y331495D01*
X28348D01*
X27823Y330970D01*
Y330446D01*
X28348Y329921D01*
X28873D01*
X28348D01*
X27823Y329396D01*
Y328871D01*
X28348Y328346D01*
X29397D01*
X29922Y328871D01*
X25199Y328346D02*
Y331495D01*
X26774Y329921D01*
X24675D01*
X30972Y342258D02*
X31497Y341733D01*
X32546D01*
X33071Y342258D01*
Y344357D01*
X32546Y344882D01*
X31497D01*
X30972Y344357D01*
X29922Y342258D02*
X29397Y341733D01*
X28348D01*
X27823Y342258D01*
Y342783D01*
X28348Y343308D01*
X28873D01*
X28348D01*
X27823Y343832D01*
Y344357D01*
X28348Y344882D01*
X29397D01*
X29922Y344357D01*
X26774Y342258D02*
X26249Y341733D01*
X25199D01*
X24675Y342258D01*
Y342783D01*
X25199Y343308D01*
X25724D01*
X25199D01*
X24675Y343832D01*
Y344357D01*
X25199Y344882D01*
X26249D01*
X26774Y344357D01*
X148819Y347243D02*
Y344094D01*
X147245D01*
X146720Y344619D01*
Y346718D01*
X147245Y347243D01*
X148819D01*
X143571Y344094D02*
X145670D01*
X143571Y346194D01*
Y346718D01*
X144096Y347243D01*
X145145D01*
X145670Y346718D01*
X169457Y240812D02*
Y238188D01*
X168933Y237663D01*
X167883D01*
X167358Y238188D01*
Y240812D01*
X164210D02*
X166309D01*
Y239237D01*
X165259Y239762D01*
X164735D01*
X164210Y239237D01*
Y238188D01*
X164735Y237663D01*
X165784D01*
X166309Y238188D01*
X163160Y237138D02*
X161061D01*
X157913Y240287D02*
X158437Y240812D01*
X159487D01*
X160012Y240287D01*
Y239762D01*
X159487Y239237D01*
X158437D01*
X157913Y238713D01*
Y238188D01*
X158437Y237663D01*
X159487D01*
X160012Y238188D01*
X156863Y240812D02*
Y237663D01*
Y239237D01*
X156338Y239762D01*
X155289D01*
X154764Y239237D01*
Y237663D01*
X153715D02*
X152665D01*
X153190D01*
Y239762D01*
X153715D01*
X150566Y237663D02*
Y240287D01*
Y239237D01*
X151091D01*
X150041D01*
X150566D01*
Y240287D01*
X150041Y240812D01*
X147942Y240287D02*
Y239762D01*
X148467D01*
X147417D01*
X147942D01*
Y238188D01*
X147417Y237663D01*
X145843Y237138D02*
X143744D01*
X142694Y240812D02*
X140595D01*
X141645D01*
Y237663D01*
X137447Y240812D02*
X139546D01*
Y237663D01*
X137447D01*
X139546Y239237D02*
X138496D01*
X136397Y237663D02*
Y240812D01*
X135348Y239762D01*
X134298Y240812D01*
Y237663D01*
X133249D02*
Y240812D01*
X131674D01*
X131150Y240287D01*
Y239237D01*
X131674Y238713D01*
X133249D01*
X130100Y237138D02*
X128001D01*
X126952Y237663D02*
Y240812D01*
X125377D01*
X124852Y240287D01*
Y239237D01*
X125377Y238713D01*
X126952D01*
X123803Y240812D02*
Y237663D01*
X122753Y238713D01*
X121704Y237663D01*
Y240812D01*
X120654Y237663D02*
Y240812D01*
X119605Y239762D01*
X118555Y240812D01*
Y237663D01*
X164900Y177849D02*
Y175225D01*
X164375Y174700D01*
X163326D01*
X162801Y175225D01*
Y177849D01*
X159652D02*
X161751D01*
Y176274D01*
X160702Y176799D01*
X160177D01*
X159652Y176274D01*
Y175225D01*
X160177Y174700D01*
X161227D01*
X161751Y175225D01*
X158603Y174175D02*
X156504D01*
X153355Y177324D02*
X153880Y177849D01*
X154929D01*
X155454Y177324D01*
Y176799D01*
X154929Y176274D01*
X153880D01*
X153355Y175750D01*
Y175225D01*
X153880Y174700D01*
X154929D01*
X155454Y175225D01*
X152306Y177849D02*
Y174700D01*
Y176274D01*
X151781Y176799D01*
X150731D01*
X150207Y176274D01*
Y174700D01*
X149157D02*
X148108D01*
X148632D01*
Y176799D01*
X149157D01*
X146008Y174700D02*
Y177324D01*
Y176274D01*
X146533D01*
X145484D01*
X146008D01*
Y177324D01*
X145484Y177849D01*
X143385Y177324D02*
Y176799D01*
X143909D01*
X142860D01*
X143385D01*
Y175225D01*
X142860Y174700D01*
X141286Y174175D02*
X139187D01*
X138137Y177849D02*
Y174700D01*
X136563D01*
X136038Y175225D01*
Y177324D01*
X136563Y177849D01*
X138137D01*
X134988D02*
X133939D01*
X134464D01*
Y174700D01*
X134988D01*
X133939D01*
X132365D02*
Y176799D01*
X131315Y177849D01*
X130265Y176799D01*
Y174700D01*
Y176274D01*
X132365D01*
X127117Y177324D02*
X127642Y177849D01*
X128691D01*
X129216Y177324D01*
Y175225D01*
X128691Y174700D01*
X127642D01*
X127117Y175225D01*
Y176274D01*
X128166D01*
X126067Y174175D02*
X123968D01*
X120820Y177849D02*
X122919D01*
Y176274D01*
X121869D01*
X122919D01*
Y174700D01*
X119770D02*
Y176799D01*
X118721Y177849D01*
X117671Y176799D01*
Y174700D01*
Y176274D01*
X119770D01*
X116622Y177849D02*
Y175225D01*
X116097Y174700D01*
X115047D01*
X114523Y175225D01*
Y177849D01*
X113473D02*
Y174700D01*
X111374D01*
X110324Y177849D02*
X108225D01*
X109275D01*
Y174700D01*
X107176Y174175D02*
X105077D01*
X102453Y177849D02*
X103503D01*
X104027Y177324D01*
Y175225D01*
X103503Y174700D01*
X102453D01*
X101928Y175225D01*
Y177324D01*
X102453Y177849D01*
X98780Y177324D02*
X99304Y177849D01*
X100354D01*
X100879Y177324D01*
Y175225D01*
X100354Y174700D01*
X99304D01*
X98780Y175225D01*
X146457Y362991D02*
X144358D01*
X145407D01*
Y359842D01*
X141209D02*
X143308D01*
X141209Y361942D01*
Y362466D01*
X141734Y362991D01*
X142783D01*
X143308Y362466D01*
X58268Y359841D02*
X56169D01*
X57218D01*
Y356693D01*
X55119D02*
X54070D01*
X54594D01*
Y359841D01*
X55119Y359317D01*
X188976Y389764D02*
Y392912D01*
X187402D01*
X186877Y392388D01*
Y391338D01*
X187402Y390813D01*
X188976D01*
X187927D02*
X186877Y389764D01*
X184254D02*
Y392912D01*
X185828Y391338D01*
X183729D01*
X45669Y352756D02*
Y355905D01*
X44095D01*
X43570Y355380D01*
Y354330D01*
X44095Y353805D01*
X45669D01*
X44620D02*
X43570Y352756D01*
X42521Y355380D02*
X41996Y355905D01*
X40946D01*
X40422Y355380D01*
Y354855D01*
X40946Y354330D01*
X41471D01*
X40946D01*
X40422Y353805D01*
Y353281D01*
X40946Y352756D01*
X41996D01*
X42521Y353281D01*
X192126Y377165D02*
Y380314D01*
X190552D01*
X190027Y379789D01*
Y378740D01*
X190552Y378215D01*
X192126D01*
X191076D02*
X190027Y377165D01*
X186878D02*
X188977D01*
X186878Y379264D01*
Y379789D01*
X187403Y380314D01*
X188453D01*
X188977Y379789D01*
X45669Y388976D02*
Y392125D01*
X44095D01*
X43570Y391600D01*
Y390551D01*
X44095Y390026D01*
X45669D01*
X44620D02*
X43570Y388976D01*
X42521D02*
X41471D01*
X41996D01*
Y392125D01*
X42521Y391600D01*
X130184Y366928D02*
X132283D01*
Y365354D01*
X131234D01*
X132283D01*
Y363779D01*
X129135D02*
X128085D01*
X128610D01*
Y366928D01*
X129135Y366403D01*
X194488Y342519D02*
Y339370D01*
X192914D01*
X192389Y339895D01*
Y341994D01*
X192914Y342519D01*
X194488D01*
X191340Y339370D02*
X190290D01*
X190815D01*
Y342519D01*
X191340Y341994D01*
X68351Y62349D02*
X68876Y62874D01*
X69926D01*
X70450Y62349D01*
Y60250D01*
X69926Y59725D01*
X68876D01*
X68351Y60250D01*
X65203Y59725D02*
X67302D01*
X65203Y61824D01*
Y62349D01*
X65728Y62874D01*
X66777D01*
X67302Y62349D01*
X62054Y62874D02*
X64153D01*
Y61300D01*
X63104Y61824D01*
X62579D01*
X62054Y61300D01*
Y60250D01*
X62579Y59725D01*
X63628D01*
X64153Y60250D01*
X61005Y59200D02*
X58906D01*
X57856Y59725D02*
Y62874D01*
X56282D01*
X55757Y62349D01*
Y61300D01*
X56282Y60775D01*
X57856D01*
X56806D02*
X55757Y59725D01*
X52608Y62349D02*
X53133Y62874D01*
X54183D01*
X54707Y62349D01*
Y61824D01*
X54183Y61300D01*
X53133D01*
X52608Y60775D01*
Y60250D01*
X53133Y59725D01*
X54183D01*
X54707Y60250D01*
X49985Y59725D02*
Y62874D01*
X51559Y61300D01*
X49460D01*
X46311Y59725D02*
X48410D01*
X46311Y61824D01*
Y62349D01*
X46836Y62874D01*
X47886D01*
X48410Y62349D01*
X43163Y59725D02*
X45262D01*
X43163Y61824D01*
Y62349D01*
X43687Y62874D01*
X44737D01*
X45262Y62349D01*
X42113D02*
X41588Y62874D01*
X40539D01*
X40014Y62349D01*
Y61824D01*
X40539Y61300D01*
X41063D01*
X40539D01*
X40014Y60775D01*
Y60250D01*
X40539Y59725D01*
X41588D01*
X42113Y60250D01*
X68401Y204824D02*
X68926Y205349D01*
X69975D01*
X70500Y204824D01*
Y202725D01*
X69975Y202200D01*
X68926D01*
X68401Y202725D01*
X65252Y202200D02*
X67351D01*
X65252Y204299D01*
Y204824D01*
X65777Y205349D01*
X66827D01*
X67351Y204824D01*
X62104Y205349D02*
X64203D01*
Y203774D01*
X63153Y204299D01*
X62629D01*
X62104Y203774D01*
Y202725D01*
X62629Y202200D01*
X63678D01*
X64203Y202725D01*
X61054Y201675D02*
X58955D01*
X57906Y202200D02*
Y205349D01*
X56331D01*
X55807Y204824D01*
Y203774D01*
X56331Y203250D01*
X57906D01*
X56856D02*
X55807Y202200D01*
X52658Y204824D02*
X53183Y205349D01*
X54232D01*
X54757Y204824D01*
Y204299D01*
X54232Y203774D01*
X53183D01*
X52658Y203250D01*
Y202725D01*
X53183Y202200D01*
X54232D01*
X54757Y202725D01*
X50034Y202200D02*
Y205349D01*
X51609Y203774D01*
X49509D01*
X46361Y202200D02*
X48460D01*
X46361Y204299D01*
Y204824D01*
X46886Y205349D01*
X47935D01*
X48460Y204824D01*
X43212Y202200D02*
X45311D01*
X43212Y204299D01*
Y204824D01*
X43737Y205349D01*
X44787D01*
X45311Y204824D01*
X40064Y202200D02*
X42163D01*
X40064Y204299D01*
Y204824D01*
X40588Y205349D01*
X41638D01*
X42163Y204824D01*
X67302Y109612D02*
X67826Y110137D01*
X68876D01*
X69401Y109612D01*
Y107513D01*
X68876Y106988D01*
X67826D01*
X67302Y107513D01*
X64153Y106988D02*
X66252D01*
X64153Y109087D01*
Y109612D01*
X64678Y110137D01*
X65727D01*
X66252Y109612D01*
X61005Y110137D02*
X63104D01*
Y108563D01*
X62054Y109087D01*
X61529D01*
X61005Y108563D01*
Y107513D01*
X61529Y106988D01*
X62579D01*
X63104Y107513D01*
X59955Y106463D02*
X57856D01*
X56806Y106988D02*
Y110137D01*
X55232D01*
X54707Y109612D01*
Y108563D01*
X55232Y108038D01*
X56806D01*
X55757D02*
X54707Y106988D01*
X51559Y109612D02*
X52083Y110137D01*
X53133D01*
X53658Y109612D01*
Y109087D01*
X53133Y108563D01*
X52083D01*
X51559Y108038D01*
Y107513D01*
X52083Y106988D01*
X53133D01*
X53658Y107513D01*
X48935Y106988D02*
Y110137D01*
X50509Y108563D01*
X48410D01*
X45262Y106988D02*
X47361D01*
X45262Y109087D01*
Y109612D01*
X45786Y110137D01*
X46836D01*
X47361Y109612D01*
X42113Y106988D02*
X44212D01*
X42113Y109087D01*
Y109612D01*
X42638Y110137D01*
X43687D01*
X44212Y109612D01*
X41063Y106988D02*
X40014D01*
X40539D01*
Y110137D01*
X41063Y109612D01*
X93051Y156786D02*
X93576Y157311D01*
X94626D01*
X95150Y156786D01*
Y154687D01*
X94626Y154162D01*
X93576D01*
X93051Y154687D01*
X89903Y154162D02*
X92002D01*
X89903Y156261D01*
Y156786D01*
X90428Y157311D01*
X91477D01*
X92002Y156786D01*
X87279Y154162D02*
Y157311D01*
X88853Y155736D01*
X86754D01*
X85705Y153637D02*
X83606D01*
X82556Y157311D02*
X80457D01*
X81507D01*
Y154162D01*
X79407Y157311D02*
X78358D01*
X78883D01*
Y154162D01*
X79407D01*
X78358D01*
X76784Y153637D02*
X74685D01*
X73635Y157311D02*
Y154162D01*
X72061D01*
X71536Y154687D01*
Y156786D01*
X72061Y157311D01*
X73635D01*
X68387Y156786D02*
X68912Y157311D01*
X69962D01*
X70486Y156786D01*
Y156261D01*
X69962Y155736D01*
X68912D01*
X68387Y155212D01*
Y154687D01*
X68912Y154162D01*
X69962D01*
X70486Y154687D01*
X65239Y154162D02*
X67338D01*
X65239Y156261D01*
Y156786D01*
X65763Y157311D01*
X66813D01*
X67338Y156786D01*
X62090Y157311D02*
X63140Y156786D01*
X64189Y155736D01*
Y154687D01*
X63665Y154162D01*
X62615D01*
X62090Y154687D01*
Y155212D01*
X62615Y155736D01*
X64189D01*
X58942Y156786D02*
X59466Y157311D01*
X60516D01*
X61041Y156786D01*
Y154687D01*
X60516Y154162D01*
X59466D01*
X58942Y154687D01*
X57892Y156786D02*
X57367Y157311D01*
X56318D01*
X55793Y156786D01*
Y156261D01*
X56318Y155736D01*
X56842D01*
X56318D01*
X55793Y155212D01*
Y154687D01*
X56318Y154162D01*
X57367D01*
X57892Y154687D01*
X52644Y154162D02*
X54743D01*
X52644Y156261D01*
Y156786D01*
X53169Y157311D01*
X54219D01*
X54743Y156786D01*
X51595Y154162D02*
Y156261D01*
X50545Y157311D01*
X49496Y156261D01*
Y154162D01*
Y155736D01*
X51595D01*
X48446Y157311D02*
X46347D01*
X47397D01*
Y154162D01*
X44773D02*
Y157311D01*
X43723D02*
Y154162D01*
X45298Y156261D02*
X43723D01*
X43199D01*
X45298Y155212D02*
X43199D01*
X40050Y154162D02*
X42149D01*
X40050Y156261D01*
Y156786D01*
X40575Y157311D01*
X41624D01*
X42149Y156786D01*
X92751Y251286D02*
X93276Y251811D01*
X94326D01*
X94850Y251286D01*
Y249187D01*
X94326Y248662D01*
X93276D01*
X92751Y249187D01*
X89603Y248662D02*
X91702D01*
X89603Y250761D01*
Y251286D01*
X90127Y251811D01*
X91177D01*
X91702Y251286D01*
X86979Y248662D02*
Y251811D01*
X88553Y250237D01*
X86454D01*
X85405Y248137D02*
X83306D01*
X82256Y251811D02*
X80157D01*
X81207D01*
Y248662D01*
X79107Y251811D02*
X78058D01*
X78583D01*
Y248662D01*
X79107D01*
X78058D01*
X76484Y248137D02*
X74385D01*
X73335Y251811D02*
Y248662D01*
X71761D01*
X71236Y249187D01*
Y251286D01*
X71761Y251811D01*
X73335D01*
X68087Y251286D02*
X68612Y251811D01*
X69662D01*
X70186Y251286D01*
Y250761D01*
X69662Y250237D01*
X68612D01*
X68087Y249712D01*
Y249187D01*
X68612Y248662D01*
X69662D01*
X70186Y249187D01*
X64939Y248662D02*
X67038D01*
X64939Y250761D01*
Y251286D01*
X65464Y251811D01*
X66513D01*
X67038Y251286D01*
X61790Y251811D02*
X62840Y251286D01*
X63889Y250237D01*
Y249187D01*
X63364Y248662D01*
X62315D01*
X61790Y249187D01*
Y249712D01*
X62315Y250237D01*
X63889D01*
X58642Y251286D02*
X59166Y251811D01*
X60216D01*
X60741Y251286D01*
Y249187D01*
X60216Y248662D01*
X59166D01*
X58642Y249187D01*
X57592Y251286D02*
X57067Y251811D01*
X56018D01*
X55493Y251286D01*
Y250761D01*
X56018Y250237D01*
X56543D01*
X56018D01*
X55493Y249712D01*
Y249187D01*
X56018Y248662D01*
X57067D01*
X57592Y249187D01*
X52344Y248662D02*
X54444D01*
X52344Y250761D01*
Y251286D01*
X52869Y251811D01*
X53919D01*
X54444Y251286D01*
X51295Y248662D02*
Y250761D01*
X50245Y251811D01*
X49196Y250761D01*
Y248662D01*
Y250237D01*
X51295D01*
X48146Y251811D02*
X46047D01*
X47097D01*
Y248662D01*
X44473D02*
Y251811D01*
X43423D02*
Y248662D01*
X44998Y250761D02*
X43423D01*
X42899D01*
X44998Y249712D02*
X42899D01*
X41849Y248662D02*
X40800D01*
X41324D01*
Y251811D01*
X41849Y251286D01*
X190027Y360892D02*
X190552Y361416D01*
X191601D01*
X192126Y360892D01*
Y358792D01*
X191601Y358268D01*
X190552D01*
X190027Y358792D01*
X186878Y358268D02*
X188977D01*
X186878Y360367D01*
Y360892D01*
X187403Y361416D01*
X188453D01*
X188977Y360892D01*
X35696Y382151D02*
X36221Y382676D01*
X37271D01*
X37795Y382151D01*
Y380052D01*
X37271Y379528D01*
X36221D01*
X35696Y380052D01*
X34647Y379528D02*
X33597D01*
X34122D01*
Y382676D01*
X34647Y382151D01*
D15*
X4331Y244488D02*
Y244094D01*
Y244488D01*
X6988Y309252D02*
X133366D01*
Y6496D02*
Y309252D01*
X6988Y6496D02*
X133366D01*
X6988D02*
Y309252D01*
X188902Y117547D02*
Y126547D01*
X185902Y117547D02*
X188902D01*
X185902D02*
Y126547D01*
X188902D01*
D16*
X9055Y346850D02*
X12992D01*
X9055Y339764D02*
X12992D01*
X9055Y333465D02*
X12992D01*
X9055Y326378D02*
X12992D01*
X168701Y216732D02*
Y217126D01*
X171457Y216732D02*
Y217126D01*
X109252Y222638D02*
Y223031D01*
X106496Y222638D02*
Y223031D01*
X112008Y126575D02*
Y126969D01*
X114764Y126575D02*
Y126969D01*
X172244Y154528D02*
X172638D01*
X172244Y157283D02*
X172638D01*
X168701Y192717D02*
Y193110D01*
X171457Y192717D02*
Y193110D01*
X176181Y131693D02*
X176575D01*
X176181Y134449D02*
X176575D01*
X108465Y195079D02*
X108858D01*
X108465Y192323D02*
X108858D01*
X106496Y152559D02*
Y152953D01*
X109252Y152559D02*
Y152953D01*
X43898Y240748D02*
Y241142D01*
X41142Y240748D02*
Y241142D01*
X43110Y146260D02*
Y146653D01*
X40354Y146260D02*
Y146653D01*
X43110Y194291D02*
Y194685D01*
X40354Y194291D02*
Y194685D01*
X43110Y51772D02*
Y52165D01*
X40354Y51772D02*
Y52165D01*
X43110Y99016D02*
Y99409D01*
X40354Y99016D02*
Y99409D01*
X123917Y184055D02*
X129724D01*
X132283D02*
Y233268D01*
X151181D01*
Y184055D02*
Y233268D01*
X132283Y184055D02*
X151181D01*
X123917Y121063D02*
X129724D01*
X132283D02*
Y170276D01*
X151181D01*
Y121063D02*
Y170276D01*
X132283Y121063D02*
X151181D01*
X186417Y344646D02*
Y347244D01*
Y344646D02*
X189626D01*
X186417Y353543D02*
Y356142D01*
X189626D01*
X153937Y344843D02*
X175197D01*
X153937Y359095D02*
X177461D01*
X60236Y362402D02*
Y387992D01*
X62992D01*
X60236Y362402D02*
X62992D01*
X38484Y371457D02*
Y371850D01*
X33957Y371457D02*
Y371850D01*
X188779Y366732D02*
X189173D01*
X188779Y363976D02*
X189173D01*
X167520Y391142D02*
X170276D01*
X167520Y365551D02*
X170276D01*
Y391142D01*
D83*
X114075Y371240D02*
Y386240D01*
M02*
