G04*
G04 #@! TF.GenerationSoftware,Altium Limited,Altium Designer,21.2.0 (30)*
G04*
G04 Layer_Color=32768*
%FSLAX25Y25*%
%MOIN*%
G70*
G04*
G04 #@! TF.SameCoordinates,A3FB2E6E-176B-49CF-A702-6EBA3DBCADC7*
G04*
G04*
G04 #@! TF.FilePolarity,Positive*
G04*
G01*
G75*
%ADD16C,0.00394*%
%ADD91C,0.00197*%
D16*
X182476Y317760D02*
X195476D01*
X182476D02*
Y324760D01*
X195476D01*
Y317760D02*
Y324760D01*
X87445Y275115D02*
X94445D01*
Y288115D01*
X87445D02*
X94445D01*
X87445Y275115D02*
Y288115D01*
D91*
X63976Y336536D02*
X73031D01*
X63976Y340867D02*
X73031D01*
Y336536D02*
Y340867D01*
X63976Y336536D02*
Y340867D01*
X104921Y249016D02*
Y259646D01*
X110827Y249016D02*
Y259646D01*
X104921Y249016D02*
X110827D01*
X104921Y259646D02*
X110827D01*
X97835Y249016D02*
Y259646D01*
X103740Y249016D02*
Y259646D01*
X97835Y249016D02*
X103740D01*
X97835Y259646D02*
X103740D01*
X121457Y193898D02*
Y204528D01*
X127362Y193898D02*
Y204528D01*
X121457Y193898D02*
X127362D01*
X121457Y204528D02*
X127362D01*
X114370Y193898D02*
Y204528D01*
X120276Y193898D02*
Y204528D01*
X114370Y193898D02*
X120276D01*
X114370Y204528D02*
X120276D01*
X110728Y179232D02*
Y189862D01*
X116634Y179232D02*
Y189862D01*
X110728Y179232D02*
X116634D01*
X110728Y189862D02*
X116634D01*
X102284Y179362D02*
Y189992D01*
X108189Y179362D02*
Y189992D01*
X102284Y179362D02*
X108189D01*
X102284Y189992D02*
X108189D01*
X123425Y86024D02*
Y96653D01*
X117520Y86024D02*
Y96653D01*
X123425D01*
X117520Y86024D02*
X123425D01*
X132087D02*
Y96653D01*
X126181Y86024D02*
Y96653D01*
X132087D01*
X126181Y86024D02*
X132087D01*
X175394Y318307D02*
Y324213D01*
X164764Y318307D02*
Y324213D01*
Y318307D02*
X175394D01*
X164764Y324213D02*
X175394D01*
X117520Y116339D02*
X123425D01*
X117520Y105709D02*
X123425D01*
Y116339D01*
X117520Y105709D02*
Y116339D01*
X177362Y165551D02*
X183268D01*
X177362Y176181D02*
X183268D01*
X177362Y165551D02*
Y176181D01*
X183268Y165551D02*
Y176181D01*
X181102Y202559D02*
X192126D01*
X181102Y189567D02*
X192126D01*
Y202559D01*
X181102Y189567D02*
Y202559D01*
X171063Y237992D02*
Y243898D01*
X181693Y237992D02*
Y243898D01*
X171063D02*
X181693D01*
X171063Y237992D02*
X181693D01*
X170276Y181299D02*
Y187205D01*
X180905Y181299D02*
Y187205D01*
X170276D02*
X180905D01*
X170276Y181299D02*
X180905D01*
X86024Y29331D02*
Y38386D01*
X90354Y29331D02*
Y38386D01*
X86024Y29331D02*
X90354D01*
X86024Y38386D02*
X90354D01*
X109646Y34055D02*
Y43110D01*
X113976Y34055D02*
Y43110D01*
X109646Y34055D02*
X113976D01*
X109646Y43110D02*
X113976D01*
X150984Y5709D02*
Y14764D01*
X146653Y5709D02*
Y14764D01*
X150984D01*
X146653Y5709D02*
X150984D01*
X2953Y138976D02*
Y168110D01*
X44291Y138976D02*
Y168110D01*
X2953Y138976D02*
X44291D01*
X2953Y168110D02*
X44291D01*
X2953Y233465D02*
Y262598D01*
X44291Y233465D02*
Y262598D01*
X2953Y233465D02*
X44291D01*
X2953Y262598D02*
X44291D01*
X2953Y91732D02*
Y120866D01*
X44291Y91732D02*
Y120866D01*
X2953Y91732D02*
X44291D01*
X2953Y120866D02*
X44291D01*
X129331Y378189D02*
Y384095D01*
X118701Y378189D02*
Y384095D01*
Y378189D02*
X129331D01*
X118701Y384095D02*
X129331D01*
X118701Y370315D02*
Y376220D01*
X129331Y370315D02*
Y376220D01*
X118701D02*
X129331D01*
X118701Y370315D02*
X129331D01*
X110039Y370315D02*
X115945D01*
X110039Y380945D02*
X115945D01*
X110039Y370315D02*
Y380945D01*
X115945Y370315D02*
Y380945D01*
X102953Y370315D02*
X108858D01*
X102953Y380945D02*
X108858D01*
X102953Y370315D02*
Y380945D01*
X108858Y370315D02*
Y380945D01*
X119488Y390394D02*
X128543D01*
X119488Y386063D02*
X128543D01*
X119488D02*
Y390394D01*
X128543Y386063D02*
Y390394D01*
X135630Y357716D02*
Y366772D01*
X131299Y357716D02*
Y366772D01*
X135630D01*
X131299Y357716D02*
X135630D01*
X125000Y319921D02*
X134055D01*
X125000Y324252D02*
X134055D01*
Y319921D02*
Y324252D01*
X125000Y319921D02*
Y324252D01*
Y326220D02*
X134055D01*
X125000Y330551D02*
X134055D01*
Y326220D02*
Y330551D01*
X125000Y326220D02*
Y330551D01*
X135630Y342717D02*
Y348622D01*
X125000Y342717D02*
Y348622D01*
Y342717D02*
X135630D01*
X125000Y348622D02*
X135630D01*
Y334842D02*
Y340748D01*
X125000Y334842D02*
Y340748D01*
Y334842D02*
X135630D01*
X125000Y340748D02*
X135630D01*
X42126Y348150D02*
X48031D01*
X42126Y337520D02*
X48031D01*
Y348150D01*
X42126Y337520D02*
Y348150D01*
X49606Y337520D02*
X55512D01*
X49606Y348150D02*
X55512D01*
X49606Y337520D02*
Y348150D01*
X55512Y337520D02*
Y348150D01*
X75787Y342717D02*
Y353346D01*
X81693Y342717D02*
Y353346D01*
X75787Y342717D02*
X81693D01*
X75787Y353346D02*
X81693D01*
X82874Y342717D02*
Y353346D01*
X88779Y342717D02*
Y353346D01*
X82874Y342717D02*
X88779D01*
X82874Y353346D02*
X88779D01*
X29724Y347166D02*
X34055D01*
X29724Y338111D02*
X34055D01*
Y347166D01*
X29724Y338111D02*
Y347166D01*
X35630D02*
X39961D01*
X35630Y338111D02*
X39961D01*
Y347166D01*
X35630Y338111D02*
Y347166D01*
X2953Y215354D02*
X44291D01*
X2953Y186221D02*
X44291D01*
Y215354D01*
X2953Y186221D02*
Y215354D01*
X93897Y296772D02*
Y307402D01*
X87992Y296772D02*
Y307402D01*
X93897D01*
X87992Y296772D02*
X93897D01*
X2953Y73622D02*
X44291D01*
X2953Y44488D02*
X44291D01*
Y73622D01*
X2953Y44488D02*
Y73622D01*
M02*
