G04*
G04 #@! TF.GenerationSoftware,Altium Limited,Altium Designer,21.2.0 (30)*
G04*
G04 Layer_Color=32896*
%FSLAX25Y25*%
%MOIN*%
G70*
G04*
G04 #@! TF.SameCoordinates,A3FB2E6E-176B-49CF-A702-6EBA3DBCADC7*
G04*
G04*
G04 #@! TF.FilePolarity,Positive*
G04*
G01*
G75*
%ADD91C,0.00197*%
D91*
X180905Y116535D02*
X193898D01*
X180905Y127559D02*
X193898D01*
X180905Y116535D02*
Y127559D01*
X193898Y116535D02*
Y127559D01*
X167913Y212402D02*
Y221457D01*
X172244Y212402D02*
Y221457D01*
X167913D02*
X172244D01*
X167913Y212402D02*
X172244D01*
X110039Y218307D02*
Y227362D01*
X105709Y218307D02*
Y227362D01*
Y218307D02*
X110039D01*
X105709Y227362D02*
X110039D01*
X111221Y122244D02*
Y131299D01*
X115551Y122244D02*
Y131299D01*
X111221D02*
X115551D01*
X111221Y122244D02*
X115551D01*
X167913Y153740D02*
X176969D01*
X167913Y158071D02*
X176969D01*
X167913Y153740D02*
Y158071D01*
X176969Y153740D02*
Y158071D01*
X168701Y115945D02*
Y121850D01*
X179331Y115945D02*
Y121850D01*
X168701Y115945D02*
X179331D01*
X168701Y121850D02*
X179331D01*
X115551Y179724D02*
Y185630D01*
X104921Y179724D02*
Y185630D01*
X115551D01*
X104921Y179724D02*
X115551D01*
X167913Y188386D02*
Y197441D01*
X172244Y188386D02*
Y197441D01*
X167913D02*
X172244D01*
X167913Y188386D02*
X172244D01*
X171850Y130905D02*
X180905D01*
X171850Y135236D02*
X180905D01*
X171850Y130905D02*
Y135236D01*
X180905Y130905D02*
Y135236D01*
X104134Y195866D02*
X113189D01*
X104134Y191535D02*
X113189D01*
Y195866D01*
X104134Y191535D02*
Y195866D01*
X105709Y148228D02*
Y157283D01*
X110039Y148228D02*
Y157283D01*
X105709D02*
X110039D01*
X105709Y148228D02*
X110039D01*
X104921Y169488D02*
Y175394D01*
X115551Y169488D02*
Y175394D01*
X104921Y169488D02*
X115551D01*
X104921Y175394D02*
X115551D01*
X104921Y236417D02*
Y242323D01*
X115551Y236417D02*
Y242323D01*
X104921Y236417D02*
X115551D01*
X104921Y242323D02*
X115551D01*
X44685Y236417D02*
Y245472D01*
X40354Y236417D02*
Y245472D01*
Y236417D02*
X44685D01*
X40354Y245472D02*
X44685D01*
X43898Y141929D02*
Y150984D01*
X39567Y141929D02*
Y150984D01*
Y141929D02*
X43898D01*
X39567Y150984D02*
X43898D01*
Y189961D02*
Y199016D01*
X39567Y189961D02*
Y199016D01*
Y189961D02*
X43898D01*
X39567Y199016D02*
X43898D01*
Y47441D02*
Y56496D01*
X39567Y47441D02*
Y56496D01*
Y47441D02*
X43898D01*
X39567Y56496D02*
X43898D01*
Y94685D02*
Y103740D01*
X39567Y94685D02*
Y103740D01*
Y94685D02*
X43898D01*
X39567Y103740D02*
X43898D01*
X118110Y182874D02*
Y234449D01*
X165354D01*
Y182874D02*
Y234449D01*
X118110Y182874D02*
X165354D01*
X118110Y119882D02*
Y171457D01*
X165354D01*
Y119882D02*
Y171457D01*
X118110Y119882D02*
X165354D01*
X40354Y358465D02*
Y369094D01*
X46260Y358465D02*
Y369094D01*
X40354D02*
X46260D01*
X40354Y358465D02*
X46260D01*
X40354Y375787D02*
X46260D01*
X40354Y386417D02*
X46260D01*
Y375787D02*
Y386417D01*
X40354Y375787D02*
Y386417D01*
X193504Y363189D02*
Y367520D01*
X184449Y363189D02*
Y367520D01*
X193504D01*
X184449Y363189D02*
X193504D01*
X184449Y369488D02*
X195079D01*
X184449Y375394D02*
X195079D01*
X184449Y369488D02*
Y375394D01*
X195079Y369488D02*
Y375394D01*
X184449Y382087D02*
X195079D01*
X184449Y387992D02*
X195079D01*
X184449Y382087D02*
Y387992D01*
X195079Y382087D02*
Y387992D01*
M02*
